%FSLAX34Y34*%
%MOMM*%
G04 EasyPC Gerber Version 18.0.6 Build 3620 *
%ADD99R,0.30000X0.80000*%
%ADD102R,0.40000X2.00000*%
%ADD20R,0.65000X1.00000*%
%ADD96R,0.76000X1.60000*%
%ADD88R,0.80000X0.90000*%
%ADD90R,0.80000X2.20000*%
%ADD98R,0.90000X1.30000*%
%ADD91R,1.10000X1.90000*%
%ADD94R,1.39000X1.40000*%
%ADD84R,1.50000X2.50000*%
%ADD71R,1.60000X3.00000*%
%ADD24R,1.70000X2.76000*%
%ADD92R,2.50000X4.50000*%
%ADD95R,2.60000X4.50000*%
%ADD93R,3.36000X4.86000*%
%ADD85R,7.00000X7.00000*%
%ADD10C,0.12700*%
%ADD106C,0.16000*%
%ADD82C,0.25000*%
%ADD11C,0.25400*%
%ADD76C,0.30000*%
%ADD105C,0.60000*%
%ADD75C,0.63500*%
%ADD72C,1.21920*%
%ADD14C,1.52400*%
%ADD89C,1.60000*%
%ADD22C,1.70000*%
%ADD83C,3.50000*%
%ADD13C,5.00000*%
%ADD100R,0.80000X0.30000*%
%ADD104R,0.75000X0.50000*%
%ADD25R,1.00000X0.65000*%
%ADD103R,1.27000X0.76000*%
%ADD86R,1.30000X0.76000*%
%ADD26R,1.60000X0.76000*%
%ADD87R,1.20000X0.80000*%
%ADD21R,1.30000X0.90000*%
%ADD23R,1.50000X1.01000*%
%ADD101R,2.70000X1.20000*%
%ADD97R,3.51000X2.62000*%
X0Y0D02*
D02*
D10*
X48635Y498819D02*
X49694Y497760D01*
X112635*
X169635Y440760*
Y427760*
X174635Y422760*
X245635*
X250635Y427760*
X293635*
X294635Y428760*
Y560760*
X292635Y562760*
X254635*
X245635Y553760*
X209635*
X200635Y544760*
Y520760*
X195635Y515760*
X163635*
X157635Y521760*
Y561760*
X154635Y564760*
X48635*
Y498819*
G36*
X49694Y497760*
X112635*
X169635Y440760*
Y427760*
X174635Y422760*
X245635*
X250635Y427760*
X293635*
X294635Y428760*
Y560760*
X292635Y562760*
X254635*
X245635Y553760*
X209635*
X200635Y544760*
Y520760*
X195635Y515760*
X163635*
X157635Y521760*
Y561760*
X154635Y564760*
X48635*
Y498819*
G37*
Y623760D02*
Y568760D01*
X49635Y567760*
X155635*
X157635Y569760*
Y619760*
X153635Y623760*
X48635*
G36*
Y568760*
X49635Y567760*
X155635*
X157635Y569760*
Y619760*
X153635Y623760*
X48635*
G37*
X121810Y189760D02*
X123635D01*
Y209760*
X95635Y237760*
X73186*
G75*
G02X70084I-1551J5000*
G01*
X58635*
Y188760*
X67635Y179760*
X91635*
X101635Y189760*
X105460*
Y201935*
X121810*
Y189760*
X67460Y180585D02*
Y216935D01*
X89810*
Y180585*
X67460*
X58635Y198760D02*
G36*
Y188760D01*
X67635Y179760*
X91635*
X101635Y189760*
X105460*
Y198760*
X89810*
Y180585*
X67460*
Y198760*
X58635*
G37*
X67460D02*
G36*
Y216935D01*
X89810*
Y198760*
X105460*
Y201935*
X121810*
Y189760*
X123635*
Y209760*
X95635Y237760*
X73186*
G75*
G02X70084I-1551J5000*
G01*
X58635*
Y198760*
X67460*
G37*
X184670Y113760D02*
X216635D01*
Y135760*
X184670*
Y113760*
G36*
X216635*
Y135760*
X184670*
Y113760*
G37*
X216635Y138630D02*
Y155760D01*
X212635Y159760*
X184670*
Y138630*
X216635*
G36*
Y155760*
X212635Y159760*
X184670*
Y138630*
X216635*
G37*
X252175Y569760D02*
G75*
G02X252635Y569795I460J-3003D01*
G01*
X345635*
G75*
G02X346095Y569760J-3038*
G01*
X350635*
X354635Y565760*
X425635*
X427635Y567760*
Y697760*
X401635Y723760*
X88635*
X49635Y684760*
Y627760*
X155635*
X161635Y621760*
Y568760*
X164635Y565760*
X246635*
X250635Y569760*
X252175*
G36*
G75*
G02X252635Y569795I460J-3003*
G01*
X345635*
G75*
G02X346095Y569760J-3038*
G01*
X350635*
X354635Y565760*
X425635*
X427635Y567760*
Y697760*
X401635Y723760*
X88635*
X49635Y684760*
Y627760*
X155635*
X161635Y621760*
Y568760*
X164635Y565760*
X246635*
X250635Y569760*
X252175*
G37*
X257600Y420725D02*
X244635Y407760D01*
X202635*
X199635Y404760*
Y377760*
X197635Y375760*
X162635*
X160635Y377760*
Y443760*
X109635Y494760*
X48635*
X45635Y497760*
Y688760*
X84635Y727760*
X394635*
Y807410*
X6985*
Y320110*
X495635*
Y376760*
X502635Y383760*
Y403760*
X498635Y407760*
X381635*
X378635Y404760*
Y379760*
X376752Y377877*
Y377063*
X375938*
X374635Y375760*
X343635*
X341635Y377760*
Y418760*
X339670Y420725*
X257600*
G36*
X244635Y407760*
X202635*
X199635Y404760*
Y377760*
X197635Y375760*
X162635*
X160635Y377760*
Y443760*
X109635Y494760*
X48635*
X45635Y497760*
Y688760*
X84635Y727760*
X394635*
Y807410*
X6985*
Y320110*
X495635*
Y376760*
X502635Y383760*
Y403760*
X498635Y407760*
X381635*
X378635Y404760*
Y379760*
X376752Y377877*
Y377063*
X375938*
X374635Y375760*
X343635*
X341635Y377760*
Y418760*
X339670Y420725*
X257600*
G37*
X361962Y181795D02*
X369378D01*
X376600Y189017*
Y244503*
X374489Y246614*
G75*
G02X373600Y248760I2146J2146*
G01*
Y257470*
G75*
G02X365329Y252362I-9165J5590*
G01*
X354581Y241614*
G75*
G02X352435Y240725I-2146J2146*
G01*
X335900*
G75*
G02X335053Y239795I-4265J3034*
G01*
X361635*
G75*
G02X363781Y238906J-3035*
G01*
X365781Y236906*
G75*
G02X366670Y234760I-2146J-2146*
G01*
Y231025*
G75*
G02Y222495I-3035J-4265*
G01*
Y221760*
G75*
G02X365781Y219614I-3035*
G01*
X360781Y214614*
G75*
G02X358635Y213725I-2146J2146*
G01*
X338892*
X336670Y211503*
Y189760*
G75*
G02X336569Y188983I-3036*
G01*
G75*
G02X338635Y189795I2066J-2223*
G01*
X339400*
Y198495*
X353870*
Y187525*
X349407*
G75*
G02X348781Y186614I-2772J1234*
G01*
X347962Y185795*
X357378*
X359108Y187525*
X356400*
Y198495*
X370870*
Y187525*
X366661*
G75*
G02X365781Y185614I-3026J235*
G01*
X361962Y181795*
G36*
X369378*
X376600Y189017*
Y244503*
X374489Y246614*
G75*
G02X373600Y248760I2146J2146*
G01*
Y257470*
G75*
G02X365329Y252362I-9165J5590*
G01*
X354581Y241614*
G75*
G02X352435Y240725I-2146J2146*
G01*
X335900*
G75*
G02X335053Y239795I-4265J3034*
G01*
X361635*
G75*
G02X363781Y238906J-3035*
G01*
X365781Y236906*
G75*
G02X366670Y234760I-2146J-2146*
G01*
Y231025*
G75*
G02Y222495I-3035J-4265*
G01*
Y221760*
G75*
G02X365781Y219614I-3035*
G01*
X360781Y214614*
G75*
G02X358635Y213725I-2146J2146*
G01*
X338892*
X336670Y211503*
Y189760*
G75*
G02X336569Y188983I-3036*
G01*
G75*
G02X338635Y189795I2066J-2223*
G01*
X339400*
Y198495*
X353870*
Y187525*
X349407*
G75*
G02X348781Y186614I-2772J1234*
G01*
X347962Y185795*
X357378*
X359108Y187525*
X356400*
Y198495*
X370870*
Y187525*
X366661*
G75*
G02X365781Y185614I-3026J235*
G01*
X361962Y181795*
G37*
X368600Y44760D02*
Y68760D01*
X357635*
X356635Y69760*
Y150760*
X356900Y151025*
Y151995*
X357870*
X358635Y152760*
X371635*
Y174760*
X370670Y175725*
G75*
G02X370635I-17J3052*
G01*
X346635*
Y163760*
X346370Y163495*
Y162525*
X345400*
X344635Y161760*
X265635*
X264870Y162525*
X263900*
Y163495*
X262635Y164760*
Y165725*
X261635*
G75*
G02X259489Y166614J3035*
G01*
X250489Y175614*
G75*
G02X249769Y176760I2146J2147*
G01*
X248918*
G75*
G02X248781Y176614I-2282J2004*
G01*
X247670Y175503*
Y174760*
G75*
G02X246781Y172614I-3035*
G01*
X241670Y167503*
Y152760*
X253635*
X254635Y151760*
Y71760*
X253370Y70495*
Y69525*
X252400*
X251635Y68760*
X238635*
Y47795*
X261635*
Y58760*
X263635Y60760*
X347635*
Y44760*
X368600*
G36*
Y68760*
X357635*
X356635Y69760*
Y150760*
X356900Y151025*
Y151995*
X357870*
X358635Y152760*
X371635*
Y174760*
X370670Y175725*
G75*
G02X370635I-17J3052*
G01*
X346635*
Y163760*
X346370Y163495*
Y162525*
X345400*
X344635Y161760*
X265635*
X264870Y162525*
X263900*
Y163495*
X262635Y164760*
Y165725*
X261635*
G75*
G02X259489Y166614J3035*
G01*
X250489Y175614*
G75*
G02X249769Y176760I2146J2147*
G01*
X248918*
G75*
G02X248781Y176614I-2282J2004*
G01*
X247670Y175503*
Y174760*
G75*
G02X246781Y172614I-3035*
G01*
X241670Y167503*
Y152760*
X253635*
X254635Y151760*
Y71760*
X253370Y70495*
Y69525*
X252400*
X251635Y68760*
X238635*
Y47795*
X261635*
Y58760*
X263635Y60760*
X347635*
Y44760*
X368600*
G37*
X376938Y517063D02*
X376635Y516760D01*
X344635*
X342635Y518760*
Y558760*
X339635Y561760*
X303635*
X297635Y555760*
Y429760*
X299635Y427760*
X347635*
X350635Y424760*
X428635*
X442635Y438760*
Y531760*
X429635Y544760*
X380635*
X377752Y541877*
Y517063*
X376938*
G36*
X376635Y516760*
X344635*
X342635Y518760*
Y558760*
X339635Y561760*
X303635*
X297635Y555760*
Y429760*
X299635Y427760*
X347635*
X350635Y424760*
X428635*
X442635Y438760*
Y531760*
X429635Y544760*
X380635*
X377752Y541877*
Y517063*
X376938*
G37*
X387858Y20110D02*
X494285D01*
Y307410*
X6985*
Y20110*
X179993*
X171489Y28614*
G75*
G02X170600Y30760I2146J2146*
G01*
Y37842*
G75*
G02X162370Y38225I-3965J3418*
G01*
X161220*
Y35225*
X144050*
Y38225*
X142900*
G75*
G02X138635Y36025I-4265J3035*
G01*
G75*
G02Y46495J5235*
G01*
G75*
G02X142900Y44295J-5235*
G01*
X144050*
Y47295*
X161220*
Y44295*
X162370*
G75*
G02X170600Y44678I4265J-3035*
G01*
Y50542*
G75*
G02X162370Y50925I-3965J3418*
G01*
X161220*
Y47925*
X144050*
Y50925*
X142900*
G75*
G02X138635Y48725I-4265J3035*
G01*
G75*
G02Y59195J5235*
G01*
G75*
G02X142900Y56995J-5235*
G01*
X144050*
Y59995*
X161220*
Y56995*
X162370*
G75*
G02X166635Y59195I4265J-3035*
G01*
G75*
G02X166915Y59187I-9J-5228*
G01*
X163489Y62614*
G75*
G02X162600Y64760I2146J2146*
G01*
Y126503*
X158378Y130725*
X125892*
X121781Y126614*
G75*
G02X119635Y125725I-2146J2146*
G01*
X63635*
G75*
G02X61489Y126614J3035*
G01*
X47489Y140614*
G75*
G02X46600Y142760I2146J2146*
G01*
Y172503*
X44378Y174725*
X23635*
G75*
G02X21489Y175614J3035*
G01*
X16489Y180614*
G75*
G02X15600Y182760I2146J2146*
G01*
Y211760*
G75*
G02X16489Y213906I3035*
G01*
X18489Y215906*
G75*
G02X20635Y216795I2146J-2146*
G01*
X23860*
G75*
G02X33635Y223995I9775J-3035*
G01*
G75*
G02Y203525J-10235*
G01*
G75*
G02X23860Y210725J10235*
G01*
X21892*
X21670Y210503*
Y184017*
X24892Y180795*
X27207*
G75*
G02X33635Y198995I6428J7965*
G01*
G75*
G02X43410Y191795J-10235*
G01*
X44635*
G75*
G02X46781Y190906J-3035*
G01*
X57781Y179906*
G75*
G02X58670Y177760I-2146J-2146*
G01*
Y148017*
X69892Y136795*
X117378*
X120489Y139906*
G75*
G02X122635Y140795I2146J-2146*
G01*
X161635*
G75*
G02X163781Y139906J-3035*
G01*
X170100Y133587*
Y153367*
X165870Y149137*
Y144525*
X151400*
Y155495*
X162512*
X165200Y158183*
Y160025*
X151400*
Y163703*
X148670Y166433*
Y155760*
G75*
G02X147781Y153614I-3035*
G01*
X142781Y148614*
G75*
G02X140635Y147725I-2146J2146*
G01*
X138870*
Y144525*
X124400*
Y155495*
X138870*
Y153795*
X139378*
X142600Y157017*
Y186503*
X138870Y190233*
Y190025*
X126505*
Y189760*
G75*
G02X123635Y186890I-2870*
G01*
X121810*
G75*
G02X118940Y189760J2870*
G01*
Y190025*
X108330*
Y189760*
G75*
G02X105460Y186890I-2870*
G01*
X102824*
X93664Y177731*
G75*
G02X91635Y176890I-2030J2029*
G01*
X67635*
G75*
G02X65606Y177731I1J2870*
G01*
X56606Y186731*
G75*
G02X55765Y188760I2029J2030*
G01*
Y237760*
G75*
G02X58635Y240630I2870*
G01*
X66853*
G75*
G02X76099Y245495I4782J2130*
G01*
X98635*
G75*
G02X101276Y244401J-3735*
G01*
X109600Y236077*
Y243760*
G75*
G02X110489Y245906I3035*
G01*
X111489Y246906*
G75*
G02X112900Y247705I2147J-2146*
G01*
Y272995*
X125370*
Y262795*
X138378*
X144600Y269017*
Y274447*
G75*
G02X142635Y273725I-1965J2313*
G01*
X114635*
G75*
G02X112489Y274614J3035*
G01*
X106378Y280725*
X100892*
X94781Y274614*
G75*
G02X93526Y273859I-2145J2146*
G01*
X92662Y272995*
X95370*
Y246525*
X82900*
Y272995*
X86100*
Y273760*
G75*
G02X86989Y275906I3035*
G01*
X89989Y278906*
G75*
G02X91244Y279661I2145J-2146*
G01*
X97489Y285906*
G75*
G02X99635Y286795I2146J-2146*
G01*
X107635*
G75*
G02X109781Y285906J-3035*
G01*
X115892Y279795*
X141378*
X144108Y282525*
X130900*
Y305995*
X146370*
Y284787*
X146489Y284906*
G75*
G02X148635Y285795I2146J-2146*
G01*
X173635*
G75*
G02X175781Y284906J-3035*
G01*
X185781Y274906*
G75*
G02X186670Y272760I-2146J-2146*
G01*
Y234017*
X190781Y229906*
G75*
G02X191255Y229292I-2147J-2147*
G01*
G75*
G02X191600Y229074I-2620J-4529*
G01*
Y276510*
G75*
G02X192489Y278656I3035*
G01*
X207400Y293567*
G75*
G02X212635Y298745I5235J-57*
G01*
G75*
G02Y288275J-5235*
G01*
G75*
G02X210965Y288548I-1J5236*
G01*
X197670Y275253*
Y244087*
X203600Y250017*
Y251510*
G75*
G02X204489Y253656I3035*
G01*
X206473Y255640*
G75*
G02X211635Y261745I5162J870*
G01*
G75*
G02Y251275J-5235*
G01*
G75*
G02X210765Y251348I1J5235*
G01*
X209670Y250253*
Y248760*
G75*
G02X208781Y246614I-3035*
G01*
X201670Y239503*
Y234178*
G75*
G02X210797Y229890I3965J-3418*
G01*
X214781Y225906*
G75*
G02X215670Y223760I-2146J-2146*
G01*
Y213420*
G75*
G02X220635Y216995I4965J-1660*
G01*
G75*
G02Y206525J-5235*
G01*
G75*
G02X215670Y210100J5235*
G01*
Y171760*
G75*
G02X214781Y169614I-3035*
G01*
X207797Y162630*
X212635*
G75*
G02X214664Y161789I-1J-2870*
G01*
X218664Y157789*
G75*
G02X219505Y155760I-2029J-2030*
G01*
Y149656*
X227040Y141995*
X231612*
G75*
G02X231600Y142260I3023J270*
G01*
Y177760*
G75*
G02X232489Y179906I3035*
G01*
X235538Y182955*
G75*
G02X240201Y186977I5097J-1195*
G01*
G75*
G02X244132Y194971I4434J2783*
G01*
X243489Y195614*
G75*
G02X242600Y197760I2146J2146*
G01*
Y205495*
G75*
G02X248600Y214074I3034J4265*
G01*
Y234503*
X235289Y247814*
G75*
G02X234400Y249960I2146J2146*
G01*
Y252763*
G75*
G02X226700Y263060I3035J10297*
G01*
G75*
G02X248170I10735*
G01*
G75*
G02X240470Y252763I-10735*
G01*
Y251217*
X251715Y239973*
G75*
G02X256635Y246995I4920J1787*
G01*
G75*
G02X261750Y240644J-5235*
G01*
G75*
G02X267600Y239178I1885J-4884*
G01*
Y242503*
X261489Y248614*
G75*
G02X260600Y250760I2146J2146*
G01*
Y252560*
G75*
G02X252100Y263060I2235J10500*
G01*
G75*
G02X273570I10735*
G01*
G75*
G02X266670Y253033I-10735*
G01*
Y252017*
X272781Y245906*
G75*
G02X273670Y243760I-2146J-2146*
G01*
Y234760*
G75*
G02X273566Y233973I-3037J1*
G01*
X274400Y234807*
G75*
G02X279635Y239995I5235J-47*
G01*
G75*
G02X279682Y229525J-5235*
G01*
X272370Y222213*
Y206557*
X275432Y203495*
X285870*
Y199602*
X291400Y193986*
Y217995*
X299870*
Y194817*
X304781Y189906*
G75*
G02X305670Y187760I-2146J-2146*
G01*
Y174995*
X306370*
Y162525*
X263900*
Y165725*
X261635*
G75*
G02X259489Y166614J3035*
G01*
X250489Y175614*
G75*
G02X249600Y177760I2146J2146*
G01*
Y178112*
G75*
G02X248781Y176614I-2965J648*
G01*
X247670Y175503*
Y174760*
G75*
G02X246781Y172614I-3035*
G01*
X241670Y167503*
Y151995*
X253370*
Y124525*
X240900*
Y129525*
X227635*
G75*
G02X224643Y131025J3734*
G01*
X219400*
Y137861*
G75*
G02X216635Y135760I-2765J769*
G01*
X184670*
Y102017*
X188892Y97795*
X202321*
G75*
G02X208930Y105465I4315J2965*
G01*
G75*
G02X217900Y110795I4705J2295*
G01*
X230378*
X234989Y115406*
G75*
G02X237135Y116295I2146J-2146*
G01*
X240900*
Y121995*
X253370*
Y69525*
X240900*
Y70725*
X227635*
G75*
G02X225489Y71614J3035*
G01*
X213378Y83725*
X210053*
G75*
G02X211636Y78213I-3418J-3965*
G01*
G75*
G02X211670Y77760I-3004J-453*
G01*
Y70017*
X215892Y65795*
X225370*
G75*
G02X229635Y67995I4265J-3035*
G01*
G75*
G02X231764Y57978J-5235*
G01*
G75*
G02X227635Y49525I-4129J-3218*
G01*
G75*
G02X226804Y49591I-3J5232*
G01*
G75*
G02X225053Y44795I-5169J-831*
G01*
X227378*
X229489Y46906*
G75*
G02X231635Y47795I2146J-2146*
G01*
X263900*
Y58995*
X321370*
Y46525*
X316370*
Y21525*
X305400*
Y25025*
X305303*
G75*
G02X296424Y29256I-3668J3735*
G01*
X292781Y25614*
G75*
G02X290635Y24725I-2146J2146*
G01*
X242892*
X238277Y20110*
X377412*
G75*
G02X377520Y20876I5221J-345*
G01*
G75*
G02X370704Y27519I-1885J4884*
G01*
G75*
G02X362704Y33519I-3069J4241*
G01*
G75*
G02X359635Y32525I-3069J4240*
G01*
G75*
G02Y42995J5235*
G01*
G75*
G02X363900Y40795J-5235*
G01*
X365378*
X368600Y44017*
Y69503*
X368578Y69525*
X356900*
Y151995*
X369370*
Y131995*
X376588*
X378900Y134307*
Y177760*
G75*
G02X379994Y180401I3735*
G01*
X384994Y185401*
G75*
G02X387635Y186495I2641J-2641*
G01*
X405385*
G75*
G02X408026Y185401J-3735*
G01*
X420026Y173401*
G75*
G02X421120Y170760I-2641J-2641*
G01*
Y170630*
X422635*
G75*
G02X424664Y169789I-1J-2870*
G01*
X431664Y162789*
G75*
G02X432505Y160760I-2029J-2030*
G01*
Y104949*
X436765Y100689*
Y117760*
G75*
G02X437606Y119789I2870J-1*
G01*
X442606Y124789*
G75*
G02X444635Y125630I2030J-2029*
G01*
X475635*
G75*
G02X478505Y122762J-2868*
G01*
G75*
G02X478277Y104638I-4870J-9002*
G01*
G75*
G02X475635Y102890I-2642J1122*
G01*
X464824*
X461564Y99630*
X474635*
G75*
G02X476664Y98789I-1J-2870*
G01*
X477043Y98411*
G75*
G02X473635Y78525I-3408J-9651*
G01*
G75*
G02X468528Y79890J10235*
G01*
X456570*
Y67475*
X450262*
G75*
G02X449476Y66319I-3427J1485*
G01*
X433276Y50119*
G75*
G02X432449Y49495I-2641J2640*
G01*
X470635*
G75*
G02X472591Y48942J-3734*
G01*
G75*
G02X473635Y48995I1040J-10186*
G01*
G75*
G02Y28525J-10235*
G01*
G75*
G02X463935Y42025J10235*
G01*
X397635*
G75*
G02X394994Y43119J3735*
G01*
X387670Y50443*
Y21760*
G75*
G02X387636Y21307I-3038*
G01*
G75*
G02X387858Y20110I-4999J-1546*
G01*
X144050Y25525D02*
X142900D01*
G75*
G02X138635Y23325I-4265J3035*
G01*
G75*
G02Y33795J5235*
G01*
G75*
G02X142900Y31595J-5235*
G01*
X144050*
Y34595*
X161220*
Y22525*
X144050*
Y25525*
X43164Y35025D02*
G75*
G02X33635Y28525I-9529J3735D01*
G01*
G75*
G02Y48995J10235*
G01*
G75*
G02X43164Y42495J-10235*
G01*
X44088*
X54900Y53307*
Y67760*
G75*
G02X55994Y70401I3735*
G01*
X57900Y72307*
Y77668*
G75*
G02X49473Y82630I-3265J4092*
G01*
X46378Y85725*
X43410*
G75*
G02X33635Y78525I-9775J3035*
G01*
G75*
G02Y98995J10235*
G01*
G75*
G02X43410Y91795J-10235*
G01*
X47635*
G75*
G02X49781Y90906J-3035*
G01*
X53765Y86922*
G75*
G02X57900Y85852I870J-5162*
G01*
Y87213*
X55994Y89119*
G75*
G02X54900Y91760I2641J2641*
G01*
Y112092*
G75*
G02X58635Y120995I3735J3668*
G01*
G75*
G02X62370Y112092J-5235*
G01*
Y93307*
X64276Y91401*
G75*
G02X65370Y88760I-2641J-2641*
G01*
Y70760*
G75*
G02X64276Y68119I-3735*
G01*
X62370Y66213*
Y51760*
G75*
G02X61276Y49119I-3735*
G01*
X48276Y36119*
G75*
G02X45635Y35025I-2641J2641*
G01*
X43164*
X346370Y46525D02*
X323900D01*
Y58995*
X346370*
Y46525*
X473635Y53525D02*
G75*
G02Y73995J10235D01*
G01*
G75*
G02Y53525J-10235*
G01*
X33635D02*
G75*
G02Y73995J10235D01*
G01*
G75*
G02Y53525J-10235*
G01*
X97635Y54525D02*
G75*
G02Y64995J5235D01*
G01*
G75*
G02Y54525J-5235*
G01*
X144050Y63325D02*
X142585D01*
G75*
G02X138635Y61525I-3950J3434*
G01*
G75*
G02Y71995J5235*
G01*
G75*
G02X142585Y70195J-5235*
G01*
X144050*
Y72695*
X161220*
Y60625*
X144050*
Y63325*
Y76325D02*
X142900D01*
G75*
G02X138635Y74125I-4265J3035*
G01*
G75*
G02Y84595J5235*
G01*
G75*
G02X142900Y82395J-5235*
G01*
X144050*
Y85395*
X161220*
Y73325*
X144050*
Y76325*
X97635Y81525D02*
G75*
G02Y91995J5235D01*
G01*
G75*
G02Y81525J-5235*
G01*
X144050Y89025D02*
X142900D01*
G75*
G02X138635Y86825I-4265J3035*
G01*
G75*
G02Y97295J5235*
G01*
G75*
G02X142900Y95095J-5235*
G01*
X144050*
Y98095*
X161220*
Y86025*
X144050*
Y89025*
Y101725D02*
X142900D01*
G75*
G02X138635Y99525I-4265J3035*
G01*
G75*
G02Y109995J5235*
G01*
G75*
G02X142900Y107795J-5235*
G01*
X144050*
Y110795*
X161220*
Y98725*
X144050*
Y101725*
X33635Y103525D02*
G75*
G02Y123995J10235D01*
G01*
G75*
G02Y103525J-10235*
G01*
X144050Y114425D02*
X142900D01*
G75*
G02X138635Y112225I-4265J3035*
G01*
G75*
G02Y122695J5235*
G01*
G75*
G02X142900Y120495J-5235*
G01*
X144050*
Y123495*
X161220*
Y111425*
X144050*
Y114425*
X473635Y128525D02*
G75*
G02Y148995J10235D01*
G01*
G75*
G02Y128525J-10235*
G01*
X33635D02*
G75*
G02Y148995J10235D01*
G01*
G75*
G02Y128525J-10235*
G01*
X451370Y142428D02*
G75*
G02X447635Y133525I-3735J-3668D01*
G01*
G75*
G02X443900Y142428J5235*
G01*
Y188675*
X435870*
Y186525*
X421400*
Y197495*
X435870*
Y196145*
X443967*
G75*
G02X451370Y188742I3668J-3735*
G01*
Y142428*
X473635Y153525D02*
G75*
G02Y173995J10235D01*
G01*
G75*
G02Y153525J-10235*
G01*
X346370Y162525D02*
X308900D01*
Y174995*
X309600*
Y187760*
G75*
G02X310489Y189906I3035*
G01*
X315400Y194817*
Y217995*
X322863*
G75*
G02X323489Y218906I2772J-1234*
G01*
X333489Y228906*
G75*
G02X335635Y229795I2146J-2146*
G01*
X340370*
G75*
G02X349135Y229435I4265J-3035*
G01*
G75*
G02X358635Y228311I4500J-2675*
G01*
G75*
G02X360600Y231025I4999J-1551*
G01*
Y233503*
X360378Y233725*
X315635*
G75*
G02X313489Y234614J3035*
G01*
X311489Y236614*
G75*
G02X310600Y238760I2146J2146*
G01*
Y252763*
G75*
G02X302900Y263060I3035J10297*
G01*
G75*
G02X324370I10735*
G01*
G75*
G02X316670Y252763I-10735*
G01*
Y245420*
G75*
G02X318200Y247710I4963J-1660*
G01*
Y249760*
G75*
G02X319206Y252189I3435*
G01*
X324206Y257189*
G75*
G02X326635Y258195I2429J-2429*
G01*
X329466*
G75*
G02X328300Y263060I9569J4866*
G01*
G75*
G02X349770I10735*
G01*
G75*
G02X334890Y253157I-10735*
G01*
X334064Y252331*
G75*
G02X331635Y251325I-2429J2429*
G01*
X328058*
X325070Y248337*
Y247710*
G75*
G02X326635Y245311I-3434J-3950*
G01*
G75*
G02X335900Y246795I5000J-1551*
G01*
X351178*
X358499Y254116*
G75*
G02X353700Y263060I5936J8944*
G01*
G75*
G02X373600Y268650I10735*
G01*
Y294503*
X368378Y299725*
X279892*
X272748Y292581*
G75*
G02X273570Y288460I-9914J-4120*
G01*
G75*
G02X252100I-10735*
G01*
G75*
G02X268900Y297317I10735*
G01*
X276489Y304906*
G75*
G02X278635Y305795I2146J-2146*
G01*
X369635*
G75*
G02X371781Y304906J-3035*
G01*
X378781Y297906*
G75*
G02X379670Y295760I-2146J-2146*
G01*
Y266512*
G75*
G02X399268Y268185I10165J-3452*
G01*
X423973Y292890*
G75*
G02X429135Y298995I5162J870*
G01*
G75*
G02Y288525J-5235*
G01*
G75*
G02X428265Y288598I1J5235*
G01*
X400581Y260914*
G75*
G02X400299Y260665I-2149J2149*
G01*
G75*
G02X379670Y259608I-10464J2394*
G01*
Y250017*
X381781Y247906*
G75*
G02X382670Y245760I-2146J-2146*
G01*
Y187760*
G75*
G02X381781Y185614I-3035*
G01*
X372781Y176614*
G75*
G02X370635Y175725I-2146J2146*
G01*
X345670*
Y174995*
X346370*
Y162525*
X460370Y167428D02*
G75*
G02X456635Y158525I-3735J-3668D01*
G01*
G75*
G02X452900Y167428J5235*
G01*
Y201375*
X431035*
G75*
G02X428930Y202025J3734*
G01*
X421400*
Y212995*
X435870*
Y208845*
X452967*
G75*
G02X460370Y201442I3668J-3735*
G01*
Y167428*
X124400Y176275D02*
X120870D01*
Y174525*
X106400*
Y185495*
X120870*
Y183745*
X124400*
Y185495*
X138870*
Y174525*
X124400*
Y176275*
X473635Y178525D02*
G75*
G02Y198995J10235D01*
G01*
G75*
G02Y178525J-10235*
G01*
Y203525D02*
G75*
G02Y223995J10235D01*
G01*
G75*
G02Y203525J-10235*
G01*
X399635Y240525D02*
G75*
G02Y250995J5235D01*
G01*
G75*
G02Y240525J-5235*
G01*
X473635Y253525D02*
G75*
G02Y273995J10235D01*
G01*
G75*
G02Y253525J-10235*
G01*
X33635D02*
G75*
G02Y273995J10235D01*
G01*
G75*
G02Y253525J-10235*
G01*
X298970Y263060D02*
G75*
G02X277500I-10735D01*
G01*
G75*
G02X298970I10735*
G01*
X61900Y282525D02*
Y305995D01*
X77370*
Y282525*
X61900*
X349770Y288460D02*
G75*
G02X328300I-10735D01*
G01*
G75*
G02X349770I10735*
G01*
X324370D02*
G75*
G02X302900I-10735D01*
G01*
G75*
G02X324370I10735*
G01*
X298970D02*
G75*
G02X277500I-10735D01*
G01*
G75*
G02X298970I10735*
G01*
X6985Y28560D02*
G36*
Y20110D01*
X179993*
X171543Y28560*
X161220*
Y22525*
X144050*
Y25525*
X142900*
G75*
G02X138635Y23325I-4265J3035*
G01*
G75*
G02X133400Y28560J5235*
G01*
X34481*
G75*
G02X33635Y28525I-846J10199*
G01*
G75*
G02X32789Y28560J10236*
G01*
X6985*
G37*
X32789D02*
G36*
G75*
G02X33635Y48995I846J10200D01*
G01*
G75*
G02X43164Y42495J-10235*
G01*
X44088*
X54353Y52760*
X6985*
Y28560*
X32789*
G37*
X133400D02*
G36*
G75*
G02X138635Y33795I5235D01*
G01*
G75*
G02X142900Y31595J-5235*
G01*
X144050*
Y34595*
X161220*
Y28560*
X171543*
X171489Y28614*
G75*
G02X170600Y30760I2146J2146*
G01*
Y37842*
G75*
G02X162370Y38225I-3965J3418*
G01*
X161220*
Y35225*
X144050*
Y38225*
X142900*
G75*
G02X138635Y36025I-4265J3035*
G01*
G75*
G02Y46495J5235*
G01*
G75*
G02X142900Y44295J-5235*
G01*
X144050*
Y47295*
X161220*
Y44295*
X162370*
G75*
G02X170600Y44678I4265J-3035*
G01*
Y50542*
G75*
G02X162370Y50925I-3965J3418*
G01*
X161220*
Y47925*
X144050*
Y50925*
X142900*
G75*
G02X138635Y48725I-4265J3035*
G01*
G75*
G02X133539Y52760J5235*
G01*
X62370*
Y51760*
G75*
G02X61276Y49119I-3735*
G01*
X48276Y36119*
G75*
G02X45635Y35025I-2641J2641*
G01*
X43164*
G75*
G02X34481Y28560I-9529J3735*
G01*
X133400*
G37*
X54353Y52760D02*
G36*
X54900Y53307D01*
Y63760*
X43870*
G75*
G02X33635Y53525I-10235*
G01*
G75*
G02X23400Y63760J10235*
G01*
X6985*
Y52760*
X54353*
G37*
X133539D02*
G36*
G75*
G02X138635Y59195I5096J1200D01*
G01*
G75*
G02X142900Y56995J-5235*
G01*
X144050*
Y59995*
X161220*
Y56995*
X162370*
G75*
G02X166635Y59195I4265J-3035*
G01*
G75*
G02X166915Y59187I-9J-5228*
G01*
X163489Y62614*
G75*
G02X162770Y63760I2147J2145*
G01*
X161220*
Y60625*
X144050*
Y63325*
X142585*
G75*
G02X138635Y61525I-3950J3434*
G01*
G75*
G02X134345Y63760J5235*
G01*
X101012*
G75*
G02X97635Y54525I-3377J-4000*
G01*
G75*
G02X94258Y63760J5235*
G01*
X62370*
Y52760*
X133539*
G37*
X321370D02*
G36*
Y46525D01*
X316370*
Y21525*
X305400*
Y25025*
X305303*
G75*
G02X296424Y29256I-3668J3735*
G01*
X292781Y25614*
G75*
G02X290635Y24725I-2146J2146*
G01*
X242892*
X238277Y20110*
X377412*
G75*
G02X377520Y20876I5221J-345*
G01*
G75*
G02X370704Y27519I-1885J4884*
G01*
G75*
G02X362704Y33519I-3069J4241*
G01*
G75*
G02X359635Y32525I-3069J4240*
G01*
G75*
G02Y42995J5235*
G01*
G75*
G02X363900Y40795J-5235*
G01*
X365378*
X368600Y44017*
Y52760*
X346370*
Y46525*
X323900*
Y52760*
X321370*
G37*
X323900D02*
G36*
Y58995D01*
X346370*
Y52760*
X368600*
Y69503*
X368578Y69525*
X356900*
Y151995*
X369370*
Y131995*
X376588*
X378900Y134307*
Y163760*
X346370*
Y162525*
X308900*
Y163760*
X306370*
Y162525*
X263900*
Y165725*
X261635*
G75*
G02X259489Y166614J3035*
G01*
X250489Y175614*
G75*
G02X249600Y177760I2146J2146*
G01*
Y178112*
G75*
G02X248781Y176614I-2965J648*
G01*
X247670Y175503*
Y174760*
G75*
G02X246781Y172614I-3035*
G01*
X241670Y167503*
Y151995*
X253370*
Y124525*
X240900*
Y129525*
X227635*
G75*
G02X224643Y131025J3734*
G01*
X219400*
Y137861*
G75*
G02X216635Y135760I-2765J769*
G01*
X184670*
Y102017*
X188892Y97795*
X202321*
G75*
G02X208930Y105465I4315J2965*
G01*
G75*
G02X217900Y110795I4705J2295*
G01*
X230378*
X234989Y115406*
G75*
G02X237135Y116295I2146J-2146*
G01*
X240900*
Y121995*
X253370*
Y69525*
X240900*
Y70725*
X227635*
G75*
G02X225489Y71614J3035*
G01*
X213378Y83725*
X210053*
G75*
G02X211636Y78213I-3418J-3965*
G01*
G75*
G02X211670Y77760I-3004J-453*
G01*
Y70017*
X215892Y65795*
X225370*
G75*
G02X229635Y67995I4265J-3035*
G01*
G75*
G02X231764Y57978J-5235*
G01*
G75*
G02X227635Y49525I-4129J-3218*
G01*
G75*
G02X226804Y49591I-3J5232*
G01*
G75*
G02X225053Y44795I-5169J-831*
G01*
X227378*
X229489Y46906*
G75*
G02X231635Y47795I2146J-2146*
G01*
X263900*
Y58995*
X321370*
Y52760*
X323900*
G37*
X23400Y63760D02*
G36*
G75*
G02X33635Y73995I10235D01*
G01*
G75*
G02X43870Y63760J-10235*
G01*
X54900*
Y67760*
G75*
G02X55994Y70401I3735*
G01*
X57900Y72307*
Y77668*
G75*
G02X49473Y82630I-3265J4092*
G01*
X46378Y85725*
X43410*
G75*
G02X33635Y78525I-9775J3035*
G01*
G75*
G02X29586Y79360J10235*
G01*
X6985*
Y63760*
X23400*
G37*
X94258D02*
G36*
G75*
G02X97635Y64995I3377J-4000D01*
G01*
G75*
G02X101012Y63760J-5235*
G01*
X134345*
G75*
G02X138635Y71995I4290J3000*
G01*
G75*
G02X142585Y70195J-5235*
G01*
X144050*
Y72695*
X161220*
Y63760*
X162770*
G75*
G02X162600Y64760I2865J1001*
G01*
Y79360*
X161220*
Y73325*
X144050*
Y76325*
X142900*
G75*
G02X138635Y74125I-4265J3035*
G01*
G75*
G02X133400Y79360J5235*
G01*
X65370*
Y70760*
G75*
G02X64276Y68119I-3735*
G01*
X62370Y66213*
Y63760*
X94258*
G37*
X446917D02*
G36*
X433276Y50119D01*
G75*
G02X432449Y49495I-2641J2640*
G01*
X470635*
G75*
G02X472591Y48942J-3734*
G01*
G75*
G02X473635Y48995I1040J-10186*
G01*
G75*
G02Y28525J-10235*
G01*
G75*
G02X463935Y42025J10235*
G01*
X397635*
G75*
G02X394994Y43119J3735*
G01*
X387670Y50443*
Y21760*
G75*
G02X387636Y21307I-3038*
G01*
G75*
G02X387858Y20110I-4999J-1546*
G01*
X494285*
Y63760*
X483870*
G75*
G02X473635Y53525I-10235*
G01*
G75*
G02X463400Y63760J10235*
G01*
X446917*
G37*
X463400D02*
G36*
G75*
G02X473635Y73995I10235D01*
G01*
G75*
G02X483870Y63760J-10235*
G01*
X494285*
Y138760*
X483870*
G75*
G02X473635Y128525I-10235*
G01*
G75*
G02X463400Y138760J10235*
G01*
X452870*
G75*
G02X447635Y133525I-5235*
G01*
G75*
G02X442400Y138760J5235*
G01*
X432505*
Y104949*
X436765Y100689*
Y117760*
G75*
G02X437606Y119789I2870J-1*
G01*
X442606Y124789*
G75*
G02X444635Y125630I2030J-2029*
G01*
X475635*
G75*
G02X478505Y122762J-2868*
G01*
G75*
G02X478277Y104638I-4870J-9002*
G01*
G75*
G02X475635Y102890I-2642J1122*
G01*
X464824*
X461564Y99630*
X474635*
G75*
G02X476664Y98789I-1J-2870*
G01*
X477043Y98411*
G75*
G02X473635Y78525I-3408J-9651*
G01*
G75*
G02X468528Y79890J10235*
G01*
X456570*
Y67475*
X450262*
G75*
G02X449476Y66319I-3427J1485*
G01*
X446917Y63760*
X463400*
G37*
X29586Y79360D02*
G36*
G75*
G02X23597Y86760I4049J9400D01*
G01*
X6985*
Y79360*
X29586*
G37*
X133400D02*
G36*
G75*
G02X138635Y84595I5235D01*
G01*
G75*
G02X142900Y82395J-5235*
G01*
X144050*
Y85395*
X161220*
Y79360*
X162600*
Y86760*
X161220*
Y86025*
X144050*
Y86760*
X102870*
G75*
G02X97635Y81525I-5235*
G01*
G75*
G02X92400Y86760J5235*
G01*
X65370*
Y79360*
X133400*
G37*
X23597Y86760D02*
G36*
G75*
G02X33635Y98995I10038J2000D01*
G01*
G75*
G02X43410Y91795J-10235*
G01*
X47635*
G75*
G02X49781Y90906J-3035*
G01*
X53765Y86922*
G75*
G02X57900Y85852I870J-5162*
G01*
Y87213*
X55994Y89119*
G75*
G02X54900Y91760I2641J2641*
G01*
Y104760*
X38509*
G75*
G02X33635Y103525I-4874J9000*
G01*
G75*
G02X28761Y104760J10235*
G01*
X6985*
Y86760*
X23597*
G37*
X92400D02*
G36*
G75*
G02X97635Y91995I5235D01*
G01*
G75*
G02X102870Y86760J-5235*
G01*
X144050*
Y89025*
X142900*
G75*
G02X138635Y86825I-4265J3035*
G01*
G75*
G02Y97295J5235*
G01*
G75*
G02X142900Y95095J-5235*
G01*
X144050*
Y98095*
X161220*
Y86760*
X162600*
Y104760*
X161220*
Y98725*
X144050*
Y101725*
X142900*
G75*
G02X138635Y99525I-4265J3035*
G01*
G75*
G02X133400Y104760J5235*
G01*
X62370*
Y93307*
X64276Y91401*
G75*
G02X65370Y88760I-2641J-2641*
G01*
Y86760*
X92400*
G37*
X28761Y104760D02*
G36*
G75*
G02X24092Y117460I4874J9000D01*
G01*
X6985*
Y104760*
X28761*
G37*
X54900D02*
G36*
Y112092D01*
G75*
G02X53684Y117460I3735J3668*
G01*
X43178*
G75*
G02X38509Y104760I-9543J-3700*
G01*
X54900*
G37*
X133400D02*
G36*
G75*
G02X138635Y109995I5235D01*
G01*
G75*
G02X142900Y107795J-5235*
G01*
X144050*
Y110795*
X161220*
Y104760*
X162600*
Y117460*
X161220*
Y111425*
X144050*
Y114425*
X142900*
G75*
G02X138635Y112225I-4265J3035*
G01*
G75*
G02X133400Y117460J5235*
G01*
X63586*
G75*
G02X62370Y112092I-4951J-1700*
G01*
Y104760*
X133400*
G37*
X24092Y117460D02*
G36*
G75*
G02X33635Y123995I9543J-3700D01*
G01*
G75*
G02X43178Y117460J-10235*
G01*
X53684*
G75*
G02X58635Y120995I4951J-1700*
G01*
G75*
G02X63586Y117460J-5235*
G01*
X133400*
G75*
G02X138635Y122695I5235*
G01*
G75*
G02X142900Y120495J-5235*
G01*
X144050*
Y123495*
X161220*
Y117460*
X162600*
Y126503*
X158378Y130725*
X125892*
X121781Y126614*
G75*
G02X119635Y125725I-2146J2146*
G01*
X63635*
G75*
G02X61489Y126614J3035*
G01*
X49343Y138760*
X43870*
G75*
G02X33635Y128525I-10235*
G01*
G75*
G02X23400Y138760J10235*
G01*
X6985*
Y117460*
X24092*
G37*
X23400Y138760D02*
G36*
G75*
G02X33635Y148995I10235D01*
G01*
G75*
G02X43870Y138760J-10235*
G01*
X49343*
X47489Y140614*
G75*
G02X46600Y142760I2146J2146*
G01*
Y172503*
X44378Y174725*
X23635*
G75*
G02X21489Y175614J3035*
G01*
X16489Y180614*
G75*
G02X15600Y182760I2146J2146*
G01*
Y211760*
G75*
G02X16489Y213906I3035*
G01*
X18489Y215906*
G75*
G02X20635Y216795I2146J-2146*
G01*
X23860*
G75*
G02X33635Y223995I9775J-3035*
G01*
G75*
G02Y203525J-10235*
G01*
G75*
G02X23860Y210725J10235*
G01*
X21892*
X21670Y210503*
Y184017*
X24892Y180795*
X27207*
G75*
G02X33635Y198995I6428J7965*
G01*
G75*
G02X43410Y191795J-10235*
G01*
X44635*
G75*
G02X46781Y190906J-3035*
G01*
X57781Y179906*
G75*
G02X58670Y177760I-2146J-2146*
G01*
Y148017*
X69892Y136795*
X117378*
X120489Y139906*
G75*
G02X122635Y140795I2146J-2146*
G01*
X161635*
G75*
G02X163781Y139906J-3035*
G01*
X170100Y133587*
Y153367*
X165870Y149137*
Y144525*
X151400*
Y155495*
X162512*
X165200Y158183*
Y160025*
X151400*
Y163703*
X148670Y166433*
Y155760*
G75*
G02X147781Y153614I-3035*
G01*
X142781Y148614*
G75*
G02X140635Y147725I-2146J2146*
G01*
X138870*
Y144525*
X124400*
Y155495*
X138870*
Y153795*
X139378*
X142600Y157017*
Y180010*
X138870*
Y174525*
X124400*
Y176275*
X120870*
Y174525*
X106400*
Y180010*
X95943*
X93664Y177731*
G75*
G02X91635Y176890I-2030J2029*
G01*
X67635*
G75*
G02X65606Y177731I1J2870*
G01*
X56606Y186731*
G75*
G02X55765Y188760I2029J2030*
G01*
Y237760*
G75*
G02X58635Y240630I2870*
G01*
X66853*
G75*
G02X76099Y245495I4782J2130*
G01*
X98635*
G75*
G02X101276Y244401J-3735*
G01*
X109600Y236077*
Y243760*
G75*
G02X110489Y245906I3035*
G01*
X111489Y246906*
G75*
G02X112900Y247705I2147J-2146*
G01*
Y272995*
X125370*
Y262795*
X138378*
X144600Y269017*
Y274447*
G75*
G02X142635Y273725I-1965J2313*
G01*
X114635*
G75*
G02X112489Y274614J3035*
G01*
X106378Y280725*
X100892*
X94781Y274614*
G75*
G02X93526Y273859I-2145J2146*
G01*
X92662Y272995*
X95370*
Y246525*
X82900*
Y263760*
X43870*
G75*
G02X33635Y253525I-10235*
G01*
G75*
G02X23400Y263760J10235*
G01*
X6985*
Y138760*
X23400*
G37*
X442400D02*
G36*
G75*
G02X443900Y142428I5235D01*
G01*
Y163760*
X430693*
X431664Y162789*
G75*
G02X432505Y160760I-2029J-2030*
G01*
Y138760*
X442400*
G37*
X463400D02*
G36*
G75*
G02X473635Y148995I10235D01*
G01*
G75*
G02X483870Y138760J-10235*
G01*
X494285*
Y163760*
X483870*
G75*
G02X473635Y153525I-10235*
G01*
G75*
G02X463400Y163760J10235*
G01*
X461870*
G75*
G02X456635Y158525I-5235*
G01*
G75*
G02X451400Y163760J5235*
G01*
X451370*
Y142428*
G75*
G02X452870Y138760I-3735J-3668*
G01*
X463400*
G37*
X308900Y163760D02*
G36*
Y174995D01*
X309600*
Y180010*
X305670*
Y174995*
X306370*
Y163760*
X308900*
G37*
X378900D02*
G36*
Y177760D01*
G75*
G02X379654Y180010I3735*
G01*
X376177*
X372781Y176614*
G75*
G02X370635Y175725I-2146J2146*
G01*
X345670*
Y174995*
X346370*
Y163760*
X378900*
G37*
X443900D02*
G36*
Y180010D01*
X413417*
X420026Y173401*
G75*
G02X421120Y170760I-2641J-2641*
G01*
Y170630*
X422635*
G75*
G02X424664Y169789I-1J-2870*
G01*
X430693Y163760*
X443900*
G37*
X451400D02*
G36*
G75*
G02X452900Y167428I5235D01*
G01*
Y180010*
X451370*
Y163760*
X451400*
G37*
X463400D02*
G36*
G75*
G02X473635Y173995I10235D01*
G01*
G75*
G02X483870Y163760J-10235*
G01*
X494285*
Y180010*
X478945*
G75*
G02X473635Y178525I-5310J8750*
G01*
G75*
G02X468325Y180010J10235*
G01*
X460370*
Y167428*
G75*
G02X461870Y163760I-3735J-3668*
G01*
X463400*
G37*
X106400Y180010D02*
G36*
Y185495D01*
X120870*
Y183745*
X124400*
Y185495*
X138870*
Y180010*
X142600*
Y186503*
X138870Y190233*
Y190025*
X126505*
Y189760*
G75*
G02X123635Y186890I-2870*
G01*
X121810*
G75*
G02X118940Y189760J2870*
G01*
Y190025*
X108330*
Y189760*
G75*
G02X105460Y186890I-2870*
G01*
X102824*
X95943Y180010*
X106400*
G37*
X309600D02*
G36*
Y187760D01*
G75*
G02X310489Y189906I3035*
G01*
X315400Y194817*
Y213760*
X299870*
Y194817*
X304781Y189906*
G75*
G02X305670Y187760I-2146J-2146*
G01*
Y180010*
X309600*
G37*
X379654D02*
G36*
G75*
G02X379994Y180401I2982J-2249D01*
G01*
X384994Y185401*
G75*
G02X387635Y186495I2641J-2641*
G01*
X405385*
G75*
G02X408026Y185401J-3735*
G01*
X413417Y180010*
X443900*
Y188675*
X435870*
Y186525*
X421400*
Y197495*
X435870*
Y196145*
X443967*
G75*
G02X451370Y188742I3668J-3735*
G01*
Y180010*
X452900*
Y201375*
X431035*
G75*
G02X428930Y202025J3734*
G01*
X421400*
Y212995*
X435870*
Y208845*
X452967*
G75*
G02X460370Y201442I3668J-3735*
G01*
Y180010*
X468325*
G75*
G02X473635Y198995I5310J8750*
G01*
G75*
G02X478945Y180010J-10235*
G01*
X494285*
Y213760*
X483870*
G75*
G02X473635Y203525I-10235*
G01*
G75*
G02X463400Y213760J10235*
G01*
X382670*
Y187760*
G75*
G02X381781Y185614I-3035*
G01*
X376177Y180010*
X379654*
G37*
X315400Y213760D02*
G36*
Y217995D01*
X322863*
G75*
G02X323489Y218906I2772J-1234*
G01*
X333489Y228906*
G75*
G02X335635Y229795I2146J-2146*
G01*
X340370*
G75*
G02X349135Y229435I4265J-3035*
G01*
G75*
G02X358635Y228311I4500J-2675*
G01*
G75*
G02X360600Y231025I4999J-1551*
G01*
Y233503*
X360378Y233725*
X315635*
G75*
G02X313489Y234614J3035*
G01*
X311489Y236614*
G75*
G02X310600Y238760I2146J2146*
G01*
Y245760*
X272918*
G75*
G02X273670Y243760I-2283J-2000*
G01*
Y234760*
G75*
G02X273566Y233973I-3037J1*
G01*
X274400Y234807*
G75*
G02X279635Y239995I5235J-47*
G01*
G75*
G02X279682Y229525J-5235*
G01*
X272370Y222213*
Y206557*
X275432Y203495*
X285870*
Y199602*
X291400Y193986*
Y217995*
X299870*
Y213760*
X315400*
G37*
X463400D02*
G36*
G75*
G02X473635Y223995I10235D01*
G01*
G75*
G02X483870Y213760J-10235*
G01*
X494285*
Y245760*
X404870*
G75*
G02X399635Y240525I-5235*
G01*
G75*
G02X394400Y245760J5235*
G01*
X382670*
Y213760*
X463400*
G37*
X310600Y245760D02*
G36*
Y252763D01*
G75*
G02X302900Y263060I3035J10297*
G01*
G75*
G02X302923Y263760I10734J-2*
G01*
X298947*
G75*
G02X298970Y263060I-10714J-702*
G01*
G75*
G02X277500I-10735*
G01*
G75*
G02X277523Y263760I10734J-2*
G01*
X273547*
G75*
G02X273570Y263060I-10714J-702*
G01*
G75*
G02X266670Y253033I-10735*
G01*
Y252017*
X272781Y245906*
G75*
G02X272918Y245760I-2143J-2148*
G01*
X310600*
G37*
X394400D02*
G36*
G75*
G02X399635Y250995I5235D01*
G01*
G75*
G02X404870Y245760J-5235*
G01*
X494285*
Y263760*
X483870*
G75*
G02X473635Y253525I-10235*
G01*
G75*
G02X463400Y263760J10235*
G01*
X403427*
X400581Y260914*
G75*
G02X400299Y260665I-2149J2149*
G01*
G75*
G02X379670Y259608I-10464J2394*
G01*
Y250017*
X381781Y247906*
G75*
G02X382670Y245760I-2146J-2146*
G01*
X394400*
G37*
X23400Y263760D02*
G36*
G75*
G02X33635Y273995I10235D01*
G01*
G75*
G02X43870Y263760J-10235*
G01*
X82900*
Y272995*
X86100*
Y273760*
G75*
G02X86989Y275906I3035*
G01*
X89989Y278906*
G75*
G02X91244Y279661I2145J-2146*
G01*
X97489Y285906*
G75*
G02X99635Y286795I2146J-2146*
G01*
X107635*
G75*
G02X109781Y285906J-3035*
G01*
X115892Y279795*
X141378*
X144108Y282525*
X130900*
Y294260*
X77370*
Y282525*
X61900*
Y294260*
X6985*
Y263760*
X23400*
G37*
X277523D02*
G36*
G75*
G02X298947I10712J-700D01*
G01*
X302923*
G75*
G02X324370Y263060I10712J-700*
G01*
G75*
G02X316670Y252763I-10735*
G01*
Y245420*
G75*
G02X318200Y247710I4963J-1660*
G01*
Y249760*
G75*
G02X319206Y252189I3435*
G01*
X324206Y257189*
G75*
G02X326635Y258195I2429J-2429*
G01*
X329466*
G75*
G02X328300Y263060I9569J4866*
G01*
G75*
G02X349770I10735*
G01*
G75*
G02X334890Y253157I-10735*
G01*
X334064Y252331*
G75*
G02X331635Y251325I-2429J2429*
G01*
X328058*
X325070Y248337*
Y247710*
G75*
G02X326635Y245311I-3434J-3950*
G01*
G75*
G02X335900Y246795I5000J-1551*
G01*
X351178*
X358499Y254116*
G75*
G02X353700Y263060I5936J8944*
G01*
G75*
G02X373600Y268650I10735*
G01*
Y294260*
X348068*
G75*
G02X349770Y288460I-9033J-5800*
G01*
G75*
G02X328300I-10735*
G01*
G75*
G02X330002Y294260I10735*
G01*
X322668*
G75*
G02X324370Y288460I-9033J-5800*
G01*
G75*
G02X302900I-10735*
G01*
G75*
G02X304602Y294260I10735*
G01*
X297268*
G75*
G02X298970Y288460I-9033J-5800*
G01*
G75*
G02X277500I-10735*
G01*
G75*
G02X279202Y294260I10735*
G01*
X274427*
X272748Y292581*
G75*
G02X273570Y288460I-9914J-4120*
G01*
G75*
G02X252100I-10735*
G01*
G75*
G02X253802Y294260I10735*
G01*
X217816*
G75*
G02X212635Y288275I-5181J-750*
G01*
G75*
G02X210965Y288548I-1J5236*
G01*
X197670Y275253*
Y244087*
X203600Y250017*
Y251510*
G75*
G02X204489Y253656I3035*
G01*
X206473Y255640*
G75*
G02X211635Y261745I5162J870*
G01*
G75*
G02Y251275J-5235*
G01*
G75*
G02X210765Y251348I1J5235*
G01*
X209670Y250253*
Y248760*
G75*
G02X208781Y246614I-3035*
G01*
X201670Y239503*
Y234178*
G75*
G02X210797Y229890I3965J-3418*
G01*
X214781Y225906*
G75*
G02X215670Y223760I-2146J-2146*
G01*
Y213420*
G75*
G02X220635Y216995I4965J-1660*
G01*
G75*
G02Y206525J-5235*
G01*
G75*
G02X215670Y210100J5235*
G01*
Y171760*
G75*
G02X214781Y169614I-3035*
G01*
X207797Y162630*
X212635*
G75*
G02X214664Y161789I-1J-2870*
G01*
X218664Y157789*
G75*
G02X219505Y155760I-2029J-2030*
G01*
Y149656*
X227040Y141995*
X231612*
G75*
G02X231600Y142260I3023J270*
G01*
Y177760*
G75*
G02X232489Y179906I3035*
G01*
X235538Y182955*
G75*
G02X240201Y186977I5097J-1195*
G01*
G75*
G02X244132Y194971I4434J2783*
G01*
X243489Y195614*
G75*
G02X242600Y197760I2146J2146*
G01*
Y205495*
G75*
G02X248600Y214074I3034J4265*
G01*
Y234503*
X235289Y247814*
G75*
G02X234400Y249960I2146J2146*
G01*
Y252763*
G75*
G02X226700Y263060I3035J10297*
G01*
G75*
G02X248170I10735*
G01*
G75*
G02X240470Y252763I-10735*
G01*
Y251217*
X251715Y239973*
G75*
G02X256635Y246995I4920J1787*
G01*
G75*
G02X261750Y240644J-5235*
G01*
G75*
G02X267600Y239178I1885J-4884*
G01*
Y242503*
X261489Y248614*
G75*
G02X260600Y250760I2146J2146*
G01*
Y252560*
G75*
G02X252100Y263060I2235J10500*
G01*
G75*
G02X273547Y263760I10735*
G01*
X277523*
G37*
X463400D02*
G36*
G75*
G02X473635Y273995I10235D01*
G01*
G75*
G02X483870Y263760J-10235*
G01*
X494285*
Y294260*
X434346*
G75*
G02X429135Y288525I-5211J-500*
G01*
G75*
G02X428265Y288598I1J5235*
G01*
X403427Y263760*
X463400*
G37*
X61900Y294260D02*
G36*
Y305995D01*
X77370*
Y294260*
X130900*
Y305995*
X146370*
Y284787*
X146489Y284906*
G75*
G02X148635Y285795I2146J-2146*
G01*
X173635*
G75*
G02X175781Y284906J-3035*
G01*
X185781Y274906*
G75*
G02X186670Y272760I-2146J-2146*
G01*
Y234017*
X190781Y229906*
G75*
G02X191255Y229292I-2147J-2147*
G01*
G75*
G02X191600Y229074I-2620J-4529*
G01*
Y276510*
G75*
G02X192489Y278656I3035*
G01*
X207400Y293567*
G75*
G02X212635Y298745I5235J-57*
G01*
G75*
G02X217816Y294260J-5235*
G01*
X253802*
G75*
G02X268900Y297317I9033J-5800*
G01*
X276489Y304906*
G75*
G02X278635Y305795I2146J-2146*
G01*
X369635*
G75*
G02X371781Y304906J-3035*
G01*
X378781Y297906*
G75*
G02X379670Y295760I-2146J-2146*
G01*
Y266512*
G75*
G02X399268Y268185I10165J-3452*
G01*
X423973Y292890*
G75*
G02X429135Y298995I5162J870*
G01*
G75*
G02X434346Y294260J-5235*
G01*
X494285*
Y307410*
X6985*
Y294260*
X61900*
G37*
X279202D02*
G36*
G75*
G02X297268I9033J-5800D01*
G01*
X304602*
G75*
G02X322668I9033J-5800*
G01*
X330002*
G75*
G02X348068I9033J-5800*
G01*
X373600*
Y294503*
X368378Y299725*
X279892*
X274427Y294260*
X279202*
G37*
X457505Y99630D02*
X463635Y105760D01*
X475635*
Y122760*
X444635*
X439635Y117760*
Y99630*
X457505*
G36*
X463635Y105760*
X475635*
Y122760*
X444635*
X439635Y117760*
Y99630*
X457505*
G37*
X474084Y627760D02*
X452635D01*
X446635Y621760*
Y426760*
X462635*
X478635Y442760*
Y558760*
X483635Y563760*
Y621760*
X477635Y627760*
X477186*
G75*
G02X474084I-1551J5001*
G01*
G36*
X452635*
X446635Y621760*
Y426760*
X462635*
X478635Y442760*
Y558760*
X483635Y563760*
Y621760*
X477635Y627760*
X477186*
G75*
G02X474084I-1551J5001*
G01*
G37*
X475635Y82760D02*
X480635Y87760D01*
Y90760*
X474635Y96760*
X436635*
X429635Y103760*
Y160760*
X422635Y167760*
X414635*
X413635Y166760*
Y114760*
X411635Y112760*
X404635*
X401635Y109760*
Y62760*
X404635Y59760*
X427635*
X429635Y61760*
Y75760*
X436635Y82760*
X475635*
G36*
X480635Y87760*
Y90760*
X474635Y96760*
X436635*
X429635Y103760*
Y160760*
X422635Y167760*
X414635*
X413635Y166760*
Y114760*
X411635Y112760*
X404635*
X401635Y109760*
Y62760*
X404635Y59760*
X427635*
X429635Y61760*
Y75760*
X436635Y82760*
X475635*
G37*
X481635Y425468D02*
Y419760D01*
X487635Y413760*
X502635*
X507635Y408760*
Y374760*
X626635*
X634635Y382760*
X682635*
X714635Y414760*
Y457760*
X732635Y475760*
Y503435*
G75*
G02X723981Y497455I-8000J2325*
G01*
X709460Y482935*
G75*
G02X705635Y481350I-3826J3825*
G01*
X654635*
G75*
G02X650810Y482935I1J5410*
G01*
X638394Y495350*
X638370*
Y492025*
X637045*
Y449001*
X643876Y442170*
X645400*
Y461495*
X675870*
Y412025*
X645400*
Y431350*
X641635*
G75*
G02X637810Y432935I1J5410*
G01*
X627810Y442935*
G75*
G02X626225Y446760I3825J3826*
G01*
Y492025*
X624900*
Y507296*
G75*
G02X622400Y511760I2735J4464*
G01*
G75*
G02X632870Y511807I5235*
G01*
X634276Y510401*
G75*
G02X634943Y509495I-2641J-2643*
G01*
X638370*
Y506170*
X640635*
G75*
G02X644460Y504585I-1J-5410*
G01*
X656876Y492170*
X703394*
X716330Y505106*
G75*
G02X716304Y505760I8300J658*
G01*
G75*
G02X732635Y508085I8331*
G01*
Y512760*
X728635Y516760*
X711635*
X704635Y523760*
Y541760*
X698635Y547760*
X667635*
X658635Y556760*
Y588760*
X646635Y600760*
X497635*
X487635Y590760*
Y562760*
X481635Y556760*
Y444052*
X488600Y451017*
Y464495*
G75*
G02X486400Y468760I3035J4265*
G01*
G75*
G02X495600Y472178I5235*
G01*
Y473495*
G75*
G02X493400Y477760I3035J4265*
G01*
G75*
G02X503870I5235*
G01*
G75*
G02X501670Y473495I-5235*
G01*
Y446760*
G75*
G02X500781Y444614I-3035*
G01*
X481635Y425468*
X497350Y522525D02*
X494900D01*
Y536995*
X505870*
Y522525*
X503420*
Y515017*
X509658Y508779*
X510550*
Y515979*
X522620*
Y495509*
X510550*
Y502709*
X508401*
G75*
G02X506255Y503598J3035*
G01*
X498239Y511614*
G75*
G02X497350Y513760I2146J2146*
G01*
Y522525*
X511859D02*
X509400D01*
Y536995*
X520370*
Y522795*
X523635*
G75*
G02X525781Y521906J-3035*
G01*
X531431Y516256*
G75*
G02X531676Y515979I-2146J-2145*
G01*
X535320*
Y495509*
X523250*
Y515853*
X522378Y516725*
X517885*
G75*
G02X515739Y517614J3035*
G01*
X512739Y520614*
G75*
G02X511859Y522525I2146J2146*
G01*
X513200Y435995D02*
Y441551D01*
X510550*
Y462021*
X522620*
Y441551*
X520070*
Y435995*
X523870*
Y425025*
X509400*
Y435995*
X513200*
X513600Y409525D02*
X509400D01*
Y420495*
X523870*
Y409525*
X519670*
Y408017*
X523892Y403795*
X538728*
X543013Y408081*
X538160Y412935*
G75*
G02X537045Y414554I3823J3826*
G01*
Y409760*
G75*
G02X526225I-5410*
G01*
Y421025*
X524900*
Y437941*
G75*
G02X523875Y441110I4386J3169*
G01*
Y441551*
X523250*
Y462021*
X535320*
Y442726*
X535460Y442585*
G75*
G02X535950Y442023I-3823J-3828*
G01*
Y462021*
X548020*
Y441551*
X547395*
Y419001*
X552226Y414170*
X565400*
Y461495*
X595870*
Y412025*
X586045*
Y408760*
G75*
G02X580635Y403350I-5410*
G01*
X551360*
G75*
G02X547354Y403837I-1375J5410*
G01*
X542131Y398614*
G75*
G02X539985Y397725I-2146J2146*
G01*
X522635*
G75*
G02X520489Y398614J3035*
G01*
X514489Y404614*
G75*
G02X513600Y406760I2146J2146*
G01*
Y409525*
X527350Y536995D02*
Y541760D01*
G75*
G02X528239Y543906I3035*
G01*
X542239Y557906*
G75*
G02X544385Y558795I2146J-2146*
G01*
X641635*
G75*
G02X643781Y557906J-3035*
G01*
X660781Y540906*
G75*
G02X661670Y538760I-2146J-2146*
G01*
Y524017*
X664720Y520967*
G75*
G02X680111Y516195I6015J-7807*
G01*
X686759*
G75*
G02X696135Y523015I9376J-3035*
G01*
G75*
G02Y503305J-9855*
G01*
G75*
G02X686759Y510125J9855*
G01*
X680111*
G75*
G02X661254Y515849I-9376J3035*
G01*
X656489Y520614*
G75*
G02X655600Y522760I2146J2146*
G01*
Y537503*
X640378Y552725*
X545642*
X533420Y540503*
Y536995*
X535870*
Y522525*
X524900*
Y536995*
X527350*
X538952Y515979D02*
G75*
G02X539839Y518006I3033J-120D01*
G01*
X542850Y521017*
Y522525*
X540400*
Y536995*
X551370*
Y522525*
X548920*
Y519760*
G75*
G02X548031Y517614I-3035*
G01*
X546396Y515979*
X548020*
Y495509*
X535950*
Y515979*
X538952*
X560720Y502709D02*
Y495509D01*
X548650*
Y515979*
X560720*
Y508779*
X572850*
Y509525*
X570400*
Y523995*
X581370*
Y509525*
X578920*
Y505995*
X581370*
Y491525*
X570400*
Y502709*
X560720*
X566870Y527703D02*
Y522525D01*
X555900*
Y536995*
X566870*
Y536287*
X568489Y537906*
G75*
G02X570400Y538786I2146J-2146*
G01*
Y542995*
X581370*
Y528525*
X570400*
Y531233*
X566870Y527703*
X589690Y576760D02*
G75*
G02X569980I-9855D01*
G01*
G75*
G02X589690I9855*
G01*
X592772Y491525D02*
X585900D01*
Y505995*
X596870*
Y499123*
X603559Y492434*
G75*
G02X604770Y489510I-2924J-2924*
G01*
Y486970*
G75*
G02X605870Y483760I-4134J-3210*
G01*
G75*
G02X595400I-5235*
G01*
G75*
G02X596500Y486970I5234*
G01*
Y487797*
X592772Y491525*
X640490Y576760D02*
G75*
G02X620780I-9855D01*
G01*
G75*
G02X640490I9855*
G01*
X481635Y516252D02*
G36*
Y492260D01*
X570400*
Y502709*
X560720*
Y495509*
X548650*
Y515979*
X560720*
Y508779*
X572850*
Y509525*
X570400*
Y516252*
X546669*
X546396Y515979*
X548020*
Y495509*
X535950*
Y515979*
X538952*
G75*
G02X538975Y516252I3033J-118*
G01*
X531431*
G75*
G02X531676Y515979I-2113J-2143*
G01*
X535320*
Y495509*
X523250*
Y515853*
X522851Y516252*
X503420*
Y515017*
X509658Y508779*
X510550*
Y515979*
X522620*
Y495509*
X510550*
Y502709*
X508401*
G75*
G02X506255Y503598J3035*
G01*
X498239Y511614*
G75*
G02X497350Y513760I2146J2146*
G01*
Y516252*
X481635*
G37*
X497350D02*
G36*
Y522525D01*
X494900*
Y532760*
X481635*
Y516252*
X497350*
G37*
X522851D02*
G36*
X522378Y516725D01*
X517885*
G75*
G02X515739Y517614J3035*
G01*
X512739Y520614*
G75*
G02X511859Y522525I2146J2146*
G01*
X509400*
Y532760*
X505870*
Y522525*
X503420*
Y516252*
X522851*
G37*
X538975D02*
G36*
G75*
G02X539839Y518006I3010J-393D01*
G01*
X542850Y521017*
Y522525*
X540400*
Y532760*
X535870*
Y522525*
X524900*
Y532760*
X520370*
Y522795*
X523635*
G75*
G02X525781Y521906J-3035*
G01*
X531431Y516252*
X538975*
G37*
X570400D02*
G36*
Y523995D01*
X581370*
Y516252*
X624947*
G75*
G02X630323I2688J-4492*
G01*
X660851*
X656489Y520614*
G75*
G02X655600Y522760I2146J2146*
G01*
Y532760*
X581370*
Y528525*
X570400*
Y531233*
X566870Y527703*
Y522525*
X555900*
Y532760*
X551370*
Y522525*
X548920*
Y519760*
G75*
G02X548031Y517614I-3035*
G01*
X546669Y516252*
X570400*
G37*
X581370D02*
G36*
Y509525D01*
X578920*
Y505995*
X581370*
Y492260*
X585900*
Y505995*
X596870*
Y499123*
X603559Y492434*
G75*
G02X603723Y492260I-2925J-2922*
G01*
X624900*
Y507296*
G75*
G02X622400Y511760I2735J4464*
G01*
G75*
G02X624947Y516252I5235*
G01*
X581370*
G37*
X630323D02*
G36*
G75*
G02X632870Y511807I-2688J-4492D01*
G01*
X634276Y510401*
G75*
G02X634943Y509495I-2641J-2643*
G01*
X638370*
Y506170*
X640635*
G75*
G02X644460Y504585I-1J-5410*
G01*
X656876Y492170*
X703394*
X716330Y505106*
G75*
G02X716304Y505760I8300J658*
G01*
G75*
G02X732635Y508085I8331*
G01*
Y512760*
X729143Y516252*
X705492*
G75*
G02X696135Y503305I-9357J-3092*
G01*
G75*
G02X686759Y510125J9855*
G01*
X680111*
G75*
G02X661254Y515849I-9376J3035*
G01*
X660851Y516252*
X630323*
G37*
X729143D02*
G36*
X728635Y516760D01*
X711635*
X704635Y523760*
Y532760*
X661670*
Y524017*
X664720Y520967*
G75*
G02X680111Y516195I6015J-7807*
G01*
X686759*
G75*
G02X696135Y523015I9376J-3035*
G01*
G75*
G02X705492Y516252J-9855*
G01*
X729143*
G37*
X499690Y443523D02*
G36*
X481635Y425468D01*
Y419760*
X487635Y413760*
X502635*
X507635Y408760*
Y374760*
X626635*
X634635Y382760*
X682635*
X714635Y414760*
Y457760*
X732635Y475760*
Y503435*
G75*
G02X723981Y497455I-8000J2325*
G01*
X709460Y482935*
G75*
G02X705635Y481350I-3826J3825*
G01*
X654635*
G75*
G02X650810Y482935I1J5410*
G01*
X638394Y495350*
X638370*
Y492025*
X637045*
Y449001*
X643876Y442170*
X645400*
Y461495*
X675870*
Y412025*
X645400*
Y431350*
X641635*
G75*
G02X637810Y432935I1J5410*
G01*
X627810Y442935*
G75*
G02X627301Y443523I3825J3825*
G01*
X595870*
Y412025*
X586045*
Y408760*
G75*
G02X580635Y403350I-5410*
G01*
X551360*
G75*
G02X547354Y403837I-1375J5410*
G01*
X542131Y398614*
G75*
G02X539985Y397725I-2146J2146*
G01*
X522635*
G75*
G02X520489Y398614J3035*
G01*
X514489Y404614*
G75*
G02X513600Y406760I2146J2146*
G01*
Y409525*
X509400*
Y420495*
X523870*
Y409525*
X519670*
Y408017*
X523892Y403795*
X538728*
X543013Y408081*
X538160Y412935*
G75*
G02X537045Y414554I3823J3826*
G01*
Y409760*
G75*
G02X526225I-5410*
G01*
Y421025*
X524900*
Y437941*
G75*
G02X523875Y441110I4386J3169*
G01*
Y441551*
X523250*
Y443523*
X522620*
Y441551*
X520070*
Y435995*
X523870*
Y425025*
X509400*
Y435995*
X513200*
Y441551*
X510550*
Y443523*
X499690*
G37*
X510550D02*
G36*
Y462021D01*
X522620*
Y443523*
X523250*
Y462021*
X535320*
Y442726*
X535460Y442585*
G75*
G02X535950Y442023I-3823J-3828*
G01*
Y462021*
X548020*
Y441551*
X547395*
Y419001*
X552226Y414170*
X565400*
Y461495*
X595870*
Y443523*
X627301*
G75*
G02X626225Y446760I4334J3238*
G01*
Y492025*
X624900*
Y492260*
X603723*
G75*
G02X604770Y489510I-3088J-2750*
G01*
Y486970*
G75*
G02X605870Y483760I-4134J-3210*
G01*
G75*
G02X595400I-5235*
G01*
G75*
G02X596500Y486970I5234*
G01*
Y487797*
X592772Y491525*
X585900*
Y492260*
X581370*
Y491525*
X570400*
Y492260*
X481635*
Y444052*
X488600Y451017*
Y464495*
G75*
G02X486400Y468760I3035J4265*
G01*
G75*
G02X495600Y472178I5235*
G01*
Y473495*
G75*
G02X493400Y477760I3035J4265*
G01*
G75*
G02X503870I5235*
G01*
G75*
G02X501670Y473495I-5235*
G01*
Y446760*
G75*
G02X500781Y444614I-3035*
G01*
X499690Y443523*
X510550*
G37*
X494900Y532760D02*
G36*
Y536995D01*
X505870*
Y532760*
X509400*
Y536995*
X520370*
Y532760*
X524900*
Y536995*
X527350*
Y541760*
G75*
G02X528239Y543906I3035*
G01*
X542239Y557906*
G75*
G02X544385Y558795I2146J-2146*
G01*
X641635*
G75*
G02X643781Y557906J-3035*
G01*
X660781Y540906*
G75*
G02X661670Y538760I-2146J-2146*
G01*
Y532760*
X704635*
Y541760*
X698635Y547760*
X667635*
X658635Y556760*
Y576760*
X640490*
G75*
G02X620780I-9855*
G01*
X589690*
G75*
G02X569980I-9855*
G01*
X487635*
Y562760*
X481635Y556760*
Y532760*
X494900*
G37*
X540400D02*
G36*
Y536995D01*
X551370*
Y532760*
X555900*
Y536995*
X566870*
Y536287*
X568489Y537906*
G75*
G02X570400Y538786I2146J-2146*
G01*
Y542995*
X581370*
Y532760*
X655600*
Y537503*
X640378Y552725*
X545642*
X533420Y540503*
Y536995*
X535870*
Y532760*
X540400*
G37*
X569980Y576760D02*
G36*
G75*
G02X589690I9855D01*
G01*
X620780*
G75*
G02X640490I9855*
G01*
X658635*
Y588760*
X646635Y600760*
X497635*
X487635Y590760*
Y576760*
X569980*
G37*
X510635Y669845D02*
X526886D01*
Y657775*
X525635*
Y657145*
X526886*
Y645075*
X525635*
Y644445*
X526886*
Y632375*
X525635*
Y631745*
X526886*
Y619675*
X525635*
Y618760*
X560635*
Y619675*
X560374*
Y631745*
X560635*
Y632375*
X560374*
Y644445*
X560635*
Y645075*
X560374*
Y647675*
X560235*
G75*
G02X557961Y648535J3435*
G01*
G75*
G02X552400Y653760I-326J5225*
G01*
G75*
G02X560635Y658050I5235*
G01*
Y658760*
X576635*
Y676760*
X510635*
Y669845*
G36*
X526886*
Y657775*
X525635*
Y657145*
X526886*
Y645075*
X525635*
Y644445*
X526886*
Y632375*
X525635*
Y631745*
X526886*
Y619675*
X525635*
Y618760*
X560635*
Y619675*
X560374*
Y631745*
X560635*
Y632375*
X560374*
Y644445*
X560635*
Y645075*
X560374*
Y647675*
X560235*
G75*
G02X557961Y648535J3435*
G01*
G75*
G02X552400Y653760I-326J5225*
G01*
G75*
G02X560635Y658050I5235*
G01*
Y658760*
X576635*
Y676760*
X510635*
Y669845*
G37*
X523550Y744845D02*
X526886D01*
Y732775*
X525635*
Y732145*
X526886*
Y720075*
X525635*
Y719445*
X526886*
Y707375*
X525635*
Y706745*
X526886*
Y695509*
X528635Y693760*
X557635*
X560374Y696499*
Y706745*
X560635*
Y707375*
X560374*
Y719021*
X559635Y719760*
X556635*
X554635Y721760*
Y724609*
G75*
G02Y727711I5000J1551*
G01*
Y730760*
X556635Y732760*
X576635*
X577635Y733760*
Y749760*
X576635Y750760*
X510635*
Y745760*
X522635*
X523550Y744845*
G36*
X526886*
Y732775*
X525635*
Y732145*
X526886*
Y720075*
X525635*
Y719445*
X526886*
Y707375*
X525635*
Y706745*
X526886*
Y695509*
X528635Y693760*
X557635*
X560374Y696499*
Y706745*
X560635*
Y707375*
X560374*
Y719021*
X559635Y719760*
X556635*
X554635Y721760*
Y724609*
G75*
G02Y727711I5000J1551*
G01*
Y730760*
X556635Y732760*
X576635*
X577635Y733760*
Y749760*
X576635Y750760*
X510635*
Y745760*
X522635*
X523550Y744845*
G37*
X680900Y692760D02*
X680635D01*
X679635Y693760*
Y704760*
X680635Y705760*
X698635*
Y729760*
X697635Y730760*
X680635*
Y741760*
X680900Y742025*
Y742895*
X681770*
X682635Y743760*
X697635*
X698635Y744760*
Y752725*
X692635*
G75*
G02X692175Y752760J3038*
G01*
X628635*
Y743760*
X644635*
X646635Y741760*
Y713760*
X651635Y708760*
Y691760*
X646635Y686760*
X695635*
Y691760*
X694670Y692725*
X680900*
Y692760*
G36*
X680635*
X679635Y693760*
Y704760*
X680635Y705760*
X698635*
Y729760*
X697635Y730760*
X680635*
Y741760*
X680900Y742025*
Y742895*
X681770*
X682635Y743760*
X697635*
X698635Y744760*
Y752725*
X692635*
G75*
G02X692175Y752760J3038*
G01*
X628635*
Y743760*
X644635*
X646635Y741760*
Y713760*
X651635Y708760*
Y691760*
X646635Y686760*
X695635*
Y691760*
X694670Y692725*
X680900*
Y692760*
G37*
D02*
D11*
X26905Y238760D02*
X21825D01*
X28876Y159001D02*
X25284Y155409D01*
X28876Y168519D02*
X25284Y172111D01*
X33635Y232030D02*
Y226950D01*
Y245490D02*
Y250570D01*
X38394Y159001D02*
X41986Y155409D01*
X38394Y168519D02*
X41986Y172111D01*
X40365Y238760D02*
X45445D01*
X71533Y147658D02*
X66825Y142950D01*
X71533Y161862D02*
X66825Y166570D01*
X71533Y191658D02*
X66825Y186950D01*
X71533Y205862D02*
X66825Y210570D01*
X74555Y41260D02*
X69475D01*
X74555Y66660D02*
X69475D01*
X74555Y92060D02*
X69475D01*
X74555Y117460D02*
X69475D01*
X76733Y25658D02*
X72025Y20950D01*
X76733Y31462D02*
X72025Y36170D01*
X76733Y51058D02*
X72025Y46350D01*
X76733Y56862D02*
X72025Y61570D01*
X76733Y76458D02*
X72025Y71750D01*
X76733Y82262D02*
X72025Y86970D01*
X76733Y101858D02*
X72025Y97150D01*
X76733Y107662D02*
X72025Y112370D01*
X76905Y219760D02*
X71825D01*
X77412Y230537D02*
X73820Y226945D01*
X77412Y232983D02*
X73820Y236575D01*
X78635Y221490D02*
Y226570D01*
X79635Y38730D02*
Y33650D01*
Y43790D02*
Y48870D01*
Y64130D02*
Y59050D01*
Y69190D02*
Y74270D01*
Y89530D02*
Y84450D01*
Y94590D02*
Y99670D01*
Y114930D02*
Y109850D01*
Y119990D02*
Y125070D01*
X79858Y230537D02*
X83450Y226945D01*
X79858Y232983D02*
X83450Y236575D01*
X80365Y219760D02*
X85445D01*
X82537Y25658D02*
X87245Y20950D01*
X82537Y31462D02*
X87245Y36170D01*
X82537Y51058D02*
X87245Y46350D01*
X82537Y56862D02*
X87245Y61570D01*
X82537Y76458D02*
X87245Y71750D01*
X82537Y82262D02*
X87245Y86970D01*
X82537Y101858D02*
X87245Y97150D01*
X82537Y107662D02*
X87245Y112370D01*
X84715Y41260D02*
X89795D01*
X84715Y66660D02*
X89795D01*
X84715Y92060D02*
X89795D01*
X84715Y117460D02*
X89795D01*
X85737Y147658D02*
X90445Y142950D01*
X85737Y161862D02*
X90445Y166570D01*
X85737Y191658D02*
X90445Y186950D01*
X85737Y205862D02*
X90445Y210570D01*
X89412Y230537D02*
X85820Y226945D01*
X89412Y232983D02*
X85820Y236575D01*
X89905Y66760D02*
X84825D01*
X90635Y218030D02*
Y212950D01*
Y221490D02*
Y226570D01*
X90905Y155760D02*
X85825D01*
X91412Y142537D02*
X87820Y138945D01*
X91412Y144983D02*
X87820Y148575D01*
X91412Y166537D02*
X87820Y162945D01*
X91412Y168983D02*
X87820Y172575D01*
X91635Y65030D02*
Y59950D01*
Y68490D02*
Y73570D01*
X91858Y230537D02*
X95450Y226945D01*
X91858Y232983D02*
X95450Y236575D01*
X92365Y219760D02*
X97445D01*
X92635Y154030D02*
Y148950D01*
Y157490D02*
Y162570D01*
X93365Y66760D02*
X98445D01*
X93858Y142537D02*
X97450Y138945D01*
X93858Y144983D02*
X97450Y148575D01*
X93858Y166537D02*
X97450Y162945D01*
X93858Y168983D02*
X97450Y172575D01*
X94365Y155760D02*
X99445D01*
X100905Y207760D02*
X95825D01*
X101405Y259760D02*
X96325D01*
X101412Y218537D02*
X97820Y214945D01*
X101412Y220983D02*
X97820Y224575D01*
X101905Y275760D02*
X96825D01*
X102635Y206030D02*
Y200950D01*
Y209490D02*
Y214570D01*
X102905Y167760D02*
X97825D01*
X103412Y142537D02*
X99820Y138945D01*
X103412Y144983D02*
X99820Y148575D01*
X103412Y154537D02*
X99820Y150945D01*
X103412Y156983D02*
X99820Y160575D01*
X103635Y274030D02*
Y268950D01*
X103858Y218537D02*
X107450Y214945D01*
X103858Y220983D02*
X107450Y224575D01*
X104135Y250030D02*
Y244950D01*
Y269490D02*
Y274570D01*
X104365Y207760D02*
X109445D01*
X104635Y166030D02*
Y160950D01*
Y169490D02*
Y174570D01*
X105365Y275760D02*
X110445D01*
X105858Y142537D02*
X109450Y138945D01*
X105858Y144983D02*
X109450Y148575D01*
X105858Y154537D02*
X109450Y150945D01*
X105858Y156983D02*
X109450Y160575D01*
X106365Y167760D02*
X111445D01*
X106865Y259760D02*
X111945D01*
X109905Y195510D02*
X104825D01*
X113635Y197490D02*
Y202570D01*
X114905Y155760D02*
X109825D01*
X115412Y142537D02*
X111820Y138945D01*
X115412Y144983D02*
X111820Y148575D01*
X115412Y166537D02*
X111820Y162945D01*
X115412Y168983D02*
X111820Y172575D01*
X116635Y154030D02*
Y148950D01*
Y157490D02*
Y162570D01*
X117365Y195510D02*
X122445D01*
X117858Y144983D02*
X121450Y148575D01*
X117858Y166537D02*
X121450Y162945D01*
X117858Y168983D02*
X121450Y172575D01*
X118365Y155760D02*
X123445D01*
X123412Y287537D02*
X119820Y283945D01*
X123412Y289983D02*
X119820Y293575D01*
X125858Y287537D02*
X129450Y283945D01*
X125858Y289983D02*
X129450Y293575D01*
X127905Y165510D02*
X122825D01*
X131635Y163530D02*
Y158450D01*
Y167490D02*
Y172570D01*
X135365Y165510D02*
X140445D01*
X195533Y126862D02*
X190825Y131570D01*
X195533Y146658D02*
X190825Y141950D01*
X197905Y130760D02*
X192825D01*
X197905D02*
X192825D01*
X197905Y142760D02*
X192825D01*
X199635Y129030D02*
Y123950D01*
Y129030D02*
Y123950D01*
Y144490D02*
Y149570D01*
X200635Y117030D02*
Y111950D01*
Y126490D02*
Y131570D01*
X205737Y126862D02*
X210445Y131570D01*
X205737Y146658D02*
X210445Y141950D01*
X209905Y130760D02*
X204825D01*
X209905D02*
X204825D01*
X209905Y142760D02*
X204825D01*
X211635Y129030D02*
Y123950D01*
Y129030D02*
Y123950D01*
Y144490D02*
Y149570D01*
X212865Y121760D02*
X217945D01*
X212905Y268760D02*
X207825D01*
X213365Y130760D02*
X218445D01*
X214635Y267030D02*
Y261950D01*
Y270490D02*
Y275570D01*
X216365Y268760D02*
X221445D01*
X222905Y121010D02*
X217825D01*
X226635Y119030D02*
Y113950D01*
Y122990D02*
Y128070D01*
X229412Y210537D02*
X225820Y206945D01*
X229412Y212983D02*
X225820Y216575D01*
X230205Y288460D02*
X225125D01*
X230365Y121010D02*
X235445D01*
X231858Y210537D02*
X235450Y206945D01*
X231858Y212983D02*
X235450Y216575D01*
X237435Y281230D02*
Y276150D01*
Y295690D02*
Y300770D01*
X244405Y123260D02*
X239325D01*
X244665Y288460D02*
X249745D01*
X249865Y123260D02*
X254945D01*
X268905Y83760D02*
X263825D01*
X268905D02*
X263825D01*
X268905Y103760D02*
X263825D01*
X268905D02*
X263825D01*
X268905Y123760D02*
X263825D01*
X268905D02*
X263825D01*
X268905Y143760D02*
X263825D01*
X268905D02*
X263825D01*
X270635Y82030D02*
Y76950D01*
Y82030D02*
Y76950D01*
Y85490D02*
Y90570D01*
Y85490D02*
Y90570D01*
Y102030D02*
Y96950D01*
Y102030D02*
Y96950D01*
Y105490D02*
Y110570D01*
Y105490D02*
Y110570D01*
Y122030D02*
Y116950D01*
Y122030D02*
Y116950D01*
Y125490D02*
Y130570D01*
Y125490D02*
Y130570D01*
Y142030D02*
Y136950D01*
Y142030D02*
Y136950D01*
Y145490D02*
Y150570D01*
Y145490D02*
Y150570D01*
X272365Y83760D02*
X277445D01*
X272365D02*
X277445D01*
X272365Y103760D02*
X277445D01*
X272365D02*
X277445D01*
X272365Y123760D02*
X277445D01*
X272365D02*
X277445D01*
X272365Y143760D02*
X277445D01*
X272365D02*
X277445D01*
X278635Y211530D02*
Y206450D01*
Y215490D02*
Y220570D01*
X278905Y73760D02*
X273825D01*
X278905D02*
X273825D01*
X278905Y93760D02*
X273825D01*
X278905D02*
X273825D01*
X278905Y113760D02*
X273825D01*
X278905D02*
X273825D01*
X278905Y133760D02*
X273825D01*
X278905D02*
X273825D01*
X280635Y72030D02*
Y66950D01*
Y72030D02*
Y66950D01*
Y75490D02*
Y80570D01*
Y75490D02*
Y80570D01*
Y92030D02*
Y86950D01*
Y92030D02*
Y86950D01*
Y95490D02*
Y100570D01*
Y95490D02*
Y100570D01*
Y112030D02*
Y106950D01*
Y112030D02*
Y106950D01*
Y115490D02*
Y120570D01*
Y115490D02*
Y120570D01*
Y132030D02*
Y126950D01*
Y132030D02*
Y126950D01*
Y135490D02*
Y140570D01*
Y135490D02*
Y140570D01*
X282365Y73760D02*
X287445D01*
X282365D02*
X287445D01*
X282365Y93760D02*
X287445D01*
X282365D02*
X287445D01*
X282365Y113760D02*
X287445D01*
X282365D02*
X287445D01*
X282365Y133760D02*
X287445D01*
X282365D02*
X287445D01*
X282365Y213510D02*
X287445D01*
X288905Y83760D02*
X283825D01*
X288905D02*
X283825D01*
X288905Y103760D02*
X283825D01*
X288905D02*
X283825D01*
X288905Y123760D02*
X283825D01*
X288905D02*
X283825D01*
X288905Y143760D02*
X283825D01*
X288905D02*
X283825D01*
X290412Y233537D02*
X286820Y229945D01*
X290412Y235983D02*
X286820Y239575D01*
X290635Y82030D02*
Y76950D01*
Y82030D02*
Y76950D01*
Y85490D02*
Y90570D01*
Y85490D02*
Y90570D01*
Y102030D02*
Y96950D01*
Y102030D02*
Y96950D01*
Y105490D02*
Y110570D01*
Y105490D02*
Y110570D01*
Y122030D02*
Y116950D01*
Y122030D02*
Y116950D01*
Y125490D02*
Y130570D01*
Y125490D02*
Y130570D01*
Y142030D02*
Y136950D01*
Y142030D02*
Y136950D01*
Y145490D02*
Y150570D01*
Y145490D02*
Y150570D01*
X292365Y83760D02*
X297445D01*
X292365D02*
X297445D01*
X292365Y103760D02*
X297445D01*
X292365D02*
X297445D01*
X292365Y123760D02*
X297445D01*
X292365D02*
X297445D01*
X292365Y143760D02*
X297445D01*
X292365D02*
X297445D01*
X292858Y233537D02*
X296450Y229945D01*
X292858Y235983D02*
X296450Y239575D01*
X298905Y73760D02*
X293825D01*
X298905D02*
X293825D01*
X298905Y93760D02*
X293825D01*
X298905D02*
X293825D01*
X298905Y113760D02*
X293825D01*
X298905D02*
X293825D01*
X298905Y133760D02*
X293825D01*
X298905D02*
X293825D01*
X300635Y72030D02*
Y66950D01*
Y72030D02*
Y66950D01*
Y75490D02*
Y80570D01*
Y75490D02*
Y80570D01*
Y92030D02*
Y86950D01*
Y92030D02*
Y86950D01*
Y95490D02*
Y100570D01*
Y95490D02*
Y100570D01*
Y112030D02*
Y106950D01*
Y112030D02*
Y106950D01*
Y115490D02*
Y120570D01*
Y115490D02*
Y120570D01*
Y132030D02*
Y126950D01*
Y132030D02*
Y126950D01*
Y135490D02*
Y140570D01*
Y135490D02*
Y140570D01*
X302365Y73760D02*
X307445D01*
X302365D02*
X307445D01*
X302365Y93760D02*
X307445D01*
X302365D02*
X307445D01*
X302365Y113760D02*
X307445D01*
X302365D02*
X307445D01*
X302365Y133760D02*
X307445D01*
X302365D02*
X307445D01*
X306905Y205760D02*
X301825D01*
X307635Y166030D02*
Y160950D01*
Y171490D02*
Y176570D01*
Y197030D02*
Y191950D01*
Y214490D02*
Y219570D01*
X308365Y205760D02*
X313445D01*
X308905Y83760D02*
X303825D01*
X308905D02*
X303825D01*
X308905Y103760D02*
X303825D01*
X308905D02*
X303825D01*
X308905Y123760D02*
X303825D01*
X308905D02*
X303825D01*
X308905Y143760D02*
X303825D01*
X308905D02*
X303825D01*
X310635Y82030D02*
Y76950D01*
Y82030D02*
Y76950D01*
Y85490D02*
Y90570D01*
Y85490D02*
Y90570D01*
Y102030D02*
Y96950D01*
Y102030D02*
Y96950D01*
Y105490D02*
Y110570D01*
Y105490D02*
Y110570D01*
Y122030D02*
Y116950D01*
Y122030D02*
Y116950D01*
Y125490D02*
Y130570D01*
Y125490D02*
Y130570D01*
Y142030D02*
Y136950D01*
Y142030D02*
Y136950D01*
Y145490D02*
Y150570D01*
Y145490D02*
Y150570D01*
X312365Y83760D02*
X317445D01*
X312365D02*
X317445D01*
X312365Y103760D02*
X317445D01*
X312365D02*
X317445D01*
X312365Y123760D02*
X317445D01*
X312365D02*
X317445D01*
X312365Y143760D02*
X317445D01*
X312365D02*
X317445D01*
X318905Y73760D02*
X313825D01*
X318905D02*
X313825D01*
X318905Y93760D02*
X313825D01*
X318905D02*
X313825D01*
X318905Y113760D02*
X313825D01*
X318905D02*
X313825D01*
X318905Y133760D02*
X313825D01*
X318905D02*
X313825D01*
X320635Y72030D02*
Y66950D01*
Y72030D02*
Y66950D01*
Y75490D02*
Y80570D01*
Y75490D02*
Y80570D01*
Y92030D02*
Y86950D01*
Y92030D02*
Y86950D01*
Y95490D02*
Y100570D01*
Y95490D02*
Y100570D01*
Y112030D02*
Y106950D01*
Y112030D02*
Y106950D01*
Y115490D02*
Y120570D01*
Y115490D02*
Y120570D01*
Y132030D02*
Y126950D01*
Y132030D02*
Y126950D01*
Y135490D02*
Y140570D01*
Y135490D02*
Y140570D01*
X322365Y73760D02*
X327445D01*
X322365D02*
X327445D01*
X322365Y93760D02*
X327445D01*
X322365D02*
X327445D01*
X322365Y113760D02*
X327445D01*
X322365D02*
X327445D01*
X322365Y133760D02*
X327445D01*
X322365D02*
X327445D01*
X322635Y50030D02*
Y44950D01*
Y55490D02*
Y60570D01*
X328905Y83760D02*
X323825D01*
X328905D02*
X323825D01*
X328905Y103760D02*
X323825D01*
X328905D02*
X323825D01*
X328905Y123760D02*
X323825D01*
X328905D02*
X323825D01*
X328905Y143760D02*
X323825D01*
X328905D02*
X323825D01*
X330635Y82030D02*
Y76950D01*
Y82030D02*
Y76950D01*
Y85490D02*
Y90570D01*
Y85490D02*
Y90570D01*
Y102030D02*
Y96950D01*
Y102030D02*
Y96950D01*
Y105490D02*
Y110570D01*
Y105490D02*
Y110570D01*
Y122030D02*
Y116950D01*
Y122030D02*
Y116950D01*
Y125490D02*
Y130570D01*
Y125490D02*
Y130570D01*
Y142030D02*
Y136950D01*
Y142030D02*
Y136950D01*
Y145490D02*
Y150570D01*
Y145490D02*
Y150570D01*
X332365Y83760D02*
X337445D01*
X332365D02*
X337445D01*
X332365Y103760D02*
X337445D01*
X332365D02*
X337445D01*
X332365Y123760D02*
X337445D01*
X332365D02*
X337445D01*
X332365Y143760D02*
X337445D01*
X332365D02*
X337445D01*
X333905Y28760D02*
X328825D01*
X335635Y27030D02*
Y21950D01*
Y30490D02*
Y35570D01*
X337365Y28760D02*
X342445D01*
X338905Y73760D02*
X333825D01*
X338905D02*
X333825D01*
X338905Y93760D02*
X333825D01*
X338905D02*
X333825D01*
X338905Y113760D02*
X333825D01*
X338905D02*
X333825D01*
X338905Y133760D02*
X333825D01*
X338905D02*
X333825D01*
X340635Y72030D02*
Y66950D01*
Y72030D02*
Y66950D01*
Y75490D02*
Y80570D01*
Y75490D02*
Y80570D01*
Y92030D02*
Y86950D01*
Y92030D02*
Y86950D01*
Y95490D02*
Y100570D01*
Y95490D02*
Y100570D01*
Y112030D02*
Y106950D01*
Y112030D02*
Y106950D01*
Y115490D02*
Y120570D01*
Y115490D02*
Y120570D01*
Y132030D02*
Y126950D01*
Y132030D02*
Y126950D01*
Y135490D02*
Y140570D01*
Y135490D02*
Y140570D01*
X342365Y73760D02*
X347445D01*
X342365D02*
X347445D01*
X342365Y93760D02*
X347445D01*
X342365D02*
X347445D01*
X342365Y113760D02*
X347445D01*
X342365D02*
X347445D01*
X342365Y133760D02*
X347445D01*
X342365D02*
X347445D01*
X342905Y208510D02*
X337825D01*
X346635Y206530D02*
Y201450D01*
X357205Y288460D02*
X352125D01*
X359905Y208510D02*
X354825D01*
X363635Y206530D02*
Y201450D01*
Y210490D02*
Y215570D01*
X364435Y281230D02*
Y276150D01*
X367365Y208510D02*
X372445D01*
X372635Y225030D02*
Y219950D01*
Y228490D02*
Y233570D01*
X384723Y283348D02*
X381131Y279756D01*
X384723Y293572D02*
X381131Y297164D01*
X394947Y283348D02*
X398539Y279756D01*
X394947Y293572D02*
X398539Y297164D01*
X411905Y295760D02*
X406825D01*
X412435Y77230D02*
Y72150D01*
Y102290D02*
Y107370D01*
X413635Y294030D02*
Y288950D01*
Y297490D02*
Y302570D01*
X415365Y295760D02*
X420445D01*
X418385Y142030D02*
Y136950D01*
Y149490D02*
Y154570D01*
X418905Y232760D02*
X413825D01*
X419665Y89760D02*
X424745D01*
X420365Y145760D02*
X425445D01*
X420635Y231030D02*
Y225950D01*
Y234490D02*
Y239570D01*
X421635Y122530D02*
Y117450D01*
Y132990D02*
Y138070D01*
X422365Y232760D02*
X427445D01*
X440605Y89760D02*
X435525D01*
X446835Y108540D02*
Y113620D01*
X453065Y89760D02*
X458145D01*
X453065Y104760D02*
X458145D01*
X466905Y238760D02*
X461825D01*
X473635Y232030D02*
Y226950D01*
Y245490D02*
Y250570D01*
X480365Y238760D02*
X485445D01*
D02*
D13*
X25635Y338760D02*
D03*
Y788760D02*
D03*
X445635Y338760D02*
D03*
X774635Y413760D02*
D03*
Y713760D02*
D03*
D02*
D14*
X462635Y672760D02*
D03*
Y698160D02*
D03*
Y723560D02*
D03*
X579835Y576760D02*
D03*
X605235D02*
D03*
X630635D02*
D03*
X670735Y513160D02*
D03*
Y538560D02*
D03*
Y563960D02*
D03*
Y589360D02*
D03*
Y614760D02*
D03*
X696135Y513160D02*
D03*
Y538560D02*
D03*
Y563960D02*
D03*
Y589360D02*
D03*
Y614760D02*
D03*
D02*
D71*
X78635Y154760D02*
D03*
Y198760D02*
D03*
D02*
D20*
X310885Y28760D02*
D03*
X326385D02*
D03*
X402885Y145760D02*
D03*
Y161760D02*
D03*
X418385Y145760D02*
D03*
Y161760D02*
D03*
X484885Y529760D02*
D03*
X500385D02*
D03*
X514885D02*
D03*
X530385D02*
D03*
X545885D02*
D03*
X561385D02*
D03*
X575885Y498760D02*
D03*
Y516760D02*
D03*
Y535760D02*
D03*
X591385Y498760D02*
D03*
Y516760D02*
D03*
Y535760D02*
D03*
X622885Y623760D02*
D03*
X638385D02*
D03*
D02*
D21*
X493635Y630760D02*
D03*
Y650760D02*
D03*
X495635Y705760D02*
D03*
Y725760D02*
D03*
D02*
D22*
X237435Y263060D02*
D03*
Y288460D02*
D03*
X262835Y263060D02*
D03*
Y288460D02*
D03*
X288235Y263060D02*
D03*
Y288460D02*
D03*
X313635Y263060D02*
D03*
Y288460D02*
D03*
X339035Y263060D02*
D03*
Y288460D02*
D03*
X364435Y263060D02*
D03*
Y288460D02*
D03*
X389835Y263060D02*
D03*
Y288460D02*
D03*
D02*
D23*
X446835Y74760D02*
D03*
Y89760D02*
D03*
Y104760D02*
D03*
D02*
D24*
X412435Y89760D02*
D03*
D02*
D25*
X113635Y180010D02*
D03*
Y195510D02*
D03*
X131635Y150010D02*
D03*
Y165510D02*
D03*
Y180010D02*
D03*
Y195510D02*
D03*
X158635Y150010D02*
D03*
Y165510D02*
D03*
Y180010D02*
D03*
Y195510D02*
D03*
Y210010D02*
D03*
Y225510D02*
D03*
X169635Y526010D02*
D03*
Y541510D02*
D03*
X170635Y386010D02*
D03*
Y401510D02*
D03*
X226635Y121010D02*
D03*
Y136510D02*
D03*
X278635Y198010D02*
D03*
Y213510D02*
D03*
X346635Y193010D02*
D03*
Y208510D02*
D03*
X350635Y386010D02*
D03*
Y401510D02*
D03*
Y526010D02*
D03*
Y541510D02*
D03*
X363635Y193010D02*
D03*
Y208510D02*
D03*
X428635Y192010D02*
D03*
Y207510D02*
D03*
X516635Y415010D02*
D03*
Y430510D02*
D03*
X588635Y638010D02*
D03*
Y653510D02*
D03*
Y708010D02*
D03*
Y723510D02*
D03*
X617635Y708010D02*
D03*
Y723510D02*
D03*
X709635Y696010D02*
D03*
Y711510D02*
D03*
Y726010D02*
D03*
Y741510D02*
D03*
D02*
D26*
X516651Y625710D02*
D03*
Y638410D02*
D03*
Y651110D02*
D03*
Y663810D02*
D03*
Y700710D02*
D03*
Y713410D02*
D03*
Y726110D02*
D03*
Y738810D02*
D03*
X570609Y625710D02*
D03*
Y638410D02*
D03*
Y651110D02*
D03*
Y663810D02*
D03*
Y700710D02*
D03*
Y713410D02*
D03*
Y726110D02*
D03*
Y738810D02*
D03*
D02*
D72*
X724635Y505760D02*
D03*
Y651260D02*
D03*
D02*
D75*
X443135Y759760D02*
Y777760D01*
X468635Y759760D02*
X458135D01*
X529285Y451786D02*
Y441110D01*
X531635Y438760*
Y429760*
Y409760*
X549985Y408760D02*
X541985Y416760D01*
Y451786*
X551635Y429760D02*
Y437710D01*
X554685Y440760*
Y451786*
Y465810*
X567635Y478760*
X589635*
X597635Y470760*
X610635*
X614635Y474760*
Y497760*
X611635Y500760*
X554685Y451786D02*
Y470710D01*
X546635Y478760*
X535635*
X570609Y625710D02*
X582635Y625760D01*
X588635Y631760*
Y638010*
X570609Y738810D02*
X582535Y738860D01*
X588635Y732760*
Y723510*
X580635Y436760D02*
Y408760D01*
X549985*
X588635Y653510D02*
X588885Y653760D01*
X599635*
X588635Y653510D02*
Y659860D01*
X584635Y663860*
X570609Y663810*
X588635Y708010D02*
Y707760D01*
X581635Y700760*
X570609Y700710*
X591385Y516760D02*
Y535760D01*
Y516760D02*
X606635D01*
X611635Y511760*
Y500760*
X598635Y707760D02*
X588885D01*
X588635Y708010*
X598635Y723760D02*
X588885D01*
X588635Y723510*
X599635Y637760D02*
X588885D01*
X588635Y638010*
X617635Y708010D02*
X607885D01*
X607635Y707760*
X617635Y708010D02*
Y703760D01*
X622635Y698760*
X636235*
X617635Y723510D02*
X617385Y723760D01*
X607635*
X617635Y723510D02*
Y732860D01*
X621635Y736860*
X636235*
X620735Y652110D02*
Y665410D01*
X611985*
X608635Y668760*
X631635Y500760D02*
X640635D01*
X654635Y486760*
X705635*
X724635Y505760*
X631635Y500760D02*
Y446760D01*
X641635Y436760*
X660635*
X688535Y665410D02*
X702985D01*
X709635Y658760*
D02*
D76*
X58635Y115760D02*
Y91760D01*
X61635Y88760*
Y70760*
X58635Y67760*
Y51760*
X45635Y38760*
X33635*
X71635Y242760D02*
Y241760D01*
X98635*
X131635Y208760*
Y195510*
X79635Y28560D02*
Y41260D01*
Y53960*
Y66660*
Y79360*
Y92060*
Y104760*
Y117460*
X91635Y66760D02*
X79735D01*
X79635Y66660*
X103635Y275760D02*
Y260260D01*
X104135Y259760*
X113635Y180010D02*
X131635D01*
X195635Y182760D02*
Y191310D01*
X196085Y191760*
Y199760*
Y207760*
Y215760*
X226635Y121010D02*
X216385D01*
X215635Y121760*
X200635*
X226635Y136510D02*
Y136760D01*
X211635Y151760*
X200635*
X247135Y123260D02*
X231135D01*
X228885Y121010*
X226635*
X247135Y133260D02*
X227635D01*
Y136510*
X226635*
X278635Y198010D02*
X275635D01*
X268635Y205010*
Y223760*
X279635Y234760*
X278635Y198010D02*
X280385D01*
X280635Y197760*
X281635*
X297635Y181760*
Y168760*
X291635Y234760D02*
X295635D01*
X307635Y222760*
Y205760*
X291635Y234760D02*
X278635Y221760D01*
Y213510*
X310885Y28760D02*
X301635D01*
X312635Y52760D02*
Y28760D01*
X310885*
X322635Y52760D02*
Y42760D01*
X324635Y40760*
Y28760*
X326385*
X335635*
X363135Y108260D02*
X384135D01*
X389635Y102760*
Y53760*
X397635Y45760*
X470635*
X473635Y42760*
Y38760*
X363135Y113260D02*
Y118260D01*
X386135*
X389635Y121760*
Y163760*
X393885Y168010*
X395635*
X401885Y161760*
X402885*
X363135Y128260D02*
Y123260D01*
Y128260D02*
X378135D01*
X382635Y132760*
Y177760*
X387635Y182760*
X405385*
X417385Y170760*
Y161760*
X418385*
X363635Y208510D02*
X346635D01*
X372635Y226760D02*
Y210510D01*
X370635Y208510*
X363635*
X401635Y127760D02*
Y136510D01*
X402885Y137760*
Y145760*
Y161760*
X446835Y74760D02*
Y68960D01*
X430635Y52760*
X403635*
X395635Y60760*
Y111760*
X400635Y116760*
Y127760*
X401635*
X447635Y192410D02*
X429035D01*
X428635Y192010*
X447635Y192410D02*
Y138760D01*
X456635Y163760D02*
Y205110D01*
X431035*
X428635Y207510*
X484885Y529760D02*
Y556010D01*
X489635Y560760*
X647635*
X669635Y538760*
X670535*
X670735Y538560*
X495635Y725760D02*
X516835D01*
X516651Y726110*
Y625710D02*
X498635Y625760D01*
X493635Y630760*
X516651Y651110D02*
X507035Y651160D01*
X506635Y650760*
X493635*
X516651Y700710D02*
X500635Y700760D01*
X495635Y705760*
X532135Y683760D02*
X521051D01*
X516651Y688160*
Y700710*
X533135Y608760D02*
X532135Y609760D01*
X524651*
X516651Y617760*
Y625710*
X555135Y683760D02*
X563635D01*
X569661Y689786*
Y690708*
X570609Y691656*
Y700710*
Y625710D02*
X570635Y615760D01*
X563635Y608760*
X556135*
X600635Y483760D02*
Y489510D01*
X591635Y498510*
X591385*
Y498760*
X613635Y623760D02*
X622885D01*
X631635Y500760D02*
Y507760D01*
X627635Y511760*
X638385Y623760D02*
Y671360D01*
X631635Y678110*
X620735*
D02*
D82*
X55385Y533760D02*
X50345D01*
X55385Y595760D02*
X50345D01*
X55385Y657760D02*
X50345D01*
X71635Y517510D02*
Y512470D01*
Y550010D02*
Y555050D01*
Y579510D02*
Y574470D01*
Y612010D02*
Y617050D01*
Y641510D02*
Y636470D01*
Y674010D02*
Y679050D01*
X87885Y533760D02*
X92925D01*
X87885Y595760D02*
X92925D01*
X87885Y657760D02*
X92925D01*
X96885Y589760D02*
X91845D01*
X96885Y613760D02*
X91845D01*
X97398Y600523D02*
X93834Y596959D01*
X97398Y602997D02*
X93834Y606561D01*
X97885Y517760D02*
X92845D01*
X98398Y504523D02*
X94834Y500959D01*
X98398Y506997D02*
X94834Y510561D01*
X98398Y528523D02*
X94834Y524959D01*
X98398Y530997D02*
X94834Y534561D01*
X98635Y588010D02*
Y582970D01*
Y591510D02*
Y596550D01*
Y612010D02*
Y606970D01*
Y615510D02*
Y620550D01*
X99635Y516010D02*
Y510970D01*
Y519510D02*
Y524550D01*
X99872Y600523D02*
X103436Y596959D01*
X99872Y602997D02*
X103436Y606561D01*
X100385Y589760D02*
X105425D01*
X100385Y613760D02*
X105425D01*
X100872Y504523D02*
X104436Y500959D01*
X100872Y506997D02*
X104436Y510561D01*
X100872Y528523D02*
X104436Y524959D01*
X100872Y530997D02*
X104436Y534561D01*
X101385Y517760D02*
X106425D01*
X108885Y601760D02*
X103845D01*
X109398Y588523D02*
X105834Y584959D01*
X109398Y590997D02*
X105834Y594561D01*
X109398Y612523D02*
X105834Y608959D01*
X109398Y614997D02*
X105834Y618561D01*
X109885Y505760D02*
X104845D01*
X109885Y529760D02*
X104845D01*
X110398Y516523D02*
X106834Y512959D01*
X110398Y518997D02*
X106834Y522561D01*
X110635Y600010D02*
Y594970D01*
Y603510D02*
Y608550D01*
X111635Y504010D02*
Y498970D01*
Y507510D02*
Y512550D01*
Y528010D02*
Y522970D01*
Y531510D02*
Y536550D01*
X111872Y588523D02*
X115436Y584959D01*
X111872Y590997D02*
X115436Y594561D01*
X111872Y612523D02*
X115436Y608959D01*
X111872Y614997D02*
X115436Y618561D01*
X112385Y601760D02*
X117425D01*
X112872Y516523D02*
X116436Y512959D01*
X112872Y518997D02*
X116436Y522561D01*
X113385Y505760D02*
X118425D01*
X113385Y529760D02*
X118425D01*
X118885Y339760D02*
X113845D01*
X118885Y363760D02*
X113845D01*
X120635Y338010D02*
Y332970D01*
Y341510D02*
Y346550D01*
Y362010D02*
Y356970D01*
Y365510D02*
Y370550D01*
X120885Y589760D02*
X115845D01*
X120885Y613760D02*
X115845D01*
X121398Y576523D02*
X117834Y572959D01*
X121398Y578997D02*
X117834Y582561D01*
X121398Y600523D02*
X117834Y596959D01*
X121398Y602997D02*
X117834Y606561D01*
X121885Y517760D02*
X116845D01*
X121885Y541760D02*
X116845D01*
X122385Y339760D02*
X127425D01*
X122385Y363760D02*
X127425D01*
X122398Y504523D02*
X118834Y500959D01*
X122398Y506997D02*
X118834Y510561D01*
X122398Y528523D02*
X118834Y524959D01*
X122398Y530997D02*
X118834Y534561D01*
X122398Y552523D02*
X118834Y548959D01*
X122398Y554997D02*
X118834Y558561D01*
X122635Y588010D02*
Y582970D01*
Y591510D02*
Y596550D01*
Y612010D02*
Y606970D01*
Y615510D02*
Y620550D01*
X123635Y516010D02*
Y510970D01*
Y519510D02*
Y524550D01*
Y540010D02*
Y534970D01*
Y543510D02*
Y548550D01*
X123872Y576523D02*
X127436Y572959D01*
X123872Y578997D02*
X127436Y582561D01*
X123872Y600523D02*
X127436Y596959D01*
X123872Y602997D02*
X127436Y606561D01*
X124385Y589760D02*
X129425D01*
X124385Y613760D02*
X129425D01*
X124872Y504523D02*
X128436Y500959D01*
X124872Y506997D02*
X128436Y510561D01*
X124872Y528523D02*
X128436Y524959D01*
X124872Y530997D02*
X128436Y534561D01*
X124872Y552523D02*
X128436Y548959D01*
X124872Y554997D02*
X128436Y558561D01*
X125385Y517760D02*
X130425D01*
X125385Y541760D02*
X130425D01*
X130885Y351760D02*
X125845D01*
X132635Y350010D02*
Y344970D01*
Y353510D02*
Y358550D01*
X132885Y577760D02*
X127845D01*
X132885Y601760D02*
X127845D01*
X133398Y588523D02*
X129834Y584959D01*
X133398Y590997D02*
X129834Y594561D01*
X133398Y612523D02*
X129834Y608959D01*
X133398Y614997D02*
X129834Y618561D01*
X133885Y505760D02*
X128845D01*
X133885Y529760D02*
X128845D01*
X133885Y553760D02*
X128845D01*
X134385Y351760D02*
X139425D01*
X134398Y492523D02*
X130834Y488959D01*
X134398Y494997D02*
X130834Y498561D01*
X134398Y516523D02*
X130834Y512959D01*
X134398Y518997D02*
X130834Y522561D01*
X134398Y540523D02*
X130834Y536959D01*
X134398Y542997D02*
X130834Y546561D01*
X134635Y576010D02*
Y570970D01*
Y579510D02*
Y584550D01*
Y600010D02*
Y594970D01*
Y603510D02*
Y608550D01*
X135635Y504010D02*
Y498970D01*
Y507510D02*
Y512550D01*
Y528010D02*
Y522970D01*
Y531510D02*
Y536550D01*
Y552010D02*
Y546970D01*
Y555510D02*
Y560550D01*
X135872Y588523D02*
X139436Y584959D01*
X135872Y590997D02*
X139436Y594561D01*
X135872Y612523D02*
X139436Y608959D01*
X135872Y614997D02*
X139436Y618561D01*
X136385Y577760D02*
X141425D01*
X136385Y601760D02*
X141425D01*
X136872Y492523D02*
X140436Y488959D01*
X136872Y494997D02*
X140436Y498561D01*
X136872Y516523D02*
X140436Y512959D01*
X136872Y518997D02*
X140436Y522561D01*
X136872Y540523D02*
X140436Y536959D01*
X136872Y542997D02*
X140436Y546561D01*
X137385Y505760D02*
X142425D01*
X137385Y529760D02*
X142425D01*
X137385Y553760D02*
X142425D01*
X142885Y339760D02*
X137845D01*
X142885Y363760D02*
X137845D01*
X144635Y338010D02*
Y332970D01*
Y341510D02*
Y346550D01*
Y362010D02*
Y356970D01*
Y365510D02*
Y370550D01*
X144885Y589760D02*
X139845D01*
X144885Y613760D02*
X139845D01*
X145398Y576523D02*
X141834Y572959D01*
X145398Y578997D02*
X141834Y582561D01*
X145398Y600523D02*
X141834Y596959D01*
X145398Y602997D02*
X141834Y606561D01*
X145885Y493760D02*
X140845D01*
X145885Y517760D02*
X140845D01*
X145885Y541760D02*
X140845D01*
X146385Y339760D02*
X151425D01*
X146385Y363760D02*
X151425D01*
X146398Y504523D02*
X142834Y500959D01*
X146398Y506997D02*
X142834Y510561D01*
X146398Y528523D02*
X142834Y524959D01*
X146398Y530997D02*
X142834Y534561D01*
X146398Y552523D02*
X142834Y548959D01*
X146398Y554997D02*
X142834Y558561D01*
X146635Y588010D02*
Y582970D01*
Y591510D02*
Y596550D01*
Y612010D02*
Y606970D01*
Y615510D02*
Y620550D01*
X147635Y492010D02*
Y486970D01*
Y495510D02*
Y500550D01*
Y516010D02*
Y510970D01*
Y519510D02*
Y524550D01*
Y540010D02*
Y534970D01*
Y543510D02*
Y548550D01*
X147872Y576523D02*
X151436Y572959D01*
X147872Y578997D02*
X151436Y582561D01*
X147872Y600523D02*
X151436Y596959D01*
X147872Y602997D02*
X151436Y606561D01*
X148385Y589760D02*
X153425D01*
X148385Y613760D02*
X153425D01*
X148872Y504523D02*
X152436Y500959D01*
X148872Y506997D02*
X152436Y510561D01*
X148872Y528523D02*
X152436Y524959D01*
X148872Y530997D02*
X152436Y534561D01*
X148872Y552523D02*
X152436Y548959D01*
X148872Y554997D02*
X152436Y558561D01*
X149385Y493760D02*
X154425D01*
X149385Y517760D02*
X154425D01*
X149385Y541760D02*
X154425D01*
X154885Y351760D02*
X149845D01*
X156635Y350010D02*
Y344970D01*
Y353510D02*
Y358550D01*
X158385Y351760D02*
X163425D01*
X166885Y339760D02*
X161845D01*
X166885Y363760D02*
X161845D01*
X168635Y338010D02*
Y332970D01*
Y341510D02*
Y346550D01*
Y362010D02*
Y356970D01*
Y365510D02*
Y370550D01*
X168885Y669760D02*
X163845D01*
X168885Y693760D02*
X163845D01*
X168885Y759760D02*
X163845D01*
X168885Y783760D02*
X163845D01*
X169398Y656523D02*
X165834Y652959D01*
X169398Y658997D02*
X165834Y662561D01*
X169398Y680523D02*
X165834Y676959D01*
X169398Y682997D02*
X165834Y686561D01*
X169398Y746523D02*
X165834Y742959D01*
X169398Y748997D02*
X165834Y752561D01*
X169398Y770523D02*
X165834Y766959D01*
X169398Y772997D02*
X165834Y776561D01*
X170385Y339760D02*
X175425D01*
X170385Y363760D02*
X175425D01*
X170635Y668010D02*
Y662970D01*
Y671510D02*
Y676550D01*
Y692010D02*
Y686970D01*
Y695510D02*
Y700550D01*
Y758010D02*
Y752970D01*
Y761510D02*
Y766550D01*
Y782010D02*
Y776970D01*
Y785510D02*
Y790550D01*
X171872Y656523D02*
X175436Y652959D01*
X171872Y658997D02*
X175436Y662561D01*
X171872Y680523D02*
X175436Y676959D01*
X171872Y682997D02*
X175436Y686561D01*
X171872Y746523D02*
X175436Y742959D01*
X171872Y748997D02*
X175436Y752561D01*
X171872Y770523D02*
X175436Y766959D01*
X171872Y772997D02*
X175436Y776561D01*
X172385Y669760D02*
X177425D01*
X172385Y693760D02*
X177425D01*
X172385Y759760D02*
X177425D01*
X172385Y783760D02*
X177425D01*
X176885Y460750D02*
X171845D01*
X176885Y600750D02*
X171845D01*
X178885Y351760D02*
X173845D01*
X180398Y507523D02*
X176834Y503959D01*
X180398Y509997D02*
X176834Y513561D01*
X180635Y350010D02*
Y344970D01*
Y353510D02*
Y358550D01*
X180885Y657760D02*
X175845D01*
X180885Y681760D02*
X175845D01*
X180885Y747760D02*
X175845D01*
X180885Y771760D02*
X175845D01*
X181398Y668523D02*
X177834Y664959D01*
X181398Y670997D02*
X177834Y674561D01*
X181398Y692523D02*
X177834Y688959D01*
X181398Y694997D02*
X177834Y698561D01*
X181398Y758523D02*
X177834Y754959D01*
X181398Y760997D02*
X177834Y764561D01*
X181398Y782523D02*
X177834Y778959D01*
X181398Y784997D02*
X177834Y788561D01*
X182385Y351760D02*
X187425D01*
X182635Y656010D02*
Y650970D01*
Y659510D02*
Y664550D01*
Y680010D02*
Y674970D01*
Y683510D02*
Y688550D01*
Y746010D02*
Y740970D01*
Y749510D02*
Y754550D01*
Y770010D02*
Y764970D01*
Y773510D02*
Y778550D01*
X182872Y507523D02*
X186436Y503959D01*
X182872Y509997D02*
X186436Y513561D01*
X183872Y668523D02*
X187436Y664959D01*
X183872Y670997D02*
X187436Y674561D01*
X183872Y692523D02*
X187436Y688959D01*
X183872Y694997D02*
X187436Y698561D01*
X183872Y758523D02*
X187436Y754959D01*
X183872Y760997D02*
X187436Y764561D01*
X183872Y782523D02*
X187436Y778959D01*
X183872Y784997D02*
X187436Y788561D01*
X184385Y657760D02*
X189425D01*
X184385Y681760D02*
X189425D01*
X184385Y747760D02*
X189425D01*
X184385Y771760D02*
X189425D01*
X190885Y339760D02*
X185845D01*
X190885Y363760D02*
X185845D01*
X192398Y507523D02*
X188834Y503959D01*
X192398Y509997D02*
X188834Y513561D01*
X192635Y338010D02*
Y332970D01*
Y341510D02*
Y346550D01*
Y362010D02*
Y356970D01*
Y365510D02*
Y370550D01*
X192885Y759760D02*
X187845D01*
X192885Y783760D02*
X187845D01*
X193398Y746523D02*
X189834Y742959D01*
X193398Y748997D02*
X189834Y752561D01*
X193398Y770523D02*
X189834Y766959D01*
X193398Y772997D02*
X189834Y776561D01*
X194385Y339760D02*
X199425D01*
X194385Y363760D02*
X199425D01*
X194635Y758010D02*
Y752970D01*
Y761510D02*
Y766550D01*
Y782010D02*
Y776970D01*
Y785510D02*
Y790550D01*
X194872Y507523D02*
X198436Y503959D01*
X194872Y509997D02*
X198436Y513561D01*
X195872Y746523D02*
X199436Y742959D01*
X195872Y748997D02*
X199436Y752561D01*
X195872Y770523D02*
X199436Y766959D01*
X195872Y772997D02*
X199436Y776561D01*
X196385Y759760D02*
X201425D01*
X196385Y783760D02*
X201425D01*
X202385Y692760D02*
X197345D01*
X202885Y351760D02*
X197845D01*
X203885Y508760D02*
X198845D01*
X204635Y350010D02*
Y344970D01*
Y353510D02*
Y358550D01*
X205635Y507010D02*
Y501970D01*
Y510510D02*
Y515550D01*
X206385Y351760D02*
X211425D01*
X207385Y508760D02*
X212425D01*
X210635Y494500D02*
Y499540D01*
Y634500D02*
Y639540D01*
X213635Y671510D02*
Y666470D01*
Y714010D02*
Y719050D01*
X214885Y339760D02*
X209845D01*
X214885Y363760D02*
X209845D01*
X216635Y338010D02*
Y332970D01*
Y341510D02*
Y346550D01*
Y362010D02*
Y356970D01*
Y365510D02*
Y370550D01*
X218385Y339760D02*
X223425D01*
X218385Y363760D02*
X223425D01*
X219885Y508760D02*
X214845D01*
X221635Y507010D02*
Y501970D01*
Y510510D02*
Y515550D01*
X223385Y508760D02*
X228425D01*
X224885Y692760D02*
X229925D01*
X226885Y351760D02*
X221845D01*
X228039Y531640D02*
X222999D01*
X228635Y350010D02*
Y344970D01*
Y353510D02*
Y358550D01*
X230385Y351760D02*
X235425D01*
X230885Y759760D02*
X225845D01*
X230885Y783760D02*
X225845D01*
X231398Y746523D02*
X227834Y742959D01*
X231398Y748997D02*
X227834Y752561D01*
X231398Y770523D02*
X227834Y766959D01*
X231398Y772997D02*
X227834Y776561D01*
X232398Y507523D02*
X228834Y503959D01*
X232398Y509997D02*
X228834Y513561D01*
X232635Y758010D02*
Y752970D01*
Y761510D02*
Y766550D01*
Y782010D02*
Y776970D01*
Y785510D02*
Y790550D01*
X233872Y746523D02*
X237436Y742959D01*
X233872Y748997D02*
X237436Y752561D01*
X233872Y770523D02*
X237436Y766959D01*
X233872Y772997D02*
X237436Y776561D01*
X234289Y520390D02*
Y515350D01*
Y542890D02*
Y547930D01*
X234385Y759760D02*
X239425D01*
X234385Y783760D02*
X239425D01*
X234872Y507523D02*
X238436Y503959D01*
X234872Y509997D02*
X238436Y513561D01*
X238885Y339760D02*
X233845D01*
X238885Y363760D02*
X233845D01*
X238885Y669760D02*
X233845D01*
X238885Y693760D02*
X233845D01*
X239398Y656523D02*
X235834Y652959D01*
X239398Y658997D02*
X235834Y662561D01*
X239398Y680523D02*
X235834Y676959D01*
X239398Y682997D02*
X235834Y686561D01*
X240539Y531640D02*
X245579D01*
X240635Y338010D02*
Y332970D01*
Y341510D02*
Y346550D01*
Y362010D02*
Y356970D01*
Y365510D02*
Y370550D01*
Y668010D02*
Y662970D01*
Y671510D02*
Y676550D01*
Y692010D02*
Y686970D01*
Y695510D02*
Y700550D01*
X241872Y656523D02*
X245436Y652959D01*
X241872Y658997D02*
X245436Y662561D01*
X241872Y680523D02*
X245436Y676959D01*
X241872Y682997D02*
X245436Y686561D01*
X242385Y339760D02*
X247425D01*
X242385Y363760D02*
X247425D01*
X242385Y669760D02*
X247425D01*
X242385Y693760D02*
X247425D01*
X242885Y747760D02*
X237845D01*
X242885Y771760D02*
X237845D01*
X243398Y758523D02*
X239834Y754959D01*
X243398Y760997D02*
X239834Y764561D01*
X243398Y782523D02*
X239834Y778959D01*
X243398Y784997D02*
X239834Y788561D01*
X243885Y508760D02*
X238845D01*
X244385Y460750D02*
X249425D01*
X244385Y600750D02*
X249425D01*
X244635Y746010D02*
Y740970D01*
Y749510D02*
Y754550D01*
Y770010D02*
Y764970D01*
Y773510D02*
Y778550D01*
X245635Y507010D02*
Y501970D01*
Y510510D02*
Y515550D01*
X245872Y758523D02*
X249436Y754959D01*
X245872Y760997D02*
X249436Y764561D01*
X245872Y782523D02*
X249436Y778959D01*
X245872Y784997D02*
X249436Y788561D01*
X246385Y747760D02*
X251425D01*
X246385Y771760D02*
X251425D01*
X247385Y508760D02*
X252425D01*
X250885Y351760D02*
X245845D01*
X250885Y657760D02*
X245845D01*
X250885Y681760D02*
X245845D01*
X251398Y668523D02*
X247834Y664959D01*
X251398Y670997D02*
X247834Y674561D01*
X251398Y692523D02*
X247834Y688959D01*
X251398Y694997D02*
X247834Y698561D01*
X251885Y585760D02*
X246845D01*
X252635Y350010D02*
Y344970D01*
Y353510D02*
Y358550D01*
Y656010D02*
Y650970D01*
Y659510D02*
Y664550D01*
Y680010D02*
Y674970D01*
Y683510D02*
Y688550D01*
X253635Y584010D02*
Y578970D01*
Y587510D02*
Y592550D01*
X253872Y668523D02*
X257436Y664959D01*
X253872Y670997D02*
X257436Y674561D01*
X253872Y692523D02*
X257436Y688959D01*
X253872Y694997D02*
X257436Y698561D01*
X254385Y351760D02*
X259425D01*
X254385Y657760D02*
X259425D01*
X254385Y681760D02*
X259425D01*
X254885Y759760D02*
X249845D01*
X254885Y783760D02*
X249845D01*
X255385Y585760D02*
X260425D01*
X255398Y746523D02*
X251834Y742959D01*
X255398Y748997D02*
X251834Y752561D01*
X255398Y770523D02*
X251834Y766959D01*
X255398Y772997D02*
X251834Y776561D01*
X256635Y758010D02*
Y752970D01*
Y761510D02*
Y766550D01*
Y782010D02*
Y776970D01*
Y785510D02*
Y790550D01*
X257872Y746523D02*
X261436Y742959D01*
X257872Y748997D02*
X261436Y752561D01*
X257872Y770523D02*
X261436Y766959D01*
X257872Y772997D02*
X261436Y776561D01*
X258385Y759760D02*
X263425D01*
X258385Y783760D02*
X263425D01*
X260719Y577844D02*
X256045Y573170D01*
X260719Y609676D02*
X256045Y614350D01*
X261085Y453760D02*
X256045D01*
X261685Y554010D02*
X256645D01*
X261885Y500760D02*
X256845D01*
X261885Y524760D02*
X256845D01*
X262398Y487523D02*
X258834Y483959D01*
X262398Y489997D02*
X258834Y493561D01*
X262398Y511523D02*
X258834Y507959D01*
X262398Y513997D02*
X258834Y517561D01*
X262398Y535523D02*
X258834Y531959D01*
X262398Y537997D02*
X258834Y541561D01*
X262885Y339760D02*
X257845D01*
X262885Y363760D02*
X257845D01*
X262885Y387760D02*
X257845D01*
X263635Y499010D02*
Y493970D01*
Y502510D02*
Y507550D01*
Y523010D02*
Y517970D01*
Y526510D02*
Y531550D01*
X264635Y338010D02*
Y332970D01*
Y341510D02*
Y346550D01*
Y362010D02*
Y356970D01*
Y365510D02*
Y370550D01*
Y386010D02*
Y380970D01*
Y389510D02*
Y394550D01*
X264872Y487523D02*
X268436Y483959D01*
X264872Y489997D02*
X268436Y493561D01*
X264872Y511523D02*
X268436Y507959D01*
X264872Y513997D02*
X268436Y517561D01*
X264872Y535523D02*
X268436Y531959D01*
X264872Y537997D02*
X268436Y541561D01*
X265385Y500760D02*
X270425D01*
X265385Y524760D02*
X270425D01*
X266385Y339760D02*
X271425D01*
X266385Y363760D02*
X271425D01*
X266385Y387760D02*
X271425D01*
X267385Y548260D02*
Y543220D01*
X273085Y554010D02*
X278125D01*
X273885Y488760D02*
X268845D01*
X273885Y512760D02*
X268845D01*
X273885Y536760D02*
X268845D01*
X274398Y499523D02*
X270834Y495959D01*
X274398Y501997D02*
X270834Y505561D01*
X274398Y523523D02*
X270834Y519959D01*
X274398Y525997D02*
X270834Y529561D01*
X274885Y351760D02*
X269845D01*
X274885Y375760D02*
X269845D01*
X274885Y399760D02*
X269845D01*
X275635Y487010D02*
Y481970D01*
Y490510D02*
Y495550D01*
Y511010D02*
Y505970D01*
Y514510D02*
Y519550D01*
Y535010D02*
Y529970D01*
Y538510D02*
Y543550D01*
X276635Y350010D02*
Y344970D01*
Y353510D02*
Y358550D01*
Y374010D02*
Y368970D01*
Y377510D02*
Y382550D01*
Y398010D02*
Y392970D01*
Y401510D02*
Y406550D01*
Y476810D02*
Y481850D01*
X276872Y499523D02*
X280436Y495959D01*
X276872Y501997D02*
X280436Y505561D01*
X276872Y523523D02*
X280436Y519959D01*
X276872Y525997D02*
X280436Y529561D01*
X277385Y488760D02*
X282425D01*
X277385Y512760D02*
X282425D01*
X277385Y536760D02*
X282425D01*
X278385Y351760D02*
X283425D01*
X278385Y375760D02*
X283425D01*
X278385Y399760D02*
X283425D01*
X286398Y487523D02*
X282834Y483959D01*
X286398Y489997D02*
X282834Y493561D01*
X286398Y499523D02*
X282834Y495959D01*
X286398Y501997D02*
X282834Y505561D01*
X286398Y511523D02*
X282834Y507959D01*
X286398Y513997D02*
X282834Y517561D01*
X286398Y523523D02*
X282834Y519959D01*
X286398Y525997D02*
X282834Y529561D01*
X286398Y535523D02*
X282834Y531959D01*
X286398Y537997D02*
X282834Y541561D01*
X286885Y339760D02*
X281845D01*
X286885Y363760D02*
X281845D01*
X286885Y387760D02*
X281845D01*
X288635Y338010D02*
Y332970D01*
Y341510D02*
Y346550D01*
Y362010D02*
Y356970D01*
Y365510D02*
Y370550D01*
Y386010D02*
Y380970D01*
Y389510D02*
Y394550D01*
X288872Y487523D02*
X292436Y483959D01*
X288872Y489997D02*
X292436Y493561D01*
X288872Y499523D02*
X292436Y495959D01*
X288872Y501997D02*
X292436Y505561D01*
X288872Y511523D02*
X292436Y507959D01*
X288872Y513997D02*
X292436Y517561D01*
X288872Y523523D02*
X292436Y519959D01*
X288872Y525997D02*
X292436Y529561D01*
X288872Y535523D02*
X292436Y531959D01*
X288872Y537997D02*
X292436Y541561D01*
X290385Y339760D02*
X295425D01*
X290385Y363760D02*
X295425D01*
X290385Y387760D02*
X295425D01*
X292551Y577844D02*
X297225Y573170D01*
X292551Y609676D02*
X297225Y614350D01*
X295885Y759760D02*
X290845D01*
X295885Y783760D02*
X290845D01*
X296398Y746523D02*
X292834Y742959D01*
X296398Y748997D02*
X292834Y752561D01*
X296398Y770523D02*
X292834Y766959D01*
X296398Y772997D02*
X292834Y776561D01*
X297635Y758010D02*
Y752970D01*
Y761510D02*
Y766550D01*
Y782010D02*
Y776970D01*
Y785510D02*
Y790550D01*
X298872Y746523D02*
X302436Y742959D01*
X298872Y748997D02*
X302436Y752561D01*
X298872Y770523D02*
X302436Y766959D01*
X298872Y772997D02*
X302436Y776561D01*
X298885Y351760D02*
X293845D01*
X298885Y375760D02*
X293845D01*
X298885Y399760D02*
X293845D01*
X299385Y759760D02*
X304425D01*
X299385Y783760D02*
X304425D01*
X300635Y350010D02*
Y344970D01*
Y353510D02*
Y358550D01*
Y374010D02*
Y368970D01*
Y377510D02*
Y382550D01*
Y398010D02*
Y392970D01*
Y401510D02*
Y406550D01*
X302385Y351760D02*
X307425D01*
X302385Y375760D02*
X307425D01*
X302385Y399760D02*
X307425D01*
X304719Y437844D02*
X300045Y433170D01*
X304719Y469676D02*
X300045Y474350D01*
X304719Y577844D02*
X300045Y573170D01*
X304719Y609676D02*
X300045Y614350D01*
X305685Y554010D02*
X300645D01*
X305885Y488760D02*
X300845D01*
X305885Y512760D02*
X300845D01*
X305885Y536760D02*
X300845D01*
X306398Y499523D02*
X302834Y495959D01*
X306398Y501997D02*
X302834Y505561D01*
X306398Y523523D02*
X302834Y519959D01*
X306398Y525997D02*
X302834Y529561D01*
X307635Y487010D02*
Y481970D01*
Y490510D02*
Y495550D01*
Y511010D02*
Y505970D01*
Y514510D02*
Y519550D01*
Y535010D02*
Y529970D01*
Y538510D02*
Y543550D01*
X307885Y747760D02*
X302845D01*
X307885Y771760D02*
X302845D01*
X308398Y758523D02*
X304834Y754959D01*
X308398Y760997D02*
X304834Y764561D01*
X308398Y782523D02*
X304834Y778959D01*
X308398Y784997D02*
X304834Y788561D01*
X308872Y499523D02*
X312436Y495959D01*
X308872Y501997D02*
X312436Y505561D01*
X308872Y523523D02*
X312436Y519959D01*
X308872Y525997D02*
X312436Y529561D01*
X308885Y669760D02*
X303845D01*
X308885Y693760D02*
X303845D01*
X309385Y488760D02*
X314425D01*
X309385Y512760D02*
X314425D01*
X309385Y536760D02*
X314425D01*
X309398Y656523D02*
X305834Y652959D01*
X309398Y658997D02*
X305834Y662561D01*
X309398Y680523D02*
X305834Y676959D01*
X309398Y682997D02*
X305834Y686561D01*
X309635Y746010D02*
Y740970D01*
Y749510D02*
Y754550D01*
Y770010D02*
Y764970D01*
Y773510D02*
Y778550D01*
X310635Y668010D02*
Y662970D01*
Y671510D02*
Y676550D01*
Y692010D02*
Y686970D01*
Y695510D02*
Y700550D01*
X310872Y758523D02*
X314436Y754959D01*
X310872Y760997D02*
X314436Y764561D01*
X310872Y782523D02*
X314436Y778959D01*
X310872Y784997D02*
X314436Y788561D01*
X310885Y339760D02*
X305845D01*
X310885Y363760D02*
X305845D01*
X310885Y387760D02*
X305845D01*
X311385Y548260D02*
Y543220D01*
Y747760D02*
X316425D01*
X311385Y771760D02*
X316425D01*
X311872Y656523D02*
X315436Y652959D01*
X311872Y658997D02*
X315436Y662561D01*
X311872Y680523D02*
X315436Y676959D01*
X311872Y682997D02*
X315436Y686561D01*
X312385Y669760D02*
X317425D01*
X312385Y693760D02*
X317425D01*
X312635Y338010D02*
Y332970D01*
Y341510D02*
Y346550D01*
Y362010D02*
Y356970D01*
Y365510D02*
Y370550D01*
Y386010D02*
Y380970D01*
Y389510D02*
Y394550D01*
X314385Y339760D02*
X319425D01*
X314385Y363760D02*
X319425D01*
X314385Y387760D02*
X319425D01*
X317085Y554010D02*
X322125D01*
X317885Y500760D02*
X312845D01*
X317885Y524760D02*
X312845D01*
X318398Y487523D02*
X314834Y483959D01*
X318398Y489997D02*
X314834Y493561D01*
X318398Y511523D02*
X314834Y507959D01*
X318398Y513997D02*
X314834Y517561D01*
X318398Y535523D02*
X314834Y531959D01*
X318398Y537997D02*
X314834Y541561D01*
X319635Y499010D02*
Y493970D01*
Y502510D02*
Y507550D01*
Y523010D02*
Y517970D01*
Y526510D02*
Y531550D01*
X319885Y759760D02*
X314845D01*
X319885Y783760D02*
X314845D01*
X320398Y746523D02*
X316834Y742959D01*
X320398Y748997D02*
X316834Y752561D01*
X320398Y770523D02*
X316834Y766959D01*
X320398Y772997D02*
X316834Y776561D01*
X320872Y487523D02*
X324436Y483959D01*
X320872Y489997D02*
X324436Y493561D01*
X320872Y511523D02*
X324436Y507959D01*
X320872Y513997D02*
X324436Y517561D01*
X320872Y535523D02*
X324436Y531959D01*
X320872Y537997D02*
X324436Y541561D01*
X320885Y657760D02*
X315845D01*
X320885Y681760D02*
X315845D01*
X321385Y500760D02*
X326425D01*
X321385Y524760D02*
X326425D01*
X321398Y668523D02*
X317834Y664959D01*
X321398Y670997D02*
X317834Y674561D01*
X321398Y692523D02*
X317834Y688959D01*
X321398Y694997D02*
X317834Y698561D01*
X321635Y758010D02*
Y752970D01*
Y761510D02*
Y766550D01*
Y782010D02*
Y776970D01*
Y785510D02*
Y790550D01*
X322635Y656010D02*
Y650970D01*
Y659510D02*
Y664550D01*
Y680010D02*
Y674970D01*
Y683510D02*
Y688550D01*
X322872Y746523D02*
X326436Y742959D01*
X322872Y748997D02*
X326436Y752561D01*
X322872Y770523D02*
X326436Y766959D01*
X322872Y772997D02*
X326436Y776561D01*
X322885Y351760D02*
X317845D01*
X322885Y375760D02*
X317845D01*
X322885Y399760D02*
X317845D01*
X323385Y759760D02*
X328425D01*
X323385Y783760D02*
X328425D01*
X323872Y668523D02*
X327436Y664959D01*
X323872Y670997D02*
X327436Y674561D01*
X323872Y692523D02*
X327436Y688959D01*
X323872Y694997D02*
X327436Y698561D01*
X324385Y657760D02*
X329425D01*
X324385Y681760D02*
X329425D01*
X324635Y350010D02*
Y344970D01*
Y353510D02*
Y358550D01*
Y374010D02*
Y368970D01*
Y377510D02*
Y382550D01*
Y398010D02*
Y392970D01*
Y401510D02*
Y406550D01*
X326385Y351760D02*
X331425D01*
X326385Y375760D02*
X331425D01*
X326385Y399760D02*
X331425D01*
X329385Y691760D02*
X324345D01*
X329885Y488760D02*
X324845D01*
X329885Y512760D02*
X324845D01*
X329885Y536760D02*
X324845D01*
X329885Y548260D02*
Y543220D01*
X330398Y499523D02*
X326834Y495959D01*
X330398Y501997D02*
X326834Y505561D01*
X330398Y523523D02*
X326834Y519959D01*
X330398Y525997D02*
X326834Y529561D01*
X331635Y487010D02*
Y481970D01*
Y490510D02*
Y495550D01*
Y511010D02*
Y505970D01*
Y514510D02*
Y519550D01*
Y535010D02*
Y529970D01*
Y538510D02*
Y543550D01*
X332872Y499523D02*
X336436Y495959D01*
X332872Y501997D02*
X336436Y505561D01*
X332872Y523523D02*
X336436Y519959D01*
X332872Y525997D02*
X336436Y529561D01*
X333385Y488760D02*
X338425D01*
X333385Y512760D02*
X338425D01*
X333385Y536760D02*
X338425D01*
X334885Y339760D02*
X329845D01*
X334885Y363760D02*
X329845D01*
X334885Y387760D02*
X329845D01*
X335585Y554010D02*
X340625D01*
X336551Y437844D02*
X341225Y433170D01*
X336551Y469676D02*
X341225Y474350D01*
X336551Y577844D02*
X341225Y573170D01*
X336551Y609676D02*
X341225Y614350D01*
X336635Y338010D02*
Y332970D01*
Y341510D02*
Y346550D01*
Y362010D02*
Y356970D01*
Y365510D02*
Y370550D01*
Y386010D02*
Y380970D01*
Y389510D02*
Y394550D01*
X338385Y339760D02*
X343425D01*
X338385Y363760D02*
X343425D01*
X340635Y670510D02*
Y665470D01*
Y713010D02*
Y718050D01*
X345885Y585760D02*
X340845D01*
X346885Y351760D02*
X341845D01*
X347635Y584010D02*
Y578970D01*
Y587510D02*
Y592550D01*
X348635Y350010D02*
Y344970D01*
Y353510D02*
Y358550D01*
X348885Y508760D02*
X343845D01*
X349385Y585760D02*
X354425D01*
X350385Y351760D02*
X355425D01*
X350635Y507010D02*
Y501970D01*
Y510510D02*
Y515550D01*
X351885Y691760D02*
X356925D01*
X352385Y508760D02*
X357425D01*
X356885Y460750D02*
X351845D01*
X357885Y600750D02*
X352845D01*
X357885Y759760D02*
X352845D01*
X357885Y783760D02*
X352845D01*
X358398Y746523D02*
X354834Y742959D01*
X358398Y748997D02*
X354834Y752561D01*
X358398Y770523D02*
X354834Y766959D01*
X358398Y772997D02*
X354834Y776561D01*
X358885Y339760D02*
X353845D01*
X358885Y363760D02*
X353845D01*
X359635Y758010D02*
Y752970D01*
Y761510D02*
Y766550D01*
Y782010D02*
Y776970D01*
Y785510D02*
Y790550D01*
X360635Y338010D02*
Y332970D01*
Y341510D02*
Y346550D01*
Y362010D02*
Y356970D01*
Y365510D02*
Y370550D01*
X360872Y746523D02*
X364436Y742959D01*
X360872Y748997D02*
X364436Y752561D01*
X360872Y770523D02*
X364436Y766959D01*
X360872Y772997D02*
X364436Y776561D01*
X361385Y759760D02*
X366425D01*
X361385Y783760D02*
X366425D01*
X361398Y507523D02*
X357834Y503959D01*
X361398Y509997D02*
X357834Y513561D01*
X362385Y339760D02*
X367425D01*
X362385Y363760D02*
X367425D01*
X363872Y507523D02*
X367436Y503959D01*
X363872Y509997D02*
X367436Y513561D01*
X368885Y669760D02*
X363845D01*
X368885Y693760D02*
X363845D01*
X369398Y656523D02*
X365834Y652959D01*
X369398Y658997D02*
X365834Y662561D01*
X369398Y680523D02*
X365834Y676959D01*
X369398Y682997D02*
X365834Y686561D01*
X369885Y747760D02*
X364845D01*
X369885Y771760D02*
X364845D01*
X370398Y758523D02*
X366834Y754959D01*
X370398Y760997D02*
X366834Y764561D01*
X370398Y782523D02*
X366834Y778959D01*
X370398Y784997D02*
X366834Y788561D01*
X370635Y668010D02*
Y662970D01*
Y671510D02*
Y676550D01*
Y692010D02*
Y686970D01*
Y695510D02*
Y700550D01*
X370885Y351760D02*
X365845D01*
X371635Y746010D02*
Y740970D01*
Y749510D02*
Y754550D01*
Y770010D02*
Y764970D01*
Y773510D02*
Y778550D01*
X371872Y656523D02*
X375436Y652959D01*
X371872Y658997D02*
X375436Y662561D01*
X371872Y680523D02*
X375436Y676959D01*
X371872Y682997D02*
X375436Y686561D01*
X372385Y669760D02*
X377425D01*
X372385Y693760D02*
X377425D01*
X372635Y350010D02*
Y344970D01*
Y353510D02*
Y358550D01*
X372872Y758523D02*
X376436Y754959D01*
X372872Y760997D02*
X376436Y764561D01*
X372872Y782523D02*
X376436Y778959D01*
X372872Y784997D02*
X376436Y788561D01*
X372885Y508760D02*
X367845D01*
X373385Y747760D02*
X378425D01*
X373385Y771760D02*
X378425D01*
X374385Y351760D02*
X379425D01*
X374635Y507010D02*
Y501970D01*
Y510510D02*
Y515550D01*
X376385Y508760D02*
X381425D01*
X380885Y657760D02*
X375845D01*
X380885Y681760D02*
X375845D01*
X381398Y668523D02*
X377834Y664959D01*
X381398Y670997D02*
X377834Y674561D01*
X381398Y692523D02*
X377834Y688959D01*
X381398Y694997D02*
X377834Y698561D01*
X381885Y759760D02*
X376845D01*
X381885Y783760D02*
X376845D01*
X382398Y746523D02*
X378834Y742959D01*
X382398Y748997D02*
X378834Y752561D01*
X382398Y770523D02*
X378834Y766959D01*
X382398Y772997D02*
X378834Y776561D01*
X382635Y656010D02*
Y650970D01*
Y659510D02*
Y664550D01*
Y680010D02*
Y674970D01*
Y683510D02*
Y688550D01*
X382885Y339760D02*
X377845D01*
X382885Y363760D02*
X377845D01*
X383635Y758010D02*
Y752970D01*
Y761510D02*
Y766550D01*
Y782010D02*
Y776970D01*
Y785510D02*
Y790550D01*
X383872Y668523D02*
X387436Y664959D01*
X383872Y670997D02*
X387436Y674561D01*
X383872Y692523D02*
X387436Y688959D01*
X383872Y694997D02*
X387436Y698561D01*
X384385Y657760D02*
X389425D01*
X384385Y681760D02*
X389425D01*
X384635Y338010D02*
Y332970D01*
Y341510D02*
Y346550D01*
Y362010D02*
Y356970D01*
Y365510D02*
Y370550D01*
X384872Y746523D02*
X388436Y742959D01*
X384872Y748997D02*
X388436Y752561D01*
X384872Y770523D02*
X388436Y766959D01*
X384872Y772997D02*
X388436Y776561D01*
X385385Y759760D02*
X390425D01*
X385385Y783760D02*
X390425D01*
X386385Y339760D02*
X391425D01*
X386385Y363760D02*
X391425D01*
X388885Y508760D02*
X383845D01*
X390635Y494500D02*
Y499540D01*
Y507010D02*
Y501970D01*
Y510510D02*
Y515550D01*
X391635Y634500D02*
Y639540D01*
X392385Y508760D02*
X397425D01*
X394885Y351760D02*
X389845D01*
X396635Y350010D02*
Y344970D01*
Y353510D02*
Y358550D01*
X398385Y351760D02*
X403425D01*
X401398Y507523D02*
X397834Y503959D01*
X401398Y509997D02*
X397834Y513561D01*
X403872Y507523D02*
X407436Y503959D01*
X403872Y509997D02*
X407436Y513561D01*
X406885Y339760D02*
X401845D01*
X406885Y363760D02*
X401845D01*
X408635Y338010D02*
Y332970D01*
Y341510D02*
Y346550D01*
Y362010D02*
Y356970D01*
Y365510D02*
Y370550D01*
X408673Y525024D02*
X403999Y520350D01*
X408673Y538256D02*
X403999Y542930D01*
X410385Y339760D02*
X415425D01*
X410385Y363760D02*
X415425D01*
X412885Y508760D02*
X407845D01*
X414635Y507010D02*
Y501970D01*
Y510510D02*
Y515550D01*
X416385Y508760D02*
X421425D01*
X421905Y525024D02*
X426579Y520350D01*
X421905Y538256D02*
X426579Y542930D01*
X424385Y460750D02*
X429425D01*
X430885Y387760D02*
X425845D01*
X432635Y386010D02*
Y380970D01*
Y389510D02*
Y394550D01*
X434385Y387760D02*
X439425D01*
X442885Y375760D02*
X437845D01*
X442885Y399760D02*
X437845D01*
X444635Y374010D02*
Y368970D01*
Y377510D02*
Y382550D01*
Y398010D02*
Y392970D01*
Y401510D02*
Y406550D01*
X446385Y375760D02*
X451425D01*
X446385Y399760D02*
X451425D01*
X454885Y387760D02*
X449845D01*
X456635Y386010D02*
Y380970D01*
Y389510D02*
Y394550D01*
X456885Y557760D02*
X451845D01*
X456885Y581760D02*
X451845D01*
X457398Y568523D02*
X453834Y564959D01*
X457398Y570997D02*
X453834Y574561D01*
X457398Y592523D02*
X453834Y588959D01*
X457398Y594997D02*
X453834Y598561D01*
X458385Y387760D02*
X463425D01*
X458635Y556010D02*
Y550970D01*
Y559510D02*
Y564550D01*
Y580010D02*
Y574970D01*
Y583510D02*
Y588550D01*
X459872Y568523D02*
X463436Y564959D01*
X459872Y570997D02*
X463436Y574561D01*
X459872Y592523D02*
X463436Y588959D01*
X459872Y594997D02*
X463436Y598561D01*
X460385Y557760D02*
X465425D01*
X460385Y581760D02*
X465425D01*
X466885Y375760D02*
X461845D01*
X466885Y399760D02*
X461845D01*
X468635Y374010D02*
Y368970D01*
Y377510D02*
Y382550D01*
Y398010D02*
Y392970D01*
Y401510D02*
Y406550D01*
X468885Y569760D02*
X463845D01*
X468885Y593760D02*
X463845D01*
X469398Y556523D02*
X465834Y552959D01*
X469398Y558997D02*
X465834Y562561D01*
X469398Y580523D02*
X465834Y576959D01*
X469398Y582997D02*
X465834Y586561D01*
X470385Y375760D02*
X475425D01*
X470385Y399760D02*
X475425D01*
X470635Y568010D02*
Y562970D01*
Y571510D02*
Y576550D01*
Y592010D02*
Y586970D01*
Y595510D02*
Y600550D01*
X471872Y556523D02*
X475436Y552959D01*
X471872Y558997D02*
X475436Y562561D01*
X471872Y580523D02*
X475436Y576959D01*
X471872Y582997D02*
X475436Y586561D01*
X472385Y569760D02*
X477425D01*
X472385Y593760D02*
X477425D01*
X478885Y339760D02*
X473845D01*
X478885Y363760D02*
X473845D01*
X478885Y387760D02*
X473845D01*
X480635Y338010D02*
Y332970D01*
Y341510D02*
Y346550D01*
Y362010D02*
Y356970D01*
Y365510D02*
Y370550D01*
Y386010D02*
Y380970D01*
Y389510D02*
Y394550D01*
X482385Y339760D02*
X487425D01*
X482385Y363760D02*
X487425D01*
X482385Y387760D02*
X487425D01*
X484885Y526010D02*
Y520970D01*
Y533510D02*
Y538550D01*
X486885Y529760D02*
X491925D01*
X490885Y399760D02*
X485845D01*
X492635Y398010D02*
Y392970D01*
Y401510D02*
Y406550D01*
X494385Y399760D02*
X499425D01*
X519335Y478760D02*
X514295D01*
X530885Y393760D02*
X525845D01*
X531398Y380523D02*
X527834Y376959D01*
X531398Y382997D02*
X527834Y386561D01*
X531635Y626010D02*
Y620970D01*
Y629510D02*
Y634550D01*
Y650010D02*
Y644970D01*
Y653510D02*
Y658550D01*
Y665510D02*
Y670550D01*
X532635Y392010D02*
Y386970D01*
X532872Y638523D02*
X536436Y634959D01*
X532872Y640997D02*
X536436Y644561D01*
X533385Y627760D02*
X538425D01*
X533385Y651760D02*
X538425D01*
X533385Y663760D02*
X538425D01*
X533872Y380523D02*
X537436Y376959D01*
X533872Y382997D02*
X537436Y386561D01*
X534385Y393760D02*
X539425D01*
X541885Y639760D02*
X536845D01*
X542398Y626523D02*
X538834Y622959D01*
X542398Y628997D02*
X538834Y632561D01*
X542398Y650523D02*
X538834Y646959D01*
X542398Y652997D02*
X538834Y656561D01*
X542398Y662523D02*
X538834Y658959D01*
X542398Y664997D02*
X538834Y668561D01*
X543398Y380523D02*
X539834Y376959D01*
X543398Y382997D02*
X539834Y386561D01*
X543398Y392523D02*
X539834Y388959D01*
X543635Y638010D02*
Y632970D01*
Y641510D02*
Y646550D01*
X544872Y626523D02*
X548436Y622959D01*
X544872Y628997D02*
X548436Y632561D01*
X544872Y650523D02*
X548436Y646959D01*
X544872Y652997D02*
X548436Y656561D01*
X544872Y662523D02*
X548436Y658959D01*
X544872Y664997D02*
X548436Y668561D01*
X545385Y639760D02*
X550425D01*
X545872Y380523D02*
X549436Y376959D01*
X545872Y382997D02*
X549436Y386561D01*
X545872Y392523D02*
X549436Y388959D01*
X545872Y394997D02*
X549436Y398561D01*
X551635Y424510D02*
Y419470D01*
Y435010D02*
Y440050D01*
X551935Y478760D02*
X556975D01*
X553885Y627760D02*
X548845D01*
X554685Y445036D02*
Y439996D01*
Y458536D02*
Y463576D01*
X554885Y429760D02*
X559925D01*
X555398Y380523D02*
X551834Y376959D01*
X555398Y382997D02*
X551834Y386561D01*
X555635Y626010D02*
Y620970D01*
Y638010D02*
Y632970D01*
Y641510D02*
Y646550D01*
X557235Y451786D02*
X562275D01*
X557872Y380523D02*
X561436Y376959D01*
X557872Y382997D02*
X561436Y386561D01*
X563859Y663810D02*
X558819D01*
X563859Y738810D02*
X558819D01*
X570609Y666360D02*
Y671400D01*
Y741360D02*
Y746400D01*
X589385Y516760D02*
X584345D01*
X589385Y535760D02*
X584345D01*
X591385Y513010D02*
Y507970D01*
Y520510D02*
Y525550D01*
Y532010D02*
Y526970D01*
Y539510D02*
Y544550D01*
X593385Y516760D02*
X598425D01*
X593385Y535760D02*
X598425D01*
X598865Y576760D02*
X593825D01*
X605235Y570390D02*
Y565350D01*
Y583130D02*
Y588170D01*
X608385Y500760D02*
X603345D01*
X611605Y576760D02*
X616645D01*
X611635Y495510D02*
Y490470D01*
Y506010D02*
Y511050D01*
X614885Y411760D02*
X609845D01*
X614885Y500760D02*
X619925D01*
X615398Y398523D02*
X611834Y394959D01*
X615398Y400997D02*
X611834Y404561D01*
X615398Y422523D02*
X611834Y418959D01*
X615398Y424997D02*
X611834Y428561D01*
X616635Y410010D02*
Y404970D01*
Y413510D02*
Y418550D01*
X617872Y398523D02*
X621436Y394959D01*
X617872Y400997D02*
X621436Y404561D01*
X617872Y422523D02*
X621436Y418959D01*
X617872Y424997D02*
X621436Y428561D01*
X618385Y411760D02*
X623425D01*
X618885Y533760D02*
X613845D01*
X620635Y532010D02*
Y526970D01*
Y535510D02*
Y540550D01*
X622385Y533760D02*
X627425D01*
X626885Y423760D02*
X621845D01*
X627398Y410523D02*
X623834Y406959D01*
X627398Y412997D02*
X623834Y416561D01*
X628635Y422010D02*
Y416970D01*
Y425510D02*
Y430550D01*
X629872Y410523D02*
X633436Y406959D01*
X629872Y412997D02*
X633436Y416561D01*
X630385Y423760D02*
X635425D01*
X630885Y521760D02*
X625845D01*
X631398Y532523D02*
X627834Y528959D01*
X631398Y534997D02*
X627834Y538561D01*
X632635Y520010D02*
Y514970D01*
Y523510D02*
Y528550D01*
X633872Y532523D02*
X637436Y528959D01*
X633872Y534997D02*
X637436Y538561D01*
X634385Y521760D02*
X639425D01*
X642885Y533760D02*
X637845D01*
X643398Y520523D02*
X639834Y516959D01*
X643398Y522997D02*
X639834Y526561D01*
X644635Y532010D02*
Y526970D01*
Y535510D02*
Y540550D01*
X645872Y520523D02*
X649436Y516959D01*
X645872Y522997D02*
X649436Y526561D01*
X646385Y533760D02*
X651425D01*
X655885Y714760D02*
X650845D01*
X655885Y738760D02*
X650845D01*
X656398Y701523D02*
X652834Y697959D01*
X656398Y703997D02*
X652834Y707561D01*
X656398Y725523D02*
X652834Y721959D01*
X656398Y727997D02*
X652834Y731561D01*
X657635Y713010D02*
Y707970D01*
Y716510D02*
Y721550D01*
Y737010D02*
Y731970D01*
Y740510D02*
Y745550D01*
X658872Y701523D02*
X662436Y697959D01*
X658872Y703997D02*
X662436Y707561D01*
X658872Y725523D02*
X662436Y721959D01*
X658872Y727997D02*
X662436Y731561D01*
X659385Y714760D02*
X664425D01*
X659385Y738760D02*
X664425D01*
X666231Y534056D02*
X662667Y530492D01*
X666231Y543064D02*
X662667Y546628D01*
X667885Y702760D02*
X662845D01*
X667885Y726760D02*
X662845D01*
X668398Y713523D02*
X664834Y709959D01*
X668398Y715997D02*
X664834Y719561D01*
X668398Y737523D02*
X664834Y733959D01*
X668398Y739997D02*
X664834Y743561D01*
X669635Y701010D02*
Y695970D01*
Y704510D02*
Y709550D01*
Y725010D02*
Y719970D01*
Y728510D02*
Y733550D01*
X670872Y713523D02*
X674436Y709959D01*
X670872Y715997D02*
X674436Y719561D01*
X670872Y737523D02*
X674436Y733959D01*
X670872Y739997D02*
X674436Y743561D01*
X671385Y702760D02*
X676425D01*
X671385Y726760D02*
X676425D01*
X675239Y534056D02*
X678803Y530492D01*
X675239Y543064D02*
X678803Y546628D01*
X684385Y711460D02*
X679345D01*
X686719Y721244D02*
X682045Y716570D01*
X686885Y440760D02*
X681845D01*
X687398Y427523D02*
X683834Y423959D01*
X687398Y429997D02*
X683834Y433561D01*
X687398Y451523D02*
X683834Y447959D01*
X687398Y453997D02*
X683834Y457561D01*
X688635Y439010D02*
Y433970D01*
Y442510D02*
Y447550D01*
X689635Y714010D02*
Y719050D01*
X689765Y538560D02*
X684725D01*
X689872Y427523D02*
X693436Y423959D01*
X689872Y429997D02*
X693436Y433561D01*
X689872Y451523D02*
X693436Y447959D01*
X689872Y453997D02*
X693436Y457561D01*
X690385Y440760D02*
X695425D01*
X692551Y721244D02*
X697225Y716570D01*
X696135Y532190D02*
Y527150D01*
X698885Y452760D02*
X693845D01*
X699398Y439523D02*
X695834Y435959D01*
X699398Y441997D02*
X695834Y445561D01*
X700635Y451010D02*
Y445970D01*
Y454510D02*
Y459550D01*
X701872Y439523D02*
X705436Y435959D01*
X701872Y441997D02*
X705436Y445561D01*
X702385Y452760D02*
X707425D01*
D02*
D83*
X71635Y471760D02*
D03*
Y533760D02*
D03*
Y595760D02*
D03*
Y657760D02*
D03*
D02*
D84*
X187017Y391798D02*
D03*
Y531798D02*
D03*
X234289Y391640D02*
D03*
Y531640D02*
D03*
X367017Y391798D02*
D03*
X368017Y531798D02*
D03*
X414289Y391640D02*
D03*
X415289Y531640D02*
D03*
D02*
D85*
X210635Y460750D02*
D03*
Y600750D02*
D03*
X390635Y460750D02*
D03*
X391635Y600750D02*
D03*
D02*
D86*
X636235Y698760D02*
D03*
Y711460D02*
D03*
Y724160D02*
D03*
Y736860D02*
D03*
X689635Y698760D02*
D03*
Y711460D02*
D03*
Y724160D02*
D03*
Y736860D02*
D03*
D02*
D87*
X620735Y639410D02*
D03*
Y652110D02*
D03*
Y665410D02*
D03*
Y678110D02*
D03*
X688535Y639410D02*
D03*
Y652110D02*
D03*
Y665410D02*
D03*
Y678110D02*
D03*
D02*
D88*
X532135Y683760D02*
D03*
X533135Y608760D02*
D03*
X555135Y683760D02*
D03*
X556135Y608760D02*
D03*
D02*
D89*
X33635Y38760D02*
D03*
Y63760D02*
D03*
Y88760D02*
D03*
Y113760D02*
D03*
Y138760D02*
D03*
Y163760D02*
D03*
Y188760D02*
D03*
Y213760D02*
D03*
Y238760D02*
D03*
Y263760D02*
D03*
X473635Y38760D02*
D03*
Y63760D02*
D03*
Y88760D02*
D03*
Y113760D02*
D03*
Y138760D02*
D03*
Y163760D02*
D03*
Y188760D02*
D03*
Y213760D02*
D03*
Y238760D02*
D03*
Y263760D02*
D03*
X525135Y347760D02*
D03*
Y790260D02*
D03*
X550135Y347760D02*
D03*
Y790260D02*
D03*
X575135Y347760D02*
D03*
Y790260D02*
D03*
X600135Y347760D02*
D03*
Y790260D02*
D03*
X625135Y347760D02*
D03*
Y790260D02*
D03*
X650135Y347760D02*
D03*
Y790260D02*
D03*
X675135Y347760D02*
D03*
Y790260D02*
D03*
X700135Y347760D02*
D03*
Y790260D02*
D03*
X725135Y347760D02*
D03*
Y790260D02*
D03*
X750135Y347760D02*
D03*
Y790260D02*
D03*
D02*
D90*
X89135Y259760D02*
D03*
X104135D02*
D03*
X119135D02*
D03*
X443135Y759760D02*
D03*
X458135D02*
D03*
D02*
D91*
X69635Y294260D02*
D03*
X138635D02*
D03*
X422635Y794260D02*
D03*
X478635D02*
D03*
D02*
D92*
X213635Y692760D02*
D03*
Y777760D02*
D03*
X340635Y691760D02*
D03*
Y776760D02*
D03*
D02*
D93*
X276635Y453760D02*
D03*
Y593760D02*
D03*
X320635Y453760D02*
D03*
Y593760D02*
D03*
D02*
D94*
X267385Y414010D02*
D03*
Y554010D02*
D03*
X285885Y414010D02*
D03*
Y554010D02*
D03*
X311385Y414010D02*
D03*
Y554010D02*
D03*
X329885Y414010D02*
D03*
Y554010D02*
D03*
D02*
D95*
X580635Y436760D02*
D03*
X660635D02*
D03*
D02*
D96*
X516585Y451786D02*
D03*
Y505744D02*
D03*
X529285Y451786D02*
D03*
Y505744D02*
D03*
X541985Y451786D02*
D03*
Y505744D02*
D03*
X554685Y451786D02*
D03*
Y505744D02*
D03*
D02*
D97*
X535635Y478760D02*
D03*
D02*
D98*
X401635Y127760D02*
D03*
X421635D02*
D03*
X531635Y429760D02*
D03*
X551635D02*
D03*
X611635Y500760D02*
D03*
X631635D02*
D03*
D02*
D99*
X267635Y52760D02*
D03*
Y168760D02*
D03*
X272635Y52760D02*
D03*
Y168760D02*
D03*
X277635Y52760D02*
D03*
Y168760D02*
D03*
X282635Y52760D02*
D03*
Y168760D02*
D03*
X287635Y52760D02*
D03*
Y168760D02*
D03*
X292635Y52760D02*
D03*
Y168760D02*
D03*
X297635Y52760D02*
D03*
Y168760D02*
D03*
X302635Y52760D02*
D03*
Y168760D02*
D03*
X307635Y52760D02*
D03*
Y168760D02*
D03*
X312635Y52760D02*
D03*
Y168760D02*
D03*
X317635Y52760D02*
D03*
Y168760D02*
D03*
X322635Y52760D02*
D03*
Y168760D02*
D03*
X327635Y52760D02*
D03*
Y168760D02*
D03*
X332635Y52760D02*
D03*
Y168760D02*
D03*
X337635Y52760D02*
D03*
Y168760D02*
D03*
X342635Y52760D02*
D03*
Y168760D02*
D03*
D02*
D100*
X247135Y73260D02*
D03*
Y78260D02*
D03*
Y83260D02*
D03*
Y88260D02*
D03*
Y93260D02*
D03*
Y98260D02*
D03*
Y103260D02*
D03*
Y108260D02*
D03*
Y113260D02*
D03*
Y118260D02*
D03*
Y123260D02*
D03*
Y128260D02*
D03*
Y133260D02*
D03*
Y138260D02*
D03*
Y143260D02*
D03*
Y148260D02*
D03*
X363135Y73260D02*
D03*
Y78260D02*
D03*
Y83260D02*
D03*
Y88260D02*
D03*
Y93260D02*
D03*
Y98260D02*
D03*
Y103260D02*
D03*
Y108260D02*
D03*
Y113260D02*
D03*
Y118260D02*
D03*
Y123260D02*
D03*
Y128260D02*
D03*
Y133260D02*
D03*
Y138260D02*
D03*
Y143260D02*
D03*
Y148260D02*
D03*
D02*
D101*
X200635Y121760D02*
D03*
Y151760D02*
D03*
D02*
D102*
X295635Y205760D02*
D03*
X307635D02*
D03*
X319635D02*
D03*
D02*
D103*
X79635Y28560D02*
D03*
Y41260D02*
D03*
Y53960D02*
D03*
Y66660D02*
D03*
Y79360D02*
D03*
Y92060D02*
D03*
Y104760D02*
D03*
Y117460D02*
D03*
X152635Y28560D02*
D03*
Y41260D02*
D03*
Y53960D02*
D03*
Y66660D02*
D03*
Y79360D02*
D03*
Y92060D02*
D03*
Y104760D02*
D03*
Y117460D02*
D03*
D02*
D104*
X178585Y191760D02*
D03*
Y199760D02*
D03*
Y207760D02*
D03*
Y215760D02*
D03*
X196085Y191760D02*
D03*
Y199760D02*
D03*
Y207760D02*
D03*
Y215760D02*
D03*
D02*
D105*
X54635Y81760D02*
D03*
X58635Y115760D02*
D03*
X71635Y242760D02*
D03*
X78635Y198760D02*
Y219760D01*
D02*
D03*
Y231760D02*
D03*
X90635Y219760D02*
D03*
Y231760D02*
D03*
X91635Y66760D02*
D03*
X92635Y143760D02*
D03*
Y155760D02*
D03*
Y167760D02*
D03*
X97635Y59760D02*
D03*
Y86760D02*
D03*
X98635Y589760D02*
D03*
Y601760D02*
D03*
Y613760D02*
D03*
X99635Y505760D02*
D03*
Y517760D02*
D03*
Y529760D02*
D03*
X102635Y207760D02*
D03*
Y219760D02*
D03*
X103635Y275760D02*
D03*
X104635Y143760D02*
D03*
Y155760D02*
D03*
Y167760D02*
D03*
X110635Y589760D02*
D03*
Y601760D02*
D03*
Y613760D02*
D03*
X111635Y505760D02*
D03*
Y517760D02*
D03*
Y529760D02*
D03*
X116635Y143760D02*
D03*
Y155760D02*
D03*
Y167760D02*
D03*
X120635Y339760D02*
D03*
Y363760D02*
D03*
X120745Y237760D02*
D03*
X122635Y577760D02*
D03*
Y589760D02*
D03*
Y601760D02*
D03*
Y613760D02*
D03*
X123635Y505760D02*
D03*
Y517760D02*
D03*
Y529760D02*
D03*
Y541760D02*
D03*
Y553760D02*
D03*
X124635Y288760D02*
D03*
X132635Y351760D02*
D03*
X134635Y577760D02*
D03*
Y589760D02*
D03*
Y601760D02*
D03*
Y613760D02*
D03*
X135635Y493760D02*
D03*
Y505760D02*
D03*
Y517760D02*
D03*
Y529760D02*
D03*
Y541760D02*
D03*
Y553760D02*
D03*
X138635Y28560D02*
D03*
Y41260D02*
D03*
Y53960D02*
D03*
Y66760D02*
D03*
Y79360D02*
D03*
Y92060D02*
D03*
Y104760D02*
D03*
Y117460D02*
D03*
X144635Y339760D02*
D03*
Y363760D02*
D03*
X146635Y577760D02*
D03*
Y589760D02*
D03*
Y601760D02*
D03*
Y613760D02*
D03*
X147635Y493760D02*
D03*
Y505760D02*
D03*
Y517760D02*
D03*
Y529760D02*
D03*
Y541760D02*
D03*
Y553760D02*
D03*
X152635Y248760D02*
D03*
X156635Y351760D02*
D03*
X158635Y267760D02*
D03*
X166635Y41260D02*
D03*
Y53960D02*
D03*
X168635Y339760D02*
D03*
Y363760D02*
D03*
X170635Y657760D02*
D03*
Y669760D02*
D03*
Y681760D02*
D03*
Y693760D02*
D03*
Y747760D02*
D03*
Y759760D02*
D03*
Y771760D02*
D03*
Y783760D02*
D03*
X175635Y72760D02*
D03*
X180635Y224760D02*
D03*
Y351760D02*
D03*
X181635Y508760D02*
D03*
X182635Y657760D02*
D03*
Y669760D02*
D03*
Y681760D02*
D03*
Y693760D02*
D03*
Y747760D02*
D03*
Y759760D02*
D03*
Y771760D02*
D03*
Y783760D02*
D03*
X184635Y68760D02*
D03*
X187635Y130760D02*
D03*
Y142760D02*
D03*
X188635Y224760D02*
D03*
X191635Y41760D02*
D03*
X192635Y29760D02*
D03*
Y339760D02*
D03*
Y363760D02*
D03*
X193635Y68760D02*
D03*
Y508760D02*
D03*
X194635Y747760D02*
D03*
Y759760D02*
D03*
Y771760D02*
D03*
Y783760D02*
D03*
X195635Y182760D02*
D03*
X199635Y130760D02*
D03*
Y142760D02*
D03*
X200635Y72760D02*
D03*
X204635Y351760D02*
D03*
X205635Y230760D02*
D03*
Y508760D02*
D03*
X206635Y79760D02*
D03*
Y100760D02*
D03*
X211635Y130760D02*
D03*
Y142760D02*
D03*
Y256510D02*
D03*
X212635Y293510D02*
D03*
X213635Y48760D02*
D03*
Y107760D02*
D03*
X214635Y268760D02*
D03*
X216635Y339760D02*
D03*
Y363760D02*
D03*
X220635Y211760D02*
D03*
X221635Y48760D02*
D03*
Y508760D02*
D03*
X227635Y54760D02*
D03*
X228635Y351760D02*
D03*
X229635Y62760D02*
D03*
X230635Y211760D02*
D03*
X232635Y747760D02*
D03*
Y759760D02*
D03*
Y771760D02*
D03*
Y783760D02*
D03*
X233635Y508760D02*
D03*
X240635Y181760D02*
D03*
Y339760D02*
D03*
Y363760D02*
D03*
Y657760D02*
D03*
Y669760D02*
D03*
Y681760D02*
D03*
Y693760D02*
D03*
X244635Y189760D02*
D03*
Y747760D02*
D03*
Y759760D02*
D03*
Y771760D02*
D03*
Y783760D02*
D03*
X245635Y209760D02*
D03*
Y508760D02*
D03*
X252635Y351760D02*
D03*
Y657760D02*
D03*
Y669760D02*
D03*
Y681760D02*
D03*
Y693760D02*
D03*
X253635Y585760D02*
D03*
X256635Y241760D02*
D03*
Y747760D02*
D03*
Y759760D02*
D03*
Y771760D02*
D03*
Y783760D02*
D03*
X263635Y235760D02*
D03*
Y488760D02*
D03*
Y500760D02*
D03*
Y512760D02*
D03*
Y524760D02*
D03*
Y536760D02*
D03*
X264635Y339760D02*
D03*
Y363760D02*
D03*
Y387760D02*
D03*
X270635Y83760D02*
D03*
Y103760D02*
D03*
Y123760D02*
D03*
Y143760D02*
D03*
X275635Y488760D02*
D03*
Y500760D02*
D03*
Y512760D02*
D03*
Y524760D02*
D03*
Y536760D02*
D03*
X276635Y351760D02*
D03*
Y375760D02*
D03*
Y399760D02*
D03*
X279635Y234760D02*
D03*
X280635Y73760D02*
D03*
Y93760D02*
D03*
Y113760D02*
D03*
Y133760D02*
D03*
X287635Y488760D02*
D03*
Y500760D02*
D03*
Y512760D02*
D03*
Y524760D02*
D03*
Y536760D02*
D03*
X288635Y339760D02*
D03*
Y363760D02*
D03*
Y387760D02*
D03*
X290635Y83760D02*
D03*
Y103760D02*
D03*
Y123760D02*
D03*
Y143760D02*
D03*
X291635Y234760D02*
D03*
X297635Y747760D02*
D03*
Y759760D02*
D03*
Y771760D02*
D03*
Y783760D02*
D03*
X300635Y73760D02*
D03*
Y93760D02*
D03*
Y113760D02*
D03*
Y133760D02*
D03*
Y351760D02*
D03*
Y375760D02*
D03*
Y399760D02*
D03*
X301635Y28760D02*
D03*
X307635Y488760D02*
D03*
Y500760D02*
D03*
Y512760D02*
D03*
Y524760D02*
D03*
Y536760D02*
D03*
X309635Y747760D02*
D03*
Y759760D02*
D03*
Y771760D02*
D03*
Y783760D02*
D03*
X310635Y83760D02*
D03*
Y103760D02*
D03*
Y123760D02*
D03*
Y143760D02*
D03*
Y657760D02*
D03*
Y669760D02*
D03*
Y681760D02*
D03*
Y693760D02*
D03*
X312635Y339760D02*
D03*
Y363760D02*
D03*
Y387760D02*
D03*
X319635Y488760D02*
D03*
Y500760D02*
D03*
Y512760D02*
D03*
Y524760D02*
D03*
Y536760D02*
D03*
X320635Y73760D02*
D03*
Y93760D02*
D03*
Y113760D02*
D03*
Y133760D02*
D03*
X321635Y243760D02*
D03*
Y747760D02*
D03*
Y759760D02*
D03*
Y771760D02*
D03*
Y783760D02*
D03*
X322635Y657760D02*
D03*
Y669760D02*
D03*
Y681760D02*
D03*
Y693760D02*
D03*
X324635Y351760D02*
D03*
Y375760D02*
D03*
Y399760D02*
D03*
X330635Y83760D02*
D03*
Y103760D02*
D03*
Y123760D02*
D03*
Y143760D02*
D03*
X331635Y243760D02*
D03*
Y488760D02*
D03*
Y500760D02*
D03*
Y512760D02*
D03*
Y524760D02*
D03*
Y536760D02*
D03*
X335635Y28760D02*
D03*
X336635Y339760D02*
D03*
Y363760D02*
D03*
Y387760D02*
D03*
X340635Y73760D02*
D03*
Y93760D02*
D03*
Y113760D02*
D03*
Y133760D02*
D03*
X344635Y226760D02*
D03*
X347635Y585760D02*
D03*
X348635Y351760D02*
D03*
X350635Y508760D02*
D03*
X353635Y226760D02*
D03*
X359635Y37760D02*
D03*
Y747760D02*
D03*
Y759760D02*
D03*
Y771760D02*
D03*
Y783760D02*
D03*
X360635Y339760D02*
D03*
Y363760D02*
D03*
X362635Y508760D02*
D03*
X363635Y226760D02*
D03*
X367635Y31760D02*
D03*
X370635Y657760D02*
D03*
Y669760D02*
D03*
Y681760D02*
D03*
Y693760D02*
D03*
X371635Y747760D02*
D03*
Y759760D02*
D03*
Y771760D02*
D03*
Y783760D02*
D03*
X372635Y226760D02*
D03*
Y351760D02*
D03*
X374635Y508760D02*
D03*
X375635Y25760D02*
D03*
X382635Y19760D02*
D03*
Y657760D02*
D03*
Y669760D02*
D03*
Y681760D02*
D03*
Y693760D02*
D03*
X383635Y747760D02*
D03*
Y759760D02*
D03*
Y771760D02*
D03*
Y783760D02*
D03*
X384635Y339760D02*
D03*
Y363760D02*
D03*
X390635Y508760D02*
D03*
X396635Y351760D02*
D03*
X399635Y245760D02*
D03*
X402635Y508760D02*
D03*
X408635Y339760D02*
D03*
Y363760D02*
D03*
X413635Y295760D02*
D03*
X414635Y508760D02*
D03*
X420635Y232760D02*
D03*
X429135Y293760D02*
D03*
X432635Y387760D02*
D03*
X443135Y777760D02*
D03*
X444635Y375760D02*
D03*
Y399760D02*
D03*
X446835Y89760D02*
X412435D01*
X446835Y104760D02*
Y109960D01*
X450635Y113760*
X473635*
X447635Y138760D02*
D03*
Y192410D02*
D03*
X456635Y163760D02*
D03*
Y205110D02*
D03*
Y387760D02*
D03*
X458635Y557760D02*
D03*
Y569760D02*
D03*
Y581760D02*
D03*
Y593760D02*
D03*
X468635Y375760D02*
D03*
Y399760D02*
D03*
Y759760D02*
D03*
X470635Y557760D02*
D03*
Y569760D02*
D03*
Y581760D02*
D03*
Y593760D02*
D03*
Y684760D02*
D03*
X473635Y88760D02*
X460635D01*
Y89760*
X446835*
X474635Y668760D02*
D03*
X475635Y632760D02*
D03*
X478635Y647760D02*
D03*
X480635Y339760D02*
D03*
Y363760D02*
D03*
Y387760D02*
D03*
X490635Y680760D02*
D03*
Y692760D02*
D03*
X491635Y468760D02*
D03*
X492635Y399760D02*
D03*
X498635Y477760D02*
D03*
X502635Y665760D02*
D03*
Y680760D02*
D03*
Y692760D02*
D03*
X531635Y409760D02*
D03*
Y627760D02*
D03*
Y639760D02*
D03*
Y651760D02*
D03*
Y663760D02*
D03*
X532635Y381760D02*
D03*
Y393760D02*
D03*
X543635Y627760D02*
D03*
Y639760D02*
D03*
Y651760D02*
D03*
Y663760D02*
D03*
X544635Y381760D02*
D03*
Y393760D02*
D03*
X555635Y627760D02*
D03*
Y639760D02*
D03*
X556635Y381760D02*
D03*
X557635Y653760D02*
D03*
X559635Y726160D02*
D03*
X598635Y707760D02*
D03*
Y723760D02*
D03*
X599635Y637760D02*
D03*
Y653760D02*
D03*
X600635Y483760D02*
D03*
X607635Y707760D02*
D03*
Y723760D02*
D03*
X608635Y668760D02*
D03*
X609635Y641760D02*
D03*
X613635Y623760D02*
D03*
X616635Y399760D02*
D03*
Y411760D02*
D03*
Y423760D02*
D03*
X620635Y533760D02*
D03*
X627635Y511760D02*
D03*
X628635Y411760D02*
D03*
Y423760D02*
D03*
X632635Y521760D02*
D03*
Y533760D02*
D03*
X644635Y521760D02*
D03*
Y533760D02*
D03*
X654635Y680760D02*
D03*
X657635Y702760D02*
D03*
Y714760D02*
D03*
Y726760D02*
D03*
Y738760D02*
D03*
X669635Y702760D02*
D03*
Y714760D02*
D03*
Y726760D02*
D03*
Y738760D02*
D03*
X688635Y428760D02*
D03*
Y440760D02*
D03*
Y452760D02*
D03*
X700635Y440760D02*
D03*
Y452760D02*
D03*
X702635Y638760D02*
D03*
Y652760D02*
D03*
X709635Y658760D02*
D03*
X726635Y734760D02*
D03*
X736635Y681760D02*
D03*
X762635Y606260D02*
D03*
D02*
D106*
X33635Y88760D02*
X47635D01*
X54635Y81760*
X89135Y259760D02*
Y273760D01*
X92135Y276760*
X92635*
X99635Y283760*
X107635*
X114635Y276760*
X142635*
X148635Y282760*
X173635*
X183635Y272760*
Y232760*
X188635Y227760*
Y224760*
X138635Y28560D02*
X152635D01*
X138635Y41260D02*
X152635D01*
X138635Y53960D02*
X152635D01*
X138635Y66760D02*
X145635D01*
Y66660*
X152635*
X138635Y79360D02*
X152635D01*
X138635Y92060D02*
X152635D01*
X138635Y104760D02*
X152635D01*
X138635Y117460D02*
X152635D01*
Y248760D02*
X151635D01*
X148635Y245760*
Y198760*
X151885Y195510*
X158635*
Y150010D02*
X161885D01*
X168635Y156760*
Y181760*
X178585Y191710*
Y191760*
X158635Y165510D02*
X153885D01*
X149635Y169760*
Y190760*
X144635Y195760*
Y233760*
X140635Y237760*
X120745*
X158635Y267760D02*
Y225510D01*
X166635Y41260D02*
X152635D01*
X166635Y53960D02*
X152635D01*
X169635Y526010D02*
X181229D01*
X187017Y531798*
X169635Y541510D02*
Y552760D01*
X177635Y560760*
X246635*
X252635Y566760*
X345635*
X350635Y561760*
X428635*
X432635Y565760*
Y650760*
X440635Y658760*
X475635*
X481635Y664760*
Y713760*
X483635Y715760*
X517235*
X516651Y713410*
X170635Y386010D02*
X181229D01*
X187017Y391798*
X178585Y199760D02*
X173635D01*
X166635Y192760*
Y185760*
X160885Y180010*
X158635*
X178585Y207760D02*
X171885D01*
X169635Y210010*
X158635*
X178585Y215760D02*
X173635D01*
X169635Y219760*
Y271760*
X166635Y274760*
X153635*
X151635Y272760*
Y257760*
X138635Y244760*
X113635*
X112635Y243760*
Y233760*
X140635Y205760*
Y192760*
X145635Y187760*
Y155760*
X140635Y150760*
X131635*
Y150010*
X180635Y224760D02*
X178635D01*
X174635Y228760*
Y272760*
X168635Y278760*
X150635*
X147635Y275760*
Y267760*
X139635Y259760*
X119135*
X184635Y68760D02*
X186635Y66760D01*
Y51760*
X189635Y48760*
X213635*
X191635Y41760D02*
X228635D01*
X231635Y44760*
X275635*
X277635Y46760*
Y52760*
X221635Y48760D02*
Y49760D01*
X216635Y54760*
X198635*
X193635Y59760*
Y68760*
X227635Y54760D02*
X226635D01*
X222635Y58760*
X203635*
X200635Y61760*
Y72760*
X229635Y62760D02*
X214635D01*
X208635Y68760*
Y77760*
X206635Y79760*
X240635Y181760D02*
X238635D01*
X234635Y177760*
Y142260*
X238635Y138260*
X247135*
X244635Y189760D02*
X246635Y187760D01*
Y178760*
X244635Y176760*
Y174760*
X238635Y168760*
Y145760*
X241135Y143260*
X247135*
Y73260D02*
Y73760D01*
X227635*
X214635Y86760*
X180635*
X173135Y94260*
Y167260*
X178635Y172760*
X200635*
X203635Y175760*
Y218760*
X194635Y227760*
Y276510*
X211635Y293510*
X212635*
X247135Y78260D02*
X229135D01*
X216635Y90760*
X184635*
X177635Y97760*
Y163760*
X182635Y168760*
X202635*
X207635Y173760*
Y220760*
X198635Y229760*
Y240760*
X206635Y248760*
Y251510*
X211635Y256510*
X247135Y83260D02*
X230135D01*
X218635Y94760*
X187635*
X181635Y100760*
Y162760*
X183635Y164760*
X205635*
X212635Y171760*
Y223760*
X205635Y230760*
X247135Y108260D02*
X240135D01*
X232635Y100760*
X206635*
X247135Y113260D02*
X237135D01*
X231635Y107760*
X213635*
X256635Y241760D02*
Y236760D01*
X255635Y235760*
Y197760*
X260635Y192760*
Y184760*
X264635Y180760*
X275635*
X277635Y178760*
Y168760*
X267635D02*
X261635D01*
X252635Y177760*
Y190760*
X245635Y197760*
Y209760*
X272635Y168760D02*
Y175760D01*
X271635Y176760*
X260635*
X256635Y180760*
Y191760*
X251635Y196760*
Y235760*
X237435Y249960*
Y263060*
X282635Y168760D02*
Y180760D01*
X278635Y184760*
X265635*
X264635Y185760*
Y193760*
X259635Y198760*
Y231760*
X263635Y235760*
X287635Y52760D02*
Y47760D01*
X280635Y40760*
X234635*
X229635Y35760*
X185635*
X181635Y39760*
Y60760*
X175635Y66760*
Y72760*
X287635Y168760D02*
Y182760D01*
X281635Y188760*
X270635*
X268635Y190760*
Y194760*
X263635Y199760*
Y227760*
X270635Y234760*
Y243760*
X263635Y250760*
Y263060*
X262835*
X292635Y52760D02*
Y46760D01*
X282635Y36760*
X236635*
X229635Y29760*
X192635*
X295635Y205760D02*
Y194760D01*
X302635Y187760*
Y168760*
Y52760D02*
Y46760D01*
X288635Y32760*
X239635*
X229635Y22760*
X187635*
X177635Y32760*
Y58760*
X169635Y66760*
Y129760*
X161635Y137760*
X122635*
X118635Y133760*
X68635*
X55635Y146760*
Y177760*
X44635Y188760*
X33635*
X307635Y52760D02*
Y44760D01*
X290635Y27760*
X241635*
X232635Y18760*
X185635*
X173635Y30760*
Y56760*
X165635Y64760*
Y127760*
X159635Y133760*
X124635*
X119635Y128760*
X63635*
X49635Y142760*
Y173760*
X45635Y177760*
X23635*
X18635Y182760*
Y211760*
X20635Y213760*
X33635*
X307635Y168760D02*
Y205760D01*
X313635Y263060D02*
Y238760D01*
X315635Y236760*
X361635*
X363635Y234760*
Y226760*
X317635Y168760D02*
Y186760D01*
X325635Y194760*
Y216760*
X335635Y226760*
X344635*
X319635Y205760D02*
Y194760D01*
X312635Y187760*
Y168760*
X321635Y243760D02*
Y249760D01*
X326635Y254760*
X331635*
X339635Y262760*
Y263060*
X339035*
X322635Y168760D02*
Y184760D01*
X329635Y191760*
Y214760*
X335635Y220760*
X347635*
X353635Y226760*
X331635Y243760D02*
X352435D01*
X364435Y255760*
Y263060*
X342635Y168760D02*
Y177760D01*
X343635Y178760*
X370635*
X379635Y187760*
Y245760*
X376635Y248760*
Y295760*
X369635Y302760*
X278635*
X264335Y288460*
X262835*
X346635Y193010D02*
Y188760D01*
X344635Y186760*
X338635*
X332635Y180760*
Y168760*
X350635Y386010D02*
X361229D01*
X367017Y391798*
X350635Y401510D02*
Y410760D01*
X352635Y412760*
X464635*
X498635Y446760*
Y477760*
X350635Y526010D02*
X362229D01*
X368017Y531798*
X350635Y541510D02*
Y551760D01*
X353635Y554760*
X427635*
X437635Y564760*
Y634760*
X443635Y640760*
X517235*
X516651Y638410*
X363135Y73260D02*
X369135D01*
X371635Y70760*
Y42760*
X366635Y37760*
X359635*
X363135Y78260D02*
X370635D01*
X375635Y73260*
Y36760*
X370635Y31760*
X367635*
X363135Y83260D02*
X372635D01*
X379635Y76260*
Y29760*
X375635Y25760*
X363135Y88260D02*
X374635D01*
X384635Y78260*
Y21760*
X382635Y19760*
X363635Y193010D02*
Y187760D01*
X358635Y182760*
X341635*
X337635Y178760*
Y168760*
X363635Y226760D02*
Y221760D01*
X358635Y216760*
X337635*
X333635Y212760*
Y189760*
X327635Y183760*
Y168760*
X389835Y263060D02*
X398435D01*
X429135Y293760*
X415289Y531640D02*
Y548414D01*
X417635Y550760*
X431635*
X442635Y561760*
Y624760*
X450635Y632760*
X475635*
X474635Y668760D02*
Y673760D01*
X476635Y675760*
Y719760*
X482635Y725760*
X495635*
X478635Y647760D02*
X490635D01*
X493635Y650760*
X491635Y468760D02*
Y449760D01*
X461635Y419760*
X348635*
X344635Y423760*
X251635*
X241635Y413760*
X175635*
X170635Y408760*
Y401510*
X502635Y665760D02*
X510635D01*
Y663860*
X516651Y663810*
X516585Y505744D02*
X508401D01*
X500385Y513760*
Y529760*
X516635Y415010D02*
Y406760D01*
X522635Y400760*
X539985*
X547985Y408760*
X549985*
X516635Y430510D02*
Y451736D01*
X516585Y451786*
X516651Y738810D02*
X483735Y738860D01*
X469635Y724760*
Y685760*
X470635Y684760*
X529285Y505744D02*
Y514110D01*
X523635Y519760*
X517885*
X514885Y522760*
Y529760*
X541985Y505744D02*
Y515860D01*
X545885Y519760*
Y529760*
X554685Y505744D02*
X575885D01*
Y516760*
X559635Y726160D02*
X570609Y726110D01*
X561385Y529760D02*
X564635D01*
X570635Y535760*
X575885*
X570609Y638410D02*
X574335Y638460D01*
X581635Y645760*
X603635*
X606635Y648760*
Y658760*
X601635Y663760*
Y686760*
X604635Y689760*
X644635*
X647635Y692760*
Y706460*
X642635Y711460*
X636235*
X570609Y651110D02*
X560235Y651160D01*
X557635Y653760*
X575885Y498760D02*
Y516760D01*
X620735Y639410D02*
X611985D01*
X609635Y641760*
X636235Y724160D02*
X633035D01*
X624635Y715760*
X583635*
X581635Y713760*
X570635*
X570609Y713410*
X670735Y513160D02*
X696135D01*
X670735D02*
X668235D01*
X658635Y522760*
Y538760*
X641635Y555760*
X544385*
X530385Y541760*
Y529760*
X670735Y563960D02*
Y563660D01*
X682635Y551760*
X706635*
X710635Y547760*
Y526760*
X715635Y521760*
X732635*
X737635Y516760*
Y473760*
X718635Y454760*
Y410760*
X683635Y375760*
X635135*
X625135Y365760*
Y347760*
X688535Y652110D02*
X701985D01*
X702635Y652760*
X688535Y678110D02*
X657285D01*
X654635Y680760*
X689635Y698760D02*
X698885D01*
X701635Y696010*
X709635*
X696135Y563960D02*
X704435D01*
X716635Y551760*
Y530760*
X719635Y527760*
X736635*
X745635Y518760*
Y472760*
X722635Y449760*
Y405760*
X683635Y366760*
X652135*
X650135Y364760*
Y347760*
X702635Y638760D02*
X692635D01*
Y639410*
X688535*
X709635Y711510D02*
X722385D01*
X732635Y721760*
Y740760*
X717635Y755760*
X692635*
X675635Y772760*
X559135*
X550135Y781760*
Y790260*
X709635Y726010D02*
X721635D01*
Y725760*
X726635Y730760*
Y734760*
X709635Y741510D02*
X702285D01*
X697635Y736860*
X689635*
X0Y0D02*
M02*
