%FSLAX34Y34*%
%MOMM*%
G04 EasyPC Gerber Version 18.0.6 Build 3620 *
%ADD10C,0.12700*%
%ADD82C,0.25000*%
%ADD11C,0.25400*%
%ADD76C,0.30000*%
%ADD105C,0.60000*%
%ADD75C,0.63500*%
%ADD72C,1.21920*%
%ADD14C,1.52400*%
%ADD89C,1.60000*%
%ADD22C,1.70000*%
%ADD83C,3.50000*%
%ADD13C,5.00000*%
X0Y0D02*
D02*
D10*
X387858Y20110D02*
X494285D01*
Y307410*
X6985*
Y20110*
X377412*
G75*
G02X377520Y20876I5221J-345*
G01*
G75*
G02X370704Y27519I-1885J4884*
G01*
G75*
G02X362704Y33519I-3069J4241*
G01*
G75*
G02X359635Y32525I-3069J4240*
G01*
G75*
G02Y42995J5235*
G01*
G75*
G02X364566Y36001J-5235*
G01*
G75*
G02X372566Y30001I3069J-4241*
G01*
G75*
G02X380750Y24644I3069J-4241*
G01*
G75*
G02X387858Y20110I1885J-4884*
G01*
X138635Y23325D02*
G75*
G02Y33795J5235D01*
G01*
G75*
G02Y23325J-5235*
G01*
X301635Y23525D02*
G75*
G02Y33995J5235D01*
G01*
G75*
G02Y23525J-5235*
G01*
X192635Y24525D02*
G75*
G02Y34995J5235D01*
G01*
G75*
G02Y24525J-5235*
G01*
X473635Y28525D02*
G75*
G02Y48995J10235D01*
G01*
G75*
G02Y28525J-10235*
G01*
X33635D02*
G75*
G02Y48995J10235D01*
G01*
G75*
G02Y28525J-10235*
G01*
X166635Y36025D02*
G75*
G02Y46495J5235D01*
G01*
G75*
G02Y36025J-5235*
G01*
X138635D02*
G75*
G02Y46495J5235D01*
G01*
G75*
G02Y36025J-5235*
G01*
X191635Y36525D02*
G75*
G02Y46995J5235D01*
G01*
G75*
G02Y36525J-5235*
G01*
X217635Y45383D02*
G75*
G02X213635Y43525I-4000J3377D01*
G01*
G75*
G02Y53995J5235*
G01*
G75*
G02X217635Y52137J-5235*
G01*
G75*
G02X221635Y53995I4000J-3377*
G01*
G75*
G02X222466Y53929I3J-5232*
G01*
G75*
G02X225506Y59542I5168J830*
G01*
G75*
G02X229635Y67995I4129J3218*
G01*
G75*
G02X231764Y57978J-5235*
G01*
G75*
G02X227635Y49525I-4129J-3218*
G01*
G75*
G02X226804Y49591I-3J5232*
G01*
G75*
G02X217635Y45383I-5169J-831*
G01*
X166635Y48725D02*
G75*
G02Y59195J5235D01*
G01*
G75*
G02Y48725J-5235*
G01*
X138635D02*
G75*
G02Y59195J5235D01*
G01*
G75*
G02Y48725J-5235*
G01*
X473635Y53525D02*
G75*
G02Y73995J10235D01*
G01*
G75*
G02Y53525J-10235*
G01*
X33635D02*
G75*
G02Y73995J10235D01*
G01*
G75*
G02Y53525J-10235*
G01*
X97635Y54525D02*
G75*
G02Y64995J5235D01*
G01*
G75*
G02Y54525J-5235*
G01*
X138635Y61525D02*
G75*
G02Y71995J5235D01*
G01*
G75*
G02Y61525J-5235*
G01*
X189135Y66085D02*
G75*
G02X179414Y69137I-4500J2675D01*
G01*
G75*
G02X175635Y67525I-3779J3624*
G01*
G75*
G02Y77995J5235*
G01*
G75*
G02X180856Y72383J-5235*
G01*
G75*
G02X189135Y71435I3779J-3623*
G01*
G75*
G02X195478Y73660I4500J-2675*
G01*
G75*
G02X201751Y77875I5157J-899*
G01*
G75*
G02X206635Y84995I4884J1885*
G01*
G75*
G02Y74525J-5235*
G01*
G75*
G02X205519Y74645I-2J5233*
G01*
G75*
G02X198792Y67860I-4884J-1885*
G01*
G75*
G02X189135Y66085I-5157J900*
G01*
X138635Y74125D02*
G75*
G02Y84595J5235D01*
G01*
G75*
G02Y74125J-5235*
G01*
X54635Y76525D02*
G75*
G02Y86995J5235D01*
G01*
G75*
G02Y76525J-5235*
G01*
X473635Y78525D02*
G75*
G02Y98995J10235D01*
G01*
G75*
G02Y78525J-10235*
G01*
X33635D02*
G75*
G02Y98995J10235D01*
G01*
G75*
G02Y78525J-10235*
G01*
X97635Y81525D02*
G75*
G02Y91995J5235D01*
G01*
G75*
G02Y81525J-5235*
G01*
X138635Y86825D02*
G75*
G02Y97295J5235D01*
G01*
G75*
G02Y86825J-5235*
G01*
Y99525D02*
G75*
G02Y109995J5235D01*
G01*
G75*
G02Y99525J-5235*
G01*
X211340Y103055D02*
G75*
G02X206635Y95525I-4705J-2295D01*
G01*
G75*
G02Y105995J5235*
G01*
G75*
G02X208930Y105465J-5236*
G01*
G75*
G02X213635Y112995I4705J2295*
G01*
G75*
G02Y102525J-5235*
G01*
G75*
G02X211340Y103055J5236*
G01*
X473635Y103525D02*
G75*
G02Y123995J10235D01*
G01*
G75*
G02Y103525J-10235*
G01*
X33635D02*
G75*
G02Y123995J10235D01*
G01*
G75*
G02Y103525J-10235*
G01*
X58635Y110525D02*
G75*
G02Y120995J5235D01*
G01*
G75*
G02Y110525J-5235*
G01*
X138635Y112225D02*
G75*
G02Y122695J5235D01*
G01*
G75*
G02Y112225J-5235*
G01*
X473635Y128525D02*
G75*
G02Y148995J10235D01*
G01*
G75*
G02Y128525J-10235*
G01*
X33635D02*
G75*
G02Y148995J10235D01*
G01*
G75*
G02Y128525J-10235*
G01*
X447635Y133525D02*
G75*
G02Y143995J5235D01*
G01*
G75*
G02Y133525J-5235*
G01*
X211635Y137525D02*
G75*
G02Y147995J5235D01*
G01*
G75*
G02Y137525J-5235*
G01*
X199635D02*
G75*
G02Y147995J5235D01*
G01*
G75*
G02Y137525J-5235*
G01*
X187635D02*
G75*
G02Y147995J5235D01*
G01*
G75*
G02Y137525J-5235*
G01*
X33635Y152585D02*
G75*
G02Y174935J11175D01*
G01*
G75*
G02Y152585J-11175*
G01*
X473635Y153525D02*
G75*
G02Y173995J10235D01*
G01*
G75*
G02Y153525J-10235*
G01*
X456635Y158525D02*
G75*
G02Y168995J5235D01*
G01*
G75*
G02Y158525J-5235*
G01*
X195635Y177525D02*
G75*
G02Y187995J5235D01*
G01*
G75*
G02Y177525J-5235*
G01*
X473635Y178525D02*
G75*
G02Y198995J10235D01*
G01*
G75*
G02Y178525J-10235*
G01*
X33635D02*
G75*
G02Y198995J10235D01*
G01*
G75*
G02Y178525J-10235*
G01*
X245069Y184543D02*
G75*
G02X240635Y176525I-4434J-2783D01*
G01*
G75*
G02X240201Y186977J5235*
G01*
G75*
G02X244635Y194995I4434J2783*
G01*
G75*
G02X245069Y184543J-5235*
G01*
X447635Y187175D02*
G75*
G02Y197645J5235D01*
G01*
G75*
G02Y187175J-5235*
G01*
X456635Y199875D02*
G75*
G02Y210345J5235D01*
G01*
G75*
G02Y199875J-5235*
G01*
X102635Y202525D02*
G75*
G02Y212995J5235D01*
G01*
G75*
G02Y202525J-5235*
G01*
X473635Y203525D02*
G75*
G02Y223995J10235D01*
G01*
G75*
G02Y203525J-10235*
G01*
X33635D02*
G75*
G02Y223995J10235D01*
G01*
G75*
G02Y203525J-10235*
G01*
X245635Y204525D02*
G75*
G02Y214995J5235D01*
G01*
G75*
G02Y204525J-5235*
G01*
X220635Y206525D02*
G75*
G02Y216995J5235D01*
G01*
G75*
G02Y206525J-5235*
G01*
X102635Y214525D02*
G75*
G02Y224995J5235D01*
G01*
G75*
G02Y214525J-5235*
G01*
X90635D02*
G75*
G02Y224995J5235D01*
G01*
G75*
G02Y214525J-5235*
G01*
X78635D02*
G75*
G02Y224995J5235D01*
G01*
G75*
G02Y214525J-5235*
G01*
X184635Y221383D02*
G75*
G02X180635Y219525I-4000J3377D01*
G01*
G75*
G02Y229995J5235*
G01*
G75*
G02X184635Y228137J-5235*
G01*
G75*
G02X188635Y229995I4000J-3377*
G01*
G75*
G02Y219525J-5235*
G01*
G75*
G02X184635Y221383J5235*
G01*
X349135Y224085D02*
G75*
G02X344635Y221525I-4500J2675D01*
G01*
G75*
G02Y231995J5235*
G01*
G75*
G02X349135Y229435J-5235*
G01*
G75*
G02X358635Y228311I4500J-2675*
G01*
G75*
G02X363635Y231995I5000J-1551*
G01*
G75*
G02Y221525J-5235*
G01*
G75*
G02X358635Y225209J5235*
G01*
G75*
G02X349135Y224085I-5000J1551*
G01*
X205635Y225525D02*
G75*
G02Y235995J5235D01*
G01*
G75*
G02Y225525J-5235*
G01*
X90635Y226525D02*
G75*
G02Y236995J5235D01*
G01*
G75*
G02Y226525J-5235*
G01*
X78635D02*
G75*
G02Y236995J5235D01*
G01*
G75*
G02Y226525J-5235*
G01*
X473635Y227585D02*
G75*
G02Y249935J11175D01*
G01*
G75*
G02Y227585J-11175*
G01*
X33635D02*
G75*
G02Y249935J11175D01*
G01*
G75*
G02Y227585J-11175*
G01*
X279635Y229525D02*
G75*
G02Y239995J5235D01*
G01*
G75*
G02Y229525J-5235*
G01*
X120745Y232525D02*
G75*
G02Y242995J5235D01*
G01*
G75*
G02Y232525J-5235*
G01*
X258520Y236876D02*
G75*
G02X256635Y236525I-1884J4883D01*
G01*
G75*
G02Y246995J5235*
G01*
G75*
G02X261750Y240644J-5235*
G01*
G75*
G02X263635Y240995I1884J-4883*
G01*
G75*
G02Y230525J-5235*
G01*
G75*
G02X258520Y236876J5235*
G01*
X71635Y237525D02*
G75*
G02Y247995J5235D01*
G01*
G75*
G02Y237525J-5235*
G01*
X399635Y240525D02*
G75*
G02Y250995J5235D01*
G01*
G75*
G02Y240525J-5235*
G01*
X326635Y242209D02*
G75*
G02X321635Y238525I-5000J1551D01*
G01*
G75*
G02Y248995J5235*
G01*
G75*
G02X326635Y245311J-5235*
G01*
G75*
G02X331635Y248995I5000J-1551*
G01*
G75*
G02Y238525J-5235*
G01*
G75*
G02X326635Y242209J5235*
G01*
X152635Y243525D02*
G75*
G02Y253995J5235D01*
G01*
G75*
G02Y243525J-5235*
G01*
X211635Y251275D02*
G75*
G02Y261745J5235D01*
G01*
G75*
G02Y251275J-5235*
G01*
X473635Y253525D02*
G75*
G02Y273995J10235D01*
G01*
G75*
G02Y253525J-10235*
G01*
X33635D02*
G75*
G02Y273995J10235D01*
G01*
G75*
G02Y253525J-10235*
G01*
X158635Y262525D02*
G75*
G02Y272995J5235D01*
G01*
G75*
G02Y262525J-5235*
G01*
X400570Y263060D02*
G75*
G02X379100I-10735D01*
G01*
G75*
G02X400570I10735*
G01*
X375170D02*
G75*
G02X353700I-10735D01*
G01*
G75*
G02X375170I10735*
G01*
X349770D02*
G75*
G02X328300I-10735D01*
G01*
G75*
G02X349770I10735*
G01*
X324370D02*
G75*
G02X302900I-10735D01*
G01*
G75*
G02X324370I10735*
G01*
X298970D02*
G75*
G02X277500I-10735D01*
G01*
G75*
G02X298970I10735*
G01*
X273570D02*
G75*
G02X252100I-10735D01*
G01*
G75*
G02X273570I10735*
G01*
X248170D02*
G75*
G02X226700I-10735D01*
G01*
G75*
G02X248170I10735*
G01*
X212635Y288275D02*
G75*
G02Y298745J5235D01*
G01*
G75*
G02Y288275J-5235*
G01*
X401510Y288460D02*
G75*
G02X378160I-11675D01*
G01*
G75*
G02X401510I11675*
G01*
X376110D02*
G75*
G02X352760I-11675D01*
G01*
G75*
G02X376110I11675*
G01*
X349770D02*
G75*
G02X328300I-10735D01*
G01*
G75*
G02X349770I10735*
G01*
X324370D02*
G75*
G02X302900I-10735D01*
G01*
G75*
G02X324370I10735*
G01*
X298970D02*
G75*
G02X277500I-10735D01*
G01*
G75*
G02X298970I10735*
G01*
X273570D02*
G75*
G02X252100I-10735D01*
G01*
G75*
G02X273570I10735*
G01*
X249110D02*
G75*
G02X225760I-11675D01*
G01*
G75*
G02X249110I11675*
G01*
X429135Y288525D02*
G75*
G02Y298995J5235D01*
G01*
G75*
G02Y288525J-5235*
G01*
X6985Y28560D02*
G36*
Y20110D01*
X377412*
G75*
G02X377520Y20876I5221J-345*
G01*
G75*
G02X370704Y27519I-1885J4884*
G01*
G75*
G02X363492Y28560I-3069J4241*
G01*
X306866*
G75*
G02X301635Y23525I-5231J200*
G01*
G75*
G02X296404Y28560J5235*
G01*
X197731*
G75*
G02X192635Y24525I-5096J1200*
G01*
G75*
G02X187539Y28560J5235*
G01*
X143870*
G75*
G02X138635Y23325I-5235*
G01*
G75*
G02X133400Y28560J5235*
G01*
X34481*
G75*
G02X33635Y28525I-846J10199*
G01*
G75*
G02X32789Y28560J10236*
G01*
X6985*
G37*
X32789D02*
G36*
G75*
G02X23710Y41260I846J10200D01*
G01*
X6985*
Y28560*
X32789*
G37*
X133400D02*
G36*
G75*
G02X138635Y33795I5235D01*
G01*
G75*
G02X143870Y28560J-5235*
G01*
X187539*
G75*
G02X192635Y34995I5096J1200*
G01*
G75*
G02X197731Y28560J-5235*
G01*
X296404*
G75*
G02X301635Y33995I5231J200*
G01*
G75*
G02X306866Y28560J-5235*
G01*
X363492*
G75*
G02X362704Y33519I4143J3200*
G01*
G75*
G02X359635Y32525I-3069J4240*
G01*
G75*
G02X355742Y41260J5235*
G01*
X196846*
G75*
G02X191635Y36525I-5211J500*
G01*
G75*
G02X186424Y41260J5235*
G01*
X171870*
G75*
G02X166635Y36025I-5235*
G01*
G75*
G02X161400Y41260J5235*
G01*
X143870*
G75*
G02X138635Y36025I-5235*
G01*
G75*
G02X133400Y41260J5235*
G01*
X43560*
G75*
G02X34481Y28560I-9925J-2500*
G01*
X133400*
G37*
X380058D02*
G36*
G75*
G02X380750Y24644I-4423J-2801D01*
G01*
G75*
G02X387858Y20110I1885J-4884*
G01*
X494285*
Y28560*
X474481*
G75*
G02X473635Y28525I-846J10199*
G01*
G75*
G02X472789Y28560J10236*
G01*
X380058*
G37*
X472789D02*
G36*
G75*
G02X463710Y41260I846J10200D01*
G01*
X363528*
G75*
G02X364566Y36001I-3893J-3500*
G01*
G75*
G02X372566Y30001I3069J-4241*
G01*
G75*
G02X380058Y28560I3069J-4241*
G01*
X472789*
G37*
X494285D02*
G36*
Y41260D01*
X483560*
G75*
G02X474481Y28560I-9925J-2500*
G01*
X494285*
G37*
X23710Y41260D02*
G36*
G75*
G02X33635Y48995I9925J-2500D01*
G01*
G75*
G02X43560Y41260J-10235*
G01*
X133400*
G75*
G02X138635Y46495I5235*
G01*
G75*
G02X143870Y41260J-5235*
G01*
X161400*
G75*
G02X166635Y46495I5235*
G01*
G75*
G02X171870Y41260J-5235*
G01*
X186424*
G75*
G02X191635Y46995I5211J500*
G01*
G75*
G02X196846Y41260J-5235*
G01*
X355742*
G75*
G02X359635Y42995I3893J-3500*
G01*
G75*
G02X363528Y41260J-5235*
G01*
X463710*
G75*
G02X473635Y48995I9925J-2500*
G01*
G75*
G02X483560Y41260J-10235*
G01*
X494285*
Y55760*
X480019*
G75*
G02X473635Y53525I-6384J8000*
G01*
G75*
G02X467251Y55760J10235*
G01*
X232774*
G75*
G02X227635Y49525I-5139J-1000*
G01*
G75*
G02X226804Y49591I-3J5232*
G01*
G75*
G02X217635Y45383I-5169J-831*
G01*
G75*
G02X213635Y43525I-4000J3377*
G01*
G75*
G02Y53995J5235*
G01*
G75*
G02X217635Y52137J-5235*
G01*
G75*
G02X221635Y53995I4000J-3377*
G01*
G75*
G02X222466Y53929I3J-5232*
G01*
G75*
G02X222496Y55760I5168J831*
G01*
X171551*
G75*
G02X166635Y48725I-4916J-1800*
G01*
G75*
G02X161719Y55760J5235*
G01*
X143551*
G75*
G02X138635Y48725I-4916J-1800*
G01*
G75*
G02X133719Y55760J5235*
G01*
X101012*
G75*
G02X97635Y54525I-3377J4000*
G01*
G75*
G02X94258Y55760J5235*
G01*
X40019*
G75*
G02X33635Y53525I-6384J8000*
G01*
G75*
G02X27251Y55760J10235*
G01*
X6985*
Y41260*
X23710*
G37*
X27251Y55760D02*
G36*
G75*
G02X23850Y66760I6384J8000D01*
G01*
X6985*
Y55760*
X27251*
G37*
X94258D02*
G36*
G75*
G02X97635Y64995I3377J4000D01*
G01*
G75*
G02X101012Y55760J-5235*
G01*
X133719*
G75*
G02X138635Y59195I4916J-1800*
G01*
G75*
G02X143551Y55760J-5235*
G01*
X161719*
G75*
G02X166635Y59195I4916J-1800*
G01*
G75*
G02X171551Y55760J-5235*
G01*
X222496*
G75*
G02X225506Y59542I5138J-1001*
G01*
G75*
G02X226258Y66760I4129J3218*
G01*
X198473*
G75*
G02X189135Y66085I-4838J2000*
G01*
G75*
G02X179797Y66760I-4500J2675*
G01*
X143870*
G75*
G02X138635Y61525I-5235*
G01*
G75*
G02X133400Y66760J5235*
G01*
X43420*
G75*
G02X40019Y55760I-9785J-3000*
G01*
X94258*
G37*
X467251D02*
G36*
G75*
G02X463850Y66760I6384J8000D01*
G01*
X233012*
G75*
G02X231764Y57978I-3377J-4000*
G01*
G75*
G02X232774Y55760I-4129J-3219*
G01*
X467251*
G37*
X494285D02*
G36*
Y66760D01*
X483420*
G75*
G02X480019Y55760I-9785J-3000*
G01*
X494285*
G37*
X23850Y66760D02*
G36*
G75*
G02X33635Y73995I9785J-3000D01*
G01*
G75*
G02X43420Y66760J-10235*
G01*
X133400*
G75*
G02X138635Y71995I5235*
G01*
G75*
G02X143870Y66760J-5235*
G01*
X179797*
G75*
G02X179414Y69137I4838J1999*
G01*
G75*
G02X175635Y67525I-3779J3624*
G01*
G75*
G02Y77995J5235*
G01*
G75*
G02X180856Y72383J-5235*
G01*
G75*
G02X189135Y71435I3779J-3623*
G01*
G75*
G02X195478Y73660I4500J-2675*
G01*
G75*
G02X201751Y77875I5157J-899*
G01*
G75*
G02X201415Y79360I4884J1886*
G01*
X143870*
G75*
G02X138635Y74125I-5235*
G01*
G75*
G02X133400Y79360J5235*
G01*
X59287*
G75*
G02X54635Y76525I-4652J2400*
G01*
G75*
G02X49983Y79360J5235*
G01*
X37684*
G75*
G02X33635Y78525I-4049J9400*
G01*
G75*
G02X29586Y79360J10235*
G01*
X6985*
Y66760*
X23850*
G37*
X226258D02*
G36*
G75*
G02X229635Y67995I3377J-4000D01*
G01*
G75*
G02X233012Y66760J-5235*
G01*
X463850*
G75*
G02X473635Y73995I9785J-3000*
G01*
G75*
G02X483420Y66760J-10235*
G01*
X494285*
Y79360*
X477684*
G75*
G02X473635Y78525I-4049J9400*
G01*
G75*
G02X469586Y79360J10235*
G01*
X211855*
G75*
G02X206635Y74525I-5220J400*
G01*
G75*
G02X205519Y74645I-2J5233*
G01*
G75*
G02X198792Y67860I-4884J-1885*
G01*
G75*
G02X198473Y66760I-5157J899*
G01*
X226258*
G37*
X29586Y79360D02*
G36*
G75*
G02X23597Y86760I4049J9400D01*
G01*
X6985*
Y79360*
X29586*
G37*
X49983D02*
G36*
G75*
G02X53084Y86760I4652J2400D01*
G01*
X43673*
G75*
G02X37684Y79360I-10038J2000*
G01*
X49983*
G37*
X133400D02*
G36*
G75*
G02X138635Y84595I5235D01*
G01*
G75*
G02X143870Y79360J-5235*
G01*
X201415*
G75*
G02X206635Y84995I5220J400*
G01*
G75*
G02X211855Y79360J-5235*
G01*
X469586*
G75*
G02X463597Y86760I4049J9400*
G01*
X102870*
G75*
G02X97635Y81525I-5235*
G01*
G75*
G02X92400Y86760J5235*
G01*
X56186*
G75*
G02X59287Y79360I-1551J-5000*
G01*
X133400*
G37*
X494285D02*
G36*
Y86760D01*
X483673*
G75*
G02X477684Y79360I-10038J2000*
G01*
X494285*
G37*
X23597Y86760D02*
G36*
G75*
G02X23947Y92060I10037J1999D01*
G01*
X6985*
Y86760*
X23597*
G37*
X53084D02*
G36*
G75*
G02X54635Y86995I1551J-5000D01*
G01*
G75*
G02X56186Y86760J-5235*
G01*
X92400*
G75*
G02X97635Y91995I5235*
G01*
G75*
G02X102870Y86760J-5235*
G01*
X463597*
G75*
G02X463947Y92060I10037J1999*
G01*
X143870*
G75*
G02X138635Y86825I-5235*
G01*
G75*
G02X133400Y92060J5235*
G01*
X43323*
G75*
G02X43673Y86760I-9688J-3301*
G01*
X53084*
G37*
X494285D02*
G36*
Y92060D01*
X483323*
G75*
G02X483673Y86760I-9688J-3301*
G01*
X494285*
G37*
X23947Y92060D02*
G36*
G75*
G02X33635Y98995I9688J-3300D01*
G01*
G75*
G02X43323Y92060J-10235*
G01*
X133400*
G75*
G02X138635Y97295I5235*
G01*
G75*
G02X143870Y92060J-5235*
G01*
X463947*
G75*
G02X473635Y98995I9688J-3300*
G01*
G75*
G02X483323Y92060J-10235*
G01*
X494285*
Y104760*
X478509*
G75*
G02X473635Y103525I-4874J9000*
G01*
G75*
G02X468761Y104760J10235*
G01*
X217925*
G75*
G02X213635Y102525I-4290J3000*
G01*
G75*
G02X211340Y103055J5236*
G01*
G75*
G02X206635Y95525I-4705J-2295*
G01*
G75*
G02X203258Y104760J5235*
G01*
X143870*
G75*
G02X138635Y99525I-5235*
G01*
G75*
G02X133400Y104760J5235*
G01*
X38509*
G75*
G02X33635Y103525I-4874J9000*
G01*
G75*
G02X28761Y104760J10235*
G01*
X6985*
Y92060*
X23947*
G37*
X28761Y104760D02*
G36*
G75*
G02X23597Y115760I4874J9000D01*
G01*
X6985*
Y104760*
X28761*
G37*
X133400D02*
G36*
G75*
G02X138635Y109995I5235D01*
G01*
G75*
G02X143870Y104760J-5235*
G01*
X203258*
G75*
G02X206635Y105995I3377J-4000*
G01*
G75*
G02X208930Y105465J-5236*
G01*
G75*
G02X213635Y112995I4705J2295*
G01*
G75*
G02X217925Y104760J-5235*
G01*
X468761*
G75*
G02X463597Y115760I4874J9000*
G01*
X143586*
G75*
G02X138635Y112225I-4951J1700*
G01*
G75*
G02X133684Y115760J5235*
G01*
X63870*
G75*
G02X58635Y110525I-5235*
G01*
G75*
G02X53400Y115760J5235*
G01*
X43673*
G75*
G02X38509Y104760I-10038J-2000*
G01*
X133400*
G37*
X494285D02*
G36*
Y115760D01*
X483673*
G75*
G02X478509Y104760I-10038J-2000*
G01*
X494285*
G37*
X23597Y115760D02*
G36*
G75*
G02X33635Y123995I10038J-2000D01*
G01*
G75*
G02X43673Y115760J-10235*
G01*
X53400*
G75*
G02X58635Y120995I5235*
G01*
G75*
G02X63870Y115760J-5235*
G01*
X133684*
G75*
G02X138635Y122695I4951J1700*
G01*
G75*
G02X143586Y115760J-5235*
G01*
X463597*
G75*
G02X473635Y123995I10038J-2000*
G01*
G75*
G02X483673Y115760J-10235*
G01*
X494285*
Y138760*
X483870*
G75*
G02X473635Y128525I-10235*
G01*
G75*
G02X463400Y138760J10235*
G01*
X452870*
G75*
G02X447635Y133525I-5235*
G01*
G75*
G02X442400Y138760J5235*
G01*
X215012*
G75*
G02X211635Y137525I-3377J4000*
G01*
G75*
G02X208258Y138760J5235*
G01*
X203012*
G75*
G02X199635Y137525I-3377J4000*
G01*
G75*
G02X196258Y138760J5235*
G01*
X191012*
G75*
G02X187635Y137525I-3377J4000*
G01*
G75*
G02X184258Y138760J5235*
G01*
X43870*
G75*
G02X33635Y128525I-10235*
G01*
G75*
G02X23400Y138760J10235*
G01*
X6985*
Y115760*
X23597*
G37*
X23400Y138760D02*
G36*
G75*
G02X33635Y148995I10235D01*
G01*
G75*
G02X43870Y138760J-10235*
G01*
X184258*
G75*
G02X187635Y147995I3377J4000*
G01*
G75*
G02X191012Y138760J-5235*
G01*
X196258*
G75*
G02X199635Y147995I3377J4000*
G01*
G75*
G02X203012Y138760J-5235*
G01*
X208258*
G75*
G02X211635Y147995I3377J4000*
G01*
G75*
G02X215012Y138760J-5235*
G01*
X442400*
G75*
G02X447635Y143995I5235*
G01*
G75*
G02X452870Y138760J-5235*
G01*
X463400*
G75*
G02X473635Y148995I10235*
G01*
G75*
G02X483870Y138760J-10235*
G01*
X494285*
Y163760*
X483870*
G75*
G02X473635Y153525I-10235*
G01*
G75*
G02X463400Y163760J10235*
G01*
X461870*
G75*
G02X456635Y158525I-5235*
G01*
G75*
G02X451400Y163760J5235*
G01*
X44810*
G75*
G02X33635Y152585I-11175*
G01*
G75*
G02X22460Y163760J11175*
G01*
X6985*
Y138760*
X23400*
G37*
X22460Y163760D02*
G36*
G75*
G02X33635Y174935I11175D01*
G01*
G75*
G02X44810Y163760J-11175*
G01*
X451400*
G75*
G02X456635Y168995I5235*
G01*
G75*
G02X461870Y163760J-5235*
G01*
X463400*
G75*
G02X473635Y173995I10235*
G01*
G75*
G02X483870Y163760J-10235*
G01*
X494285*
Y182760*
X481927*
G75*
G02X473635Y178525I-8292J6000*
G01*
G75*
G02X465343Y182760J10235*
G01*
X245774*
G75*
G02X240635Y176525I-5139J-1000*
G01*
G75*
G02X235496Y182760J5235*
G01*
X200870*
G75*
G02X195635Y177525I-5235*
G01*
G75*
G02X190400Y182760J5235*
G01*
X41927*
G75*
G02X33635Y178525I-8292J6000*
G01*
G75*
G02X25343Y182760J10235*
G01*
X6985*
Y163760*
X22460*
G37*
X25343Y182760D02*
G36*
G75*
G02X24073Y192410I8292J6000D01*
G01*
X6985*
Y182760*
X25343*
G37*
X190400D02*
G36*
G75*
G02X195635Y187995I5235D01*
G01*
G75*
G02X200870Y182760J-5235*
G01*
X235496*
G75*
G02X240201Y186977I5139J-1000*
G01*
G75*
G02X240120Y192410I4434J2783*
G01*
X43197*
G75*
G02X41927Y182760I-9562J-3650*
G01*
X190400*
G37*
X465343D02*
G36*
G75*
G02X464073Y192410I8292J6000D01*
G01*
X452870*
G75*
G02X447635Y187175I-5235*
G01*
G75*
G02X442400Y192410J5235*
G01*
X249150*
G75*
G02X245069Y184543I-4515J-2650*
G01*
G75*
G02X245774Y182760I-4434J-2784*
G01*
X465343*
G37*
X494285D02*
G36*
Y192410D01*
X483197*
G75*
G02X481927Y182760I-9562J-3650*
G01*
X494285*
G37*
X24073Y192410D02*
G36*
G75*
G02X33635Y198995I9562J-3650D01*
G01*
G75*
G02X43197Y192410J-10235*
G01*
X240120*
G75*
G02X244635Y194995I4515J-2650*
G01*
G75*
G02X249150Y192410J-5235*
G01*
X442400*
G75*
G02X447635Y197645I5235*
G01*
G75*
G02X452870Y192410J-5235*
G01*
X464073*
G75*
G02X473635Y198995I9562J-3650*
G01*
G75*
G02X483197Y192410J-10235*
G01*
X494285*
Y205110*
X479106*
G75*
G02X473635Y203525I-5471J8650*
G01*
G75*
G02X468164Y205110J10235*
G01*
X461870*
G75*
G02X456635Y199875I-5235*
G01*
G75*
G02X451400Y205110J5235*
G01*
X248040*
G75*
G02X245635Y204525I-2405J4650*
G01*
G75*
G02X243230Y205110J5235*
G01*
X107150*
G75*
G02X102635Y202525I-4515J2650*
G01*
G75*
G02X98120Y205110J5235*
G01*
X39106*
G75*
G02X33635Y203525I-5471J8650*
G01*
G75*
G02X28164Y205110J10235*
G01*
X6985*
Y192410*
X24073*
G37*
X28164Y205110D02*
G36*
G75*
G02X23597Y211760I5471J8650D01*
G01*
X6985*
Y205110*
X28164*
G37*
X98120D02*
G36*
G75*
G02X99258Y211760I4515J2650D01*
G01*
X43673*
G75*
G02X39106Y205110I-10038J2000*
G01*
X98120*
G37*
X243230D02*
G36*
G75*
G02X240797Y211760I2405J4650D01*
G01*
X225870*
G75*
G02X220635Y206525I-5235*
G01*
G75*
G02X215400Y211760J5235*
G01*
X106012*
G75*
G02X107150Y205110I-3377J-4000*
G01*
X243230*
G37*
X451400D02*
G36*
G75*
G02X456635Y210345I5235D01*
G01*
G75*
G02X461870Y205110J-5235*
G01*
X468164*
G75*
G02X463597Y211760I5471J8650*
G01*
X250473*
G75*
G02X248040Y205110I-4838J-2000*
G01*
X451400*
G37*
X494285D02*
G36*
Y211760D01*
X483673*
G75*
G02X479106Y205110I-10038J2000*
G01*
X494285*
G37*
X23597Y211760D02*
G36*
G75*
G02X25343Y219760I10038J2000D01*
G01*
X6985*
Y211760*
X23597*
G37*
X99258D02*
G36*
G75*
G02X102635Y212995I3377J-4000D01*
G01*
G75*
G02X106012Y211760J-5235*
G01*
X215400*
G75*
G02X220635Y216995I5235*
G01*
G75*
G02X225870Y211760J-5235*
G01*
X240797*
G75*
G02X245635Y214995I4838J-2000*
G01*
G75*
G02X250473Y211760J-5235*
G01*
X463597*
G75*
G02X465343Y219760I10038J2000*
G01*
X190186*
G75*
G02X188635Y219525I-1551J5000*
G01*
G75*
G02X184635Y221383J5235*
G01*
G75*
G02X180635Y219525I-4000J3377*
G01*
G75*
G02X179084Y219760J5235*
G01*
X107870*
G75*
G02X102635Y214525I-5235*
G01*
G75*
G02X97400Y219760J5235*
G01*
X95870*
G75*
G02X90635Y214525I-5235*
G01*
G75*
G02X85400Y219760J5235*
G01*
X83870*
G75*
G02X78635Y214525I-5235*
G01*
G75*
G02X73400Y219760J5235*
G01*
X41927*
G75*
G02X43673Y211760I-8292J-6000*
G01*
X99258*
G37*
X494285D02*
G36*
Y219760D01*
X481927*
G75*
G02X483673Y211760I-8292J-6000*
G01*
X494285*
G37*
X25343Y219760D02*
G36*
G75*
G02X33635Y223995I8292J-6000D01*
G01*
G75*
G02X41927Y219760J-10235*
G01*
X73400*
G75*
G02X78635Y224995I5235*
G01*
G75*
G02X83870Y219760J-5235*
G01*
X85400*
G75*
G02X90635Y224995I5235*
G01*
G75*
G02X95870Y219760J-5235*
G01*
X97400*
G75*
G02X102635Y224995I5235*
G01*
G75*
G02X107870Y219760J-5235*
G01*
X179084*
G75*
G02X175797Y226760I1551J5000*
G01*
X92186*
G75*
G02X90635Y226525I-1551J5000*
G01*
G75*
G02X89084Y226760J5235*
G01*
X80186*
G75*
G02X78635Y226525I-1551J5000*
G01*
G75*
G02X77084Y226760J5235*
G01*
X6985*
Y219760*
X25343*
G37*
X465343D02*
G36*
G75*
G02X473635Y223995I8292J-6000D01*
G01*
G75*
G02X481927Y219760J-10235*
G01*
X494285*
Y226760*
X368870*
G75*
G02X363635Y221525I-5235*
G01*
G75*
G02X358635Y225209J5235*
G01*
G75*
G02X349135Y224085I-5000J1551*
G01*
G75*
G02X344635Y221525I-4500J2675*
G01*
G75*
G02X339400Y226760J5235*
G01*
X209012*
G75*
G02X205635Y225525I-3377J4000*
G01*
G75*
G02X202258Y226760J5235*
G01*
X193473*
G75*
G02X190186Y219760I-4838J-2000*
G01*
X465343*
G37*
X77084Y226760D02*
G36*
G75*
G02X78635Y236995I1551J5000D01*
G01*
G75*
G02X80186Y226760J-5235*
G01*
X89084*
G75*
G02X90635Y236995I1551J5000*
G01*
G75*
G02X92186Y226760J-5235*
G01*
X175797*
G75*
G02X180635Y229995I4838J-2000*
G01*
G75*
G02X184635Y228137J-5235*
G01*
G75*
G02X188635Y229995I4000J-3377*
G01*
G75*
G02X193473Y226760J-5235*
G01*
X202258*
G75*
G02X205635Y235995I3377J4000*
G01*
G75*
G02X209012Y226760J-5235*
G01*
X339400*
G75*
G02X344635Y231995I5235*
G01*
G75*
G02X349135Y229435J-5235*
G01*
G75*
G02X358635Y228311I4500J-2675*
G01*
G75*
G02X363635Y231995I5000J-1551*
G01*
G75*
G02X368870Y226760J-5235*
G01*
X494285*
Y238760*
X484810*
G75*
G02X473635Y227585I-11175*
G01*
G75*
G02X462460Y238760J11175*
G01*
X333186*
G75*
G02X331635Y238525I-1551J5000*
G01*
G75*
G02X326635Y242209J5235*
G01*
G75*
G02X321635Y238525I-5000J1551*
G01*
G75*
G02X320084Y238760J5235*
G01*
X283012*
G75*
G02X279635Y229525I-3377J-4000*
G01*
G75*
G02X276258Y238760J5235*
G01*
X267925*
G75*
G02X263635Y230525I-4290J-3000*
G01*
G75*
G02X258520Y236876J5235*
G01*
G75*
G02X256635Y236525I-1884J4883*
G01*
G75*
G02X252345Y238760J5235*
G01*
X125884*
G75*
G02X120745Y232525I-5139J-1000*
G01*
G75*
G02X115606Y238760J5235*
G01*
X75012*
G75*
G02X71635Y237525I-3377J4000*
G01*
G75*
G02X68258Y238760J5235*
G01*
X44810*
G75*
G02X33635Y227585I-11175*
G01*
G75*
G02X22460Y238760J11175*
G01*
X6985*
Y226760*
X77084*
G37*
X22460Y238760D02*
G36*
G75*
G02X24924Y245760I11175D01*
G01*
X6985*
Y238760*
X22460*
G37*
X68258D02*
G36*
G75*
G02X67345Y245760I3377J4000D01*
G01*
X42346*
G75*
G02X44810Y238760I-8711J-7000*
G01*
X68258*
G37*
X115606D02*
G36*
G75*
G02X120745Y242995I5139J-1000D01*
G01*
G75*
G02X125884Y238760J-5235*
G01*
X252345*
G75*
G02X253258Y245760I4290J3000*
G01*
X156925*
G75*
G02X152635Y243525I-4290J3000*
G01*
G75*
G02X148345Y245760J5235*
G01*
X75925*
G75*
G02X75012Y238760I-4290J-3000*
G01*
X115606*
G37*
X276258D02*
G36*
G75*
G02X279635Y239995I3377J-4000D01*
G01*
G75*
G02X283012Y238760J-5235*
G01*
X320084*
G75*
G02X316797Y245760I1551J5000*
G01*
X260012*
G75*
G02X261750Y240644I-3377J-4000*
G01*
G75*
G02X263635Y240995I1884J-4883*
G01*
G75*
G02X267925Y238760J-5235*
G01*
X276258*
G37*
X462460D02*
G36*
G75*
G02X464924Y245760I11175D01*
G01*
X404870*
G75*
G02X399635Y240525I-5235*
G01*
G75*
G02X394400Y245760J5235*
G01*
X336473*
G75*
G02X333186Y238760I-4838J-2000*
G01*
X462460*
G37*
X494285D02*
G36*
Y245760D01*
X482346*
G75*
G02X484810Y238760I-8711J-7000*
G01*
X494285*
G37*
X24924Y245760D02*
G36*
G75*
G02X33635Y249935I8711J-7000D01*
G01*
G75*
G02X42346Y245760J-11175*
G01*
X67345*
G75*
G02X71635Y247995I4290J-3000*
G01*
G75*
G02X75925Y245760J-5235*
G01*
X148345*
G75*
G02X152635Y253995I4290J3000*
G01*
G75*
G02X156925Y245760J-5235*
G01*
X253258*
G75*
G02X256635Y246995I3377J-4000*
G01*
G75*
G02X260012Y245760J-5235*
G01*
X316797*
G75*
G02X321635Y248995I4838J-2000*
G01*
G75*
G02X326635Y245311J-5235*
G01*
G75*
G02X331635Y248995I5000J-1551*
G01*
G75*
G02X336473Y245760J-5235*
G01*
X394400*
G75*
G02X399635Y250995I5235*
G01*
G75*
G02X404870Y245760J-5235*
G01*
X464924*
G75*
G02X473635Y249935I8711J-7000*
G01*
G75*
G02X482346Y245760J-11175*
G01*
X494285*
Y256510*
X480859*
G75*
G02X473635Y253525I-7224J7250*
G01*
G75*
G02X466411Y256510J10235*
G01*
X398340*
G75*
G02X381330I-8505J6550*
G01*
X372940*
G75*
G02X355930I-8505J6550*
G01*
X347540*
G75*
G02X330530I-8505J6550*
G01*
X322140*
G75*
G02X305130I-8505J6550*
G01*
X296740*
G75*
G02X279730I-8505J6550*
G01*
X271340*
G75*
G02X254330I-8505J6550*
G01*
X245940*
G75*
G02X228930I-8505J6550*
G01*
X216870*
G75*
G02X211635Y251275I-5235*
G01*
G75*
G02X206400Y256510J5235*
G01*
X40859*
G75*
G02X33635Y253525I-7224J7250*
G01*
G75*
G02X26411Y256510J10235*
G01*
X6985*
Y245760*
X24924*
G37*
X26411Y256510D02*
G36*
G75*
G02X24214Y267760I7224J7250D01*
G01*
X6985*
Y256510*
X26411*
G37*
X206400D02*
G36*
G75*
G02X211635Y261745I5235D01*
G01*
G75*
G02X216870Y256510J-5235*
G01*
X228930*
G75*
G02X226700Y263060I8505J6550*
G01*
G75*
G02X227784Y267760I10735J-1*
G01*
X163870*
G75*
G02X158635Y262525I-5235*
G01*
G75*
G02X153400Y267760J5235*
G01*
X43056*
G75*
G02X40859Y256510I-9421J-4000*
G01*
X206400*
G37*
X254330D02*
G36*
G75*
G02X252100Y263060I8505J6550D01*
G01*
G75*
G02X253184Y267760I10735J-1*
G01*
X247086*
G75*
G02X248170Y263060I-9651J-4701*
G01*
G75*
G02X245940Y256510I-10735*
G01*
X254330*
G37*
X279730D02*
G36*
G75*
G02X277500Y263060I8505J6550D01*
G01*
G75*
G02X278584Y267760I10735J-1*
G01*
X272486*
G75*
G02X273570Y263060I-9651J-4701*
G01*
G75*
G02X271340Y256510I-10735*
G01*
X279730*
G37*
X305130D02*
G36*
G75*
G02X302900Y263060I8505J6550D01*
G01*
G75*
G02X303984Y267760I10735J-1*
G01*
X297886*
G75*
G02X298970Y263060I-9651J-4701*
G01*
G75*
G02X296740Y256510I-10735*
G01*
X305130*
G37*
X330530D02*
G36*
G75*
G02X328300Y263060I8505J6550D01*
G01*
G75*
G02X329384Y267760I10735J-1*
G01*
X323286*
G75*
G02X324370Y263060I-9651J-4701*
G01*
G75*
G02X322140Y256510I-10735*
G01*
X330530*
G37*
X355930D02*
G36*
G75*
G02X353700Y263060I8505J6550D01*
G01*
G75*
G02X354784Y267760I10735J-1*
G01*
X348686*
G75*
G02X349770Y263060I-9651J-4701*
G01*
G75*
G02X347540Y256510I-10735*
G01*
X355930*
G37*
X381330D02*
G36*
G75*
G02X379100Y263060I8505J6550D01*
G01*
G75*
G02X380184Y267760I10735J-1*
G01*
X374086*
G75*
G02X375170Y263060I-9651J-4701*
G01*
G75*
G02X372940Y256510I-10735*
G01*
X381330*
G37*
X466411D02*
G36*
G75*
G02X464214Y267760I7224J7250D01*
G01*
X399486*
G75*
G02X400570Y263060I-9651J-4701*
G01*
G75*
G02X398340Y256510I-10735*
G01*
X466411*
G37*
X494285D02*
G36*
Y267760D01*
X483056*
G75*
G02X480859Y256510I-9421J-4000*
G01*
X494285*
G37*
X24214Y267760D02*
G36*
G75*
G02X33635Y273995I9421J-4000D01*
G01*
G75*
G02X43056Y267760J-10235*
G01*
X153400*
G75*
G02X158635Y272995I5235*
G01*
G75*
G02X163870Y267760J-5235*
G01*
X227784*
G75*
G02X247086I9651J-4700*
G01*
X253184*
G75*
G02X272486I9651J-4700*
G01*
X278584*
G75*
G02X297886I9651J-4700*
G01*
X303984*
G75*
G02X323286I9651J-4700*
G01*
X329384*
G75*
G02X348686I9651J-4700*
G01*
X354784*
G75*
G02X374086I9651J-4700*
G01*
X380184*
G75*
G02X399486I9651J-4700*
G01*
X464214*
G75*
G02X473635Y273995I9421J-4000*
G01*
G75*
G02X483056Y267760J-10235*
G01*
X494285*
Y293510*
X434364*
G75*
G02X429135Y288525I-5229J250*
G01*
G75*
G02X423906Y293510J5235*
G01*
X400361*
G75*
G02X401510Y288460I-10526J-5051*
G01*
G75*
G02X378160I-11675*
G01*
G75*
G02X379309Y293510I11674J-1*
G01*
X374961*
G75*
G02X376110Y288460I-10526J-5051*
G01*
G75*
G02X352760I-11675*
G01*
G75*
G02X353909Y293510I11674J-1*
G01*
X348508*
G75*
G02X349770Y288460I-9473J-5050*
G01*
G75*
G02X328300I-10735*
G01*
G75*
G02X329562Y293510I10735*
G01*
X323108*
G75*
G02X324370Y288460I-9473J-5050*
G01*
G75*
G02X302900I-10735*
G01*
G75*
G02X304162Y293510I10735*
G01*
X297708*
G75*
G02X298970Y288460I-9473J-5050*
G01*
G75*
G02X277500I-10735*
G01*
G75*
G02X278762Y293510I10735*
G01*
X272308*
G75*
G02X273570Y288460I-9473J-5050*
G01*
G75*
G02X252100I-10735*
G01*
G75*
G02X253362Y293510I10735*
G01*
X247961*
G75*
G02X249110Y288460I-10526J-5051*
G01*
G75*
G02X225760I-11675*
G01*
G75*
G02X226909Y293510I11674J-1*
G01*
X217870*
G75*
G02X212635Y288275I-5235*
G01*
G75*
G02X207400Y293510J5235*
G01*
X6985*
Y267760*
X24214*
G37*
X207400Y293510D02*
G36*
G75*
G02X212635Y298745I5235D01*
G01*
G75*
G02X217870Y293510J-5235*
G01*
X226909*
G75*
G02X247961I10526J-5050*
G01*
X253362*
G75*
G02X272308I9473J-5050*
G01*
X278762*
G75*
G02X297708I9473J-5050*
G01*
X304162*
G75*
G02X323108I9473J-5050*
G01*
X329562*
G75*
G02X348508I9473J-5050*
G01*
X353909*
G75*
G02X374961I10526J-5050*
G01*
X379309*
G75*
G02X400361I10526J-5050*
G01*
X423906*
G75*
G02X429135Y298995I5229J250*
G01*
G75*
G02X434364Y293510J-5235*
G01*
X494285*
Y307410*
X6985*
Y293510*
X207400*
G37*
X412635Y807410D02*
X6985D01*
Y320110*
X510635*
Y417760*
X477635Y450760*
Y620760*
X444635Y653760*
Y685760*
X457635Y698760*
X444635Y711760*
Y718760*
X412635Y750760*
Y807410*
X71635Y514025D02*
G75*
G02Y553495J19735D01*
G01*
G75*
G02Y514025J-19735*
G01*
Y576025D02*
G75*
G02Y615495J19735D01*
G01*
G75*
G02Y576025J-19735*
G01*
Y638025D02*
G75*
G02Y677495J19735D01*
G01*
G75*
G02Y638025J-19735*
G01*
X93400Y589760D02*
G75*
G02X103870I5235D01*
G01*
G75*
G02X93400I-5235*
G01*
Y601760D02*
G75*
G02X103870I5235D01*
G01*
G75*
G02X93400I-5235*
G01*
Y613760D02*
G75*
G02X103870I5235D01*
G01*
G75*
G02X93400I-5235*
G01*
X94400Y505760D02*
G75*
G02X104870I5235D01*
G01*
G75*
G02X94400I-5235*
G01*
Y517760D02*
G75*
G02X104870I5235D01*
G01*
G75*
G02X94400I-5235*
G01*
Y529760D02*
G75*
G02X104870I5235D01*
G01*
G75*
G02X94400I-5235*
G01*
X105400Y589760D02*
G75*
G02X115870I5235D01*
G01*
G75*
G02X105400I-5235*
G01*
Y601760D02*
G75*
G02X115870I5235D01*
G01*
G75*
G02X105400I-5235*
G01*
Y613760D02*
G75*
G02X115870I5235D01*
G01*
G75*
G02X105400I-5235*
G01*
X106400Y505760D02*
G75*
G02X116870I5235D01*
G01*
G75*
G02X106400I-5235*
G01*
Y517760D02*
G75*
G02X116870I5235D01*
G01*
G75*
G02X106400I-5235*
G01*
Y529760D02*
G75*
G02X116870I5235D01*
G01*
G75*
G02X106400I-5235*
G01*
X117400Y577760D02*
G75*
G02X127870I5235D01*
G01*
G75*
G02X117400I-5235*
G01*
Y589760D02*
G75*
G02X127870I5235D01*
G01*
G75*
G02X117400I-5235*
G01*
Y601760D02*
G75*
G02X127870I5235D01*
G01*
G75*
G02X117400I-5235*
G01*
Y613760D02*
G75*
G02X127870I5235D01*
G01*
G75*
G02X117400I-5235*
G01*
X118400Y505760D02*
G75*
G02X128870I5235D01*
G01*
G75*
G02X118400I-5235*
G01*
Y517760D02*
G75*
G02X128870I5235D01*
G01*
G75*
G02X118400I-5235*
G01*
Y529760D02*
G75*
G02X128870I5235D01*
G01*
G75*
G02X118400I-5235*
G01*
Y541760D02*
G75*
G02X128870I5235D01*
G01*
G75*
G02X118400I-5235*
G01*
Y553760D02*
G75*
G02X128870I5235D01*
G01*
G75*
G02X118400I-5235*
G01*
X129400Y577760D02*
G75*
G02X139870I5235D01*
G01*
G75*
G02X129400I-5235*
G01*
Y589760D02*
G75*
G02X139870I5235D01*
G01*
G75*
G02X129400I-5235*
G01*
Y601760D02*
G75*
G02X139870I5235D01*
G01*
G75*
G02X129400I-5235*
G01*
Y613760D02*
G75*
G02X139870I5235D01*
G01*
G75*
G02X129400I-5235*
G01*
X130400Y493760D02*
G75*
G02X140870I5235D01*
G01*
G75*
G02X130400I-5235*
G01*
Y505760D02*
G75*
G02X140870I5235D01*
G01*
G75*
G02X130400I-5235*
G01*
Y517760D02*
G75*
G02X140870I5235D01*
G01*
G75*
G02X130400I-5235*
G01*
Y529760D02*
G75*
G02X140870I5235D01*
G01*
G75*
G02X130400I-5235*
G01*
Y541760D02*
G75*
G02X140870I5235D01*
G01*
G75*
G02X130400I-5235*
G01*
Y553760D02*
G75*
G02X140870I5235D01*
G01*
G75*
G02X130400I-5235*
G01*
X141400Y577760D02*
G75*
G02X151870I5235D01*
G01*
G75*
G02X141400I-5235*
G01*
Y589760D02*
G75*
G02X151870I5235D01*
G01*
G75*
G02X141400I-5235*
G01*
Y601760D02*
G75*
G02X151870I5235D01*
G01*
G75*
G02X141400I-5235*
G01*
Y613760D02*
G75*
G02X151870I5235D01*
G01*
G75*
G02X141400I-5235*
G01*
X142400Y493760D02*
G75*
G02X152870I5235D01*
G01*
G75*
G02X142400I-5235*
G01*
Y505760D02*
G75*
G02X152870I5235D01*
G01*
G75*
G02X142400I-5235*
G01*
Y517760D02*
G75*
G02X152870I5235D01*
G01*
G75*
G02X142400I-5235*
G01*
Y529760D02*
G75*
G02X152870I5235D01*
G01*
G75*
G02X142400I-5235*
G01*
Y541760D02*
G75*
G02X152870I5235D01*
G01*
G75*
G02X142400I-5235*
G01*
Y553760D02*
G75*
G02X152870I5235D01*
G01*
G75*
G02X142400I-5235*
G01*
X165400Y657760D02*
G75*
G02X175870I5235D01*
G01*
G75*
G02X165400I-5235*
G01*
Y669760D02*
G75*
G02X175870I5235D01*
G01*
G75*
G02X165400I-5235*
G01*
Y681760D02*
G75*
G02X175870I5235D01*
G01*
G75*
G02X165400I-5235*
G01*
Y693760D02*
G75*
G02X175870I5235D01*
G01*
G75*
G02X165400I-5235*
G01*
X176400Y508760D02*
G75*
G02X186870I5235D01*
G01*
G75*
G02X176400I-5235*
G01*
X177400Y657760D02*
G75*
G02X187870I5235D01*
G01*
G75*
G02X177400I-5235*
G01*
Y669760D02*
G75*
G02X187870I5235D01*
G01*
G75*
G02X177400I-5235*
G01*
Y681760D02*
G75*
G02X187870I5235D01*
G01*
G75*
G02X177400I-5235*
G01*
Y693760D02*
G75*
G02X187870I5235D01*
G01*
G75*
G02X177400I-5235*
G01*
X188400Y508760D02*
G75*
G02X198870I5235D01*
G01*
G75*
G02X188400I-5235*
G01*
X200400D02*
G75*
G02X210870I5235D01*
G01*
G75*
G02X200400I-5235*
G01*
X216400D02*
G75*
G02X226870I5235D01*
G01*
G75*
G02X216400I-5235*
G01*
X228400D02*
G75*
G02X238870I5235D01*
G01*
G75*
G02X228400I-5235*
G01*
X235400Y657760D02*
G75*
G02X245870I5235D01*
G01*
G75*
G02X235400I-5235*
G01*
Y669760D02*
G75*
G02X245870I5235D01*
G01*
G75*
G02X235400I-5235*
G01*
Y681760D02*
G75*
G02X245870I5235D01*
G01*
G75*
G02X235400I-5235*
G01*
Y693760D02*
G75*
G02X245870I5235D01*
G01*
G75*
G02X235400I-5235*
G01*
X240400Y508760D02*
G75*
G02X250870I5235D01*
G01*
G75*
G02X240400I-5235*
G01*
X247400Y657760D02*
G75*
G02X257870I5235D01*
G01*
G75*
G02X247400I-5235*
G01*
Y669760D02*
G75*
G02X257870I5235D01*
G01*
G75*
G02X247400I-5235*
G01*
Y681760D02*
G75*
G02X257870I5235D01*
G01*
G75*
G02X247400I-5235*
G01*
Y693760D02*
G75*
G02X257870I5235D01*
G01*
G75*
G02X247400I-5235*
G01*
X248400Y585760D02*
G75*
G02X258870I5235D01*
G01*
G75*
G02X248400I-5235*
G01*
X258400Y488760D02*
G75*
G02X268870I5235D01*
G01*
G75*
G02X258400I-5235*
G01*
Y500760D02*
G75*
G02X268870I5235D01*
G01*
G75*
G02X258400I-5235*
G01*
Y512760D02*
G75*
G02X268870I5235D01*
G01*
G75*
G02X258400I-5235*
G01*
Y524760D02*
G75*
G02X268870I5235D01*
G01*
G75*
G02X258400I-5235*
G01*
Y536760D02*
G75*
G02X268870I5235D01*
G01*
G75*
G02X258400I-5235*
G01*
X270400Y488760D02*
G75*
G02X280870I5235D01*
G01*
G75*
G02X270400I-5235*
G01*
Y500760D02*
G75*
G02X280870I5235D01*
G01*
G75*
G02X270400I-5235*
G01*
Y512760D02*
G75*
G02X280870I5235D01*
G01*
G75*
G02X270400I-5235*
G01*
Y524760D02*
G75*
G02X280870I5235D01*
G01*
G75*
G02X270400I-5235*
G01*
Y536760D02*
G75*
G02X280870I5235D01*
G01*
G75*
G02X270400I-5235*
G01*
X282400Y488760D02*
G75*
G02X292870I5235D01*
G01*
G75*
G02X282400I-5235*
G01*
Y500760D02*
G75*
G02X292870I5235D01*
G01*
G75*
G02X282400I-5235*
G01*
Y512760D02*
G75*
G02X292870I5235D01*
G01*
G75*
G02X282400I-5235*
G01*
Y524760D02*
G75*
G02X292870I5235D01*
G01*
G75*
G02X282400I-5235*
G01*
Y536760D02*
G75*
G02X292870I5235D01*
G01*
G75*
G02X282400I-5235*
G01*
X302400Y488760D02*
G75*
G02X312870I5235D01*
G01*
G75*
G02X302400I-5235*
G01*
Y500760D02*
G75*
G02X312870I5235D01*
G01*
G75*
G02X302400I-5235*
G01*
Y512760D02*
G75*
G02X312870I5235D01*
G01*
G75*
G02X302400I-5235*
G01*
Y524760D02*
G75*
G02X312870I5235D01*
G01*
G75*
G02X302400I-5235*
G01*
Y536760D02*
G75*
G02X312870I5235D01*
G01*
G75*
G02X302400I-5235*
G01*
X305400Y657760D02*
G75*
G02X315870I5235D01*
G01*
G75*
G02X305400I-5235*
G01*
Y669760D02*
G75*
G02X315870I5235D01*
G01*
G75*
G02X305400I-5235*
G01*
Y681760D02*
G75*
G02X315870I5235D01*
G01*
G75*
G02X305400I-5235*
G01*
Y693760D02*
G75*
G02X315870I5235D01*
G01*
G75*
G02X305400I-5235*
G01*
X314400Y488760D02*
G75*
G02X324870I5235D01*
G01*
G75*
G02X314400I-5235*
G01*
Y500760D02*
G75*
G02X324870I5235D01*
G01*
G75*
G02X314400I-5235*
G01*
Y512760D02*
G75*
G02X324870I5235D01*
G01*
G75*
G02X314400I-5235*
G01*
Y524760D02*
G75*
G02X324870I5235D01*
G01*
G75*
G02X314400I-5235*
G01*
Y536760D02*
G75*
G02X324870I5235D01*
G01*
G75*
G02X314400I-5235*
G01*
X317400Y657760D02*
G75*
G02X327870I5235D01*
G01*
G75*
G02X317400I-5235*
G01*
Y669760D02*
G75*
G02X327870I5235D01*
G01*
G75*
G02X317400I-5235*
G01*
Y681760D02*
G75*
G02X327870I5235D01*
G01*
G75*
G02X317400I-5235*
G01*
Y693760D02*
G75*
G02X327870I5235D01*
G01*
G75*
G02X317400I-5235*
G01*
X326400Y488760D02*
G75*
G02X336870I5235D01*
G01*
G75*
G02X326400I-5235*
G01*
Y500760D02*
G75*
G02X336870I5235D01*
G01*
G75*
G02X326400I-5235*
G01*
Y512760D02*
G75*
G02X336870I5235D01*
G01*
G75*
G02X326400I-5235*
G01*
Y524760D02*
G75*
G02X336870I5235D01*
G01*
G75*
G02X326400I-5235*
G01*
Y536760D02*
G75*
G02X336870I5235D01*
G01*
G75*
G02X326400I-5235*
G01*
X342400Y585760D02*
G75*
G02X352870I5235D01*
G01*
G75*
G02X342400I-5235*
G01*
X345400Y508760D02*
G75*
G02X355870I5235D01*
G01*
G75*
G02X345400I-5235*
G01*
X357400D02*
G75*
G02X367870I5235D01*
G01*
G75*
G02X357400I-5235*
G01*
X365400Y657760D02*
G75*
G02X375870I5235D01*
G01*
G75*
G02X365400I-5235*
G01*
Y669760D02*
G75*
G02X375870I5235D01*
G01*
G75*
G02X365400I-5235*
G01*
Y681760D02*
G75*
G02X375870I5235D01*
G01*
G75*
G02X365400I-5235*
G01*
Y693760D02*
G75*
G02X375870I5235D01*
G01*
G75*
G02X365400I-5235*
G01*
X369400Y508760D02*
G75*
G02X379870I5235D01*
G01*
G75*
G02X369400I-5235*
G01*
X377400Y657760D02*
G75*
G02X387870I5235D01*
G01*
G75*
G02X377400I-5235*
G01*
Y669760D02*
G75*
G02X387870I5235D01*
G01*
G75*
G02X377400I-5235*
G01*
Y681760D02*
G75*
G02X387870I5235D01*
G01*
G75*
G02X377400I-5235*
G01*
Y693760D02*
G75*
G02X387870I5235D01*
G01*
G75*
G02X377400I-5235*
G01*
X385400Y508760D02*
G75*
G02X395870I5235D01*
G01*
G75*
G02X385400I-5235*
G01*
X397400D02*
G75*
G02X407870I5235D01*
G01*
G75*
G02X397400I-5235*
G01*
X409400D02*
G75*
G02X419870I5235D01*
G01*
G75*
G02X409400I-5235*
G01*
X453400Y557760D02*
G75*
G02X463870I5235D01*
G01*
G75*
G02X453400I-5235*
G01*
Y569760D02*
G75*
G02X463870I5235D01*
G01*
G75*
G02X453400I-5235*
G01*
Y581760D02*
G75*
G02X463870I5235D01*
G01*
G75*
G02X453400I-5235*
G01*
Y593760D02*
G75*
G02X463870I5235D01*
G01*
G75*
G02X453400I-5235*
G01*
X465400Y557760D02*
G75*
G02X475870I5235D01*
G01*
G75*
G02X465400I-5235*
G01*
Y569760D02*
G75*
G02X475870I5235D01*
G01*
G75*
G02X465400I-5235*
G01*
Y581760D02*
G75*
G02X475870I5235D01*
G01*
G75*
G02X465400I-5235*
G01*
Y593760D02*
G75*
G02X475870I5235D01*
G01*
G75*
G02X465400I-5235*
G01*
X6985Y533760D02*
G36*
Y524760D01*
X54072*
G75*
G02X51900Y533760I17562J9000*
G01*
X6985*
G37*
X51900D02*
G36*
G75*
G02X53594Y541760I19734J1D01*
G01*
X6985*
Y533760*
X51900*
G37*
X91370D02*
G36*
G75*
G02X89198Y524760I-19735J1D01*
G01*
X98084*
G75*
G02X94400Y529760I1551J5000*
G01*
G75*
G02X96258Y533760I5235*
G01*
X91370*
G37*
X96258D02*
G36*
G75*
G02X103012I3377J-4000D01*
G01*
X108258*
G75*
G02X115012I3377J-4000*
G01*
X120258*
G75*
G02X127012I3377J-4000*
G01*
X132258*
G75*
G02X139012I3377J-4000*
G01*
X144258*
G75*
G02X151012I3377J-4000*
G01*
X259345*
G75*
G02X258400Y536760I4290J3000*
G01*
G75*
G02X262084Y541760I5235*
G01*
X152870*
G75*
G02X142400I-5235*
G01*
X140870*
G75*
G02X130400I-5235*
G01*
X128870*
G75*
G02X118400I-5235*
G01*
X89676*
G75*
G02X91370Y533760I-18041J-8000*
G01*
X96258*
G37*
X103012D02*
G36*
G75*
G02X104870Y529760I-3377J-4000D01*
G01*
G75*
G02X101186Y524760I-5235*
G01*
X110084*
G75*
G02X106400Y529760I1551J5000*
G01*
G75*
G02X108258Y533760I5235*
G01*
X103012*
G37*
X115012D02*
G36*
G75*
G02X116870Y529760I-3377J-4000D01*
G01*
G75*
G02X113186Y524760I-5235*
G01*
X122084*
G75*
G02X118400Y529760I1551J5000*
G01*
G75*
G02X120258Y533760I5235*
G01*
X115012*
G37*
X127012D02*
G36*
G75*
G02X128870Y529760I-3377J-4000D01*
G01*
G75*
G02X125186Y524760I-5235*
G01*
X134084*
G75*
G02X130400Y529760I1551J5000*
G01*
G75*
G02X132258Y533760I5235*
G01*
X127012*
G37*
X139012D02*
G36*
G75*
G02X140870Y529760I-3377J-4000D01*
G01*
G75*
G02X137186Y524760I-5235*
G01*
X146084*
G75*
G02X142400Y529760I1551J5000*
G01*
G75*
G02X144258Y533760I5235*
G01*
X139012*
G37*
X151012D02*
G36*
G75*
G02X152870Y529760I-3377J-4000D01*
G01*
G75*
G02X149186Y524760I-5235*
G01*
X258400*
G75*
G02X268870I5235*
G01*
X270400*
G75*
G02X280870I5235*
G01*
X282400*
G75*
G02X292870I5235*
G01*
X302400*
G75*
G02X312870I5235*
G01*
X314400*
G75*
G02X324870I5235*
G01*
X326400*
G75*
G02X336870I5235*
G01*
X477635*
Y533760*
X335925*
G75*
G02X327345I-4290J3000*
G01*
X323925*
G75*
G02X315345I-4290J3000*
G01*
X311925*
G75*
G02X303345I-4290J3000*
G01*
X291925*
G75*
G02X283345I-4290J3000*
G01*
X279925*
G75*
G02X271345I-4290J3000*
G01*
X267925*
G75*
G02X259345I-4290J3000*
G01*
X151012*
G37*
X271345D02*
G36*
G75*
G02X270400Y536760I4290J3000D01*
G01*
G75*
G02X274084Y541760I5235*
G01*
X265186*
G75*
G02X268870Y536760I-1551J-5000*
G01*
G75*
G02X267925Y533760I-5235*
G01*
X271345*
G37*
X283345D02*
G36*
G75*
G02X282400Y536760I4290J3000D01*
G01*
G75*
G02X286084Y541760I5235*
G01*
X277186*
G75*
G02X280870Y536760I-1551J-5000*
G01*
G75*
G02X279925Y533760I-5235*
G01*
X283345*
G37*
X303345D02*
G36*
G75*
G02X302400Y536760I4290J3000D01*
G01*
G75*
G02X306084Y541760I5235*
G01*
X289186*
G75*
G02X292870Y536760I-1551J-5000*
G01*
G75*
G02X291925Y533760I-5235*
G01*
X303345*
G37*
X315345D02*
G36*
G75*
G02X314400Y536760I4290J3000D01*
G01*
G75*
G02X318084Y541760I5235*
G01*
X309186*
G75*
G02X312870Y536760I-1551J-5000*
G01*
G75*
G02X311925Y533760I-5235*
G01*
X315345*
G37*
X327345D02*
G36*
G75*
G02X326400Y536760I4290J3000D01*
G01*
G75*
G02X330084Y541760I5235*
G01*
X321186*
G75*
G02X324870Y536760I-1551J-5000*
G01*
G75*
G02X323925Y533760I-5235*
G01*
X327345*
G37*
X477635D02*
G36*
Y541760D01*
X333186*
G75*
G02X336870Y536760I-1551J-5000*
G01*
G75*
G02X335925Y533760I-5235*
G01*
X477635*
G37*
X6985Y595760D02*
G36*
Y589760D01*
X52834*
G75*
G02X51900Y595760I18801J5999*
G01*
X6985*
G37*
X51900D02*
G36*
G75*
G02X52834Y601760I19735J1D01*
G01*
X6985*
Y595760*
X51900*
G37*
X91370D02*
G36*
G75*
G02X90436Y589760I-19736J-1D01*
G01*
X93400*
G75*
G02X103870I5235*
G01*
X105400*
G75*
G02X115870I5235*
G01*
X117400*
G75*
G02X127870I5235*
G01*
X129400*
G75*
G02X139870I5235*
G01*
X141400*
G75*
G02X151870I5235*
G01*
X250258*
G75*
G02X257012I3377J-4000*
G01*
X344258*
G75*
G02X351012I3377J-4000*
G01*
X455258*
G75*
G02X453400Y593760I3377J4000*
G01*
G75*
G02X453797Y595760I5235*
G01*
X91370*
G37*
X453797D02*
G36*
G75*
G02X463473I4838J-2000D01*
G01*
X465797*
G75*
G02X475473I4838J-2000*
G01*
X477635*
Y601760*
X151870*
G75*
G02X141400I-5235*
G01*
X139870*
G75*
G02X129400I-5235*
G01*
X127870*
G75*
G02X117400I-5235*
G01*
X115870*
G75*
G02X105400I-5235*
G01*
X103870*
G75*
G02X93400I-5235*
G01*
X90436*
G75*
G02X91370Y595760I-18802J-5999*
G01*
X453797*
G37*
X463473D02*
G36*
G75*
G02X463870Y593760I-4838J-2000D01*
G01*
G75*
G02X462012Y589760I-5235*
G01*
X467258*
G75*
G02X465400Y593760I3377J4000*
G01*
G75*
G02X465797Y595760I5235*
G01*
X463473*
G37*
X475473D02*
G36*
G75*
G02X475870Y593760I-4838J-2000D01*
G01*
G75*
G02X474012Y589760I-5235*
G01*
X477635*
Y595760*
X475473*
G37*
X6985Y657760D02*
G36*
Y613760D01*
X63544*
G75*
G02X71635Y615495I8092J-18001*
G01*
G75*
G02X79726Y613760J-19735*
G01*
X93400*
G75*
G02X103870I5235*
G01*
X105400*
G75*
G02X115870I5235*
G01*
X117400*
G75*
G02X127870I5235*
G01*
X129400*
G75*
G02X139870I5235*
G01*
X141400*
G75*
G02X151870I5235*
G01*
X477635*
Y620760*
X444635Y653760*
Y657760*
X387870*
G75*
G02X377400I-5235*
G01*
X375870*
G75*
G02X365400I-5235*
G01*
X327870*
G75*
G02X317400I-5235*
G01*
X315870*
G75*
G02X305400I-5235*
G01*
X257870*
G75*
G02X247400I-5235*
G01*
X245870*
G75*
G02X235400I-5235*
G01*
X187870*
G75*
G02X177400I-5235*
G01*
X175870*
G75*
G02X165400I-5235*
G01*
X91370*
G75*
G02X71635Y638025I-19735*
G01*
G75*
G02X51900Y657760J19735*
G01*
X6985*
G37*
X51900D02*
G36*
G75*
G02X55968Y669760I19735J-1D01*
G01*
X6985*
Y657760*
X51900*
G37*
X165400D02*
G36*
G75*
G02X175870I5235D01*
G01*
X177400*
G75*
G02X187870I5235*
G01*
X235400*
G75*
G02X245870I5235*
G01*
X247400*
G75*
G02X257870I5235*
G01*
X305400*
G75*
G02X315870I5235*
G01*
X317400*
G75*
G02X327870I5235*
G01*
X365400*
G75*
G02X375870I5235*
G01*
X377400*
G75*
G02X387870I5235*
G01*
X444635*
Y669760*
X387870*
G75*
G02X377400I-5235*
G01*
X375870*
G75*
G02X365400I-5235*
G01*
X327870*
G75*
G02X317400I-5235*
G01*
X315870*
G75*
G02X305400I-5235*
G01*
X257870*
G75*
G02X247400I-5235*
G01*
X245870*
G75*
G02X235400I-5235*
G01*
X187870*
G75*
G02X177400I-5235*
G01*
X175870*
G75*
G02X165400I-5235*
G01*
X87302*
G75*
G02X91370Y657760I-15667J-12001*
G01*
X165400*
G37*
X6985Y589760D02*
G36*
Y577760D01*
X63544*
G75*
G02X52834Y589760I8091J18000*
G01*
X6985*
G37*
X90436D02*
G36*
G75*
G02X79726Y577760I-18801J6000D01*
G01*
X117400*
G75*
G02X127870I5235*
G01*
X129400*
G75*
G02X139870I5235*
G01*
X141400*
G75*
G02X151870I5235*
G01*
X455258*
G75*
G02X453400Y581760I3377J4000*
G01*
G75*
G02X463870I5235*
G01*
G75*
G02X462012Y577760I-5235*
G01*
X467258*
G75*
G02X465400Y581760I3377J4000*
G01*
G75*
G02X475870I5235*
G01*
G75*
G02X474012Y577760I-5235*
G01*
X477635*
Y589760*
X474012*
G75*
G02X467258I-3377J4000*
G01*
X462012*
G75*
G02X455258I-3377J4000*
G01*
X351012*
G75*
G02X352870Y585760I-3377J-4000*
G01*
G75*
G02X342400I-5235*
G01*
G75*
G02X344258Y589760I5235*
G01*
X257012*
G75*
G02X258870Y585760I-3377J-4000*
G01*
G75*
G02X248400I-5235*
G01*
G75*
G02X250258Y589760I5235*
G01*
X151870*
G75*
G02X141400I-5235*
G01*
X139870*
G75*
G02X129400I-5235*
G01*
X127870*
G75*
G02X117400I-5235*
G01*
X115870*
G75*
G02X105400I-5235*
G01*
X103870*
G75*
G02X93400I-5235*
G01*
X90436*
G37*
X52834Y601760D02*
G36*
G75*
G02X63544Y613760I18801J-6000D01*
G01*
X6985*
Y601760*
X52834*
G37*
X93400D02*
G36*
G75*
G02X103870I5235D01*
G01*
X105400*
G75*
G02X115870I5235*
G01*
X117400*
G75*
G02X127870I5235*
G01*
X129400*
G75*
G02X139870I5235*
G01*
X141400*
G75*
G02X151870I5235*
G01*
X477635*
Y613760*
X151870*
G75*
G02X141400I-5235*
G01*
X139870*
G75*
G02X129400I-5235*
G01*
X127870*
G75*
G02X117400I-5235*
G01*
X115870*
G75*
G02X105400I-5235*
G01*
X103870*
G75*
G02X93400I-5235*
G01*
X79726*
G75*
G02X90436Y601760I-8091J-18000*
G01*
X93400*
G37*
X6985Y505760D02*
G36*
Y493760D01*
X130400*
G75*
G02X140870I5235*
G01*
X142400*
G75*
G02X152870I5235*
G01*
X262084*
G75*
G02X265186I1551J-5000*
G01*
X274084*
G75*
G02X277186I1551J-5000*
G01*
X286084*
G75*
G02X289186I1551J-5000*
G01*
X306084*
G75*
G02X309186I1551J-5000*
G01*
X318084*
G75*
G02X321186I1551J-5000*
G01*
X330084*
G75*
G02X333186I1551J-5000*
G01*
X477635*
Y505760*
X418925*
G75*
G02X410345I-4290J3000*
G01*
X406925*
G75*
G02X398345I-4290J3000*
G01*
X394925*
G75*
G02X386345I-4290J3000*
G01*
X378925*
G75*
G02X370345I-4290J3000*
G01*
X366925*
G75*
G02X358345I-4290J3000*
G01*
X354925*
G75*
G02X346345I-4290J3000*
G01*
X333186*
G75*
G02X336870Y500760I-1551J-5000*
G01*
G75*
G02X326400I-5235*
G01*
G75*
G02X330084Y505760I5235*
G01*
X321186*
G75*
G02X324870Y500760I-1551J-5000*
G01*
G75*
G02X314400I-5235*
G01*
G75*
G02X318084Y505760I5235*
G01*
X309186*
G75*
G02X312870Y500760I-1551J-5000*
G01*
G75*
G02X302400I-5235*
G01*
G75*
G02X306084Y505760I5235*
G01*
X289186*
G75*
G02X292870Y500760I-1551J-5000*
G01*
G75*
G02X282400I-5235*
G01*
G75*
G02X286084Y505760I5235*
G01*
X277186*
G75*
G02X280870Y500760I-1551J-5000*
G01*
G75*
G02X270400I-5235*
G01*
G75*
G02X274084Y505760I5235*
G01*
X265186*
G75*
G02X268870Y500760I-1551J-5000*
G01*
G75*
G02X258400I-5235*
G01*
G75*
G02X262084Y505760I5235*
G01*
X249925*
G75*
G02X241345I-4290J3000*
G01*
X237925*
G75*
G02X229345I-4290J3000*
G01*
X225925*
G75*
G02X217345I-4290J3000*
G01*
X209925*
G75*
G02X201345I-4290J3000*
G01*
X197925*
G75*
G02X189345I-4290J3000*
G01*
X185925*
G75*
G02X177345I-4290J3000*
G01*
X152870*
G75*
G02X142400I-5235*
G01*
X140870*
G75*
G02X130400I-5235*
G01*
X128870*
G75*
G02X118400I-5235*
G01*
X116870*
G75*
G02X106400I-5235*
G01*
X104870*
G75*
G02X94400I-5235*
G01*
X6985*
G37*
X94400D02*
G36*
G75*
G02X104870I5235D01*
G01*
X106400*
G75*
G02X116870I5235*
G01*
X118400*
G75*
G02X128870I5235*
G01*
X130400*
G75*
G02X140870I5235*
G01*
X142400*
G75*
G02X152870I5235*
G01*
X177345*
G75*
G02X176400Y508760I4290J3000*
G01*
G75*
G02X186870I5235*
G01*
G75*
G02X185925Y505760I-5235*
G01*
X189345*
G75*
G02X188400Y508760I4290J3000*
G01*
G75*
G02X198870I5235*
G01*
G75*
G02X197925Y505760I-5235*
G01*
X201345*
G75*
G02X200400Y508760I4290J3000*
G01*
G75*
G02X210870I5235*
G01*
G75*
G02X209925Y505760I-5235*
G01*
X217345*
G75*
G02X216400Y508760I4290J3000*
G01*
G75*
G02X226870I5235*
G01*
G75*
G02X225925Y505760I-5235*
G01*
X229345*
G75*
G02X228400Y508760I4290J3000*
G01*
G75*
G02X238870I5235*
G01*
G75*
G02X237925Y505760I-5235*
G01*
X241345*
G75*
G02X240400Y508760I4290J3000*
G01*
G75*
G02X250870I5235*
G01*
G75*
G02X249925Y505760I-5235*
G01*
X262084*
G75*
G02X265186I1551J-5000*
G01*
X274084*
G75*
G02X277186I1551J-5000*
G01*
X286084*
G75*
G02X289186I1551J-5000*
G01*
X306084*
G75*
G02X309186I1551J-5000*
G01*
X318084*
G75*
G02X321186I1551J-5000*
G01*
X330084*
G75*
G02X333186I1551J-5000*
G01*
X346345*
G75*
G02X345400Y508760I4290J3000*
G01*
G75*
G02X355870I5235*
G01*
G75*
G02X354925Y505760I-5235*
G01*
X358345*
G75*
G02X357400Y508760I4290J3000*
G01*
G75*
G02X367870I5235*
G01*
G75*
G02X366925Y505760I-5235*
G01*
X370345*
G75*
G02X369400Y508760I4290J3000*
G01*
G75*
G02X379870I5235*
G01*
G75*
G02X378925Y505760I-5235*
G01*
X386345*
G75*
G02X385400Y508760I4290J3000*
G01*
G75*
G02X395870I5235*
G01*
G75*
G02X394925Y505760I-5235*
G01*
X398345*
G75*
G02X397400Y508760I4290J3000*
G01*
G75*
G02X407870I5235*
G01*
G75*
G02X406925Y505760I-5235*
G01*
X410345*
G75*
G02X409400Y508760I4290J3000*
G01*
G75*
G02X419870I5235*
G01*
G75*
G02X418925Y505760I-5235*
G01*
X477635*
Y517760*
X333186*
G75*
G02X336870Y512760I-1551J-5000*
G01*
G75*
G02X326400I-5235*
G01*
G75*
G02X330084Y517760I5235*
G01*
X321186*
G75*
G02X324870Y512760I-1551J-5000*
G01*
G75*
G02X314400I-5235*
G01*
G75*
G02X318084Y517760I5235*
G01*
X309186*
G75*
G02X312870Y512760I-1551J-5000*
G01*
G75*
G02X302400I-5235*
G01*
G75*
G02X306084Y517760I5235*
G01*
X289186*
G75*
G02X292870Y512760I-1551J-5000*
G01*
G75*
G02X282400I-5235*
G01*
G75*
G02X286084Y517760I5235*
G01*
X277186*
G75*
G02X280870Y512760I-1551J-5000*
G01*
G75*
G02X270400I-5235*
G01*
G75*
G02X274084Y517760I5235*
G01*
X265186*
G75*
G02X268870Y512760I-1551J-5000*
G01*
G75*
G02X258400I-5235*
G01*
G75*
G02X262084Y517760I5235*
G01*
X152870*
G75*
G02X142400I-5235*
G01*
X140870*
G75*
G02X130400I-5235*
G01*
X128870*
G75*
G02X118400I-5235*
G01*
X116870*
G75*
G02X106400I-5235*
G01*
X104870*
G75*
G02X94400I-5235*
G01*
X83188*
G75*
G02X71635Y514025I-11553J16000*
G01*
G75*
G02X60082Y517760J19735*
G01*
X6985*
Y505760*
X94400*
G37*
X60082Y517760D02*
G36*
G75*
G02X54072Y524760I11553J15999D01*
G01*
X6985*
Y517760*
X60082*
G37*
X94400D02*
G36*
G75*
G02X104870I5235D01*
G01*
X106400*
G75*
G02X116870I5235*
G01*
X118400*
G75*
G02X128870I5235*
G01*
X130400*
G75*
G02X140870I5235*
G01*
X142400*
G75*
G02X152870I5235*
G01*
X262084*
G75*
G02X265186I1551J-5000*
G01*
X274084*
G75*
G02X277186I1551J-5000*
G01*
X286084*
G75*
G02X289186I1551J-5000*
G01*
X306084*
G75*
G02X309186I1551J-5000*
G01*
X318084*
G75*
G02X321186I1551J-5000*
G01*
X330084*
G75*
G02X333186I1551J-5000*
G01*
X477635*
Y524760*
X336870*
G75*
G02X326400I-5235*
G01*
X324870*
G75*
G02X314400I-5235*
G01*
X312870*
G75*
G02X302400I-5235*
G01*
X292870*
G75*
G02X282400I-5235*
G01*
X280870*
G75*
G02X270400I-5235*
G01*
X268870*
G75*
G02X258400I-5235*
G01*
X149186*
G75*
G02X146084I-1551J5000*
G01*
X137186*
G75*
G02X134084I-1551J5000*
G01*
X125186*
G75*
G02X122084I-1551J5000*
G01*
X113186*
G75*
G02X110084I-1551J5000*
G01*
X101186*
G75*
G02X98084I-1551J5000*
G01*
X89198*
G75*
G02X83188Y517760I-17563J8999*
G01*
X94400*
G37*
X6985Y577760D02*
G36*
Y569760D01*
X453400*
G75*
G02X463870I5235*
G01*
X465400*
G75*
G02X475870I5235*
G01*
X477635*
Y577760*
X474012*
G75*
G02X467258I-3377J4000*
G01*
X462012*
G75*
G02X455258I-3377J4000*
G01*
X151870*
G75*
G02X141400I-5235*
G01*
X139870*
G75*
G02X129400I-5235*
G01*
X127870*
G75*
G02X117400I-5235*
G01*
X79726*
G75*
G02X71635Y576025I-8091J18000*
G01*
G75*
G02X63544Y577760I1J19736*
G01*
X6985*
G37*
X53594Y541760D02*
G36*
G75*
G02X71635Y553495I18041J-8000D01*
G01*
G75*
G02X89676Y541760J-19735*
G01*
X118400*
G75*
G02X128870I5235*
G01*
X130400*
G75*
G02X140870I5235*
G01*
X142400*
G75*
G02X152870I5235*
G01*
X262084*
G75*
G02X265186I1551J-5000*
G01*
X274084*
G75*
G02X277186I1551J-5000*
G01*
X286084*
G75*
G02X289186I1551J-5000*
G01*
X306084*
G75*
G02X309186I1551J-5000*
G01*
X318084*
G75*
G02X321186I1551J-5000*
G01*
X330084*
G75*
G02X333186I1551J-5000*
G01*
X477635*
Y553760*
X474012*
G75*
G02X467258I-3377J4000*
G01*
X462012*
G75*
G02X455258I-3377J4000*
G01*
X152870*
G75*
G02X142400I-5235*
G01*
X140870*
G75*
G02X130400I-5235*
G01*
X128870*
G75*
G02X118400I-5235*
G01*
X6985*
Y541760*
X53594*
G37*
X118400Y553760D02*
G36*
G75*
G02X128870I5235D01*
G01*
X130400*
G75*
G02X140870I5235*
G01*
X142400*
G75*
G02X152870I5235*
G01*
X455258*
G75*
G02X453400Y557760I3377J4000*
G01*
G75*
G02X463870I5235*
G01*
G75*
G02X462012Y553760I-5235*
G01*
X467258*
G75*
G02X465400Y557760I3377J4000*
G01*
G75*
G02X475870I5235*
G01*
G75*
G02X474012Y553760I-5235*
G01*
X477635*
Y569760*
X475870*
G75*
G02X465400I-5235*
G01*
X463870*
G75*
G02X453400I-5235*
G01*
X6985*
Y553760*
X118400*
G37*
X6985Y493760D02*
G36*
Y320110D01*
X510635*
Y417760*
X477635Y450760*
Y493760*
X333186*
G75*
G02X336870Y488760I-1551J-5000*
G01*
G75*
G02X326400I-5235*
G01*
G75*
G02X330084Y493760I5235*
G01*
X321186*
G75*
G02X324870Y488760I-1551J-5000*
G01*
G75*
G02X314400I-5235*
G01*
G75*
G02X318084Y493760I5235*
G01*
X309186*
G75*
G02X312870Y488760I-1551J-5000*
G01*
G75*
G02X302400I-5235*
G01*
G75*
G02X306084Y493760I5235*
G01*
X289186*
G75*
G02X292870Y488760I-1551J-5000*
G01*
G75*
G02X282400I-5235*
G01*
G75*
G02X286084Y493760I5235*
G01*
X277186*
G75*
G02X280870Y488760I-1551J-5000*
G01*
G75*
G02X270400I-5235*
G01*
G75*
G02X274084Y493760I5235*
G01*
X265186*
G75*
G02X268870Y488760I-1551J-5000*
G01*
G75*
G02X258400I-5235*
G01*
G75*
G02X262084Y493760I5235*
G01*
X152870*
G75*
G02X142400I-5235*
G01*
X140870*
G75*
G02X130400I-5235*
G01*
X6985*
G37*
X55968Y669760D02*
G36*
G75*
G02X71635Y677495I15667J-12000D01*
G01*
G75*
G02X87302Y669760J-19734*
G01*
X165400*
G75*
G02X175870I5235*
G01*
X177400*
G75*
G02X187870I5235*
G01*
X235400*
G75*
G02X245870I5235*
G01*
X247400*
G75*
G02X257870I5235*
G01*
X305400*
G75*
G02X315870I5235*
G01*
X317400*
G75*
G02X327870I5235*
G01*
X365400*
G75*
G02X375870I5235*
G01*
X377400*
G75*
G02X387870I5235*
G01*
X444635*
Y681760*
X387870*
G75*
G02X377400I-5235*
G01*
X375870*
G75*
G02X365400I-5235*
G01*
X327870*
G75*
G02X317400I-5235*
G01*
X315870*
G75*
G02X305400I-5235*
G01*
X257870*
G75*
G02X247400I-5235*
G01*
X245870*
G75*
G02X235400I-5235*
G01*
X187870*
G75*
G02X177400I-5235*
G01*
X175870*
G75*
G02X165400I-5235*
G01*
X6985*
Y669760*
X55968*
G37*
X165400Y681760D02*
G36*
G75*
G02X175870I5235D01*
G01*
X177400*
G75*
G02X187870I5235*
G01*
X235400*
G75*
G02X245870I5235*
G01*
X247400*
G75*
G02X257870I5235*
G01*
X305400*
G75*
G02X315870I5235*
G01*
X317400*
G75*
G02X327870I5235*
G01*
X365400*
G75*
G02X375870I5235*
G01*
X377400*
G75*
G02X387870I5235*
G01*
X444635*
Y685760*
X452635Y693760*
X387870*
G75*
G02X377400I-5235*
G01*
X375870*
G75*
G02X365400I-5235*
G01*
X327870*
G75*
G02X317400I-5235*
G01*
X315870*
G75*
G02X305400I-5235*
G01*
X257870*
G75*
G02X247400I-5235*
G01*
X245870*
G75*
G02X235400I-5235*
G01*
X187870*
G75*
G02X177400I-5235*
G01*
X175870*
G75*
G02X165400I-5235*
G01*
X6985*
Y681760*
X165400*
G37*
Y693760D02*
G36*
G75*
G02X175870I5235D01*
G01*
X177400*
G75*
G02X187870I5235*
G01*
X235400*
G75*
G02X245870I5235*
G01*
X247400*
G75*
G02X257870I5235*
G01*
X305400*
G75*
G02X315870I5235*
G01*
X317400*
G75*
G02X327870I5235*
G01*
X365400*
G75*
G02X375870I5235*
G01*
X377400*
G75*
G02X387870I5235*
G01*
X452635*
X457635Y698760*
X444635Y711760*
Y718760*
X412635Y750760*
Y807410*
X6985*
Y693760*
X165400*
G37*
X418635Y807410D02*
Y754760D01*
X428635Y744760*
X639635*
X645635Y738760*
Y613760*
X630635Y598760*
X480635*
Y453760*
X516635Y417760*
Y353461*
G75*
G02X535370Y347760I8500J-5701*
G01*
G75*
G02X516635Y342059I-10235*
G01*
Y320110*
X794285*
Y807410*
X418635*
X463400Y759760D02*
G75*
G02X473870I5235D01*
G01*
G75*
G02X463400I-5235*
G01*
X486400Y468760D02*
G75*
G02X496870I5235D01*
G01*
G75*
G02X486400I-5235*
G01*
X493400Y477760D02*
G75*
G02X503870I5235D01*
G01*
G75*
G02X493400I-5235*
G01*
X526400Y409760D02*
G75*
G02X536870I5235D01*
G01*
G75*
G02X526400I-5235*
G01*
X535370Y790260D02*
G75*
G02X514900I-10235D01*
G01*
G75*
G02X535370I10235*
G01*
X560370Y347760D02*
G75*
G02X539900I-10235D01*
G01*
G75*
G02X560370I10235*
G01*
Y790260D02*
G75*
G02X539900I-10235D01*
G01*
G75*
G02X560370I10235*
G01*
X585370D02*
G75*
G02X564900I-10235D01*
G01*
G75*
G02X585370I10235*
G01*
X589690Y576760D02*
G75*
G02X569980I-9855D01*
G01*
G75*
G02X589690I9855*
G01*
X595400Y483760D02*
G75*
G02X605870I5235D01*
G01*
G75*
G02X595400I-5235*
G01*
X610370Y347760D02*
G75*
G02X589900I-10235D01*
G01*
G75*
G02X610370I10235*
G01*
Y790260D02*
G75*
G02X589900I-10235D01*
G01*
G75*
G02X610370I10235*
G01*
X622400Y511760D02*
G75*
G02X632870I5235D01*
G01*
G75*
G02X622400I-5235*
G01*
X635370Y347760D02*
G75*
G02X614900I-10235D01*
G01*
G75*
G02X635370I10235*
G01*
Y790260D02*
G75*
G02X614900I-10235D01*
G01*
G75*
G02X635370I10235*
G01*
X640490Y576760D02*
G75*
G02X620780I-9855D01*
G01*
G75*
G02X640490I9855*
G01*
X649400Y680760D02*
G75*
G02X659870I5235D01*
G01*
G75*
G02X649400I-5235*
G01*
X660370Y347760D02*
G75*
G02X639900I-10235D01*
G01*
G75*
G02X660370I10235*
G01*
X670735Y523015D02*
G75*
G02Y503305J-9855D01*
G01*
G75*
G02Y523015J9855*
G01*
Y573815D02*
G75*
G02Y554105J-9855D01*
G01*
G75*
G02Y573815J9855*
G01*
Y599215D02*
G75*
G02Y579505J-9855D01*
G01*
G75*
G02Y599215J9855*
G01*
Y624615D02*
G75*
G02Y604905J-9855D01*
G01*
G75*
G02Y624615J9855*
G01*
X685370Y347760D02*
G75*
G02X664900I-10235D01*
G01*
G75*
G02X685370I10235*
G01*
Y790260D02*
G75*
G02X664900I-10235D01*
G01*
G75*
G02X685370I10235*
G01*
X696135Y523015D02*
G75*
G02Y503305J-9855D01*
G01*
G75*
G02Y523015J9855*
G01*
Y573815D02*
G75*
G02Y554105J-9855D01*
G01*
G75*
G02Y573815J9855*
G01*
Y599215D02*
G75*
G02Y579505J-9855D01*
G01*
G75*
G02Y599215J9855*
G01*
Y624615D02*
G75*
G02Y604905J-9855D01*
G01*
G75*
G02Y624615J9855*
G01*
X697400Y638760D02*
G75*
G02X707870I5235D01*
G01*
G75*
G02X697400I-5235*
G01*
Y652760D02*
G75*
G02X707870I5235D01*
G01*
G75*
G02X697400I-5235*
G01*
X710370Y347760D02*
G75*
G02X689900I-10235D01*
G01*
G75*
G02X710370I10235*
G01*
Y790260D02*
G75*
G02X689900I-10235D01*
G01*
G75*
G02X710370I10235*
G01*
X716304Y505760D02*
G75*
G02X732966I8331D01*
G01*
G75*
G02X716304I-8331*
G01*
Y651260D02*
G75*
G02X732966I8331D01*
G01*
G75*
G02X716304I-8331*
G01*
X721400Y734760D02*
G75*
G02X731870I5235D01*
G01*
G75*
G02X721400I-5235*
G01*
X760370Y347760D02*
G75*
G02X739900I-10235D01*
G01*
G75*
G02X760370I10235*
G01*
Y790260D02*
G75*
G02X739900I-10235D01*
G01*
G75*
G02X760370I10235*
G01*
X418635Y759760D02*
G36*
Y754760D01*
X428635Y744760*
X639635*
X645635Y738760*
Y734760*
X721400*
G75*
G02X731870I5235*
G01*
X794285*
Y759760*
X473870*
G75*
G02X463400I-5235*
G01*
X418635*
G37*
X463400D02*
G36*
G75*
G02X473870I5235D01*
G01*
X794285*
Y790260*
X760370*
G75*
G02X739900I-10235*
G01*
X710370*
G75*
G02X689900I-10235*
G01*
X685370*
G75*
G02X664900I-10235*
G01*
X635370*
G75*
G02X614900I-10235*
G01*
X610370*
G75*
G02X589900I-10235*
G01*
X585370*
G75*
G02X564900I-10235*
G01*
X560370*
G75*
G02X539900I-10235*
G01*
X535370*
G75*
G02X514900I-10235*
G01*
X418635*
Y759760*
X463400*
G37*
X480635Y468760D02*
G36*
Y453760D01*
X516635Y417760*
Y409760*
X526400*
G75*
G02X536870I5235*
G01*
X794285*
Y468760*
X496870*
G75*
G02X486400I-5235*
G01*
X480635*
G37*
X486400D02*
G36*
G75*
G02X496870I5235D01*
G01*
X794285*
Y477760*
X503870*
G75*
G02X493400I-5235*
G01*
X480635*
Y468760*
X486400*
G37*
X493400Y477760D02*
G36*
G75*
G02X503870I5235D01*
G01*
X794285*
Y483760*
X605870*
G75*
G02X595400I-5235*
G01*
X480635*
Y477760*
X493400*
G37*
X516635Y409760D02*
G36*
Y353461D01*
G75*
G02X535370Y347760I8500J-5701*
G01*
X539900*
G75*
G02X560370I10235*
G01*
X589900*
G75*
G02X610370I10235*
G01*
X614900*
G75*
G02X635370I10235*
G01*
X639900*
G75*
G02X660370I10235*
G01*
X664900*
G75*
G02X685370I10235*
G01*
X689900*
G75*
G02X710370I10235*
G01*
X739900*
G75*
G02X760370I10235*
G01*
X794285*
Y409760*
X536870*
G75*
G02X526400I-5235*
G01*
X516635*
G37*
X514900Y790260D02*
G36*
G75*
G02X535370I10235D01*
G01*
X539900*
G75*
G02X560370I10235*
G01*
X564900*
G75*
G02X585370I10235*
G01*
X589900*
G75*
G02X610370I10235*
G01*
X614900*
G75*
G02X635370I10235*
G01*
X664900*
G75*
G02X685370I10235*
G01*
X689900*
G75*
G02X710370I10235*
G01*
X739900*
G75*
G02X760370I10235*
G01*
X794285*
Y807410*
X418635*
Y790260*
X514900*
G37*
X535370Y347760D02*
G36*
G75*
G02X516635Y342059I-10235D01*
G01*
Y320110*
X794285*
Y347760*
X760370*
G75*
G02X739900I-10235*
G01*
X710370*
G75*
G02X689900I-10235*
G01*
X685370*
G75*
G02X664900I-10235*
G01*
X660370*
G75*
G02X639900I-10235*
G01*
X635370*
G75*
G02X614900I-10235*
G01*
X610370*
G75*
G02X589900I-10235*
G01*
X560370*
G75*
G02X539900I-10235*
G01*
X535370*
G37*
X480635Y576760D02*
G36*
Y563960D01*
X660880*
G75*
G02X670735Y573815I9855*
G01*
G75*
G02X680590Y563960J-9855*
G01*
X686280*
G75*
G02X696135Y573815I9855*
G01*
G75*
G02X705990Y563960J-9855*
G01*
X794285*
Y576760*
X640490*
G75*
G02X620780I-9855*
G01*
X589690*
G75*
G02X569980I-9855*
G01*
X480635*
G37*
X569980D02*
G36*
G75*
G02X589690I9855D01*
G01*
X620780*
G75*
G02X640490I9855*
G01*
X794285*
Y589360*
X705990*
G75*
G02X696135Y579505I-9855*
G01*
G75*
G02X686280Y589360J9855*
G01*
X680590*
G75*
G02X670735Y579505I-9855*
G01*
G75*
G02X660880Y589360J9855*
G01*
X480635*
Y576760*
X569980*
G37*
X595400Y483760D02*
G36*
G75*
G02X605870I5235D01*
G01*
X794285*
Y511760*
X730415*
G75*
G02X732966Y505760I-5780J-6000*
G01*
G75*
G02X716304I-8331*
G01*
G75*
G02X718855Y511760I8331*
G01*
X705890*
G75*
G02X696135Y503305I-9755J1400*
G01*
G75*
G02X686380Y511760J9855*
G01*
X680490*
G75*
G02X670735Y503305I-9755J1400*
G01*
G75*
G02X660980Y511760J9855*
G01*
X632870*
G75*
G02X622400I-5235*
G01*
X480635*
Y483760*
X595400*
G37*
X622400Y511760D02*
G36*
G75*
G02X632870I5235D01*
G01*
X660980*
G75*
G02X670735Y523015I9755J1400*
G01*
G75*
G02X680490Y511760J-9855*
G01*
X686380*
G75*
G02X696135Y523015I9755J1400*
G01*
G75*
G02X705890Y511760J-9855*
G01*
X718855*
G75*
G02X730415I5780J-6000*
G01*
X794285*
Y563960*
X705990*
G75*
G02X696135Y554105I-9855*
G01*
G75*
G02X686280Y563960J9855*
G01*
X680590*
G75*
G02X670735Y554105I-9855*
G01*
G75*
G02X660880Y563960J9855*
G01*
X480635*
Y511760*
X622400*
G37*
X645635Y680760D02*
G36*
Y652760D01*
X697400*
G75*
G02X707870I5235*
G01*
X716440*
G75*
G02X732830I8195J-1500*
G01*
X794285*
Y680760*
X659870*
G75*
G02X649400I-5235*
G01*
X645635*
G37*
X649400D02*
G36*
G75*
G02X659870I5235D01*
G01*
X794285*
Y734760*
X731870*
G75*
G02X721400I-5235*
G01*
X645635*
Y680760*
X649400*
G37*
X660880Y589360D02*
G36*
G75*
G02X670735Y599215I9855D01*
G01*
G75*
G02X680590Y589360J-9855*
G01*
X686280*
G75*
G02X696135Y599215I9855*
G01*
G75*
G02X705990Y589360J-9855*
G01*
X794285*
Y614760*
X705990*
G75*
G02X696135Y604905I-9855*
G01*
G75*
G02X686280Y614760J9855*
G01*
X680590*
G75*
G02X670735Y604905I-9855*
G01*
G75*
G02X660880Y614760J9855*
G01*
X645635*
Y613760*
X630635Y598760*
X480635*
Y589360*
X660880*
G37*
Y614760D02*
G36*
G75*
G02X670735Y624615I9855D01*
G01*
G75*
G02X680590Y614760J-9855*
G01*
X686280*
G75*
G02X696135Y624615I9855*
G01*
G75*
G02X705990Y614760J-9855*
G01*
X794285*
Y638760*
X707870*
G75*
G02X697400I-5235*
G01*
X645635*
Y614760*
X660880*
G37*
X697400Y638760D02*
G36*
G75*
G02X707870I5235D01*
G01*
X794285*
Y652760*
X732830*
G75*
G02X732966Y651260I-8195J-1499*
G01*
G75*
G02X716304I-8331*
G01*
G75*
G02X716440Y652760I8331J1*
G01*
X707870*
G75*
G02X697400I-5235*
G01*
X645635*
Y638760*
X697400*
G37*
X467467Y688928D02*
G75*
G02X475870Y684760I3168J-4168D01*
G01*
G75*
G02X469725Y679605I-5235*
G01*
G75*
G02X472461Y673522I-7091J-6846*
G01*
G75*
G02X479870Y668760I2174J-4762*
G01*
G75*
G02X470038Y666255I-5235*
G01*
G75*
G02X469635Y665823I-7403J6502*
G01*
Y637760*
X471467Y635928*
G75*
G02X480870Y632760I4168J-3168*
G01*
G75*
G02X478803Y628592I-5235*
G01*
X483635Y623760*
Y604760*
X485635Y602760*
X630576*
X642635Y614819*
Y737701*
X638446Y741890*
X469635*
Y730497*
G75*
G02Y716623I-7000J-6937*
G01*
Y710760*
X457635Y698760*
X467467Y688928*
X473400Y647760D02*
G75*
G02X483870I5235D01*
G01*
G75*
G02X473400I-5235*
G01*
X485400Y680760D02*
G75*
G02X495870I5235D01*
G01*
G75*
G02X485400I-5235*
G01*
Y692760D02*
G75*
G02X495870I5235D01*
G01*
G75*
G02X485400I-5235*
G01*
X497400Y665760D02*
G75*
G02X507870I5235D01*
G01*
G75*
G02X497400I-5235*
G01*
Y680760D02*
G75*
G02X507870I5235D01*
G01*
G75*
G02X497400I-5235*
G01*
Y692760D02*
G75*
G02X507870I5235D01*
G01*
G75*
G02X497400I-5235*
G01*
X552400Y653760D02*
G75*
G02X562870I5235D01*
G01*
G75*
G02X552400I-5235*
G01*
X554400Y726160D02*
G75*
G02X564870I5235D01*
G01*
G75*
G02X554400I-5235*
G01*
X594400Y637760D02*
G75*
G02X604870I5235D01*
G01*
G75*
G02X594400I-5235*
G01*
X603135Y705085D02*
G75*
G02X593400Y707760I-4500J2675D01*
G01*
G75*
G02X603135Y710435I5235*
G01*
G75*
G02X612870Y707760I4500J-2675*
G01*
G75*
G02X603135Y705085I-5235*
G01*
X604400Y641760D02*
G75*
G02X614870I5235D01*
G01*
G75*
G02X604400I-5235*
G01*
X608400Y623760D02*
G75*
G02X618870I5235D01*
G01*
G75*
G02X608400I-5235*
G01*
X469635Y647760D02*
G36*
Y637760D01*
X471467Y635928*
G75*
G02X477187Y637760I4168J-3168*
G01*
X594400*
G75*
G02X604870I5235*
G01*
X606258*
G75*
G02X604400Y641760I3377J4000*
G01*
G75*
G02X614870I5235*
G01*
G75*
G02X613012Y637760I-5235*
G01*
X642635*
Y647760*
X483870*
G75*
G02X473400I-5235*
G01*
X469635*
G37*
X473400D02*
G36*
G75*
G02X483870I5235D01*
G01*
X642635*
Y653760*
X562870*
G75*
G02X552400I-5235*
G01*
X469635*
Y647760*
X473400*
G37*
X474012Y680760D02*
G36*
G75*
G02X469725Y679605I-3377J4000D01*
G01*
G75*
G02X472461Y673522I-7091J-6846*
G01*
G75*
G02X479870Y668760I2174J-4762*
G01*
G75*
G02X478925Y665760I-5235*
G01*
X497400*
G75*
G02X507870I5235*
G01*
X642635*
Y680760*
X507870*
G75*
G02X497400I-5235*
G01*
X495870*
G75*
G02X485400I-5235*
G01*
X474012*
G37*
X485400D02*
G36*
G75*
G02X495870I5235D01*
G01*
X497400*
G75*
G02X507870I5235*
G01*
X642635*
Y692760*
X507870*
G75*
G02X497400I-5235*
G01*
X495870*
G75*
G02X485400I-5235*
G01*
X463635*
X467467Y688928*
G75*
G02X475870Y684760I3168J-4168*
G01*
G75*
G02X474012Y680760I-5235*
G01*
X485400*
G37*
Y692760D02*
G36*
G75*
G02X495870I5235D01*
G01*
X497400*
G75*
G02X507870I5235*
G01*
X642635*
Y707760*
X612870*
G75*
G02X603135Y705085I-5235*
G01*
G75*
G02X593400Y707760I-4500J2675*
G01*
X466635*
X457635Y698760*
X463635Y692760*
X485400*
G37*
X478925Y665760D02*
G36*
G75*
G02X470038Y666255I-4290J3000D01*
G01*
G75*
G02X469635Y665823I-7403J6502*
G01*
Y653760*
X552400*
G75*
G02X562870I5235*
G01*
X642635*
Y665760*
X507870*
G75*
G02X497400I-5235*
G01*
X478925*
G37*
X472141Y726160D02*
G36*
G75*
G02X469635Y716623I-9506J-2600D01*
G01*
Y710760*
X466635Y707760*
X593400*
G75*
G02X603135Y710435I5235*
G01*
G75*
G02X612870Y707760I4500J-2675*
G01*
X642635*
Y726160*
X564870*
G75*
G02X554400I-5235*
G01*
X472141*
G37*
X554400D02*
G36*
G75*
G02X564870I5235D01*
G01*
X642635*
Y737701*
X638446Y741890*
X469635*
Y730497*
G75*
G02X472141Y726160I-7000J-6937*
G01*
X554400*
G37*
X477187Y637760D02*
G36*
G75*
G02X480870Y632760I-1552J-5000D01*
G01*
G75*
G02X478803Y628592I-5235*
G01*
X483635Y623760*
X608400*
G75*
G02X618870I5235*
G01*
X642635*
Y637760*
X613012*
G75*
G02X606258I-3377J4000*
G01*
X604870*
G75*
G02X594400I-5235*
G01*
X477187*
G37*
X483635Y623760D02*
G36*
Y604760D01*
X485635Y602760*
X630576*
X642635Y614819*
Y623760*
X618870*
G75*
G02X608400I-5235*
G01*
X483635*
G37*
D02*
D11*
X26905Y163760D02*
X21825D01*
X26905Y238760D02*
X21825D01*
X33635Y157030D02*
Y151950D01*
Y170490D02*
Y175570D01*
Y232030D02*
Y226950D01*
Y245490D02*
Y250570D01*
X40365Y163760D02*
X45445D01*
X40365Y238760D02*
X45445D01*
X89905Y66760D02*
X84825D01*
X90905Y155760D02*
X85825D01*
X91412Y142537D02*
X87820Y138945D01*
X91412Y144983D02*
X87820Y148575D01*
X91412Y166537D02*
X87820Y162945D01*
X91412Y168983D02*
X87820Y172575D01*
X91635Y65030D02*
Y59950D01*
Y68490D02*
Y73570D01*
X92635Y154030D02*
Y148950D01*
Y157490D02*
Y162570D01*
X93365Y66760D02*
X98445D01*
X93858Y142537D02*
X97450Y138945D01*
X93858Y144983D02*
X97450Y148575D01*
X93858Y166537D02*
X97450Y162945D01*
X93858Y168983D02*
X97450Y172575D01*
X94365Y155760D02*
X99445D01*
X101905Y275760D02*
X96825D01*
X102905Y143760D02*
X97825D01*
X102905Y167760D02*
X97825D01*
X103412Y154537D02*
X99820Y150945D01*
X103412Y156983D02*
X99820Y160575D01*
X103635Y274030D02*
Y268950D01*
Y277490D02*
Y282570D01*
X104635Y142030D02*
Y136950D01*
Y145490D02*
Y150570D01*
Y166030D02*
Y160950D01*
Y169490D02*
Y174570D01*
X105365Y275760D02*
X110445D01*
X105858Y154537D02*
X109450Y150945D01*
X105858Y156983D02*
X109450Y160575D01*
X106365Y143760D02*
X111445D01*
X106365Y167760D02*
X111445D01*
X114905Y155760D02*
X109825D01*
X115412Y142537D02*
X111820Y138945D01*
X115412Y144983D02*
X111820Y148575D01*
X115412Y166537D02*
X111820Y162945D01*
X115412Y168983D02*
X111820Y172575D01*
X116635Y154030D02*
Y148950D01*
Y157490D02*
Y162570D01*
X117858Y142537D02*
X121450Y138945D01*
X117858Y144983D02*
X121450Y148575D01*
X117858Y166537D02*
X121450Y162945D01*
X117858Y168983D02*
X121450Y172575D01*
X118365Y155760D02*
X123445D01*
X122905Y288760D02*
X117825D01*
X124635Y287030D02*
Y281950D01*
Y290490D02*
Y295570D01*
X126365Y288760D02*
X131445D01*
X186412Y129537D02*
X182820Y125945D01*
X186412Y131983D02*
X182820Y135575D01*
X188858Y129537D02*
X192450Y125945D01*
X188858Y131983D02*
X192450Y135575D01*
X198412Y129537D02*
X194820Y125945D01*
X198412Y131983D02*
X194820Y135575D01*
X200858Y129537D02*
X204450Y125945D01*
X200858Y131983D02*
X204450Y135575D01*
X210412Y129537D02*
X206820Y125945D01*
X210412Y131983D02*
X206820Y135575D01*
X212858Y129537D02*
X216450Y125945D01*
X212858Y131983D02*
X216450Y135575D01*
X212905Y268760D02*
X207825D01*
X214635Y267030D02*
Y261950D01*
Y270490D02*
Y275570D01*
X216365Y268760D02*
X221445D01*
X229412Y210537D02*
X225820Y206945D01*
X229412Y212983D02*
X225820Y216575D01*
X230205Y288460D02*
X225125D01*
X231858Y210537D02*
X235450Y206945D01*
X231858Y212983D02*
X235450Y216575D01*
X237435Y281230D02*
Y276150D01*
Y295690D02*
Y300770D01*
X244665Y288460D02*
X249745D01*
X268905Y83760D02*
X263825D01*
X268905Y103760D02*
X263825D01*
X268905Y123760D02*
X263825D01*
X268905Y143760D02*
X263825D01*
X270635Y82030D02*
Y76950D01*
Y85490D02*
Y90570D01*
Y102030D02*
Y96950D01*
Y105490D02*
Y110570D01*
Y122030D02*
Y116950D01*
Y125490D02*
Y130570D01*
Y142030D02*
Y136950D01*
Y145490D02*
Y150570D01*
X272365Y83760D02*
X277445D01*
X272365Y103760D02*
X277445D01*
X272365Y123760D02*
X277445D01*
X272365Y143760D02*
X277445D01*
X278905Y73760D02*
X273825D01*
X278905Y93760D02*
X273825D01*
X278905Y113760D02*
X273825D01*
X278905Y133760D02*
X273825D01*
X280635Y72030D02*
Y66950D01*
Y75490D02*
Y80570D01*
Y92030D02*
Y86950D01*
Y95490D02*
Y100570D01*
Y112030D02*
Y106950D01*
Y115490D02*
Y120570D01*
Y132030D02*
Y126950D01*
Y135490D02*
Y140570D01*
X282365Y73760D02*
X287445D01*
X282365Y93760D02*
X287445D01*
X282365Y113760D02*
X287445D01*
X282365Y133760D02*
X287445D01*
X288905Y83760D02*
X283825D01*
X288905Y103760D02*
X283825D01*
X288905Y123760D02*
X283825D01*
X288905Y143760D02*
X283825D01*
X290412Y233537D02*
X286820Y229945D01*
X290412Y235983D02*
X286820Y239575D01*
X290635Y82030D02*
Y76950D01*
Y85490D02*
Y90570D01*
Y102030D02*
Y96950D01*
Y105490D02*
Y110570D01*
Y122030D02*
Y116950D01*
Y125490D02*
Y130570D01*
Y142030D02*
Y136950D01*
Y145490D02*
Y150570D01*
X292365Y83760D02*
X297445D01*
X292365Y103760D02*
X297445D01*
X292365Y123760D02*
X297445D01*
X292365Y143760D02*
X297445D01*
X292858Y233537D02*
X296450Y229945D01*
X292858Y235983D02*
X296450Y239575D01*
X298905Y73760D02*
X293825D01*
X298905Y93760D02*
X293825D01*
X298905Y113760D02*
X293825D01*
X298905Y133760D02*
X293825D01*
X300635Y72030D02*
Y66950D01*
Y75490D02*
Y80570D01*
Y92030D02*
Y86950D01*
Y95490D02*
Y100570D01*
Y112030D02*
Y106950D01*
Y115490D02*
Y120570D01*
Y132030D02*
Y126950D01*
Y135490D02*
Y140570D01*
X302365Y73760D02*
X307445D01*
X302365Y93760D02*
X307445D01*
X302365Y113760D02*
X307445D01*
X302365Y133760D02*
X307445D01*
X308905Y83760D02*
X303825D01*
X308905Y103760D02*
X303825D01*
X308905Y123760D02*
X303825D01*
X308905Y143760D02*
X303825D01*
X310635Y82030D02*
Y76950D01*
Y85490D02*
Y90570D01*
Y102030D02*
Y96950D01*
Y105490D02*
Y110570D01*
Y122030D02*
Y116950D01*
Y125490D02*
Y130570D01*
Y142030D02*
Y136950D01*
Y145490D02*
Y150570D01*
X312365Y83760D02*
X317445D01*
X312365Y103760D02*
X317445D01*
X312365Y123760D02*
X317445D01*
X312365Y143760D02*
X317445D01*
X318905Y73760D02*
X313825D01*
X318905Y93760D02*
X313825D01*
X318905Y113760D02*
X313825D01*
X318905Y133760D02*
X313825D01*
X320635Y72030D02*
Y66950D01*
Y75490D02*
Y80570D01*
Y92030D02*
Y86950D01*
Y95490D02*
Y100570D01*
Y112030D02*
Y106950D01*
Y115490D02*
Y120570D01*
Y132030D02*
Y126950D01*
Y135490D02*
Y140570D01*
X322365Y73760D02*
X327445D01*
X322365Y93760D02*
X327445D01*
X322365Y113760D02*
X327445D01*
X322365Y133760D02*
X327445D01*
X328905Y83760D02*
X323825D01*
X328905Y103760D02*
X323825D01*
X328905Y123760D02*
X323825D01*
X328905Y143760D02*
X323825D01*
X330635Y82030D02*
Y76950D01*
Y85490D02*
Y90570D01*
Y102030D02*
Y96950D01*
Y105490D02*
Y110570D01*
Y122030D02*
Y116950D01*
Y125490D02*
Y130570D01*
Y142030D02*
Y136950D01*
Y145490D02*
Y150570D01*
X332365Y83760D02*
X337445D01*
X332365Y103760D02*
X337445D01*
X332365Y123760D02*
X337445D01*
X332365Y143760D02*
X337445D01*
X333905Y28760D02*
X328825D01*
X335635Y27030D02*
Y21950D01*
Y30490D02*
Y35570D01*
X337365Y28760D02*
X342445D01*
X338905Y73760D02*
X333825D01*
X338905Y93760D02*
X333825D01*
X338905Y113760D02*
X333825D01*
X338905Y133760D02*
X333825D01*
X340635Y72030D02*
Y66950D01*
Y75490D02*
Y80570D01*
Y92030D02*
Y86950D01*
Y95490D02*
Y100570D01*
Y112030D02*
Y106950D01*
Y115490D02*
Y120570D01*
Y132030D02*
Y126950D01*
Y135490D02*
Y140570D01*
X342365Y73760D02*
X347445D01*
X342365Y93760D02*
X347445D01*
X342365Y113760D02*
X347445D01*
X342365Y133760D02*
X347445D01*
X357205Y288460D02*
X352125D01*
X364435Y281230D02*
Y276150D01*
Y295690D02*
Y300770D01*
X371412Y225537D02*
X367820Y221945D01*
X371412Y227983D02*
X367820Y231575D01*
X371665Y288460D02*
X376745D01*
X373858Y225537D02*
X377450Y221945D01*
X373858Y227983D02*
X377450Y231575D01*
X382605Y288460D02*
X377525D01*
X389835Y281230D02*
Y276150D01*
Y295690D02*
Y300770D01*
X397065Y288460D02*
X402145D01*
X411905Y295760D02*
X406825D01*
X413635Y294030D02*
Y288950D01*
Y297490D02*
Y302570D01*
X415365Y295760D02*
X420445D01*
X418905Y232760D02*
X413825D01*
X420635Y231030D02*
Y225950D01*
Y234490D02*
Y239570D01*
X422365Y232760D02*
X427445D01*
X466905Y238760D02*
X461825D01*
X473635Y232030D02*
Y226950D01*
Y245490D02*
Y250570D01*
X480365Y238760D02*
X485445D01*
D02*
D13*
X25635Y338760D02*
D03*
Y788760D02*
D03*
X445635Y338760D02*
D03*
X774635Y413760D02*
D03*
Y713760D02*
D03*
D02*
D14*
X462635Y672760D02*
D03*
Y698160D02*
D03*
Y723560D02*
D03*
X579835Y576760D02*
D03*
X605235D02*
D03*
X630635D02*
D03*
X670735Y513160D02*
D03*
Y538560D02*
D03*
Y563960D02*
D03*
Y589360D02*
D03*
Y614760D02*
D03*
X696135Y513160D02*
D03*
Y538560D02*
D03*
Y563960D02*
D03*
Y589360D02*
D03*
Y614760D02*
D03*
D02*
D22*
X237435Y263060D02*
D03*
Y288460D02*
D03*
X262835Y263060D02*
D03*
Y288460D02*
D03*
X288235Y263060D02*
D03*
Y288460D02*
D03*
X313635Y263060D02*
D03*
Y288460D02*
D03*
X339035Y263060D02*
D03*
Y288460D02*
D03*
X364435Y263060D02*
D03*
Y288460D02*
D03*
X389835Y263060D02*
D03*
Y288460D02*
D03*
D02*
D72*
X724635Y505760D02*
D03*
Y651260D02*
D03*
D02*
D75*
X443135Y777760D02*
X483635D01*
X491635Y769760*
X650135*
X462635Y698160D02*
X414235D01*
X392635Y719760*
X80635*
X34635Y673760*
Y485760*
X48635Y471760*
X71635*
X462635Y698160D02*
Y698760D01*
X465635*
X478635Y711760*
X575635*
X587635Y723760*
X598635*
X599635Y653760D02*
X585735D01*
X575635Y663860*
Y711760*
X607635Y723760D02*
X598635D01*
X608635Y668760D02*
X601635D01*
X599635Y666760*
Y653760*
X650135Y769760D02*
Y769260D01*
X655635Y763760*
X714635*
X718135Y760260*
X650135Y790260D02*
Y769760D01*
X669635Y714760D02*
X717635D01*
X670735Y538560D02*
X651835D01*
X644635Y545760*
X611235*
X605235Y551760*
Y576760*
X696135Y538560D02*
X670735D01*
X709635Y658760D02*
X713635Y662760D01*
X731635*
X717635Y714760D02*
X724635D01*
X749635Y689760*
Y662760*
X718135Y760260D02*
X717635Y759760D01*
Y714760*
X725135Y790260D02*
Y767260D01*
X718135Y760260*
X731635Y662760D02*
X749635D01*
X738635Y537760D02*
Y387260D01*
X725135Y373760*
Y347760*
X738635Y537760D02*
X696935D01*
X696135Y538560*
X749635Y662760D02*
X762635Y649760D01*
Y606260*
Y561760*
X738635Y537760*
D02*
D76*
X736635Y681760D02*
Y667760D01*
X731635Y662760*
D02*
D82*
X118885Y339760D02*
X113845D01*
X118885Y363760D02*
X113845D01*
X120635Y338010D02*
Y332970D01*
Y341510D02*
Y346550D01*
Y362010D02*
Y356970D01*
Y365510D02*
Y370550D01*
X122385Y339760D02*
X127425D01*
X122385Y363760D02*
X127425D01*
X130885Y351760D02*
X125845D01*
X132635Y350010D02*
Y344970D01*
Y353510D02*
Y358550D01*
X134385Y351760D02*
X139425D01*
X142885Y339760D02*
X137845D01*
X142885Y363760D02*
X137845D01*
X144635Y338010D02*
Y332970D01*
Y341510D02*
Y346550D01*
Y362010D02*
Y356970D01*
Y365510D02*
Y370550D01*
X146385Y339760D02*
X151425D01*
X146385Y363760D02*
X151425D01*
X154885Y351760D02*
X149845D01*
X156635Y350010D02*
Y344970D01*
Y353510D02*
Y358550D01*
X158385Y351760D02*
X163425D01*
X166885Y339760D02*
X161845D01*
X166885Y363760D02*
X161845D01*
X168635Y338010D02*
Y332970D01*
Y341510D02*
Y346550D01*
Y362010D02*
Y356970D01*
Y365510D02*
Y370550D01*
X168885Y759760D02*
X163845D01*
X168885Y783760D02*
X163845D01*
X169398Y746523D02*
X165834Y742959D01*
X169398Y748997D02*
X165834Y752561D01*
X169398Y770523D02*
X165834Y766959D01*
X169398Y772997D02*
X165834Y776561D01*
X170385Y339760D02*
X175425D01*
X170385Y363760D02*
X175425D01*
X170635Y758010D02*
Y752970D01*
Y761510D02*
Y766550D01*
Y782010D02*
Y776970D01*
Y785510D02*
Y790550D01*
X171872Y746523D02*
X175436Y742959D01*
X171872Y748997D02*
X175436Y752561D01*
X171872Y770523D02*
X175436Y766959D01*
X171872Y772997D02*
X175436Y776561D01*
X172385Y759760D02*
X177425D01*
X172385Y783760D02*
X177425D01*
X178885Y351760D02*
X173845D01*
X180635Y350010D02*
Y344970D01*
Y353510D02*
Y358550D01*
X180885Y747760D02*
X175845D01*
X180885Y771760D02*
X175845D01*
X181398Y758523D02*
X177834Y754959D01*
X181398Y760997D02*
X177834Y764561D01*
X181398Y782523D02*
X177834Y778959D01*
X181398Y784997D02*
X177834Y788561D01*
X182385Y351760D02*
X187425D01*
X182635Y746010D02*
Y740970D01*
Y749510D02*
Y754550D01*
Y770010D02*
Y764970D01*
Y773510D02*
Y778550D01*
X183872Y758523D02*
X187436Y754959D01*
X183872Y760997D02*
X187436Y764561D01*
X183872Y782523D02*
X187436Y778959D01*
X183872Y784997D02*
X187436Y788561D01*
X184385Y747760D02*
X189425D01*
X184385Y771760D02*
X189425D01*
X190885Y339760D02*
X185845D01*
X190885Y363760D02*
X185845D01*
X192635Y338010D02*
Y332970D01*
Y341510D02*
Y346550D01*
Y362010D02*
Y356970D01*
Y365510D02*
Y370550D01*
X192885Y759760D02*
X187845D01*
X192885Y783760D02*
X187845D01*
X193398Y746523D02*
X189834Y742959D01*
X193398Y748997D02*
X189834Y752561D01*
X193398Y770523D02*
X189834Y766959D01*
X193398Y772997D02*
X189834Y776561D01*
X194385Y339760D02*
X199425D01*
X194385Y363760D02*
X199425D01*
X194635Y758010D02*
Y752970D01*
Y761510D02*
Y766550D01*
Y782010D02*
Y776970D01*
Y785510D02*
Y790550D01*
X195872Y746523D02*
X199436Y742959D01*
X195872Y748997D02*
X199436Y752561D01*
X195872Y770523D02*
X199436Y766959D01*
X195872Y772997D02*
X199436Y776561D01*
X196385Y759760D02*
X201425D01*
X196385Y783760D02*
X201425D01*
X202885Y351760D02*
X197845D01*
X204635Y350010D02*
Y344970D01*
Y353510D02*
Y358550D01*
X206385Y351760D02*
X211425D01*
X214885Y339760D02*
X209845D01*
X214885Y363760D02*
X209845D01*
X216635Y338010D02*
Y332970D01*
Y341510D02*
Y346550D01*
Y362010D02*
Y356970D01*
Y365510D02*
Y370550D01*
X218385Y339760D02*
X223425D01*
X218385Y363760D02*
X223425D01*
X226885Y351760D02*
X221845D01*
X228635Y350010D02*
Y344970D01*
Y353510D02*
Y358550D01*
X230385Y351760D02*
X235425D01*
X230885Y759760D02*
X225845D01*
X230885Y783760D02*
X225845D01*
X231398Y746523D02*
X227834Y742959D01*
X231398Y748997D02*
X227834Y752561D01*
X231398Y770523D02*
X227834Y766959D01*
X231398Y772997D02*
X227834Y776561D01*
X232635Y758010D02*
Y752970D01*
Y761510D02*
Y766550D01*
Y782010D02*
Y776970D01*
Y785510D02*
Y790550D01*
X233872Y746523D02*
X237436Y742959D01*
X233872Y748997D02*
X237436Y752561D01*
X233872Y770523D02*
X237436Y766959D01*
X233872Y772997D02*
X237436Y776561D01*
X234385Y759760D02*
X239425D01*
X234385Y783760D02*
X239425D01*
X238885Y339760D02*
X233845D01*
X238885Y363760D02*
X233845D01*
X240635Y338010D02*
Y332970D01*
Y341510D02*
Y346550D01*
Y362010D02*
Y356970D01*
Y365510D02*
Y370550D01*
X242385Y339760D02*
X247425D01*
X242385Y363760D02*
X247425D01*
X242885Y747760D02*
X237845D01*
X242885Y771760D02*
X237845D01*
X243398Y758523D02*
X239834Y754959D01*
X243398Y760997D02*
X239834Y764561D01*
X243398Y782523D02*
X239834Y778959D01*
X243398Y784997D02*
X239834Y788561D01*
X244635Y746010D02*
Y740970D01*
Y749510D02*
Y754550D01*
Y770010D02*
Y764970D01*
Y773510D02*
Y778550D01*
X245872Y758523D02*
X249436Y754959D01*
X245872Y760997D02*
X249436Y764561D01*
X245872Y782523D02*
X249436Y778959D01*
X245872Y784997D02*
X249436Y788561D01*
X246385Y747760D02*
X251425D01*
X246385Y771760D02*
X251425D01*
X250885Y351760D02*
X245845D01*
X252635Y350010D02*
Y344970D01*
Y353510D02*
Y358550D01*
X254385Y351760D02*
X259425D01*
X254885Y759760D02*
X249845D01*
X254885Y783760D02*
X249845D01*
X255398Y746523D02*
X251834Y742959D01*
X255398Y748997D02*
X251834Y752561D01*
X255398Y770523D02*
X251834Y766959D01*
X255398Y772997D02*
X251834Y776561D01*
X256635Y758010D02*
Y752970D01*
Y761510D02*
Y766550D01*
Y782010D02*
Y776970D01*
Y785510D02*
Y790550D01*
X257872Y746523D02*
X261436Y742959D01*
X257872Y748997D02*
X261436Y752561D01*
X257872Y770523D02*
X261436Y766959D01*
X257872Y772997D02*
X261436Y776561D01*
X258385Y759760D02*
X263425D01*
X258385Y783760D02*
X263425D01*
X262885Y339760D02*
X257845D01*
X262885Y363760D02*
X257845D01*
X262885Y387760D02*
X257845D01*
X264635Y338010D02*
Y332970D01*
Y341510D02*
Y346550D01*
Y362010D02*
Y356970D01*
Y365510D02*
Y370550D01*
Y386010D02*
Y380970D01*
Y389510D02*
Y394550D01*
X266385Y339760D02*
X271425D01*
X266385Y363760D02*
X271425D01*
X266385Y387760D02*
X271425D01*
X274885Y351760D02*
X269845D01*
X274885Y375760D02*
X269845D01*
X274885Y399760D02*
X269845D01*
X276635Y350010D02*
Y344970D01*
Y353510D02*
Y358550D01*
Y374010D02*
Y368970D01*
Y377510D02*
Y382550D01*
Y398010D02*
Y392970D01*
Y401510D02*
Y406550D01*
X278385Y351760D02*
X283425D01*
X278385Y375760D02*
X283425D01*
X278385Y399760D02*
X283425D01*
X286885Y339760D02*
X281845D01*
X286885Y363760D02*
X281845D01*
X286885Y387760D02*
X281845D01*
X288635Y338010D02*
Y332970D01*
Y341510D02*
Y346550D01*
Y362010D02*
Y356970D01*
Y365510D02*
Y370550D01*
Y386010D02*
Y380970D01*
Y389510D02*
Y394550D01*
X290385Y339760D02*
X295425D01*
X290385Y363760D02*
X295425D01*
X290385Y387760D02*
X295425D01*
X295885Y759760D02*
X290845D01*
X295885Y783760D02*
X290845D01*
X296398Y746523D02*
X292834Y742959D01*
X296398Y748997D02*
X292834Y752561D01*
X296398Y770523D02*
X292834Y766959D01*
X296398Y772997D02*
X292834Y776561D01*
X297635Y758010D02*
Y752970D01*
Y761510D02*
Y766550D01*
Y782010D02*
Y776970D01*
Y785510D02*
Y790550D01*
X298872Y746523D02*
X302436Y742959D01*
X298872Y748997D02*
X302436Y752561D01*
X298872Y770523D02*
X302436Y766959D01*
X298872Y772997D02*
X302436Y776561D01*
X298885Y351760D02*
X293845D01*
X298885Y375760D02*
X293845D01*
X298885Y399760D02*
X293845D01*
X299385Y759760D02*
X304425D01*
X299385Y783760D02*
X304425D01*
X300635Y350010D02*
Y344970D01*
Y353510D02*
Y358550D01*
Y374010D02*
Y368970D01*
Y377510D02*
Y382550D01*
Y398010D02*
Y392970D01*
Y401510D02*
Y406550D01*
X302385Y351760D02*
X307425D01*
X302385Y375760D02*
X307425D01*
X302385Y399760D02*
X307425D01*
X307885Y747760D02*
X302845D01*
X307885Y771760D02*
X302845D01*
X308398Y758523D02*
X304834Y754959D01*
X308398Y760997D02*
X304834Y764561D01*
X308398Y782523D02*
X304834Y778959D01*
X308398Y784997D02*
X304834Y788561D01*
X309635Y746010D02*
Y740970D01*
Y749510D02*
Y754550D01*
Y770010D02*
Y764970D01*
Y773510D02*
Y778550D01*
X310872Y758523D02*
X314436Y754959D01*
X310872Y760997D02*
X314436Y764561D01*
X310872Y782523D02*
X314436Y778959D01*
X310872Y784997D02*
X314436Y788561D01*
X310885Y339760D02*
X305845D01*
X310885Y363760D02*
X305845D01*
X310885Y387760D02*
X305845D01*
X311385Y747760D02*
X316425D01*
X311385Y771760D02*
X316425D01*
X312635Y338010D02*
Y332970D01*
Y341510D02*
Y346550D01*
Y362010D02*
Y356970D01*
Y365510D02*
Y370550D01*
Y386010D02*
Y380970D01*
Y389510D02*
Y394550D01*
X314385Y339760D02*
X319425D01*
X314385Y363760D02*
X319425D01*
X314385Y387760D02*
X319425D01*
X319885Y759760D02*
X314845D01*
X319885Y783760D02*
X314845D01*
X320398Y746523D02*
X316834Y742959D01*
X320398Y748997D02*
X316834Y752561D01*
X320398Y770523D02*
X316834Y766959D01*
X320398Y772997D02*
X316834Y776561D01*
X321635Y758010D02*
Y752970D01*
Y761510D02*
Y766550D01*
Y782010D02*
Y776970D01*
Y785510D02*
Y790550D01*
X322872Y746523D02*
X326436Y742959D01*
X322872Y748997D02*
X326436Y752561D01*
X322872Y770523D02*
X326436Y766959D01*
X322872Y772997D02*
X326436Y776561D01*
X322885Y351760D02*
X317845D01*
X322885Y375760D02*
X317845D01*
X322885Y399760D02*
X317845D01*
X323385Y759760D02*
X328425D01*
X323385Y783760D02*
X328425D01*
X324635Y350010D02*
Y344970D01*
Y353510D02*
Y358550D01*
Y374010D02*
Y368970D01*
Y377510D02*
Y382550D01*
Y398010D02*
Y392970D01*
Y401510D02*
Y406550D01*
X326385Y351760D02*
X331425D01*
X326385Y375760D02*
X331425D01*
X326385Y399760D02*
X331425D01*
X334885Y339760D02*
X329845D01*
X334885Y363760D02*
X329845D01*
X334885Y387760D02*
X329845D01*
X336635Y338010D02*
Y332970D01*
Y341510D02*
Y346550D01*
Y362010D02*
Y356970D01*
Y365510D02*
Y370550D01*
Y386010D02*
Y380970D01*
Y389510D02*
Y394550D01*
X338385Y339760D02*
X343425D01*
X338385Y363760D02*
X343425D01*
X338385Y387760D02*
X343425D01*
X346885Y351760D02*
X341845D01*
X348635Y350010D02*
Y344970D01*
Y353510D02*
Y358550D01*
X350385Y351760D02*
X355425D01*
X357885Y759760D02*
X352845D01*
X357885Y783760D02*
X352845D01*
X358398Y746523D02*
X354834Y742959D01*
X358398Y748997D02*
X354834Y752561D01*
X358398Y770523D02*
X354834Y766959D01*
X358398Y772997D02*
X354834Y776561D01*
X358885Y339760D02*
X353845D01*
X358885Y363760D02*
X353845D01*
X359635Y758010D02*
Y752970D01*
Y761510D02*
Y766550D01*
Y782010D02*
Y776970D01*
Y785510D02*
Y790550D01*
X360635Y338010D02*
Y332970D01*
Y341510D02*
Y346550D01*
Y362010D02*
Y356970D01*
Y365510D02*
Y370550D01*
X360872Y746523D02*
X364436Y742959D01*
X360872Y748997D02*
X364436Y752561D01*
X360872Y770523D02*
X364436Y766959D01*
X360872Y772997D02*
X364436Y776561D01*
X361385Y759760D02*
X366425D01*
X361385Y783760D02*
X366425D01*
X362385Y339760D02*
X367425D01*
X362385Y363760D02*
X367425D01*
X369885Y747760D02*
X364845D01*
X369885Y771760D02*
X364845D01*
X370398Y758523D02*
X366834Y754959D01*
X370398Y760997D02*
X366834Y764561D01*
X370398Y782523D02*
X366834Y778959D01*
X370398Y784997D02*
X366834Y788561D01*
X370885Y351760D02*
X365845D01*
X371635Y746010D02*
Y740970D01*
Y749510D02*
Y754550D01*
Y770010D02*
Y764970D01*
Y773510D02*
Y778550D01*
X372635Y350010D02*
Y344970D01*
Y353510D02*
Y358550D01*
X372872Y758523D02*
X376436Y754959D01*
X372872Y760997D02*
X376436Y764561D01*
X372872Y782523D02*
X376436Y778959D01*
X372872Y784997D02*
X376436Y788561D01*
X373385Y747760D02*
X378425D01*
X373385Y771760D02*
X378425D01*
X374385Y351760D02*
X379425D01*
X381885Y759760D02*
X376845D01*
X381885Y783760D02*
X376845D01*
X382398Y746523D02*
X378834Y742959D01*
X382398Y748997D02*
X378834Y752561D01*
X382398Y770523D02*
X378834Y766959D01*
X382398Y772997D02*
X378834Y776561D01*
X382885Y339760D02*
X377845D01*
X382885Y363760D02*
X377845D01*
X383635Y758010D02*
Y752970D01*
Y761510D02*
Y766550D01*
Y782010D02*
Y776970D01*
Y785510D02*
Y790550D01*
X384635Y338010D02*
Y332970D01*
Y341510D02*
Y346550D01*
Y362010D02*
Y356970D01*
Y365510D02*
Y370550D01*
X384872Y746523D02*
X388436Y742959D01*
X384872Y748997D02*
X388436Y752561D01*
X384872Y770523D02*
X388436Y766959D01*
X384872Y772997D02*
X388436Y776561D01*
X385385Y759760D02*
X390425D01*
X385385Y783760D02*
X390425D01*
X386385Y339760D02*
X391425D01*
X386385Y363760D02*
X391425D01*
X394885Y351760D02*
X389845D01*
X396635Y350010D02*
Y344970D01*
Y353510D02*
Y358550D01*
X398385Y351760D02*
X403425D01*
X406885Y339760D02*
X401845D01*
X406885Y363760D02*
X401845D01*
X408635Y338010D02*
Y332970D01*
Y341510D02*
Y346550D01*
Y362010D02*
Y356970D01*
Y365510D02*
Y370550D01*
X410385Y339760D02*
X415425D01*
X410385Y363760D02*
X415425D01*
X430885Y387760D02*
X425845D01*
X432635Y386010D02*
Y380970D01*
Y389510D02*
Y394550D01*
X434385Y387760D02*
X439425D01*
X441385Y777760D02*
X436170D01*
X442885Y375760D02*
X437845D01*
X442885Y399760D02*
X437845D01*
X443135Y776010D02*
Y770795D01*
Y779510D02*
Y784725D01*
X444635Y374010D02*
Y368970D01*
Y377510D02*
Y382550D01*
Y398010D02*
Y392970D01*
Y401510D02*
Y406550D01*
X444885Y777760D02*
X450100D01*
X446385Y375760D02*
X451425D01*
X446385Y399760D02*
X451425D01*
X454885Y387760D02*
X449845D01*
X456635Y386010D02*
Y380970D01*
Y389510D02*
Y394550D01*
X458385Y387760D02*
X463425D01*
X466885Y375760D02*
X461845D01*
X466885Y399760D02*
X461845D01*
X468635Y374010D02*
Y368970D01*
Y377510D02*
Y382550D01*
Y398010D02*
Y392970D01*
Y401510D02*
Y406550D01*
X470385Y375760D02*
X475425D01*
X470385Y399760D02*
X475425D01*
X478885Y339760D02*
X473845D01*
X478885Y363760D02*
X473845D01*
X478885Y387760D02*
X473845D01*
X480635Y338010D02*
Y332970D01*
Y341510D02*
Y346550D01*
Y362010D02*
Y356970D01*
Y365510D02*
Y370550D01*
Y386010D02*
Y380970D01*
Y389510D02*
Y394550D01*
X482385Y339760D02*
X487425D01*
X482385Y363760D02*
X487425D01*
X482385Y387760D02*
X487425D01*
X490885Y399760D02*
X485845D01*
X492635Y398010D02*
Y392970D01*
Y401510D02*
Y406550D01*
X494385Y399760D02*
X499425D01*
X529885Y627760D02*
X524845D01*
X529885Y651760D02*
X524845D01*
X530398Y638523D02*
X526834Y634959D01*
X530398Y640997D02*
X526834Y644561D01*
X530398Y662523D02*
X526834Y658959D01*
X530398Y664997D02*
X526834Y668561D01*
X530885Y381760D02*
X525845D01*
X531398Y392523D02*
X527834Y388959D01*
X531398Y394997D02*
X527834Y398561D01*
X531635Y626010D02*
Y620970D01*
Y629510D02*
Y634550D01*
Y650010D02*
Y644970D01*
Y653510D02*
Y658550D01*
X532635Y380010D02*
Y374970D01*
Y383510D02*
Y388550D01*
X532872Y638523D02*
X536436Y634959D01*
X532872Y640997D02*
X536436Y644561D01*
X532872Y662523D02*
X536436Y658959D01*
X532872Y664997D02*
X536436Y668561D01*
X533385Y627760D02*
X538425D01*
X533385Y651760D02*
X538425D01*
X533872Y392523D02*
X537436Y388959D01*
X533872Y394997D02*
X537436Y398561D01*
X534385Y381760D02*
X539425D01*
X541885Y639760D02*
X536845D01*
X541885Y663760D02*
X536845D01*
X542398Y626523D02*
X538834Y622959D01*
X542398Y628997D02*
X538834Y632561D01*
X542398Y650523D02*
X538834Y646959D01*
X542398Y652997D02*
X538834Y656561D01*
X542885Y393760D02*
X537845D01*
X543398Y380523D02*
X539834Y376959D01*
X543398Y382997D02*
X539834Y386561D01*
X543635Y638010D02*
Y632970D01*
Y641510D02*
Y646550D01*
Y662010D02*
Y656970D01*
Y665510D02*
Y670550D01*
X544635Y392010D02*
Y386970D01*
Y395510D02*
Y400550D01*
X544872Y626523D02*
X548436Y622959D01*
X544872Y628997D02*
X548436Y632561D01*
X544872Y650523D02*
X548436Y646959D01*
X544872Y652997D02*
X548436Y656561D01*
X545385Y639760D02*
X550425D01*
X545385Y663760D02*
X550425D01*
X545872Y380523D02*
X549436Y376959D01*
X545872Y382997D02*
X549436Y386561D01*
X546385Y393760D02*
X551425D01*
X553885Y627760D02*
X548845D01*
X554398Y638523D02*
X550834Y634959D01*
X554398Y640997D02*
X550834Y644561D01*
X554885Y381760D02*
X549845D01*
X555635Y626010D02*
Y620970D01*
Y629510D02*
Y634550D01*
X556635Y380010D02*
Y374970D01*
Y383510D02*
Y388550D01*
X556872Y638523D02*
X560436Y634959D01*
X556872Y640997D02*
X560436Y644561D01*
X557385Y627760D02*
X562425D01*
X558385Y381760D02*
X563425D01*
X568385Y347760D02*
X563345D01*
X575135Y341010D02*
Y335970D01*
Y354510D02*
Y359550D01*
X581885Y347760D02*
X586925D01*
X597398Y722523D02*
X593710Y718835D01*
X597398Y724997D02*
X593710Y728685D01*
X597885Y653760D02*
X592670D01*
X598865Y576760D02*
X593825D01*
X599635Y652010D02*
Y646795D01*
Y655510D02*
Y660725D01*
X599872Y722523D02*
X603560Y718835D01*
X599872Y724997D02*
X603560Y728685D01*
X601385Y653760D02*
X606600D01*
X605235Y570390D02*
Y565350D01*
Y583130D02*
Y588170D01*
X605885Y723760D02*
X600670D01*
X606885Y668760D02*
X601670D01*
X607635Y722010D02*
Y716795D01*
Y725510D02*
Y730725D01*
X608635Y667010D02*
Y661795D01*
Y670510D02*
Y675725D01*
X609385Y723760D02*
X614600D01*
X610385Y668760D02*
X615600D01*
X611605Y576760D02*
X616645D01*
X614885Y411760D02*
X609845D01*
X615398Y398523D02*
X611834Y394959D01*
X615398Y400997D02*
X611834Y404561D01*
X615398Y422523D02*
X611834Y418959D01*
X615398Y424997D02*
X611834Y428561D01*
X616635Y410010D02*
Y404970D01*
Y413510D02*
Y418550D01*
X617872Y398523D02*
X621436Y394959D01*
X617872Y400997D02*
X621436Y404561D01*
X617872Y422523D02*
X621436Y418959D01*
X617872Y424997D02*
X621436Y428561D01*
X618385Y411760D02*
X623425D01*
X618885Y533760D02*
X613845D01*
X620635Y532010D02*
Y526970D01*
Y535510D02*
Y540550D01*
X622385Y533760D02*
X627425D01*
X626885Y423760D02*
X621845D01*
X627398Y410523D02*
X623834Y406959D01*
X627398Y412997D02*
X623834Y416561D01*
X628635Y422010D02*
Y416970D01*
Y425510D02*
Y430550D01*
X629872Y410523D02*
X633436Y406959D01*
X629872Y412997D02*
X633436Y416561D01*
X630385Y423760D02*
X635425D01*
X630885Y521760D02*
X625845D01*
X631398Y532523D02*
X627834Y528959D01*
X631398Y534997D02*
X627834Y538561D01*
X632635Y520010D02*
Y514970D01*
Y523510D02*
Y528550D01*
X633872Y532523D02*
X637436Y528959D01*
X633872Y534997D02*
X637436Y538561D01*
X634385Y521760D02*
X639425D01*
X642885Y533760D02*
X637845D01*
X643385Y790260D02*
X638345D01*
X643398Y520523D02*
X639834Y516959D01*
X643398Y522997D02*
X639834Y526561D01*
X644635Y532010D02*
Y526970D01*
Y535510D02*
Y540550D01*
X645872Y520523D02*
X649436Y516959D01*
X645872Y522997D02*
X649436Y526561D01*
X646385Y533760D02*
X651425D01*
X650135Y783510D02*
Y778470D01*
Y797010D02*
Y802050D01*
X655885Y714760D02*
X650845D01*
X655885Y738760D02*
X650845D01*
X656398Y701523D02*
X652834Y697959D01*
X656398Y703997D02*
X652834Y707561D01*
X656398Y725523D02*
X652834Y721959D01*
X656398Y727997D02*
X652834Y731561D01*
X656885Y790260D02*
X661925D01*
X657635Y713010D02*
Y707970D01*
Y716510D02*
Y721550D01*
Y737010D02*
Y731970D01*
Y740510D02*
Y745550D01*
X658872Y701523D02*
X662436Y697959D01*
X658872Y703997D02*
X662436Y707561D01*
X658872Y725523D02*
X662436Y721959D01*
X658872Y727997D02*
X662436Y731561D01*
X659385Y714760D02*
X664425D01*
X659385Y738760D02*
X664425D01*
X664365Y538560D02*
X659325D01*
X667885Y702760D02*
X662845D01*
X667885Y726760D02*
X662845D01*
X668398Y713523D02*
X664710Y709835D01*
X668398Y715997D02*
X664710Y719685D01*
X668398Y737523D02*
X664834Y733959D01*
X668398Y739997D02*
X664834Y743561D01*
X669635Y701010D02*
Y695970D01*
Y704510D02*
Y709550D01*
Y725010D02*
Y719970D01*
Y728510D02*
Y733550D01*
X670735Y532190D02*
Y527150D01*
Y544930D02*
Y549970D01*
X670872Y713523D02*
X674560Y709835D01*
X670872Y715997D02*
X674560Y719685D01*
X670872Y737523D02*
X674436Y733959D01*
X670872Y739997D02*
X674436Y743561D01*
X671385Y702760D02*
X676425D01*
X671385Y726760D02*
X676425D01*
X677105Y538560D02*
X682145D01*
X686885Y440760D02*
X681845D01*
X687398Y427523D02*
X683834Y423959D01*
X687398Y429997D02*
X683834Y433561D01*
X687398Y451523D02*
X683834Y447959D01*
X687398Y453997D02*
X683834Y457561D01*
X688635Y439010D02*
Y433970D01*
Y442510D02*
Y447550D01*
X689765Y538560D02*
X684725D01*
X689872Y427523D02*
X693436Y423959D01*
X689872Y429997D02*
X693436Y433561D01*
X689872Y451523D02*
X693436Y447959D01*
X689872Y453997D02*
X693436Y457561D01*
X690385Y440760D02*
X695425D01*
X696135Y532190D02*
Y527150D01*
Y544930D02*
Y549970D01*
X698885Y452760D02*
X693845D01*
X699398Y439523D02*
X695834Y435959D01*
X699398Y441997D02*
X695834Y445561D01*
X700635Y451010D02*
Y445970D01*
Y454510D02*
Y459550D01*
X701872Y439523D02*
X705436Y435959D01*
X701872Y441997D02*
X705436Y445561D01*
X702385Y452760D02*
X707425D01*
X702505Y538560D02*
X707545D01*
X707885Y658760D02*
X702670D01*
X709635Y657010D02*
Y651795D01*
Y660510D02*
Y665725D01*
X711385Y658760D02*
X716600D01*
X718385Y347760D02*
X713345D01*
X718385Y790260D02*
X713345D01*
X725135Y341010D02*
Y335970D01*
Y354510D02*
Y359550D01*
Y783510D02*
Y778470D01*
Y797010D02*
Y802050D01*
X731885Y347760D02*
X736925D01*
X731885Y790260D02*
X736925D01*
X734885Y681760D02*
X729845D01*
X736635Y680010D02*
Y674970D01*
Y683510D02*
Y688550D01*
X738385Y681760D02*
X743425D01*
X760885Y606260D02*
X755670D01*
X762635Y604510D02*
Y599295D01*
Y608010D02*
Y613225D01*
X764385Y606260D02*
X769600D01*
D02*
D83*
X71635Y471760D02*
D03*
Y533760D02*
D03*
Y595760D02*
D03*
Y657760D02*
D03*
D02*
D89*
X33635Y38760D02*
D03*
Y63760D02*
D03*
Y88760D02*
D03*
Y113760D02*
D03*
Y138760D02*
D03*
Y163760D02*
D03*
Y188760D02*
D03*
Y213760D02*
D03*
Y238760D02*
D03*
Y263760D02*
D03*
X473635Y38760D02*
D03*
Y63760D02*
D03*
Y88760D02*
D03*
Y113760D02*
D03*
Y138760D02*
D03*
Y163760D02*
D03*
Y188760D02*
D03*
Y213760D02*
D03*
Y238760D02*
D03*
Y263760D02*
D03*
X525135Y347760D02*
D03*
Y790260D02*
D03*
X550135Y347760D02*
D03*
Y790260D02*
D03*
X575135Y347760D02*
D03*
Y790260D02*
D03*
X600135Y347760D02*
D03*
Y790260D02*
D03*
X625135Y347760D02*
D03*
Y790260D02*
D03*
X650135Y347760D02*
D03*
Y790260D02*
D03*
X675135Y347760D02*
D03*
Y790260D02*
D03*
X700135Y347760D02*
D03*
Y790260D02*
D03*
X725135Y347760D02*
D03*
Y790260D02*
D03*
X750135Y347760D02*
D03*
Y790260D02*
D03*
D02*
D105*
X54635Y81760D02*
D03*
X58635Y115760D02*
D03*
X71635Y242760D02*
D03*
X78635Y219760D02*
D03*
Y231760D02*
D03*
X90635Y219760D02*
D03*
Y231760D02*
D03*
X91635Y66760D02*
D03*
X92635Y143760D02*
D03*
Y155760D02*
D03*
Y167760D02*
D03*
X97635Y59760D02*
D03*
Y86760D02*
D03*
X98635Y589760D02*
D03*
Y601760D02*
D03*
Y613760D02*
D03*
X99635Y505760D02*
D03*
Y517760D02*
D03*
Y529760D02*
D03*
X102635Y207760D02*
D03*
Y219760D02*
D03*
X103635Y275760D02*
D03*
X104635Y143760D02*
D03*
Y155760D02*
D03*
Y167760D02*
D03*
X110635Y589760D02*
D03*
Y601760D02*
D03*
Y613760D02*
D03*
X111635Y505760D02*
D03*
Y517760D02*
D03*
Y529760D02*
D03*
X116635Y143760D02*
D03*
Y155760D02*
D03*
Y167760D02*
D03*
X120635Y339760D02*
D03*
Y363760D02*
D03*
X120745Y237760D02*
D03*
X122635Y577760D02*
D03*
Y589760D02*
D03*
Y601760D02*
D03*
Y613760D02*
D03*
X123635Y505760D02*
D03*
Y517760D02*
D03*
Y529760D02*
D03*
Y541760D02*
D03*
Y553760D02*
D03*
X124635Y288760D02*
D03*
X132635Y351760D02*
D03*
X134635Y577760D02*
D03*
Y589760D02*
D03*
Y601760D02*
D03*
Y613760D02*
D03*
X135635Y493760D02*
D03*
Y505760D02*
D03*
Y517760D02*
D03*
Y529760D02*
D03*
Y541760D02*
D03*
Y553760D02*
D03*
X138635Y28560D02*
D03*
Y41260D02*
D03*
Y53960D02*
D03*
Y66760D02*
D03*
Y79360D02*
D03*
Y92060D02*
D03*
Y104760D02*
D03*
Y117460D02*
D03*
X144635Y339760D02*
D03*
Y363760D02*
D03*
X146635Y577760D02*
D03*
Y589760D02*
D03*
Y601760D02*
D03*
Y613760D02*
D03*
X147635Y493760D02*
D03*
Y505760D02*
D03*
Y517760D02*
D03*
Y529760D02*
D03*
Y541760D02*
D03*
Y553760D02*
D03*
X152635Y248760D02*
D03*
X156635Y351760D02*
D03*
X158635Y267760D02*
D03*
X166635Y41260D02*
D03*
Y53960D02*
D03*
X168635Y339760D02*
D03*
Y363760D02*
D03*
X170635Y657760D02*
D03*
Y669760D02*
D03*
Y681760D02*
D03*
Y693760D02*
D03*
Y747760D02*
D03*
Y759760D02*
D03*
Y771760D02*
D03*
Y783760D02*
D03*
X175635Y72760D02*
D03*
X180635Y224760D02*
D03*
Y351760D02*
D03*
X181635Y508760D02*
D03*
X182635Y657760D02*
D03*
Y669760D02*
D03*
Y681760D02*
D03*
Y693760D02*
D03*
Y747760D02*
D03*
Y759760D02*
D03*
Y771760D02*
D03*
Y783760D02*
D03*
X184635Y68760D02*
D03*
X187635Y130760D02*
D03*
Y142760D02*
D03*
X188635Y224760D02*
D03*
X191635Y41760D02*
D03*
X192635Y29760D02*
D03*
Y339760D02*
D03*
Y363760D02*
D03*
X193635Y68760D02*
D03*
Y508760D02*
D03*
X194635Y747760D02*
D03*
Y759760D02*
D03*
Y771760D02*
D03*
Y783760D02*
D03*
X195635Y182760D02*
D03*
X199635Y130760D02*
D03*
Y142760D02*
D03*
X200635Y72760D02*
D03*
X204635Y351760D02*
D03*
X205635Y230760D02*
D03*
Y508760D02*
D03*
X206635Y79760D02*
D03*
Y100760D02*
D03*
X211635Y130760D02*
D03*
Y142760D02*
D03*
Y256510D02*
D03*
X212635Y293510D02*
D03*
X213635Y48760D02*
D03*
Y107760D02*
D03*
X214635Y268760D02*
D03*
X216635Y339760D02*
D03*
Y363760D02*
D03*
X220635Y211760D02*
D03*
X221635Y48760D02*
D03*
Y508760D02*
D03*
X227635Y54760D02*
D03*
X228635Y351760D02*
D03*
X229635Y62760D02*
D03*
X230635Y211760D02*
D03*
X232635Y747760D02*
D03*
Y759760D02*
D03*
Y771760D02*
D03*
Y783760D02*
D03*
X233635Y508760D02*
D03*
X240635Y181760D02*
D03*
Y339760D02*
D03*
Y363760D02*
D03*
Y657760D02*
D03*
Y669760D02*
D03*
Y681760D02*
D03*
Y693760D02*
D03*
X244635Y189760D02*
D03*
Y747760D02*
D03*
Y759760D02*
D03*
Y771760D02*
D03*
Y783760D02*
D03*
X245635Y209760D02*
D03*
Y508760D02*
D03*
X252635Y351760D02*
D03*
Y657760D02*
D03*
Y669760D02*
D03*
Y681760D02*
D03*
Y693760D02*
D03*
X253635Y585760D02*
D03*
X256635Y241760D02*
D03*
Y747760D02*
D03*
Y759760D02*
D03*
Y771760D02*
D03*
Y783760D02*
D03*
X263635Y235760D02*
D03*
Y488760D02*
D03*
Y500760D02*
D03*
Y512760D02*
D03*
Y524760D02*
D03*
Y536760D02*
D03*
X264635Y339760D02*
D03*
Y363760D02*
D03*
Y387760D02*
D03*
X270635Y83760D02*
D03*
Y103760D02*
D03*
Y123760D02*
D03*
Y143760D02*
D03*
X275635Y488760D02*
D03*
Y500760D02*
D03*
Y512760D02*
D03*
Y524760D02*
D03*
Y536760D02*
D03*
X276635Y351760D02*
D03*
Y375760D02*
D03*
Y399760D02*
D03*
X279635Y234760D02*
D03*
X280635Y73760D02*
D03*
Y93760D02*
D03*
Y113760D02*
D03*
Y133760D02*
D03*
X287635Y488760D02*
D03*
Y500760D02*
D03*
Y512760D02*
D03*
Y524760D02*
D03*
Y536760D02*
D03*
X288635Y339760D02*
D03*
Y363760D02*
D03*
Y387760D02*
D03*
X290635Y83760D02*
D03*
Y103760D02*
D03*
Y123760D02*
D03*
Y143760D02*
D03*
X291635Y234760D02*
D03*
X297635Y747760D02*
D03*
Y759760D02*
D03*
Y771760D02*
D03*
Y783760D02*
D03*
X300635Y73760D02*
D03*
Y93760D02*
D03*
Y113760D02*
D03*
Y133760D02*
D03*
Y351760D02*
D03*
Y375760D02*
D03*
Y399760D02*
D03*
X301635Y28760D02*
D03*
X307635Y488760D02*
D03*
Y500760D02*
D03*
Y512760D02*
D03*
Y524760D02*
D03*
Y536760D02*
D03*
X309635Y747760D02*
D03*
Y759760D02*
D03*
Y771760D02*
D03*
Y783760D02*
D03*
X310635Y83760D02*
D03*
Y103760D02*
D03*
Y123760D02*
D03*
Y143760D02*
D03*
Y657760D02*
D03*
Y669760D02*
D03*
Y681760D02*
D03*
Y693760D02*
D03*
X312635Y339760D02*
D03*
Y363760D02*
D03*
Y387760D02*
D03*
X319635Y488760D02*
D03*
Y500760D02*
D03*
Y512760D02*
D03*
Y524760D02*
D03*
Y536760D02*
D03*
X320635Y73760D02*
D03*
Y93760D02*
D03*
Y113760D02*
D03*
Y133760D02*
D03*
X321635Y243760D02*
D03*
Y747760D02*
D03*
Y759760D02*
D03*
Y771760D02*
D03*
Y783760D02*
D03*
X322635Y657760D02*
D03*
Y669760D02*
D03*
Y681760D02*
D03*
Y693760D02*
D03*
X324635Y351760D02*
D03*
Y375760D02*
D03*
Y399760D02*
D03*
X330635Y83760D02*
D03*
Y103760D02*
D03*
Y123760D02*
D03*
Y143760D02*
D03*
X331635Y243760D02*
D03*
Y488760D02*
D03*
Y500760D02*
D03*
Y512760D02*
D03*
Y524760D02*
D03*
Y536760D02*
D03*
X335635Y28760D02*
D03*
X336635Y339760D02*
D03*
Y363760D02*
D03*
Y387760D02*
D03*
X340635Y73760D02*
D03*
Y93760D02*
D03*
Y113760D02*
D03*
Y133760D02*
D03*
X344635Y226760D02*
D03*
X347635Y585760D02*
D03*
X348635Y351760D02*
D03*
X350635Y508760D02*
D03*
X353635Y226760D02*
D03*
X359635Y37760D02*
D03*
Y747760D02*
D03*
Y759760D02*
D03*
Y771760D02*
D03*
Y783760D02*
D03*
X360635Y339760D02*
D03*
Y363760D02*
D03*
X362635Y508760D02*
D03*
X363635Y226760D02*
D03*
X367635Y31760D02*
D03*
X370635Y657760D02*
D03*
Y669760D02*
D03*
Y681760D02*
D03*
Y693760D02*
D03*
X371635Y747760D02*
D03*
Y759760D02*
D03*
Y771760D02*
D03*
Y783760D02*
D03*
X372635Y226760D02*
D03*
Y351760D02*
D03*
X374635Y508760D02*
D03*
X375635Y25760D02*
D03*
X382635Y19760D02*
D03*
Y657760D02*
D03*
Y669760D02*
D03*
Y681760D02*
D03*
Y693760D02*
D03*
X383635Y747760D02*
D03*
Y759760D02*
D03*
Y771760D02*
D03*
Y783760D02*
D03*
X384635Y339760D02*
D03*
Y363760D02*
D03*
X390635Y508760D02*
D03*
X396635Y351760D02*
D03*
X399635Y245760D02*
D03*
X402635Y508760D02*
D03*
X408635Y339760D02*
D03*
Y363760D02*
D03*
X413635Y295760D02*
D03*
X414635Y508760D02*
D03*
X420635Y232760D02*
D03*
X429135Y293760D02*
D03*
X432635Y387760D02*
D03*
X443135Y777760D02*
D03*
X444635Y375760D02*
D03*
Y399760D02*
D03*
X447635Y138760D02*
D03*
Y192410D02*
D03*
X456635Y163760D02*
D03*
Y205110D02*
D03*
Y387760D02*
D03*
X458635Y557760D02*
D03*
Y569760D02*
D03*
Y581760D02*
D03*
Y593760D02*
D03*
X468635Y375760D02*
D03*
Y399760D02*
D03*
Y759760D02*
D03*
X470635Y557760D02*
D03*
Y569760D02*
D03*
Y581760D02*
D03*
Y593760D02*
D03*
Y684760D02*
D03*
X474635Y668760D02*
D03*
X475635Y632760D02*
D03*
X478635Y647760D02*
D03*
X480635Y339760D02*
D03*
Y363760D02*
D03*
Y387760D02*
D03*
X490635Y680760D02*
D03*
Y692760D02*
D03*
X491635Y468760D02*
D03*
X492635Y399760D02*
D03*
X498635Y477760D02*
D03*
X502635Y665760D02*
D03*
Y680760D02*
D03*
Y692760D02*
D03*
X531635Y409760D02*
D03*
Y627760D02*
D03*
Y639760D02*
D03*
Y651760D02*
D03*
Y663760D02*
D03*
X532635Y381760D02*
D03*
Y393760D02*
D03*
X543635Y627760D02*
D03*
Y639760D02*
D03*
Y651760D02*
D03*
Y663760D02*
D03*
X544635Y381760D02*
D03*
Y393760D02*
D03*
X555635Y627760D02*
D03*
Y639760D02*
D03*
X556635Y381760D02*
D03*
X557635Y653760D02*
D03*
X559635Y726160D02*
D03*
X598635Y707760D02*
D03*
Y723760D02*
D03*
X599635Y637760D02*
D03*
Y653760D02*
D03*
X600635Y483760D02*
D03*
X607635Y707760D02*
D03*
Y723760D02*
D03*
X608635Y668760D02*
D03*
X609635Y641760D02*
D03*
X613635Y623760D02*
D03*
X616635Y399760D02*
D03*
Y411760D02*
D03*
Y423760D02*
D03*
X620635Y533760D02*
D03*
X627635Y511760D02*
D03*
X628635Y411760D02*
D03*
Y423760D02*
D03*
X632635Y521760D02*
D03*
Y533760D02*
D03*
X644635Y521760D02*
D03*
Y533760D02*
D03*
X654635Y680760D02*
D03*
X657635Y702760D02*
D03*
Y714760D02*
D03*
Y726760D02*
D03*
Y738760D02*
D03*
X669635Y702760D02*
D03*
Y714760D02*
D03*
Y726760D02*
D03*
Y738760D02*
D03*
X688635Y428760D02*
D03*
Y440760D02*
D03*
Y452760D02*
D03*
X700635Y440760D02*
D03*
Y452760D02*
D03*
X702635Y638760D02*
D03*
Y652760D02*
D03*
X709635Y658760D02*
D03*
X726635Y734760D02*
D03*
X736635Y681760D02*
D03*
X762635Y606260D02*
D03*
X0Y0D02*
M02*
