%FSLAX34Y34*%
%MOMM*%
G04 EasyPC Gerber Version 18.0.6 Build 3620 *
%ADD20R,0.65000X1.00000*%
%ADD88R,0.80000X0.90000*%
%ADD107R,0.80000X1.00000*%
%ADD77R,1.01000X1.50000*%
%ADD24R,1.70000X2.76000*%
%ADD14C,1.52400*%
%ADD89C,1.60000*%
%ADD22C,1.70000*%
%ADD83C,3.50000*%
%ADD13C,5.00000*%
%ADD104R,0.75000X0.50000*%
%ADD25R,1.00000X0.65000*%
%ADD86R,1.30000X0.76000*%
%ADD26R,1.60000X0.76000*%
%ADD108R,0.90000X0.80000*%
%ADD111R,1.00000X0.80000*%
%ADD109R,2.20000X0.80000*%
%ADD21R,1.30000X0.90000*%
%ADD23R,1.50000X1.01000*%
%ADD110R,1.90000X1.10000*%
%ADD78R,2.76000X1.70000*%
X0Y0D02*
D02*
D13*
X25635Y338760D02*
D03*
Y788760D02*
D03*
X445635Y338760D02*
D03*
X774635Y413760D02*
D03*
Y713760D02*
D03*
D02*
D14*
X462635Y672760D02*
D03*
Y698160D02*
D03*
Y723560D02*
D03*
X579835Y576760D02*
D03*
X605235D02*
D03*
X630635D02*
D03*
X670735Y513160D02*
D03*
Y538560D02*
D03*
Y563960D02*
D03*
Y589360D02*
D03*
Y614760D02*
D03*
X696135Y513160D02*
D03*
Y538560D02*
D03*
Y563960D02*
D03*
Y589360D02*
D03*
Y614760D02*
D03*
D02*
D20*
X128885Y275760D02*
D03*
X144385D02*
D03*
X224885Y223760D02*
D03*
Y240760D02*
D03*
X240385Y223760D02*
D03*
Y240760D02*
D03*
X259885Y223760D02*
D03*
X275385D02*
D03*
X288885D02*
D03*
X304385D02*
D03*
X317885D02*
D03*
X333385D02*
D03*
X394885Y233760D02*
D03*
X402885Y162760D02*
D03*
X410385Y233760D02*
D03*
X418385Y162760D02*
D03*
X511885Y689760D02*
D03*
X527385D02*
D03*
X569885Y555160D02*
D03*
X575885Y457160D02*
D03*
X585385Y555160D02*
D03*
X591385Y457160D02*
D03*
X706885Y715760D02*
D03*
X722385D02*
D03*
X736885Y547760D02*
D03*
Y565760D02*
D03*
X752385Y547760D02*
D03*
Y565760D02*
D03*
D02*
D21*
X34385Y554010D02*
D03*
Y574010D02*
D03*
X106635Y553760D02*
D03*
Y573760D02*
D03*
X251635Y415760D02*
D03*
Y435760D02*
D03*
X253635Y553760D02*
D03*
Y573760D02*
D03*
X347635Y414760D02*
D03*
Y434760D02*
D03*
Y553760D02*
D03*
Y573760D02*
D03*
D02*
D22*
X237435Y263060D02*
D03*
Y288460D02*
D03*
X262835Y263060D02*
D03*
Y288460D02*
D03*
X288235Y263060D02*
D03*
Y288460D02*
D03*
X313635Y263060D02*
D03*
Y288460D02*
D03*
X339035Y263060D02*
D03*
Y288460D02*
D03*
X364435Y263060D02*
D03*
Y288460D02*
D03*
X389835Y263060D02*
D03*
Y288460D02*
D03*
D02*
D23*
X509435Y708760D02*
D03*
Y723760D02*
D03*
Y738760D02*
D03*
D02*
D24*
X543835Y723760D02*
D03*
D02*
D25*
X85635Y39010D02*
D03*
Y54510D02*
D03*
X201635Y241010D02*
D03*
Y256510D02*
D03*
Y278010D02*
D03*
Y293510D02*
D03*
X533635Y541410D02*
D03*
Y556910D02*
D03*
X534635Y511410D02*
D03*
Y526910D02*
D03*
X683635Y669010D02*
D03*
Y684510D02*
D03*
D02*
D26*
X375661Y179710D02*
D03*
Y192410D02*
D03*
Y205110D02*
D03*
Y217810D02*
D03*
X429619Y179710D02*
D03*
Y192410D02*
D03*
Y205110D02*
D03*
Y217810D02*
D03*
D02*
D77*
X565635Y497960D02*
D03*
X580635D02*
D03*
X595635D02*
D03*
D02*
D78*
X580635Y532360D02*
D03*
D02*
D83*
X71635Y471760D02*
D03*
Y533760D02*
D03*
Y595760D02*
D03*
Y657760D02*
D03*
D02*
D86*
X459635Y513160D02*
D03*
Y525860D02*
D03*
Y538560D02*
D03*
Y551260D02*
D03*
X513035Y513160D02*
D03*
Y525860D02*
D03*
Y538560D02*
D03*
Y551260D02*
D03*
D02*
D88*
X568135Y475160D02*
D03*
X591135D02*
D03*
D02*
D89*
X33635Y38760D02*
D03*
Y63760D02*
D03*
Y88760D02*
D03*
Y113760D02*
D03*
Y138760D02*
D03*
Y163760D02*
D03*
Y188760D02*
D03*
Y213760D02*
D03*
Y238760D02*
D03*
Y263760D02*
D03*
X473635Y38760D02*
D03*
Y63760D02*
D03*
Y88760D02*
D03*
Y113760D02*
D03*
Y138760D02*
D03*
Y163760D02*
D03*
Y188760D02*
D03*
Y213760D02*
D03*
Y238760D02*
D03*
Y263760D02*
D03*
X525135Y347760D02*
D03*
Y790260D02*
D03*
X550135Y347760D02*
D03*
Y790260D02*
D03*
X575135Y347760D02*
D03*
Y790260D02*
D03*
X600135Y347760D02*
D03*
Y790260D02*
D03*
X625135Y347760D02*
D03*
Y790260D02*
D03*
X650135Y347760D02*
D03*
Y790260D02*
D03*
X675135Y347760D02*
D03*
Y790260D02*
D03*
X700135Y347760D02*
D03*
Y790260D02*
D03*
X725135Y347760D02*
D03*
Y790260D02*
D03*
X750135Y347760D02*
D03*
Y790260D02*
D03*
D02*
D104*
X106585Y35560D02*
D03*
Y43560D02*
D03*
Y51560D02*
D03*
Y59560D02*
D03*
X107185Y86560D02*
D03*
Y94560D02*
D03*
Y102560D02*
D03*
Y110560D02*
D03*
X124085Y35560D02*
D03*
Y43560D02*
D03*
Y51560D02*
D03*
Y59560D02*
D03*
X124685Y86560D02*
D03*
Y94560D02*
D03*
Y102560D02*
D03*
Y110560D02*
D03*
D02*
D107*
X410135Y283870D02*
D03*
X419635Y259870D02*
D03*
X429135Y283870D02*
D03*
X704135Y695870D02*
D03*
X713635Y671870D02*
D03*
X723135Y695870D02*
D03*
D02*
D108*
X487635Y712260D02*
D03*
Y735260D02*
D03*
D02*
D109*
X744635Y606260D02*
D03*
Y621260D02*
D03*
Y636260D02*
D03*
Y651260D02*
D03*
D02*
D110*
X779135Y586510D02*
D03*
Y670760D02*
D03*
D02*
D111*
X120745Y248760D02*
D03*
X144745Y239260D02*
D03*
Y258260D02*
D03*
X160745Y248760D02*
D03*
Y286760D02*
D03*
X184745Y239260D02*
D03*
Y258260D02*
D03*
Y277260D02*
D03*
Y296260D02*
D03*
X0Y0D02*
M02*
