%FSLAX34Y34*%
%MOMM*%
G04 EasyPC Gerber Version 18.0.6 Build 3620 *
%ADD20R,0.65000X1.00000*%
%ADD88R,0.80000X0.90000*%
%ADD107R,0.80000X1.00000*%
%ADD77R,1.01000X1.50000*%
%ADD24R,1.70000X2.76000*%
%ADD10C,0.12700*%
%ADD106C,0.16000*%
%ADD82C,0.25000*%
%ADD11C,0.25400*%
%ADD76C,0.30000*%
%ADD105C,0.60000*%
%ADD75C,0.63500*%
%ADD72C,1.21920*%
%ADD14C,1.52400*%
%ADD89C,1.60000*%
%ADD22C,1.70000*%
%ADD83C,3.50000*%
%ADD13C,5.00000*%
%ADD104R,0.75000X0.50000*%
%ADD25R,1.00000X0.65000*%
%ADD86R,1.30000X0.76000*%
%ADD26R,1.60000X0.76000*%
%ADD108R,0.90000X0.80000*%
%ADD111R,1.00000X0.80000*%
%ADD109R,2.20000X0.80000*%
%ADD21R,1.30000X0.90000*%
%ADD23R,1.50000X1.01000*%
%ADD110R,1.90000X1.10000*%
%ADD78R,2.76000X1.70000*%
X0Y0D02*
D02*
D10*
X6985Y373110D02*
Y320110D01*
X495635*
Y368760*
X510635Y383760*
Y451760*
X508635Y453760*
X495635*
X461635Y419760*
X184635*
X109635Y494760*
X48635*
X45635Y497760*
Y558760*
X44635Y559760*
X19635*
X17635Y557760*
Y383760*
X6985Y373110*
G36*
Y320110*
X495635*
Y368760*
X510635Y383760*
Y451760*
X508635Y453760*
X495635*
X461635Y419760*
X184635*
X109635Y494760*
X48635*
X45635Y497760*
Y558760*
X44635Y559760*
X19635*
X17635Y557760*
Y383760*
X6985Y373110*
G37*
Y698110D02*
X49635Y740760D01*
X406635*
X412635Y746760*
Y807410*
X6985*
Y698110*
G36*
X49635Y740760*
X406635*
X412635Y746760*
Y807410*
X6985*
Y698110*
G37*
X22635Y684760D02*
Y571760D01*
X25635Y568760*
X45635*
Y621760*
X51635Y627760*
X131635*
X148635Y644760*
X427635*
Y697760*
X401635Y723760*
X61635*
X22635Y684760*
G36*
Y571760*
X25635Y568760*
X45635*
Y621760*
X51635Y627760*
X131635*
X148635Y644760*
X427635*
Y697760*
X401635Y723760*
X61635*
X22635Y684760*
G37*
X49635Y564760D02*
Y499760D01*
X51635Y497760*
X112635*
X185635Y424760*
X293635*
X294635Y425760*
Y561760*
X285635Y570760*
X269635*
X263635Y564760*
X245635*
X239635Y570760*
X148635*
X142635Y564760*
X49635*
G36*
Y499760*
X51635Y497760*
X112635*
X185635Y424760*
X293635*
X294635Y425760*
Y561760*
X285635Y570760*
X269635*
X263635Y564760*
X245635*
X239635Y570760*
X148635*
X142635Y564760*
X49635*
G37*
X53635Y623760D02*
X49635Y619760D01*
Y569760*
X50635Y568760*
X140635*
X149635Y577760*
X239635*
X242635Y580760*
Y587760*
X247635Y592760*
X260635*
X263635Y589760*
Y580760*
X267635Y576760*
X331635*
X334635Y579760*
Y590760*
X336635Y592760*
X358635*
X360635Y590760*
Y579760*
X363635Y576760*
X441635*
X423635Y594760*
Y595760*
X447635Y571760*
Y536760*
X449635Y534760*
X473635*
X476635Y537760*
Y597760*
X475635Y598760*
Y621760*
X456635Y640760*
X151635*
X134635Y623760*
X53635*
G36*
X49635Y619760*
Y569760*
X50635Y568760*
X140635*
X149635Y577760*
X239635*
X242635Y580760*
Y587760*
X247635Y592760*
X260635*
X263635Y589760*
Y580760*
X267635Y576760*
X331635*
X334635Y579760*
Y590760*
X336635Y592760*
X358635*
X360635Y590760*
Y579760*
X363635Y576760*
X441635*
X423635Y594760*
Y595760*
X447635Y571760*
Y536760*
X449635Y534760*
X473635*
X476635Y537760*
Y597760*
X475635Y598760*
Y621760*
X456635Y640760*
X151635*
X134635Y623760*
X53635*
G37*
X60993Y20110D02*
X50489Y30614D01*
G75*
G02X49600Y32760I2146J2146*
G01*
Y54503*
X43402Y60701*
G75*
G02X33635Y53525I-9767J3059*
G01*
G75*
G02Y73995J10235*
G01*
G75*
G02X43410Y66795J-10235*
G01*
X44635*
G75*
G02X45412Y66694J-3036*
G01*
G75*
G02X44600Y68760I2223J2066*
G01*
Y105503*
X42098Y108004*
G75*
G02X33635Y103525I-8463J5755*
G01*
G75*
G02Y123995J10235*
G01*
G75*
G02X43809Y114878J-10235*
G01*
X49781Y108906*
G75*
G02X50670Y106760I-2146J-2146*
G01*
Y85178*
G75*
G02X58900Y84795I3965J-3418*
G01*
X61635*
G75*
G02X63781Y83906J-3035*
G01*
X71892Y75795*
X134801*
G75*
G02X133473Y80230I3834J3564*
G01*
X130670Y83033*
Y81825*
X118700*
Y115295*
X130670*
Y113787*
X133473Y116590*
G75*
G02X138635Y122695I5162J870*
G01*
G75*
G02X143797Y116590J-5235*
G01*
X152781Y107606*
G75*
G02X153670Y105460I-2146J-2146*
G01*
Y99017*
X156892Y95795*
X194635*
G75*
G02X196781Y94906J-3035*
G01*
X206692Y84995*
G75*
G02X211846Y79264I-57J-5235*
G01*
X217600Y85017*
Y104342*
G75*
G02X211340Y103055I-3965J3419*
G01*
G75*
G02X202370Y97725I-4705J-2295*
G01*
X179635*
G75*
G02X177489Y98614J3035*
G01*
X166489Y109614*
G75*
G02X165600Y111760I2146J2146*
G01*
Y154760*
G75*
G02X166489Y156906I3035*
G01*
X179600Y170017*
Y219628*
G75*
G02X176321Y227725I1035J5132*
G01*
X171635*
G75*
G02X169489Y228614J3035*
G01*
X167489Y230614*
G75*
G02X166600Y232760I2146J2146*
G01*
Y242525*
X153510*
Y243599*
G75*
G02X152920Y243533I-876J5161*
G01*
Y232085*
X136570*
Y246435*
X147945*
G75*
G02X148543Y252025I4690J2325*
G01*
X137510*
Y264495*
X140950*
Y268525*
X138900*
Y282995*
X149870*
Y268525*
X147820*
Y264495*
X151980*
Y261295*
X166135*
G75*
G02X168281Y260406J-3035*
G01*
X171781Y256906*
G75*
G02X172670Y254760I-2146J-2146*
G01*
Y234017*
X172892Y233795*
X176570*
Y246435*
X192920*
Y233795*
X201370*
G75*
G02X202061Y234585I4266J-3034*
G01*
X193460*
Y247435*
X209810*
Y244869*
G75*
G02X210489Y245906I2826J-1109*
G01*
X218600Y254017*
Y297760*
G75*
G02X219489Y299906I3035*
G01*
X225489Y305906*
G75*
G02X227635Y306795I2146J-2146*
G01*
X260635*
G75*
G02X262781Y305906J-3035*
G01*
X264981Y303706*
G75*
G02X265870Y301560I-2146J-2146*
G01*
Y298757*
G75*
G02X273570Y288460I-3035J-10297*
G01*
G75*
G02X252100I-10735*
G01*
G75*
G02X259800Y298757I10735*
G01*
Y300303*
X259378Y300725*
X228892*
X224670Y296503*
Y252760*
G75*
G02X223781Y250614I-3035*
G01*
X221162Y247995*
X230370*
Y233525*
X220370*
Y231935*
X231310*
Y215585*
X224211*
G75*
G02X220635Y206524I-3576J-3825*
G01*
G75*
G02X216269Y208870J5235*
G01*
G75*
G02X215994Y209119I2370J2893*
G01*
X215670Y209443*
Y207017*
X222781Y199906*
G75*
G02X223458Y198875I-2146J-2147*
G01*
X230489Y205906*
G75*
G02X232635Y206795I2146J-2146*
G01*
X241321*
G75*
G02X244440Y214857I4315J2965*
G01*
X247600Y218017*
Y222433*
X246781Y221614*
G75*
G02X245870Y220988I-2145J2146*
G01*
Y216525*
X234900*
Y230995*
X243600*
Y233525*
X234900*
Y247995*
X237350*
Y252325*
G75*
G02X226700Y263060I85J10735*
G01*
G75*
G02X248170I10735*
G01*
G75*
G02X243420Y254148I-10735*
G01*
Y247995*
X243600*
Y250760*
G75*
G02X244489Y252906I3035*
G01*
X252348Y260765*
G75*
G02X252100Y263060I10488J2294*
G01*
G75*
G02X273570I10735*
G01*
G75*
G02X265977Y252795I-10735*
G01*
X279978*
X281715Y254532*
G75*
G02X277500Y263060I6520J8528*
G01*
G75*
G02X298970I10735*
G01*
G75*
G02X288093Y252326I-10735*
G01*
X283562Y247795*
X293378*
X298489Y252906*
G75*
G02X300635Y253795I2146J-2146*
G01*
X308213*
G75*
G02X302900Y263060I5422J9265*
G01*
G75*
G02X324370I10735*
G01*
G75*
G02X319057Y253795I-10735*
G01*
X324635*
G75*
G02X326781Y252906J-3035*
G01*
X330765Y248922*
G75*
G02X334670Y239495I870J-5162*
G01*
Y236017*
X335531Y235156*
G75*
G02X336420Y233010I-2146J-2146*
G01*
Y230995*
X338870*
Y218287*
X341600Y221017*
Y222495*
G75*
G02Y231025I3035J4265*
G01*
Y243760*
G75*
G02X342489Y245906I3035*
G01*
X343489Y246906*
G75*
G02X345635Y247795I2146J-2146*
G01*
X378578*
X384517Y253735*
G75*
G02X379100Y263060I5317J9325*
G01*
G75*
G02X400570I10735*
G01*
G75*
G02X400445Y261428I-10736J1*
G01*
X403200Y264183*
Y268337*
X399206Y272331*
G75*
G02X398200Y274760I2429J2429*
G01*
Y280316*
G75*
G02X378160Y288460I-8365J8144*
G01*
G75*
G02X398200Y296604I11675*
G01*
Y299337*
X396212Y301325*
X344058*
X342070Y299337*
Y298757*
G75*
G02X349770Y288460I-3035J-10297*
G01*
G75*
G02X328300I-10735*
G01*
G75*
G02X335200Y298487I10735*
G01*
Y300760*
G75*
G02X336206Y303189I3435*
G01*
X340206Y307189*
G75*
G02X340449Y307410I2427J-2425*
G01*
X6985*
Y20110*
X60993*
X33635Y28525D02*
G75*
G02Y48995J10235D01*
G01*
G75*
G02Y28525J-10235*
G01*
Y78525D02*
G75*
G02Y98995J10235D01*
G01*
G75*
G02Y78525J-10235*
G01*
X101200Y82625D02*
X100845D01*
G75*
G02X97635Y81525I-3210J4134*
G01*
G75*
G02Y91995J5235*
G01*
G75*
G02X100845Y90895J-5234*
G01*
X101200*
Y115295*
X113170*
Y81825*
X101200*
Y82625*
X54967Y112025D02*
X54635D01*
G75*
G02X50900Y115760J3735*
G01*
Y225760*
G75*
G02X51994Y228401I3735*
G01*
X66400Y242807*
G75*
G02X71635Y247995I5235J-47*
G01*
G75*
G02X71682Y237525J-5235*
G01*
X58370Y224213*
Y120988*
G75*
G02X58635Y120995I271J-5229*
G01*
G75*
G02Y110525J-5235*
G01*
G75*
G02X54967Y112025J5235*
G01*
X33635Y128525D02*
G75*
G02Y148995J10235D01*
G01*
G75*
G02Y128525J-10235*
G01*
Y152585D02*
G75*
G02Y174935J11175D01*
G01*
G75*
G02Y152585J-11175*
G01*
Y178525D02*
G75*
G02Y198995J10235D01*
G01*
G75*
G02Y178525J-10235*
G01*
X102635Y202525D02*
G75*
G02Y212995J5235D01*
G01*
G75*
G02Y202525J-5235*
G01*
X33635Y203525D02*
G75*
G02Y223995J10235D01*
G01*
G75*
G02Y203525J-10235*
G01*
X102635Y214525D02*
G75*
G02Y224995J5235D01*
G01*
G75*
G02Y214525J-5235*
G01*
X90635D02*
G75*
G02Y224995J5235D01*
G01*
G75*
G02Y214525J-5235*
G01*
X78635D02*
G75*
G02Y224995J5235D01*
G01*
G75*
G02Y214525J-5235*
G01*
X90635Y226525D02*
G75*
G02Y236995J5235D01*
G01*
G75*
G02Y226525J-5235*
G01*
X78635D02*
G75*
G02Y236995J5235D01*
G01*
G75*
G02Y226525J-5235*
G01*
X33635Y227585D02*
G75*
G02Y249935J11175D01*
G01*
G75*
G02Y227585J-11175*
G01*
X123780Y242025D02*
G75*
G02X120745Y232525I-3035J-4265D01*
G01*
G75*
G02X117710Y242025J5235*
G01*
Y242525*
X113510*
Y254995*
X127980*
Y242525*
X123780*
Y242025*
X208870Y252065D02*
Y251025D01*
X194400*
Y253475*
X193635*
G75*
G02X191980Y253966J3035*
G01*
Y252025*
X177510*
Y264495*
X191980*
Y261294*
G75*
G02X194031Y260406I-96J-3034*
G01*
X194400Y260037*
Y261995*
X208870*
Y260955*
G75*
G02X211635Y261745I2765J-4445*
G01*
G75*
G02Y251275J-5235*
G01*
G75*
G02X208870Y252065J5235*
G01*
X33635Y253525D02*
G75*
G02Y273995J10235D01*
G01*
G75*
G02Y253525J-10235*
G01*
X375170Y263060D02*
G75*
G02X353700I-10735D01*
G01*
G75*
G02X375170I10735*
G01*
X349770D02*
G75*
G02X328300I-10735D01*
G01*
G75*
G02X349770I10735*
G01*
X122460Y267585D02*
Y283935D01*
X135310*
Y267585*
X122460*
X163688Y269128D02*
G75*
G02X158635Y262525I-5053J-1368D01*
G01*
G75*
G02X157710Y272913J5235*
G01*
Y280525*
X153510*
Y292995*
X167980*
Y280525*
X163780*
Y269870*
G75*
G02X163688Y269128I-3037*
G01*
X192920Y270085D02*
X176570D01*
Y284435*
X192920*
Y270085*
X209810Y271585D02*
X193460D01*
Y284435*
X209810*
Y271585*
X376110Y288460D02*
G75*
G02X352760I-11675D01*
G01*
G75*
G02X376110I11675*
G01*
X324370D02*
G75*
G02X302900I-10735D01*
G01*
G75*
G02X324370I10735*
G01*
X298970D02*
G75*
G02X277500I-10735D01*
G01*
G75*
G02X298970I10735*
G01*
X249110D02*
G75*
G02X225760I-11675D01*
G01*
G75*
G02X249110I11675*
G01*
X208870Y289873D02*
Y288025D01*
X194400*
Y290475*
X193635*
G75*
G02X191980Y290966J3035*
G01*
Y290025*
X177510*
Y302495*
X191980*
Y299091*
G75*
G02X193031Y298406I-1096J-2831*
G01*
X194400Y297037*
Y298995*
X208870*
Y297147*
G75*
G02X212635Y298745I3765J-3637*
G01*
G75*
G02Y288275J-5235*
G01*
G75*
G02X208870Y289873J5235*
G01*
X6985Y38760D02*
G36*
Y20110D01*
X60993*
X50489Y30614*
G75*
G02X49600Y32760I2146J2146*
G01*
Y38760*
X43870*
G75*
G02X33635Y28525I-10235*
G01*
G75*
G02X23400Y38760J10235*
G01*
X6985*
G37*
X23400D02*
G36*
G75*
G02X33635Y48995I10235D01*
G01*
G75*
G02X43870Y38760J-10235*
G01*
X49600*
Y54503*
X43402Y60701*
G75*
G02X33635Y53525I-9767J3059*
G01*
G75*
G02Y73995J10235*
G01*
G75*
G02X43410Y66795J-10235*
G01*
X44635*
G75*
G02X45412Y66694J-3036*
G01*
G75*
G02X44600Y68760I2223J2066*
G01*
Y88760*
X43870*
G75*
G02X33635Y78525I-10235*
G01*
G75*
G02X23400Y88760J10235*
G01*
X6985*
Y38760*
X23400*
G37*
Y88760D02*
G36*
G75*
G02X33635Y98995I10235D01*
G01*
G75*
G02X43870Y88760J-10235*
G01*
X44600*
Y105503*
X42098Y108004*
G75*
G02X33635Y103525I-8463J5755*
G01*
G75*
G02Y123995J10235*
G01*
G75*
G02X43809Y114878J-10235*
G01*
X49781Y108906*
G75*
G02X50670Y106760I-2146J-2146*
G01*
Y88760*
X92797*
G75*
G02X97635Y91995I4838J-2000*
G01*
G75*
G02X100845Y90895J-5234*
G01*
X101200*
Y115295*
X113170*
Y88760*
X118700*
Y115295*
X130670*
Y113787*
X133473Y116590*
G75*
G02X138635Y122695I5162J870*
G01*
G75*
G02X143797Y116590J-5235*
G01*
X152781Y107606*
G75*
G02X153670Y105460I-2146J-2146*
G01*
Y99017*
X156892Y95795*
X194635*
G75*
G02X196781Y94906J-3035*
G01*
X206692Y84995*
G75*
G02X211846Y79264I-57J-5235*
G01*
X217600Y85017*
Y104342*
G75*
G02X211340Y103055I-3965J3419*
G01*
G75*
G02X202370Y97725I-4705J-2295*
G01*
X179635*
G75*
G02X177489Y98614J3035*
G01*
X166489Y109614*
G75*
G02X165600Y111760I2146J2146*
G01*
Y138760*
X58370*
Y120988*
G75*
G02X58635Y120995I271J-5229*
G01*
G75*
G02Y110525J-5235*
G01*
G75*
G02X54967Y112025J5235*
G01*
X54635*
G75*
G02X50900Y115760J3735*
G01*
Y138760*
X43870*
G75*
G02X33635Y128525I-10235*
G01*
G75*
G02X23400Y138760J10235*
G01*
X6985*
Y88760*
X23400*
G37*
X50670D02*
G36*
Y85178D01*
G75*
G02X58900Y84795I3965J-3418*
G01*
X61635*
G75*
G02X63781Y83906J-3035*
G01*
X71892Y75795*
X134801*
G75*
G02X133473Y80230I3834J3564*
G01*
X130670Y83033*
Y81825*
X118700*
Y88760*
X113170*
Y81825*
X101200*
Y82625*
X100845*
G75*
G02X97635Y81525I-3210J4134*
G01*
G75*
G02X92797Y88760J5235*
G01*
X50670*
G37*
X6985Y179260D02*
G36*
Y163760D01*
X22460*
G75*
G02X33635Y174935I11175*
G01*
G75*
G02X44810Y163760J-11175*
G01*
X50900*
Y179260*
X37444*
G75*
G02X33635Y178525I-3809J9500*
G01*
G75*
G02X29826Y179260J10235*
G01*
X6985*
G37*
X29826D02*
G36*
G75*
G02X33635Y198995I3809J9500D01*
G01*
G75*
G02X37444Y179260J-10235*
G01*
X50900*
Y207760*
X41927*
G75*
G02X33635Y203525I-8292J6000*
G01*
G75*
G02X25343Y207760J10235*
G01*
X6985*
Y179260*
X29826*
G37*
X58370D02*
G36*
Y163760D01*
X173343*
X179600Y170017*
Y179260*
X58370*
G37*
X179600D02*
G36*
Y207760D01*
X107870*
G75*
G02X102635Y202525I-5235*
G01*
G75*
G02X97400Y207760J5235*
G01*
X58370*
Y179260*
X179600*
G37*
X23400Y138760D02*
G36*
G75*
G02X33635Y148995I10235D01*
G01*
G75*
G02X43870Y138760J-10235*
G01*
X50900*
Y163760*
X44810*
G75*
G02X33635Y152585I-11175*
G01*
G75*
G02X22460Y163760J11175*
G01*
X6985*
Y138760*
X23400*
G37*
X165600D02*
G36*
Y154760D01*
G75*
G02X166489Y156906I3035*
G01*
X173343Y163760*
X58370*
Y138760*
X165600*
G37*
X25343Y207760D02*
G36*
G75*
G02Y219760I8292J6000D01*
G01*
X6985*
Y207760*
X25343*
G37*
X50900D02*
G36*
Y219760D01*
X41927*
G75*
G02Y207760I-8292J-6000*
G01*
X50900*
G37*
X97400D02*
G36*
G75*
G02X102635Y212995I5235D01*
G01*
G75*
G02X107870Y207760J-5235*
G01*
X179600*
Y219628*
G75*
G02X179083Y219760I1035J5132*
G01*
X107870*
G75*
G02X102635Y214525I-5235*
G01*
G75*
G02X97400Y219760J5235*
G01*
X95870*
G75*
G02X90635Y214525I-5235*
G01*
G75*
G02X85400Y219760J5235*
G01*
X83870*
G75*
G02X78635Y214525I-5235*
G01*
G75*
G02X73400Y219760J5235*
G01*
X58370*
Y207760*
X97400*
G37*
X25343Y219760D02*
G36*
G75*
G02X33635Y223995I8292J-6000D01*
G01*
G75*
G02X41927Y219760J-10235*
G01*
X50900*
Y225760*
G75*
G02X51994Y228401I3735*
G01*
X55353Y231760*
X42346*
G75*
G02X33635Y227585I-8711J7000*
G01*
G75*
G02X24924Y231760J11175*
G01*
X6985*
Y219760*
X25343*
G37*
X73400D02*
G36*
G75*
G02X78635Y224995I5235D01*
G01*
G75*
G02X83870Y219760J-5235*
G01*
X85400*
G75*
G02X90635Y224995I5235*
G01*
G75*
G02X95870Y219760J-5235*
G01*
X97400*
G75*
G02X102635Y224995I5235*
G01*
G75*
G02X107870Y219760J-5235*
G01*
X179083*
G75*
G02X176321Y227725I1552J5000*
G01*
X171635*
G75*
G02X169489Y228614J3035*
G01*
X167489Y230614*
G75*
G02X166770Y231760I2147J2145*
G01*
X95870*
G75*
G02X90635Y226525I-5235*
G01*
G75*
G02X85400Y231760J5235*
G01*
X83870*
G75*
G02X78635Y226525I-5235*
G01*
G75*
G02X73400Y231760J5235*
G01*
X65917*
X58370Y224213*
Y219760*
X73400*
G37*
X24924Y231760D02*
G36*
G75*
G02X23641Y243760I8711J7000D01*
G01*
X6985*
Y231760*
X24924*
G37*
X55353D02*
G36*
X66400Y242807D01*
G75*
G02X66496Y243760I5235J-46*
G01*
X43629*
G75*
G02X42346Y231760I-9994J-5000*
G01*
X55353*
G37*
X73400D02*
G36*
G75*
G02X78635Y236995I5235D01*
G01*
G75*
G02X83870Y231760J-5235*
G01*
X85400*
G75*
G02X90635Y236995I5235*
G01*
G75*
G02X95870Y231760J-5235*
G01*
X166770*
G75*
G02X166600Y232760I2865J1001*
G01*
Y242525*
X153510*
Y243599*
G75*
G02X152920Y243533I-876J5161*
G01*
Y232085*
X136570*
Y243760*
X127980*
Y242525*
X123780*
Y242025*
G75*
G02X120745Y232525I-3035J-4265*
G01*
G75*
G02X117710Y242025J5235*
G01*
Y242525*
X113510*
Y243760*
X76774*
G75*
G02X71682Y237525I-5139J-1000*
G01*
X65917Y231760*
X73400*
G37*
X23641Y243760D02*
G36*
G75*
G02X33635Y249935I9994J-5000D01*
G01*
G75*
G02X43629Y243760J-11175*
G01*
X66496*
G75*
G02X71635Y247995I5139J-1000*
G01*
G75*
G02X76774Y243760J-5235*
G01*
X113510*
Y254995*
X127980*
Y243760*
X136570*
Y246435*
X147945*
G75*
G02X148543Y252025I4690J2325*
G01*
X137510*
Y257760*
X41927*
G75*
G02X33635Y253525I-8292J6000*
G01*
G75*
G02X25343Y257760J10235*
G01*
X6985*
Y243760*
X23641*
G37*
X25343Y257760D02*
G36*
G75*
G02X33635Y273995I8292J6000D01*
G01*
G75*
G02X41927Y257760J-10235*
G01*
X137510*
Y264495*
X140950*
Y268525*
X138900*
Y275760*
X135310*
Y267585*
X122460*
Y275760*
X6985*
Y257760*
X25343*
G37*
X170927D02*
G36*
X171781Y256906D01*
G75*
G02X172670Y254760I-2146J-2146*
G01*
Y234017*
X172892Y233795*
X176570*
Y246435*
X192920*
Y233795*
X201370*
G75*
G02X202061Y234585I4266J-3034*
G01*
X193460*
Y247435*
X209810*
Y244869*
G75*
G02X210489Y245906I2826J-1109*
G01*
X218600Y254017*
Y257760*
X216719*
G75*
G02X211635Y251275I-5084J-1250*
G01*
G75*
G02X208870Y252065J5235*
G01*
Y251025*
X194400*
Y253475*
X193635*
G75*
G02X191980Y253966J3035*
G01*
Y252025*
X177510*
Y257760*
X170927*
G37*
X177510D02*
G36*
Y264495D01*
X191980*
Y261294*
G75*
G02X194031Y260406I-96J-3034*
G01*
X194400Y260037*
Y261995*
X208870*
Y260955*
G75*
G02X211635Y261745I2765J-4445*
G01*
G75*
G02X216719Y257760J-5235*
G01*
X218600*
Y275760*
X209810*
Y271585*
X193460*
Y275760*
X192920*
Y270085*
X176570*
Y275760*
X163780*
Y269870*
G75*
G02X163688Y269128I-3037*
G01*
G75*
G02X158635Y262525I-5053J-1368*
G01*
G75*
G02X157710Y272913J5235*
G01*
Y275760*
X149870*
Y268525*
X147820*
Y264495*
X151980*
Y261295*
X166135*
G75*
G02X168281Y260406J-3035*
G01*
X170927Y257760*
X177510*
G37*
X322971D02*
G36*
G75*
G02X319057Y253795I-9335J5301D01*
G01*
X324635*
G75*
G02X326781Y252906J-3035*
G01*
X330765Y248922*
G75*
G02X334670Y239495I870J-5162*
G01*
Y236017*
X335531Y235156*
G75*
G02X336420Y233010I-2146J-2146*
G01*
Y230995*
X338870*
Y218287*
X341600Y221017*
Y222495*
G75*
G02Y231025I3035J4265*
G01*
Y243760*
G75*
G02X342489Y245906I3035*
G01*
X343489Y246906*
G75*
G02X345635Y247795I2146J-2146*
G01*
X378578*
X384517Y253735*
G75*
G02X380499Y257760I5317J9325*
G01*
X373770*
G75*
G02X355100I-9335J5300*
G01*
X348370*
G75*
G02X329700I-9335J5300*
G01*
X322971*
G37*
X329700D02*
G36*
G75*
G02X328300Y263060I9335J5301D01*
G01*
G75*
G02X349770I10735*
G01*
G75*
G02X348370Y257760I-10735J1*
G01*
X355100*
G75*
G02X353700Y263060I9335J5301*
G01*
G75*
G02X375170I10735*
G01*
G75*
G02X373770Y257760I-10735J1*
G01*
X380499*
G75*
G02X379100Y263060I9335J5299*
G01*
G75*
G02X400570I10735*
G01*
G75*
G02X400445Y261428I-10736J1*
G01*
X403200Y264183*
Y268337*
X399206Y272331*
G75*
G02X398200Y274760I2429J2429*
G01*
Y280316*
G75*
G02X378160Y288460I-8365J8144*
G01*
X376110*
G75*
G02X352760I-11675*
G01*
X349770*
G75*
G02X328300I-10735*
G01*
X324370*
G75*
G02X302900I-10735*
G01*
X298970*
G75*
G02X277500I-10735*
G01*
X273570*
G75*
G02X252100I-10735*
G01*
X249110*
G75*
G02X225760I-11675*
G01*
X224670*
Y252760*
G75*
G02X223781Y250614I-3035*
G01*
X221162Y247995*
X230370*
Y233525*
X220370*
Y231935*
X231310*
Y215585*
X224211*
G75*
G02X220635Y206524I-3576J-3825*
G01*
G75*
G02X216269Y208870J5235*
G01*
G75*
G02X215994Y209119I2370J2893*
G01*
X215670Y209443*
Y207017*
X222781Y199906*
G75*
G02X223458Y198875I-2146J-2147*
G01*
X230489Y205906*
G75*
G02X232635Y206795I2146J-2146*
G01*
X241321*
G75*
G02X244440Y214857I4315J2965*
G01*
X247600Y218017*
Y222433*
X246781Y221614*
G75*
G02X245870Y220988I-2145J2146*
G01*
Y216525*
X234900*
Y230995*
X243600*
Y233525*
X234900*
Y247995*
X237350*
Y252325*
G75*
G02X226700Y263060I85J10735*
G01*
G75*
G02X248170I10735*
G01*
G75*
G02X243420Y254148I-10735*
G01*
Y247995*
X243600*
Y250760*
G75*
G02X244489Y252906I3035*
G01*
X252348Y260765*
G75*
G02X252100Y263060I10488J2294*
G01*
G75*
G02X273570I10735*
G01*
G75*
G02X265977Y252795I-10735*
G01*
X279978*
X281715Y254532*
G75*
G02X277500Y263060I6520J8528*
G01*
G75*
G02X298970I10735*
G01*
G75*
G02X288093Y252326I-10735*
G01*
X283562Y247795*
X293378*
X298489Y252906*
G75*
G02X300635Y253795I2146J-2146*
G01*
X308213*
G75*
G02X302900Y263060I5422J9265*
G01*
G75*
G02X324370I10735*
G01*
G75*
G02X322971Y257760I-10735J-1*
G01*
X329700*
G37*
X122460Y275760D02*
G36*
Y283935D01*
X135310*
Y275760*
X138900*
Y282995*
X149870*
Y275760*
X157710*
Y280525*
X153510*
Y288460*
X6985*
Y275760*
X122460*
G37*
X176570D02*
G36*
Y284435D01*
X192920*
Y275760*
X193460*
Y284435*
X209810*
Y275760*
X218600*
Y288460*
X214014*
G75*
G02X212635Y288275I-1379J5050*
G01*
G75*
G02X208870Y289873J5235*
G01*
Y288025*
X194400*
Y288460*
X167980*
Y280525*
X163780*
Y275760*
X176570*
G37*
X153510Y288460D02*
G36*
Y292995D01*
X167980*
Y288460*
X194400*
Y290475*
X193635*
G75*
G02X191980Y290966J3035*
G01*
Y290025*
X177510*
Y302495*
X191980*
Y299091*
G75*
G02X193031Y298406I-1096J-2831*
G01*
X194400Y297037*
Y298995*
X208870*
Y297147*
G75*
G02X212635Y298745I3765J-3637*
G01*
G75*
G02X214014Y288460J-5235*
G01*
X218600*
Y297760*
G75*
G02X219489Y299906I3035*
G01*
X225489Y305906*
G75*
G02X227635Y306795I2146J-2146*
G01*
X260635*
G75*
G02X262781Y305906J-3035*
G01*
X264981Y303706*
G75*
G02X265870Y301560I-2146J-2146*
G01*
Y298757*
G75*
G02X273570Y288460I-3035J-10297*
G01*
X277500*
G75*
G02X298970I10735*
G01*
X302900*
G75*
G02X324370I10735*
G01*
X328300*
G75*
G02X335200Y298487I10735*
G01*
Y300760*
G75*
G02X336206Y303189I3435*
G01*
X340206Y307189*
G75*
G02X340449Y307410I2427J-2425*
G01*
X6985*
Y288460*
X153510*
G37*
X225760D02*
G36*
G75*
G02X249110I11675D01*
G01*
X252100*
G75*
G02X259800Y298757I10735*
G01*
Y300303*
X259378Y300725*
X228892*
X224670Y296503*
Y288460*
X225760*
G37*
X352760D02*
G36*
G75*
G02X376110I11675D01*
G01*
X378160*
G75*
G02X398200Y296604I11675*
G01*
Y299337*
X396212Y301325*
X344058*
X342070Y299337*
Y298757*
G75*
G02X349770Y288460I-3035J-10297*
G01*
X352760*
G37*
X86308Y25795D02*
X83489Y28614D01*
G75*
G02X82600Y30760I2146J2146*
G01*
Y33525*
X78400*
Y44495*
X92870*
Y33525*
X88670*
Y32017*
X89892Y30795*
X119828*
X119858Y30825*
X118100*
Y64295*
X130070*
Y62595*
X130178*
X133473Y65890*
G75*
G02X134321Y69725I5162J870*
G01*
X70635*
G75*
G02X68489Y70614J3035*
G01*
X60378Y78725*
X58900*
G75*
G02X50670Y78342I-4265J3035*
G01*
Y70017*
X58781Y61906*
G75*
G02X59670Y59760I-2146J-2146*
G01*
Y38017*
X71892Y25795*
X86308*
X112570Y64295D02*
Y30825D01*
X100600*
Y55425*
X100570*
G75*
G02X93810Y56186I-2935J4335*
G01*
Y48085*
X77460*
Y60935*
X92534*
G75*
G02X100600Y64074I5101J-1175*
G01*
Y64295*
X112570*
X59670Y47910D02*
G36*
Y38017D01*
X71892Y25795*
X86308*
X83489Y28614*
G75*
G02X82600Y30760I2146J2146*
G01*
Y33525*
X78400*
Y44495*
X92870*
Y33525*
X88670*
Y32017*
X89892Y30795*
X119828*
X119858Y30825*
X118100*
Y47910*
X112570*
Y30825*
X100600*
Y47910*
X59670*
G37*
X100600D02*
G36*
Y55425D01*
X100570*
G75*
G02X93810Y56186I-2935J4335*
G01*
Y48085*
X77460*
Y60935*
X92534*
G75*
G02X100600Y64074I5101J-1175*
G01*
Y64295*
X112570*
Y47910*
X118100*
Y64295*
X130070*
Y62595*
X130178*
X133473Y65890*
G75*
G02X134321Y69725I5162J870*
G01*
X70635*
G75*
G02X68489Y70614J3035*
G01*
X60378Y78725*
X58900*
G75*
G02X50670Y78342I-4265J3035*
G01*
Y70017*
X58781Y61906*
G75*
G02X59670Y59760I-2146J-2146*
G01*
Y47910*
X100600*
G37*
X209370Y110795D02*
G75*
G02X217600Y111178I4265J-3035D01*
G01*
Y196503*
X210489Y203614*
G75*
G02X209600Y205760I2146J2146*
G01*
Y227342*
G75*
G02X201370Y227725I-3965J3418*
G01*
X192949*
G75*
G02X191670Y220495I-4314J-2965*
G01*
Y186178*
G75*
G02X195635Y187995I3965J-3418*
G01*
G75*
G02Y177525J-5235*
G01*
G75*
G02X191670Y179342J5235*
G01*
Y168760*
G75*
G02X190781Y166614I-3035*
G01*
X176670Y152503*
Y115017*
X180892Y110795*
X209370*
X211635Y137525D02*
G75*
G02Y147995J5235D01*
G01*
G75*
G02Y137525J-5235*
G01*
X199635D02*
G75*
G02Y147995J5235D01*
G01*
G75*
G02Y137525J-5235*
G01*
X187635D02*
G75*
G02Y147995J5235D01*
G01*
G75*
G02Y137525J-5235*
G01*
X176670Y142760D02*
G36*
Y115017D01*
X180892Y110795*
X209370*
G75*
G02X217600Y111178I4265J-3035*
G01*
Y142760*
X216870*
G75*
G02X211635Y137525I-5235*
G01*
G75*
G02X206400Y142760J5235*
G01*
X204870*
G75*
G02X199635Y137525I-5235*
G01*
G75*
G02X194400Y142760J5235*
G01*
X192870*
G75*
G02X187635Y137525I-5235*
G01*
G75*
G02X182400Y142760J5235*
G01*
X176670*
G37*
X182400D02*
G36*
G75*
G02X187635Y147995I5235D01*
G01*
G75*
G02X192870Y142760J-5235*
G01*
X194400*
G75*
G02X199635Y147995I5235*
G01*
G75*
G02X204870Y142760J-5235*
G01*
X206400*
G75*
G02X211635Y147995I5235*
G01*
G75*
G02X216870Y142760J-5235*
G01*
X217600*
Y196503*
X210489Y203614*
G75*
G02X209600Y205760I2146J2146*
G01*
Y227342*
G75*
G02X201370Y227725I-3965J3418*
G01*
X192949*
G75*
G02X191670Y220495I-4314J-2965*
G01*
Y186178*
G75*
G02X195635Y187995I3965J-3418*
G01*
G75*
G02Y177525J-5235*
G01*
G75*
G02X191670Y179342J5235*
G01*
Y168760*
G75*
G02X190781Y166614I-3035*
G01*
X176670Y152503*
Y142760*
X182400*
G37*
X297635Y431760D02*
X301635Y427760D01*
X452635*
X476635Y451760*
Y527760*
X474635Y529760*
X448635*
X443635Y534760*
Y565760*
X438635Y570760*
X362635*
X356635Y564760*
X336635*
X330635Y570760*
X309635*
X297635Y558760*
Y431760*
G36*
X301635Y427760*
X452635*
X476635Y451760*
Y527760*
X474635Y529760*
X448635*
X443635Y534760*
Y565760*
X438635Y570760*
X362635*
X356635Y564760*
X336635*
X330635Y570760*
X309635*
X297635Y558760*
Y431760*
G37*
X305949Y25795D02*
X360378D01*
X362489Y27906*
G75*
G02X363485Y28569I2147J-2145*
G01*
G75*
G02X363370Y28725I4142J3174*
G01*
X348635*
G75*
G02X346489Y29614J3035*
G01*
X339378Y36725*
X295892*
X288781Y29614*
G75*
G02X287283Y28795I-2146J2146*
G01*
X288635*
G75*
G02X290781Y27906J-3035*
G01*
X292892Y25795*
X297321*
G75*
G02X301635Y33995I4314J2965*
G01*
G75*
G02X305949Y25795J-5235*
G01*
G36*
X360378*
X362489Y27906*
G75*
G02X363485Y28569I2147J-2145*
G01*
G75*
G02X363370Y28725I4142J3174*
G01*
X348635*
G75*
G02X346489Y29614J3035*
G01*
X339378Y36725*
X295892*
X288781Y29614*
G75*
G02X287283Y28795I-2146J2146*
G01*
X288635*
G75*
G02X290781Y27906J-3035*
G01*
X292892Y25795*
X297321*
G75*
G02X301635Y33995I4314J2965*
G01*
G75*
G02X305949Y25795J-5235*
G01*
G37*
X364486Y187201D02*
Y199385D01*
X365426*
Y211145*
X385896*
Y208845*
X386088*
X391150Y213907*
Y226525*
X389400*
Y240667*
X385064Y236331*
G75*
G02X382635Y235325I-2429J2429*
G01*
X358058*
X357070Y234337*
Y230710*
G75*
G02X358635Y228311I-3434J-3950*
G01*
G75*
G02X363635Y231995I5000J-1551*
G01*
G75*
G02X367983Y223845J-5235*
G01*
X385896*
Y211775*
X365426*
Y214775*
X361942*
X358670Y211503*
Y210760*
G75*
G02X357781Y208614I-3035*
G01*
X342962Y193795*
X356635*
G75*
G02X358781Y192906J-3035*
G01*
X364486Y187201*
G36*
Y199385*
X365426*
Y211145*
X385896*
Y208845*
X386088*
X391150Y213907*
Y226525*
X389400*
Y240667*
X385064Y236331*
G75*
G02X382635Y235325I-2429J2429*
G01*
X358058*
X357070Y234337*
Y230710*
G75*
G02X358635Y228311I-3434J-3950*
G01*
G75*
G02X363635Y231995I5000J-1551*
G01*
G75*
G02X367983Y223845J-5235*
G01*
X385896*
Y211775*
X365426*
Y214775*
X361942*
X358670Y211503*
Y210760*
G75*
G02X357781Y208614I-3035*
G01*
X342962Y193795*
X356635*
G75*
G02X358781Y192906J-3035*
G01*
X364486Y187201*
G37*
X371635Y173675D02*
X365426D01*
Y176760*
X346635*
Y163760*
X344635Y161760*
X265635*
X262635Y164760*
Y176760*
X242186*
G75*
G02X239084I-1551J5000*
G01*
X238635*
Y152760*
X252635*
X253635Y151760*
Y71760*
X250635Y68760*
X238635*
Y44760*
X261635*
Y56760*
X263635Y58760*
X347635*
Y44760*
X371635*
Y68760*
X357635*
X356635Y69760*
Y150760*
X358635Y152760*
X371635*
Y173675*
G36*
X365426*
Y176760*
X346635*
Y163760*
X344635Y161760*
X265635*
X262635Y164760*
Y176760*
X242186*
G75*
G02X239084I-1551J5000*
G01*
X238635*
Y152760*
X252635*
X253635Y151760*
Y71760*
X250635Y68760*
X238635*
Y44760*
X261635*
Y56760*
X263635Y58760*
X347635*
Y44760*
X371635*
Y68760*
X357635*
X356635Y69760*
Y150760*
X358635Y152760*
X371635*
Y173675*
G37*
X387858Y20110D02*
X494285D01*
Y307410*
X399821*
G75*
G02X400064Y307189I-2184J-2646*
G01*
X404064Y303189*
G75*
G02X405070Y300760I-2429J-2429*
G01*
Y292045*
X417310*
Y275695*
X405558*
X409064Y272189*
G75*
G02X410070Y269760I-2429J-2429*
G01*
Y262760*
G75*
G02X409064Y260331I-3435*
G01*
X399727Y250994*
G75*
G02X403303Y249495I-92J-5234*
G01*
X408088*
X413400Y254807*
Y267105*
X425870*
Y252635*
X421792*
X412276Y243119*
G75*
G02X409635Y242025I-2641J2641*
G01*
X403303*
G75*
G02X400370Y240577I-3668J3735*
G01*
Y226525*
X398620*
Y212360*
G75*
G02X397526Y209719I-3735*
G01*
X390276Y202469*
G75*
G02X387635Y201375I-2641J2641*
G01*
X385896*
Y199385*
X386836*
Y185435*
X385896*
Y173675*
X365426*
Y177677*
X355378Y187725*
X342892*
X342781Y187614*
G75*
G02X340635Y186725I-2146J2146*
G01*
X265892*
X262781Y183614*
G75*
G02X260635Y182725I-2146J2146*
G01*
X249892*
X247781Y180614*
G75*
G02X245635Y179725I-2146J2146*
G01*
X245458*
G75*
G02X235670Y180100I-4823J2035*
G01*
Y77760*
G75*
G02X234781Y75614I-3035*
G01*
X213139Y53971*
G75*
G02X213635Y53995I501J-5207*
G01*
G75*
G02X217635Y52137J-5235*
G01*
G75*
G02X221635Y53995I4000J-3377*
G01*
G75*
G02X222466Y53929I3J-5232*
G01*
G75*
G02X225506Y59542I5168J830*
G01*
G75*
G02X229635Y67995I4129J3218*
G01*
G75*
G02X234797Y61890J-5235*
G01*
X236781Y59906*
G75*
G02X237670Y57760I-2146J-2146*
G01*
Y40795*
X286378*
X291489Y45906*
G75*
G02X293635Y46795I2146J-2146*
G01*
X342635*
G75*
G02X344781Y45906J-3035*
G01*
X349892Y40795*
X355370*
G75*
G02X364566Y36001I4265J-3035*
G01*
G75*
G02X372566Y30001I3069J-4241*
G01*
G75*
G02X380750Y24644I3069J-4241*
G01*
G75*
G02X387858Y20110I1885J-4884*
G01*
X473635Y28525D02*
G75*
G02Y48995J10235D01*
G01*
G75*
G02Y28525J-10235*
G01*
Y53525D02*
G75*
G02Y73995J10235D01*
G01*
G75*
G02Y53525J-10235*
G01*
Y78525D02*
G75*
G02Y98995J10235D01*
G01*
G75*
G02Y78525J-10235*
G01*
Y103525D02*
G75*
G02Y123995J10235D01*
G01*
G75*
G02Y103525J-10235*
G01*
X464106Y135025D02*
X451303D01*
G75*
G02X447635Y133525I-3668J3735*
G01*
G75*
G02Y143995J5235*
G01*
G75*
G02X451303Y142495J-5235*
G01*
X464106*
G75*
G02X473635Y148995I9529J-3735*
G01*
G75*
G02Y128525J-10235*
G01*
G75*
G02X464106Y135025J10235*
G01*
X423870Y159734D02*
Y155525D01*
X412900*
Y169995*
X423870*
Y167287*
X424229Y167646*
X425378Y173675*
X419384*
Y185745*
X439854*
Y173675*
X431558*
X430016Y165591*
G75*
G02X429181Y164014I-2980J568*
G01*
X425781Y160614*
G75*
G02X423870Y159734I-2146J2146*
G01*
X464106Y160025D02*
X460303D01*
G75*
G02X456635Y158525I-3668J3735*
G01*
G75*
G02Y168995J5235*
G01*
G75*
G02X460303Y167495J-5235*
G01*
X464106*
G75*
G02X473635Y173995I9529J-3735*
G01*
G75*
G02Y153525J-10235*
G01*
G75*
G02X464106Y160025J10235*
G01*
X409310Y170935D02*
Y154585D01*
X396460*
Y170935*
X409310*
X473635Y178525D02*
G75*
G02Y198995J10235D01*
G01*
G75*
G02Y178525J-10235*
G01*
X443967Y188675D02*
X439854D01*
Y186375*
X419384*
Y198445*
X439854*
Y196145*
X443967*
G75*
G02X447635Y197645I3668J-3735*
G01*
G75*
G02Y187175J-5235*
G01*
G75*
G02X443967Y188675J5235*
G01*
X452967Y201375D02*
X439854D01*
Y199075*
X419384*
Y211145*
X439854*
Y208845*
X452967*
G75*
G02X456635Y210345I3668J-3735*
G01*
G75*
G02Y199875J-5235*
G01*
G75*
G02X452967Y201375J5235*
G01*
X473635Y203525D02*
G75*
G02Y223995J10235D01*
G01*
G75*
G02Y203525J-10235*
G01*
X439854Y211775D02*
X419384D01*
Y223845*
X439854*
Y211775*
X403960Y225585D02*
Y241935D01*
X416810*
Y225585*
X403960*
X473635Y227585D02*
G75*
G02Y249935J11175D01*
G01*
G75*
G02Y227585J-11175*
G01*
Y253525D02*
G75*
G02Y273995J10235D01*
G01*
G75*
G02Y253525J-10235*
G01*
X433647Y291105D02*
X435370D01*
Y276635*
X422900*
Y291105*
X424623*
G75*
G02X429135Y298995I4512J2655*
G01*
G75*
G02X433647Y291105J-5235*
G01*
X364774Y38760D02*
G36*
G75*
G02X364566Y36001I-5139J-1000D01*
G01*
G75*
G02X372566Y30001I3069J-4241*
G01*
G75*
G02X380750Y24644I3069J-4241*
G01*
G75*
G02X387858Y20110I1885J-4884*
G01*
X494285*
Y38760*
X483870*
G75*
G02X473635Y28525I-10235*
G01*
G75*
G02X463400Y38760J10235*
G01*
X364774*
G37*
X463400D02*
G36*
G75*
G02X473635Y48995I10235D01*
G01*
G75*
G02X483870Y38760J-10235*
G01*
X494285*
Y63760*
X483870*
G75*
G02X473635Y53525I-10235*
G01*
G75*
G02X463400Y63760J10235*
G01*
X234774*
G75*
G02X234797Y61890I-5139J-998*
G01*
X236781Y59906*
G75*
G02X237670Y57760I-2146J-2146*
G01*
Y40795*
X286378*
X291489Y45906*
G75*
G02X293635Y46795I2146J-2146*
G01*
X342635*
G75*
G02X344781Y45906J-3035*
G01*
X349892Y40795*
X355370*
G75*
G02X364774Y38760I4265J-3035*
G01*
X463400*
G37*
Y63760D02*
G36*
G75*
G02X473635Y73995I10235D01*
G01*
G75*
G02X483870Y63760J-10235*
G01*
X494285*
Y88760*
X483870*
G75*
G02X473635Y78525I-10235*
G01*
G75*
G02X463400Y88760J10235*
G01*
X235670*
Y77760*
G75*
G02X234781Y75614I-3035*
G01*
X213139Y53971*
G75*
G02X213635Y53995I501J-5207*
G01*
G75*
G02X217635Y52137J-5235*
G01*
G75*
G02X221635Y53995I4000J-3377*
G01*
G75*
G02X222466Y53929I3J-5232*
G01*
G75*
G02X225506Y59542I5168J830*
G01*
G75*
G02X229635Y67995I4129J3218*
G01*
G75*
G02X234774Y63760J-5235*
G01*
X463400*
G37*
Y88760D02*
G36*
G75*
G02X473635Y98995I10235D01*
G01*
G75*
G02X483870Y88760J-10235*
G01*
X494285*
Y113760*
X483870*
G75*
G02X473635Y103525I-10235*
G01*
G75*
G02X463400Y113760J10235*
G01*
X235670*
Y88760*
X463400*
G37*
Y113760D02*
G36*
G75*
G02X473635Y123995I10235D01*
G01*
G75*
G02X483870Y113760J-10235*
G01*
X494285*
Y138760*
X483870*
G75*
G02X473635Y128525I-10235*
G01*
G75*
G02X464106Y135025J10235*
G01*
X451303*
G75*
G02X447635Y133525I-3668J3735*
G01*
G75*
G02X442400Y138760J5235*
G01*
X235670*
Y113760*
X463400*
G37*
X442400Y138760D02*
G36*
G75*
G02X447635Y143995I5235D01*
G01*
G75*
G02X451303Y142495J-5235*
G01*
X464106*
G75*
G02X473635Y148995I9529J-3735*
G01*
G75*
G02X483870Y138760J-10235*
G01*
X494285*
Y170635*
X481217*
G75*
G02X473635Y153525I-7582J-6875*
G01*
G75*
G02X464106Y160025J10235*
G01*
X460303*
G75*
G02X456635Y158525I-3668J3735*
G01*
G75*
G02Y168995J5235*
G01*
G75*
G02X460303Y167495J-5235*
G01*
X464106*
G75*
G02X466053Y170635I9529J-3735*
G01*
X430978*
X430016Y165591*
G75*
G02X429181Y164014I-2980J568*
G01*
X425781Y160614*
G75*
G02X423870Y159734I-2146J2146*
G01*
Y155525*
X412900*
Y169995*
X423870*
Y167287*
X424229Y167646*
X424799Y170635*
X409310*
Y154585*
X396460*
Y170635*
X235670*
Y138760*
X442400*
G37*
X396460Y170635D02*
G36*
Y170935D01*
X409310*
Y170635*
X424799*
X425378Y173675*
X419384*
Y185745*
X439854*
Y173675*
X431558*
X430978Y170635*
X466053*
G75*
G02X473635Y173995I7582J-6875*
G01*
G75*
G02X481217Y170635J-10235*
G01*
X494285*
Y188760*
X483870*
G75*
G02X473635Y178525I-10235*
G01*
G75*
G02X463400Y188760J10235*
G01*
X451388*
G75*
G02X447635Y187175I-3753J3650*
G01*
G75*
G02X443967Y188675J5235*
G01*
X439854*
Y186375*
X419384*
Y188760*
X386836*
Y185435*
X385896*
Y173675*
X365426*
Y177677*
X355378Y187725*
X342892*
X342781Y187614*
G75*
G02X340635Y186725I-2146J2146*
G01*
X265892*
X262781Y183614*
G75*
G02X260635Y182725I-2146J2146*
G01*
X249892*
X247781Y180614*
G75*
G02X245635Y179725I-2146J2146*
G01*
X245458*
G75*
G02X235670Y180100I-4823J2035*
G01*
Y170635*
X396460*
G37*
X419384Y188760D02*
G36*
Y198445D01*
X439854*
Y196145*
X443967*
G75*
G02X447635Y197645I3668J-3735*
G01*
G75*
G02X451388Y188760J-5235*
G01*
X463400*
G75*
G02X473635Y198995I10235*
G01*
G75*
G02X483870Y188760J-10235*
G01*
X494285*
Y205110*
X479106*
G75*
G02X473635Y203525I-5471J8650*
G01*
G75*
G02X468164Y205110J10235*
G01*
X461870*
G75*
G02X456635Y199875I-5235*
G01*
G75*
G02X452967Y201375J5235*
G01*
X439854*
Y199075*
X419384*
Y205110*
X392917*
X390276Y202469*
G75*
G02X387635Y201375I-2641J2641*
G01*
X385896*
Y199385*
X386836*
Y188760*
X419384*
G37*
Y205110D02*
G36*
Y211145D01*
X439854*
Y208845*
X452967*
G75*
G02X456635Y210345I3668J-3735*
G01*
G75*
G02X461870Y205110J-5235*
G01*
X468164*
G75*
G02X464235Y217810I5471J8650*
G01*
X439854*
Y211775*
X419384*
Y217810*
X398620*
Y212360*
G75*
G02X397526Y209719I-3735*
G01*
X392917Y205110*
X419384*
G37*
X494285D02*
G36*
Y217810D01*
X483035*
G75*
G02X479106Y205110I-9400J-4050*
G01*
X494285*
G37*
X419384Y217810D02*
G36*
Y223845D01*
X439854*
Y217810*
X464235*
G75*
G02X473635Y223995I9400J-4050*
G01*
G75*
G02X483035Y217810J-10235*
G01*
X494285*
Y233760*
X483629*
G75*
G02X473635Y227585I-9994J5000*
G01*
G75*
G02X463641Y233760J11175*
G01*
X416810*
Y225585*
X403960*
Y233760*
X400370*
Y226525*
X398620*
Y217810*
X419384*
G37*
X403960Y233760D02*
G36*
Y241935D01*
X416810*
Y233760*
X463641*
G75*
G02X473635Y249935I9994J5000*
G01*
G75*
G02X483629Y233760J-11175*
G01*
X494285*
Y263760*
X483870*
G75*
G02X473635Y253525I-10235*
G01*
G75*
G02X463400Y263760J10235*
G01*
X425870*
Y252635*
X421792*
X412276Y243119*
G75*
G02X409635Y242025I-2641J2641*
G01*
X403303*
G75*
G02X400370Y240577I-3668J3735*
G01*
Y233760*
X403960*
G37*
X463400Y263760D02*
G36*
G75*
G02X473635Y273995I10235D01*
G01*
G75*
G02X483870Y263760J-10235*
G01*
X494285*
Y287815*
X435370*
Y276635*
X422900*
Y287815*
X417310*
Y275695*
X405558*
X409064Y272189*
G75*
G02X410070Y269760I-2429J-2429*
G01*
Y262760*
G75*
G02X409064Y260331I-3435*
G01*
X399727Y250994*
G75*
G02X403303Y249495I-92J-5234*
G01*
X408088*
X413400Y254807*
Y267105*
X425870*
Y263760*
X463400*
G37*
X422900Y287815D02*
G36*
Y291105D01*
X424623*
G75*
G02X429135Y298995I4512J2655*
G01*
G75*
G02X433647Y291105J-5235*
G01*
X435370*
Y287815*
X494285*
Y307410*
X399821*
G75*
G02X400064Y307189I-2184J-2646*
G01*
X404064Y303189*
G75*
G02X405070Y300760I-2429J-2429*
G01*
Y292045*
X417310*
Y287815*
X422900*
G37*
X461595Y713760D02*
X450635D01*
X445635Y708760*
Y690760*
X449635Y686760*
X465635*
X465930Y687055*
G75*
G02X468340Y689465I4704J-2294*
G01*
X473635Y694760*
Y708760*
X480900Y716025*
Y718495*
X483370*
X483635Y718760*
X517635*
X519635Y716760*
Y678760*
X508635Y667760*
Y570760*
X511635Y567760*
X556635*
X558635Y569760*
Y592760*
X562635Y596760*
X590635*
X595635Y601760*
X599635*
X625635Y627760*
Y684760*
X618635Y691760*
Y721760*
X589635Y750760*
Y751760*
X586635Y754760*
X540635*
X510635Y784760*
Y796760*
X506635Y800760*
X482635*
X480635Y798760*
Y759760*
X489635Y750760*
X516635*
X520635Y746760*
Y731760*
X517635Y728760*
X480635*
X471792Y719917*
G75*
G02X466278Y714403I-9158J3644*
G01*
X465635Y713760*
X463675*
G75*
G02X461595I-1040J9800*
G01*
X554600Y658025D02*
Y664760D01*
G75*
G02X555489Y666906I3035*
G01*
X565600Y677017*
Y715903*
X560505Y720998*
G75*
G02X554400Y726160I-870J5162*
G01*
G75*
G02X564870I5235*
G01*
G75*
G02X564797Y725290I-5235J1*
G01*
X570781Y719306*
G75*
G02X571670Y717160I-2146J-2146*
G01*
Y675760*
G75*
G02X570781Y673614I-3035*
G01*
X560670Y663503*
Y658025*
G75*
G02X562797Y652890I-3035J-4265*
G01*
X566892Y648795*
X577378*
X591489Y662906*
G75*
G02X593635Y663795I2146J-2146*
G01*
X606635*
G75*
G02X608781Y662906J-3035*
G01*
X611781Y659906*
G75*
G02X612670Y657760I-2146J-2146*
G01*
Y646025*
G75*
G02X614870Y641760I-3035J-4265*
G01*
G75*
G02X604400I-5235*
G01*
G75*
G02X606600Y646025I5235*
G01*
Y656503*
X605378Y657725*
X594892*
X580781Y643614*
G75*
G02X578635Y642725I-2146J2146*
G01*
X565635*
G75*
G02X563489Y643614J3035*
G01*
X558505Y648598*
G75*
G02X554600Y658025I-870J5162*
G01*
X594400Y637760D02*
G75*
G02X604870I5235D01*
G01*
G75*
G02X594400I-5235*
G01*
X603135Y705085D02*
G75*
G02X593400Y707760I-4500J2675D01*
G01*
G75*
G02X603135Y710435I5235*
G01*
G75*
G02X612870Y707760I4500J-2675*
G01*
G75*
G02X603135Y705085I-5235*
G01*
X608400Y623760D02*
G75*
G02X618870I5235D01*
G01*
G75*
G02X608400I-5235*
G01*
X519635Y683960D02*
G36*
Y678760D01*
X508635Y667760*
Y637760*
X594400*
G75*
G02X604870I5235*
G01*
X606258*
G75*
G02X604400Y641760I3377J4000*
G01*
G75*
G02X606600Y646025I5235*
G01*
Y656503*
X605378Y657725*
X594892*
X580781Y643614*
G75*
G02X578635Y642725I-2146J2146*
G01*
X565635*
G75*
G02X563489Y643614J3035*
G01*
X558505Y648598*
G75*
G02X554600Y658025I-870J5162*
G01*
Y664760*
G75*
G02X555489Y666906I3035*
G01*
X565600Y677017*
Y683960*
X519635*
G37*
X565600D02*
G36*
Y707760D01*
X519635*
Y683960*
X565600*
G37*
X571670D02*
G36*
Y675760D01*
G75*
G02X570781Y673614I-3035*
G01*
X560670Y663503*
Y658025*
G75*
G02X562797Y652890I-3035J-4265*
G01*
X566892Y648795*
X577378*
X591489Y662906*
G75*
G02X593635Y663795I2146J-2146*
G01*
X606635*
G75*
G02X608781Y662906J-3035*
G01*
X611781Y659906*
G75*
G02X612670Y657760I-2146J-2146*
G01*
Y646025*
G75*
G02X614870Y641760I-3035J-4265*
G01*
G75*
G02X613012Y637760I-5235*
G01*
X625635*
Y683960*
X571670*
G37*
X625635D02*
G36*
Y684760D01*
X618635Y691760*
Y707760*
X612870*
G75*
G02X603135Y705085I-5235*
G01*
G75*
G02X593400Y707760I-4500J2675*
G01*
X571670*
Y683960*
X625635*
G37*
X508635Y637760D02*
G36*
Y623760D01*
X608400*
G75*
G02X618870I5235*
G01*
X621635*
X625635Y627760*
Y637760*
X613012*
G75*
G02X606258I-3377J4000*
G01*
X604870*
G75*
G02X594400I-5235*
G01*
X508635*
G37*
X565600Y707760D02*
G36*
Y715903D01*
X560505Y720998*
G75*
G02X554400Y726160I-870J5162*
G01*
G75*
G02X564870I5235*
G01*
G75*
G02X564797Y725290I-5235J1*
G01*
X570781Y719306*
G75*
G02X571670Y717160I-2146J-2146*
G01*
Y707760*
X593400*
G75*
G02X603135Y710435I5235*
G01*
G75*
G02X612870Y707760I4500J-2675*
G01*
X618635*
Y721760*
X589635Y750760*
Y751760*
X586635Y754760*
X540635*
X510635Y784760*
Y796760*
X506635Y800760*
X482635*
X480635Y798760*
Y759760*
X489635Y750760*
X516635*
X520635Y746760*
Y731760*
X517635Y728760*
X480635*
X471792Y719917*
G75*
G02X466278Y714403I-9158J3644*
G01*
X465635Y713760*
X463675*
G75*
G02X461595I-1040J9800*
G01*
X450635*
X445635Y708760*
Y690760*
X449635Y686760*
X465635*
X465930Y687055*
G75*
G02X468340Y689465I4704J-2294*
G01*
X473635Y694760*
Y708760*
X480900Y716025*
Y718495*
X483370*
X483635Y718760*
X517635*
X519635Y716760*
Y707760*
X565600*
G37*
X508635Y623760D02*
G36*
Y570760D01*
X511635Y567760*
X556635*
X558635Y569760*
Y592760*
X562635Y596760*
X590635*
X595635Y601760*
X599635*
X621635Y623760*
X618870*
G75*
G02X608400I-5235*
G01*
X508635*
G37*
X484635Y680760D02*
X489635Y675760D01*
X506635*
X510635Y679760*
Y694760*
X507635Y697760*
X486635*
X484635Y695760*
Y680760*
G36*
X489635Y675760*
X506635*
X510635Y679760*
Y694760*
X507635Y697760*
X486635*
X484635Y695760*
Y680760*
G37*
X528170Y370760D02*
X567635D01*
Y408760*
X581635Y422760*
Y429760*
X577635Y433760*
X543635*
X537635Y427760*
Y406760*
X528170Y397295*
Y370760*
G36*
X567635*
Y408760*
X581635Y422760*
Y429760*
X577635Y433760*
X543635*
X537635Y427760*
Y406760*
X528170Y397295*
Y370760*
G37*
X623635Y508383D02*
Y445760D01*
X584635Y406760*
Y371760*
X794285*
Y496760*
X720635*
X716635Y500760*
Y503435*
G75*
G02Y508085I8000J2325*
G01*
Y625760*
X712860*
G75*
G02X710635Y625025I-2225J3000*
G01*
X684635*
G75*
G02X682410Y625760J3735*
G01*
X681635*
X670635Y636760*
Y679760*
X671283Y680408*
G75*
G02X671994Y681401I3353J-1650*
G01*
X676400Y685807*
Y689995*
X680870*
X682635Y691760*
X691635*
X695635Y695760*
Y754760*
X688635Y761760*
X631635*
X628635Y758760*
Y692052*
X636892Y683795*
X650370*
G75*
G02X659870Y680760I4265J-3035*
G01*
G75*
G02X650370Y677725I-5235*
G01*
X635635*
G75*
G02X633489Y678614J3035*
G01*
X628635Y683468*
Y625760*
X609635Y606760*
Y590760*
X616635Y583760*
Y566760*
X609635Y559760*
Y539760*
X623635Y525760*
Y515137*
G75*
G02X632870Y511760I4000J-3377*
G01*
G75*
G02X623635Y508383I-5235*
G01*
X640490Y576760D02*
G75*
G02X620780I-9855D01*
G01*
G75*
G02X640490I9855*
G01*
X670735Y523015D02*
G75*
G02Y503305J-9855D01*
G01*
G75*
G02Y523015J9855*
G01*
Y549355D02*
G75*
G02Y527765J-10795D01*
G01*
G75*
G02Y549355J10795*
G01*
Y573815D02*
G75*
G02Y554105J-9855D01*
G01*
G75*
G02Y573815J9855*
G01*
Y599215D02*
G75*
G02Y579505J-9855D01*
G01*
G75*
G02Y599215J9855*
G01*
Y624615D02*
G75*
G02Y604905J-9855D01*
G01*
G75*
G02Y624615J9855*
G01*
X696135Y523015D02*
G75*
G02Y503305J-9855D01*
G01*
G75*
G02Y523015J9855*
G01*
Y549355D02*
G75*
G02Y527765J-10795D01*
G01*
G75*
G02Y549355J10795*
G01*
Y573815D02*
G75*
G02Y554105J-9855D01*
G01*
G75*
G02Y573815J9855*
G01*
Y599215D02*
G75*
G02Y579505J-9855D01*
G01*
G75*
G02Y599215J9855*
G01*
Y624615D02*
G75*
G02Y604905J-9855D01*
G01*
G75*
G02Y624615J9855*
G01*
X616635Y576760D02*
G36*
Y566760D01*
X613835Y563960*
X660880*
G75*
G02X670735Y573815I9855*
G01*
G75*
G02X680590Y563960J-9855*
G01*
X686280*
G75*
G02X696135Y573815I9855*
G01*
G75*
G02X705990Y563960J-9855*
G01*
X716635*
Y576760*
X640490*
G75*
G02X620780I-9855*
G01*
X616635*
G37*
X620780D02*
G36*
G75*
G02X640490I9855D01*
G01*
X716635*
Y589360*
X705990*
G75*
G02X696135Y579505I-9855*
G01*
G75*
G02X686280Y589360J9855*
G01*
X680590*
G75*
G02X670735Y579505I-9855*
G01*
G75*
G02X660880Y589360J9855*
G01*
X611035*
X616635Y583760*
Y576760*
X620780*
G37*
X632679Y513160D02*
G36*
G75*
G02X632870Y511760I-5044J-1401D01*
G01*
G75*
G02X623635Y508383I-5235*
G01*
Y445760*
X584635Y406760*
Y371760*
X794285*
Y496760*
X720635*
X716635Y500760*
Y503435*
G75*
G02Y508085I8000J2325*
G01*
Y513160*
X705990*
G75*
G02X696135Y503305I-9855*
G01*
G75*
G02X686280Y513160J9855*
G01*
X680590*
G75*
G02X670735Y503305I-9855*
G01*
G75*
G02X660880Y513160J9855*
G01*
X632679*
G37*
X660880D02*
G36*
G75*
G02X670735Y523015I9855D01*
G01*
G75*
G02X680590Y513160J-9855*
G01*
X686280*
G75*
G02X696135Y523015I9855*
G01*
G75*
G02X705990Y513160J-9855*
G01*
X716635*
Y538560*
X706930*
G75*
G02X696135Y527765I-10795*
G01*
G75*
G02X685340Y538560J10795*
G01*
X681530*
G75*
G02X670735Y527765I-10795*
G01*
G75*
G02X659940Y538560J10795*
G01*
X610835*
X623635Y525760*
Y515137*
G75*
G02X632679Y513160I4000J-3377*
G01*
X660880*
G37*
X659940Y538560D02*
G36*
G75*
G02X670735Y549355I10795D01*
G01*
G75*
G02X681530Y538560J-10795*
G01*
X685340*
G75*
G02X696135Y549355I10795*
G01*
G75*
G02X706930Y538560J-10795*
G01*
X716635*
Y563960*
X705990*
G75*
G02X696135Y554105I-9855*
G01*
G75*
G02X686280Y563960J9855*
G01*
X680590*
G75*
G02X670735Y554105I-9855*
G01*
G75*
G02X660880Y563960J9855*
G01*
X613835*
X609635Y559760*
Y539760*
X610835Y538560*
X659940*
G37*
X660880Y589360D02*
G36*
G75*
G02X670735Y599215I9855D01*
G01*
G75*
G02X680590Y589360J-9855*
G01*
X686280*
G75*
G02X696135Y599215I9855*
G01*
G75*
G02X705990Y589360J-9855*
G01*
X716635*
Y614760*
X705990*
G75*
G02X696135Y604905I-9855*
G01*
G75*
G02X686280Y614760J9855*
G01*
X680590*
G75*
G02X670735Y604905I-9855*
G01*
G75*
G02X660880Y614760J9855*
G01*
X617635*
X609635Y606760*
Y590760*
X611035Y589360*
X660880*
G37*
Y614760D02*
G36*
G75*
G02X670735Y624615I9855D01*
G01*
G75*
G02X680590Y614760J-9855*
G01*
X686280*
G75*
G02X696135Y624615I9855*
G01*
G75*
G02X705990Y614760J-9855*
G01*
X716635*
Y625760*
X712860*
G75*
G02X710635Y625025I-2225J3000*
G01*
X684635*
G75*
G02X682410Y625760J3735*
G01*
X681635*
X670635Y636760*
Y679760*
X671283Y680408*
G75*
G02X671994Y681401I3353J-1650*
G01*
X676400Y685807*
Y689995*
X680870*
X682635Y691760*
X691635*
X695635Y695760*
Y754760*
X688635Y761760*
X631635*
X628635Y758760*
Y692052*
X636892Y683795*
X650370*
G75*
G02X659870Y680760I4265J-3035*
G01*
G75*
G02X650370Y677725I-5235*
G01*
X635635*
G75*
G02X633489Y678614J3035*
G01*
X628635Y683468*
Y625760*
X617635Y614760*
X660880*
G37*
D02*
D11*
X26905Y163760D02*
X21825D01*
X26905Y238760D02*
X21825D01*
X33635Y157030D02*
Y151950D01*
Y170490D02*
Y175570D01*
Y232030D02*
Y226950D01*
Y245490D02*
Y250570D01*
X40365Y163760D02*
X45445D01*
X40365Y238760D02*
X45445D01*
X81905Y54510D02*
X76825D01*
X85635Y52530D02*
Y47450D01*
Y56490D02*
Y61570D01*
X89365Y54510D02*
X94445D01*
X89905Y66760D02*
X84825D01*
X90905Y155760D02*
X85825D01*
X91412Y142537D02*
X87820Y138945D01*
X91412Y144983D02*
X87820Y148575D01*
X91412Y166537D02*
X87820Y162945D01*
X91412Y168983D02*
X87820Y172575D01*
X92635Y154030D02*
Y148950D01*
Y157490D02*
Y162570D01*
X93365Y66760D02*
X98445D01*
X93858Y142537D02*
X97450Y138945D01*
X93858Y144983D02*
X97450Y148575D01*
X93858Y166537D02*
X97450Y162945D01*
X93858Y168983D02*
X97450Y172575D01*
X94365Y155760D02*
X99445D01*
X101905Y275760D02*
X96825D01*
X102905Y143760D02*
X97825D01*
X102905Y167760D02*
X97825D01*
X103412Y154537D02*
X99820Y150945D01*
X103412Y156983D02*
X99820Y160575D01*
X103635Y274030D02*
Y268950D01*
Y277490D02*
Y282570D01*
X104635Y142030D02*
Y136950D01*
Y145490D02*
Y150570D01*
Y166030D02*
Y160950D01*
Y169490D02*
Y174570D01*
X105365Y275760D02*
X110445D01*
X105858Y154537D02*
X109450Y150945D01*
X105858Y156983D02*
X109450Y160575D01*
X106365Y143760D02*
X111445D01*
X106365Y167760D02*
X111445D01*
X114905Y155760D02*
X109825D01*
X115412Y142537D02*
X111820Y138945D01*
X115412Y144983D02*
X111820Y148575D01*
X115412Y166537D02*
X111820Y162945D01*
X115412Y168983D02*
X111820Y172575D01*
X116635Y154030D02*
Y148950D01*
Y157490D02*
Y162570D01*
X117858Y142537D02*
X121450Y138945D01*
X117858Y144983D02*
X121450Y148575D01*
X117858Y166537D02*
X121450Y162945D01*
X117858Y168983D02*
X121450Y172575D01*
X118365Y155760D02*
X123445D01*
X122905Y288760D02*
X117825D01*
X124635Y290490D02*
Y295570D01*
X126365Y288760D02*
X131445D01*
X126905Y275760D02*
X121825D01*
X128885Y272030D02*
Y266950D01*
Y279490D02*
Y284570D01*
X130865Y275760D02*
X135945D01*
X141015Y239260D02*
X135935D01*
X144745Y236530D02*
Y231450D01*
Y241990D02*
Y247070D01*
X148475Y239260D02*
X153555D01*
X181015D02*
X175935D01*
X181643Y274158D02*
X176935Y269450D01*
X181643Y280362D02*
X176935Y285070D01*
X184745Y241990D02*
Y247070D01*
X186412Y129537D02*
X182820Y125945D01*
X186412Y131983D02*
X182820Y135575D01*
X187847Y274158D02*
X192555Y269450D01*
X187847Y280362D02*
X192555Y285070D01*
X188858Y129537D02*
X192450Y125945D01*
X188858Y131983D02*
X192450Y135575D01*
X198412Y129537D02*
X194820Y125945D01*
X198412Y131983D02*
X194820Y135575D01*
X199283Y243362D02*
X194575Y248070D01*
X199283Y275658D02*
X194575Y270950D01*
X199283Y280362D02*
X194575Y285070D01*
X200858Y129537D02*
X204450Y125945D01*
X200858Y131983D02*
X204450Y135575D01*
X203987Y243362D02*
X208695Y248070D01*
X203987Y275658D02*
X208695Y270950D01*
X203987Y280362D02*
X208695Y285070D01*
X210412Y129537D02*
X206820Y125945D01*
X210412Y131983D02*
X206820Y135575D01*
X212858Y129537D02*
X216450Y125945D01*
X212858Y131983D02*
X216450Y135575D01*
X212905Y268760D02*
X207825D01*
X214635Y267030D02*
Y261950D01*
Y270490D02*
Y275570D01*
X224885Y227490D02*
Y232570D01*
X226865Y223760D02*
X231945D01*
X232323Y283348D02*
X228731Y279756D01*
X232323Y293572D02*
X228731Y297164D01*
X242547Y283348D02*
X246139Y279756D01*
X242547Y293572D02*
X246139Y297164D01*
X268905Y83760D02*
X263825D01*
X268905D02*
X263825D01*
X268905Y103760D02*
X263825D01*
X268905D02*
X263825D01*
X268905Y123760D02*
X263825D01*
X268905D02*
X263825D01*
X268905Y143760D02*
X263825D01*
X268905D02*
X263825D01*
X270635Y82030D02*
Y76950D01*
Y82030D02*
Y76950D01*
Y85490D02*
Y90570D01*
Y85490D02*
Y90570D01*
Y102030D02*
Y96950D01*
Y102030D02*
Y96950D01*
Y105490D02*
Y110570D01*
Y105490D02*
Y110570D01*
Y122030D02*
Y116950D01*
Y122030D02*
Y116950D01*
Y125490D02*
Y130570D01*
Y125490D02*
Y130570D01*
Y142030D02*
Y136950D01*
Y142030D02*
Y136950D01*
Y145490D02*
Y150570D01*
Y145490D02*
Y150570D01*
X272365Y83760D02*
X277445D01*
X272365D02*
X277445D01*
X272365Y103760D02*
X277445D01*
X272365D02*
X277445D01*
X272365Y123760D02*
X277445D01*
X272365D02*
X277445D01*
X272365Y143760D02*
X277445D01*
X272365D02*
X277445D01*
X278905Y73760D02*
X273825D01*
X278905D02*
X273825D01*
X278905Y93760D02*
X273825D01*
X278905D02*
X273825D01*
X278905Y113760D02*
X273825D01*
X278905D02*
X273825D01*
X278905Y133760D02*
X273825D01*
X278905D02*
X273825D01*
X280635Y72030D02*
Y66950D01*
Y72030D02*
Y66950D01*
Y75490D02*
Y80570D01*
Y75490D02*
Y80570D01*
Y92030D02*
Y86950D01*
Y92030D02*
Y86950D01*
Y95490D02*
Y100570D01*
Y95490D02*
Y100570D01*
Y112030D02*
Y106950D01*
Y112030D02*
Y106950D01*
Y115490D02*
Y120570D01*
Y115490D02*
Y120570D01*
Y132030D02*
Y126950D01*
Y132030D02*
Y126950D01*
Y135490D02*
Y140570D01*
Y135490D02*
Y140570D01*
X282365Y73760D02*
X287445D01*
X282365D02*
X287445D01*
X282365Y93760D02*
X287445D01*
X282365D02*
X287445D01*
X282365Y113760D02*
X287445D01*
X282365D02*
X287445D01*
X282365Y133760D02*
X287445D01*
X282365D02*
X287445D01*
X288905Y83760D02*
X283825D01*
X288905D02*
X283825D01*
X288905Y103760D02*
X283825D01*
X288905D02*
X283825D01*
X288905Y123760D02*
X283825D01*
X288905D02*
X283825D01*
X288905Y143760D02*
X283825D01*
X288905D02*
X283825D01*
X290635Y82030D02*
Y76950D01*
Y82030D02*
Y76950D01*
Y85490D02*
Y90570D01*
Y85490D02*
Y90570D01*
Y102030D02*
Y96950D01*
Y102030D02*
Y96950D01*
Y105490D02*
Y110570D01*
Y105490D02*
Y110570D01*
Y122030D02*
Y116950D01*
Y122030D02*
Y116950D01*
Y125490D02*
Y130570D01*
Y125490D02*
Y130570D01*
Y142030D02*
Y136950D01*
Y142030D02*
Y136950D01*
Y145490D02*
Y150570D01*
Y145490D02*
Y150570D01*
X292365Y83760D02*
X297445D01*
X292365D02*
X297445D01*
X292365Y103760D02*
X297445D01*
X292365D02*
X297445D01*
X292365Y123760D02*
X297445D01*
X292365D02*
X297445D01*
X292365Y143760D02*
X297445D01*
X292365D02*
X297445D01*
X298905Y73760D02*
X293825D01*
X298905D02*
X293825D01*
X298905Y93760D02*
X293825D01*
X298905D02*
X293825D01*
X298905Y113760D02*
X293825D01*
X298905D02*
X293825D01*
X298905Y133760D02*
X293825D01*
X298905D02*
X293825D01*
X300635Y72030D02*
Y66950D01*
Y72030D02*
Y66950D01*
Y75490D02*
Y80570D01*
Y75490D02*
Y80570D01*
Y92030D02*
Y86950D01*
Y92030D02*
Y86950D01*
Y95490D02*
Y100570D01*
Y95490D02*
Y100570D01*
Y112030D02*
Y106950D01*
Y112030D02*
Y106950D01*
Y115490D02*
Y120570D01*
Y115490D02*
Y120570D01*
Y132030D02*
Y126950D01*
Y132030D02*
Y126950D01*
Y135490D02*
Y140570D01*
Y135490D02*
Y140570D01*
X302365Y73760D02*
X307445D01*
X302365D02*
X307445D01*
X302365Y93760D02*
X307445D01*
X302365D02*
X307445D01*
X302365Y113760D02*
X307445D01*
X302365D02*
X307445D01*
X302365Y133760D02*
X307445D01*
X302365D02*
X307445D01*
X308905Y83760D02*
X303825D01*
X308905D02*
X303825D01*
X308905Y103760D02*
X303825D01*
X308905D02*
X303825D01*
X308905Y123760D02*
X303825D01*
X308905D02*
X303825D01*
X308905Y143760D02*
X303825D01*
X308905D02*
X303825D01*
X310635Y82030D02*
Y76950D01*
Y82030D02*
Y76950D01*
Y85490D02*
Y90570D01*
Y85490D02*
Y90570D01*
Y102030D02*
Y96950D01*
Y102030D02*
Y96950D01*
Y105490D02*
Y110570D01*
Y105490D02*
Y110570D01*
Y122030D02*
Y116950D01*
Y122030D02*
Y116950D01*
Y125490D02*
Y130570D01*
Y125490D02*
Y130570D01*
Y142030D02*
Y136950D01*
Y142030D02*
Y136950D01*
Y145490D02*
Y150570D01*
Y145490D02*
Y150570D01*
X312365Y83760D02*
X317445D01*
X312365D02*
X317445D01*
X312365Y103760D02*
X317445D01*
X312365D02*
X317445D01*
X312365Y123760D02*
X317445D01*
X312365D02*
X317445D01*
X312365Y143760D02*
X317445D01*
X312365D02*
X317445D01*
X318905Y73760D02*
X313825D01*
X318905D02*
X313825D01*
X318905Y93760D02*
X313825D01*
X318905D02*
X313825D01*
X318905Y113760D02*
X313825D01*
X318905D02*
X313825D01*
X318905Y133760D02*
X313825D01*
X318905D02*
X313825D01*
X320635Y72030D02*
Y66950D01*
Y72030D02*
Y66950D01*
Y75490D02*
Y80570D01*
Y75490D02*
Y80570D01*
Y92030D02*
Y86950D01*
Y92030D02*
Y86950D01*
Y95490D02*
Y100570D01*
Y95490D02*
Y100570D01*
Y112030D02*
Y106950D01*
Y112030D02*
Y106950D01*
Y115490D02*
Y120570D01*
Y115490D02*
Y120570D01*
Y132030D02*
Y126950D01*
Y132030D02*
Y126950D01*
Y135490D02*
Y140570D01*
Y135490D02*
Y140570D01*
X322365Y73760D02*
X327445D01*
X322365D02*
X327445D01*
X322365Y93760D02*
X327445D01*
X322365D02*
X327445D01*
X322365Y113760D02*
X327445D01*
X322365D02*
X327445D01*
X322365Y133760D02*
X327445D01*
X322365D02*
X327445D01*
X328905Y83760D02*
X323825D01*
X328905D02*
X323825D01*
X328905Y103760D02*
X323825D01*
X328905D02*
X323825D01*
X328905Y123760D02*
X323825D01*
X328905D02*
X323825D01*
X328905Y143760D02*
X323825D01*
X328905D02*
X323825D01*
X330635Y82030D02*
Y76950D01*
Y82030D02*
Y76950D01*
Y85490D02*
Y90570D01*
Y85490D02*
Y90570D01*
Y102030D02*
Y96950D01*
Y102030D02*
Y96950D01*
Y105490D02*
Y110570D01*
Y105490D02*
Y110570D01*
Y122030D02*
Y116950D01*
Y122030D02*
Y116950D01*
Y125490D02*
Y130570D01*
Y125490D02*
Y130570D01*
Y142030D02*
Y136950D01*
Y142030D02*
Y136950D01*
Y145490D02*
Y150570D01*
Y145490D02*
Y150570D01*
X332365Y83760D02*
X337445D01*
X332365D02*
X337445D01*
X332365Y103760D02*
X337445D01*
X332365D02*
X337445D01*
X332365Y123760D02*
X337445D01*
X332365D02*
X337445D01*
X332365Y143760D02*
X337445D01*
X332365D02*
X337445D01*
X333905Y28760D02*
X328825D01*
X335635Y30490D02*
Y35570D01*
X337365Y28760D02*
X342445D01*
X338905Y73760D02*
X333825D01*
X338905D02*
X333825D01*
X338905Y93760D02*
X333825D01*
X338905D02*
X333825D01*
X338905Y113760D02*
X333825D01*
X338905D02*
X333825D01*
X338905Y133760D02*
X333825D01*
X338905D02*
X333825D01*
X340635Y72030D02*
Y66950D01*
Y72030D02*
Y66950D01*
Y75490D02*
Y80570D01*
Y75490D02*
Y80570D01*
Y92030D02*
Y86950D01*
Y92030D02*
Y86950D01*
Y95490D02*
Y100570D01*
Y95490D02*
Y100570D01*
Y112030D02*
Y106950D01*
Y112030D02*
Y106950D01*
Y115490D02*
Y120570D01*
Y115490D02*
Y120570D01*
Y132030D02*
Y126950D01*
Y132030D02*
Y126950D01*
Y135490D02*
Y140570D01*
Y135490D02*
Y140570D01*
X342365Y73760D02*
X347445D01*
X342365D02*
X347445D01*
X342365Y93760D02*
X347445D01*
X342365D02*
X347445D01*
X342365Y113760D02*
X347445D01*
X342365D02*
X347445D01*
X342365Y133760D02*
X347445D01*
X342365D02*
X347445D01*
X359323Y283348D02*
X355731Y279756D01*
X359323Y293572D02*
X355731Y297164D01*
X368931Y192410D02*
X363851D01*
X369547Y283348D02*
X373139Y279756D01*
X369547Y293572D02*
X373139Y297164D01*
X372635Y228490D02*
Y233570D01*
X374365Y226760D02*
X379445D01*
X382391Y192410D02*
X387471D01*
X382605Y288460D02*
X377525D01*
X389835Y281230D02*
Y276150D01*
X400905Y162760D02*
X395825D01*
X402885Y159030D02*
Y153950D01*
Y166490D02*
Y171570D01*
X404865Y162760D02*
X409945D01*
X408033Y231408D02*
X403325Y226700D01*
X408033Y236112D02*
X403325Y240820D01*
X410135Y280140D02*
Y275060D01*
Y287600D02*
Y292680D01*
X411905Y295760D02*
X406825D01*
X412737Y231408D02*
X417445Y226700D01*
X412737Y236112D02*
X417445Y240820D01*
X412865Y283870D02*
X417945D01*
X413635Y297490D02*
Y302570D01*
X415365Y295760D02*
X420445D01*
X420635Y231030D02*
Y225950D01*
Y234490D02*
Y239570D01*
X422365Y232760D02*
X427445D01*
X466905Y238760D02*
X461825D01*
X473635Y232030D02*
Y226950D01*
Y245490D02*
Y250570D01*
X480365Y238760D02*
X485445D01*
D02*
D13*
X25635Y338760D02*
D03*
Y788760D02*
D03*
X445635Y338760D02*
D03*
X774635Y413760D02*
D03*
Y713760D02*
D03*
D02*
D14*
X462635Y672760D02*
D03*
Y698160D02*
D03*
Y723560D02*
D03*
X579835Y576760D02*
D03*
X605235D02*
D03*
X630635D02*
D03*
X670735Y513160D02*
D03*
Y538560D02*
D03*
Y563960D02*
D03*
Y589360D02*
D03*
Y614760D02*
D03*
X696135Y513160D02*
D03*
Y538560D02*
D03*
Y563960D02*
D03*
Y589360D02*
D03*
Y614760D02*
D03*
D02*
D20*
X128885Y275760D02*
D03*
X144385D02*
D03*
X224885Y223760D02*
D03*
Y240760D02*
D03*
X240385Y223760D02*
D03*
Y240760D02*
D03*
X259885Y223760D02*
D03*
X275385D02*
D03*
X288885D02*
D03*
X304385D02*
D03*
X317885D02*
D03*
X333385D02*
D03*
X394885Y233760D02*
D03*
X402885Y162760D02*
D03*
X410385Y233760D02*
D03*
X418385Y162760D02*
D03*
X511885Y689760D02*
D03*
X527385D02*
D03*
X569885Y555160D02*
D03*
X575885Y457160D02*
D03*
X585385Y555160D02*
D03*
X591385Y457160D02*
D03*
X706885Y715760D02*
D03*
X722385D02*
D03*
X736885Y547760D02*
D03*
Y565760D02*
D03*
X752385Y547760D02*
D03*
Y565760D02*
D03*
D02*
D21*
X34385Y554010D02*
D03*
Y574010D02*
D03*
X106635Y553760D02*
D03*
Y573760D02*
D03*
X251635Y415760D02*
D03*
Y435760D02*
D03*
X253635Y553760D02*
D03*
Y573760D02*
D03*
X347635Y414760D02*
D03*
Y434760D02*
D03*
Y553760D02*
D03*
Y573760D02*
D03*
D02*
D22*
X237435Y263060D02*
D03*
Y288460D02*
D03*
X262835Y263060D02*
D03*
Y288460D02*
D03*
X288235Y263060D02*
D03*
Y288460D02*
D03*
X313635Y263060D02*
D03*
Y288460D02*
D03*
X339035Y263060D02*
D03*
Y288460D02*
D03*
X364435Y263060D02*
D03*
Y288460D02*
D03*
X389835Y263060D02*
D03*
Y288460D02*
D03*
D02*
D23*
X509435Y708760D02*
D03*
Y723760D02*
D03*
Y738760D02*
D03*
D02*
D24*
X543835Y723760D02*
D03*
D02*
D25*
X85635Y39010D02*
D03*
Y54510D02*
D03*
X201635Y241010D02*
D03*
Y256510D02*
D03*
Y278010D02*
D03*
Y293510D02*
D03*
X533635Y541410D02*
D03*
Y556910D02*
D03*
X534635Y511410D02*
D03*
Y526910D02*
D03*
X683635Y669010D02*
D03*
Y684510D02*
D03*
D02*
D26*
X375661Y179710D02*
D03*
Y192410D02*
D03*
Y205110D02*
D03*
Y217810D02*
D03*
X429619Y179710D02*
D03*
Y192410D02*
D03*
Y205110D02*
D03*
Y217810D02*
D03*
D02*
D72*
X724635Y505760D02*
D03*
Y651260D02*
D03*
D02*
D75*
X253635Y573760D02*
Y585760D01*
X347635Y573760D02*
Y585760D01*
X462635Y672760D02*
X442635D01*
X435635Y679760*
Y702760*
X405635Y732760*
X83635*
X72635Y721760*
Y658760*
X71635Y657760*
X462635Y723560D02*
Y731260D01*
X466635Y735260*
X487635*
X496135*
X499635Y738760*
X509435*
Y708760D02*
X502135D01*
X498635Y712260*
X487635*
X511885Y689760D02*
X506635D01*
X502635Y685760*
Y680760*
X511885Y689760D02*
Y706310D01*
X509435Y708760*
X533635Y556910D02*
X545885D01*
X547635Y555160*
Y532660*
X541885Y526910*
X533635Y556910D02*
X528285D01*
X522635Y551260*
X513035*
X534635Y511410D02*
Y458160D01*
X551635Y441160*
X586635*
X591635Y446160*
Y456910*
X591385Y457160*
X534635Y511410D02*
X525385D01*
X523635Y513160*
X513035*
X534635Y526910D02*
X541885D01*
X546635Y522160*
Y471160*
X560635Y457160*
X575885*
X543835Y723760D02*
X509435D01*
X565635Y497960D02*
X560635D01*
Y477160*
X563635Y475160*
X568135*
X569885Y555160D02*
X567635D01*
X558635Y546160*
Y519160*
X565635Y512160*
Y497960*
X579835Y576760D02*
X579635D01*
X569635Y566760*
Y555160*
X569885*
X580635Y497960D02*
Y485160D01*
X578635Y483160*
Y460910*
X575885Y458160*
Y457160*
X580635Y532360D02*
X608435D01*
X617635Y523160*
Y446160*
X574635Y403160*
Y362660*
X575135Y362160*
Y347760*
X580635Y532360D02*
Y497960D01*
Y532360D02*
Y541410D01*
X585385Y546160*
Y555160*
X591135Y475160D02*
Y493460D01*
X595635Y497960*
X591385Y457160D02*
Y474910D01*
X591135Y475160*
X605235Y576760D02*
Y566760D01*
X593635Y555160*
X585385*
X724635Y505760D02*
X740635D01*
X751635Y516760*
Y547010*
X752385Y547760*
X744635Y606260D02*
X762635D01*
X744635Y651260D02*
X724635D01*
X752385Y565760D02*
Y547760D01*
D02*
D76*
X71635Y242760D02*
X54635Y225760D01*
Y115760*
X58635*
X85635Y54510D02*
Y61760D01*
X90635Y66760*
X91635*
X97635Y86760D02*
X106985D01*
X107185Y86560*
X106585Y43560D02*
Y35560D01*
Y51560D02*
Y43560D01*
Y59560D02*
Y51560D01*
Y59560D02*
X97835D01*
X97635Y59760*
X107185Y86560D02*
Y94560D01*
Y102560*
Y110560*
X124635Y288760D02*
Y281010D01*
X128885Y276760*
Y275760*
Y262510*
X132635Y258760*
Y243260*
X136635Y239260*
X144745*
X184745D02*
X192885D01*
X194635Y241010*
X201635*
X184745Y277260D02*
X179135D01*
X174635Y272760*
Y241260*
X176635Y239260*
X184745*
Y277260D02*
X191885D01*
X192635Y278010*
X201635*
X214635Y268760D02*
Y275010D01*
X211635Y278010*
X201635*
X220635Y211760D02*
X218635D01*
X216635Y213760*
Y237760*
X219635Y240760*
X224885*
X230635Y211760D02*
Y218010D01*
X224885Y223760*
X279635Y234760D02*
Y223760D01*
X275385*
X288885D02*
X275385D01*
X317885D02*
Y216010D01*
X315635Y213760*
X289885*
X288885Y214760*
Y223760*
X387635Y192410D02*
X375661D01*
X394885Y233760D02*
Y212360D01*
X387635Y205110*
X375661*
X399635Y245760D02*
X398885D01*
X394885Y241760*
Y233760*
X402885Y162760D02*
X396635D01*
X392635Y166760*
Y189410*
X389635Y192410*
X387635*
X410385Y233760D02*
Y203510D01*
X399635Y192760*
X388285*
X387935Y192410*
X387635*
X413635Y295760D02*
Y295260D01*
X410135Y291760*
Y283870*
X419635Y259870D02*
Y255760D01*
X409635Y245760*
X399635*
X420635Y232760D02*
X411385D01*
X410385Y233760*
X429619Y192410D02*
X447635D01*
Y138760D02*
X473635D01*
X456635Y205110D02*
X429619D01*
X473635Y163760D02*
X456635D01*
X683635Y684510D02*
X680385D01*
X674635Y678760*
Y638760*
X684635Y628760*
X710635*
X713635Y631760*
Y647260*
X717635Y651260*
X724635*
X722385Y715760D02*
Y696620D01*
X723135Y695870*
Y695260*
X736635Y681760*
D02*
D77*
X565635Y497960D02*
D03*
X580635D02*
D03*
X595635D02*
D03*
D02*
D78*
X580635Y532360D02*
D03*
D02*
D82*
X29135Y574010D02*
X24095D01*
X34385Y577260D02*
Y582300D01*
X39635Y574010D02*
X44675D01*
X55385Y533760D02*
X50345D01*
X55385Y595760D02*
X50345D01*
X55385Y657760D02*
X50345D01*
X71635Y517510D02*
Y512470D01*
Y550010D02*
Y555050D01*
Y579510D02*
Y574470D01*
Y612010D02*
Y617050D01*
Y641510D02*
Y636470D01*
Y674010D02*
Y679050D01*
X87885Y533760D02*
X92925D01*
X87885Y595760D02*
X92925D01*
X87885Y657760D02*
X92925D01*
X96885Y589760D02*
X91845D01*
X96885Y613760D02*
X91845D01*
X97398Y600523D02*
X93834Y596959D01*
X97398Y602997D02*
X93834Y606561D01*
X97885Y517760D02*
X92845D01*
X98398Y504523D02*
X94834Y500959D01*
X98398Y506997D02*
X94834Y510561D01*
X98398Y528523D02*
X94834Y524959D01*
X98398Y530997D02*
X94834Y534561D01*
X98635Y588010D02*
Y582970D01*
Y591510D02*
Y596550D01*
Y612010D02*
Y606970D01*
Y615510D02*
Y620550D01*
X99635Y516010D02*
Y510970D01*
Y519510D02*
Y524550D01*
X99872Y600523D02*
X103436Y596959D01*
X99872Y602997D02*
X103436Y606561D01*
X100385Y589760D02*
X105425D01*
X100385Y613760D02*
X105425D01*
X100872Y504523D02*
X104436Y500959D01*
X100872Y506997D02*
X104436Y510561D01*
X100872Y528523D02*
X104436Y524959D01*
X100872Y530997D02*
X104436Y534561D01*
X101385Y517760D02*
X106425D01*
X101385Y553760D02*
X96345D01*
X101385Y573760D02*
X96345D01*
X106635Y550510D02*
Y545470D01*
Y557010D02*
Y562050D01*
Y577010D02*
Y582050D01*
X108885Y601760D02*
X103845D01*
X109398Y588523D02*
X105834Y584959D01*
X109398Y590997D02*
X105834Y594561D01*
X109398Y612523D02*
X105834Y608959D01*
X109398Y614997D02*
X105834Y618561D01*
X109885Y505760D02*
X104845D01*
X109885Y529760D02*
X104845D01*
X110398Y516523D02*
X106834Y512959D01*
X110398Y518997D02*
X106834Y522561D01*
X110635Y600010D02*
Y594970D01*
Y603510D02*
Y608550D01*
X111635Y504010D02*
Y498970D01*
Y507510D02*
Y512550D01*
Y528010D02*
Y522970D01*
Y531510D02*
Y536550D01*
X111872Y588523D02*
X115436Y584959D01*
X111872Y590997D02*
X115436Y594561D01*
X111872Y612523D02*
X115436Y608959D01*
X111872Y614997D02*
X115436Y618561D01*
X111885Y553760D02*
X116925D01*
X111885Y573760D02*
X116925D01*
X112385Y601760D02*
X117425D01*
X112872Y516523D02*
X116436Y512959D01*
X112872Y518997D02*
X116436Y522561D01*
X113385Y505760D02*
X118425D01*
X113385Y529760D02*
X118425D01*
X118885Y339760D02*
X113845D01*
X118885Y363760D02*
X113845D01*
X120635Y338010D02*
Y332970D01*
Y341510D02*
Y346550D01*
Y362010D02*
Y356970D01*
Y365510D02*
Y370550D01*
X120885Y589760D02*
X115845D01*
X120885Y613760D02*
X115845D01*
X121398Y576523D02*
X117834Y572959D01*
X121398Y578997D02*
X117834Y582561D01*
X121398Y600523D02*
X117834Y596959D01*
X121398Y602997D02*
X117834Y606561D01*
X121885Y517760D02*
X116845D01*
X121885Y541760D02*
X116845D01*
X122385Y339760D02*
X127425D01*
X122385Y363760D02*
X127425D01*
X122398Y504523D02*
X118834Y500959D01*
X122398Y506997D02*
X118834Y510561D01*
X122398Y528523D02*
X118834Y524959D01*
X122398Y530997D02*
X118834Y534561D01*
X122398Y552523D02*
X118834Y548959D01*
X122398Y554997D02*
X118834Y558561D01*
X122635Y588010D02*
Y582970D01*
Y591510D02*
Y596550D01*
Y612010D02*
Y606970D01*
Y615510D02*
Y620550D01*
X123635Y516010D02*
Y510970D01*
Y519510D02*
Y524550D01*
Y540010D02*
Y534970D01*
Y543510D02*
Y548550D01*
X123872Y576523D02*
X127436Y572959D01*
X123872Y578997D02*
X127436Y582561D01*
X123872Y600523D02*
X127436Y596959D01*
X123872Y602997D02*
X127436Y606561D01*
X124385Y589760D02*
X129425D01*
X124385Y613760D02*
X129425D01*
X124872Y504523D02*
X128436Y500959D01*
X124872Y506997D02*
X128436Y510561D01*
X124872Y528523D02*
X128436Y524959D01*
X124872Y530997D02*
X128436Y534561D01*
X124872Y552523D02*
X128436Y548959D01*
X124872Y554997D02*
X128436Y558561D01*
X125385Y517760D02*
X130425D01*
X125385Y541760D02*
X130425D01*
X130885Y351760D02*
X125845D01*
X132635Y350010D02*
Y344970D01*
Y353510D02*
Y358550D01*
X132885Y577760D02*
X127845D01*
X132885Y601760D02*
X127845D01*
X133398Y588523D02*
X129834Y584959D01*
X133398Y590997D02*
X129834Y594561D01*
X133398Y612523D02*
X129834Y608959D01*
X133398Y614997D02*
X129834Y618561D01*
X133885Y505760D02*
X128845D01*
X133885Y529760D02*
X128845D01*
X133885Y553760D02*
X128845D01*
X134385Y351760D02*
X139425D01*
X134398Y492523D02*
X130834Y488959D01*
X134398Y494997D02*
X130834Y498561D01*
X134398Y516523D02*
X130834Y512959D01*
X134398Y518997D02*
X130834Y522561D01*
X134398Y540523D02*
X130834Y536959D01*
X134398Y542997D02*
X130834Y546561D01*
X134635Y576010D02*
Y570970D01*
Y579510D02*
Y584550D01*
Y600010D02*
Y594970D01*
Y603510D02*
Y608550D01*
X135635Y504010D02*
Y498970D01*
Y507510D02*
Y512550D01*
Y528010D02*
Y522970D01*
Y531510D02*
Y536550D01*
Y552010D02*
Y546970D01*
Y555510D02*
Y560550D01*
X135872Y588523D02*
X139436Y584959D01*
X135872Y590997D02*
X139436Y594561D01*
X135872Y612523D02*
X139436Y608959D01*
X135872Y614997D02*
X139436Y618561D01*
X136385Y577760D02*
X141425D01*
X136385Y601760D02*
X141425D01*
X136872Y492523D02*
X140436Y488959D01*
X136872Y494997D02*
X140436Y498561D01*
X136872Y516523D02*
X140436Y512959D01*
X136872Y518997D02*
X140436Y522561D01*
X136872Y540523D02*
X140436Y536959D01*
X136872Y542997D02*
X140436Y546561D01*
X137385Y505760D02*
X142425D01*
X137385Y529760D02*
X142425D01*
X137385Y553760D02*
X142425D01*
X142885Y339760D02*
X137845D01*
X142885Y363760D02*
X137845D01*
X144635Y338010D02*
Y332970D01*
Y341510D02*
Y346550D01*
Y362010D02*
Y356970D01*
Y365510D02*
Y370550D01*
X144885Y589760D02*
X139845D01*
X144885Y613760D02*
X139845D01*
X145398Y576523D02*
X141834Y572959D01*
X145398Y578997D02*
X141834Y582561D01*
X145398Y600523D02*
X141834Y596959D01*
X145398Y602997D02*
X141834Y606561D01*
X145885Y493760D02*
X140845D01*
X145885Y517760D02*
X140845D01*
X145885Y541760D02*
X140845D01*
X146385Y339760D02*
X151425D01*
X146385Y363760D02*
X151425D01*
X146398Y504523D02*
X142834Y500959D01*
X146398Y506997D02*
X142834Y510561D01*
X146398Y528523D02*
X142834Y524959D01*
X146398Y530997D02*
X142834Y534561D01*
X146398Y552523D02*
X142834Y548959D01*
X146398Y554997D02*
X142834Y558561D01*
X146635Y588010D02*
Y582970D01*
Y591510D02*
Y596550D01*
Y612010D02*
Y606970D01*
Y615510D02*
Y620550D01*
X147635Y492010D02*
Y486970D01*
Y495510D02*
Y500550D01*
Y516010D02*
Y510970D01*
Y519510D02*
Y524550D01*
Y540010D02*
Y534970D01*
Y543510D02*
Y548550D01*
X147872Y578997D02*
X151436Y582561D01*
X147872Y600523D02*
X151436Y596959D01*
X147872Y602997D02*
X151436Y606561D01*
X148385Y589760D02*
X153425D01*
X148385Y613760D02*
X153425D01*
X148872Y504523D02*
X152436Y500959D01*
X148872Y506997D02*
X152436Y510561D01*
X148872Y528523D02*
X152436Y524959D01*
X148872Y530997D02*
X152436Y534561D01*
X148872Y552523D02*
X152436Y548959D01*
X148872Y554997D02*
X152436Y558561D01*
X149385Y493760D02*
X154425D01*
X149385Y517760D02*
X154425D01*
X149385Y541760D02*
X154425D01*
X154885Y351760D02*
X149845D01*
X156635Y350010D02*
Y344970D01*
Y353510D02*
Y358550D01*
X158385Y351760D02*
X163425D01*
X166885Y339760D02*
X161845D01*
X166885Y363760D02*
X161845D01*
X168635Y338010D02*
Y332970D01*
Y341510D02*
Y346550D01*
Y362010D02*
Y356970D01*
Y365510D02*
Y370550D01*
X168885Y669760D02*
X163845D01*
X168885Y693760D02*
X163845D01*
X168885Y759760D02*
X163845D01*
X168885Y783760D02*
X163845D01*
X169398Y656523D02*
X165834Y652959D01*
X169398Y658997D02*
X165834Y662561D01*
X169398Y680523D02*
X165834Y676959D01*
X169398Y682997D02*
X165834Y686561D01*
X169398Y746523D02*
X165834Y742959D01*
X169398Y748997D02*
X165834Y752561D01*
X169398Y770523D02*
X165834Y766959D01*
X169398Y772997D02*
X165834Y776561D01*
X170385Y339760D02*
X175425D01*
X170385Y363760D02*
X175425D01*
X170635Y668010D02*
Y662970D01*
Y671510D02*
Y676550D01*
Y692010D02*
Y686970D01*
Y695510D02*
Y700550D01*
Y758010D02*
Y752970D01*
Y761510D02*
Y766550D01*
Y782010D02*
Y776970D01*
Y785510D02*
Y790550D01*
X171872Y656523D02*
X175436Y652959D01*
X171872Y658997D02*
X175436Y662561D01*
X171872Y680523D02*
X175436Y676959D01*
X171872Y682997D02*
X175436Y686561D01*
X171872Y746523D02*
X175436Y742959D01*
X171872Y748997D02*
X175436Y752561D01*
X171872Y770523D02*
X175436Y766959D01*
X171872Y772997D02*
X175436Y776561D01*
X172385Y669760D02*
X177425D01*
X172385Y693760D02*
X177425D01*
X172385Y759760D02*
X177425D01*
X172385Y783760D02*
X177425D01*
X178885Y351760D02*
X173845D01*
X179885Y508760D02*
X174845D01*
X180635Y350010D02*
Y344970D01*
Y353510D02*
Y358550D01*
X180885Y657760D02*
X175845D01*
X180885Y681760D02*
X175845D01*
X180885Y771760D02*
X175845D01*
X181398Y668523D02*
X177834Y664959D01*
X181398Y670997D02*
X177834Y674561D01*
X181398Y692523D02*
X177834Y688959D01*
X181398Y694997D02*
X177834Y698561D01*
X181398Y746523D02*
X177834Y742959D01*
X181398Y748997D02*
X177834Y752561D01*
X181398Y758523D02*
X177834Y754959D01*
X181398Y760997D02*
X177834Y764561D01*
X181398Y782523D02*
X177834Y778959D01*
X181398Y784997D02*
X177834Y788561D01*
X181635Y507010D02*
Y501970D01*
Y510510D02*
Y515550D01*
X182385Y351760D02*
X187425D01*
X182635Y656010D02*
Y650970D01*
Y659510D02*
Y664550D01*
Y680010D02*
Y674970D01*
Y683510D02*
Y688550D01*
Y770010D02*
Y764970D01*
Y773510D02*
Y778550D01*
X183385Y508760D02*
X188425D01*
X183872Y668523D02*
X187436Y664959D01*
X183872Y670997D02*
X187436Y674561D01*
X183872Y692523D02*
X187436Y688959D01*
X183872Y694997D02*
X187436Y698561D01*
X183872Y746523D02*
X187436Y742959D01*
X183872Y748997D02*
X187436Y752561D01*
X183872Y758523D02*
X187436Y754959D01*
X183872Y760997D02*
X187436Y764561D01*
X183872Y782523D02*
X187436Y778959D01*
X183872Y784997D02*
X187436Y788561D01*
X184385Y657760D02*
X189425D01*
X184385Y681760D02*
X189425D01*
X184385Y771760D02*
X189425D01*
X190885Y339760D02*
X185845D01*
X190885Y363760D02*
X185845D01*
X192398Y507523D02*
X188834Y503959D01*
X192398Y509997D02*
X188834Y513561D01*
X192635Y338010D02*
Y332970D01*
Y341510D02*
Y346550D01*
Y362010D02*
Y356970D01*
Y365510D02*
Y370550D01*
X192885Y759760D02*
X187845D01*
X192885Y783760D02*
X187845D01*
X193398Y746523D02*
X189834Y742959D01*
X193398Y748997D02*
X189834Y752561D01*
X193398Y770523D02*
X189834Y766959D01*
X193398Y772997D02*
X189834Y776561D01*
X194385Y339760D02*
X199425D01*
X194385Y363760D02*
X199425D01*
X194635Y758010D02*
Y752970D01*
Y761510D02*
Y766550D01*
Y782010D02*
Y776970D01*
Y785510D02*
Y790550D01*
X194872Y507523D02*
X198436Y503959D01*
X194872Y509997D02*
X198436Y513561D01*
X195872Y746523D02*
X199436Y742959D01*
X195872Y748997D02*
X199436Y752561D01*
X195872Y770523D02*
X199436Y766959D01*
X195872Y772997D02*
X199436Y776561D01*
X196385Y759760D02*
X201425D01*
X196385Y783760D02*
X201425D01*
X202885Y351760D02*
X197845D01*
X203885Y508760D02*
X198845D01*
X204635Y350010D02*
Y344970D01*
Y353510D02*
Y358550D01*
X205635Y507010D02*
Y501970D01*
Y510510D02*
Y515550D01*
X206385Y351760D02*
X211425D01*
X207385Y508760D02*
X212425D01*
X214885Y339760D02*
X209845D01*
X214885Y363760D02*
X209845D01*
X216635Y338010D02*
Y332970D01*
Y341510D02*
Y346550D01*
Y362010D02*
Y356970D01*
Y365510D02*
Y370550D01*
X218385Y339760D02*
X223425D01*
X218385Y363760D02*
X223425D01*
X219885Y508760D02*
X214845D01*
X221635Y507010D02*
Y501970D01*
Y510510D02*
Y515550D01*
X223385Y508760D02*
X228425D01*
X226885Y351760D02*
X221845D01*
X228635Y350010D02*
Y344970D01*
Y353510D02*
Y358550D01*
X230385Y351760D02*
X235425D01*
X230885Y759760D02*
X225845D01*
X230885Y783760D02*
X225845D01*
X231398Y746523D02*
X227834Y742959D01*
X231398Y748997D02*
X227834Y752561D01*
X231398Y770523D02*
X227834Y766959D01*
X231398Y772997D02*
X227834Y776561D01*
X232398Y507523D02*
X228834Y503959D01*
X232398Y509997D02*
X228834Y513561D01*
X232635Y758010D02*
Y752970D01*
Y761510D02*
Y766550D01*
Y782010D02*
Y776970D01*
Y785510D02*
Y790550D01*
X233872Y746523D02*
X237436Y742959D01*
X233872Y748997D02*
X237436Y752561D01*
X233872Y770523D02*
X237436Y766959D01*
X233872Y772997D02*
X237436Y776561D01*
X234385Y759760D02*
X239425D01*
X234385Y783760D02*
X239425D01*
X234872Y507523D02*
X238436Y503959D01*
X234872Y509997D02*
X238436Y513561D01*
X238885Y339760D02*
X233845D01*
X238885Y363760D02*
X233845D01*
X238885Y669760D02*
X233845D01*
X238885Y693760D02*
X233845D01*
X239398Y656523D02*
X235834Y652959D01*
X239398Y658997D02*
X235834Y662561D01*
X239398Y680523D02*
X235834Y676959D01*
X239398Y682997D02*
X235834Y686561D01*
X240635Y338010D02*
Y332970D01*
Y341510D02*
Y346550D01*
Y362010D02*
Y356970D01*
Y365510D02*
Y370550D01*
Y668010D02*
Y662970D01*
Y671510D02*
Y676550D01*
Y692010D02*
Y686970D01*
Y695510D02*
Y700550D01*
X241872Y656523D02*
X245436Y652959D01*
X241872Y658997D02*
X245436Y662561D01*
X241872Y680523D02*
X245436Y676959D01*
X241872Y682997D02*
X245436Y686561D01*
X242385Y339760D02*
X247425D01*
X242385Y363760D02*
X247425D01*
X242385Y669760D02*
X247425D01*
X242385Y693760D02*
X247425D01*
X242885Y771760D02*
X237845D01*
X243398Y746523D02*
X239834Y742959D01*
X243398Y748997D02*
X239834Y752561D01*
X243398Y758523D02*
X239834Y754959D01*
X243398Y760997D02*
X239834Y764561D01*
X243398Y782523D02*
X239834Y778959D01*
X243398Y784997D02*
X239834Y788561D01*
X243885Y508760D02*
X238845D01*
X244635Y770010D02*
Y764970D01*
Y773510D02*
Y778550D01*
X245635Y507010D02*
Y501970D01*
Y510510D02*
Y515550D01*
X245872Y746523D02*
X249436Y742959D01*
X245872Y748997D02*
X249436Y752561D01*
X245872Y758523D02*
X249436Y754959D01*
X245872Y760997D02*
X249436Y764561D01*
X245872Y782523D02*
X249436Y778959D01*
X245872Y784997D02*
X249436Y788561D01*
X246385Y435760D02*
X241345D01*
X246385Y771760D02*
X251425D01*
X247385Y508760D02*
X252425D01*
X248385Y553760D02*
X243345D01*
X250885Y351760D02*
X245845D01*
X250885Y657760D02*
X245845D01*
X250885Y681760D02*
X245845D01*
X251398Y668523D02*
X247834Y664959D01*
X251398Y670997D02*
X247834Y674561D01*
X251398Y692523D02*
X247834Y688959D01*
X251398Y694997D02*
X247834Y698561D01*
X251635Y432510D02*
Y427470D01*
Y439010D02*
Y444050D01*
X252635Y350010D02*
Y344970D01*
Y353510D02*
Y358550D01*
Y656010D02*
Y650970D01*
Y659510D02*
Y664550D01*
Y680010D02*
Y674970D01*
Y683510D02*
Y688550D01*
X253635Y550510D02*
Y545470D01*
Y557010D02*
Y562050D01*
X253872Y668523D02*
X257436Y664959D01*
X253872Y670997D02*
X257436Y674561D01*
X253872Y692523D02*
X257436Y688959D01*
X253872Y694997D02*
X257436Y698561D01*
X254385Y351760D02*
X259425D01*
X254385Y657760D02*
X259425D01*
X254385Y681760D02*
X259425D01*
X254885Y759760D02*
X249845D01*
X254885Y783760D02*
X249845D01*
X255398Y746523D02*
X251834Y742959D01*
X255398Y748997D02*
X251834Y752561D01*
X255398Y770523D02*
X251834Y766959D01*
X255398Y772997D02*
X251834Y776561D01*
X256635Y758010D02*
Y752970D01*
Y761510D02*
Y766550D01*
Y782010D02*
Y776970D01*
Y785510D02*
Y790550D01*
X256885Y435760D02*
X261925D01*
X257872Y746523D02*
X261436Y742959D01*
X257872Y748997D02*
X261436Y752561D01*
X257872Y770523D02*
X261436Y766959D01*
X257872Y772997D02*
X261436Y776561D01*
X258385Y759760D02*
X263425D01*
X258385Y783760D02*
X263425D01*
X258885Y553760D02*
X263925D01*
X261885Y500760D02*
X256845D01*
X261885Y524760D02*
X256845D01*
X262398Y487523D02*
X258834Y483959D01*
X262398Y489997D02*
X258834Y493561D01*
X262398Y511523D02*
X258834Y507959D01*
X262398Y513997D02*
X258834Y517561D01*
X262398Y535523D02*
X258834Y531959D01*
X262398Y537997D02*
X258834Y541561D01*
X262885Y339760D02*
X257845D01*
X262885Y363760D02*
X257845D01*
X262885Y387760D02*
X257845D01*
X263635Y499010D02*
Y493970D01*
Y502510D02*
Y507550D01*
Y523010D02*
Y517970D01*
Y526510D02*
Y531550D01*
X264635Y338010D02*
Y332970D01*
Y341510D02*
Y346550D01*
Y362010D02*
Y356970D01*
Y365510D02*
Y370550D01*
Y386010D02*
Y380970D01*
Y389510D02*
Y394550D01*
X264872Y487523D02*
X268436Y483959D01*
X264872Y489997D02*
X268436Y493561D01*
X264872Y511523D02*
X268436Y507959D01*
X264872Y513997D02*
X268436Y517561D01*
X264872Y535523D02*
X268436Y531959D01*
X264872Y537997D02*
X268436Y541561D01*
X265385Y500760D02*
X270425D01*
X265385Y524760D02*
X270425D01*
X266385Y339760D02*
X271425D01*
X266385Y363760D02*
X271425D01*
X266385Y387760D02*
X271425D01*
X273885Y488760D02*
X268845D01*
X273885Y512760D02*
X268845D01*
X273885Y536760D02*
X268845D01*
X274398Y499523D02*
X270834Y495959D01*
X274398Y501997D02*
X270834Y505561D01*
X274398Y523523D02*
X270834Y519959D01*
X274398Y525997D02*
X270834Y529561D01*
X274885Y351760D02*
X269845D01*
X274885Y375760D02*
X269845D01*
X274885Y399760D02*
X269845D01*
X275635Y487010D02*
Y481970D01*
Y490510D02*
Y495550D01*
Y511010D02*
Y505970D01*
Y514510D02*
Y519550D01*
Y535010D02*
Y529970D01*
Y538510D02*
Y543550D01*
X276635Y350010D02*
Y344970D01*
Y353510D02*
Y358550D01*
Y374010D02*
Y368970D01*
Y377510D02*
Y382550D01*
Y398010D02*
Y392970D01*
Y401510D02*
Y406550D01*
X276872Y499523D02*
X280436Y495959D01*
X276872Y501997D02*
X280436Y505561D01*
X276872Y523523D02*
X280436Y519959D01*
X276872Y525997D02*
X280436Y529561D01*
X277385Y488760D02*
X282425D01*
X277385Y512760D02*
X282425D01*
X277385Y536760D02*
X282425D01*
X278385Y351760D02*
X283425D01*
X278385Y375760D02*
X283425D01*
X278385Y399760D02*
X283425D01*
X286398Y487523D02*
X282834Y483959D01*
X286398Y489997D02*
X282834Y493561D01*
X286398Y499523D02*
X282834Y495959D01*
X286398Y501997D02*
X282834Y505561D01*
X286398Y511523D02*
X282834Y507959D01*
X286398Y513997D02*
X282834Y517561D01*
X286398Y523523D02*
X282834Y519959D01*
X286398Y525997D02*
X282834Y529561D01*
X286398Y535523D02*
X282834Y531959D01*
X286398Y537997D02*
X282834Y541561D01*
X286885Y339760D02*
X281845D01*
X286885Y363760D02*
X281845D01*
X286885Y387760D02*
X281845D01*
X288635Y338010D02*
Y332970D01*
Y341510D02*
Y346550D01*
Y362010D02*
Y356970D01*
Y365510D02*
Y370550D01*
Y386010D02*
Y380970D01*
Y389510D02*
Y394550D01*
X288872Y487523D02*
X292436Y483959D01*
X288872Y489997D02*
X292436Y493561D01*
X288872Y499523D02*
X292436Y495959D01*
X288872Y501997D02*
X292436Y505561D01*
X288872Y511523D02*
X292436Y507959D01*
X288872Y513997D02*
X292436Y517561D01*
X288872Y523523D02*
X292436Y519959D01*
X288872Y525997D02*
X292436Y529561D01*
X288872Y535523D02*
X292436Y531959D01*
X288872Y537997D02*
X292436Y541561D01*
X290385Y339760D02*
X295425D01*
X290385Y363760D02*
X295425D01*
X290385Y387760D02*
X295425D01*
X295885Y759760D02*
X290845D01*
X295885Y783760D02*
X290845D01*
X296398Y746523D02*
X292834Y742959D01*
X296398Y748997D02*
X292834Y752561D01*
X296398Y770523D02*
X292834Y766959D01*
X296398Y772997D02*
X292834Y776561D01*
X297635Y758010D02*
Y752970D01*
Y761510D02*
Y766550D01*
Y782010D02*
Y776970D01*
Y785510D02*
Y790550D01*
X298872Y746523D02*
X302436Y742959D01*
X298872Y748997D02*
X302436Y752561D01*
X298872Y770523D02*
X302436Y766959D01*
X298872Y772997D02*
X302436Y776561D01*
X298885Y351760D02*
X293845D01*
X298885Y375760D02*
X293845D01*
X298885Y399760D02*
X293845D01*
X299385Y759760D02*
X304425D01*
X299385Y783760D02*
X304425D01*
X300635Y350010D02*
Y344970D01*
Y353510D02*
Y358550D01*
Y374010D02*
Y368970D01*
Y377510D02*
Y382550D01*
Y398010D02*
Y392970D01*
Y401510D02*
Y406550D01*
X302385Y351760D02*
X307425D01*
X302385Y375760D02*
X307425D01*
X302385Y399760D02*
X307425D01*
X305885Y488760D02*
X300845D01*
X305885Y512760D02*
X300845D01*
X305885Y536760D02*
X300845D01*
X306398Y499523D02*
X302834Y495959D01*
X306398Y501997D02*
X302834Y505561D01*
X306398Y523523D02*
X302834Y519959D01*
X306398Y525997D02*
X302834Y529561D01*
X307635Y487010D02*
Y481970D01*
Y490510D02*
Y495550D01*
Y511010D02*
Y505970D01*
Y514510D02*
Y519550D01*
Y535010D02*
Y529970D01*
Y538510D02*
Y543550D01*
X307885Y771760D02*
X302845D01*
X308398Y746523D02*
X304834Y742959D01*
X308398Y748997D02*
X304834Y752561D01*
X308398Y758523D02*
X304834Y754959D01*
X308398Y760997D02*
X304834Y764561D01*
X308398Y782523D02*
X304834Y778959D01*
X308398Y784997D02*
X304834Y788561D01*
X308872Y499523D02*
X312436Y495959D01*
X308872Y501997D02*
X312436Y505561D01*
X308872Y523523D02*
X312436Y519959D01*
X308872Y525997D02*
X312436Y529561D01*
X308885Y669760D02*
X303845D01*
X308885Y693760D02*
X303845D01*
X309385Y488760D02*
X314425D01*
X309385Y512760D02*
X314425D01*
X309385Y536760D02*
X314425D01*
X309398Y656523D02*
X305834Y652959D01*
X309398Y658997D02*
X305834Y662561D01*
X309398Y680523D02*
X305834Y676959D01*
X309398Y682997D02*
X305834Y686561D01*
X309635Y770010D02*
Y764970D01*
Y773510D02*
Y778550D01*
X310635Y668010D02*
Y662970D01*
Y671510D02*
Y676550D01*
Y692010D02*
Y686970D01*
Y695510D02*
Y700550D01*
X310872Y746523D02*
X314436Y742959D01*
X310872Y748997D02*
X314436Y752561D01*
X310872Y758523D02*
X314436Y754959D01*
X310872Y760997D02*
X314436Y764561D01*
X310872Y782523D02*
X314436Y778959D01*
X310872Y784997D02*
X314436Y788561D01*
X310885Y339760D02*
X305845D01*
X310885Y363760D02*
X305845D01*
X310885Y387760D02*
X305845D01*
X311385Y771760D02*
X316425D01*
X311872Y656523D02*
X315436Y652959D01*
X311872Y658997D02*
X315436Y662561D01*
X311872Y680523D02*
X315436Y676959D01*
X311872Y682997D02*
X315436Y686561D01*
X312385Y669760D02*
X317425D01*
X312385Y693760D02*
X317425D01*
X312635Y338010D02*
Y332970D01*
Y341510D02*
Y346550D01*
Y362010D02*
Y356970D01*
Y365510D02*
Y370550D01*
Y386010D02*
Y380970D01*
Y389510D02*
Y394550D01*
X314385Y339760D02*
X319425D01*
X314385Y363760D02*
X319425D01*
X314385Y387760D02*
X319425D01*
X317885Y500760D02*
X312845D01*
X317885Y524760D02*
X312845D01*
X318398Y487523D02*
X314834Y483959D01*
X318398Y489997D02*
X314834Y493561D01*
X318398Y511523D02*
X314834Y507959D01*
X318398Y513997D02*
X314834Y517561D01*
X318398Y535523D02*
X314834Y531959D01*
X318398Y537997D02*
X314834Y541561D01*
X319635Y499010D02*
Y493970D01*
Y502510D02*
Y507550D01*
Y523010D02*
Y517970D01*
Y526510D02*
Y531550D01*
X319885Y759760D02*
X314845D01*
X319885Y783760D02*
X314845D01*
X320398Y746523D02*
X316834Y742959D01*
X320398Y748997D02*
X316834Y752561D01*
X320398Y770523D02*
X316834Y766959D01*
X320398Y772997D02*
X316834Y776561D01*
X320872Y487523D02*
X324436Y483959D01*
X320872Y489997D02*
X324436Y493561D01*
X320872Y511523D02*
X324436Y507959D01*
X320872Y513997D02*
X324436Y517561D01*
X320872Y535523D02*
X324436Y531959D01*
X320872Y537997D02*
X324436Y541561D01*
X320885Y657760D02*
X315845D01*
X320885Y681760D02*
X315845D01*
X321385Y500760D02*
X326425D01*
X321385Y524760D02*
X326425D01*
X321398Y668523D02*
X317834Y664959D01*
X321398Y670997D02*
X317834Y674561D01*
X321398Y692523D02*
X317834Y688959D01*
X321398Y694997D02*
X317834Y698561D01*
X321635Y758010D02*
Y752970D01*
Y761510D02*
Y766550D01*
Y782010D02*
Y776970D01*
Y785510D02*
Y790550D01*
X322635Y656010D02*
Y650970D01*
Y659510D02*
Y664550D01*
Y680010D02*
Y674970D01*
Y683510D02*
Y688550D01*
X322872Y746523D02*
X326436Y742959D01*
X322872Y748997D02*
X326436Y752561D01*
X322872Y770523D02*
X326436Y766959D01*
X322872Y772997D02*
X326436Y776561D01*
X322885Y351760D02*
X317845D01*
X322885Y375760D02*
X317845D01*
X322885Y399760D02*
X317845D01*
X323385Y759760D02*
X328425D01*
X323385Y783760D02*
X328425D01*
X323872Y668523D02*
X327436Y664959D01*
X323872Y670997D02*
X327436Y674561D01*
X323872Y692523D02*
X327436Y688959D01*
X323872Y694997D02*
X327436Y698561D01*
X324385Y657760D02*
X329425D01*
X324385Y681760D02*
X329425D01*
X324635Y350010D02*
Y344970D01*
Y353510D02*
Y358550D01*
Y374010D02*
Y368970D01*
Y377510D02*
Y382550D01*
Y398010D02*
Y392970D01*
Y401510D02*
Y406550D01*
X326385Y351760D02*
X331425D01*
X326385Y375760D02*
X331425D01*
X326385Y399760D02*
X331425D01*
X329885Y488760D02*
X324845D01*
X329885Y512760D02*
X324845D01*
X329885Y536760D02*
X324845D01*
X330398Y499523D02*
X326834Y495959D01*
X330398Y501997D02*
X326834Y505561D01*
X330398Y523523D02*
X326834Y519959D01*
X330398Y525997D02*
X326834Y529561D01*
X331635Y487010D02*
Y481970D01*
Y490510D02*
Y495550D01*
Y511010D02*
Y505970D01*
Y514510D02*
Y519550D01*
Y535010D02*
Y529970D01*
Y538510D02*
Y543550D01*
X332872Y499523D02*
X336436Y495959D01*
X332872Y501997D02*
X336436Y505561D01*
X332872Y523523D02*
X336436Y519959D01*
X332872Y525997D02*
X336436Y529561D01*
X333385Y488760D02*
X338425D01*
X333385Y512760D02*
X338425D01*
X333385Y536760D02*
X338425D01*
X334885Y339760D02*
X329845D01*
X334885Y363760D02*
X329845D01*
X334885Y387760D02*
X329845D01*
X336635Y338010D02*
Y332970D01*
Y341510D02*
Y346550D01*
Y362010D02*
Y356970D01*
Y365510D02*
Y370550D01*
Y386010D02*
Y380970D01*
Y389510D02*
Y394550D01*
X338385Y339760D02*
X343425D01*
X338385Y363760D02*
X343425D01*
X338385Y387760D02*
X343425D01*
X342385Y434760D02*
X337345D01*
X342385Y553760D02*
X337345D01*
X346885Y351760D02*
X341845D01*
X347635Y438010D02*
Y443050D01*
Y550510D02*
Y545470D01*
Y557010D02*
Y562050D01*
X348635Y350010D02*
Y344970D01*
Y353510D02*
Y358550D01*
X348885Y508760D02*
X343845D01*
X350385Y351760D02*
X355425D01*
X350635Y507010D02*
Y501970D01*
Y510510D02*
Y515550D01*
X352385Y508760D02*
X357425D01*
X352885Y434760D02*
X357925D01*
X352885Y553760D02*
X357925D01*
X357885Y759760D02*
X352845D01*
X357885Y783760D02*
X352845D01*
X358398Y746523D02*
X354834Y742959D01*
X358398Y748997D02*
X354834Y752561D01*
X358398Y770523D02*
X354834Y766959D01*
X358398Y772997D02*
X354834Y776561D01*
X358885Y339760D02*
X353845D01*
X358885Y363760D02*
X353845D01*
X359635Y758010D02*
Y752970D01*
Y761510D02*
Y766550D01*
Y782010D02*
Y776970D01*
Y785510D02*
Y790550D01*
X360635Y338010D02*
Y332970D01*
Y341510D02*
Y346550D01*
Y362010D02*
Y356970D01*
Y365510D02*
Y370550D01*
X360872Y746523D02*
X364436Y742959D01*
X360872Y748997D02*
X364436Y752561D01*
X360872Y770523D02*
X364436Y766959D01*
X360872Y772997D02*
X364436Y776561D01*
X361385Y759760D02*
X366425D01*
X361385Y783760D02*
X366425D01*
X361398Y507523D02*
X357834Y503959D01*
X361398Y509997D02*
X357834Y513561D01*
X362385Y339760D02*
X367425D01*
X362385Y363760D02*
X367425D01*
X363872Y507523D02*
X367436Y503959D01*
X363872Y509997D02*
X367436Y513561D01*
X368885Y669760D02*
X363845D01*
X368885Y693760D02*
X363845D01*
X369398Y656523D02*
X365834Y652959D01*
X369398Y658997D02*
X365834Y662561D01*
X369398Y680523D02*
X365834Y676959D01*
X369398Y682997D02*
X365834Y686561D01*
X369885Y771760D02*
X364845D01*
X370398Y746523D02*
X366834Y742959D01*
X370398Y748997D02*
X366834Y752561D01*
X370398Y758523D02*
X366834Y754959D01*
X370398Y760997D02*
X366834Y764561D01*
X370398Y782523D02*
X366834Y778959D01*
X370398Y784997D02*
X366834Y788561D01*
X370635Y668010D02*
Y662970D01*
Y671510D02*
Y676550D01*
Y692010D02*
Y686970D01*
Y695510D02*
Y700550D01*
X370885Y351760D02*
X365845D01*
X371635Y770010D02*
Y764970D01*
Y773510D02*
Y778550D01*
X371872Y656523D02*
X375436Y652959D01*
X371872Y658997D02*
X375436Y662561D01*
X371872Y680523D02*
X375436Y676959D01*
X371872Y682997D02*
X375436Y686561D01*
X372385Y669760D02*
X377425D01*
X372385Y693760D02*
X377425D01*
X372635Y350010D02*
Y344970D01*
Y353510D02*
Y358550D01*
X372872Y746523D02*
X376436Y742959D01*
X372872Y748997D02*
X376436Y752561D01*
X372872Y758523D02*
X376436Y754959D01*
X372872Y760997D02*
X376436Y764561D01*
X372872Y782523D02*
X376436Y778959D01*
X372872Y784997D02*
X376436Y788561D01*
X372885Y508760D02*
X367845D01*
X373385Y771760D02*
X378425D01*
X374385Y351760D02*
X379425D01*
X374635Y507010D02*
Y501970D01*
Y510510D02*
Y515550D01*
X376385Y508760D02*
X381425D01*
X380885Y657760D02*
X375845D01*
X380885Y681760D02*
X375845D01*
X381398Y668523D02*
X377834Y664959D01*
X381398Y670997D02*
X377834Y674561D01*
X381398Y692523D02*
X377834Y688959D01*
X381398Y694997D02*
X377834Y698561D01*
X381885Y759760D02*
X376845D01*
X381885Y783760D02*
X376845D01*
X382398Y746523D02*
X378834Y742959D01*
X382398Y748997D02*
X378834Y752561D01*
X382398Y770523D02*
X378834Y766959D01*
X382398Y772997D02*
X378834Y776561D01*
X382635Y656010D02*
Y650970D01*
Y659510D02*
Y664550D01*
Y680010D02*
Y674970D01*
Y683510D02*
Y688550D01*
X382885Y339760D02*
X377845D01*
X382885Y363760D02*
X377845D01*
X383635Y758010D02*
Y752970D01*
Y761510D02*
Y766550D01*
Y782010D02*
Y776970D01*
Y785510D02*
Y790550D01*
X383872Y668523D02*
X387436Y664959D01*
X383872Y670997D02*
X387436Y674561D01*
X383872Y692523D02*
X387436Y688959D01*
X383872Y694997D02*
X387436Y698561D01*
X384385Y657760D02*
X389425D01*
X384385Y681760D02*
X389425D01*
X384635Y338010D02*
Y332970D01*
Y341510D02*
Y346550D01*
Y362010D02*
Y356970D01*
Y365510D02*
Y370550D01*
X384872Y746523D02*
X388436Y742959D01*
X384872Y748997D02*
X388436Y752561D01*
X384872Y770523D02*
X388436Y766959D01*
X384872Y772997D02*
X388436Y776561D01*
X385385Y759760D02*
X390425D01*
X385385Y783760D02*
X390425D01*
X386385Y339760D02*
X391425D01*
X386385Y363760D02*
X391425D01*
X388885Y508760D02*
X383845D01*
X390635Y507010D02*
Y501970D01*
Y510510D02*
Y515550D01*
X392385Y508760D02*
X397425D01*
X394885Y351760D02*
X389845D01*
X396635Y350010D02*
Y344970D01*
Y353510D02*
Y358550D01*
X398385Y351760D02*
X403425D01*
X401398Y507523D02*
X397834Y503959D01*
X401398Y509997D02*
X397834Y513561D01*
X403872Y507523D02*
X407436Y503959D01*
X403872Y509997D02*
X407436Y513561D01*
X406885Y339760D02*
X401845D01*
X406885Y363760D02*
X401845D01*
X408635Y338010D02*
Y332970D01*
Y341510D02*
Y346550D01*
Y362010D02*
Y356970D01*
Y365510D02*
Y370550D01*
X410385Y339760D02*
X415425D01*
X410385Y363760D02*
X415425D01*
X412885Y508760D02*
X407845D01*
X414635Y507010D02*
Y501970D01*
Y510510D02*
Y515550D01*
X416385Y508760D02*
X421425D01*
X430885Y387760D02*
X425845D01*
X432635Y386010D02*
Y380970D01*
Y389510D02*
Y394550D01*
X434385Y387760D02*
X439425D01*
X442885Y375760D02*
X437845D01*
X442885Y399760D02*
X437845D01*
X444635Y374010D02*
Y368970D01*
Y377510D02*
Y382550D01*
Y398010D02*
Y392970D01*
Y401510D02*
Y406550D01*
X446385Y375760D02*
X451425D01*
X446385Y399760D02*
X451425D01*
X454385Y513160D02*
X449345D01*
X454385Y525860D02*
X449345D01*
X454385Y538560D02*
X449345D01*
X454885Y387760D02*
X449845D01*
X456635Y386010D02*
Y380970D01*
Y389510D02*
Y394550D01*
X456719Y548344D02*
X452045Y543670D01*
X456719Y554176D02*
X452045Y558850D01*
X456885Y557760D02*
X451845D01*
X456885Y581760D02*
X451845D01*
X457398Y568523D02*
X453834Y564959D01*
X457398Y570997D02*
X453834Y574561D01*
X457398Y592523D02*
X453834Y588959D01*
X457398Y594997D02*
X453834Y598561D01*
X458385Y387760D02*
X463425D01*
X458635Y556010D02*
Y550970D01*
Y559510D02*
Y564550D01*
Y580010D02*
Y574970D01*
Y583510D02*
Y588550D01*
X459635Y510610D02*
Y505570D01*
Y515710D02*
Y520750D01*
Y541110D02*
Y546150D01*
X459872Y568523D02*
X463436Y564959D01*
X459872Y570997D02*
X463436Y574561D01*
X459872Y592523D02*
X463436Y588959D01*
X459872Y594997D02*
X463436Y598561D01*
X460385Y557760D02*
X465425D01*
X460385Y581760D02*
X465425D01*
X462551Y548344D02*
X467225Y543670D01*
X462551Y554176D02*
X467225Y558850D01*
X464885Y513160D02*
X469925D01*
X464885Y525860D02*
X469925D01*
X464885Y538560D02*
X469925D01*
X466885Y375760D02*
X461845D01*
X466885Y399760D02*
X461845D01*
X468635Y374010D02*
Y368970D01*
Y377510D02*
Y382550D01*
Y398010D02*
Y392970D01*
Y401510D02*
Y406550D01*
X468885Y593760D02*
X463845D01*
X469398Y556523D02*
X465834Y552959D01*
X469398Y558997D02*
X465834Y562561D01*
X469398Y568523D02*
X465834Y564959D01*
X469398Y570997D02*
X465834Y574561D01*
X469398Y580523D02*
X465834Y576959D01*
X469398Y582997D02*
X465834Y586561D01*
X470385Y375760D02*
X475425D01*
X470385Y399760D02*
X475425D01*
X470635Y592010D02*
Y586970D01*
Y595510D02*
Y600550D01*
X471872Y556523D02*
X475436Y552959D01*
X471872Y558997D02*
X475436Y562561D01*
X471872Y568523D02*
X475436Y564959D01*
X471872Y570997D02*
X475436Y574561D01*
X471872Y580523D02*
X475436Y576959D01*
X471872Y582997D02*
X475436Y586561D01*
X478885Y339760D02*
X473845D01*
X478885Y363760D02*
X473845D01*
X478885Y387760D02*
X473845D01*
X480635Y338010D02*
Y332970D01*
Y341510D02*
Y346550D01*
Y362010D02*
Y356970D01*
Y365510D02*
Y370550D01*
Y386010D02*
Y380970D01*
Y389510D02*
Y394550D01*
X482385Y339760D02*
X487425D01*
X482385Y363760D02*
X487425D01*
X482385Y387760D02*
X487425D01*
X489398Y681997D02*
X485834Y685561D01*
X490635Y691010D02*
Y685970D01*
X490885Y399760D02*
X485845D01*
X491872Y681997D02*
X495436Y685561D01*
X492385Y692760D02*
X497425D01*
X492635Y398010D02*
Y392970D01*
Y401510D02*
Y406550D01*
X494385Y399760D02*
X499425D01*
X500885Y680760D02*
X495670D01*
X501398Y691523D02*
X497834Y687959D01*
X502635Y682510D02*
Y687725D01*
X503185Y723760D02*
X498145D01*
X503872Y691523D02*
X507436Y687959D01*
X504385Y680760D02*
X509600D01*
X509519Y687394D02*
X504845Y682720D01*
X509519Y692126D02*
X504845Y696800D01*
X515685Y723760D02*
X520725D01*
X525385Y689760D02*
X520345D01*
X527385Y686010D02*
Y680970D01*
Y693510D02*
Y698550D01*
X529385Y689760D02*
X534425D01*
X529885Y627760D02*
X524845D01*
X529885Y651760D02*
X524845D01*
X530398Y638523D02*
X526834Y634959D01*
X530398Y640997D02*
X526834Y644561D01*
X530398Y662523D02*
X526834Y658959D01*
X530398Y664997D02*
X526834Y668561D01*
X531635Y626010D02*
Y620970D01*
Y629510D02*
Y634550D01*
Y650010D02*
Y644970D01*
Y653510D02*
Y658550D01*
X532635Y380010D02*
Y374970D01*
Y383510D02*
Y388550D01*
Y395510D02*
Y400550D01*
X532872Y638523D02*
X536436Y634959D01*
X532872Y640997D02*
X536436Y644561D01*
X532872Y662523D02*
X536436Y658959D01*
X532872Y664997D02*
X536436Y668561D01*
X533385Y627760D02*
X538425D01*
X533385Y651760D02*
X538425D01*
X534385Y381760D02*
X539425D01*
X534385Y393760D02*
X539425D01*
X536219Y716144D02*
X531545Y711470D01*
X536219Y731376D02*
X531545Y736050D01*
X541885Y639760D02*
X536845D01*
X541885Y663760D02*
X536845D01*
X542398Y626523D02*
X538834Y622959D01*
X542398Y628997D02*
X538834Y632561D01*
X542398Y650523D02*
X538834Y646959D01*
X542398Y652997D02*
X538834Y656561D01*
X543398Y380523D02*
X539834Y376959D01*
X543398Y382997D02*
X539834Y386561D01*
X543398Y392523D02*
X539834Y388959D01*
X543398Y394997D02*
X539834Y398561D01*
X543635Y638010D02*
Y632970D01*
Y641510D02*
Y646550D01*
Y662010D02*
Y656970D01*
Y665510D02*
Y670550D01*
X544872Y626523D02*
X548436Y622959D01*
X544872Y628997D02*
X548436Y632561D01*
X544872Y650523D02*
X548436Y646959D01*
X544872Y652997D02*
X548436Y656561D01*
X545385Y639760D02*
X550425D01*
X545385Y663760D02*
X550425D01*
X545872Y380523D02*
X549436Y376959D01*
X545872Y382997D02*
X549436Y386561D01*
X545872Y392523D02*
X549436Y388959D01*
X545872Y394997D02*
X549436Y398561D01*
X551451Y716144D02*
X556125Y711470D01*
X551451Y731376D02*
X556125Y736050D01*
X553885Y627760D02*
X548845D01*
X554398Y638523D02*
X550834Y634959D01*
X554398Y640997D02*
X550834Y644561D01*
X554885Y381760D02*
X549845D01*
X555635Y626010D02*
Y620970D01*
Y629510D02*
Y634550D01*
X556635Y380010D02*
Y374970D01*
Y383510D02*
Y388550D01*
X556872Y638523D02*
X560436Y634959D01*
X556872Y640997D02*
X560436Y644561D01*
X557385Y627760D02*
X562425D01*
X558385Y381760D02*
X563425D01*
X597398Y722523D02*
X593834Y718959D01*
X597398Y724997D02*
X593834Y728561D01*
X597885Y653760D02*
X592845D01*
X599635Y652010D02*
Y646970D01*
X599872Y722523D02*
X603436Y718959D01*
X599872Y724997D02*
X603436Y728561D01*
X605885Y723760D02*
X600845D01*
X606885Y668760D02*
X601845D01*
X607635Y722010D02*
Y716970D01*
Y725510D02*
Y730550D01*
X608635Y670510D02*
Y675550D01*
X609385Y723760D02*
X614425D01*
X610385Y668760D02*
X615425D01*
X614885Y411760D02*
X609845D01*
X615398Y398523D02*
X611834Y394959D01*
X615398Y400997D02*
X611834Y404561D01*
X615398Y422523D02*
X611834Y418959D01*
X615398Y424997D02*
X611834Y428561D01*
X616635Y410010D02*
Y404970D01*
Y413510D02*
Y418550D01*
X617872Y398523D02*
X621436Y394959D01*
X617872Y400997D02*
X621436Y404561D01*
X617872Y422523D02*
X621436Y418959D01*
X617872Y424997D02*
X621436Y428561D01*
X618385Y411760D02*
X623425D01*
X619398Y534997D02*
X615834Y538561D01*
X621872Y532523D02*
X625436Y528959D01*
X621872Y534997D02*
X625436Y538561D01*
X626885Y423760D02*
X621845D01*
X627398Y410523D02*
X623834Y406959D01*
X627398Y412997D02*
X623834Y416561D01*
X628635Y422010D02*
Y416970D01*
Y425510D02*
Y430550D01*
X629872Y410523D02*
X633436Y406959D01*
X629872Y412997D02*
X633436Y416561D01*
X630385Y423760D02*
X635425D01*
X630885Y521760D02*
X625845D01*
X631398Y532523D02*
X627834Y528959D01*
X631398Y534997D02*
X627834Y538561D01*
X632635Y520010D02*
Y514970D01*
Y523510D02*
Y528550D01*
X633872Y532523D02*
X637436Y528959D01*
X633872Y534997D02*
X637436Y538561D01*
X634385Y521760D02*
X639425D01*
X642885Y533760D02*
X637845D01*
X643398Y520523D02*
X639834Y516959D01*
X643398Y522997D02*
X639834Y526561D01*
X644635Y532010D02*
Y526970D01*
Y535510D02*
Y540550D01*
X645872Y520523D02*
X649436Y516959D01*
X645872Y522997D02*
X649436Y526561D01*
X646385Y533760D02*
X651425D01*
X655885Y714760D02*
X650845D01*
X655885Y738760D02*
X650845D01*
X656398Y701523D02*
X652834Y697959D01*
X656398Y703997D02*
X652834Y707561D01*
X656398Y725523D02*
X652834Y721959D01*
X656398Y727997D02*
X652834Y731561D01*
X657635Y713010D02*
Y707970D01*
Y716510D02*
Y721550D01*
Y737010D02*
Y731970D01*
Y740510D02*
Y745550D01*
X658872Y701523D02*
X662436Y697959D01*
X658872Y703997D02*
X662436Y707561D01*
X658872Y725523D02*
X662436Y721959D01*
X658872Y727997D02*
X662436Y731561D01*
X659385Y714760D02*
X664425D01*
X659385Y738760D02*
X664425D01*
X664365Y538560D02*
X659325D01*
X667885Y702760D02*
X662845D01*
X667885Y726760D02*
X662845D01*
X668398Y713523D02*
X664834Y709959D01*
X668398Y715997D02*
X664834Y719561D01*
X668398Y737523D02*
X664834Y733959D01*
X668398Y739997D02*
X664834Y743561D01*
X669635Y701010D02*
Y695970D01*
Y704510D02*
Y709550D01*
Y725010D02*
Y719970D01*
Y728510D02*
Y733550D01*
X670735Y532190D02*
Y527150D01*
Y544930D02*
Y549970D01*
X670872Y713523D02*
X674436Y709959D01*
X670872Y715997D02*
X674436Y719561D01*
X670872Y737523D02*
X674436Y733959D01*
X670872Y739997D02*
X674436Y743561D01*
X671385Y702760D02*
X676425D01*
X671385Y726760D02*
X676425D01*
X677105Y538560D02*
X682145D01*
X686885Y440760D02*
X681845D01*
X687398Y427523D02*
X683834Y423959D01*
X687398Y429997D02*
X683834Y433561D01*
X687398Y451523D02*
X683834Y447959D01*
X687398Y453997D02*
X683834Y457561D01*
X688635Y439010D02*
Y433970D01*
Y442510D02*
Y447550D01*
X689765Y538560D02*
X684725D01*
X689872Y427523D02*
X693436Y423959D01*
X689872Y429997D02*
X693436Y433561D01*
X689872Y451523D02*
X693436Y447959D01*
X689872Y453997D02*
X693436Y457561D01*
X690385Y440760D02*
X695425D01*
X696135Y532190D02*
Y527150D01*
Y544930D02*
Y549970D01*
X698885Y452760D02*
X693845D01*
X699398Y439523D02*
X695834Y435959D01*
X699398Y441997D02*
X695834Y445561D01*
X700635Y451010D02*
Y445970D01*
Y454510D02*
Y459550D01*
X701872Y439523D02*
X705436Y435959D01*
X701872Y441997D02*
X705436Y445561D01*
X702385Y452760D02*
X707425D01*
X702505Y538560D02*
X707545D01*
D02*
D83*
X71635Y471760D02*
D03*
Y533760D02*
D03*
Y595760D02*
D03*
Y657760D02*
D03*
D02*
D86*
X459635Y513160D02*
D03*
Y525860D02*
D03*
Y538560D02*
D03*
Y551260D02*
D03*
X513035Y513160D02*
D03*
Y525860D02*
D03*
Y538560D02*
D03*
Y551260D02*
D03*
D02*
D88*
X568135Y475160D02*
D03*
X591135D02*
D03*
D02*
D89*
X33635Y38760D02*
D03*
Y63760D02*
D03*
Y88760D02*
D03*
Y113760D02*
D03*
Y138760D02*
D03*
Y163760D02*
D03*
Y188760D02*
D03*
Y213760D02*
D03*
Y238760D02*
D03*
Y263760D02*
D03*
X473635Y38760D02*
D03*
Y63760D02*
D03*
Y88760D02*
D03*
Y113760D02*
D03*
Y138760D02*
D03*
Y163760D02*
D03*
Y188760D02*
D03*
Y213760D02*
D03*
Y238760D02*
D03*
Y263760D02*
D03*
X525135Y347760D02*
D03*
Y790260D02*
D03*
X550135Y347760D02*
D03*
Y790260D02*
D03*
X575135Y347760D02*
D03*
Y790260D02*
D03*
X600135Y347760D02*
D03*
Y790260D02*
D03*
X625135Y347760D02*
D03*
Y790260D02*
D03*
X650135Y347760D02*
D03*
Y790260D02*
D03*
X675135Y347760D02*
D03*
Y790260D02*
D03*
X700135Y347760D02*
D03*
Y790260D02*
D03*
X725135Y347760D02*
D03*
Y790260D02*
D03*
X750135Y347760D02*
D03*
Y790260D02*
D03*
D02*
D104*
X106585Y35560D02*
D03*
Y43560D02*
D03*
Y51560D02*
D03*
Y59560D02*
D03*
X107185Y86560D02*
D03*
Y94560D02*
D03*
Y102560D02*
D03*
Y110560D02*
D03*
X124085Y35560D02*
D03*
Y43560D02*
D03*
Y51560D02*
D03*
Y59560D02*
D03*
X124685Y86560D02*
D03*
Y94560D02*
D03*
Y102560D02*
D03*
Y110560D02*
D03*
D02*
D105*
X54635Y81760D02*
D03*
X58635Y115760D02*
D03*
X71635Y242760D02*
D03*
X78635Y219760D02*
D03*
Y231760D02*
D03*
X90635Y219760D02*
D03*
Y231760D02*
D03*
X91635Y66760D02*
D03*
X92635Y143760D02*
D03*
Y155760D02*
D03*
Y167760D02*
D03*
X97635Y59760D02*
D03*
Y86760D02*
D03*
X98635Y589760D02*
D03*
Y601760D02*
D03*
Y613760D02*
D03*
X99635Y505760D02*
D03*
Y517760D02*
D03*
Y529760D02*
D03*
X102635Y207760D02*
D03*
Y219760D02*
D03*
X103635Y275760D02*
D03*
X104635Y143760D02*
D03*
Y155760D02*
D03*
Y167760D02*
D03*
X110635Y589760D02*
D03*
Y601760D02*
D03*
Y613760D02*
D03*
X111635Y505760D02*
D03*
Y517760D02*
D03*
Y529760D02*
D03*
X116635Y143760D02*
D03*
Y155760D02*
D03*
Y167760D02*
D03*
X120635Y339760D02*
D03*
Y363760D02*
D03*
X120745Y237760D02*
D03*
X122635Y577760D02*
D03*
Y589760D02*
D03*
Y601760D02*
D03*
Y613760D02*
D03*
X123635Y505760D02*
D03*
Y517760D02*
D03*
Y529760D02*
D03*
Y541760D02*
D03*
Y553760D02*
D03*
X124635Y288760D02*
D03*
X132635Y351760D02*
D03*
X134635Y577760D02*
D03*
Y589760D02*
D03*
Y601760D02*
D03*
Y613760D02*
D03*
X135635Y493760D02*
D03*
Y505760D02*
D03*
Y517760D02*
D03*
Y529760D02*
D03*
Y541760D02*
D03*
Y553760D02*
D03*
X138635Y28560D02*
D03*
Y41260D02*
D03*
Y53960D02*
D03*
Y66760D02*
D03*
Y79360D02*
D03*
Y92060D02*
D03*
Y104760D02*
D03*
Y117460D02*
D03*
X144635Y339760D02*
D03*
Y363760D02*
D03*
X146635Y577760D02*
D03*
Y589760D02*
D03*
Y601760D02*
D03*
Y613760D02*
D03*
X147635Y493760D02*
D03*
Y505760D02*
D03*
Y517760D02*
D03*
Y529760D02*
D03*
Y541760D02*
D03*
Y553760D02*
D03*
X152635Y248760D02*
D03*
X156635Y351760D02*
D03*
X158635Y267760D02*
D03*
X166635Y41260D02*
D03*
Y53960D02*
D03*
X168635Y339760D02*
D03*
Y363760D02*
D03*
X170635Y657760D02*
D03*
Y669760D02*
D03*
Y681760D02*
D03*
Y693760D02*
D03*
Y747760D02*
D03*
Y759760D02*
D03*
Y771760D02*
D03*
Y783760D02*
D03*
X175635Y72760D02*
D03*
X180635Y224760D02*
D03*
Y351760D02*
D03*
X181635Y508760D02*
D03*
X182635Y657760D02*
D03*
Y669760D02*
D03*
Y681760D02*
D03*
Y693760D02*
D03*
Y747760D02*
D03*
Y759760D02*
D03*
Y771760D02*
D03*
Y783760D02*
D03*
X184635Y68760D02*
D03*
X187635Y130760D02*
D03*
Y142760D02*
D03*
X188635Y224760D02*
D03*
X191635Y41760D02*
D03*
X192635Y29760D02*
D03*
Y339760D02*
D03*
Y363760D02*
D03*
X193635Y68760D02*
D03*
Y508760D02*
D03*
X194635Y747760D02*
D03*
Y759760D02*
D03*
Y771760D02*
D03*
Y783760D02*
D03*
X195635Y182760D02*
D03*
X199635Y130760D02*
D03*
Y142760D02*
D03*
X200635Y72760D02*
D03*
X204635Y351760D02*
D03*
X205635Y230760D02*
D03*
Y508760D02*
D03*
X206635Y79760D02*
D03*
Y100760D02*
D03*
X211635Y130760D02*
D03*
Y142760D02*
D03*
Y256510D02*
D03*
X212635Y293510D02*
D03*
X213635Y48760D02*
D03*
Y107760D02*
D03*
X214635Y268760D02*
D03*
X216635Y339760D02*
D03*
Y363760D02*
D03*
X220635Y211760D02*
D03*
X221635Y48760D02*
D03*
Y508760D02*
D03*
X227635Y54760D02*
D03*
X228635Y351760D02*
D03*
X229635Y62760D02*
D03*
X230635Y211760D02*
D03*
X232635Y747760D02*
D03*
Y759760D02*
D03*
Y771760D02*
D03*
Y783760D02*
D03*
X233635Y508760D02*
D03*
X240635Y181760D02*
D03*
Y339760D02*
D03*
Y363760D02*
D03*
Y657760D02*
D03*
Y669760D02*
D03*
Y681760D02*
D03*
Y693760D02*
D03*
X244635Y189760D02*
D03*
Y747760D02*
D03*
Y759760D02*
D03*
Y771760D02*
D03*
Y783760D02*
D03*
X245635Y209760D02*
D03*
Y508760D02*
D03*
X252635Y351760D02*
D03*
Y657760D02*
D03*
Y669760D02*
D03*
Y681760D02*
D03*
Y693760D02*
D03*
X253635Y585760D02*
D03*
X256635Y241760D02*
D03*
Y747760D02*
D03*
Y759760D02*
D03*
Y771760D02*
D03*
Y783760D02*
D03*
X263635Y235760D02*
D03*
Y488760D02*
D03*
Y500760D02*
D03*
Y512760D02*
D03*
Y524760D02*
D03*
Y536760D02*
D03*
X264635Y339760D02*
D03*
Y363760D02*
D03*
Y387760D02*
D03*
X270635Y83760D02*
D03*
Y103760D02*
D03*
Y123760D02*
D03*
Y143760D02*
D03*
X275635Y488760D02*
D03*
Y500760D02*
D03*
Y512760D02*
D03*
Y524760D02*
D03*
Y536760D02*
D03*
X276635Y351760D02*
D03*
Y375760D02*
D03*
Y399760D02*
D03*
X279635Y234760D02*
D03*
X280635Y73760D02*
D03*
Y93760D02*
D03*
Y113760D02*
D03*
Y133760D02*
D03*
X287635Y488760D02*
D03*
Y500760D02*
D03*
Y512760D02*
D03*
Y524760D02*
D03*
Y536760D02*
D03*
X288635Y339760D02*
D03*
Y363760D02*
D03*
Y387760D02*
D03*
X290635Y83760D02*
D03*
Y103760D02*
D03*
Y123760D02*
D03*
Y143760D02*
D03*
X291635Y234760D02*
D03*
X297635Y747760D02*
D03*
Y759760D02*
D03*
Y771760D02*
D03*
Y783760D02*
D03*
X300635Y73760D02*
D03*
Y93760D02*
D03*
Y113760D02*
D03*
Y133760D02*
D03*
Y351760D02*
D03*
Y375760D02*
D03*
Y399760D02*
D03*
X301635Y28760D02*
D03*
X307635Y488760D02*
D03*
Y500760D02*
D03*
Y512760D02*
D03*
Y524760D02*
D03*
Y536760D02*
D03*
X309635Y747760D02*
D03*
Y759760D02*
D03*
Y771760D02*
D03*
Y783760D02*
D03*
X310635Y83760D02*
D03*
Y103760D02*
D03*
Y123760D02*
D03*
Y143760D02*
D03*
Y657760D02*
D03*
Y669760D02*
D03*
Y681760D02*
D03*
Y693760D02*
D03*
X312635Y339760D02*
D03*
Y363760D02*
D03*
Y387760D02*
D03*
X319635Y488760D02*
D03*
Y500760D02*
D03*
Y512760D02*
D03*
Y524760D02*
D03*
Y536760D02*
D03*
X320635Y73760D02*
D03*
Y93760D02*
D03*
Y113760D02*
D03*
Y133760D02*
D03*
X321635Y243760D02*
D03*
Y747760D02*
D03*
Y759760D02*
D03*
Y771760D02*
D03*
Y783760D02*
D03*
X322635Y657760D02*
D03*
Y669760D02*
D03*
Y681760D02*
D03*
Y693760D02*
D03*
X324635Y351760D02*
D03*
Y375760D02*
D03*
Y399760D02*
D03*
X330635Y83760D02*
D03*
Y103760D02*
D03*
Y123760D02*
D03*
Y143760D02*
D03*
X331635Y243760D02*
D03*
Y488760D02*
D03*
Y500760D02*
D03*
Y512760D02*
D03*
Y524760D02*
D03*
Y536760D02*
D03*
X335635Y28760D02*
D03*
X336635Y339760D02*
D03*
Y363760D02*
D03*
Y387760D02*
D03*
X340635Y73760D02*
D03*
Y93760D02*
D03*
Y113760D02*
D03*
Y133760D02*
D03*
X344635Y226760D02*
D03*
X347635Y585760D02*
D03*
X348635Y351760D02*
D03*
X350635Y508760D02*
D03*
X353635Y226760D02*
D03*
X359635Y37760D02*
D03*
Y747760D02*
D03*
Y759760D02*
D03*
Y771760D02*
D03*
Y783760D02*
D03*
X360635Y339760D02*
D03*
Y363760D02*
D03*
X362635Y508760D02*
D03*
X363635Y226760D02*
D03*
X367635Y31760D02*
D03*
X370635Y657760D02*
D03*
Y669760D02*
D03*
Y681760D02*
D03*
Y693760D02*
D03*
X371635Y747760D02*
D03*
Y759760D02*
D03*
Y771760D02*
D03*
Y783760D02*
D03*
X372635Y226760D02*
D03*
Y351760D02*
D03*
X374635Y508760D02*
D03*
X375635Y25760D02*
D03*
X382635Y19760D02*
D03*
Y657760D02*
D03*
Y669760D02*
D03*
Y681760D02*
D03*
Y693760D02*
D03*
X383635Y747760D02*
D03*
Y759760D02*
D03*
Y771760D02*
D03*
Y783760D02*
D03*
X384635Y339760D02*
D03*
Y363760D02*
D03*
X390635Y508760D02*
D03*
X396635Y351760D02*
D03*
X399635Y245760D02*
D03*
X402635Y508760D02*
D03*
X408635Y339760D02*
D03*
Y363760D02*
D03*
X413635Y295760D02*
D03*
X414635Y508760D02*
D03*
X420635Y232760D02*
D03*
X429135Y293760D02*
D03*
X432635Y387760D02*
D03*
X443135Y777760D02*
D03*
X444635Y375760D02*
D03*
Y399760D02*
D03*
X447635Y138760D02*
D03*
Y192410D02*
D03*
X456635Y163760D02*
D03*
Y205110D02*
D03*
Y387760D02*
D03*
X458635Y557760D02*
D03*
Y569760D02*
D03*
Y581760D02*
D03*
Y593760D02*
D03*
X468635Y375760D02*
D03*
Y399760D02*
D03*
Y759760D02*
D03*
X470635Y557760D02*
D03*
Y569760D02*
D03*
Y581760D02*
D03*
Y593760D02*
D03*
Y684760D02*
D03*
X474635Y668760D02*
D03*
X475635Y632760D02*
D03*
X478635Y647760D02*
D03*
X480635Y339760D02*
D03*
Y363760D02*
D03*
Y387760D02*
D03*
X490635Y680760D02*
D03*
Y692760D02*
D03*
X491635Y468760D02*
D03*
X492635Y399760D02*
D03*
X498635Y477760D02*
D03*
X502635Y665760D02*
D03*
Y680760D02*
D03*
Y692760D02*
D03*
X531635Y409760D02*
D03*
Y627760D02*
D03*
Y639760D02*
D03*
Y651760D02*
D03*
Y663760D02*
D03*
X532635Y381760D02*
D03*
Y393760D02*
D03*
X543635Y627760D02*
D03*
Y639760D02*
D03*
Y651760D02*
D03*
Y663760D02*
D03*
X544635Y381760D02*
D03*
Y393760D02*
D03*
X555635Y627760D02*
D03*
Y639760D02*
D03*
X556635Y381760D02*
D03*
X557635Y653760D02*
D03*
X559635Y726160D02*
D03*
X598635Y707760D02*
D03*
Y723760D02*
D03*
X599635Y637760D02*
D03*
Y653760D02*
D03*
X600635Y483760D02*
D03*
X607635Y707760D02*
D03*
Y723760D02*
D03*
X608635Y668760D02*
D03*
X609635Y641760D02*
D03*
X613635Y623760D02*
D03*
X616635Y399760D02*
D03*
Y411760D02*
D03*
Y423760D02*
D03*
X620635Y533760D02*
D03*
X627635Y511760D02*
D03*
X628635Y411760D02*
D03*
Y423760D02*
D03*
X632635Y521760D02*
D03*
Y533760D02*
D03*
X644635Y521760D02*
D03*
Y533760D02*
D03*
X654635Y680760D02*
D03*
X657635Y702760D02*
D03*
Y714760D02*
D03*
Y726760D02*
D03*
Y738760D02*
D03*
X669635Y702760D02*
D03*
Y714760D02*
D03*
Y726760D02*
D03*
Y738760D02*
D03*
X688635Y428760D02*
D03*
Y440760D02*
D03*
Y452760D02*
D03*
X700635Y440760D02*
D03*
Y452760D02*
D03*
X702635Y638760D02*
D03*
Y652760D02*
D03*
X709635Y658760D02*
D03*
X726635Y734760D02*
D03*
X736635Y681760D02*
D03*
X762635Y606260D02*
D03*
D02*
D106*
X33635Y113760D02*
X40635D01*
X47635Y106760*
Y68760*
X56635Y59760*
Y36760*
X70635Y22760*
X174635*
X187635Y35760*
Y37760*
X191635Y41760*
X85635Y39010D02*
Y30760D01*
X88635Y27760*
X121085*
X124085Y30760*
Y35560*
X120745Y248760D02*
Y237760D01*
X124085Y35560D02*
X131635D01*
X138635Y28560*
X124085Y43560D02*
X136335D01*
X138635Y41260*
X124085Y51560D02*
X136235D01*
X138635Y53960*
X124085Y59560D02*
X131435D01*
X138635Y66760*
X124685Y86560D02*
X131435D01*
X138635Y79360*
X124685Y94560D02*
X136135D01*
X138635Y92060*
X124685Y102560D02*
X136435D01*
X138635Y104760*
X124685Y110560D02*
X131735D01*
X138635Y117460*
Y28560D02*
X153635D01*
X155635Y30560*
Y56760*
X159635Y60760*
X179635*
X183635Y56760*
X199635*
X224635Y81760*
Y195760*
X232635Y203760*
X252635*
X256635Y207760*
X332635*
X344635Y219760*
Y226760*
X138635Y79360D02*
Y79760D01*
X178635*
X184235Y74160*
Y68760*
X184635*
X144385Y275760D02*
Y258620D01*
X144745Y258260*
X160745Y248760D02*
X152635D01*
X160745Y286760D02*
Y269870D01*
X158635Y267760*
X175635Y72760D02*
X70635D01*
X61635Y81760*
X54635*
X184745Y258260D02*
X191885D01*
X193635Y256510*
X201635*
X184745Y296260D02*
X190885D01*
X193635Y293510*
X201635*
X192635Y29760D02*
X188635D01*
X176635Y17760*
X67635*
X52635Y32760*
Y55760*
X44635Y63760*
X33635*
X193635Y68760D02*
Y70760D01*
X179635Y84760*
X146635*
X139335Y92060*
X138635*
X200635Y72760D02*
X184635Y88760D01*
X152635*
X145635Y95760*
Y99760*
X140635Y104760*
X138635*
X205635Y230760D02*
X171635D01*
X169635Y232760*
Y254760*
X166135Y258260*
X144745*
X206635Y79760D02*
Y80760D01*
X194635Y92760*
X155635*
X150635Y97760*
Y105460*
X138635Y117460*
X206635Y100760D02*
X179635D01*
X168635Y111760*
Y154760*
X182635Y168760*
Y222760*
X180635Y224760*
X211635Y256510D02*
X201635D01*
X212635Y293510D02*
X201635D01*
X213635Y107760D02*
X179635D01*
X173635Y113760*
Y153760*
X188635Y168760*
Y224760*
X240385Y240760D02*
Y260110D01*
X237435Y263060*
X245635Y209760D02*
Y211760D01*
X250635Y216760*
Y223760*
Y244760*
X255635Y249760*
X281235*
X288235Y256760*
Y263060*
X251635Y435760D02*
Y427760D01*
X255635Y423760*
X455635*
X484635Y452760*
Y628760*
X485635Y629760*
Y656760*
X482635Y659760*
X477635*
X474635Y662760*
Y668760*
X256635Y241760D02*
X259635Y244760D01*
X294635*
X300635Y250760*
X324635*
X331635Y243760*
X259885Y223760D02*
X250635D01*
X262835Y263060D02*
X258935D01*
X246635Y250760*
Y225760*
X244635Y223760*
X240385*
X262835Y288460D02*
Y301560D01*
X260635Y303760*
X227635*
X221635Y297760*
Y252760*
X212635Y243760*
Y205760*
X220635Y197760*
Y83760*
X197635Y60760*
X184635*
X178635Y66760*
X138635*
X263635Y235760D02*
X268635Y240760D01*
X296635*
X299635Y243760*
X321635*
X304385Y223760D02*
X304635D01*
Y243760*
X321635*
X333385Y223760D02*
Y233010D01*
X331635Y234760*
Y243760*
X353635Y226760D02*
Y222760D01*
X333635Y202760*
X257635*
X254635Y199760*
X234635*
X228635Y193760*
Y79760*
X200635Y51760*
X181635*
X179435Y53960*
X166635*
X353635Y226760D02*
Y235760D01*
X356635Y238760*
X382635*
X406635Y262760*
Y269760*
X401635Y274760*
Y300760*
X397635Y304760*
X342635*
X338635Y300760*
Y288460*
X339035*
X359635Y37760D02*
X348635D01*
X342635Y43760*
X293635*
X287635Y37760*
X235635*
X234635Y38760*
Y57760*
X229635Y62760*
X363635Y226760D02*
X334635Y197760D01*
X259635*
X257635Y195760*
X238635*
X232635Y189760*
Y77760*
X202635Y47760*
X182635*
X176135Y41260*
X166635*
X367635Y31760D02*
X348635D01*
X340635Y39760*
X294635*
X286635Y31760*
X228635*
X227635Y32760*
Y54760*
X375635Y25760D02*
X364635D01*
X361635Y22760*
X291635*
X288635Y25760*
X223635*
X221635Y27760*
Y48760*
X375661Y179710D02*
X367685D01*
X356635Y190760*
X341635*
X340635Y189760*
X264635*
X260635Y185760*
X248635*
X245635Y182760*
X240635*
Y181760*
X375661Y217810D02*
X360685D01*
X355635Y212760*
Y210760*
X338635Y193760*
X261635*
X257635Y189760*
X244635*
X382635Y19760D02*
X364635D01*
X363635Y18760*
X286635*
X283635Y21760*
X219635*
X213635Y27760*
Y48760*
X389835Y263060D02*
Y254760D01*
X379835Y244760*
X345635*
X344635Y243760*
Y226760*
X429135Y293760D02*
Y283870D01*
X429619Y179710D02*
X427035Y166160D01*
X423635Y162760*
X418385*
X470635Y684760D02*
X471635D01*
X491635Y664760*
Y468760*
X475635Y632760D02*
Y637760D01*
X478635Y640760*
Y647760*
X502635Y665760D02*
X499635D01*
X498635Y664760*
Y477760*
X525135Y347760D02*
Y450760D01*
X507635Y468260*
Y483760*
X503635Y487760*
Y525860*
X513035*
X533635Y541410D02*
X526485D01*
X523635Y538560*
X513035*
X557635Y653760D02*
Y664760D01*
X568635Y675760*
Y717160*
X559635Y726160*
X575135Y790260D02*
Y782260D01*
X589635Y767760*
X689885*
X706885Y750760*
Y715760*
X600135Y790260D02*
Y781760D01*
X610135Y771760*
X694635*
X726635Y739760*
Y734760*
X609635Y641760D02*
Y657760D01*
X606635Y660760*
X593635*
X578635Y645760*
X565635*
X557635Y653760*
X654635Y680760D02*
X635635D01*
X623635Y692760*
Y724760*
X587635Y760760*
X543135*
X525135Y778760*
Y790260*
X700135D02*
Y786260D01*
X708635Y777760*
X712635*
X741635Y748760*
Y703760*
X749635Y695760*
Y676760*
X773635Y652760*
Y634260*
X760635Y621260*
X744635*
X702635Y638760D02*
X693635D01*
X683635Y648760*
Y669010*
X702635Y652760D02*
Y666870D01*
X707635Y671870*
X713635*
X704135Y695870D02*
Y705010D01*
X706885Y707760*
Y715760*
X736885Y547760D02*
X731635D01*
X722635Y556760*
Y628260*
X730635Y636260*
X744635*
X736885Y565760D02*
X732635D01*
X727635Y570760*
Y616260*
X732635Y621260*
X744635*
Y636260D02*
X759135D01*
X766635Y643760*
Y649760*
X743635Y672760*
Y694760*
X736635Y701760*
Y742760*
X701635Y777760*
X687635*
X675135Y790260*
D02*
D107*
X410135Y283870D02*
D03*
X419635Y259870D02*
D03*
X429135Y283870D02*
D03*
X704135Y695870D02*
D03*
X713635Y671870D02*
D03*
X723135Y695870D02*
D03*
D02*
D108*
X487635Y712260D02*
D03*
Y735260D02*
D03*
D02*
D109*
X744635Y606260D02*
D03*
Y621260D02*
D03*
Y636260D02*
D03*
Y651260D02*
D03*
D02*
D110*
X779135Y586510D02*
D03*
Y670760D02*
D03*
D02*
D111*
X120745Y248760D02*
D03*
X144745Y239260D02*
D03*
Y258260D02*
D03*
X160745Y248760D02*
D03*
Y286760D02*
D03*
X184745Y239260D02*
D03*
Y258260D02*
D03*
Y277260D02*
D03*
Y296260D02*
D03*
X0Y0D02*
M02*
