%FSLAX34Y34*%
%MOMM*%
G04 EasyPC Gerber Version 18.0.6 Build 3620 *
%ADD99R,0.30000X0.80000*%
%ADD102R,0.40000X2.00000*%
%ADD20R,0.65000X1.00000*%
%ADD96R,0.76000X1.60000*%
%ADD88R,0.80000X0.90000*%
%ADD90R,0.80000X2.20000*%
%ADD98R,0.90000X1.30000*%
%ADD91R,1.10000X1.90000*%
%ADD94R,1.39000X1.40000*%
%ADD84R,1.50000X2.50000*%
%ADD71R,1.60000X3.00000*%
%ADD24R,1.70000X2.76000*%
%ADD92R,2.50000X4.50000*%
%ADD95R,2.60000X4.50000*%
%ADD93R,3.36000X4.86000*%
%ADD85R,7.00000X7.00000*%
%ADD14C,1.52400*%
%ADD89C,1.60000*%
%ADD22C,1.70000*%
%ADD83C,3.50000*%
%ADD13C,5.00000*%
%ADD100R,0.80000X0.30000*%
%ADD104R,0.75000X0.50000*%
%ADD25R,1.00000X0.65000*%
%ADD103R,1.27000X0.76000*%
%ADD86R,1.30000X0.76000*%
%ADD26R,1.60000X0.76000*%
%ADD87R,1.20000X0.80000*%
%ADD21R,1.30000X0.90000*%
%ADD23R,1.50000X1.01000*%
%ADD101R,2.70000X1.20000*%
%ADD97R,3.51000X2.62000*%
X0Y0D02*
D02*
D13*
X25635Y338760D02*
D03*
Y788760D02*
D03*
X445635Y338760D02*
D03*
X774635Y413760D02*
D03*
Y713760D02*
D03*
D02*
D14*
X462635Y672760D02*
D03*
Y698160D02*
D03*
Y723560D02*
D03*
X579835Y576760D02*
D03*
X605235D02*
D03*
X630635D02*
D03*
X670735Y513160D02*
D03*
Y538560D02*
D03*
Y563960D02*
D03*
Y589360D02*
D03*
Y614760D02*
D03*
X696135Y513160D02*
D03*
Y538560D02*
D03*
Y563960D02*
D03*
Y589360D02*
D03*
Y614760D02*
D03*
D02*
D71*
X78635Y154760D02*
D03*
Y198760D02*
D03*
D02*
D20*
X310885Y28760D02*
D03*
X326385D02*
D03*
X402885Y145760D02*
D03*
Y161760D02*
D03*
X418385Y145760D02*
D03*
Y161760D02*
D03*
X484885Y529760D02*
D03*
X500385D02*
D03*
X514885D02*
D03*
X530385D02*
D03*
X545885D02*
D03*
X561385D02*
D03*
X575885Y498760D02*
D03*
Y516760D02*
D03*
Y535760D02*
D03*
X591385Y498760D02*
D03*
Y516760D02*
D03*
Y535760D02*
D03*
X622885Y623760D02*
D03*
X638385D02*
D03*
D02*
D21*
X493635Y630760D02*
D03*
Y650760D02*
D03*
X495635Y705760D02*
D03*
Y725760D02*
D03*
D02*
D22*
X237435Y263060D02*
D03*
Y288460D02*
D03*
X262835Y263060D02*
D03*
Y288460D02*
D03*
X288235Y263060D02*
D03*
Y288460D02*
D03*
X313635Y263060D02*
D03*
Y288460D02*
D03*
X339035Y263060D02*
D03*
Y288460D02*
D03*
X364435Y263060D02*
D03*
Y288460D02*
D03*
X389835Y263060D02*
D03*
Y288460D02*
D03*
D02*
D23*
X446835Y74760D02*
D03*
Y89760D02*
D03*
Y104760D02*
D03*
D02*
D24*
X412435Y89760D02*
D03*
D02*
D25*
X113635Y180010D02*
D03*
Y195510D02*
D03*
X131635Y150010D02*
D03*
Y165510D02*
D03*
Y180010D02*
D03*
Y195510D02*
D03*
X158635Y150010D02*
D03*
Y165510D02*
D03*
Y180010D02*
D03*
Y195510D02*
D03*
Y210010D02*
D03*
Y225510D02*
D03*
X169635Y526010D02*
D03*
Y541510D02*
D03*
X170635Y386010D02*
D03*
Y401510D02*
D03*
X226635Y121010D02*
D03*
Y136510D02*
D03*
X278635Y198010D02*
D03*
Y213510D02*
D03*
X346635Y193010D02*
D03*
Y208510D02*
D03*
X350635Y386010D02*
D03*
Y401510D02*
D03*
Y526010D02*
D03*
Y541510D02*
D03*
X363635Y193010D02*
D03*
Y208510D02*
D03*
X428635Y192010D02*
D03*
Y207510D02*
D03*
X516635Y415010D02*
D03*
Y430510D02*
D03*
X588635Y638010D02*
D03*
Y653510D02*
D03*
Y708010D02*
D03*
Y723510D02*
D03*
X617635Y708010D02*
D03*
Y723510D02*
D03*
X709635Y696010D02*
D03*
Y711510D02*
D03*
Y726010D02*
D03*
Y741510D02*
D03*
D02*
D26*
X516651Y625710D02*
D03*
Y638410D02*
D03*
Y651110D02*
D03*
Y663810D02*
D03*
Y700710D02*
D03*
Y713410D02*
D03*
Y726110D02*
D03*
Y738810D02*
D03*
X570609Y625710D02*
D03*
Y638410D02*
D03*
Y651110D02*
D03*
Y663810D02*
D03*
Y700710D02*
D03*
Y713410D02*
D03*
Y726110D02*
D03*
Y738810D02*
D03*
D02*
D83*
X71635Y471760D02*
D03*
Y533760D02*
D03*
Y595760D02*
D03*
Y657760D02*
D03*
D02*
D84*
X187017Y391798D02*
D03*
Y531798D02*
D03*
X234289Y391640D02*
D03*
Y531640D02*
D03*
X367017Y391798D02*
D03*
X368017Y531798D02*
D03*
X414289Y391640D02*
D03*
X415289Y531640D02*
D03*
D02*
D85*
X210635Y460750D02*
D03*
Y600750D02*
D03*
X390635Y460750D02*
D03*
X391635Y600750D02*
D03*
D02*
D86*
X636235Y698760D02*
D03*
Y711460D02*
D03*
Y724160D02*
D03*
Y736860D02*
D03*
X689635Y698760D02*
D03*
Y711460D02*
D03*
Y724160D02*
D03*
Y736860D02*
D03*
D02*
D87*
X620735Y639410D02*
D03*
Y652110D02*
D03*
Y665410D02*
D03*
Y678110D02*
D03*
X688535Y639410D02*
D03*
Y652110D02*
D03*
Y665410D02*
D03*
Y678110D02*
D03*
D02*
D88*
X532135Y683760D02*
D03*
X533135Y608760D02*
D03*
X555135Y683760D02*
D03*
X556135Y608760D02*
D03*
D02*
D89*
X33635Y38760D02*
D03*
Y63760D02*
D03*
Y88760D02*
D03*
Y113760D02*
D03*
Y138760D02*
D03*
Y163760D02*
D03*
Y188760D02*
D03*
Y213760D02*
D03*
Y238760D02*
D03*
Y263760D02*
D03*
X473635Y38760D02*
D03*
Y63760D02*
D03*
Y88760D02*
D03*
Y113760D02*
D03*
Y138760D02*
D03*
Y163760D02*
D03*
Y188760D02*
D03*
Y213760D02*
D03*
Y238760D02*
D03*
Y263760D02*
D03*
X525135Y347760D02*
D03*
Y790260D02*
D03*
X550135Y347760D02*
D03*
Y790260D02*
D03*
X575135Y347760D02*
D03*
Y790260D02*
D03*
X600135Y347760D02*
D03*
Y790260D02*
D03*
X625135Y347760D02*
D03*
Y790260D02*
D03*
X650135Y347760D02*
D03*
Y790260D02*
D03*
X675135Y347760D02*
D03*
Y790260D02*
D03*
X700135Y347760D02*
D03*
Y790260D02*
D03*
X725135Y347760D02*
D03*
Y790260D02*
D03*
X750135Y347760D02*
D03*
Y790260D02*
D03*
D02*
D90*
X89135Y259760D02*
D03*
X104135D02*
D03*
X119135D02*
D03*
X443135Y759760D02*
D03*
X458135D02*
D03*
D02*
D91*
X69635Y294260D02*
D03*
X138635D02*
D03*
X422635Y794260D02*
D03*
X478635D02*
D03*
D02*
D92*
X213635Y692760D02*
D03*
Y777760D02*
D03*
X340635Y691760D02*
D03*
Y776760D02*
D03*
D02*
D93*
X276635Y453760D02*
D03*
Y593760D02*
D03*
X320635Y453760D02*
D03*
Y593760D02*
D03*
D02*
D94*
X267385Y414010D02*
D03*
Y554010D02*
D03*
X285885Y414010D02*
D03*
Y554010D02*
D03*
X311385Y414010D02*
D03*
Y554010D02*
D03*
X329885Y414010D02*
D03*
Y554010D02*
D03*
D02*
D95*
X580635Y436760D02*
D03*
X660635D02*
D03*
D02*
D96*
X516585Y451786D02*
D03*
Y505744D02*
D03*
X529285Y451786D02*
D03*
Y505744D02*
D03*
X541985Y451786D02*
D03*
Y505744D02*
D03*
X554685Y451786D02*
D03*
Y505744D02*
D03*
D02*
D97*
X535635Y478760D02*
D03*
D02*
D98*
X401635Y127760D02*
D03*
X421635D02*
D03*
X531635Y429760D02*
D03*
X551635D02*
D03*
X611635Y500760D02*
D03*
X631635D02*
D03*
D02*
D99*
X267635Y52760D02*
D03*
Y168760D02*
D03*
X272635Y52760D02*
D03*
Y168760D02*
D03*
X277635Y52760D02*
D03*
Y168760D02*
D03*
X282635Y52760D02*
D03*
Y168760D02*
D03*
X287635Y52760D02*
D03*
Y168760D02*
D03*
X292635Y52760D02*
D03*
Y168760D02*
D03*
X297635Y52760D02*
D03*
Y168760D02*
D03*
X302635Y52760D02*
D03*
Y168760D02*
D03*
X307635Y52760D02*
D03*
Y168760D02*
D03*
X312635Y52760D02*
D03*
Y168760D02*
D03*
X317635Y52760D02*
D03*
Y168760D02*
D03*
X322635Y52760D02*
D03*
Y168760D02*
D03*
X327635Y52760D02*
D03*
Y168760D02*
D03*
X332635Y52760D02*
D03*
Y168760D02*
D03*
X337635Y52760D02*
D03*
Y168760D02*
D03*
X342635Y52760D02*
D03*
Y168760D02*
D03*
D02*
D100*
X247135Y73260D02*
D03*
Y78260D02*
D03*
Y83260D02*
D03*
Y88260D02*
D03*
Y93260D02*
D03*
Y98260D02*
D03*
Y103260D02*
D03*
Y108260D02*
D03*
Y113260D02*
D03*
Y118260D02*
D03*
Y123260D02*
D03*
Y128260D02*
D03*
Y133260D02*
D03*
Y138260D02*
D03*
Y143260D02*
D03*
Y148260D02*
D03*
X363135Y73260D02*
D03*
Y78260D02*
D03*
Y83260D02*
D03*
Y88260D02*
D03*
Y93260D02*
D03*
Y98260D02*
D03*
Y103260D02*
D03*
Y108260D02*
D03*
Y113260D02*
D03*
Y118260D02*
D03*
Y123260D02*
D03*
Y128260D02*
D03*
Y133260D02*
D03*
Y138260D02*
D03*
Y143260D02*
D03*
Y148260D02*
D03*
D02*
D101*
X200635Y121760D02*
D03*
Y151760D02*
D03*
D02*
D102*
X295635Y205760D02*
D03*
X307635D02*
D03*
X319635D02*
D03*
D02*
D103*
X79635Y28560D02*
D03*
Y41260D02*
D03*
Y53960D02*
D03*
Y66660D02*
D03*
Y79360D02*
D03*
Y92060D02*
D03*
Y104760D02*
D03*
Y117460D02*
D03*
X152635Y28560D02*
D03*
Y41260D02*
D03*
Y53960D02*
D03*
Y66660D02*
D03*
Y79360D02*
D03*
Y92060D02*
D03*
Y104760D02*
D03*
Y117460D02*
D03*
D02*
D104*
X178585Y191760D02*
D03*
Y199760D02*
D03*
Y207760D02*
D03*
Y215760D02*
D03*
X196085Y191760D02*
D03*
Y199760D02*
D03*
Y207760D02*
D03*
Y215760D02*
D03*
X0Y0D02*
M02*
