%FSLAX34Y34*%
%MOMM*%
G04 EasyPC Gerber Version 18.0.6 Build 3620 *
%ADD10C,0.12700*%
X0Y0D02*
D02*
D10*
X635Y288760D02*
Y279760D01*
X9635*
Y270760*
X635*
Y31760*
X9635*
Y22760*
X635*
Y13760*
X60635*
Y22760*
X50635*
Y279760*
X60635*
Y288760*
X635*
X9635Y270510D02*
Y31760D01*
X28829Y543260D02*
Y535322D01*
X38354Y543260*
Y535322*
Y530560D02*
X28829D01*
X38354Y522622*
X28829*
X38354Y517860D02*
X28829D01*
Y512304*
X29622Y510716*
X31210Y509922*
X32797Y510716*
X33591Y512304*
Y517860*
Y512304D02*
X38354Y509922D01*
X37560Y504366D02*
X38354Y502779D01*
Y501191*
X37560Y499604*
X35972Y498810*
X34385Y499604*
X33591Y501191*
Y502779*
Y501191D02*
X32797Y499604D01*
X31210Y498810*
X29622Y499604*
X28829Y501191*
Y502779*
X29622Y504366*
X43425Y581050D02*
Y546970D01*
X25345*
Y581050*
X43425*
X65635Y286379D02*
Y276854D01*
X71191*
X72779Y277647*
X73573Y279235*
X72779Y280822*
X71191Y281616*
X65635*
X71191D02*
X73573Y286379D01*
X79923D02*
X83098D01*
X81510D02*
Y276854D01*
X79923Y278441*
X93416Y281616D02*
X95004D01*
X96591Y280822*
X97385Y279235*
X96591Y277647*
X95004Y276854*
X93416*
X91829Y277647*
X91035Y279235*
X91829Y280822*
X93416Y281616*
X91829Y282410*
X91035Y283997*
X91829Y285585*
X93416Y286379*
X95004*
X96591Y285585*
X97385Y283997*
X96591Y282410*
X95004Y281616*
X73666Y53822D02*
X74460Y54616D01*
X75254Y56204*
Y58585*
X74460Y60172*
X73666Y60966*
X72079Y61760*
X68904*
X67316Y60966*
X66522Y60172*
X65729Y58585*
Y56204*
X66522Y54616*
X67316Y53822*
X75254Y42710D02*
Y49060D01*
X69697Y43504*
X68110Y42710*
X66522Y43504*
X65729Y45091*
Y47472*
X66522Y49060*
X74460Y35566D02*
X75254Y33979D01*
Y32391*
X74460Y30804*
X72872Y30010*
X68110*
X66522Y30804*
X65729Y32391*
Y33979*
X66522Y35566*
X68110Y36360*
X72872*
X74460Y35566*
X66522Y30804*
X84254Y265791D02*
X74729D01*
Y269760D02*
Y261822D01*
X84254Y257060D02*
X74729D01*
Y251504*
X75522Y249916*
X77110Y249122*
X78697Y249916*
X79491Y251504*
Y257060*
Y251504D02*
X84254Y249122D01*
X81872Y244360D02*
X80285Y243566D01*
X79491Y241979*
Y240391*
X80285Y238804*
X81872Y238010*
X83460Y238804*
X84254Y240391*
Y241979*
X83460Y243566*
X81872Y244360*
X79491*
X77110Y243566*
X75522Y241979*
X74729Y240391*
X93175Y60300D02*
Y33220D01*
X78095*
Y60300*
X93175*
X98254Y265791D02*
X88729D01*
Y269760D02*
Y261822D01*
X98254Y257060D02*
X88729D01*
Y251504*
X89522Y249916*
X91110Y249122*
X92697Y249916*
X93491Y251504*
Y257060*
Y251504D02*
X98254Y249122D01*
Y244360D02*
X88729Y238010D01*
Y244360*
X100254Y300791D02*
X90729D01*
Y304760D02*
Y296822D01*
X100254Y292060D02*
X90729D01*
Y286504*
X91522Y284916*
X93110Y284122*
X94697Y284916*
X95491Y286504*
Y292060*
Y286504D02*
X100254Y284122D01*
X95491Y276979D02*
Y275391D01*
X94697Y273804*
X93110Y273010*
X91522Y273804*
X90729Y275391*
Y276979*
X91522Y278566*
X93110Y279360*
X94697Y278566*
X95491Y276979*
X96285Y278566*
X97872Y279360*
X99460Y278566*
X100254Y276979*
Y275391*
X99460Y273804*
X97872Y273010*
X96285Y273804*
X95491Y275391*
X107385Y63560D02*
Y31560D01*
X123385*
Y63560*
X107385*
X114330Y265905D02*
Y230260D01*
X151795*
Y265905*
X114330*
X113254Y260760D02*
X103729D01*
Y255204*
X104522Y253616*
X106110Y252822*
X107697Y253616*
X108491Y255204*
Y260760*
Y255204D02*
X113254Y252822D01*
Y241710D02*
Y248060D01*
X107697Y242504*
X106110Y241710*
X104522Y242504*
X103729Y244091*
Y246472*
X104522Y248060*
X112460Y234566D02*
X113254Y232979D01*
Y231391*
X112460Y229804*
X110872Y229010*
X106110*
X104522Y229804*
X103729Y231391*
Y232979*
X104522Y234566*
X106110Y235360*
X110872*
X112460Y234566*
X104522Y229804*
X103729Y493760D02*
Y485822D01*
X113254Y493760*
Y485822*
Y481060D02*
X103729D01*
X113254Y473122*
X103729*
X113254Y468360D02*
X103729D01*
Y462804*
X104522Y461216*
X106110Y460422*
X107697Y461216*
X108491Y462804*
Y468360*
Y462804D02*
X113254Y460422D01*
Y454072D02*
Y450897D01*
Y452485D02*
X103729D01*
X105316Y454072*
X115675Y580800D02*
Y546720D01*
X97595*
Y580800*
X115675*
X114254Y294760D02*
X104729D01*
Y289204*
X105522Y287616*
X107110Y286822*
X108697Y287616*
X109491Y289204*
Y294760*
Y289204D02*
X114254Y286822D01*
Y275710D02*
Y282060D01*
X108697Y276504*
X107110Y275710*
X105522Y276504*
X104729Y278091*
Y280472*
X105522Y282060*
X114254Y263010D02*
Y269360D01*
X108697Y263804*
X107110Y263010*
X105522Y263804*
X104729Y265391*
Y267772*
X105522Y269360*
X123885Y82560D02*
Y114560D01*
X107885*
Y82560*
X123885*
X135254Y55760D02*
X125729D01*
Y50204*
X126522Y48616*
X128110Y47822*
X129697Y48616*
X130491Y50204*
Y55760*
Y50204D02*
X135254Y47822D01*
Y36710D02*
Y43060D01*
X129697Y37504*
X128110Y36710*
X126522Y37504*
X125729Y39091*
Y41472*
X126522Y43060*
X135254Y30360D02*
X125729Y24010D01*
Y30360*
X136254Y107760D02*
X126729D01*
Y102204*
X127522Y100616*
X129110Y99822*
X130697Y100616*
X131491Y102204*
Y107760*
Y102204D02*
X136254Y99822D01*
Y88710D02*
Y95060D01*
X130697Y89504*
X129110Y88710*
X127522Y89504*
X126729Y91091*
Y93472*
X127522Y95060*
X136254Y78391D02*
X126729D01*
X133079Y82360*
Y76010*
X150175Y268220D02*
X123095D01*
Y283300*
X150175*
Y268220*
X154330Y265905D02*
Y230260D01*
X191795*
Y265905*
X154330*
Y303905D02*
Y268260D01*
X191795*
Y303905*
X154330*
X209175Y262300D02*
Y235220D01*
X194095*
Y262300*
X209175*
Y299300D02*
Y272220D01*
X194095*
Y299300*
X209175*
X211635Y209379D02*
Y199854D01*
X217191*
X218779Y200647*
X219573Y202235*
X218779Y203822*
X217191Y204616*
X211635*
X217191D02*
X219573Y209379D01*
X230685D02*
X224335D01*
X229891Y203822*
X230685Y202235*
X229891Y200647*
X228304Y199854*
X225923*
X224335Y200647*
X237035Y208585D02*
X238623Y209379D01*
X241004*
X242591Y208585*
X243385Y206997*
Y206204*
X242591Y204616*
X241004Y203822*
X237035*
Y199854*
X243385*
X215635Y262379D02*
Y252854D01*
X221191*
X222779Y253647*
X223573Y255235*
X222779Y256822*
X221191Y257616*
X215635*
X221191D02*
X223573Y262379D01*
X229923D02*
X233098D01*
X231510D02*
Y252854D01*
X229923Y254441*
X241035Y262379D02*
X247385Y252854D01*
X241035*
X219095Y248300D02*
X246175D01*
Y233220*
X219095*
Y248300*
X228729Y443760D02*
Y435822D01*
X238254Y443760*
Y435822*
Y431060D02*
X228729D01*
X238254Y423122*
X228729*
X238254Y418360D02*
X228729D01*
Y412804*
X229522Y411216*
X231110Y410422*
X232697Y411216*
X233491Y412804*
Y418360*
Y412804D02*
X238254Y410422D01*
Y405660D02*
X228729Y399310D01*
Y405660*
Y583760D02*
Y575822D01*
X238254Y583760*
Y575822*
Y571060D02*
X228729D01*
X238254Y563122*
X228729*
X238254Y558360D02*
X228729D01*
Y552804*
X229522Y551216*
X231110Y550422*
X232697Y551216*
X233491Y552804*
Y558360*
Y552804D02*
X238254Y550422D01*
X235872Y545660D02*
X234285Y544866D01*
X233491Y543279*
Y541691*
X234285Y540104*
X235872Y539310*
X237460Y540104*
X238254Y541691*
Y543279*
X237460Y544866*
X235872Y545660*
X233491*
X231110Y544866*
X229522Y543279*
X228729Y541691*
X242595Y408720D02*
Y442800D01*
X260675*
Y408720*
X242595*
X244595Y546720D02*
Y580800D01*
X262675*
Y546720*
X244595*
X246175Y216220D02*
X219095D01*
Y231300*
X246175*
Y216220*
X249635Y192379D02*
Y182854D01*
X255191*
X256779Y183647*
X257573Y185235*
X256779Y186822*
X255191Y187616*
X249635*
X255191D02*
X257573Y192379D01*
X263923D02*
X267098D01*
X265510D02*
Y182854D01*
X263923Y184441*
X277416Y192379D02*
X279004Y191585D01*
X280591Y189997*
X281385Y187616*
Y185235*
X280591Y183647*
X279004Y182854*
X277416*
X275829Y183647*
X275035Y185235*
X275829Y186822*
X277416Y187616*
X279004*
X280591Y186822*
X281385Y185235*
X281175Y216220D02*
X254095D01*
Y231300*
X281175*
Y216220*
X283095Y231300D02*
X310175D01*
Y216220*
X283095*
Y231300*
X285635Y192379D02*
Y182854D01*
X291191*
X292779Y183647*
X293573Y185235*
X292779Y186822*
X291191Y187616*
X285635*
X291191D02*
X293573Y192379D01*
X304685D02*
X298335D01*
X303891Y186822*
X304685Y185235*
X303891Y183647*
X302304Y182854*
X299923*
X298335Y183647*
X312623Y192379D02*
X315798D01*
X314210D02*
Y182854D01*
X312623Y184441*
X312095Y231300D02*
X339175D01*
Y216220*
X312095*
Y231300*
X319635Y193379D02*
Y183854D01*
X325191*
X326779Y184647*
X327573Y186235*
X326779Y187822*
X325191Y188616*
X319635*
X325191D02*
X327573Y193379D01*
X338685D02*
X332335D01*
X337891Y187822*
X338685Y186235*
X337891Y184647*
X336304Y183854*
X333923*
X332335Y184647*
X345829Y192585D02*
X347416Y193379D01*
X349004*
X350591Y192585*
X351385Y190997*
X350591Y189410*
X349004Y188616*
X347416*
X349004D02*
X350591Y187822D01*
X351385Y186235*
X350591Y184647*
X349004Y183854*
X347416*
X345829Y184647*
X323729Y458760D02*
Y450822D01*
X333254Y458760*
Y450822*
Y446060D02*
X323729D01*
X333254Y438122*
X323729*
X333254Y433360D02*
X323729D01*
Y427804*
X324522Y426216*
X326110Y425422*
X327697Y426216*
X328491Y427804*
Y433360*
Y427804D02*
X333254Y425422D01*
Y414310D02*
Y420660D01*
X327697Y415104*
X326110Y414310*
X324522Y415104*
X323729Y416691*
Y419072*
X324522Y420660*
X323729Y598760D02*
Y590822D01*
X333254Y598760*
Y590822*
Y586060D02*
X323729D01*
X333254Y578122*
X323729*
X333254Y573360D02*
X323729D01*
Y567804*
X324522Y566216*
X326110Y565422*
X327697Y566216*
X328491Y567804*
Y573360*
Y567804D02*
X333254Y565422D01*
X332460Y560660D02*
X333254Y559072D01*
Y556691*
X332460Y555104*
X330872Y554310*
X330079*
X328491Y555104*
X327697Y556691*
Y560660*
X323729*
Y554310*
X338595Y407720D02*
Y441800D01*
X356675*
Y407720*
X338595*
Y546720D02*
Y580800D01*
X356675*
Y546720*
X338595*
X394573Y252791D02*
X393779Y253585D01*
X392191Y254379*
X389810*
X388223Y253585*
X387429Y252791*
X386635Y251204*
Y248029*
X387429Y246441*
X388223Y245647*
X389810Y244854*
X392191*
X393779Y245647*
X394573Y246441*
X405685Y254379D02*
X399335D01*
X404891Y248822*
X405685Y247235*
X404891Y245647*
X403304Y244854*
X400923*
X399335Y245647*
X416004Y254379D02*
Y244854D01*
X412035Y251204*
X418385*
X390995Y177050D02*
G75*
G02Y182370J2660D01*
G01*
G75*
G02Y177050J-2660*
G01*
G36*
G75*
G02Y182370J2660*
G01*
G75*
G02Y177050J-2660*
G01*
G37*
X392635Y153379D02*
Y143854D01*
X398191*
X399779Y144647*
X400573Y146235*
X399779Y147822*
X398191Y148616*
X392635*
X398191D02*
X400573Y153379D01*
X406923D02*
X410098D01*
X408510D02*
Y143854D01*
X406923Y145441*
X418035Y152585D02*
X419623Y153379D01*
X422004*
X423591Y152585*
X424385Y150997*
Y150204*
X423591Y148616*
X422004Y147822*
X418035*
Y143854*
X424385*
X398516Y223439D02*
X401691D01*
X400104D02*
Y213914D01*
X398516D02*
X401691D01*
X416773Y221851D02*
X415979Y222645D01*
X414391Y223439*
X412010*
X410423Y222645*
X409629Y221851*
X408835Y220264*
Y217089*
X409629Y215501*
X410423Y214707*
X412010Y213914*
X414391*
X415979Y214707*
X416773Y215501*
X421535Y222645D02*
X423123Y223439D01*
X425504*
X427091Y222645*
X427885Y221057*
Y220264*
X427091Y218676*
X425504Y217882*
X421535*
Y213914*
X427885*
X397095Y170300D02*
X424175D01*
Y155220*
X397095*
Y170300*
X402490Y253455D02*
X438135D01*
Y290920*
X402490*
Y253455*
X396729Y208760D02*
X403872D01*
X405460Y207966*
X406254Y206379*
Y203204*
X405460Y201616*
X403872Y200822*
X396729*
X405460Y195266D02*
X406254Y193679D01*
Y192091*
X405460Y190504*
X403872Y189710*
X402285Y190504*
X401491Y192091*
Y193679*
Y192091D02*
X400697Y190504D01*
X399110Y189710*
X397522Y190504*
X396729Y192091*
Y193679*
X397522Y195266*
X416175Y226220D02*
X389095D01*
Y241300*
X416175*
Y226220*
X416935Y175910D02*
Y221610D01*
X388335*
Y175910*
X396285*
X402635Y179085*
X408985Y175910*
X416935*
X440635Y288760D02*
Y279760D01*
X449635*
Y270760*
X440635*
Y31760*
X449635*
Y22760*
X440635*
Y13760*
X500635*
Y22760*
X490635*
Y279760*
X500635*
Y288760*
X440635*
X449635Y270510D02*
Y31760D01*
X479635Y705760D02*
Y741760D01*
X494635*
Y705760*
X479635*
X491891Y532210D02*
X484748D01*
X483160Y533004*
X482366Y534591*
Y537766*
X483160Y539354*
X484748Y540148*
X491891*
X482366Y551260D02*
Y544910D01*
X487923Y550466*
X489510Y551260*
X491098Y550466*
X491891Y548879*
Y546498*
X491098Y544910*
X493254Y763760D02*
X483729D01*
Y758997*
X484522Y757410*
X485316Y756616*
X486904Y755822*
X490079*
X491666Y756616*
X492460Y757410*
X493254Y758997*
Y763760*
Y751060D02*
X483729Y744710D01*
Y751060*
X506095Y697300D02*
X533175D01*
Y682220*
X506095*
Y697300*
X522035Y506860D02*
Y557560D01*
X450635*
Y506860*
X482585*
Y510610*
X490085*
Y506860*
X522035*
X526095Y535620D02*
Y562700D01*
X541175*
Y535620*
X526095*
X527095Y505620D02*
Y532700D01*
X542175*
Y505620*
X527095*
X527697Y667729D02*
X528491Y666935D01*
X530079Y666141*
X532460*
X534047Y666935*
X534841Y667729*
X535635Y669316*
Y672491*
X534841Y674079*
X534047Y674873*
X532460Y675666*
X530079*
X528491Y674873*
X527697Y674079*
X522141Y666935D02*
X520554Y666141D01*
X518966*
X517379Y666935*
X516585Y668523*
X517379Y670110*
X518966Y670904*
X520554*
X518966D02*
X517379Y671698D01*
X516585Y673285*
X517379Y674873*
X518966Y675666*
X520554*
X522141Y674873*
X545604Y542098D02*
X544810Y541304D01*
X544016Y539716*
Y537335*
X544810Y535748*
X545604Y534954*
X547191Y534160*
X550366*
X551954Y534954*
X552748Y535748*
X553541Y537335*
Y539716*
X552748Y541304*
X551954Y542098*
X544016Y550829D02*
X553541D01*
X547191Y546860*
Y553210*
X553604Y560698D02*
X552810Y559904D01*
X552016Y558316*
Y555935*
X552810Y554348*
X553604Y553554*
X555191Y552760*
X558366*
X559954Y553554*
X560748Y554348*
X561541Y555935*
Y558316*
X560748Y559904*
X559954Y560698*
X552016Y567048D02*
Y570223D01*
Y568635D02*
X561541D01*
X559954Y567048*
X552810Y578160D02*
X552016Y579748D01*
Y582129*
X552810Y583716*
X554398Y584510*
X555191*
X556779Y583716*
X557573Y582129*
Y578160*
X561541*
Y584510*
X556635Y470541D02*
Y480066D01*
X551872*
X550285Y479273*
X549491Y478479*
X548697Y476891*
Y473716*
X549491Y472129*
X550285Y471335*
X551872Y470541*
X556635*
X541554D02*
X539966Y471335D01*
X538379Y472923*
X537585Y475304*
Y477685*
X538379Y479273*
X539966Y480066*
X541554*
X543141Y479273*
X543935Y477685*
X543141Y476098*
X541554Y475304*
X539966*
X538379Y476098*
X537585Y477685*
X556835Y698710D02*
Y748810D01*
X496435*
Y698710*
X525385*
Y699960*
X527885*
Y698710*
X556835*
X554666Y523222D02*
X555460Y524016D01*
X556254Y525604*
Y527985*
X555460Y529572*
X554666Y530366*
X553079Y531160*
X549904*
X548316Y530366*
X547522Y529572*
X546729Y527985*
Y525604*
X547522Y524016*
X548316Y523222*
X556254Y516872D02*
Y513697D01*
Y515285D02*
X546729D01*
X548316Y516872*
X556254Y501791D02*
X546729D01*
X553079Y505760*
Y499410*
X564095Y562700D02*
X591175D01*
Y547620*
X564095*
Y562700*
X579573Y445191D02*
X578779Y445985D01*
X577191Y446779*
X574810*
X573223Y445985*
X572429Y445191*
X571635Y443604*
Y440429*
X572429Y438841*
X573223Y438047*
X574810Y437254*
X577191*
X578779Y438047*
X579573Y438841*
X585923Y446779D02*
X589098D01*
X587510D02*
Y437254D01*
X585923Y438841*
X597829Y445985D02*
X599416Y446779D01*
X601004*
X602591Y445985*
X603385Y444397*
X602591Y442810*
X601004Y442016*
X599416*
X601004D02*
X602591Y441222D01*
X603385Y439635*
X602591Y438047*
X601004Y437254*
X599416*
X597829Y438047*
X564729Y746760D02*
X571872D01*
X573460Y745966*
X574254Y744379*
Y741204*
X573460Y739616*
X571872Y738822*
X564729*
X574254Y730091D02*
X564729D01*
X571079Y734060*
Y727710*
X597175Y449620D02*
X570095D01*
Y464700*
X597175*
Y449620*
X597635Y467160D02*
X561635D01*
Y482160*
X597635*
Y467160*
X601635Y559066D02*
Y551923D01*
X600841Y550335*
X599254Y549541*
X596079*
X594491Y550335*
X593697Y551923*
Y559066*
X587347Y549541D02*
X584172D01*
X585760D02*
Y559066D01*
X587347Y557479*
X605685Y545360D02*
X555585D01*
Y484960*
X605685*
Y513910*
X604435*
Y516410*
X605685*
Y545360*
X674254Y685760D02*
X664729D01*
Y680204*
X665522Y678616*
X667110Y677822*
X668697Y678616*
X669491Y680204*
Y685760*
Y680204D02*
X674254Y677822D01*
Y670679D02*
X673460Y669091D01*
X671872Y667504*
X669491Y666710*
X667110*
X665522Y667504*
X664729Y669091*
Y670679*
X665522Y672266*
X667110Y673060*
X668697Y672266*
X669491Y670679*
Y669091*
X668697Y667504*
X667110Y666710*
X691175Y690300D02*
Y663220D01*
X676095*
Y690300*
X691175*
X691666Y646141D02*
Y655666D01*
X695635D02*
X687697D01*
X682935Y646141D02*
Y655666D01*
X677379*
X675791Y654873*
X674997Y653285*
X675791Y651698*
X677379Y650904*
X682935*
X677379D02*
X674997Y646141D01*
X670235Y646935D02*
X668647Y646141D01*
X666266*
X664679Y646935*
X663885Y648523*
Y649316*
X664679Y650904*
X666266Y651698*
X670235*
Y655666*
X663885*
X696490Y665455D02*
X732135D01*
Y702920*
X696490*
Y665455*
X701095Y723300D02*
X728175D01*
Y708220*
X701095*
Y723300*
X715635Y726141D02*
Y735666D01*
X710079*
X708491Y734873*
X707697Y733285*
X708491Y731698*
X710079Y730904*
X715635*
X710079D02*
X707697Y726141D01*
X700554Y730904D02*
X698966D01*
X697379Y731698*
X696585Y733285*
X697379Y734873*
X698966Y735666*
X700554*
X702141Y734873*
X702935Y733285*
X702141Y731698*
X700554Y730904*
X702141Y730110*
X702935Y728523*
X702141Y726935*
X700554Y726141*
X698966*
X697379Y726935*
X696585Y728523*
X697379Y730110*
X698966Y730904*
X722697Y627729D02*
X723491Y626935D01*
X725079Y626141*
X727460*
X729047Y626935*
X729841Y627729*
X730635Y629316*
Y632491*
X729841Y634079*
X729047Y634873*
X727460Y635666*
X725079*
X723491Y634873*
X722697Y634079*
X717935Y629316D02*
Y632491D01*
X717141Y634079*
X716347Y634873*
X714760Y635666*
X713172*
X711585Y634873*
X710791Y634079*
X709997Y632491*
Y629316*
X710791Y627729*
X711585Y626935*
X713172Y626141*
X714760*
X716347Y626935*
X717141Y627729*
X717935Y629316*
X705235Y626141D02*
Y635666D01*
X697297Y626141*
Y635666*
X692535Y626141D02*
Y635666D01*
X684597Y626141*
Y635666*
X679835Y626141D02*
X673485Y635666D01*
X679835*
X738635Y583760D02*
Y593760D01*
X748635*
Y663760*
X738635*
Y673760*
X798635*
Y583760*
X738635*
X758175Y540220D02*
X731095D01*
Y555300*
X758175*
Y540220*
Y558220D02*
X731095D01*
Y573300*
X758175*
Y558220*
X790635Y541141D02*
Y550666D01*
X785079*
X783491Y549873*
X782697Y548285*
X783491Y546698*
X785079Y545904*
X790635*
X785079D02*
X782697Y541141D01*
X777141Y541935D02*
X775554Y541141D01*
X773966*
X772379Y541935*
X771585Y543523*
X772379Y545110*
X773966Y545904*
X775554*
X773966D02*
X772379Y546698D01*
X771585Y548285*
X772379Y549873*
X773966Y550666*
X775554*
X777141Y549873*
X758885Y541141D02*
X765235D01*
X759679Y546698*
X758885Y548285*
X759679Y549873*
X761266Y550666*
X763647*
X765235Y549873*
X790635Y561141D02*
Y570666D01*
X785079*
X783491Y569873*
X782697Y568285*
X783491Y566698*
X785079Y565904*
X790635*
X785079D02*
X782697Y561141D01*
X771585D02*
X777935D01*
X772379Y566698*
X771585Y568285*
X772379Y569873*
X773966Y570666*
X776347*
X777935Y569873*
X765235Y563523D02*
X764441Y565110D01*
X762854Y565904*
X761266*
X759679Y565110*
X758885Y563523*
X759679Y561935*
X761266Y561141*
X762854*
X764441Y561935*
X765235Y563523*
Y565904*
X764441Y568285*
X762854Y569873*
X761266Y570666*
X0Y0D02*
M02*
