%FSLAX34Y34*%
%MOMM*%
G04 EasyPC Gerber Version 18.0.6 Build 3620 *
%ADD10C,0.12700*%
%ADD82C,0.25000*%
%ADD11C,0.25400*%
%ADD76C,0.30000*%
%ADD105C,0.60000*%
%ADD75C,0.63500*%
%ADD72C,1.21920*%
%ADD14C,1.52400*%
%ADD89C,1.60000*%
%ADD22C,1.70000*%
%ADD83C,3.50000*%
%ADD13C,5.00000*%
X0Y0D02*
D02*
D10*
X387858Y20110D02*
X494285D01*
Y307410*
X6985*
Y20110*
X377412*
G75*
G02X377520Y20876I5221J-345*
G01*
G75*
G02X370704Y27519I-1885J4884*
G01*
G75*
G02X362704Y33519I-3069J4241*
G01*
G75*
G02X359635Y32525I-3069J4240*
G01*
G75*
G02Y42995J5235*
G01*
G75*
G02X364566Y36001J-5235*
G01*
G75*
G02X372566Y30001I3069J-4241*
G01*
G75*
G02X380750Y24644I3069J-4241*
G01*
G75*
G02X387858Y20110I1885J-4884*
G01*
X138635Y23325D02*
G75*
G02Y33795J5235D01*
G01*
G75*
G02Y23325J-5235*
G01*
X335635Y23525D02*
G75*
G02Y33995J5235D01*
G01*
G75*
G02Y23525J-5235*
G01*
X192635Y24525D02*
G75*
G02Y34995J5235D01*
G01*
G75*
G02Y24525J-5235*
G01*
X473635Y28525D02*
G75*
G02Y48995J10235D01*
G01*
G75*
G02Y28525J-10235*
G01*
X33635D02*
G75*
G02Y48995J10235D01*
G01*
G75*
G02Y28525J-10235*
G01*
X166635Y36025D02*
G75*
G02Y46495J5235D01*
G01*
G75*
G02Y36025J-5235*
G01*
X138635D02*
G75*
G02Y46495J5235D01*
G01*
G75*
G02Y36025J-5235*
G01*
X191635Y36525D02*
G75*
G02Y46995J5235D01*
G01*
G75*
G02Y36525J-5235*
G01*
X217635Y45383D02*
G75*
G02X213635Y43525I-4000J3377D01*
G01*
G75*
G02Y53995J5235*
G01*
G75*
G02X217635Y52137J-5235*
G01*
G75*
G02X221635Y53995I4000J-3377*
G01*
G75*
G02X222466Y53929I3J-5232*
G01*
G75*
G02X225506Y59542I5168J830*
G01*
G75*
G02X229635Y67995I4129J3218*
G01*
G75*
G02X231764Y57978J-5235*
G01*
G75*
G02X227635Y49525I-4129J-3218*
G01*
G75*
G02X226804Y49591I-3J5232*
G01*
G75*
G02X217635Y45383I-5169J-831*
G01*
X166635Y48725D02*
G75*
G02Y59195J5235D01*
G01*
G75*
G02Y48725J-5235*
G01*
X138635D02*
G75*
G02Y59195J5235D01*
G01*
G75*
G02Y48725J-5235*
G01*
X473635Y53525D02*
G75*
G02Y73995J10235D01*
G01*
G75*
G02Y53525J-10235*
G01*
X33635D02*
G75*
G02Y73995J10235D01*
G01*
G75*
G02Y53525J-10235*
G01*
X138635Y61525D02*
G75*
G02Y71995J5235D01*
G01*
G75*
G02Y61525J-5235*
G01*
X91635D02*
G75*
G02Y71995J5235D01*
G01*
G75*
G02Y61525J-5235*
G01*
X189135Y66085D02*
G75*
G02X179414Y69137I-4500J2675D01*
G01*
G75*
G02X175635Y67525I-3779J3624*
G01*
G75*
G02Y77995J5235*
G01*
G75*
G02X180856Y72383J-5235*
G01*
G75*
G02X189135Y71435I3779J-3623*
G01*
G75*
G02X195478Y73660I4500J-2675*
G01*
G75*
G02X201751Y77875I5157J-899*
G01*
G75*
G02X206635Y84995I4884J1885*
G01*
G75*
G02Y74525J-5235*
G01*
G75*
G02X205519Y74645I-2J5233*
G01*
G75*
G02X198792Y67860I-4884J-1885*
G01*
G75*
G02X189135Y66085I-5157J900*
G01*
X340635Y68525D02*
G75*
G02Y78995J5235D01*
G01*
G75*
G02Y68525J-5235*
G01*
X320635D02*
G75*
G02Y78995J5235D01*
G01*
G75*
G02Y68525J-5235*
G01*
X300635D02*
G75*
G02Y78995J5235D01*
G01*
G75*
G02Y68525J-5235*
G01*
X280635D02*
G75*
G02Y78995J5235D01*
G01*
G75*
G02Y68525J-5235*
G01*
X138635Y74125D02*
G75*
G02Y84595J5235D01*
G01*
G75*
G02Y74125J-5235*
G01*
X54635Y76525D02*
G75*
G02Y86995J5235D01*
G01*
G75*
G02Y76525J-5235*
G01*
X473635Y78525D02*
G75*
G02Y98995J10235D01*
G01*
G75*
G02Y78525J-10235*
G01*
X330635D02*
G75*
G02Y88995J5235D01*
G01*
G75*
G02Y78525J-5235*
G01*
X310635D02*
G75*
G02Y88995J5235D01*
G01*
G75*
G02Y78525J-5235*
G01*
X290635D02*
G75*
G02Y88995J5235D01*
G01*
G75*
G02Y78525J-5235*
G01*
X270635D02*
G75*
G02Y88995J5235D01*
G01*
G75*
G02Y78525J-5235*
G01*
X33635D02*
G75*
G02Y98995J10235D01*
G01*
G75*
G02Y78525J-10235*
G01*
X138635Y86825D02*
G75*
G02Y97295J5235D01*
G01*
G75*
G02Y86825J-5235*
G01*
X340635Y88525D02*
G75*
G02Y98995J5235D01*
G01*
G75*
G02Y88525J-5235*
G01*
X320635D02*
G75*
G02Y98995J5235D01*
G01*
G75*
G02Y88525J-5235*
G01*
X300635D02*
G75*
G02Y98995J5235D01*
G01*
G75*
G02Y88525J-5235*
G01*
X280635D02*
G75*
G02Y98995J5235D01*
G01*
G75*
G02Y88525J-5235*
G01*
X330635Y98525D02*
G75*
G02Y108995J5235D01*
G01*
G75*
G02Y98525J-5235*
G01*
X310635D02*
G75*
G02Y108995J5235D01*
G01*
G75*
G02Y98525J-5235*
G01*
X290635D02*
G75*
G02Y108995J5235D01*
G01*
G75*
G02Y98525J-5235*
G01*
X270635D02*
G75*
G02Y108995J5235D01*
G01*
G75*
G02Y98525J-5235*
G01*
X138635Y99525D02*
G75*
G02Y109995J5235D01*
G01*
G75*
G02Y99525J-5235*
G01*
X211340Y103055D02*
G75*
G02X206635Y95525I-4705J-2295D01*
G01*
G75*
G02Y105995J5235*
G01*
G75*
G02X208930Y105465J-5236*
G01*
G75*
G02X213635Y112995I4705J2295*
G01*
G75*
G02Y102525J-5235*
G01*
G75*
G02X211340Y103055J5236*
G01*
X473635Y103525D02*
G75*
G02Y123995J10235D01*
G01*
G75*
G02Y103525J-10235*
G01*
X33635D02*
G75*
G02Y123995J10235D01*
G01*
G75*
G02Y103525J-10235*
G01*
X340635Y108525D02*
G75*
G02Y118995J5235D01*
G01*
G75*
G02Y108525J-5235*
G01*
X320635D02*
G75*
G02Y118995J5235D01*
G01*
G75*
G02Y108525J-5235*
G01*
X300635D02*
G75*
G02Y118995J5235D01*
G01*
G75*
G02Y108525J-5235*
G01*
X280635D02*
G75*
G02Y118995J5235D01*
G01*
G75*
G02Y108525J-5235*
G01*
X58635Y110525D02*
G75*
G02Y120995J5235D01*
G01*
G75*
G02Y110525J-5235*
G01*
X138635Y112225D02*
G75*
G02Y122695J5235D01*
G01*
G75*
G02Y112225J-5235*
G01*
X330635Y118525D02*
G75*
G02Y128995J5235D01*
G01*
G75*
G02Y118525J-5235*
G01*
X310635D02*
G75*
G02Y128995J5235D01*
G01*
G75*
G02Y118525J-5235*
G01*
X290635D02*
G75*
G02Y128995J5235D01*
G01*
G75*
G02Y118525J-5235*
G01*
X270635D02*
G75*
G02Y128995J5235D01*
G01*
G75*
G02Y118525J-5235*
G01*
X211635Y125525D02*
G75*
G02Y135995J5235D01*
G01*
G75*
G02Y125525J-5235*
G01*
X199635D02*
G75*
G02Y135995J5235D01*
G01*
G75*
G02Y125525J-5235*
G01*
X187635D02*
G75*
G02Y135995J5235D01*
G01*
G75*
G02Y125525J-5235*
G01*
X33635Y127585D02*
G75*
G02Y149935J11175D01*
G01*
G75*
G02Y127585J-11175*
G01*
X473635Y128525D02*
G75*
G02Y148995J10235D01*
G01*
G75*
G02Y128525J-10235*
G01*
X340635D02*
G75*
G02Y138995J5235D01*
G01*
G75*
G02Y128525J-5235*
G01*
X320635D02*
G75*
G02Y138995J5235D01*
G01*
G75*
G02Y128525J-5235*
G01*
X300635D02*
G75*
G02Y138995J5235D01*
G01*
G75*
G02Y128525J-5235*
G01*
X280635D02*
G75*
G02Y138995J5235D01*
G01*
G75*
G02Y128525J-5235*
G01*
X447635Y133525D02*
G75*
G02Y143995J5235D01*
G01*
G75*
G02Y133525J-5235*
G01*
X330635Y138525D02*
G75*
G02Y148995J5235D01*
G01*
G75*
G02Y138525J-5235*
G01*
X310635D02*
G75*
G02Y148995J5235D01*
G01*
G75*
G02Y138525J-5235*
G01*
X290635D02*
G75*
G02Y148995J5235D01*
G01*
G75*
G02Y138525J-5235*
G01*
X270635D02*
G75*
G02Y148995J5235D01*
G01*
G75*
G02Y138525J-5235*
G01*
X116635D02*
G75*
G02Y148995J5235D01*
G01*
G75*
G02Y138525J-5235*
G01*
X104635D02*
G75*
G02Y148995J5235D01*
G01*
G75*
G02Y138525J-5235*
G01*
X92635D02*
G75*
G02Y148995J5235D01*
G01*
G75*
G02Y138525J-5235*
G01*
X116635Y150525D02*
G75*
G02Y160995J5235D01*
G01*
G75*
G02Y150525J-5235*
G01*
X104635D02*
G75*
G02Y160995J5235D01*
G01*
G75*
G02Y150525J-5235*
G01*
X92635D02*
G75*
G02Y160995J5235D01*
G01*
G75*
G02Y150525J-5235*
G01*
X473635Y153525D02*
G75*
G02Y173995J10235D01*
G01*
G75*
G02Y153525J-10235*
G01*
X33635D02*
G75*
G02Y173995J10235D01*
G01*
G75*
G02Y153525J-10235*
G01*
X456635Y158525D02*
G75*
G02Y168995J5235D01*
G01*
G75*
G02Y158525J-5235*
G01*
X116635Y162525D02*
G75*
G02Y172995J5235D01*
G01*
G75*
G02Y162525J-5235*
G01*
X104635D02*
G75*
G02Y172995J5235D01*
G01*
G75*
G02Y162525J-5235*
G01*
X92635D02*
G75*
G02Y172995J5235D01*
G01*
G75*
G02Y162525J-5235*
G01*
X473635Y178525D02*
G75*
G02Y198995J10235D01*
G01*
G75*
G02Y178525J-10235*
G01*
X33635D02*
G75*
G02Y198995J10235D01*
G01*
G75*
G02Y178525J-10235*
G01*
X245069Y184543D02*
G75*
G02X240635Y176525I-4434J-2783D01*
G01*
G75*
G02X240201Y186977J5235*
G01*
G75*
G02X244635Y194995I4434J2783*
G01*
G75*
G02X245069Y184543J-5235*
G01*
X447635Y187175D02*
G75*
G02Y197645J5235D01*
G01*
G75*
G02Y187175J-5235*
G01*
X456635Y199875D02*
G75*
G02Y210345J5235D01*
G01*
G75*
G02Y199875J-5235*
G01*
X473635Y203525D02*
G75*
G02Y223995J10235D01*
G01*
G75*
G02Y203525J-10235*
G01*
X33635D02*
G75*
G02Y223995J10235D01*
G01*
G75*
G02Y203525J-10235*
G01*
X245635Y204525D02*
G75*
G02Y214995J5235D01*
G01*
G75*
G02Y204525J-5235*
G01*
X230635Y206525D02*
G75*
G02Y216995J5235D01*
G01*
G75*
G02Y206525J-5235*
G01*
X184635Y221383D02*
G75*
G02X180635Y219525I-4000J3377D01*
G01*
G75*
G02Y229995J5235*
G01*
G75*
G02X184635Y228137J-5235*
G01*
G75*
G02X188635Y229995I4000J-3377*
G01*
G75*
G02Y219525J-5235*
G01*
G75*
G02X184635Y221383J5235*
G01*
X368135Y224085D02*
G75*
G02X358635Y225209I-4500J2675D01*
G01*
G75*
G02X349135Y224085I-5000J1551*
G01*
G75*
G02X344635Y221525I-4500J2675*
G01*
G75*
G02Y231995J5235*
G01*
G75*
G02X349135Y229435J-5235*
G01*
G75*
G02X358635Y228311I4500J-2675*
G01*
G75*
G02X368135Y229435I5000J-1551*
G01*
G75*
G02X372635Y231995I4500J-2675*
G01*
G75*
G02Y221525J-5235*
G01*
G75*
G02X368135Y224085J5235*
G01*
X205635Y225525D02*
G75*
G02Y235995J5235D01*
G01*
G75*
G02Y225525J-5235*
G01*
X420635Y227525D02*
G75*
G02Y237995J5235D01*
G01*
G75*
G02Y227525J-5235*
G01*
X473635Y228525D02*
G75*
G02Y248995J10235D01*
G01*
G75*
G02Y228525J-10235*
G01*
X33635D02*
G75*
G02Y248995J10235D01*
G01*
G75*
G02Y228525J-10235*
G01*
X291635Y229525D02*
G75*
G02Y239995J5235D01*
G01*
G75*
G02Y229525J-5235*
G01*
X120745Y232525D02*
G75*
G02Y242995J5235D01*
G01*
G75*
G02Y232525J-5235*
G01*
X258520Y236876D02*
G75*
G02X256635Y236525I-1884J4883D01*
G01*
G75*
G02Y246995J5235*
G01*
G75*
G02X261750Y240644J-5235*
G01*
G75*
G02X263635Y240995I1884J-4883*
G01*
G75*
G02Y230525J-5235*
G01*
G75*
G02X258520Y236876J5235*
G01*
X71635Y237525D02*
G75*
G02Y247995J5235D01*
G01*
G75*
G02Y237525J-5235*
G01*
X326635Y242209D02*
G75*
G02X321635Y238525I-5000J1551D01*
G01*
G75*
G02Y248995J5235*
G01*
G75*
G02X326635Y245311J-5235*
G01*
G75*
G02X331635Y248995I5000J-1551*
G01*
G75*
G02Y238525J-5235*
G01*
G75*
G02X326635Y242209J5235*
G01*
X152635Y243525D02*
G75*
G02Y253995J5235D01*
G01*
G75*
G02Y243525J-5235*
G01*
X211635Y251275D02*
G75*
G02Y261745J5235D01*
G01*
G75*
G02Y251275J-5235*
G01*
X473635Y253525D02*
G75*
G02Y273995J10235D01*
G01*
G75*
G02Y253525J-10235*
G01*
X33635D02*
G75*
G02Y273995J10235D01*
G01*
G75*
G02Y253525J-10235*
G01*
X158635Y262525D02*
G75*
G02Y272995J5235D01*
G01*
G75*
G02Y262525J-5235*
G01*
X400570Y263060D02*
G75*
G02X379100I-10735D01*
G01*
G75*
G02X400570I10735*
G01*
X375170D02*
G75*
G02X353700I-10735D01*
G01*
G75*
G02X375170I10735*
G01*
X349770D02*
G75*
G02X328300I-10735D01*
G01*
G75*
G02X349770I10735*
G01*
X324370D02*
G75*
G02X302900I-10735D01*
G01*
G75*
G02X324370I10735*
G01*
X298970D02*
G75*
G02X277500I-10735D01*
G01*
G75*
G02X298970I10735*
G01*
X273570D02*
G75*
G02X252100I-10735D01*
G01*
G75*
G02X273570I10735*
G01*
X248170D02*
G75*
G02X226700I-10735D01*
G01*
G75*
G02X248170I10735*
G01*
X214635Y263525D02*
G75*
G02Y273995J5235D01*
G01*
G75*
G02Y263525J-5235*
G01*
X103635Y270525D02*
G75*
G02Y280995J5235D01*
G01*
G75*
G02Y270525J-5235*
G01*
X124635Y283525D02*
G75*
G02Y293995J5235D01*
G01*
G75*
G02Y283525J-5235*
G01*
X212635Y288275D02*
G75*
G02Y298745J5235D01*
G01*
G75*
G02Y288275J-5235*
G01*
X400570Y288460D02*
G75*
G02X379100I-10735D01*
G01*
G75*
G02X400570I10735*
G01*
X375170D02*
G75*
G02X353700I-10735D01*
G01*
G75*
G02X375170I10735*
G01*
X349770D02*
G75*
G02X328300I-10735D01*
G01*
G75*
G02X349770I10735*
G01*
X325310D02*
G75*
G02X301960I-11675D01*
G01*
G75*
G02X325310I11675*
G01*
X298970D02*
G75*
G02X277500I-10735D01*
G01*
G75*
G02X298970I10735*
G01*
X273570D02*
G75*
G02X252100I-10735D01*
G01*
G75*
G02X273570I10735*
G01*
X248170D02*
G75*
G02X226700I-10735D01*
G01*
G75*
G02X248170I10735*
G01*
X429135Y288525D02*
G75*
G02Y298995J5235D01*
G01*
G75*
G02Y288525J-5235*
G01*
X413635Y290525D02*
G75*
G02Y300995J5235D01*
G01*
G75*
G02Y290525J-5235*
G01*
X6985Y28560D02*
G36*
Y20110D01*
X377412*
G75*
G02X377520Y20876I5221J-345*
G01*
G75*
G02X370704Y27519I-1885J4884*
G01*
G75*
G02X363492Y28560I-3069J4241*
G01*
X340866*
G75*
G02X335635Y23525I-5231J200*
G01*
G75*
G02X330404Y28560J5235*
G01*
X197731*
G75*
G02X192635Y24525I-5096J1200*
G01*
G75*
G02X187539Y28560J5235*
G01*
X143870*
G75*
G02X138635Y23325I-5235*
G01*
G75*
G02X133400Y28560J5235*
G01*
X34481*
G75*
G02X33635Y28525I-846J10199*
G01*
G75*
G02X32789Y28560J10236*
G01*
X6985*
G37*
X32789D02*
G36*
G75*
G02X23710Y41260I846J10200D01*
G01*
X6985*
Y28560*
X32789*
G37*
X133400D02*
G36*
G75*
G02X138635Y33795I5235D01*
G01*
G75*
G02X143870Y28560J-5235*
G01*
X187539*
G75*
G02X192635Y34995I5096J1200*
G01*
G75*
G02X197731Y28560J-5235*
G01*
X330404*
G75*
G02X335635Y33995I5231J200*
G01*
G75*
G02X340866Y28560J-5235*
G01*
X363492*
G75*
G02X362704Y33519I4143J3200*
G01*
G75*
G02X359635Y32525I-3069J4240*
G01*
G75*
G02X355742Y41260J5235*
G01*
X196846*
G75*
G02X191635Y36525I-5211J500*
G01*
G75*
G02X186424Y41260J5235*
G01*
X171870*
G75*
G02X166635Y36025I-5235*
G01*
G75*
G02X161400Y41260J5235*
G01*
X143870*
G75*
G02X138635Y36025I-5235*
G01*
G75*
G02X133400Y41260J5235*
G01*
X43560*
G75*
G02X34481Y28560I-9925J-2500*
G01*
X133400*
G37*
X380058D02*
G36*
G75*
G02X380750Y24644I-4423J-2801D01*
G01*
G75*
G02X387858Y20110I1885J-4884*
G01*
X494285*
Y28560*
X474481*
G75*
G02X473635Y28525I-846J10199*
G01*
G75*
G02X472789Y28560J10236*
G01*
X380058*
G37*
X472789D02*
G36*
G75*
G02X463710Y41260I846J10200D01*
G01*
X363528*
G75*
G02X364566Y36001I-3893J-3500*
G01*
G75*
G02X372566Y30001I3069J-4241*
G01*
G75*
G02X380058Y28560I3069J-4241*
G01*
X472789*
G37*
X494285D02*
G36*
Y41260D01*
X483560*
G75*
G02X474481Y28560I-9925J-2500*
G01*
X494285*
G37*
X23710Y41260D02*
G36*
G75*
G02X33635Y48995I9925J-2500D01*
G01*
G75*
G02X43560Y41260J-10235*
G01*
X133400*
G75*
G02X138635Y46495I5235*
G01*
G75*
G02X143870Y41260J-5235*
G01*
X161400*
G75*
G02X166635Y46495I5235*
G01*
G75*
G02X171870Y41260J-5235*
G01*
X186424*
G75*
G02X191635Y46995I5211J500*
G01*
G75*
G02X196846Y41260J-5235*
G01*
X355742*
G75*
G02X359635Y42995I3893J-3500*
G01*
G75*
G02X363528Y41260J-5235*
G01*
X463710*
G75*
G02X473635Y48995I9925J-2500*
G01*
G75*
G02X483560Y41260J-10235*
G01*
X494285*
Y55760*
X480019*
G75*
G02X473635Y53525I-6384J8000*
G01*
G75*
G02X467251Y55760J10235*
G01*
X232774*
G75*
G02X227635Y49525I-5139J-1000*
G01*
G75*
G02X226804Y49591I-3J5232*
G01*
G75*
G02X217635Y45383I-5169J-831*
G01*
G75*
G02X213635Y43525I-4000J3377*
G01*
G75*
G02Y53995J5235*
G01*
G75*
G02X217635Y52137J-5235*
G01*
G75*
G02X221635Y53995I4000J-3377*
G01*
G75*
G02X222466Y53929I3J-5232*
G01*
G75*
G02X222496Y55760I5168J831*
G01*
X171551*
G75*
G02X166635Y48725I-4916J-1800*
G01*
G75*
G02X161719Y55760J5235*
G01*
X143551*
G75*
G02X138635Y48725I-4916J-1800*
G01*
G75*
G02X133719Y55760J5235*
G01*
X40019*
G75*
G02X33635Y53525I-6384J8000*
G01*
G75*
G02X27251Y55760J10235*
G01*
X6985*
Y41260*
X23710*
G37*
X27251Y55760D02*
G36*
G75*
G02X23850Y66760I6384J8000D01*
G01*
X6985*
Y55760*
X27251*
G37*
X133719D02*
G36*
G75*
G02X138635Y59195I4916J-1800D01*
G01*
G75*
G02X143551Y55760J-5235*
G01*
X161719*
G75*
G02X166635Y59195I4916J-1800*
G01*
G75*
G02X171551Y55760J-5235*
G01*
X222496*
G75*
G02X225506Y59542I5138J-1001*
G01*
G75*
G02X226258Y66760I4129J3218*
G01*
X198473*
G75*
G02X189135Y66085I-4838J2000*
G01*
G75*
G02X179797Y66760I-4500J2675*
G01*
X143870*
G75*
G02X138635Y61525I-5235*
G01*
G75*
G02X133400Y66760J5235*
G01*
X96870*
G75*
G02X91635Y61525I-5235*
G01*
G75*
G02X86400Y66760J5235*
G01*
X43420*
G75*
G02X40019Y55760I-9785J-3000*
G01*
X133719*
G37*
X467251D02*
G36*
G75*
G02X463850Y66760I6384J8000D01*
G01*
X233012*
G75*
G02X231764Y57978I-3377J-4000*
G01*
G75*
G02X232774Y55760I-4129J-3219*
G01*
X467251*
G37*
X494285D02*
G36*
Y66760D01*
X483420*
G75*
G02X480019Y55760I-9785J-3000*
G01*
X494285*
G37*
X23850Y66760D02*
G36*
G75*
G02X31454Y73760I9785J-3000D01*
G01*
X6985*
Y66760*
X23850*
G37*
X86400D02*
G36*
G75*
G02X91635Y71995I5235D01*
G01*
G75*
G02X96870Y66760J-5235*
G01*
X133400*
G75*
G02X138635Y71995I5235*
G01*
G75*
G02X143870Y66760J-5235*
G01*
X179797*
G75*
G02X179414Y69137I4838J1999*
G01*
G75*
G02X175635Y67525I-3779J3624*
G01*
G75*
G02X170496Y73760J5235*
G01*
X35816*
G75*
G02X43420Y66760I-2181J-10000*
G01*
X86400*
G37*
X226258D02*
G36*
G75*
G02X229635Y67995I3377J-4000D01*
G01*
G75*
G02X233012Y66760J-5235*
G01*
X463850*
G75*
G02X471454Y73760I9785J-3000*
G01*
X345870*
G75*
G02X340635Y68525I-5235*
G01*
G75*
G02X335400Y73760J5235*
G01*
X325870*
G75*
G02X320635Y68525I-5235*
G01*
G75*
G02X315400Y73760J5235*
G01*
X305870*
G75*
G02X300635Y68525I-5235*
G01*
G75*
G02X295400Y73760J5235*
G01*
X285870*
G75*
G02X280635Y68525I-5235*
G01*
G75*
G02X275400Y73760J5235*
G01*
X205774*
G75*
G02X198792Y67860I-5139J-1000*
G01*
G75*
G02X198473Y66760I-5157J899*
G01*
X226258*
G37*
X494285D02*
G36*
Y73760D01*
X475816*
G75*
G02X483420Y66760I-2181J-10000*
G01*
X494285*
G37*
X31454Y73760D02*
G36*
G75*
G02X33635Y73995I2181J-10000D01*
G01*
G75*
G02X35816Y73760J-10235*
G01*
X170496*
G75*
G02X175635Y77995I5139J-1000*
G01*
G75*
G02X180856Y72383J-5235*
G01*
G75*
G02X189135Y71435I3779J-3623*
G01*
G75*
G02X195478Y73660I4500J-2675*
G01*
G75*
G02X201751Y77875I5157J-899*
G01*
G75*
G02X201415Y79360I4884J1886*
G01*
X143870*
G75*
G02X138635Y74125I-5235*
G01*
G75*
G02X133400Y79360J5235*
G01*
X59287*
G75*
G02X54635Y76525I-4652J2400*
G01*
G75*
G02X49983Y79360J5235*
G01*
X37684*
G75*
G02X33635Y78525I-4049J9400*
G01*
G75*
G02X29586Y79360J10235*
G01*
X6985*
Y73760*
X31454*
G37*
X275400D02*
G36*
G75*
G02X280635Y78995I5235D01*
G01*
G75*
G02X285870Y73760J-5235*
G01*
X295400*
G75*
G02X300635Y78995I5235*
G01*
G75*
G02X305870Y73760J-5235*
G01*
X315400*
G75*
G02X320635Y78995I5235*
G01*
G75*
G02X325870Y73760J-5235*
G01*
X335400*
G75*
G02X340635Y78995I5235*
G01*
G75*
G02X345870Y73760J-5235*
G01*
X471454*
G75*
G02X473635Y73995I2181J-10000*
G01*
G75*
G02X475816Y73760J-10235*
G01*
X494285*
Y79360*
X477684*
G75*
G02X473635Y78525I-4049J9400*
G01*
G75*
G02X469586Y79360J10235*
G01*
X333471*
G75*
G02X330635Y78525I-2836J4400*
G01*
G75*
G02X327799Y79360J5235*
G01*
X313471*
G75*
G02X310635Y78525I-2836J4400*
G01*
G75*
G02X307799Y79360J5235*
G01*
X293471*
G75*
G02X290635Y78525I-2836J4400*
G01*
G75*
G02X287799Y79360J5235*
G01*
X273471*
G75*
G02X270635Y78525I-2836J4400*
G01*
G75*
G02X267799Y79360J5235*
G01*
X211855*
G75*
G02X206635Y74525I-5220J400*
G01*
G75*
G02X205519Y74645I-2J5233*
G01*
G75*
G02X205774Y73760I-4883J-1886*
G01*
X275400*
G37*
X29586Y79360D02*
G36*
G75*
G02X23947Y92060I4049J9400D01*
G01*
X6985*
Y79360*
X29586*
G37*
X49983D02*
G36*
G75*
G02X54635Y86995I4652J2400D01*
G01*
G75*
G02X59287Y79360J-5235*
G01*
X133400*
G75*
G02X138635Y84595I5235*
G01*
G75*
G02X143870Y79360J-5235*
G01*
X201415*
G75*
G02X206635Y84995I5220J400*
G01*
G75*
G02X211855Y79360J-5235*
G01*
X267799*
G75*
G02X270635Y88995I2836J4400*
G01*
G75*
G02X273471Y79360J-5235*
G01*
X287799*
G75*
G02X290635Y88995I2836J4400*
G01*
G75*
G02X293471Y79360J-5235*
G01*
X307799*
G75*
G02X310635Y88995I2836J4400*
G01*
G75*
G02X313471Y79360J-5235*
G01*
X327799*
G75*
G02X330635Y88995I2836J4400*
G01*
G75*
G02X333471Y79360J-5235*
G01*
X469586*
G75*
G02X463947Y92060I4049J9400*
G01*
X345586*
G75*
G02X340635Y88525I-4951J1700*
G01*
G75*
G02X335684Y92060J5235*
G01*
X325586*
G75*
G02X320635Y88525I-4951J1700*
G01*
G75*
G02X315684Y92060J5235*
G01*
X305586*
G75*
G02X300635Y88525I-4951J1700*
G01*
G75*
G02X295684Y92060J5235*
G01*
X285586*
G75*
G02X280635Y88525I-4951J1700*
G01*
G75*
G02X275684Y92060J5235*
G01*
X143870*
G75*
G02X138635Y86825I-5235*
G01*
G75*
G02X133400Y92060J5235*
G01*
X43323*
G75*
G02X37684Y79360I-9688J-3300*
G01*
X49983*
G37*
X494285D02*
G36*
Y92060D01*
X483323*
G75*
G02X477684Y79360I-9688J-3300*
G01*
X494285*
G37*
X23947Y92060D02*
G36*
G75*
G02X33635Y98995I9688J-3300D01*
G01*
G75*
G02X43323Y92060J-10235*
G01*
X133400*
G75*
G02X138635Y97295I5235*
G01*
G75*
G02X143870Y92060J-5235*
G01*
X275684*
G75*
G02X280635Y98995I4951J1700*
G01*
G75*
G02X285586Y92060J-5235*
G01*
X295684*
G75*
G02X300635Y98995I4951J1700*
G01*
G75*
G02X305586Y92060J-5235*
G01*
X315684*
G75*
G02X320635Y98995I4951J1700*
G01*
G75*
G02X325586Y92060J-5235*
G01*
X335684*
G75*
G02X340635Y98995I4951J1700*
G01*
G75*
G02X345586Y92060J-5235*
G01*
X463947*
G75*
G02X473635Y98995I9688J-3300*
G01*
G75*
G02X483323Y92060J-10235*
G01*
X494285*
Y103760*
X475816*
G75*
G02X473635Y103525I-2181J10000*
G01*
G75*
G02X471454Y103760J10235*
G01*
X335870*
G75*
G02X330635Y98525I-5235*
G01*
G75*
G02X325400Y103760J5235*
G01*
X315870*
G75*
G02X310635Y98525I-5235*
G01*
G75*
G02X305400Y103760J5235*
G01*
X295870*
G75*
G02X290635Y98525I-5235*
G01*
G75*
G02X285400Y103760J5235*
G01*
X275870*
G75*
G02X270635Y98525I-5235*
G01*
G75*
G02X265400Y103760J5235*
G01*
X217012*
G75*
G02X213635Y102525I-3377J4000*
G01*
G75*
G02X211340Y103055J5236*
G01*
G75*
G02X206635Y95525I-4705J-2295*
G01*
G75*
G02X202345Y103760J5235*
G01*
X143774*
G75*
G02X138635Y99525I-5139J1000*
G01*
G75*
G02X133496Y103760J5235*
G01*
X35816*
G75*
G02X33635Y103525I-2181J10000*
G01*
G75*
G02X31454Y103760J10235*
G01*
X6985*
Y92060*
X23947*
G37*
X31454Y103760D02*
G36*
G75*
G02X23400Y113760I2181J10000D01*
G01*
X6985*
Y103760*
X31454*
G37*
X133496D02*
G36*
G75*
G02X138635Y109995I5139J1000D01*
G01*
G75*
G02X143774Y103760J-5235*
G01*
X202345*
G75*
G02X206635Y105995I4290J-3000*
G01*
G75*
G02X208930Y105465J-5236*
G01*
G75*
G02X213635Y112995I4705J2295*
G01*
G75*
G02X217012Y103760J-5235*
G01*
X265400*
G75*
G02X270635Y108995I5235*
G01*
G75*
G02X275870Y103760J-5235*
G01*
X285400*
G75*
G02X290635Y108995I5235*
G01*
G75*
G02X295870Y103760J-5235*
G01*
X305400*
G75*
G02X310635Y108995I5235*
G01*
G75*
G02X315870Y103760J-5235*
G01*
X325400*
G75*
G02X330635Y108995I5235*
G01*
G75*
G02X335870Y103760J-5235*
G01*
X471454*
G75*
G02X463400Y113760I2181J10000*
G01*
X345870*
G75*
G02X340635Y108525I-5235*
G01*
G75*
G02X335400Y113760J5235*
G01*
X325870*
G75*
G02X320635Y108525I-5235*
G01*
G75*
G02X315400Y113760J5235*
G01*
X305870*
G75*
G02X300635Y108525I-5235*
G01*
G75*
G02X295400Y113760J5235*
G01*
X285870*
G75*
G02X280635Y108525I-5235*
G01*
G75*
G02X275400Y113760J5235*
G01*
X142338*
G75*
G02X138635Y112225I-3703J3700*
G01*
G75*
G02X134932Y113760J5235*
G01*
X63473*
G75*
G02X58635Y110525I-4838J2000*
G01*
G75*
G02X53797Y113760J5235*
G01*
X43870*
G75*
G02X35816Y103760I-10235*
G01*
X133496*
G37*
X494285D02*
G36*
Y113760D01*
X483870*
G75*
G02X475816Y103760I-10235*
G01*
X494285*
G37*
X23400Y113760D02*
G36*
G75*
G02X31454Y123760I10235D01*
G01*
X6985*
Y113760*
X23400*
G37*
X53797D02*
G36*
G75*
G02X58635Y120995I4838J2000D01*
G01*
G75*
G02X63473Y113760J-5235*
G01*
X134932*
G75*
G02X138635Y122695I3703J3700*
G01*
G75*
G02X142338Y113760J-5235*
G01*
X275400*
G75*
G02X280635Y118995I5235*
G01*
G75*
G02X285870Y113760J-5235*
G01*
X295400*
G75*
G02X300635Y118995I5235*
G01*
G75*
G02X305870Y113760J-5235*
G01*
X315400*
G75*
G02X320635Y118995I5235*
G01*
G75*
G02X325870Y113760J-5235*
G01*
X335400*
G75*
G02X340635Y118995I5235*
G01*
G75*
G02X345870Y113760J-5235*
G01*
X463400*
G75*
G02X471454Y123760I10235*
G01*
X335870*
G75*
G02X330635Y118525I-5235*
G01*
G75*
G02X325400Y123760J5235*
G01*
X315870*
G75*
G02X310635Y118525I-5235*
G01*
G75*
G02X305400Y123760J5235*
G01*
X295870*
G75*
G02X290635Y118525I-5235*
G01*
G75*
G02X285400Y123760J5235*
G01*
X275870*
G75*
G02X270635Y118525I-5235*
G01*
G75*
G02X265400Y123760J5235*
G01*
X35816*
G75*
G02X43870Y113760I-2181J-10000*
G01*
X53797*
G37*
X494285D02*
G36*
Y123760D01*
X475816*
G75*
G02X483870Y113760I-2181J-10000*
G01*
X494285*
G37*
X31454Y123760D02*
G36*
G75*
G02X33635Y123995I2181J-10000D01*
G01*
G75*
G02X35816Y123760J-10235*
G01*
X265400*
G75*
G02X270635Y128995I5235*
G01*
G75*
G02X275870Y123760J-5235*
G01*
X285400*
G75*
G02X290635Y128995I5235*
G01*
G75*
G02X295870Y123760J-5235*
G01*
X305400*
G75*
G02X310635Y128995I5235*
G01*
G75*
G02X315870Y123760J-5235*
G01*
X325400*
G75*
G02X330635Y128995I5235*
G01*
G75*
G02X335870Y123760J-5235*
G01*
X471454*
G75*
G02X473635Y123995I2181J-10000*
G01*
G75*
G02X475816Y123760J-10235*
G01*
X494285*
Y130760*
X480019*
G75*
G02X473635Y128525I-6384J8000*
G01*
G75*
G02X467251Y130760J10235*
G01*
X344925*
G75*
G02X340635Y128525I-4290J3000*
G01*
G75*
G02X336345Y130760J5235*
G01*
X324925*
G75*
G02X320635Y128525I-4290J3000*
G01*
G75*
G02X316345Y130760J5235*
G01*
X304925*
G75*
G02X300635Y128525I-4290J3000*
G01*
G75*
G02X296345Y130760J5235*
G01*
X284925*
G75*
G02X280635Y128525I-4290J3000*
G01*
G75*
G02X276345Y130760J5235*
G01*
X216870*
G75*
G02X211635Y125525I-5235*
G01*
G75*
G02X206400Y130760J5235*
G01*
X204870*
G75*
G02X199635Y125525I-5235*
G01*
G75*
G02X194400Y130760J5235*
G01*
X192870*
G75*
G02X187635Y125525I-5235*
G01*
G75*
G02X182400Y130760J5235*
G01*
X41438*
G75*
G02X33635Y127585I-7803J8000*
G01*
G75*
G02X25832Y130760J11175*
G01*
X6985*
Y123760*
X31454*
G37*
X25832Y130760D02*
G36*
G75*
G02X22460Y138760I7803J8000D01*
G01*
X6985*
Y130760*
X25832*
G37*
X182400D02*
G36*
G75*
G02X187635Y135995I5235D01*
G01*
G75*
G02X192870Y130760J-5235*
G01*
X194400*
G75*
G02X199635Y135995I5235*
G01*
G75*
G02X204870Y130760J-5235*
G01*
X206400*
G75*
G02X211635Y135995I5235*
G01*
G75*
G02X216870Y130760J-5235*
G01*
X276345*
G75*
G02X279084Y138760I4290J3000*
G01*
X272186*
G75*
G02X270635Y138525I-1551J5000*
G01*
G75*
G02X269084Y138760J5235*
G01*
X118186*
G75*
G02X116635Y138525I-1551J5000*
G01*
G75*
G02X115084Y138760J5235*
G01*
X106186*
G75*
G02X104635Y138525I-1551J5000*
G01*
G75*
G02X103084Y138760J5235*
G01*
X94186*
G75*
G02X92635Y138525I-1551J5000*
G01*
G75*
G02X91084Y138760J5235*
G01*
X44810*
G75*
G02X41438Y130760I-11175*
G01*
X182400*
G37*
X296345D02*
G36*
G75*
G02X299084Y138760I4290J3000D01*
G01*
X292186*
G75*
G02X290635Y138525I-1551J5000*
G01*
G75*
G02X289084Y138760J5235*
G01*
X282186*
G75*
G02X284925Y130760I-1551J-5000*
G01*
X296345*
G37*
X316345D02*
G36*
G75*
G02X319084Y138760I4290J3000D01*
G01*
X312186*
G75*
G02X310635Y138525I-1551J5000*
G01*
G75*
G02X309084Y138760J5235*
G01*
X302186*
G75*
G02X304925Y130760I-1551J-5000*
G01*
X316345*
G37*
X336345D02*
G36*
G75*
G02X339084Y138760I4290J3000D01*
G01*
X332186*
G75*
G02X330635Y138525I-1551J5000*
G01*
G75*
G02X329084Y138760J5235*
G01*
X322186*
G75*
G02X324925Y130760I-1551J-5000*
G01*
X336345*
G37*
X467251D02*
G36*
G75*
G02X463400Y138760I6384J8000D01*
G01*
X452870*
G75*
G02X447635Y133525I-5235*
G01*
G75*
G02X442400Y138760J5235*
G01*
X342186*
G75*
G02X344925Y130760I-1551J-5000*
G01*
X467251*
G37*
X494285D02*
G36*
Y138760D01*
X483870*
G75*
G02X480019Y130760I-10235*
G01*
X494285*
G37*
X22460Y138760D02*
G36*
G75*
G02X33635Y149935I11175D01*
G01*
G75*
G02X44810Y138760J-11175*
G01*
X91084*
G75*
G02X92635Y148995I1551J5000*
G01*
G75*
G02X94186Y138760J-5235*
G01*
X103084*
G75*
G02X104635Y148995I1551J5000*
G01*
G75*
G02X106186Y138760J-5235*
G01*
X115084*
G75*
G02X116635Y148995I1551J5000*
G01*
G75*
G02X118186Y138760J-5235*
G01*
X269084*
G75*
G02X270635Y148995I1551J5000*
G01*
G75*
G02X272186Y138760J-5235*
G01*
X279084*
G75*
G02X280635Y138995I1551J-5000*
G01*
G75*
G02X282186Y138760J-5235*
G01*
X289084*
G75*
G02X290635Y148995I1551J5000*
G01*
G75*
G02X292186Y138760J-5235*
G01*
X299084*
G75*
G02X300635Y138995I1551J-5000*
G01*
G75*
G02X302186Y138760J-5235*
G01*
X309084*
G75*
G02X310635Y148995I1551J5000*
G01*
G75*
G02X312186Y138760J-5235*
G01*
X319084*
G75*
G02X320635Y138995I1551J-5000*
G01*
G75*
G02X322186Y138760J-5235*
G01*
X329084*
G75*
G02X330635Y148995I1551J5000*
G01*
G75*
G02X332186Y138760J-5235*
G01*
X339084*
G75*
G02X340635Y138995I1551J-5000*
G01*
G75*
G02X342186Y138760J-5235*
G01*
X442400*
G75*
G02X447635Y143995I5235*
G01*
G75*
G02X452870Y138760J-5235*
G01*
X463400*
G75*
G02X473635Y148995I10235*
G01*
G75*
G02X483870Y138760J-10235*
G01*
X494285*
Y155760*
X480019*
G75*
G02X473635Y153525I-6384J8000*
G01*
G75*
G02X467251Y155760J10235*
G01*
X121870*
G75*
G02X116635Y150525I-5235*
G01*
G75*
G02X111400Y155760J5235*
G01*
X109870*
G75*
G02X104635Y150525I-5235*
G01*
G75*
G02X99400Y155760J5235*
G01*
X97870*
G75*
G02X92635Y150525I-5235*
G01*
G75*
G02X87400Y155760J5235*
G01*
X40019*
G75*
G02X33635Y153525I-6384J8000*
G01*
G75*
G02X27251Y155760J10235*
G01*
X6985*
Y138760*
X22460*
G37*
X27251Y155760D02*
G36*
G75*
G02X23400Y163760I6384J8000D01*
G01*
X6985*
Y155760*
X27251*
G37*
X87400D02*
G36*
G75*
G02X92635Y160995I5235D01*
G01*
G75*
G02X97870Y155760J-5235*
G01*
X99400*
G75*
G02X104635Y160995I5235*
G01*
G75*
G02X109870Y155760J-5235*
G01*
X111400*
G75*
G02X116635Y160995I5235*
G01*
G75*
G02X121870Y155760J-5235*
G01*
X467251*
G75*
G02X463400Y163760I6384J8000*
G01*
X461870*
G75*
G02X456635Y158525I-5235*
G01*
G75*
G02X451400Y163760J5235*
G01*
X120012*
G75*
G02X116635Y162525I-3377J4000*
G01*
G75*
G02X113258Y163760J5235*
G01*
X108012*
G75*
G02X104635Y162525I-3377J4000*
G01*
G75*
G02X101258Y163760J5235*
G01*
X96012*
G75*
G02X92635Y162525I-3377J4000*
G01*
G75*
G02X89258Y163760J5235*
G01*
X43870*
G75*
G02X40019Y155760I-10235*
G01*
X87400*
G37*
X494285D02*
G36*
Y163760D01*
X483870*
G75*
G02X480019Y155760I-10235*
G01*
X494285*
G37*
X23400Y163760D02*
G36*
G75*
G02X33635Y173995I10235D01*
G01*
G75*
G02X43870Y163760J-10235*
G01*
X89258*
G75*
G02X92635Y172995I3377J4000*
G01*
G75*
G02X96012Y163760J-5235*
G01*
X101258*
G75*
G02X104635Y172995I3377J4000*
G01*
G75*
G02X108012Y163760J-5235*
G01*
X113258*
G75*
G02X116635Y172995I3377J4000*
G01*
G75*
G02X120012Y163760J-5235*
G01*
X451400*
G75*
G02X456635Y168995I5235*
G01*
G75*
G02X461870Y163760J-5235*
G01*
X463400*
G75*
G02X473635Y173995I10235*
G01*
G75*
G02X483870Y163760J-10235*
G01*
X494285*
Y188760*
X483870*
G75*
G02X473635Y178525I-10235*
G01*
G75*
G02X463400Y188760J10235*
G01*
X451388*
G75*
G02X447635Y187175I-3753J3650*
G01*
G75*
G02X443882Y188760J5235*
G01*
X249774*
G75*
G02X245069Y184543I-5139J1000*
G01*
G75*
G02X240635Y176525I-4434J-2783*
G01*
G75*
G02X240201Y186977J5235*
G01*
G75*
G02X239496Y188760I4434J2784*
G01*
X43870*
G75*
G02X33635Y178525I-10235*
G01*
G75*
G02X23400Y188760J10235*
G01*
X6985*
Y163760*
X23400*
G37*
Y188760D02*
G36*
G75*
G02X33635Y198995I10235D01*
G01*
G75*
G02X43870Y188760J-10235*
G01*
X239496*
G75*
G02X244635Y194995I5139J1000*
G01*
G75*
G02X249774Y188760J-5235*
G01*
X443882*
G75*
G02X447635Y197645I3753J3650*
G01*
G75*
G02X451388Y188760J-5235*
G01*
X463400*
G75*
G02X473635Y198995I10235*
G01*
G75*
G02X483870Y188760J-10235*
G01*
X494285*
Y205110*
X479106*
G75*
G02X473635Y203525I-5471J8650*
G01*
G75*
G02X468164Y205110J10235*
G01*
X461870*
G75*
G02X456635Y199875I-5235*
G01*
G75*
G02X451400Y205110J5235*
G01*
X248040*
G75*
G02X245635Y204525I-2405J4650*
G01*
G75*
G02X243230Y205110J5235*
G01*
X39106*
G75*
G02X33635Y203525I-5471J8650*
G01*
G75*
G02X28164Y205110J10235*
G01*
X6985*
Y188760*
X23400*
G37*
X28164Y205110D02*
G36*
G75*
G02X23597Y211760I5471J8650D01*
G01*
X6985*
Y205110*
X28164*
G37*
X243230D02*
G36*
G75*
G02X240797Y211760I2405J4650D01*
G01*
X235870*
G75*
G02X230635Y206525I-5235*
G01*
G75*
G02X225400Y211760J5235*
G01*
X43673*
G75*
G02X39106Y205110I-10038J2000*
G01*
X243230*
G37*
X451400D02*
G36*
G75*
G02X456635Y210345I5235D01*
G01*
G75*
G02X461870Y205110J-5235*
G01*
X468164*
G75*
G02X463597Y211760I5471J8650*
G01*
X250473*
G75*
G02X248040Y205110I-4838J-2000*
G01*
X451400*
G37*
X494285D02*
G36*
Y211760D01*
X483673*
G75*
G02X479106Y205110I-10038J2000*
G01*
X494285*
G37*
X23597Y211760D02*
G36*
G75*
G02X33635Y223995I10038J2000D01*
G01*
G75*
G02X43673Y211760J-10235*
G01*
X225400*
G75*
G02X230635Y216995I5235*
G01*
G75*
G02X235870Y211760J-5235*
G01*
X240797*
G75*
G02X245635Y214995I4838J-2000*
G01*
G75*
G02X250473Y211760J-5235*
G01*
X463597*
G75*
G02X473635Y223995I10038J2000*
G01*
G75*
G02X483673Y211760J-10235*
G01*
X494285*
Y224760*
X377473*
G75*
G02X372635Y221525I-4838J2000*
G01*
G75*
G02X368135Y224085J5235*
G01*
G75*
G02X358635Y225209I-4500J2675*
G01*
G75*
G02X349135Y224085I-5000J1551*
G01*
G75*
G02X344635Y221525I-4500J2675*
G01*
G75*
G02X339797Y224760J5235*
G01*
X193870*
G75*
G02X188635Y219525I-5235*
G01*
G75*
G02X184635Y221383J5235*
G01*
G75*
G02X180635Y219525I-4000J3377*
G01*
G75*
G02X175400Y224760J5235*
G01*
X6985*
Y211760*
X23597*
G37*
X175400Y224760D02*
G36*
G75*
G02X180635Y229995I5235D01*
G01*
G75*
G02X184635Y228137J-5235*
G01*
G75*
G02X188635Y229995I4000J-3377*
G01*
G75*
G02X193870Y224760J-5235*
G01*
X339797*
G75*
G02X341258Y230760I4838J2000*
G01*
X295012*
G75*
G02X291635Y229525I-3377J4000*
G01*
G75*
G02X288258Y230760J5235*
G01*
X265186*
G75*
G02X263635Y230525I-1551J5000*
G01*
G75*
G02X262084Y230760J5235*
G01*
X210870*
G75*
G02X205635Y225525I-5235*
G01*
G75*
G02X200400Y230760J5235*
G01*
X40019*
G75*
G02X33635Y228525I-6384J8000*
G01*
G75*
G02X27251Y230760J10235*
G01*
X6985*
Y224760*
X175400*
G37*
X494285D02*
G36*
Y230760D01*
X480019*
G75*
G02X473635Y228525I-6384J8000*
G01*
G75*
G02X467251Y230760J10235*
G01*
X425473*
G75*
G02X420635Y227525I-4838J2000*
G01*
G75*
G02X415797Y230760J5235*
G01*
X376012*
G75*
G02X377473Y224760I-3377J-4000*
G01*
X494285*
G37*
X27251Y230760D02*
G36*
G75*
G02X23449Y237760I6384J8000D01*
G01*
X6985*
Y230760*
X27251*
G37*
X200400D02*
G36*
G75*
G02X205635Y235995I5235D01*
G01*
G75*
G02X210870Y230760J-5235*
G01*
X262084*
G75*
G02X258520Y236876I1551J5000*
G01*
G75*
G02X256635Y236525I-1884J4883*
G01*
G75*
G02X253258Y237760J5235*
G01*
X125980*
G75*
G02X120745Y232525I-5235*
G01*
G75*
G02X115510Y237760J5235*
G01*
X73186*
G75*
G02X71635Y237525I-1551J5000*
G01*
G75*
G02X70084Y237760J5235*
G01*
X43821*
G75*
G02X40019Y230760I-10186J1000*
G01*
X200400*
G37*
X288258D02*
G36*
G75*
G02X287345Y237760I3377J4000D01*
G01*
X268473*
G75*
G02X265186Y230760I-4838J-2000*
G01*
X288258*
G37*
X341258D02*
G36*
G75*
G02X344635Y231995I3377J-4000D01*
G01*
G75*
G02X349135Y229435J-5235*
G01*
G75*
G02X358635Y228311I4500J-2675*
G01*
G75*
G02X368135Y229435I5000J-1551*
G01*
G75*
G02X372635Y231995I4500J-2675*
G01*
G75*
G02X376012Y230760J-5235*
G01*
X415797*
G75*
G02X419084Y237760I4838J2000*
G01*
X295925*
G75*
G02X295012Y230760I-4290J-3000*
G01*
X341258*
G37*
X467251D02*
G36*
G75*
G02X463449Y237760I6384J8000D01*
G01*
X422186*
G75*
G02X425473Y230760I-1551J-5000*
G01*
X467251*
G37*
X494285D02*
G36*
Y237760D01*
X483821*
G75*
G02X480019Y230760I-10186J1000*
G01*
X494285*
G37*
X23449Y237760D02*
G36*
G75*
G02X24704Y243760I10186J1001D01*
G01*
X6985*
Y237760*
X23449*
G37*
X70084D02*
G36*
G75*
G02X66496Y243760I1551J5000D01*
G01*
X42566*
G75*
G02X43821Y237760I-8931J-4999*
G01*
X70084*
G37*
X115510D02*
G36*
G75*
G02X120745Y242995I5235D01*
G01*
G75*
G02X125980Y237760J-5235*
G01*
X253258*
G75*
G02X251797Y243760I3377J4000*
G01*
X154186*
G75*
G02X152635Y243525I-1551J5000*
G01*
G75*
G02X151084Y243760J5235*
G01*
X76774*
G75*
G02X73186Y237760I-5139J-1000*
G01*
X115510*
G37*
X287345D02*
G36*
G75*
G02X291635Y239995I4290J-3000D01*
G01*
G75*
G02X295925Y237760J-5235*
G01*
X419084*
G75*
G02X420635Y237995I1551J-5000*
G01*
G75*
G02X422186Y237760J-5235*
G01*
X463449*
G75*
G02X464704Y243760I10186J1001*
G01*
X336870*
G75*
G02X331635Y238525I-5235*
G01*
G75*
G02X326635Y242209J5235*
G01*
G75*
G02X321635Y238525I-5000J1551*
G01*
G75*
G02X316400Y243760J5235*
G01*
X261473*
G75*
G02X261750Y240644I-4838J-2000*
G01*
G75*
G02X263635Y240995I1884J-4883*
G01*
G75*
G02X268473Y237760J-5235*
G01*
X287345*
G37*
X494285D02*
G36*
Y243760D01*
X482566*
G75*
G02X483821Y237760I-8931J-4999*
G01*
X494285*
G37*
X24704Y243760D02*
G36*
G75*
G02X33635Y248995I8931J-5000D01*
G01*
G75*
G02X42566Y243760J-10235*
G01*
X66496*
G75*
G02X71635Y247995I5139J-1000*
G01*
G75*
G02X76774Y243760J-5235*
G01*
X151084*
G75*
G02X152635Y253995I1551J5000*
G01*
G75*
G02X154186Y243760J-5235*
G01*
X251797*
G75*
G02X256635Y246995I4838J-2000*
G01*
G75*
G02X261473Y243760J-5235*
G01*
X316400*
G75*
G02X321635Y248995I5235*
G01*
G75*
G02X326635Y245311J-5235*
G01*
G75*
G02X331635Y248995I5000J-1551*
G01*
G75*
G02X336870Y243760J-5235*
G01*
X464704*
G75*
G02X473635Y248995I8931J-5000*
G01*
G75*
G02X482566Y243760J-10235*
G01*
X494285*
Y256510*
X480859*
G75*
G02X473635Y253525I-7224J7250*
G01*
G75*
G02X466411Y256510J10235*
G01*
X398340*
G75*
G02X381330I-8505J6550*
G01*
X372940*
G75*
G02X355930I-8505J6550*
G01*
X347540*
G75*
G02X330530I-8505J6550*
G01*
X322140*
G75*
G02X305130I-8505J6550*
G01*
X296740*
G75*
G02X279730I-8505J6550*
G01*
X271340*
G75*
G02X254330I-8505J6550*
G01*
X245940*
G75*
G02X228930I-8505J6550*
G01*
X216870*
G75*
G02X211635Y251275I-5235*
G01*
G75*
G02X206400Y256510J5235*
G01*
X40859*
G75*
G02X33635Y253525I-7224J7250*
G01*
G75*
G02X26411Y256510J10235*
G01*
X6985*
Y243760*
X24704*
G37*
X26411Y256510D02*
G36*
G75*
G02X24214Y267760I7224J7250D01*
G01*
X6985*
Y256510*
X26411*
G37*
X206400D02*
G36*
G75*
G02X211635Y261745I5235D01*
G01*
G75*
G02X216870Y256510J-5235*
G01*
X228930*
G75*
G02X226700Y263060I8505J6550*
G01*
G75*
G02X227784Y267760I10735J-1*
G01*
X219774*
G75*
G02X214635Y263525I-5139J1000*
G01*
G75*
G02X209496Y267760J5235*
G01*
X163870*
G75*
G02X158635Y262525I-5235*
G01*
G75*
G02X153400Y267760J5235*
G01*
X43056*
G75*
G02X40859Y256510I-9421J-4000*
G01*
X206400*
G37*
X254330D02*
G36*
G75*
G02X252100Y263060I8505J6550D01*
G01*
G75*
G02X253184Y267760I10735J-1*
G01*
X247086*
G75*
G02X248170Y263060I-9651J-4701*
G01*
G75*
G02X245940Y256510I-10735*
G01*
X254330*
G37*
X279730D02*
G36*
G75*
G02X277500Y263060I8505J6550D01*
G01*
G75*
G02X278584Y267760I10735J-1*
G01*
X272486*
G75*
G02X273570Y263060I-9651J-4701*
G01*
G75*
G02X271340Y256510I-10735*
G01*
X279730*
G37*
X305130D02*
G36*
G75*
G02X302900Y263060I8505J6550D01*
G01*
G75*
G02X303984Y267760I10735J-1*
G01*
X297886*
G75*
G02X298970Y263060I-9651J-4701*
G01*
G75*
G02X296740Y256510I-10735*
G01*
X305130*
G37*
X330530D02*
G36*
G75*
G02X328300Y263060I8505J6550D01*
G01*
G75*
G02X329384Y267760I10735J-1*
G01*
X323286*
G75*
G02X324370Y263060I-9651J-4701*
G01*
G75*
G02X322140Y256510I-10735*
G01*
X330530*
G37*
X355930D02*
G36*
G75*
G02X353700Y263060I8505J6550D01*
G01*
G75*
G02X354784Y267760I10735J-1*
G01*
X348686*
G75*
G02X349770Y263060I-9651J-4701*
G01*
G75*
G02X347540Y256510I-10735*
G01*
X355930*
G37*
X381330D02*
G36*
G75*
G02X379100Y263060I8505J6550D01*
G01*
G75*
G02X380184Y267760I10735J-1*
G01*
X374086*
G75*
G02X375170Y263060I-9651J-4701*
G01*
G75*
G02X372940Y256510I-10735*
G01*
X381330*
G37*
X466411D02*
G36*
G75*
G02X464214Y267760I7224J7250D01*
G01*
X399486*
G75*
G02X400570Y263060I-9651J-4701*
G01*
G75*
G02X398340Y256510I-10735*
G01*
X466411*
G37*
X494285D02*
G36*
Y267760D01*
X483056*
G75*
G02X480859Y256510I-9421J-4000*
G01*
X494285*
G37*
X24214Y267760D02*
G36*
G75*
G02X33635Y273995I9421J-4000D01*
G01*
G75*
G02X43056Y267760J-10235*
G01*
X153400*
G75*
G02X158635Y272995I5235*
G01*
G75*
G02X163870Y267760J-5235*
G01*
X209496*
G75*
G02X214635Y273995I5139J1000*
G01*
G75*
G02X219774Y267760J-5235*
G01*
X227784*
G75*
G02X247086I9651J-4700*
G01*
X253184*
G75*
G02X272486I9651J-4700*
G01*
X278584*
G75*
G02X297886I9651J-4700*
G01*
X303984*
G75*
G02X323286I9651J-4700*
G01*
X329384*
G75*
G02X348686I9651J-4700*
G01*
X354784*
G75*
G02X374086I9651J-4700*
G01*
X380184*
G75*
G02X399486I9651J-4700*
G01*
X464214*
G75*
G02X473635Y273995I9421J-4000*
G01*
G75*
G02X483056Y267760J-10235*
G01*
X494285*
Y275760*
X108870*
G75*
G02X103635Y270525I-5235*
G01*
G75*
G02X98400Y275760J5235*
G01*
X6985*
Y267760*
X24214*
G37*
X98400Y275760D02*
G36*
G75*
G02X103635Y280995I5235D01*
G01*
G75*
G02X108870Y275760J-5235*
G01*
X494285*
Y288760*
X430686*
G75*
G02X429135Y288525I-1551J5000*
G01*
G75*
G02X427584Y288760J5235*
G01*
X400566*
G75*
G02X400570Y288460I-10734J-293*
G01*
G75*
G02X379100I-10735*
G01*
G75*
G02X379104Y288760I10731J7*
G01*
X375166*
G75*
G02X375170Y288460I-10734J-293*
G01*
G75*
G02X353700I-10735*
G01*
G75*
G02X353704Y288760I10731J7*
G01*
X349766*
G75*
G02X349770Y288460I-10734J-293*
G01*
G75*
G02X328300I-10735*
G01*
G75*
G02X328304Y288760I10731J7*
G01*
X325306*
G75*
G02X325310Y288460I-11674J-306*
G01*
G75*
G02X301960I-11675*
G01*
G75*
G02X301964Y288760I11671J-6*
G01*
X298966*
G75*
G02X298970Y288460I-10734J-293*
G01*
G75*
G02X277500I-10735*
G01*
G75*
G02X277504Y288760I10731J7*
G01*
X273566*
G75*
G02X273570Y288460I-10734J-293*
G01*
G75*
G02X252100I-10735*
G01*
G75*
G02X252104Y288760I10731J7*
G01*
X248166*
G75*
G02X248170Y288460I-10734J-293*
G01*
G75*
G02X226700I-10735*
G01*
G75*
G02X226704Y288760I10731J7*
G01*
X214836*
G75*
G02X212635Y288275I-2201J4750*
G01*
G75*
G02X210434Y288760J5235*
G01*
X129870*
G75*
G02X124635Y283525I-5235*
G01*
G75*
G02X119400Y288760J5235*
G01*
X6985*
Y275760*
X98400*
G37*
X119400Y288760D02*
G36*
G75*
G02X124635Y293995I5235D01*
G01*
G75*
G02X129870Y288760J-5235*
G01*
X210434*
G75*
G02X207908Y295760I2201J4750*
G01*
X6985*
Y288760*
X119400*
G37*
X226704D02*
G36*
G75*
G02X229564Y295760I10731J-300D01*
G01*
X217362*
G75*
G02X214836Y288760I-4727J-2250*
G01*
X226704*
G37*
X252104D02*
G36*
G75*
G02X254964Y295760I10731J-300D01*
G01*
X245306*
G75*
G02X248166Y288760I-7871J-7300*
G01*
X252104*
G37*
X277504D02*
G36*
G75*
G02X280364Y295760I10731J-300D01*
G01*
X270706*
G75*
G02X273566Y288760I-7871J-7300*
G01*
X277504*
G37*
X301964D02*
G36*
G75*
G02X304524Y295760I11671J-300D01*
G01*
X296106*
G75*
G02X298966Y288760I-7871J-7300*
G01*
X301964*
G37*
X328304D02*
G36*
G75*
G02X331164Y295760I10731J-300D01*
G01*
X322746*
G75*
G02X325306Y288760I-9111J-7300*
G01*
X328304*
G37*
X353704D02*
G36*
G75*
G02X356564Y295760I10731J-300D01*
G01*
X346906*
G75*
G02X349766Y288760I-7871J-7300*
G01*
X353704*
G37*
X379104D02*
G36*
G75*
G02X381964Y295760I10731J-300D01*
G01*
X372306*
G75*
G02X375166Y288760I-7871J-7300*
G01*
X379104*
G37*
X427584D02*
G36*
G75*
G02X424297Y295760I1551J5000D01*
G01*
X418870*
G75*
G02X413635Y290525I-5235*
G01*
G75*
G02X408400Y295760J5235*
G01*
X397706*
G75*
G02X400566Y288760I-7871J-7300*
G01*
X427584*
G37*
X494285D02*
G36*
Y295760D01*
X433973*
G75*
G02X430686Y288760I-4838J-2000*
G01*
X494285*
G37*
X207908Y295760D02*
G36*
G75*
G02X212635Y298745I4727J-2250D01*
G01*
G75*
G02X217362Y295760J-5235*
G01*
X229564*
G75*
G02X245306I7871J-7300*
G01*
X254964*
G75*
G02X270706I7871J-7300*
G01*
X280364*
G75*
G02X296106I7871J-7300*
G01*
X304524*
G75*
G02X322746I9111J-7300*
G01*
X331164*
G75*
G02X346906I7871J-7300*
G01*
X356564*
G75*
G02X372306I7871J-7300*
G01*
X381964*
G75*
G02X397706I7871J-7300*
G01*
X408400*
G75*
G02X413635Y300995I5235*
G01*
G75*
G02X418870Y295760J-5235*
G01*
X424297*
G75*
G02X429135Y298995I4838J-2000*
G01*
G75*
G02X433973Y295760J-5235*
G01*
X494285*
Y307410*
X6985*
Y295760*
X207908*
G37*
X416635Y807410D02*
X45482D01*
G75*
G02X6985Y768913I-19847J-18650*
G01*
Y358607*
G75*
G02X45482Y320110I18650J-19847*
G01*
X425788*
G75*
G02X418400Y338760I19847J18650*
G01*
G75*
G02X472870I27235*
G01*
G75*
G02X465482Y320110I-27235J1*
G01*
X510635*
Y451760*
X496199Y466196*
G75*
G02X486400Y468760I-4564J2564*
G01*
G75*
G02X489635Y473598I5235*
G01*
Y650700*
X486575Y653760*
X458635*
X444635Y667760*
Y733760*
X416635Y761760*
Y807410*
X71635Y452025D02*
G75*
G02Y491495J19735D01*
G01*
G75*
G02Y452025J-19735*
G01*
Y514025D02*
G75*
G02Y553495J19735D01*
G01*
G75*
G02Y514025J-19735*
G01*
Y576025D02*
G75*
G02Y615495J19735D01*
G01*
G75*
G02Y576025J-19735*
G01*
X93400Y589760D02*
G75*
G02X103870I5235D01*
G01*
G75*
G02X93400I-5235*
G01*
Y601760D02*
G75*
G02X103870I5235D01*
G01*
G75*
G02X93400I-5235*
G01*
Y613760D02*
G75*
G02X103870I5235D01*
G01*
G75*
G02X93400I-5235*
G01*
X94400Y505760D02*
G75*
G02X104870I5235D01*
G01*
G75*
G02X94400I-5235*
G01*
Y517760D02*
G75*
G02X104870I5235D01*
G01*
G75*
G02X94400I-5235*
G01*
Y529760D02*
G75*
G02X104870I5235D01*
G01*
G75*
G02X94400I-5235*
G01*
X105400Y589760D02*
G75*
G02X115870I5235D01*
G01*
G75*
G02X105400I-5235*
G01*
Y601760D02*
G75*
G02X115870I5235D01*
G01*
G75*
G02X105400I-5235*
G01*
Y613760D02*
G75*
G02X115870I5235D01*
G01*
G75*
G02X105400I-5235*
G01*
X106400Y505760D02*
G75*
G02X116870I5235D01*
G01*
G75*
G02X106400I-5235*
G01*
Y517760D02*
G75*
G02X116870I5235D01*
G01*
G75*
G02X106400I-5235*
G01*
Y529760D02*
G75*
G02X116870I5235D01*
G01*
G75*
G02X106400I-5235*
G01*
X115400Y339760D02*
G75*
G02X125870I5235D01*
G01*
G75*
G02X115400I-5235*
G01*
Y363760D02*
G75*
G02X125870I5235D01*
G01*
G75*
G02X115400I-5235*
G01*
X117400Y577760D02*
G75*
G02X127870I5235D01*
G01*
G75*
G02X117400I-5235*
G01*
Y589760D02*
G75*
G02X127870I5235D01*
G01*
G75*
G02X117400I-5235*
G01*
Y601760D02*
G75*
G02X127870I5235D01*
G01*
G75*
G02X117400I-5235*
G01*
Y613760D02*
G75*
G02X127870I5235D01*
G01*
G75*
G02X117400I-5235*
G01*
X118400Y505760D02*
G75*
G02X128870I5235D01*
G01*
G75*
G02X118400I-5235*
G01*
Y517760D02*
G75*
G02X128870I5235D01*
G01*
G75*
G02X118400I-5235*
G01*
Y529760D02*
G75*
G02X128870I5235D01*
G01*
G75*
G02X118400I-5235*
G01*
Y541760D02*
G75*
G02X128870I5235D01*
G01*
G75*
G02X118400I-5235*
G01*
Y553760D02*
G75*
G02X128870I5235D01*
G01*
G75*
G02X118400I-5235*
G01*
X127400Y351760D02*
G75*
G02X137870I5235D01*
G01*
G75*
G02X127400I-5235*
G01*
X129400Y577760D02*
G75*
G02X139870I5235D01*
G01*
G75*
G02X129400I-5235*
G01*
Y589760D02*
G75*
G02X139870I5235D01*
G01*
G75*
G02X129400I-5235*
G01*
Y601760D02*
G75*
G02X139870I5235D01*
G01*
G75*
G02X129400I-5235*
G01*
Y613760D02*
G75*
G02X139870I5235D01*
G01*
G75*
G02X129400I-5235*
G01*
X130400Y493760D02*
G75*
G02X140870I5235D01*
G01*
G75*
G02X130400I-5235*
G01*
Y505760D02*
G75*
G02X140870I5235D01*
G01*
G75*
G02X130400I-5235*
G01*
Y517760D02*
G75*
G02X140870I5235D01*
G01*
G75*
G02X130400I-5235*
G01*
Y529760D02*
G75*
G02X140870I5235D01*
G01*
G75*
G02X130400I-5235*
G01*
Y541760D02*
G75*
G02X140870I5235D01*
G01*
G75*
G02X130400I-5235*
G01*
Y553760D02*
G75*
G02X140870I5235D01*
G01*
G75*
G02X130400I-5235*
G01*
X139400Y339760D02*
G75*
G02X149870I5235D01*
G01*
G75*
G02X139400I-5235*
G01*
Y363760D02*
G75*
G02X149870I5235D01*
G01*
G75*
G02X139400I-5235*
G01*
X141400Y577760D02*
G75*
G02X151870I5235D01*
G01*
G75*
G02X141400I-5235*
G01*
Y589760D02*
G75*
G02X151870I5235D01*
G01*
G75*
G02X141400I-5235*
G01*
Y601760D02*
G75*
G02X151870I5235D01*
G01*
G75*
G02X141400I-5235*
G01*
Y613760D02*
G75*
G02X151870I5235D01*
G01*
G75*
G02X141400I-5235*
G01*
X142400Y493760D02*
G75*
G02X152870I5235D01*
G01*
G75*
G02X142400I-5235*
G01*
Y505760D02*
G75*
G02X152870I5235D01*
G01*
G75*
G02X142400I-5235*
G01*
Y517760D02*
G75*
G02X152870I5235D01*
G01*
G75*
G02X142400I-5235*
G01*
Y529760D02*
G75*
G02X152870I5235D01*
G01*
G75*
G02X142400I-5235*
G01*
Y541760D02*
G75*
G02X152870I5235D01*
G01*
G75*
G02X142400I-5235*
G01*
Y553760D02*
G75*
G02X152870I5235D01*
G01*
G75*
G02X142400I-5235*
G01*
X151400Y351760D02*
G75*
G02X161870I5235D01*
G01*
G75*
G02X151400I-5235*
G01*
X163400Y339760D02*
G75*
G02X173870I5235D01*
G01*
G75*
G02X163400I-5235*
G01*
Y363760D02*
G75*
G02X173870I5235D01*
G01*
G75*
G02X163400I-5235*
G01*
X165400Y747760D02*
G75*
G02X175870I5235D01*
G01*
G75*
G02X165400I-5235*
G01*
Y759760D02*
G75*
G02X175870I5235D01*
G01*
G75*
G02X165400I-5235*
G01*
Y771760D02*
G75*
G02X175870I5235D01*
G01*
G75*
G02X165400I-5235*
G01*
Y783760D02*
G75*
G02X175870I5235D01*
G01*
G75*
G02X165400I-5235*
G01*
X175400Y351760D02*
G75*
G02X185870I5235D01*
G01*
G75*
G02X175400I-5235*
G01*
X176400Y508760D02*
G75*
G02X186870I5235D01*
G01*
G75*
G02X176400I-5235*
G01*
X177400Y747760D02*
G75*
G02X187870I5235D01*
G01*
G75*
G02X177400I-5235*
G01*
Y759760D02*
G75*
G02X187870I5235D01*
G01*
G75*
G02X177400I-5235*
G01*
Y771760D02*
G75*
G02X187870I5235D01*
G01*
G75*
G02X177400I-5235*
G01*
Y783760D02*
G75*
G02X187870I5235D01*
G01*
G75*
G02X177400I-5235*
G01*
X187400Y339760D02*
G75*
G02X197870I5235D01*
G01*
G75*
G02X187400I-5235*
G01*
Y363760D02*
G75*
G02X197870I5235D01*
G01*
G75*
G02X187400I-5235*
G01*
X188400Y508760D02*
G75*
G02X198870I5235D01*
G01*
G75*
G02X188400I-5235*
G01*
X189400Y747760D02*
G75*
G02X199870I5235D01*
G01*
G75*
G02X189400I-5235*
G01*
Y759760D02*
G75*
G02X199870I5235D01*
G01*
G75*
G02X189400I-5235*
G01*
Y771760D02*
G75*
G02X199870I5235D01*
G01*
G75*
G02X189400I-5235*
G01*
Y783760D02*
G75*
G02X199870I5235D01*
G01*
G75*
G02X189400I-5235*
G01*
X199400Y351760D02*
G75*
G02X209870I5235D01*
G01*
G75*
G02X199400I-5235*
G01*
X200400Y508760D02*
G75*
G02X210870I5235D01*
G01*
G75*
G02X200400I-5235*
G01*
X211400Y339760D02*
G75*
G02X221870I5235D01*
G01*
G75*
G02X211400I-5235*
G01*
Y363760D02*
G75*
G02X221870I5235D01*
G01*
G75*
G02X211400I-5235*
G01*
X216400Y508760D02*
G75*
G02X226870I5235D01*
G01*
G75*
G02X216400I-5235*
G01*
X223400Y351760D02*
G75*
G02X233870I5235D01*
G01*
G75*
G02X223400I-5235*
G01*
X227400Y747760D02*
G75*
G02X237870I5235D01*
G01*
G75*
G02X227400I-5235*
G01*
Y759760D02*
G75*
G02X237870I5235D01*
G01*
G75*
G02X227400I-5235*
G01*
Y771760D02*
G75*
G02X237870I5235D01*
G01*
G75*
G02X227400I-5235*
G01*
Y783760D02*
G75*
G02X237870I5235D01*
G01*
G75*
G02X227400I-5235*
G01*
X228400Y508760D02*
G75*
G02X238870I5235D01*
G01*
G75*
G02X228400I-5235*
G01*
X235400Y339760D02*
G75*
G02X245870I5235D01*
G01*
G75*
G02X235400I-5235*
G01*
Y363760D02*
G75*
G02X245870I5235D01*
G01*
G75*
G02X235400I-5235*
G01*
X239400Y747760D02*
G75*
G02X249870I5235D01*
G01*
G75*
G02X239400I-5235*
G01*
Y759760D02*
G75*
G02X249870I5235D01*
G01*
G75*
G02X239400I-5235*
G01*
Y771760D02*
G75*
G02X249870I5235D01*
G01*
G75*
G02X239400I-5235*
G01*
Y783760D02*
G75*
G02X249870I5235D01*
G01*
G75*
G02X239400I-5235*
G01*
X240400Y508760D02*
G75*
G02X250870I5235D01*
G01*
G75*
G02X240400I-5235*
G01*
X247400Y351760D02*
G75*
G02X257870I5235D01*
G01*
G75*
G02X247400I-5235*
G01*
X251400Y747760D02*
G75*
G02X261870I5235D01*
G01*
G75*
G02X251400I-5235*
G01*
Y759760D02*
G75*
G02X261870I5235D01*
G01*
G75*
G02X251400I-5235*
G01*
Y771760D02*
G75*
G02X261870I5235D01*
G01*
G75*
G02X251400I-5235*
G01*
Y783760D02*
G75*
G02X261870I5235D01*
G01*
G75*
G02X251400I-5235*
G01*
X258400Y488760D02*
G75*
G02X268870I5235D01*
G01*
G75*
G02X258400I-5235*
G01*
Y500760D02*
G75*
G02X268870I5235D01*
G01*
G75*
G02X258400I-5235*
G01*
Y512760D02*
G75*
G02X268870I5235D01*
G01*
G75*
G02X258400I-5235*
G01*
Y524760D02*
G75*
G02X268870I5235D01*
G01*
G75*
G02X258400I-5235*
G01*
Y536760D02*
G75*
G02X268870I5235D01*
G01*
G75*
G02X258400I-5235*
G01*
X259400Y339760D02*
G75*
G02X269870I5235D01*
G01*
G75*
G02X259400I-5235*
G01*
Y363760D02*
G75*
G02X269870I5235D01*
G01*
G75*
G02X259400I-5235*
G01*
Y387760D02*
G75*
G02X269870I5235D01*
G01*
G75*
G02X259400I-5235*
G01*
X270400Y488760D02*
G75*
G02X280870I5235D01*
G01*
G75*
G02X270400I-5235*
G01*
Y500760D02*
G75*
G02X280870I5235D01*
G01*
G75*
G02X270400I-5235*
G01*
Y512760D02*
G75*
G02X280870I5235D01*
G01*
G75*
G02X270400I-5235*
G01*
Y524760D02*
G75*
G02X280870I5235D01*
G01*
G75*
G02X270400I-5235*
G01*
Y536760D02*
G75*
G02X280870I5235D01*
G01*
G75*
G02X270400I-5235*
G01*
X271400Y351760D02*
G75*
G02X281870I5235D01*
G01*
G75*
G02X271400I-5235*
G01*
Y375760D02*
G75*
G02X281870I5235D01*
G01*
G75*
G02X271400I-5235*
G01*
Y399760D02*
G75*
G02X281870I5235D01*
G01*
G75*
G02X271400I-5235*
G01*
X282400Y488760D02*
G75*
G02X292870I5235D01*
G01*
G75*
G02X282400I-5235*
G01*
Y500760D02*
G75*
G02X292870I5235D01*
G01*
G75*
G02X282400I-5235*
G01*
Y512760D02*
G75*
G02X292870I5235D01*
G01*
G75*
G02X282400I-5235*
G01*
Y524760D02*
G75*
G02X292870I5235D01*
G01*
G75*
G02X282400I-5235*
G01*
Y536760D02*
G75*
G02X292870I5235D01*
G01*
G75*
G02X282400I-5235*
G01*
X283400Y339760D02*
G75*
G02X293870I5235D01*
G01*
G75*
G02X283400I-5235*
G01*
Y363760D02*
G75*
G02X293870I5235D01*
G01*
G75*
G02X283400I-5235*
G01*
Y387760D02*
G75*
G02X293870I5235D01*
G01*
G75*
G02X283400I-5235*
G01*
X292400Y747760D02*
G75*
G02X302870I5235D01*
G01*
G75*
G02X292400I-5235*
G01*
Y759760D02*
G75*
G02X302870I5235D01*
G01*
G75*
G02X292400I-5235*
G01*
Y771760D02*
G75*
G02X302870I5235D01*
G01*
G75*
G02X292400I-5235*
G01*
Y783760D02*
G75*
G02X302870I5235D01*
G01*
G75*
G02X292400I-5235*
G01*
X295400Y351760D02*
G75*
G02X305870I5235D01*
G01*
G75*
G02X295400I-5235*
G01*
Y375760D02*
G75*
G02X305870I5235D01*
G01*
G75*
G02X295400I-5235*
G01*
Y399760D02*
G75*
G02X305870I5235D01*
G01*
G75*
G02X295400I-5235*
G01*
X302400Y488760D02*
G75*
G02X312870I5235D01*
G01*
G75*
G02X302400I-5235*
G01*
Y500760D02*
G75*
G02X312870I5235D01*
G01*
G75*
G02X302400I-5235*
G01*
Y512760D02*
G75*
G02X312870I5235D01*
G01*
G75*
G02X302400I-5235*
G01*
Y524760D02*
G75*
G02X312870I5235D01*
G01*
G75*
G02X302400I-5235*
G01*
Y536760D02*
G75*
G02X312870I5235D01*
G01*
G75*
G02X302400I-5235*
G01*
X304400Y747760D02*
G75*
G02X314870I5235D01*
G01*
G75*
G02X304400I-5235*
G01*
Y759760D02*
G75*
G02X314870I5235D01*
G01*
G75*
G02X304400I-5235*
G01*
Y771760D02*
G75*
G02X314870I5235D01*
G01*
G75*
G02X304400I-5235*
G01*
Y783760D02*
G75*
G02X314870I5235D01*
G01*
G75*
G02X304400I-5235*
G01*
X307400Y339760D02*
G75*
G02X317870I5235D01*
G01*
G75*
G02X307400I-5235*
G01*
Y363760D02*
G75*
G02X317870I5235D01*
G01*
G75*
G02X307400I-5235*
G01*
Y387760D02*
G75*
G02X317870I5235D01*
G01*
G75*
G02X307400I-5235*
G01*
X314400Y488760D02*
G75*
G02X324870I5235D01*
G01*
G75*
G02X314400I-5235*
G01*
Y500760D02*
G75*
G02X324870I5235D01*
G01*
G75*
G02X314400I-5235*
G01*
Y512760D02*
G75*
G02X324870I5235D01*
G01*
G75*
G02X314400I-5235*
G01*
Y524760D02*
G75*
G02X324870I5235D01*
G01*
G75*
G02X314400I-5235*
G01*
Y536760D02*
G75*
G02X324870I5235D01*
G01*
G75*
G02X314400I-5235*
G01*
X316400Y747760D02*
G75*
G02X326870I5235D01*
G01*
G75*
G02X316400I-5235*
G01*
Y759760D02*
G75*
G02X326870I5235D01*
G01*
G75*
G02X316400I-5235*
G01*
Y771760D02*
G75*
G02X326870I5235D01*
G01*
G75*
G02X316400I-5235*
G01*
Y783760D02*
G75*
G02X326870I5235D01*
G01*
G75*
G02X316400I-5235*
G01*
X319400Y351760D02*
G75*
G02X329870I5235D01*
G01*
G75*
G02X319400I-5235*
G01*
Y375760D02*
G75*
G02X329870I5235D01*
G01*
G75*
G02X319400I-5235*
G01*
Y399760D02*
G75*
G02X329870I5235D01*
G01*
G75*
G02X319400I-5235*
G01*
X326400Y488760D02*
G75*
G02X336870I5235D01*
G01*
G75*
G02X326400I-5235*
G01*
Y500760D02*
G75*
G02X336870I5235D01*
G01*
G75*
G02X326400I-5235*
G01*
Y512760D02*
G75*
G02X336870I5235D01*
G01*
G75*
G02X326400I-5235*
G01*
Y524760D02*
G75*
G02X336870I5235D01*
G01*
G75*
G02X326400I-5235*
G01*
Y536760D02*
G75*
G02X336870I5235D01*
G01*
G75*
G02X326400I-5235*
G01*
X331400Y339760D02*
G75*
G02X341870I5235D01*
G01*
G75*
G02X331400I-5235*
G01*
Y363760D02*
G75*
G02X341870I5235D01*
G01*
G75*
G02X331400I-5235*
G01*
Y387760D02*
G75*
G02X341870I5235D01*
G01*
G75*
G02X331400I-5235*
G01*
X343400Y351760D02*
G75*
G02X353870I5235D01*
G01*
G75*
G02X343400I-5235*
G01*
X345400Y508760D02*
G75*
G02X355870I5235D01*
G01*
G75*
G02X345400I-5235*
G01*
X354400Y747760D02*
G75*
G02X364870I5235D01*
G01*
G75*
G02X354400I-5235*
G01*
Y759760D02*
G75*
G02X364870I5235D01*
G01*
G75*
G02X354400I-5235*
G01*
Y771760D02*
G75*
G02X364870I5235D01*
G01*
G75*
G02X354400I-5235*
G01*
Y783760D02*
G75*
G02X364870I5235D01*
G01*
G75*
G02X354400I-5235*
G01*
X355400Y339760D02*
G75*
G02X365870I5235D01*
G01*
G75*
G02X355400I-5235*
G01*
Y363760D02*
G75*
G02X365870I5235D01*
G01*
G75*
G02X355400I-5235*
G01*
X357400Y508760D02*
G75*
G02X367870I5235D01*
G01*
G75*
G02X357400I-5235*
G01*
X366400Y747760D02*
G75*
G02X376870I5235D01*
G01*
G75*
G02X366400I-5235*
G01*
Y759760D02*
G75*
G02X376870I5235D01*
G01*
G75*
G02X366400I-5235*
G01*
Y771760D02*
G75*
G02X376870I5235D01*
G01*
G75*
G02X366400I-5235*
G01*
Y783760D02*
G75*
G02X376870I5235D01*
G01*
G75*
G02X366400I-5235*
G01*
X367400Y351760D02*
G75*
G02X377870I5235D01*
G01*
G75*
G02X367400I-5235*
G01*
X369400Y508760D02*
G75*
G02X379870I5235D01*
G01*
G75*
G02X369400I-5235*
G01*
X378400Y747760D02*
G75*
G02X388870I5235D01*
G01*
G75*
G02X378400I-5235*
G01*
Y759760D02*
G75*
G02X388870I5235D01*
G01*
G75*
G02X378400I-5235*
G01*
Y771760D02*
G75*
G02X388870I5235D01*
G01*
G75*
G02X378400I-5235*
G01*
Y783760D02*
G75*
G02X388870I5235D01*
G01*
G75*
G02X378400I-5235*
G01*
X379400Y339760D02*
G75*
G02X389870I5235D01*
G01*
G75*
G02X379400I-5235*
G01*
Y363760D02*
G75*
G02X389870I5235D01*
G01*
G75*
G02X379400I-5235*
G01*
X385400Y508760D02*
G75*
G02X395870I5235D01*
G01*
G75*
G02X385400I-5235*
G01*
X391400Y351760D02*
G75*
G02X401870I5235D01*
G01*
G75*
G02X391400I-5235*
G01*
X397400Y508760D02*
G75*
G02X407870I5235D01*
G01*
G75*
G02X397400I-5235*
G01*
X403400Y339760D02*
G75*
G02X413870I5235D01*
G01*
G75*
G02X403400I-5235*
G01*
Y363760D02*
G75*
G02X413870I5235D01*
G01*
G75*
G02X403400I-5235*
G01*
X409400Y508760D02*
G75*
G02X419870I5235D01*
G01*
G75*
G02X409400I-5235*
G01*
X427400Y387760D02*
G75*
G02X437870I5235D01*
G01*
G75*
G02X427400I-5235*
G01*
X439400Y375760D02*
G75*
G02X449870I5235D01*
G01*
G75*
G02X439400I-5235*
G01*
Y399760D02*
G75*
G02X449870I5235D01*
G01*
G75*
G02X439400I-5235*
G01*
X451400Y387760D02*
G75*
G02X461870I5235D01*
G01*
G75*
G02X451400I-5235*
G01*
X453400Y557760D02*
G75*
G02X463870I5235D01*
G01*
G75*
G02X453400I-5235*
G01*
Y569760D02*
G75*
G02X463870I5235D01*
G01*
G75*
G02X453400I-5235*
G01*
Y581760D02*
G75*
G02X463870I5235D01*
G01*
G75*
G02X453400I-5235*
G01*
Y593760D02*
G75*
G02X463870I5235D01*
G01*
G75*
G02X453400I-5235*
G01*
X463400Y375760D02*
G75*
G02X473870I5235D01*
G01*
G75*
G02X463400I-5235*
G01*
Y399760D02*
G75*
G02X473870I5235D01*
G01*
G75*
G02X463400I-5235*
G01*
X465400Y557760D02*
G75*
G02X475870I5235D01*
G01*
G75*
G02X465400I-5235*
G01*
Y569760D02*
G75*
G02X475870I5235D01*
G01*
G75*
G02X465400I-5235*
G01*
Y581760D02*
G75*
G02X475870I5235D01*
G01*
G75*
G02X465400I-5235*
G01*
Y593760D02*
G75*
G02X475870I5235D01*
G01*
G75*
G02X465400I-5235*
G01*
X470400Y632760D02*
G75*
G02X480870I5235D01*
G01*
G75*
G02X470400I-5235*
G01*
X473400Y647760D02*
G75*
G02X483870I5235D01*
G01*
G75*
G02X473400I-5235*
G01*
X475400Y339760D02*
G75*
G02X485870I5235D01*
G01*
G75*
G02X475400I-5235*
G01*
Y363760D02*
G75*
G02X485870I5235D01*
G01*
G75*
G02X475400I-5235*
G01*
Y387760D02*
G75*
G02X485870I5235D01*
G01*
G75*
G02X475400I-5235*
G01*
X487400Y399760D02*
G75*
G02X497870I5235D01*
G01*
G75*
G02X487400I-5235*
G01*
X6985Y471760D02*
G36*
Y399760D01*
X271400*
G75*
G02X281870I5235*
G01*
X295400*
G75*
G02X305870I5235*
G01*
X319400*
G75*
G02X329870I5235*
G01*
X439400*
G75*
G02X449870I5235*
G01*
X463400*
G75*
G02X473870I5235*
G01*
X487400*
G75*
G02X497870I5235*
G01*
X510635*
Y451760*
X496199Y466196*
G75*
G02X486400Y468760I-4564J2564*
G01*
G75*
G02X487345Y471760I5235*
G01*
X91370*
G75*
G02X71635Y452025I-19735*
G01*
G75*
G02X51900Y471760J19735*
G01*
X6985*
G37*
X51900D02*
G36*
G75*
G02X71635Y491495I19735D01*
G01*
G75*
G02X91370Y471760J-19735*
G01*
X487345*
G75*
G02X489635Y473598I4290J-3000*
G01*
Y493760*
X333186*
G75*
G02X336870Y488760I-1551J-5000*
G01*
G75*
G02X326400I-5235*
G01*
G75*
G02X330084Y493760I5235*
G01*
X321186*
G75*
G02X324870Y488760I-1551J-5000*
G01*
G75*
G02X314400I-5235*
G01*
G75*
G02X318084Y493760I5235*
G01*
X309186*
G75*
G02X312870Y488760I-1551J-5000*
G01*
G75*
G02X302400I-5235*
G01*
G75*
G02X306084Y493760I5235*
G01*
X289186*
G75*
G02X292870Y488760I-1551J-5000*
G01*
G75*
G02X282400I-5235*
G01*
G75*
G02X286084Y493760I5235*
G01*
X277186*
G75*
G02X280870Y488760I-1551J-5000*
G01*
G75*
G02X270400I-5235*
G01*
G75*
G02X274084Y493760I5235*
G01*
X265186*
G75*
G02X268870Y488760I-1551J-5000*
G01*
G75*
G02X258400I-5235*
G01*
G75*
G02X262084Y493760I5235*
G01*
X152870*
G75*
G02X142400I-5235*
G01*
X140870*
G75*
G02X130400I-5235*
G01*
X6985*
Y471760*
X51900*
G37*
X6985Y533760D02*
G36*
Y524760D01*
X54072*
G75*
G02X51900Y533760I17562J9000*
G01*
X6985*
G37*
X51900D02*
G36*
G75*
G02X53594Y541760I19734J1D01*
G01*
X6985*
Y533760*
X51900*
G37*
X91370D02*
G36*
G75*
G02X89198Y524760I-19735J1D01*
G01*
X98084*
G75*
G02X94400Y529760I1551J5000*
G01*
G75*
G02X96258Y533760I5235*
G01*
X91370*
G37*
X96258D02*
G36*
G75*
G02X103012I3377J-4000D01*
G01*
X108258*
G75*
G02X115012I3377J-4000*
G01*
X120258*
G75*
G02X127012I3377J-4000*
G01*
X132258*
G75*
G02X139012I3377J-4000*
G01*
X144258*
G75*
G02X151012I3377J-4000*
G01*
X259345*
G75*
G02X258400Y536760I4290J3000*
G01*
G75*
G02X262084Y541760I5235*
G01*
X152870*
G75*
G02X142400I-5235*
G01*
X140870*
G75*
G02X130400I-5235*
G01*
X128870*
G75*
G02X118400I-5235*
G01*
X89676*
G75*
G02X91370Y533760I-18041J-8000*
G01*
X96258*
G37*
X103012D02*
G36*
G75*
G02X104870Y529760I-3377J-4000D01*
G01*
G75*
G02X101186Y524760I-5235*
G01*
X110084*
G75*
G02X106400Y529760I1551J5000*
G01*
G75*
G02X108258Y533760I5235*
G01*
X103012*
G37*
X115012D02*
G36*
G75*
G02X116870Y529760I-3377J-4000D01*
G01*
G75*
G02X113186Y524760I-5235*
G01*
X122084*
G75*
G02X118400Y529760I1551J5000*
G01*
G75*
G02X120258Y533760I5235*
G01*
X115012*
G37*
X127012D02*
G36*
G75*
G02X128870Y529760I-3377J-4000D01*
G01*
G75*
G02X125186Y524760I-5235*
G01*
X134084*
G75*
G02X130400Y529760I1551J5000*
G01*
G75*
G02X132258Y533760I5235*
G01*
X127012*
G37*
X139012D02*
G36*
G75*
G02X140870Y529760I-3377J-4000D01*
G01*
G75*
G02X137186Y524760I-5235*
G01*
X146084*
G75*
G02X142400Y529760I1551J5000*
G01*
G75*
G02X144258Y533760I5235*
G01*
X139012*
G37*
X151012D02*
G36*
G75*
G02X152870Y529760I-3377J-4000D01*
G01*
G75*
G02X149186Y524760I-5235*
G01*
X258400*
G75*
G02X268870I5235*
G01*
X270400*
G75*
G02X280870I5235*
G01*
X282400*
G75*
G02X292870I5235*
G01*
X302400*
G75*
G02X312870I5235*
G01*
X314400*
G75*
G02X324870I5235*
G01*
X326400*
G75*
G02X336870I5235*
G01*
X489635*
Y533760*
X335925*
G75*
G02X327345I-4290J3000*
G01*
X323925*
G75*
G02X315345I-4290J3000*
G01*
X311925*
G75*
G02X303345I-4290J3000*
G01*
X291925*
G75*
G02X283345I-4290J3000*
G01*
X279925*
G75*
G02X271345I-4290J3000*
G01*
X267925*
G75*
G02X259345I-4290J3000*
G01*
X151012*
G37*
X271345D02*
G36*
G75*
G02X270400Y536760I4290J3000D01*
G01*
G75*
G02X274084Y541760I5235*
G01*
X265186*
G75*
G02X268870Y536760I-1551J-5000*
G01*
G75*
G02X267925Y533760I-5235*
G01*
X271345*
G37*
X283345D02*
G36*
G75*
G02X282400Y536760I4290J3000D01*
G01*
G75*
G02X286084Y541760I5235*
G01*
X277186*
G75*
G02X280870Y536760I-1551J-5000*
G01*
G75*
G02X279925Y533760I-5235*
G01*
X283345*
G37*
X303345D02*
G36*
G75*
G02X302400Y536760I4290J3000D01*
G01*
G75*
G02X306084Y541760I5235*
G01*
X289186*
G75*
G02X292870Y536760I-1551J-5000*
G01*
G75*
G02X291925Y533760I-5235*
G01*
X303345*
G37*
X315345D02*
G36*
G75*
G02X314400Y536760I4290J3000D01*
G01*
G75*
G02X318084Y541760I5235*
G01*
X309186*
G75*
G02X312870Y536760I-1551J-5000*
G01*
G75*
G02X311925Y533760I-5235*
G01*
X315345*
G37*
X327345D02*
G36*
G75*
G02X326400Y536760I4290J3000D01*
G01*
G75*
G02X330084Y541760I5235*
G01*
X321186*
G75*
G02X324870Y536760I-1551J-5000*
G01*
G75*
G02X323925Y533760I-5235*
G01*
X327345*
G37*
X489635D02*
G36*
Y541760D01*
X333186*
G75*
G02X336870Y536760I-1551J-5000*
G01*
G75*
G02X335925Y533760I-5235*
G01*
X489635*
G37*
X6985Y595760D02*
G36*
Y589760D01*
X52834*
G75*
G02X51900Y595760I18801J5999*
G01*
X6985*
G37*
X51900D02*
G36*
G75*
G02X52834Y601760I19735J1D01*
G01*
X6985*
Y595760*
X51900*
G37*
X91370D02*
G36*
G75*
G02X90436Y589760I-19736J-1D01*
G01*
X93400*
G75*
G02X103870I5235*
G01*
X105400*
G75*
G02X115870I5235*
G01*
X117400*
G75*
G02X127870I5235*
G01*
X129400*
G75*
G02X139870I5235*
G01*
X141400*
G75*
G02X151870I5235*
G01*
X455258*
G75*
G02X453400Y593760I3377J4000*
G01*
G75*
G02X453797Y595760I5235*
G01*
X91370*
G37*
X453797D02*
G36*
G75*
G02X463473I4838J-2000D01*
G01*
X465797*
G75*
G02X475473I4838J-2000*
G01*
X489635*
Y601760*
X151870*
G75*
G02X141400I-5235*
G01*
X139870*
G75*
G02X129400I-5235*
G01*
X127870*
G75*
G02X117400I-5235*
G01*
X115870*
G75*
G02X105400I-5235*
G01*
X103870*
G75*
G02X93400I-5235*
G01*
X90436*
G75*
G02X91370Y595760I-18802J-5999*
G01*
X453797*
G37*
X463473D02*
G36*
G75*
G02X463870Y593760I-4838J-2000D01*
G01*
G75*
G02X462012Y589760I-5235*
G01*
X467258*
G75*
G02X465400Y593760I3377J4000*
G01*
G75*
G02X465797Y595760I5235*
G01*
X463473*
G37*
X475473D02*
G36*
G75*
G02X475870Y593760I-4838J-2000D01*
G01*
G75*
G02X474012Y589760I-5235*
G01*
X489635*
Y595760*
X475473*
G37*
X6985Y589760D02*
G36*
Y577760D01*
X63544*
G75*
G02X52834Y589760I8091J18000*
G01*
X6985*
G37*
X90436D02*
G36*
G75*
G02X79726Y577760I-18801J6000D01*
G01*
X117400*
G75*
G02X127870I5235*
G01*
X129400*
G75*
G02X139870I5235*
G01*
X141400*
G75*
G02X151870I5235*
G01*
X455258*
G75*
G02X453400Y581760I3377J4000*
G01*
G75*
G02X463870I5235*
G01*
G75*
G02X462012Y577760I-5235*
G01*
X467258*
G75*
G02X465400Y581760I3377J4000*
G01*
G75*
G02X475870I5235*
G01*
G75*
G02X474012Y577760I-5235*
G01*
X489635*
Y589760*
X474012*
G75*
G02X467258I-3377J4000*
G01*
X462012*
G75*
G02X455258I-3377J4000*
G01*
X151870*
G75*
G02X141400I-5235*
G01*
X139870*
G75*
G02X129400I-5235*
G01*
X127870*
G75*
G02X117400I-5235*
G01*
X115870*
G75*
G02X105400I-5235*
G01*
X103870*
G75*
G02X93400I-5235*
G01*
X90436*
G37*
X52834Y601760D02*
G36*
G75*
G02X63544Y613760I18801J-6000D01*
G01*
X6985*
Y601760*
X52834*
G37*
X93400D02*
G36*
G75*
G02X103870I5235D01*
G01*
X105400*
G75*
G02X115870I5235*
G01*
X117400*
G75*
G02X127870I5235*
G01*
X129400*
G75*
G02X139870I5235*
G01*
X141400*
G75*
G02X151870I5235*
G01*
X489635*
Y613760*
X151870*
G75*
G02X141400I-5235*
G01*
X139870*
G75*
G02X129400I-5235*
G01*
X127870*
G75*
G02X117400I-5235*
G01*
X115870*
G75*
G02X105400I-5235*
G01*
X103870*
G75*
G02X93400I-5235*
G01*
X79726*
G75*
G02X90436Y601760I-8091J-18000*
G01*
X93400*
G37*
X63544Y613760D02*
G36*
G75*
G02X71635Y615495I8092J-18001D01*
G01*
G75*
G02X79726Y613760J-19735*
G01*
X93400*
G75*
G02X103870I5235*
G01*
X105400*
G75*
G02X115870I5235*
G01*
X117400*
G75*
G02X127870I5235*
G01*
X129400*
G75*
G02X139870I5235*
G01*
X141400*
G75*
G02X151870I5235*
G01*
X489635*
Y632760*
X480870*
G75*
G02X470400I-5235*
G01*
X6985*
Y613760*
X63544*
G37*
X6985Y505760D02*
G36*
Y493760D01*
X130400*
G75*
G02X140870I5235*
G01*
X142400*
G75*
G02X152870I5235*
G01*
X262084*
G75*
G02X265186I1551J-5000*
G01*
X274084*
G75*
G02X277186I1551J-5000*
G01*
X286084*
G75*
G02X289186I1551J-5000*
G01*
X306084*
G75*
G02X309186I1551J-5000*
G01*
X318084*
G75*
G02X321186I1551J-5000*
G01*
X330084*
G75*
G02X333186I1551J-5000*
G01*
X489635*
Y505760*
X418925*
G75*
G02X410345I-4290J3000*
G01*
X406925*
G75*
G02X398345I-4290J3000*
G01*
X394925*
G75*
G02X386345I-4290J3000*
G01*
X378925*
G75*
G02X370345I-4290J3000*
G01*
X366925*
G75*
G02X358345I-4290J3000*
G01*
X354925*
G75*
G02X346345I-4290J3000*
G01*
X333186*
G75*
G02X336870Y500760I-1551J-5000*
G01*
G75*
G02X326400I-5235*
G01*
G75*
G02X330084Y505760I5235*
G01*
X321186*
G75*
G02X324870Y500760I-1551J-5000*
G01*
G75*
G02X314400I-5235*
G01*
G75*
G02X318084Y505760I5235*
G01*
X309186*
G75*
G02X312870Y500760I-1551J-5000*
G01*
G75*
G02X302400I-5235*
G01*
G75*
G02X306084Y505760I5235*
G01*
X289186*
G75*
G02X292870Y500760I-1551J-5000*
G01*
G75*
G02X282400I-5235*
G01*
G75*
G02X286084Y505760I5235*
G01*
X277186*
G75*
G02X280870Y500760I-1551J-5000*
G01*
G75*
G02X270400I-5235*
G01*
G75*
G02X274084Y505760I5235*
G01*
X265186*
G75*
G02X268870Y500760I-1551J-5000*
G01*
G75*
G02X258400I-5235*
G01*
G75*
G02X262084Y505760I5235*
G01*
X249925*
G75*
G02X241345I-4290J3000*
G01*
X237925*
G75*
G02X229345I-4290J3000*
G01*
X225925*
G75*
G02X217345I-4290J3000*
G01*
X209925*
G75*
G02X201345I-4290J3000*
G01*
X197925*
G75*
G02X189345I-4290J3000*
G01*
X185925*
G75*
G02X177345I-4290J3000*
G01*
X152870*
G75*
G02X142400I-5235*
G01*
X140870*
G75*
G02X130400I-5235*
G01*
X128870*
G75*
G02X118400I-5235*
G01*
X116870*
G75*
G02X106400I-5235*
G01*
X104870*
G75*
G02X94400I-5235*
G01*
X6985*
G37*
X94400D02*
G36*
G75*
G02X104870I5235D01*
G01*
X106400*
G75*
G02X116870I5235*
G01*
X118400*
G75*
G02X128870I5235*
G01*
X130400*
G75*
G02X140870I5235*
G01*
X142400*
G75*
G02X152870I5235*
G01*
X177345*
G75*
G02X176400Y508760I4290J3000*
G01*
G75*
G02X186870I5235*
G01*
G75*
G02X185925Y505760I-5235*
G01*
X189345*
G75*
G02X188400Y508760I4290J3000*
G01*
G75*
G02X198870I5235*
G01*
G75*
G02X197925Y505760I-5235*
G01*
X201345*
G75*
G02X200400Y508760I4290J3000*
G01*
G75*
G02X210870I5235*
G01*
G75*
G02X209925Y505760I-5235*
G01*
X217345*
G75*
G02X216400Y508760I4290J3000*
G01*
G75*
G02X226870I5235*
G01*
G75*
G02X225925Y505760I-5235*
G01*
X229345*
G75*
G02X228400Y508760I4290J3000*
G01*
G75*
G02X238870I5235*
G01*
G75*
G02X237925Y505760I-5235*
G01*
X241345*
G75*
G02X240400Y508760I4290J3000*
G01*
G75*
G02X250870I5235*
G01*
G75*
G02X249925Y505760I-5235*
G01*
X262084*
G75*
G02X265186I1551J-5000*
G01*
X274084*
G75*
G02X277186I1551J-5000*
G01*
X286084*
G75*
G02X289186I1551J-5000*
G01*
X306084*
G75*
G02X309186I1551J-5000*
G01*
X318084*
G75*
G02X321186I1551J-5000*
G01*
X330084*
G75*
G02X333186I1551J-5000*
G01*
X346345*
G75*
G02X345400Y508760I4290J3000*
G01*
G75*
G02X355870I5235*
G01*
G75*
G02X354925Y505760I-5235*
G01*
X358345*
G75*
G02X357400Y508760I4290J3000*
G01*
G75*
G02X367870I5235*
G01*
G75*
G02X366925Y505760I-5235*
G01*
X370345*
G75*
G02X369400Y508760I4290J3000*
G01*
G75*
G02X379870I5235*
G01*
G75*
G02X378925Y505760I-5235*
G01*
X386345*
G75*
G02X385400Y508760I4290J3000*
G01*
G75*
G02X395870I5235*
G01*
G75*
G02X394925Y505760I-5235*
G01*
X398345*
G75*
G02X397400Y508760I4290J3000*
G01*
G75*
G02X407870I5235*
G01*
G75*
G02X406925Y505760I-5235*
G01*
X410345*
G75*
G02X409400Y508760I4290J3000*
G01*
G75*
G02X419870I5235*
G01*
G75*
G02X418925Y505760I-5235*
G01*
X489635*
Y517760*
X333186*
G75*
G02X336870Y512760I-1551J-5000*
G01*
G75*
G02X326400I-5235*
G01*
G75*
G02X330084Y517760I5235*
G01*
X321186*
G75*
G02X324870Y512760I-1551J-5000*
G01*
G75*
G02X314400I-5235*
G01*
G75*
G02X318084Y517760I5235*
G01*
X309186*
G75*
G02X312870Y512760I-1551J-5000*
G01*
G75*
G02X302400I-5235*
G01*
G75*
G02X306084Y517760I5235*
G01*
X289186*
G75*
G02X292870Y512760I-1551J-5000*
G01*
G75*
G02X282400I-5235*
G01*
G75*
G02X286084Y517760I5235*
G01*
X277186*
G75*
G02X280870Y512760I-1551J-5000*
G01*
G75*
G02X270400I-5235*
G01*
G75*
G02X274084Y517760I5235*
G01*
X265186*
G75*
G02X268870Y512760I-1551J-5000*
G01*
G75*
G02X258400I-5235*
G01*
G75*
G02X262084Y517760I5235*
G01*
X152870*
G75*
G02X142400I-5235*
G01*
X140870*
G75*
G02X130400I-5235*
G01*
X128870*
G75*
G02X118400I-5235*
G01*
X116870*
G75*
G02X106400I-5235*
G01*
X104870*
G75*
G02X94400I-5235*
G01*
X83188*
G75*
G02X71635Y514025I-11553J16000*
G01*
G75*
G02X60082Y517760J19735*
G01*
X6985*
Y505760*
X94400*
G37*
X60082Y517760D02*
G36*
G75*
G02X54072Y524760I11553J15999D01*
G01*
X6985*
Y517760*
X60082*
G37*
X94400D02*
G36*
G75*
G02X104870I5235D01*
G01*
X106400*
G75*
G02X116870I5235*
G01*
X118400*
G75*
G02X128870I5235*
G01*
X130400*
G75*
G02X140870I5235*
G01*
X142400*
G75*
G02X152870I5235*
G01*
X262084*
G75*
G02X265186I1551J-5000*
G01*
X274084*
G75*
G02X277186I1551J-5000*
G01*
X286084*
G75*
G02X289186I1551J-5000*
G01*
X306084*
G75*
G02X309186I1551J-5000*
G01*
X318084*
G75*
G02X321186I1551J-5000*
G01*
X330084*
G75*
G02X333186I1551J-5000*
G01*
X489635*
Y524760*
X336870*
G75*
G02X326400I-5235*
G01*
X324870*
G75*
G02X314400I-5235*
G01*
X312870*
G75*
G02X302400I-5235*
G01*
X292870*
G75*
G02X282400I-5235*
G01*
X280870*
G75*
G02X270400I-5235*
G01*
X268870*
G75*
G02X258400I-5235*
G01*
X149186*
G75*
G02X146084I-1551J5000*
G01*
X137186*
G75*
G02X134084I-1551J5000*
G01*
X125186*
G75*
G02X122084I-1551J5000*
G01*
X113186*
G75*
G02X110084I-1551J5000*
G01*
X101186*
G75*
G02X98084I-1551J5000*
G01*
X89198*
G75*
G02X83188Y517760I-17563J8999*
G01*
X94400*
G37*
X52851Y339760D02*
G36*
G75*
G02X45482Y320110I-27216J-1000D01*
G01*
X425788*
G75*
G02X418400Y338760I19847J18650*
G01*
G75*
G02X418418Y339760I27225J10*
G01*
X413870*
G75*
G02X403400I-5235*
G01*
X389870*
G75*
G02X379400I-5235*
G01*
X365870*
G75*
G02X355400I-5235*
G01*
X341870*
G75*
G02X331400I-5235*
G01*
X317870*
G75*
G02X307400I-5235*
G01*
X293870*
G75*
G02X283400I-5235*
G01*
X269870*
G75*
G02X259400I-5235*
G01*
X245870*
G75*
G02X235400I-5235*
G01*
X221870*
G75*
G02X211400I-5235*
G01*
X197870*
G75*
G02X187400I-5235*
G01*
X173870*
G75*
G02X163400I-5235*
G01*
X149870*
G75*
G02X139400I-5235*
G01*
X125870*
G75*
G02X115400I-5235*
G01*
X52851*
G37*
X115400D02*
G36*
G75*
G02X125870I5235D01*
G01*
X139400*
G75*
G02X149870I5235*
G01*
X163400*
G75*
G02X173870I5235*
G01*
X187400*
G75*
G02X197870I5235*
G01*
X211400*
G75*
G02X221870I5235*
G01*
X235400*
G75*
G02X245870I5235*
G01*
X259400*
G75*
G02X269870I5235*
G01*
X283400*
G75*
G02X293870I5235*
G01*
X307400*
G75*
G02X317870I5235*
G01*
X331400*
G75*
G02X341870I5235*
G01*
X355400*
G75*
G02X365870I5235*
G01*
X379400*
G75*
G02X389870I5235*
G01*
X403400*
G75*
G02X413870I5235*
G01*
X418418*
G75*
G02X421703Y351760I27217J-1001*
G01*
X401870*
G75*
G02X391400I-5235*
G01*
X377870*
G75*
G02X367400I-5235*
G01*
X353870*
G75*
G02X343400I-5235*
G01*
X329870*
G75*
G02X319400I-5235*
G01*
X305870*
G75*
G02X295400I-5235*
G01*
X281870*
G75*
G02X271400I-5235*
G01*
X257870*
G75*
G02X247400I-5235*
G01*
X233870*
G75*
G02X223400I-5235*
G01*
X209870*
G75*
G02X199400I-5235*
G01*
X185870*
G75*
G02X175400I-5235*
G01*
X161870*
G75*
G02X151400I-5235*
G01*
X137870*
G75*
G02X127400I-5235*
G01*
X49567*
G75*
G02X52851Y339760I-23932J-12999*
G01*
X115400*
G37*
X472852D02*
G36*
G75*
G02X472870Y338760I-27220J-990D01*
G01*
G75*
G02X465482Y320110I-27235J1*
G01*
X510635*
Y339760*
X485870*
G75*
G02X475400I-5235*
G01*
X472852*
G37*
X475400D02*
G36*
G75*
G02X485870I5235D01*
G01*
X510635*
Y363760*
X485870*
G75*
G02X475400I-5235*
G01*
X456440*
G75*
G02X472852Y339760I-10805J-25000*
G01*
X475400*
G37*
X36440Y363760D02*
G36*
G75*
G02X49567Y351760I-10806J-25000D01*
G01*
X127400*
G75*
G02X137870I5235*
G01*
X151400*
G75*
G02X161870I5235*
G01*
X175400*
G75*
G02X185870I5235*
G01*
X199400*
G75*
G02X209870I5235*
G01*
X223400*
G75*
G02X233870I5235*
G01*
X247400*
G75*
G02X257870I5235*
G01*
X271400*
G75*
G02X281870I5235*
G01*
X295400*
G75*
G02X305870I5235*
G01*
X319400*
G75*
G02X329870I5235*
G01*
X343400*
G75*
G02X353870I5235*
G01*
X367400*
G75*
G02X377870I5235*
G01*
X391400*
G75*
G02X401870I5235*
G01*
X421703*
G75*
G02X434830Y363760I23933J-13000*
G01*
X413870*
G75*
G02X403400I-5235*
G01*
X389870*
G75*
G02X379400I-5235*
G01*
X365870*
G75*
G02X355400I-5235*
G01*
X341870*
G75*
G02X331400I-5235*
G01*
X317870*
G75*
G02X307400I-5235*
G01*
X293870*
G75*
G02X283400I-5235*
G01*
X269870*
G75*
G02X259400I-5235*
G01*
X245870*
G75*
G02X235400I-5235*
G01*
X221870*
G75*
G02X211400I-5235*
G01*
X197870*
G75*
G02X187400I-5235*
G01*
X173870*
G75*
G02X163400I-5235*
G01*
X149870*
G75*
G02X139400I-5235*
G01*
X125870*
G75*
G02X115400I-5235*
G01*
X36440*
G37*
X115400D02*
G36*
G75*
G02X125870I5235D01*
G01*
X139400*
G75*
G02X149870I5235*
G01*
X163400*
G75*
G02X173870I5235*
G01*
X187400*
G75*
G02X197870I5235*
G01*
X211400*
G75*
G02X221870I5235*
G01*
X235400*
G75*
G02X245870I5235*
G01*
X259400*
G75*
G02X269870I5235*
G01*
X283400*
G75*
G02X293870I5235*
G01*
X307400*
G75*
G02X317870I5235*
G01*
X331400*
G75*
G02X341870I5235*
G01*
X355400*
G75*
G02X365870I5235*
G01*
X379400*
G75*
G02X389870I5235*
G01*
X403400*
G75*
G02X413870I5235*
G01*
X434830*
G75*
G02X456440I10805J-24999*
G01*
X475400*
G75*
G02X485870I5235*
G01*
X510635*
Y375760*
X473870*
G75*
G02X463400I-5235*
G01*
X449870*
G75*
G02X439400I-5235*
G01*
X329870*
G75*
G02X319400I-5235*
G01*
X305870*
G75*
G02X295400I-5235*
G01*
X281870*
G75*
G02X271400I-5235*
G01*
X6985*
Y358607*
G75*
G02X36440Y363760I18650J-19847*
G01*
X115400*
G37*
X6985Y577760D02*
G36*
Y569760D01*
X453400*
G75*
G02X463870I5235*
G01*
X465400*
G75*
G02X475870I5235*
G01*
X489635*
Y577760*
X474012*
G75*
G02X467258I-3377J4000*
G01*
X462012*
G75*
G02X455258I-3377J4000*
G01*
X151870*
G75*
G02X141400I-5235*
G01*
X139870*
G75*
G02X129400I-5235*
G01*
X127870*
G75*
G02X117400I-5235*
G01*
X79726*
G75*
G02X71635Y576025I-8091J18000*
G01*
G75*
G02X63544Y577760I1J19736*
G01*
X6985*
G37*
X53594Y541760D02*
G36*
G75*
G02X71635Y553495I18041J-8000D01*
G01*
G75*
G02X89676Y541760J-19735*
G01*
X118400*
G75*
G02X128870I5235*
G01*
X130400*
G75*
G02X140870I5235*
G01*
X142400*
G75*
G02X152870I5235*
G01*
X262084*
G75*
G02X265186I1551J-5000*
G01*
X274084*
G75*
G02X277186I1551J-5000*
G01*
X286084*
G75*
G02X289186I1551J-5000*
G01*
X306084*
G75*
G02X309186I1551J-5000*
G01*
X318084*
G75*
G02X321186I1551J-5000*
G01*
X330084*
G75*
G02X333186I1551J-5000*
G01*
X489635*
Y553760*
X474012*
G75*
G02X467258I-3377J4000*
G01*
X462012*
G75*
G02X455258I-3377J4000*
G01*
X152870*
G75*
G02X142400I-5235*
G01*
X140870*
G75*
G02X130400I-5235*
G01*
X128870*
G75*
G02X118400I-5235*
G01*
X6985*
Y541760*
X53594*
G37*
X118400Y553760D02*
G36*
G75*
G02X128870I5235D01*
G01*
X130400*
G75*
G02X140870I5235*
G01*
X142400*
G75*
G02X152870I5235*
G01*
X455258*
G75*
G02X453400Y557760I3377J4000*
G01*
G75*
G02X463870I5235*
G01*
G75*
G02X462012Y553760I-5235*
G01*
X467258*
G75*
G02X465400Y557760I3377J4000*
G01*
G75*
G02X475870I5235*
G01*
G75*
G02X474012Y553760I-5235*
G01*
X489635*
Y569760*
X475870*
G75*
G02X465400I-5235*
G01*
X463870*
G75*
G02X453400I-5235*
G01*
X6985*
Y553760*
X118400*
G37*
X6985Y747760D02*
G36*
Y647760D01*
X473400*
G75*
G02X483870I5235*
G01*
X489635*
Y650700*
X486575Y653760*
X458635*
X444635Y667760*
Y733760*
X430635Y747760*
X388870*
G75*
G02X378400I-5235*
G01*
X376870*
G75*
G02X366400I-5235*
G01*
X364870*
G75*
G02X354400I-5235*
G01*
X326870*
G75*
G02X316400I-5235*
G01*
X314870*
G75*
G02X304400I-5235*
G01*
X302870*
G75*
G02X292400I-5235*
G01*
X261870*
G75*
G02X251400I-5235*
G01*
X249870*
G75*
G02X239400I-5235*
G01*
X237870*
G75*
G02X227400I-5235*
G01*
X199870*
G75*
G02X189400I-5235*
G01*
X187870*
G75*
G02X177400I-5235*
G01*
X175870*
G75*
G02X165400I-5235*
G01*
X6985*
G37*
X165400D02*
G36*
G75*
G02X175870I5235D01*
G01*
X177400*
G75*
G02X187870I5235*
G01*
X189400*
G75*
G02X199870I5235*
G01*
X227400*
G75*
G02X237870I5235*
G01*
X239400*
G75*
G02X249870I5235*
G01*
X251400*
G75*
G02X261870I5235*
G01*
X292400*
G75*
G02X302870I5235*
G01*
X304400*
G75*
G02X314870I5235*
G01*
X316400*
G75*
G02X326870I5235*
G01*
X354400*
G75*
G02X364870I5235*
G01*
X366400*
G75*
G02X376870I5235*
G01*
X378400*
G75*
G02X388870I5235*
G01*
X430635*
X418635Y759760*
X388870*
G75*
G02X378400I-5235*
G01*
X376870*
G75*
G02X366400I-5235*
G01*
X364870*
G75*
G02X354400I-5235*
G01*
X326870*
G75*
G02X316400I-5235*
G01*
X314870*
G75*
G02X304400I-5235*
G01*
X302870*
G75*
G02X292400I-5235*
G01*
X261870*
G75*
G02X251400I-5235*
G01*
X249870*
G75*
G02X239400I-5235*
G01*
X237870*
G75*
G02X227400I-5235*
G01*
X199870*
G75*
G02X189400I-5235*
G01*
X187870*
G75*
G02X177400I-5235*
G01*
X175870*
G75*
G02X165400I-5235*
G01*
X6985*
Y747760*
X165400*
G37*
Y759760D02*
G36*
G75*
G02X175870I5235D01*
G01*
X177400*
G75*
G02X187870I5235*
G01*
X189400*
G75*
G02X199870I5235*
G01*
X227400*
G75*
G02X237870I5235*
G01*
X239400*
G75*
G02X249870I5235*
G01*
X251400*
G75*
G02X261870I5235*
G01*
X292400*
G75*
G02X302870I5235*
G01*
X304400*
G75*
G02X314870I5235*
G01*
X316400*
G75*
G02X326870I5235*
G01*
X354400*
G75*
G02X364870I5235*
G01*
X366400*
G75*
G02X376870I5235*
G01*
X378400*
G75*
G02X388870I5235*
G01*
X418635*
X416635Y761760*
Y771760*
X388870*
G75*
G02X378400I-5235*
G01*
X376870*
G75*
G02X366400I-5235*
G01*
X364870*
G75*
G02X354400I-5235*
G01*
X326870*
G75*
G02X316400I-5235*
G01*
X314870*
G75*
G02X304400I-5235*
G01*
X302870*
G75*
G02X292400I-5235*
G01*
X261870*
G75*
G02X251400I-5235*
G01*
X249870*
G75*
G02X239400I-5235*
G01*
X237870*
G75*
G02X227400I-5235*
G01*
X199870*
G75*
G02X189400I-5235*
G01*
X187870*
G75*
G02X177400I-5235*
G01*
X175870*
G75*
G02X165400I-5235*
G01*
X46912*
G75*
G02X6985Y768913I-21277J17000*
G01*
Y759760*
X165400*
G37*
Y771760D02*
G36*
G75*
G02X175870I5235D01*
G01*
X177400*
G75*
G02X187870I5235*
G01*
X189400*
G75*
G02X199870I5235*
G01*
X227400*
G75*
G02X237870I5235*
G01*
X239400*
G75*
G02X249870I5235*
G01*
X251400*
G75*
G02X261870I5235*
G01*
X292400*
G75*
G02X302870I5235*
G01*
X304400*
G75*
G02X314870I5235*
G01*
X316400*
G75*
G02X326870I5235*
G01*
X354400*
G75*
G02X364870I5235*
G01*
X366400*
G75*
G02X376870I5235*
G01*
X378400*
G75*
G02X388870I5235*
G01*
X416635*
Y783760*
X388870*
G75*
G02X378400I-5235*
G01*
X376870*
G75*
G02X366400I-5235*
G01*
X364870*
G75*
G02X354400I-5235*
G01*
X326870*
G75*
G02X316400I-5235*
G01*
X314870*
G75*
G02X304400I-5235*
G01*
X302870*
G75*
G02X292400I-5235*
G01*
X261870*
G75*
G02X251400I-5235*
G01*
X249870*
G75*
G02X239400I-5235*
G01*
X237870*
G75*
G02X227400I-5235*
G01*
X199870*
G75*
G02X189400I-5235*
G01*
X187870*
G75*
G02X177400I-5235*
G01*
X175870*
G75*
G02X165400I-5235*
G01*
X52407*
G75*
G02X46912Y771760I-26771J5001*
G01*
X165400*
G37*
Y783760D02*
G36*
G75*
G02X175870I5235D01*
G01*
X177400*
G75*
G02X187870I5235*
G01*
X189400*
G75*
G02X199870I5235*
G01*
X227400*
G75*
G02X237870I5235*
G01*
X239400*
G75*
G02X249870I5235*
G01*
X251400*
G75*
G02X261870I5235*
G01*
X292400*
G75*
G02X302870I5235*
G01*
X304400*
G75*
G02X314870I5235*
G01*
X316400*
G75*
G02X326870I5235*
G01*
X354400*
G75*
G02X364870I5235*
G01*
X366400*
G75*
G02X376870I5235*
G01*
X378400*
G75*
G02X388870I5235*
G01*
X416635*
Y807410*
X45482*
G75*
G02X52407Y783760I-19847J-18650*
G01*
X165400*
G37*
X6985Y387760D02*
G36*
Y375760D01*
X271400*
G75*
G02X281870I5235*
G01*
X295400*
G75*
G02X305870I5235*
G01*
X319400*
G75*
G02X329870I5235*
G01*
X439400*
G75*
G02X449870I5235*
G01*
X463400*
G75*
G02X473870I5235*
G01*
X510635*
Y387760*
X485870*
G75*
G02X475400I-5235*
G01*
X461870*
G75*
G02X451400I-5235*
G01*
X437870*
G75*
G02X427400I-5235*
G01*
X341870*
G75*
G02X331400I-5235*
G01*
X317870*
G75*
G02X307400I-5235*
G01*
X293870*
G75*
G02X283400I-5235*
G01*
X269870*
G75*
G02X259400I-5235*
G01*
X6985*
G37*
X259400D02*
G36*
G75*
G02X269870I5235D01*
G01*
X283400*
G75*
G02X293870I5235*
G01*
X307400*
G75*
G02X317870I5235*
G01*
X331400*
G75*
G02X341870I5235*
G01*
X427400*
G75*
G02X437870I5235*
G01*
X451400*
G75*
G02X461870I5235*
G01*
X475400*
G75*
G02X485870I5235*
G01*
X510635*
Y399760*
X497870*
G75*
G02X487400I-5235*
G01*
X473870*
G75*
G02X463400I-5235*
G01*
X449870*
G75*
G02X439400I-5235*
G01*
X329870*
G75*
G02X319400I-5235*
G01*
X305870*
G75*
G02X295400I-5235*
G01*
X281870*
G75*
G02X271400I-5235*
G01*
X6985*
Y387760*
X259400*
G37*
X470400Y632760D02*
G36*
G75*
G02X480870I5235D01*
G01*
X489635*
Y647760*
X483870*
G75*
G02X473400I-5235*
G01*
X6985*
Y632760*
X470400*
G37*
X420635Y807410D02*
Y763760D01*
X441635Y742760*
X472635*
X494635Y720760*
X594345*
G75*
G02X593400Y723760I4290J3000*
G01*
G75*
G02X603135Y726435I5235*
G01*
G75*
G02X612870Y723760I4500J-2675*
G01*
G75*
G02X611925Y720760I-5235*
G01*
X620635*
X632635Y708760*
Y616760*
X621635Y605760*
Y538899*
G75*
G02Y528621I-1000J-5139*
G01*
Y511042*
X622400Y511807*
G75*
G02X632870Y511760I5235J-47*
G01*
G75*
G02X627682Y506525I-5235*
G01*
X621635Y500478*
Y425311*
G75*
G02Y422209I-5001J-1551*
G01*
Y413311*
G75*
G02Y410209I-5001J-1551*
G01*
Y401311*
G75*
G02Y398209I-5001J-1551*
G01*
Y373760*
X639635Y355760*
Y320110*
X794285*
Y394902*
G75*
G02X747400Y413760I-19650J18858*
G01*
G75*
G02X794285Y432618I27235*
G01*
Y694902*
G75*
G02X747400Y713760I-19650J18858*
G01*
G75*
G02X794285Y732618I27235*
G01*
Y807410*
X420635*
X437900Y777760D02*
G75*
G02X448370I5235D01*
G01*
G75*
G02X437900I-5235*
G01*
X535370Y790260D02*
G75*
G02X514900I-10235D01*
G01*
G75*
G02X535370I10235*
G01*
X554400Y726160D02*
G75*
G02X564870I5235D01*
G01*
G75*
G02X554400I-5235*
G01*
X560370Y790260D02*
G75*
G02X539900I-10235D01*
G01*
G75*
G02X560370I10235*
G01*
X585370D02*
G75*
G02X564900I-10235D01*
G01*
G75*
G02X585370I10235*
G01*
X610370D02*
G75*
G02X589900I-10235D01*
G01*
G75*
G02X610370I10235*
G01*
X620225Y781280D02*
G75*
G02X614900Y790260I4910J8980D01*
G01*
G75*
G02X635370I10235*
G01*
G75*
G02X631045Y781904I-10235*
G01*
Y778001*
X631876Y777170*
X713635*
G75*
G02X717460Y775585I-1J-5410*
G01*
X728460Y764585*
G75*
G02X730045Y760760I-3825J-3826*
G01*
Y754760*
G75*
G02X728460Y750935I-5410J1*
G01*
X720045Y742519*
Y729001*
X728460Y720585*
G75*
G02X730045Y716760I-3825J-3826*
G01*
Y657595*
G75*
G02Y644925I-5410J-6335*
G01*
Y512095*
G75*
G02X732966Y505760I-5410J-6335*
G01*
G75*
G02X716304I-8331*
G01*
G75*
G02X719225Y512095I8331*
G01*
Y644925*
G75*
G02Y657595I5410J6335*
G01*
Y714519*
X710810Y722935*
G75*
G02X709225Y726760I3825J3826*
G01*
Y744760*
G75*
G02X710810Y748585I5410J-1*
G01*
X719225Y757001*
Y758519*
X711394Y766350*
X629635*
G75*
G02X625810Y767935I1J5410*
G01*
X621810Y771935*
G75*
G02X620225Y775760I3825J3826*
G01*
Y781280*
X627400Y521760D02*
G75*
G02X637870I5235D01*
G01*
G75*
G02X627400I-5235*
G01*
Y533760D02*
G75*
G02X637870I5235D01*
G01*
G75*
G02X627400I-5235*
G01*
X628635Y406525D02*
G75*
G02Y416995J5235D01*
G01*
G75*
G02Y406525J-5235*
G01*
Y418525D02*
G75*
G02Y428995J5235D01*
G01*
G75*
G02Y418525J-5235*
G01*
X639400Y521760D02*
G75*
G02X649870I5235D01*
G01*
G75*
G02X639400I-5235*
G01*
Y533760D02*
G75*
G02X649870I5235D01*
G01*
G75*
G02X639400I-5235*
G01*
X649400Y680760D02*
G75*
G02X659870I5235D01*
G01*
G75*
G02X649400I-5235*
G01*
X652400Y702760D02*
G75*
G02X662870I5235D01*
G01*
G75*
G02X652400I-5235*
G01*
Y714760D02*
G75*
G02X662870I5235D01*
G01*
G75*
G02X652400I-5235*
G01*
Y726760D02*
G75*
G02X662870I5235D01*
G01*
G75*
G02X652400I-5235*
G01*
Y738760D02*
G75*
G02X662870I5235D01*
G01*
G75*
G02X652400I-5235*
G01*
X660370Y347760D02*
G75*
G02X639900I-10235D01*
G01*
G75*
G02X660370I10235*
G01*
Y790260D02*
G75*
G02X639900I-10235D01*
G01*
G75*
G02X660370I10235*
G01*
X664400Y702760D02*
G75*
G02X674870I5235D01*
G01*
G75*
G02X664400I-5235*
G01*
Y714760D02*
G75*
G02X674870I5235D01*
G01*
G75*
G02X664400I-5235*
G01*
Y726760D02*
G75*
G02X674870I5235D01*
G01*
G75*
G02X664400I-5235*
G01*
Y738760D02*
G75*
G02X674870I5235D01*
G01*
G75*
G02X664400I-5235*
G01*
X670735Y523015D02*
G75*
G02Y503305J-9855D01*
G01*
G75*
G02Y523015J9855*
G01*
Y548415D02*
G75*
G02Y528705J-9855D01*
G01*
G75*
G02Y548415J9855*
G01*
Y573815D02*
G75*
G02Y554105J-9855D01*
G01*
G75*
G02Y573815J9855*
G01*
Y599215D02*
G75*
G02Y579505J-9855D01*
G01*
G75*
G02Y599215J9855*
G01*
X685370Y347760D02*
G75*
G02X664900I-10235D01*
G01*
G75*
G02X685370I10235*
G01*
Y790260D02*
G75*
G02X664900I-10235D01*
G01*
G75*
G02X685370I10235*
G01*
X688635Y423525D02*
G75*
G02Y433995J5235D01*
G01*
G75*
G02Y423525J-5235*
G01*
Y435525D02*
G75*
G02Y445995J5235D01*
G01*
G75*
G02Y435525J-5235*
G01*
Y447525D02*
G75*
G02Y457995J5235D01*
G01*
G75*
G02Y447525J-5235*
G01*
X696135Y523015D02*
G75*
G02Y503305J-9855D01*
G01*
G75*
G02Y523015J9855*
G01*
Y548415D02*
G75*
G02Y528705J-9855D01*
G01*
G75*
G02Y548415J9855*
G01*
Y573815D02*
G75*
G02Y554105J-9855D01*
G01*
G75*
G02Y573815J9855*
G01*
Y599215D02*
G75*
G02Y579505J-9855D01*
G01*
G75*
G02Y599215J9855*
G01*
X697400Y638760D02*
G75*
G02X707870I5235D01*
G01*
G75*
G02X697400I-5235*
G01*
X700635Y435525D02*
G75*
G02Y445995J5235D01*
G01*
G75*
G02Y435525J-5235*
G01*
Y447525D02*
G75*
G02Y457995J5235D01*
G01*
G75*
G02Y447525J-5235*
G01*
X704520Y657644D02*
G75*
G02X704400Y658760I5113J1114D01*
G01*
G75*
G02X714870I5235*
G01*
G75*
G02X707750Y653876I-5235*
G01*
G75*
G02X707870Y652760I-5113J-1114*
G01*
G75*
G02X697400I-5235*
G01*
G75*
G02X704520Y657644I5235*
G01*
X710370Y347760D02*
G75*
G02X689900I-10235D01*
G01*
G75*
G02X710370I10235*
G01*
Y790260D02*
G75*
G02X689900I-10235D01*
G01*
G75*
G02X710370I10235*
G01*
X721400Y734760D02*
G75*
G02X731870I5235D01*
G01*
G75*
G02X721400I-5235*
G01*
X731400Y681760D02*
G75*
G02X741870I5235D01*
G01*
G75*
G02X731400I-5235*
G01*
X735370Y347760D02*
G75*
G02X714900I-10235D01*
G01*
G75*
G02X735370I10235*
G01*
Y790260D02*
G75*
G02X714900I-10235D01*
G01*
G75*
G02X735370I10235*
G01*
X757400Y606260D02*
G75*
G02X767870I5235D01*
G01*
G75*
G02X757400I-5235*
G01*
X760370Y347760D02*
G75*
G02X739900I-10235D01*
G01*
G75*
G02X760370I10235*
G01*
X420635Y777760D02*
G36*
Y763760D01*
X441635Y742760*
X472635*
X476635Y738760*
X652400*
G75*
G02X662870I5235*
G01*
X664400*
G75*
G02X674870I5235*
G01*
X709225*
Y744760*
G75*
G02X710810Y748585I5410J-1*
G01*
X719225Y757001*
Y758519*
X711394Y766350*
X629635*
G75*
G02X625810Y767935I1J5410*
G01*
X621810Y771935*
G75*
G02X620225Y775760I3825J3826*
G01*
Y777760*
X448370*
G75*
G02X437900I-5235*
G01*
X420635*
G37*
X437900D02*
G36*
G75*
G02X448370I5235D01*
G01*
X620225*
Y781280*
G75*
G02X614900Y790260I4910J8980*
G01*
X610370*
G75*
G02X589900I-10235*
G01*
X585370*
G75*
G02X564900I-10235*
G01*
X560370*
G75*
G02X539900I-10235*
G01*
X535370*
G75*
G02X514900I-10235*
G01*
X420635*
Y777760*
X437900*
G37*
X631286D02*
G36*
X631876Y777170D01*
X713635*
G75*
G02X717460Y775585I-1J-5410*
G01*
X728460Y764585*
G75*
G02X730045Y760760I-3825J-3826*
G01*
Y754760*
G75*
G02X728460Y750935I-5410J1*
G01*
X720045Y742519*
Y738760*
X723258*
G75*
G02X730012I3377J-4000*
G01*
X763830*
G75*
G02X794285Y732618I10805J-25000*
G01*
Y777760*
X631286*
G37*
X794285D02*
G36*
Y790260D01*
X735370*
G75*
G02X714900I-10235*
G01*
X710370*
G75*
G02X689900I-10235*
G01*
X685370*
G75*
G02X664900I-10235*
G01*
X660370*
G75*
G02X639900I-10235*
G01*
X635370*
G75*
G02X631045Y781904I-10235*
G01*
Y778001*
X631286Y777760*
X794285*
G37*
X514900Y790260D02*
G36*
G75*
G02X535370I10235D01*
G01*
X539900*
G75*
G02X560370I10235*
G01*
X564900*
G75*
G02X585370I10235*
G01*
X589900*
G75*
G02X610370I10235*
G01*
X614900*
G75*
G02X635370I10235*
G01*
X639900*
G75*
G02X660370I10235*
G01*
X664900*
G75*
G02X685370I10235*
G01*
X689900*
G75*
G02X710370I10235*
G01*
X714900*
G75*
G02X735370I10235*
G01*
X794285*
Y807410*
X420635*
Y790260*
X514900*
G37*
X489235Y726160D02*
G36*
X494635Y720760D01*
X594345*
G75*
G02X593400Y723760I4290J3000*
G01*
G75*
G02X593983Y726160I5235J-1*
G01*
X564870*
G75*
G02X554400I-5235*
G01*
X489235*
G37*
X554400D02*
G36*
G75*
G02X564870I5235D01*
G01*
X593983*
G75*
G02X603135Y726435I4652J-2400*
G01*
G75*
G02X612287Y726160I4500J-2675*
G01*
X652434*
G75*
G02X652400Y726760I5201J596*
G01*
G75*
G02X662870I5235*
G01*
G75*
G02X662836Y726160I-5236J-4*
G01*
X664434*
G75*
G02X664400Y726760I5201J596*
G01*
G75*
G02X674870I5235*
G01*
G75*
G02X674836Y726160I-5236J-4*
G01*
X709259*
G75*
G02X709225Y726760I5376J606*
G01*
Y738760*
X674870*
G75*
G02X664400I-5235*
G01*
X662870*
G75*
G02X652400I-5235*
G01*
X476635*
X489235Y726160*
X554400*
G37*
X612287D02*
G36*
G75*
G02X612870Y723760I-4652J-2401D01*
G01*
G75*
G02X611925Y720760I-5235*
G01*
X620635*
X626635Y714760*
X652400*
G75*
G02X662870I5235*
G01*
X664400*
G75*
G02X674870I5235*
G01*
X718984*
X710810Y722935*
G75*
G02X709259Y726160I3825J3825*
G01*
X674836*
G75*
G02X664434I-5201J600*
G01*
X662836*
G75*
G02X652434I-5201J600*
G01*
X612287*
G37*
X722886D02*
G36*
X728460Y720585D01*
G75*
G02X730045Y716760I-3825J-3826*
G01*
Y714760*
X747418*
G75*
G02X750387Y726160I27217J-1002*
G01*
X722886*
G37*
X750387D02*
G36*
G75*
G02X763830Y738760I24249J-12400D01*
G01*
X730012*
G75*
G02X731870Y734760I-3377J-4000*
G01*
G75*
G02X721400I-5235*
G01*
G75*
G02X723258Y738760I5235*
G01*
X720045*
Y729001*
X722886Y726160*
X750387*
G37*
X621635Y521760D02*
G36*
Y511042D01*
X622400Y511807*
G75*
G02X632870Y511760I5235J-47*
G01*
G75*
G02X627682Y506525I-5235*
G01*
X621635Y500478*
Y452760*
X683400*
G75*
G02X688635Y457995I5235*
G01*
G75*
G02X693870Y452760J-5235*
G01*
X695400*
G75*
G02X700635Y457995I5235*
G01*
G75*
G02X705870Y452760J-5235*
G01*
X794285*
Y521760*
X730045*
Y512095*
G75*
G02X732966Y505760I-5410J-6335*
G01*
G75*
G02X716304I-8331*
G01*
G75*
G02X719225Y512095I8331*
G01*
Y521760*
X700948*
G75*
G02X696135Y503305I-4813J-8600*
G01*
G75*
G02X691322Y521760J9855*
G01*
X675548*
G75*
G02X670735Y503305I-4813J-8600*
G01*
G75*
G02X665922Y521760J9855*
G01*
X649870*
G75*
G02X639400I-5235*
G01*
X637870*
G75*
G02X627400I-5235*
G01*
X621635*
G37*
X627400D02*
G36*
G75*
G02X637870I5235D01*
G01*
X639400*
G75*
G02X649870I5235*
G01*
X665922*
G75*
G02X670735Y523015I4813J-8600*
G01*
G75*
G02X675548Y521760J-9855*
G01*
X691322*
G75*
G02X696135Y523015I4813J-8600*
G01*
G75*
G02X700948Y521760J-9855*
G01*
X719225*
Y533760*
X704742*
G75*
G02X696135Y528705I-8607J4800*
G01*
G75*
G02X687528Y533760J9855*
G01*
X679342*
G75*
G02X670735Y528705I-8607J4800*
G01*
G75*
G02X662128Y533760J9855*
G01*
X649870*
G75*
G02X639400I-5235*
G01*
X637870*
G75*
G02X627400I-5235*
G01*
X625870*
G75*
G02X621635Y528621I-5235*
G01*
Y521760*
X627400*
G37*
X794285D02*
G36*
Y533760D01*
X730045*
Y521760*
X794285*
G37*
X627400Y533760D02*
G36*
G75*
G02X637870I5235D01*
G01*
X639400*
G75*
G02X649870I5235*
G01*
X662128*
G75*
G02X670735Y548415I8607J4800*
G01*
G75*
G02X679342Y533760J-9855*
G01*
X687528*
G75*
G02X696135Y548415I8607J4800*
G01*
G75*
G02X704742Y533760J-9855*
G01*
X719225*
Y563960*
X705990*
G75*
G02X696135Y554105I-9855*
G01*
G75*
G02X686280Y563960J9855*
G01*
X680590*
G75*
G02X670735Y554105I-9855*
G01*
G75*
G02X660880Y563960J9855*
G01*
X621635*
Y538899*
G75*
G02X625870Y533760I-1000J-5139*
G01*
X627400*
G37*
X794285D02*
G36*
Y563960D01*
X730045*
Y533760*
X794285*
G37*
X621870Y411760D02*
G36*
G75*
G02X621635Y410209I-5236D01*
G01*
Y401311*
G75*
G02Y398209I-5001J-1551*
G01*
Y373760*
X639635Y355760*
Y347760*
X639900*
G75*
G02X660370I10235*
G01*
X664900*
G75*
G02X685370I10235*
G01*
X689900*
G75*
G02X710370I10235*
G01*
X714900*
G75*
G02X735370I10235*
G01*
X739900*
G75*
G02X760370I10235*
G01*
X794285*
Y394902*
G75*
G02X747474Y411760I-19650J18858*
G01*
X633870*
G75*
G02X628635Y406525I-5235*
G01*
G75*
G02X623400Y411760J5235*
G01*
X621870*
G37*
X623400D02*
G36*
G75*
G02X628635Y416995I5235D01*
G01*
G75*
G02X633870Y411760J-5235*
G01*
X747474*
G75*
G02X747400Y413760I27157J2006*
G01*
G75*
G02X749302Y423760I27234J1*
G01*
X690186*
G75*
G02X688635Y423525I-1551J5000*
G01*
G75*
G02X687084Y423760J5235*
G01*
X633870*
G75*
G02X628635Y418525I-5235*
G01*
G75*
G02X623400Y423760J5235*
G01*
X621870*
G75*
G02X621635Y422209I-5236*
G01*
Y413311*
G75*
G02X621870Y411760I-5001J-1551*
G01*
X623400*
G37*
Y423760D02*
G36*
G75*
G02X628635Y428995I5235D01*
G01*
G75*
G02X633870Y423760J-5235*
G01*
X687084*
G75*
G02X688635Y433995I1551J5000*
G01*
G75*
G02X690186Y423760J-5235*
G01*
X749302*
G75*
G02X771064Y440760I25333J-10000*
G01*
X705870*
G75*
G02X700635Y435525I-5235*
G01*
G75*
G02X695400Y440760J5235*
G01*
X693870*
G75*
G02X688635Y435525I-5235*
G01*
G75*
G02X683400Y440760J5235*
G01*
X621635*
Y425311*
G75*
G02X621870Y423760I-5001J-1551*
G01*
X623400*
G37*
X632635Y680760D02*
G36*
Y655760D01*
X698345*
G75*
G02X704520Y657644I4290J-3000*
G01*
G75*
G02X704400Y658760I5113J1114*
G01*
G75*
G02X714870I5235*
G01*
G75*
G02X713925Y655760I-5235*
G01*
X717624*
G75*
G02X719225Y657595I7010J-4501*
G01*
Y680760*
X659870*
G75*
G02X649400I-5235*
G01*
X632635*
G37*
X649400D02*
G36*
G75*
G02X659870I5235D01*
G01*
X719225*
Y702760*
X674870*
G75*
G02X664400I-5235*
G01*
X662870*
G75*
G02X652400I-5235*
G01*
X632635*
Y680760*
X649400*
G37*
X730045D02*
G36*
Y657595D01*
G75*
G02X731646Y655760I-5409J-6336*
G01*
X794285*
Y680760*
X741774*
G75*
G02X731496I-5139J1000*
G01*
X730045*
G37*
X731496D02*
G36*
G75*
G02X731400Y681760I5139J998D01*
G01*
G75*
G02X741870I5235*
G01*
G75*
G02X741774Y680760I-5235J-2*
G01*
X794285*
Y694902*
G75*
G02X749720Y702760I-19650J18858*
G01*
X730045*
Y680760*
X731496*
G37*
X652400Y702760D02*
G36*
G75*
G02X662870I5235D01*
G01*
X664400*
G75*
G02X674870I5235*
G01*
X719225*
Y714519*
X718984Y714760*
X674870*
G75*
G02X664400I-5235*
G01*
X662870*
G75*
G02X652400I-5235*
G01*
X626635*
X632635Y708760*
Y702760*
X652400*
G37*
X749720D02*
G36*
G75*
G02X747400Y713760I24915J10999D01*
G01*
G75*
G02X747418Y714760I27225J10*
G01*
X730045*
Y702760*
X749720*
G37*
X639635Y347760D02*
G36*
Y320110D01*
X794285*
Y347760*
X760370*
G75*
G02X739900I-10235*
G01*
X735370*
G75*
G02X714900I-10235*
G01*
X710370*
G75*
G02X689900I-10235*
G01*
X685370*
G75*
G02X664900I-10235*
G01*
X660370*
G75*
G02X639900I-10235*
G01*
X639635*
G37*
X660880Y563960D02*
G36*
G75*
G02X670735Y573815I9855D01*
G01*
G75*
G02X680590Y563960J-9855*
G01*
X686280*
G75*
G02X696135Y573815I9855*
G01*
G75*
G02X705990Y563960J-9855*
G01*
X719225*
Y589360*
X705990*
G75*
G02X696135Y579505I-9855*
G01*
G75*
G02X686280Y589360J9855*
G01*
X680590*
G75*
G02X670735Y579505I-9855*
G01*
G75*
G02X660880Y589360J9855*
G01*
X621635*
Y563960*
X660880*
G37*
X794285D02*
G36*
Y589360D01*
X730045*
Y563960*
X794285*
G37*
X660880Y589360D02*
G36*
G75*
G02X670735Y599215I9855D01*
G01*
G75*
G02X680590Y589360J-9855*
G01*
X686280*
G75*
G02X696135Y599215I9855*
G01*
G75*
G02X705990Y589360J-9855*
G01*
X719225*
Y606260*
X622135*
X621635Y605760*
Y589360*
X660880*
G37*
X794285D02*
G36*
Y606260D01*
X767870*
G75*
G02X757400I-5235*
G01*
X730045*
Y589360*
X794285*
G37*
X683400Y440760D02*
G36*
G75*
G02X688635Y445995I5235D01*
G01*
G75*
G02X693870Y440760J-5235*
G01*
X695400*
G75*
G02X700635Y445995I5235*
G01*
G75*
G02X705870Y440760J-5235*
G01*
X771064*
G75*
G02X794285Y432618I3571J-27000*
G01*
Y452760*
X705870*
G75*
G02X700635Y447525I-5235*
G01*
G75*
G02X695400Y452760J5235*
G01*
X693870*
G75*
G02X688635Y447525I-5235*
G01*
G75*
G02X683400Y452760J5235*
G01*
X621635*
Y440760*
X683400*
G37*
X632635Y638760D02*
G36*
Y616760D01*
X622135Y606260*
X719225*
Y638760*
X707870*
G75*
G02X697400I-5235*
G01*
X632635*
G37*
X697400D02*
G36*
G75*
G02X707870I5235D01*
G01*
X719225*
Y644925*
G75*
G02X717624Y655760I5410J6335*
G01*
X713925*
G75*
G02X707750Y653876I-4290J3000*
G01*
G75*
G02X707870Y652760I-5113J-1114*
G01*
G75*
G02X697400I-5235*
G01*
G75*
G02X698345Y655760I5235*
G01*
X632635*
Y638760*
X697400*
G37*
X730045D02*
G36*
Y606260D01*
X757400*
G75*
G02X767870I5235*
G01*
X794285*
Y638760*
X730045*
G37*
X794285D02*
G36*
Y655760D01*
X731646*
G75*
G02X730045Y644925I-7011J-4500*
G01*
Y638760*
X794285*
G37*
X545984Y589760D02*
X554810Y598585D01*
G75*
G02X558635Y600170I3826J-3825*
G01*
X612635*
G75*
G02X615635Y599262J-5410*
G01*
Y605760*
X628635Y618760*
Y706760*
X618635Y716760*
X494635*
X480635Y702760*
Y667760*
X487635Y660760*
Y656760*
X493635Y650760*
Y591760*
X495635Y589760*
X545984*
X497400Y665760D02*
G75*
G02X507870I5235D01*
G01*
G75*
G02X497400I-5235*
G01*
X526400Y627760D02*
G75*
G02X536870I5235D01*
G01*
G75*
G02X526400I-5235*
G01*
Y639760D02*
G75*
G02X536870I5235D01*
G01*
G75*
G02X526400I-5235*
G01*
Y651760D02*
G75*
G02X536870I5235D01*
G01*
G75*
G02X526400I-5235*
G01*
Y663760D02*
G75*
G02X536870I5235D01*
G01*
G75*
G02X526400I-5235*
G01*
X538400Y627760D02*
G75*
G02X548870I5235D01*
G01*
G75*
G02X538400I-5235*
G01*
Y639760D02*
G75*
G02X548870I5235D01*
G01*
G75*
G02X538400I-5235*
G01*
Y651760D02*
G75*
G02X548870I5235D01*
G01*
G75*
G02X538400I-5235*
G01*
Y663760D02*
G75*
G02X548870I5235D01*
G01*
G75*
G02X538400I-5235*
G01*
X550400Y627760D02*
G75*
G02X560870I5235D01*
G01*
G75*
G02X550400I-5235*
G01*
Y639760D02*
G75*
G02X560870I5235D01*
G01*
G75*
G02X550400I-5235*
G01*
X552400Y653760D02*
G75*
G02X562870I5235D01*
G01*
G75*
G02X552400I-5235*
G01*
X594400D02*
G75*
G02X604870I5235D01*
G01*
G75*
G02X594400I-5235*
G01*
X603400Y668760D02*
G75*
G02X613870I5235D01*
G01*
G75*
G02X603400I-5235*
G01*
X604400Y641760D02*
G75*
G02X614870I5235D01*
G01*
G75*
G02X604400I-5235*
G01*
X482635Y665760D02*
G36*
X487635Y660760D01*
Y656760*
X492635Y651760*
X526400*
G75*
G02X536870I5235*
G01*
X538400*
G75*
G02X548870I5235*
G01*
X552797*
G75*
G02X552400Y653760I4838J2000*
G01*
G75*
G02X562870I5235*
G01*
G75*
G02X562473Y651760I-5235*
G01*
X594797*
G75*
G02X594400Y653760I4838J2000*
G01*
G75*
G02X604870I5235*
G01*
G75*
G02X604473Y651760I-5235*
G01*
X628635*
Y665760*
X612925*
G75*
G02X604345I-4290J3000*
G01*
X548473*
G75*
G02X548870Y663760I-4838J-2000*
G01*
G75*
G02X538400I-5235*
G01*
G75*
G02X538797Y665760I5235*
G01*
X536473*
G75*
G02X536870Y663760I-4838J-2000*
G01*
G75*
G02X526400I-5235*
G01*
G75*
G02X526797Y665760I5235*
G01*
X507870*
G75*
G02X497400I-5235*
G01*
X482635*
G37*
X497400D02*
G36*
G75*
G02X507870I5235D01*
G01*
X526797*
G75*
G02X536473I4838J-2000*
G01*
X538797*
G75*
G02X548473I4838J-2000*
G01*
X604345*
G75*
G02X603400Y668760I4290J3000*
G01*
G75*
G02X613870I5235*
G01*
G75*
G02X612925Y665760I-5235*
G01*
X628635*
Y706760*
X618635Y716760*
X494635*
X480635Y702760*
Y667760*
X482635Y665760*
X497400*
G37*
X493635Y627760D02*
G36*
Y591760D01*
X495635Y589760*
X545984*
X554810Y598585*
G75*
G02X558635Y600170I3826J-3825*
G01*
X612635*
G75*
G02X615635Y599262J-5410*
G01*
Y605760*
X628635Y618760*
Y627760*
X560870*
G75*
G02X550400I-5235*
G01*
X548870*
G75*
G02X538400I-5235*
G01*
X536870*
G75*
G02X526400I-5235*
G01*
X493635*
G37*
X526400D02*
G36*
G75*
G02X536870I5235D01*
G01*
X538400*
G75*
G02X548870I5235*
G01*
X550400*
G75*
G02X560870I5235*
G01*
X628635*
Y639760*
X614473*
G75*
G02X604797I-4838J2000*
G01*
X560870*
G75*
G02X550400I-5235*
G01*
X548870*
G75*
G02X538400I-5235*
G01*
X536870*
G75*
G02X526400I-5235*
G01*
X493635*
Y627760*
X526400*
G37*
Y639760D02*
G36*
G75*
G02X536870I5235D01*
G01*
X538400*
G75*
G02X548870I5235*
G01*
X550400*
G75*
G02X560870I5235*
G01*
X604797*
G75*
G02X604400Y641760I4838J2000*
G01*
G75*
G02X614870I5235*
G01*
G75*
G02X614473Y639760I-5235*
G01*
X628635*
Y651760*
X604473*
G75*
G02X594797I-4838J2000*
G01*
X562473*
G75*
G02X552797I-4838J2000*
G01*
X548870*
G75*
G02X538400I-5235*
G01*
X536870*
G75*
G02X526400I-5235*
G01*
X492635*
X493635Y650760*
Y639760*
X526400*
G37*
D02*
D11*
X26905Y138760D02*
X21825D01*
X33635Y132030D02*
Y126950D01*
Y145490D02*
Y150570D01*
X40365Y138760D02*
X45445D01*
X76905Y219760D02*
X71825D01*
X77412Y230537D02*
X73820Y226945D01*
X77412Y232983D02*
X73820Y236575D01*
X78635Y218030D02*
Y212950D01*
Y221490D02*
Y226570D01*
X79858Y230537D02*
X83450Y226945D01*
X79858Y232983D02*
X83450Y236575D01*
X80365Y219760D02*
X85445D01*
X88905Y231760D02*
X83825D01*
X89412Y218537D02*
X85820Y214945D01*
X89412Y220983D02*
X85820Y224575D01*
X90635Y230030D02*
Y224950D01*
Y233490D02*
Y238570D01*
X91858Y218537D02*
X95450Y214945D01*
X91858Y220983D02*
X95450Y224575D01*
X92365Y231760D02*
X97445D01*
X95905Y59760D02*
X90825D01*
X95905Y86760D02*
X90825D01*
X97635Y58030D02*
Y52950D01*
Y61490D02*
Y66570D01*
Y85030D02*
Y79950D01*
Y88490D02*
Y93570D01*
X99365Y59760D02*
X104445D01*
X99365Y86760D02*
X104445D01*
X100905Y207760D02*
X95825D01*
X101412Y218537D02*
X97820Y214945D01*
X101412Y220983D02*
X97820Y224575D01*
X102635Y206030D02*
Y200950D01*
Y209490D02*
Y214570D01*
X103858Y218537D02*
X107450Y214945D01*
X103858Y220983D02*
X107450Y224575D01*
X104365Y207760D02*
X109445D01*
X186412Y141537D02*
X182820Y137945D01*
X186412Y143983D02*
X182820Y147575D01*
X188858Y141537D02*
X192450Y137945D01*
X188858Y143983D02*
X192450Y147575D01*
X193905Y182760D02*
X188825D01*
X195635Y181030D02*
Y175950D01*
Y184490D02*
Y189570D01*
X197365Y182760D02*
X202445D01*
X198412Y141537D02*
X194820Y137945D01*
X198412Y143983D02*
X194820Y147575D01*
X200858Y141537D02*
X204450Y137945D01*
X200858Y143983D02*
X204450Y147575D01*
X210412Y141537D02*
X206820Y137945D01*
X210412Y143983D02*
X206820Y147575D01*
X212858Y141537D02*
X216450Y137945D01*
X212858Y143983D02*
X216450Y147575D01*
X219412Y210537D02*
X215820Y206945D01*
X219412Y212983D02*
X215820Y216575D01*
X221858Y210537D02*
X225450Y206945D01*
X221858Y212983D02*
X225450Y216575D01*
X278412Y233537D02*
X274820Y229945D01*
X278412Y235983D02*
X274820Y239575D01*
X280858Y233537D02*
X284450Y229945D01*
X280858Y235983D02*
X284450Y239575D01*
X299905Y28760D02*
X294825D01*
X301635Y27030D02*
Y21950D01*
Y30490D02*
Y35570D01*
X303365Y28760D02*
X308445D01*
X306405Y288460D02*
X301325D01*
X313635Y281230D02*
Y276150D01*
Y295690D02*
Y300770D01*
X320865Y288460D02*
X325945D01*
X397905Y245760D02*
X392825D01*
X399635Y244030D02*
Y238950D01*
Y247490D02*
Y252570D01*
X401365Y245760D02*
X406445D01*
D02*
D13*
X25635Y338760D02*
D03*
Y788760D02*
D03*
X445635Y338760D02*
D03*
X774635Y413760D02*
D03*
Y713760D02*
D03*
D02*
D14*
X462635Y672760D02*
D03*
Y698160D02*
D03*
Y723560D02*
D03*
X579835Y576760D02*
D03*
X605235D02*
D03*
X630635D02*
D03*
X670735Y513160D02*
D03*
Y538560D02*
D03*
Y563960D02*
D03*
Y589360D02*
D03*
Y614760D02*
D03*
X696135Y513160D02*
D03*
Y538560D02*
D03*
Y563960D02*
D03*
Y589360D02*
D03*
Y614760D02*
D03*
D02*
D22*
X237435Y263060D02*
D03*
Y288460D02*
D03*
X262835Y263060D02*
D03*
Y288460D02*
D03*
X288235Y263060D02*
D03*
Y288460D02*
D03*
X313635Y263060D02*
D03*
Y288460D02*
D03*
X339035Y263060D02*
D03*
Y288460D02*
D03*
X364435Y263060D02*
D03*
Y288460D02*
D03*
X389835Y263060D02*
D03*
Y288460D02*
D03*
D02*
D72*
X724635Y505760D02*
D03*
Y651260D02*
D03*
D02*
D75*
X502635Y680760D02*
X503635D01*
X510635Y673760*
X585635*
X531635Y409760D02*
Y567760D01*
X558635Y594760*
X612635*
X630635Y576760*
X585635Y673760D02*
Y643760D01*
X591635Y637760*
X599635*
X585635Y673760D02*
X598635Y686760D01*
Y707760*
X607635*
X599635Y637760D02*
Y628760D01*
X604635Y623760*
X613635*
X600135Y347760D02*
Y379260D01*
X579635Y399760*
Y576560*
X579835Y576760*
X625135Y790260D02*
X625635Y789760D01*
Y775760*
X629635Y771760*
X713635*
X724635Y760760*
Y754760*
X714635Y744760*
Y726760*
X724635Y716760*
Y651260*
X670735Y614760D02*
X656635D01*
X639635Y597760*
Y729760*
X624635Y744760*
X569635*
X554635Y759760*
X468635*
X670735Y614760D02*
X656635D01*
X630635Y588760*
Y576760*
X696135Y614760D02*
X670735D01*
X724635Y651260D02*
Y505760D01*
X750135Y790260D02*
Y768260D01*
X742635Y760760*
Y691760*
X761635Y672760*
Y625760*
X772635Y614760*
Y493760*
X754635Y475760*
X664635*
X654635Y485760*
Y557760*
X635635Y576760*
X630635*
D02*
D76*
X627635Y511760D02*
X599635Y483760D01*
X600635*
D02*
D82*
X55385Y657760D02*
X50345D01*
X71635Y641510D02*
Y636470D01*
Y674010D02*
Y679050D01*
X87885Y657760D02*
X92925D01*
X168885Y669760D02*
X163845D01*
X168885Y693760D02*
X163845D01*
X169398Y656523D02*
X165834Y652959D01*
X169398Y658997D02*
X165834Y662561D01*
X169398Y680523D02*
X165834Y676959D01*
X169398Y682997D02*
X165834Y686561D01*
X170635Y668010D02*
Y662970D01*
Y671510D02*
Y676550D01*
Y692010D02*
Y686970D01*
Y695510D02*
Y700550D01*
X171872Y656523D02*
X175436Y652959D01*
X171872Y658997D02*
X175436Y662561D01*
X171872Y680523D02*
X175436Y676959D01*
X171872Y682997D02*
X175436Y686561D01*
X172385Y669760D02*
X177425D01*
X172385Y693760D02*
X177425D01*
X180885Y657760D02*
X175845D01*
X180885Y681760D02*
X175845D01*
X181398Y668523D02*
X177834Y664959D01*
X181398Y670997D02*
X177834Y674561D01*
X181398Y692523D02*
X177834Y688959D01*
X181398Y694997D02*
X177834Y698561D01*
X182635Y656010D02*
Y650970D01*
Y659510D02*
Y664550D01*
Y680010D02*
Y674970D01*
Y683510D02*
Y688550D01*
X183872Y668523D02*
X187436Y664959D01*
X183872Y670997D02*
X187436Y674561D01*
X183872Y692523D02*
X187436Y688959D01*
X183872Y694997D02*
X187436Y698561D01*
X184385Y657760D02*
X189425D01*
X184385Y681760D02*
X189425D01*
X238885Y669760D02*
X233845D01*
X238885Y693760D02*
X233845D01*
X239398Y656523D02*
X235834Y652959D01*
X239398Y658997D02*
X235834Y662561D01*
X239398Y680523D02*
X235834Y676959D01*
X239398Y682997D02*
X235834Y686561D01*
X240635Y668010D02*
Y662970D01*
Y671510D02*
Y676550D01*
Y692010D02*
Y686970D01*
Y695510D02*
Y700550D01*
X241872Y656523D02*
X245436Y652959D01*
X241872Y658997D02*
X245436Y662561D01*
X241872Y680523D02*
X245436Y676959D01*
X241872Y682997D02*
X245436Y686561D01*
X242385Y669760D02*
X247425D01*
X242385Y693760D02*
X247425D01*
X250885Y657760D02*
X245845D01*
X250885Y681760D02*
X245845D01*
X251398Y668523D02*
X247834Y664959D01*
X251398Y670997D02*
X247834Y674561D01*
X251398Y692523D02*
X247834Y688959D01*
X251398Y694997D02*
X247834Y698561D01*
X251885Y585760D02*
X246845D01*
X252635Y656010D02*
Y650970D01*
Y659510D02*
Y664550D01*
Y680010D02*
Y674970D01*
Y683510D02*
Y688550D01*
X253635Y584010D02*
Y578970D01*
Y587510D02*
Y592550D01*
X253872Y668523D02*
X257436Y664959D01*
X253872Y670997D02*
X257436Y674561D01*
X253872Y692523D02*
X257436Y688959D01*
X253872Y694997D02*
X257436Y698561D01*
X254385Y657760D02*
X259425D01*
X254385Y681760D02*
X259425D01*
X255385Y585760D02*
X260425D01*
X308885Y669760D02*
X303845D01*
X308885Y693760D02*
X303845D01*
X309398Y656523D02*
X305834Y652959D01*
X309398Y658997D02*
X305834Y662561D01*
X309398Y680523D02*
X305834Y676959D01*
X309398Y682997D02*
X305834Y686561D01*
X310635Y668010D02*
Y662970D01*
Y671510D02*
Y676550D01*
Y692010D02*
Y686970D01*
Y695510D02*
Y700550D01*
X311872Y656523D02*
X315436Y652959D01*
X311872Y658997D02*
X315436Y662561D01*
X311872Y680523D02*
X315436Y676959D01*
X311872Y682997D02*
X315436Y686561D01*
X312385Y669760D02*
X317425D01*
X312385Y693760D02*
X317425D01*
X320885Y657760D02*
X315845D01*
X320885Y681760D02*
X315845D01*
X321398Y668523D02*
X317834Y664959D01*
X321398Y670997D02*
X317834Y674561D01*
X321398Y692523D02*
X317834Y688959D01*
X321398Y694997D02*
X317834Y698561D01*
X322635Y656010D02*
Y650970D01*
Y659510D02*
Y664550D01*
Y680010D02*
Y674970D01*
Y683510D02*
Y688550D01*
X323872Y668523D02*
X327436Y664959D01*
X323872Y670997D02*
X327436Y674561D01*
X323872Y692523D02*
X327436Y688959D01*
X323872Y694997D02*
X327436Y698561D01*
X324385Y657760D02*
X329425D01*
X324385Y681760D02*
X329425D01*
X345885Y585760D02*
X340845D01*
X347635Y584010D02*
Y578970D01*
Y587510D02*
Y592550D01*
X349385Y585760D02*
X354425D01*
X368885Y669760D02*
X363845D01*
X368885Y693760D02*
X363845D01*
X369398Y656523D02*
X365834Y652959D01*
X369398Y658997D02*
X365834Y662561D01*
X369398Y680523D02*
X365834Y676959D01*
X369398Y682997D02*
X365834Y686561D01*
X370635Y668010D02*
Y662970D01*
Y671510D02*
Y676550D01*
Y692010D02*
Y686970D01*
Y695510D02*
Y700550D01*
X371872Y656523D02*
X375436Y652959D01*
X371872Y658997D02*
X375436Y662561D01*
X371872Y680523D02*
X375436Y676959D01*
X371872Y682997D02*
X375436Y686561D01*
X372385Y669760D02*
X377425D01*
X372385Y693760D02*
X377425D01*
X380885Y657760D02*
X375845D01*
X380885Y681760D02*
X375845D01*
X381398Y668523D02*
X377834Y664959D01*
X381398Y670997D02*
X377834Y674561D01*
X381398Y692523D02*
X377834Y688959D01*
X381398Y694997D02*
X377834Y698561D01*
X382635Y656010D02*
Y650970D01*
Y659510D02*
Y664550D01*
Y680010D02*
Y674970D01*
Y683510D02*
Y688550D01*
X383872Y668523D02*
X387436Y664959D01*
X383872Y670997D02*
X387436Y674561D01*
X383872Y692523D02*
X387436Y688959D01*
X383872Y694997D02*
X387436Y698561D01*
X384385Y657760D02*
X389425D01*
X384385Y681760D02*
X389425D01*
X466885Y759760D02*
X461670D01*
X468635Y758010D02*
Y752795D01*
Y761510D02*
Y766725D01*
X470385Y759760D02*
X475600D01*
X488885Y692760D02*
X483845D01*
X489398Y679523D02*
X485834Y675959D01*
X489398Y681997D02*
X485834Y685561D01*
X490635Y691010D02*
Y685970D01*
Y694510D02*
Y699550D01*
X491872Y679523D02*
X495436Y675959D01*
X491872Y681997D02*
X495436Y685561D01*
X492385Y692760D02*
X497425D01*
X500885Y680760D02*
X495670D01*
X501398Y691523D02*
X497834Y687959D01*
X501398Y693997D02*
X497834Y697561D01*
X502635Y679010D02*
Y673795D01*
Y682510D02*
Y687725D01*
X503872Y691523D02*
X507436Y687959D01*
X503872Y693997D02*
X507436Y697561D01*
X504385Y680760D02*
X509600D01*
X597398Y706523D02*
X593710Y702835D01*
X597398Y708997D02*
X593710Y712685D01*
X597885Y637760D02*
X592670D01*
X599635Y636010D02*
Y630795D01*
Y639510D02*
Y644725D01*
X599872Y706523D02*
X603560Y702835D01*
X599872Y708997D02*
X603560Y712685D01*
X605885Y707760D02*
X600670D01*
X607635Y706010D02*
Y700795D01*
Y709510D02*
Y714725D01*
X609385Y707760D02*
X614600D01*
X611885Y623760D02*
X606670D01*
X613635Y622010D02*
Y616795D01*
Y625510D02*
Y630725D01*
X615385Y623760D02*
X620600D01*
X626131Y572256D02*
X622567Y568692D01*
X626131Y581264D02*
X622567Y584828D01*
X635139Y572256D02*
X638703Y568692D01*
X635139Y581264D02*
X638703Y584828D01*
X664365Y614760D02*
X659325D01*
X670735Y608390D02*
Y603350D01*
Y621130D02*
Y626170D01*
X677105Y614760D02*
X682145D01*
X689765D02*
X684725D01*
X696135Y608390D02*
Y603350D01*
Y621130D02*
Y626170D01*
X702505Y614760D02*
X707545D01*
X743385Y790260D02*
X738345D01*
X750135Y783510D02*
Y778470D01*
Y797010D02*
Y802050D01*
X756885Y790260D02*
X761925D01*
D02*
D83*
X71635Y471760D02*
D03*
Y533760D02*
D03*
Y595760D02*
D03*
Y657760D02*
D03*
D02*
D89*
X33635Y38760D02*
D03*
Y63760D02*
D03*
Y88760D02*
D03*
Y113760D02*
D03*
Y138760D02*
D03*
Y163760D02*
D03*
Y188760D02*
D03*
Y213760D02*
D03*
Y238760D02*
D03*
Y263760D02*
D03*
X473635Y38760D02*
D03*
Y63760D02*
D03*
Y88760D02*
D03*
Y113760D02*
D03*
Y138760D02*
D03*
Y163760D02*
D03*
Y188760D02*
D03*
Y213760D02*
D03*
Y238760D02*
D03*
Y263760D02*
D03*
X525135Y347760D02*
D03*
Y790260D02*
D03*
X550135Y347760D02*
D03*
Y790260D02*
D03*
X575135Y347760D02*
D03*
Y790260D02*
D03*
X600135Y347760D02*
D03*
Y790260D02*
D03*
X625135Y347760D02*
D03*
Y790260D02*
D03*
X650135Y347760D02*
D03*
Y790260D02*
D03*
X675135Y347760D02*
D03*
Y790260D02*
D03*
X700135Y347760D02*
D03*
Y790260D02*
D03*
X725135Y347760D02*
D03*
Y790260D02*
D03*
X750135Y347760D02*
D03*
Y790260D02*
D03*
D02*
D105*
X54635Y81760D02*
D03*
X58635Y115760D02*
D03*
X71635Y242760D02*
D03*
X78635Y219760D02*
X65635D01*
X59635Y213760*
Y153760*
X44635Y138760*
X33635*
X78635Y219760D02*
D03*
Y231760D02*
D03*
X90635Y219760D02*
D03*
Y231760D02*
D03*
X91635Y66760D02*
D03*
X92635Y143760D02*
D03*
Y155760D02*
D03*
Y167760D02*
D03*
X97635Y59760D02*
D03*
Y86760D02*
D03*
X98635Y589760D02*
D03*
Y601760D02*
D03*
Y613760D02*
D03*
X99635Y505760D02*
D03*
Y517760D02*
D03*
Y529760D02*
D03*
X102635Y207760D02*
D03*
Y219760D02*
D03*
X103635Y275760D02*
D03*
X104635Y143760D02*
D03*
Y155760D02*
D03*
Y167760D02*
D03*
X110635Y589760D02*
D03*
Y601760D02*
D03*
Y613760D02*
D03*
X111635Y505760D02*
D03*
Y517760D02*
D03*
Y529760D02*
D03*
X116635Y143760D02*
D03*
Y155760D02*
D03*
Y167760D02*
D03*
X120635Y339760D02*
D03*
Y363760D02*
D03*
X120745Y237760D02*
D03*
X122635Y577760D02*
D03*
Y589760D02*
D03*
Y601760D02*
D03*
Y613760D02*
D03*
X123635Y505760D02*
D03*
Y517760D02*
D03*
Y529760D02*
D03*
Y541760D02*
D03*
Y553760D02*
D03*
X124635Y288760D02*
D03*
X132635Y351760D02*
D03*
X134635Y577760D02*
D03*
Y589760D02*
D03*
Y601760D02*
D03*
Y613760D02*
D03*
X135635Y493760D02*
D03*
Y505760D02*
D03*
Y517760D02*
D03*
Y529760D02*
D03*
Y541760D02*
D03*
Y553760D02*
D03*
X138635Y28560D02*
D03*
Y41260D02*
D03*
Y53960D02*
D03*
Y66760D02*
D03*
Y79360D02*
D03*
Y92060D02*
D03*
Y104760D02*
D03*
Y117460D02*
D03*
X144635Y339760D02*
D03*
Y363760D02*
D03*
X146635Y577760D02*
D03*
Y589760D02*
D03*
Y601760D02*
D03*
Y613760D02*
D03*
X147635Y493760D02*
D03*
Y505760D02*
D03*
Y517760D02*
D03*
Y529760D02*
D03*
Y541760D02*
D03*
Y553760D02*
D03*
X152635Y248760D02*
D03*
X156635Y351760D02*
D03*
X158635Y267760D02*
D03*
X166635Y41260D02*
D03*
Y53960D02*
D03*
X168635Y339760D02*
D03*
Y363760D02*
D03*
X170635Y657760D02*
D03*
Y669760D02*
D03*
Y681760D02*
D03*
Y693760D02*
D03*
Y747760D02*
D03*
Y759760D02*
D03*
Y771760D02*
D03*
Y783760D02*
D03*
X175635Y72760D02*
D03*
X180635Y224760D02*
D03*
Y351760D02*
D03*
X181635Y508760D02*
D03*
X182635Y657760D02*
D03*
Y669760D02*
D03*
Y681760D02*
D03*
Y693760D02*
D03*
Y747760D02*
D03*
Y759760D02*
D03*
Y771760D02*
D03*
Y783760D02*
D03*
X184635Y68760D02*
D03*
X187635Y130760D02*
D03*
Y142760D02*
D03*
X188635Y224760D02*
D03*
X191635Y41760D02*
D03*
X192635Y29760D02*
D03*
Y339760D02*
D03*
Y363760D02*
D03*
X193635Y68760D02*
D03*
Y508760D02*
D03*
X194635Y747760D02*
D03*
Y759760D02*
D03*
Y771760D02*
D03*
Y783760D02*
D03*
X195635Y182760D02*
D03*
X199635Y130760D02*
D03*
Y142760D02*
D03*
X200635Y72760D02*
D03*
X204635Y351760D02*
D03*
X205635Y230760D02*
D03*
Y508760D02*
D03*
X206635Y79760D02*
D03*
Y100760D02*
D03*
X211635Y130760D02*
D03*
Y142760D02*
D03*
Y256510D02*
D03*
X212635Y293510D02*
D03*
X213635Y48760D02*
D03*
Y107760D02*
D03*
X214635Y268760D02*
D03*
X216635Y339760D02*
D03*
Y363760D02*
D03*
X220635Y211760D02*
D03*
X221635Y48760D02*
D03*
Y508760D02*
D03*
X227635Y54760D02*
D03*
X228635Y351760D02*
D03*
X229635Y62760D02*
D03*
X230635Y211760D02*
D03*
X232635Y747760D02*
D03*
Y759760D02*
D03*
Y771760D02*
D03*
Y783760D02*
D03*
X233635Y508760D02*
D03*
X240635Y181760D02*
D03*
Y339760D02*
D03*
Y363760D02*
D03*
Y657760D02*
D03*
Y669760D02*
D03*
Y681760D02*
D03*
Y693760D02*
D03*
X244635Y189760D02*
D03*
Y747760D02*
D03*
Y759760D02*
D03*
Y771760D02*
D03*
Y783760D02*
D03*
X245635Y209760D02*
D03*
Y508760D02*
D03*
X252635Y351760D02*
D03*
Y657760D02*
D03*
Y669760D02*
D03*
Y681760D02*
D03*
Y693760D02*
D03*
X253635Y585760D02*
D03*
X256635Y241760D02*
D03*
Y747760D02*
D03*
Y759760D02*
D03*
Y771760D02*
D03*
Y783760D02*
D03*
X263635Y235760D02*
D03*
Y488760D02*
D03*
Y500760D02*
D03*
Y512760D02*
D03*
Y524760D02*
D03*
Y536760D02*
D03*
X264635Y339760D02*
D03*
Y363760D02*
D03*
Y387760D02*
D03*
X270635Y83760D02*
D03*
Y103760D02*
D03*
Y123760D02*
D03*
Y143760D02*
D03*
X275635Y488760D02*
D03*
Y500760D02*
D03*
Y512760D02*
D03*
Y524760D02*
D03*
Y536760D02*
D03*
X276635Y351760D02*
D03*
Y375760D02*
D03*
Y399760D02*
D03*
X279635Y234760D02*
D03*
X280635Y73760D02*
D03*
Y93760D02*
D03*
Y113760D02*
D03*
Y133760D02*
D03*
X287635Y488760D02*
D03*
Y500760D02*
D03*
Y512760D02*
D03*
Y524760D02*
D03*
Y536760D02*
D03*
X288635Y339760D02*
D03*
Y363760D02*
D03*
Y387760D02*
D03*
X290635Y83760D02*
D03*
Y103760D02*
D03*
Y123760D02*
D03*
Y143760D02*
D03*
X291635Y234760D02*
D03*
X297635Y747760D02*
D03*
Y759760D02*
D03*
Y771760D02*
D03*
Y783760D02*
D03*
X300635Y73760D02*
D03*
Y93760D02*
D03*
Y113760D02*
D03*
Y133760D02*
D03*
Y351760D02*
D03*
Y375760D02*
D03*
Y399760D02*
D03*
X301635Y28760D02*
D03*
X307635Y488760D02*
D03*
Y500760D02*
D03*
Y512760D02*
D03*
Y524760D02*
D03*
Y536760D02*
D03*
X309635Y747760D02*
D03*
Y759760D02*
D03*
Y771760D02*
D03*
Y783760D02*
D03*
X310635Y83760D02*
D03*
Y103760D02*
D03*
Y123760D02*
D03*
Y143760D02*
D03*
Y657760D02*
D03*
Y669760D02*
D03*
Y681760D02*
D03*
Y693760D02*
D03*
X312635Y339760D02*
D03*
Y363760D02*
D03*
Y387760D02*
D03*
X319635Y488760D02*
D03*
Y500760D02*
D03*
Y512760D02*
D03*
Y524760D02*
D03*
Y536760D02*
D03*
X320635Y73760D02*
D03*
Y93760D02*
D03*
Y113760D02*
D03*
Y133760D02*
D03*
X321635Y243760D02*
D03*
Y747760D02*
D03*
Y759760D02*
D03*
Y771760D02*
D03*
Y783760D02*
D03*
X322635Y657760D02*
D03*
Y669760D02*
D03*
Y681760D02*
D03*
Y693760D02*
D03*
X324635Y351760D02*
D03*
Y375760D02*
D03*
Y399760D02*
D03*
X330635Y83760D02*
D03*
Y103760D02*
D03*
Y123760D02*
D03*
Y143760D02*
D03*
X331635Y243760D02*
D03*
Y488760D02*
D03*
Y500760D02*
D03*
Y512760D02*
D03*
Y524760D02*
D03*
Y536760D02*
D03*
X335635Y28760D02*
D03*
X336635Y339760D02*
D03*
Y363760D02*
D03*
Y387760D02*
D03*
X340635Y73760D02*
D03*
Y93760D02*
D03*
Y113760D02*
D03*
Y133760D02*
D03*
X344635Y226760D02*
D03*
X347635Y585760D02*
D03*
X348635Y351760D02*
D03*
X350635Y508760D02*
D03*
X353635Y226760D02*
D03*
X359635Y37760D02*
D03*
Y747760D02*
D03*
Y759760D02*
D03*
Y771760D02*
D03*
Y783760D02*
D03*
X360635Y339760D02*
D03*
Y363760D02*
D03*
X362635Y508760D02*
D03*
X363635Y226760D02*
D03*
X367635Y31760D02*
D03*
X370635Y657760D02*
D03*
Y669760D02*
D03*
Y681760D02*
D03*
Y693760D02*
D03*
X371635Y747760D02*
D03*
Y759760D02*
D03*
Y771760D02*
D03*
Y783760D02*
D03*
X372635Y226760D02*
D03*
Y351760D02*
D03*
X374635Y508760D02*
D03*
X375635Y25760D02*
D03*
X382635Y19760D02*
D03*
Y657760D02*
D03*
Y669760D02*
D03*
Y681760D02*
D03*
Y693760D02*
D03*
X383635Y747760D02*
D03*
Y759760D02*
D03*
Y771760D02*
D03*
Y783760D02*
D03*
X384635Y339760D02*
D03*
Y363760D02*
D03*
X390635Y508760D02*
D03*
X396635Y351760D02*
D03*
X399635Y245760D02*
D03*
X402635Y508760D02*
D03*
X408635Y339760D02*
D03*
Y363760D02*
D03*
X413635Y295760D02*
D03*
X414635Y508760D02*
D03*
X420635Y232760D02*
D03*
X429135Y293760D02*
D03*
X432635Y387760D02*
D03*
X443135Y777760D02*
D03*
X444635Y375760D02*
D03*
Y399760D02*
D03*
X447635Y138760D02*
D03*
Y192410D02*
D03*
X456635Y163760D02*
D03*
Y205110D02*
D03*
Y387760D02*
D03*
X458635Y557760D02*
D03*
Y569760D02*
D03*
Y581760D02*
D03*
Y593760D02*
D03*
X468635Y375760D02*
D03*
Y399760D02*
D03*
Y759760D02*
D03*
X470635Y557760D02*
D03*
Y569760D02*
D03*
Y581760D02*
D03*
Y593760D02*
D03*
Y684760D02*
D03*
X474635Y668760D02*
D03*
X475635Y632760D02*
D03*
X478635Y647760D02*
D03*
X480635Y339760D02*
D03*
Y363760D02*
D03*
Y387760D02*
D03*
X490635Y680760D02*
D03*
Y692760D02*
D03*
X491635Y468760D02*
D03*
X492635Y399760D02*
D03*
X498635Y477760D02*
D03*
X502635Y665760D02*
D03*
Y680760D02*
D03*
Y692760D02*
D03*
X531635Y409760D02*
D03*
Y627760D02*
D03*
Y639760D02*
D03*
Y651760D02*
D03*
Y663760D02*
D03*
X532635Y381760D02*
D03*
Y393760D02*
D03*
X543635Y627760D02*
D03*
Y639760D02*
D03*
Y651760D02*
D03*
Y663760D02*
D03*
X544635Y381760D02*
D03*
Y393760D02*
D03*
X555635Y627760D02*
D03*
Y639760D02*
D03*
X556635Y381760D02*
D03*
X557635Y653760D02*
D03*
X559635Y726160D02*
D03*
X598635Y707760D02*
D03*
Y723760D02*
D03*
X599635Y637760D02*
D03*
Y653760D02*
D03*
X600635Y483760D02*
D03*
X607635Y707760D02*
D03*
Y723760D02*
D03*
X608635Y668760D02*
D03*
X609635Y641760D02*
D03*
X613635Y623760D02*
D03*
X616635Y399760D02*
D03*
Y411760D02*
D03*
Y423760D02*
D03*
X620635Y533760D02*
D03*
X627635Y511760D02*
D03*
X628635Y411760D02*
D03*
Y423760D02*
D03*
X632635Y521760D02*
D03*
Y533760D02*
D03*
X644635Y521760D02*
D03*
Y533760D02*
D03*
X654635Y680760D02*
D03*
X657635Y702760D02*
D03*
Y714760D02*
D03*
Y726760D02*
D03*
Y738760D02*
D03*
X669635Y702760D02*
D03*
Y714760D02*
D03*
Y726760D02*
D03*
Y738760D02*
D03*
X688635Y428760D02*
D03*
Y440760D02*
D03*
Y452760D02*
D03*
X700635Y440760D02*
D03*
Y452760D02*
D03*
X702635Y638760D02*
D03*
Y652760D02*
D03*
X709635Y658760D02*
D03*
X726635Y734760D02*
D03*
X736635Y681760D02*
D03*
X762635Y606260D02*
D03*
X0Y0D02*
M02*
