%FSLAX34Y34*%
%MOMM*%
G04 EasyPC Gerber Version 18.0.6 Build 3620 *
%ADD20R,0.65000X1.00000*%
%ADD107R,0.80000X1.00000*%
%ADD10C,0.12700*%
%ADD106C,0.16000*%
%ADD11C,0.25400*%
%ADD76C,0.30000*%
%ADD105C,0.60000*%
%ADD89C,1.60000*%
%ADD22C,1.70000*%
%ADD104R,0.75000X0.50000*%
%ADD25R,1.00000X0.65000*%
%ADD26R,1.60000X0.76000*%
%ADD111R,1.00000X0.80000*%
X0Y0D02*
D02*
D10*
X113198Y159779D02*
G75*
G02X104735Y155300I-8463J5755D01*
G01*
G75*
G02Y175770J10235*
G01*
G75*
G02X114909Y166653J-10235*
G01*
X120881Y160681*
G75*
G02X121770Y158535I-2146J-2146*
G01*
Y136953*
G75*
G02X130000Y136570I3965J-3418*
G01*
X132735*
G75*
G02X134881Y135681J-3035*
G01*
X142992Y127570*
X205901*
G75*
G02X204573Y132005I3834J3564*
G01*
X201770Y134808*
Y133600*
X189800*
Y167070*
X201770*
Y165562*
X204573Y168365*
G75*
G02X209735Y174470I5162J870*
G01*
G75*
G02X214897Y168365J-5235*
G01*
X223881Y159381*
G75*
G02X224770Y157235I-2146J-2146*
G01*
Y150792*
X227992Y147570*
X265735*
G75*
G02X267881Y146681J-3035*
G01*
X277792Y136770*
G75*
G02X282946Y131039I-57J-5235*
G01*
X288700Y136792*
Y156117*
G75*
G02X282440Y154830I-3965J3419*
G01*
G75*
G02X273470Y149500I-4705J-2295*
G01*
X250735*
G75*
G02X248589Y150389J3035*
G01*
X237589Y161389*
G75*
G02X236700Y163535I2146J2146*
G01*
Y206535*
G75*
G02X237589Y208681I3035*
G01*
X250700Y221792*
Y271403*
G75*
G02X247421Y279500I1035J5132*
G01*
X242735*
G75*
G02X240589Y280389J3035*
G01*
X238589Y282389*
G75*
G02X237700Y284535I2146J2146*
G01*
Y294300*
X224610*
Y295374*
G75*
G02X224020Y295308I-876J5161*
G01*
Y283860*
X207670*
Y298210*
X219045*
G75*
G02X219643Y303800I4690J2325*
G01*
X208610*
Y316270*
X212050*
Y320300*
X210000*
Y334770*
X220970*
Y320300*
X218920*
Y316270*
X223080*
Y313070*
X237235*
G75*
G02X239381Y312181J-3035*
G01*
X242881Y308681*
G75*
G02X243770Y306535I-2146J-2146*
G01*
Y285792*
X243992Y285570*
X247670*
Y298210*
X264020*
Y285570*
X272470*
G75*
G02X273161Y286360I4266J-3034*
G01*
X264560*
Y299210*
X280910*
Y296644*
G75*
G02X281589Y297681I2826J-1109*
G01*
X289700Y305792*
Y349535*
G75*
G02X290589Y351681I3035*
G01*
X296589Y357681*
G75*
G02X298735Y358570I2146J-2146*
G01*
X331735*
G75*
G02X333881Y357681J-3035*
G01*
X336081Y355481*
G75*
G02X336970Y353335I-2146J-2146*
G01*
Y350532*
G75*
G02X344670Y340235I-3035J-10297*
G01*
G75*
G02X323200I-10735*
G01*
G75*
G02X330900Y350532I10735*
G01*
Y352078*
X330478Y352500*
X299992*
X295770Y348278*
Y304535*
G75*
G02X294881Y302389I-3035*
G01*
X292262Y299770*
X301470*
Y285300*
X291470*
Y283710*
X302410*
Y267360*
X295311*
G75*
G02X291735Y258299I-3576J-3825*
G01*
G75*
G02X287369Y260645J5236*
G01*
G75*
G02X287094Y260894I2370J2893*
G01*
X286770Y261218*
Y258792*
X293881Y251681*
G75*
G02X294558Y250650I-2146J-2147*
G01*
X301589Y257681*
G75*
G02X303735Y258570I2146J-2146*
G01*
X312421*
G75*
G02X315540Y266632I4314J2965*
G01*
X318700Y269792*
Y274208*
X317881Y273389*
G75*
G02X316970Y272763I-2145J2146*
G01*
Y268300*
X306000*
Y282770*
X314700*
Y285300*
X306000*
Y299770*
X308450*
Y304100*
G75*
G02X297800Y314835I85J10735*
G01*
G75*
G02X319270I10735*
G01*
G75*
G02X314520Y305923I-10735*
G01*
Y299770*
X314700*
Y302535*
G75*
G02X315589Y304681I3035*
G01*
X323448Y312540*
G75*
G02X323200Y314835I10488J2294*
G01*
G75*
G02X344670I10735*
G01*
G75*
G02X337077Y304570I-10735*
G01*
X351078*
X352815Y306307*
G75*
G02X348600Y314835I6520J8528*
G01*
G75*
G02X370070I10735*
G01*
G75*
G02X359193Y304101I-10735*
G01*
X354662Y299570*
X364478*
X369589Y304681*
G75*
G02X371735Y305570I2146J-2146*
G01*
X379313*
G75*
G02X374000Y314835I5422J9265*
G01*
G75*
G02X395470I10735*
G01*
G75*
G02X390157Y305570I-10735*
G01*
X395735*
G75*
G02X397881Y304681J-3035*
G01*
X401865Y300697*
G75*
G02X405770Y291270I870J-5162*
G01*
Y287792*
X406631Y286931*
G75*
G02X407520Y284785I-2146J-2146*
G01*
Y282770*
X409970*
Y270062*
X412700Y272792*
Y274270*
G75*
G02Y282800I3035J4265*
G01*
Y295535*
G75*
G02X413589Y297681I3035*
G01*
X414589Y298681*
G75*
G02X416735Y299570I2146J-2146*
G01*
X449678*
X455617Y305510*
G75*
G02X450200Y314835I5317J9325*
G01*
G75*
G02X471670I10735*
G01*
G75*
G02X471545Y313203I-10736J1*
G01*
X474300Y315958*
Y320112*
X470306Y324106*
G75*
G02X469300Y326535I2429J2429*
G01*
Y332091*
G75*
G02X449260Y340235I-8365J8144*
G01*
G75*
G02X469300Y348379I11675*
G01*
Y351112*
X467312Y353100*
X415158*
X413170Y351112*
Y350532*
G75*
G02X420870Y340235I-3035J-10297*
G01*
G75*
G02X399400I-10735*
G01*
G75*
G02X406300Y350262I10735*
G01*
Y352535*
G75*
G02X407306Y354964I3435*
G01*
X411306Y358964*
G75*
G02X411549Y359185I2427J-2425*
G01*
X78085*
Y71885*
X132093*
X121589Y82389*
G75*
G02X120700Y84535I2146J2146*
G01*
Y106278*
X114502Y112476*
G75*
G02X104735Y105300I-9767J3059*
G01*
G75*
G02Y125770J10235*
G01*
G75*
G02X114510Y118570J-10235*
G01*
X115735*
G75*
G02X116512Y118469J-3035*
G01*
G75*
G02X115700Y120535I2223J2066*
G01*
Y157278*
X113198Y159779*
X104735Y80300D02*
G75*
G02Y100770J10235D01*
G01*
G75*
G02Y80300J-10235*
G01*
Y130300D02*
G75*
G02Y150770J10235D01*
G01*
G75*
G02Y130300J-10235*
G01*
Y180300D02*
G75*
G02Y200770J10235D01*
G01*
G75*
G02Y180300J-10235*
G01*
Y204360D02*
G75*
G02Y226710J11175D01*
G01*
G75*
G02Y204360J-11175*
G01*
Y230300D02*
G75*
G02Y250770J10235D01*
G01*
G75*
G02Y230300J-10235*
G01*
Y255300D02*
G75*
G02Y275770J10235D01*
G01*
G75*
G02Y255300J-10235*
G01*
Y279360D02*
G75*
G02Y301710J11175D01*
G01*
G75*
G02Y279360J-11175*
G01*
Y305300D02*
G75*
G02Y325770J10235D01*
G01*
G75*
G02Y305300J-10235*
G01*
X126067Y163800D02*
X125735D01*
G75*
G02X122000Y167535J3735*
G01*
Y277535*
G75*
G02X123094Y280176I3735*
G01*
X137500Y294582*
G75*
G02X142735Y299770I5235J-47*
G01*
G75*
G02X142782Y289300J-5235*
G01*
X129470Y275988*
Y172763*
G75*
G02X129735Y172770I271J-5229*
G01*
G75*
G02Y162300J-5235*
G01*
G75*
G02X126067Y163800J5235*
G01*
X149735Y266300D02*
G75*
G02Y276770J5235D01*
G01*
G75*
G02Y266300J-5235*
G01*
Y278300D02*
G75*
G02Y288770J5235D01*
G01*
G75*
G02Y278300J-5235*
G01*
X161735Y266300D02*
G75*
G02Y276770J5235D01*
G01*
G75*
G02Y266300J-5235*
G01*
Y278300D02*
G75*
G02Y288770J5235D01*
G01*
G75*
G02Y278300J-5235*
G01*
X171945Y134400D02*
G75*
G02X168735Y133300I-3210J4134D01*
G01*
G75*
G02Y143770J5235*
G01*
G75*
G02X171945Y142670J-5234*
G01*
X172300*
Y167070*
X184270*
Y133600*
X172300*
Y134400*
X171945*
X173735Y254300D02*
G75*
G02Y264770J5235D01*
G01*
G75*
G02Y254300J-5235*
G01*
Y266300D02*
G75*
G02Y276770J5235D01*
G01*
G75*
G02Y266300J-5235*
G01*
X188810Y293800D02*
Y294300D01*
X184610*
Y306770*
X199080*
Y294300*
X194880*
Y293800*
G75*
G02X191845Y284300I-3035J-4265*
G01*
G75*
G02X188810Y293800J5235*
G01*
X193560Y319360D02*
Y335710D01*
X206410*
Y319360*
X193560*
X228810Y324688D02*
Y332300D01*
X224610*
Y344770*
X239080*
Y332300*
X234880*
Y321645*
G75*
G02X234788Y320903I-3037*
G01*
G75*
G02X229735Y314300I-5053J-1368*
G01*
G75*
G02X228810Y324688J5235*
G01*
X263080Y305741D02*
Y303800D01*
X248610*
Y316270*
X263080*
Y313069*
G75*
G02X265131Y312181I-96J-3034*
G01*
X265500Y311812*
Y313770*
X279970*
Y312730*
G75*
G02X282735Y313520I2765J-4445*
G01*
G75*
G02Y303050J-5235*
G01*
G75*
G02X279970Y303840J5235*
G01*
Y302800*
X265500*
Y305250*
X264735*
G75*
G02X263080Y305741J3035*
G01*
Y342741D02*
Y341800D01*
X248610*
Y354270*
X263080*
Y350866*
G75*
G02X264131Y350181I-1096J-2831*
G01*
X265500Y348812*
Y350770*
X279970*
Y348922*
G75*
G02X283735Y350520I3765J-3637*
G01*
G75*
G02Y340050J-5235*
G01*
G75*
G02X279970Y341648J5235*
G01*
Y339800*
X265500*
Y342250*
X264735*
G75*
G02X263080Y342741J3035*
G01*
X264020Y321860D02*
X247670D01*
Y336210*
X264020*
Y321860*
X280910Y323360D02*
X264560D01*
Y336210*
X280910*
Y323360*
X320210Y340235D02*
G75*
G02X296860I-11675D01*
G01*
G75*
G02X320210I11675*
G01*
X370070D02*
G75*
G02X348600I-10735D01*
G01*
G75*
G02X370070I10735*
G01*
X395470D02*
G75*
G02X374000I-10735D01*
G01*
G75*
G02X395470I10735*
G01*
X420870Y314835D02*
G75*
G02X399400I-10735D01*
G01*
G75*
G02X420870I10735*
G01*
X446270D02*
G75*
G02X424800I-10735D01*
G01*
G75*
G02X446270I10735*
G01*
X447210Y340235D02*
G75*
G02X423860I-11675D01*
G01*
G75*
G02X447210I11675*
G01*
X78085Y90535D02*
G36*
Y71885D01*
X132093*
X121589Y82389*
G75*
G02X120700Y84535I2146J2146*
G01*
Y90535*
X114970*
G75*
G02X104735Y80300I-10235*
G01*
G75*
G02X94500Y90535J10235*
G01*
X78085*
G37*
X94500D02*
G36*
G75*
G02X104735Y100770I10235D01*
G01*
G75*
G02X114970Y90535J-10235*
G01*
X120700*
Y106278*
X114502Y112476*
G75*
G02X104735Y105300I-9767J3059*
G01*
G75*
G02Y125770J10235*
G01*
G75*
G02X114510Y118570J-10235*
G01*
X115735*
G75*
G02X116512Y118469J-3035*
G01*
G75*
G02X115700Y120535I2223J2066*
G01*
Y140535*
X114970*
G75*
G02X104735Y130300I-10235*
G01*
G75*
G02X94500Y140535J10235*
G01*
X78085*
Y90535*
X94500*
G37*
Y140535D02*
G36*
G75*
G02X104735Y150770I10235D01*
G01*
G75*
G02X114970Y140535J-10235*
G01*
X115700*
Y157278*
X113198Y159779*
G75*
G02X104735Y155300I-8463J5755*
G01*
G75*
G02Y175770J10235*
G01*
G75*
G02X114909Y166653J-10235*
G01*
X120881Y160681*
G75*
G02X121770Y158535I-2146J-2146*
G01*
Y140535*
X163897*
G75*
G02X168735Y143770I4838J-2000*
G01*
G75*
G02X171945Y142670J-5234*
G01*
X172300*
Y167070*
X184270*
Y140535*
X189800*
Y167070*
X201770*
Y165562*
X204573Y168365*
G75*
G02X209735Y174470I5162J870*
G01*
G75*
G02X214897Y168365J-5235*
G01*
X223881Y159381*
G75*
G02X224770Y157235I-2146J-2146*
G01*
Y150792*
X227992Y147570*
X265735*
G75*
G02X267881Y146681J-3035*
G01*
X277792Y136770*
G75*
G02X282946Y131039I-57J-5235*
G01*
X288700Y136792*
Y156117*
G75*
G02X282440Y154830I-3965J3419*
G01*
G75*
G02X273470Y149500I-4705J-2295*
G01*
X250735*
G75*
G02X248589Y150389J3035*
G01*
X237589Y161389*
G75*
G02X236700Y163535I2146J2146*
G01*
Y190535*
X129470*
Y172763*
G75*
G02X129735Y172770I271J-5229*
G01*
G75*
G02Y162300J-5235*
G01*
G75*
G02X126067Y163800J5235*
G01*
X125735*
G75*
G02X122000Y167535J3735*
G01*
Y190535*
X114970*
G75*
G02X104735Y180300I-10235*
G01*
G75*
G02X94500Y190535J10235*
G01*
X78085*
Y140535*
X94500*
G37*
X121770D02*
G36*
Y136953D01*
G75*
G02X130000Y136570I3965J-3418*
G01*
X132735*
G75*
G02X134881Y135681J-3035*
G01*
X142992Y127570*
X205901*
G75*
G02X204573Y132005I3834J3564*
G01*
X201770Y134808*
Y133600*
X189800*
Y140535*
X184270*
Y133600*
X172300*
Y134400*
X171945*
G75*
G02X168735Y133300I-3210J4134*
G01*
G75*
G02X163897Y140535J5235*
G01*
X121770*
G37*
X94500Y190535D02*
G36*
G75*
G02X104735Y200770I10235D01*
G01*
G75*
G02X114970Y190535J-10235*
G01*
X122000*
Y215535*
X115910*
G75*
G02X104735Y204360I-11175*
G01*
G75*
G02X93560Y215535J11175*
G01*
X78085*
Y190535*
X94500*
G37*
X236700D02*
G36*
Y206535D01*
G75*
G02X237589Y208681I3035*
G01*
X244443Y215535*
X129470*
Y190535*
X236700*
G37*
X93560Y215535D02*
G36*
G75*
G02X104735Y226710I11175D01*
G01*
G75*
G02X115910Y215535J-11175*
G01*
X122000*
Y240535*
X114970*
G75*
G02X104735Y230300I-10235*
G01*
G75*
G02X94500Y240535J10235*
G01*
X78085*
Y215535*
X93560*
G37*
X244443D02*
G36*
X250700Y221792D01*
Y240535*
X129470*
Y215535*
X244443*
G37*
X94500Y240535D02*
G36*
G75*
G02X104735Y250770I10235D01*
G01*
G75*
G02X114970Y240535J-10235*
G01*
X122000*
Y259535*
X113027*
G75*
G02X104735Y255300I-8292J6000*
G01*
G75*
G02X96443Y259535J10235*
G01*
X78085*
Y240535*
X94500*
G37*
X250700D02*
G36*
Y259535D01*
X178970*
G75*
G02X173735Y254300I-5235*
G01*
G75*
G02X168500Y259535J5235*
G01*
X129470*
Y240535*
X250700*
G37*
X78085Y265535D02*
G36*
Y259535D01*
X96443*
G75*
G02X94500Y265535I8292J6000*
G01*
X78085*
G37*
X94500D02*
G36*
G75*
G02X96443Y271535I10235D01*
G01*
X78085*
Y265535*
X94500*
G37*
X114970D02*
G36*
G75*
G02X113027Y259535I-10235D01*
G01*
X122000*
Y265535*
X114970*
G37*
X122000D02*
G36*
Y271535D01*
X113027*
G75*
G02X114970Y265535I-8292J-6000*
G01*
X122000*
G37*
X129470D02*
G36*
Y259535D01*
X168500*
G75*
G02X173735Y264770I5235*
G01*
G75*
G02X178970Y259535J-5235*
G01*
X250700*
Y265535*
X129470*
G37*
X250700D02*
G36*
Y271403D01*
G75*
G02X250183Y271535I1035J5132*
G01*
X178970*
G75*
G02X173735Y266300I-5235*
G01*
G75*
G02X168500Y271535J5235*
G01*
X166970*
G75*
G02X161735Y266300I-5235*
G01*
G75*
G02X156500Y271535J5235*
G01*
X154970*
G75*
G02X149735Y266300I-5235*
G01*
G75*
G02X144500Y271535J5235*
G01*
X129470*
Y265535*
X250700*
G37*
X78085Y290535D02*
G36*
Y283535D01*
X96024*
G75*
G02X93560Y290535I8711J7000*
G01*
X78085*
G37*
X93560D02*
G36*
G75*
G02X104735Y301710I11175D01*
G01*
G75*
G02X115910Y290535J-11175*
G01*
X133453*
X137500Y294582*
G75*
G02X142735Y299770I5235J-47*
G01*
G75*
G02X146112Y290535J-5235*
G01*
X186707*
G75*
G02X188810Y293800I5138J-1000*
G01*
Y294300*
X184610*
Y306770*
X199080*
Y294300*
X194880*
Y293800*
G75*
G02X196983Y290535I-3035J-4265*
G01*
X207670*
Y298210*
X219045*
G75*
G02X219643Y303800I4690J2325*
G01*
X208610*
Y315535*
X114970*
G75*
G02X104735Y305300I-10235*
G01*
G75*
G02X94500Y315535J10235*
G01*
X78085*
Y290535*
X93560*
G37*
X115910D02*
G36*
G75*
G02X113446Y283535I-11175D01*
G01*
X126453*
X133453Y290535*
X115910*
G37*
X146112D02*
G36*
G75*
G02X142782Y289300I-3377J4000D01*
G01*
X137017Y283535*
X144500*
G75*
G02X149735Y288770I5235*
G01*
G75*
G02X154970Y283535J-5235*
G01*
X156500*
G75*
G02X161735Y288770I5235*
G01*
G75*
G02X166970Y283535J-5235*
G01*
X237870*
G75*
G02X237700Y284535I2865J1001*
G01*
Y294300*
X224610*
Y295374*
G75*
G02X224020Y295308I-876J5161*
G01*
Y283860*
X207670*
Y290535*
X196983*
G75*
G02X191845Y284300I-5138J-1000*
G01*
G75*
G02X186707Y290535J5235*
G01*
X146112*
G37*
X94500Y315535D02*
G36*
G75*
G02X104735Y325770I10235D01*
G01*
G75*
G02X114970Y315535J-10235*
G01*
X208610*
Y316270*
X212050*
Y320300*
X210000*
Y327535*
X206410*
Y319360*
X193560*
Y327535*
X78085*
Y315535*
X94500*
G37*
X223080D02*
G36*
Y313070D01*
X237235*
G75*
G02X239381Y312181J-3035*
G01*
X242881Y308681*
G75*
G02X243770Y306535I-2146J-2146*
G01*
Y285792*
X243992Y285570*
X247670*
Y298210*
X264020*
Y285570*
X272470*
G75*
G02X273161Y286360I4266J-3034*
G01*
X264560*
Y299210*
X280910*
Y296644*
G75*
G02X281589Y297681I2826J-1109*
G01*
X289700Y305792*
Y315535*
X263080*
Y313069*
G75*
G02X265131Y312181I-96J-3034*
G01*
X265500Y311812*
Y313770*
X279970*
Y312730*
G75*
G02X282735Y313520I2765J-4445*
G01*
G75*
G02Y303050J-5235*
G01*
G75*
G02X279970Y303840J5235*
G01*
Y302800*
X265500*
Y305250*
X264735*
G75*
G02X263080Y305741J3035*
G01*
Y303800*
X248610*
Y315535*
X233112*
G75*
G02X229735Y314300I-3377J4000*
G01*
G75*
G02X226358Y315535J5235*
G01*
X223080*
G37*
X226358D02*
G36*
G75*
G02X228810Y324688I3377J4000D01*
G01*
Y327535*
X220970*
Y320300*
X218920*
Y316270*
X223080*
Y315535*
X226358*
G37*
X248610D02*
G36*
Y316270D01*
X263080*
Y315535*
X289700*
Y327535*
X280910*
Y323360*
X264560*
Y327535*
X264020*
Y321860*
X247670*
Y327535*
X234880*
Y321645*
G75*
G02X234788Y320903I-3037*
G01*
G75*
G02X233112Y315535I-5053J-1368*
G01*
X248610*
G37*
X395447D02*
G36*
G75*
G02X395470Y314835I-10714J-702D01*
G01*
G75*
G02X390157Y305570I-10735*
G01*
X395735*
G75*
G02X397881Y304681J-3035*
G01*
X401865Y300697*
G75*
G02X405770Y291270I870J-5162*
G01*
Y287792*
X406631Y286931*
G75*
G02X407520Y284785I-2146J-2146*
G01*
Y282770*
X409970*
Y270062*
X412700Y272792*
Y274270*
G75*
G02Y282800I3035J4265*
G01*
Y295535*
G75*
G02X413589Y297681I3035*
G01*
X414589Y298681*
G75*
G02X416735Y299570I2146J-2146*
G01*
X449678*
X455617Y305510*
G75*
G02X450200Y314835I5317J9325*
G01*
G75*
G02X450223Y315535I10734J-2*
G01*
X446247*
G75*
G02X446270Y314835I-10714J-702*
G01*
G75*
G02X424800I-10735*
G01*
G75*
G02X424823Y315535I10734J-2*
G01*
X420847*
G75*
G02X420870Y314835I-10714J-702*
G01*
G75*
G02X399400I-10735*
G01*
G75*
G02X399423Y315535I10734J-2*
G01*
X395447*
G37*
X399423D02*
G36*
G75*
G02X420847I10712J-700D01*
G01*
X424823*
G75*
G02X446247I10712J-700*
G01*
X450223*
G75*
G02X471670Y314835I10712J-700*
G01*
G75*
G02X471545Y313203I-10736J1*
G01*
X474300Y315958*
Y320112*
X470306Y324106*
G75*
G02X469300Y326535I2429J2429*
G01*
Y332091*
G75*
G02X449260Y340235I-8365J8144*
G01*
G75*
G02X451445Y347035I11675*
G01*
X445025*
G75*
G02X447210Y340235I-9490J-6800*
G01*
G75*
G02X423860I-11675*
G01*
G75*
G02X426045Y347035I11675*
G01*
X418442*
G75*
G02X420870Y340235I-8307J-6800*
G01*
G75*
G02X399400I-10735*
G01*
G75*
G02X401828Y347035I10735*
G01*
X393042*
G75*
G02X395470Y340235I-8307J-6800*
G01*
G75*
G02X374000I-10735*
G01*
G75*
G02X376428Y347035I10735*
G01*
X367642*
G75*
G02X370070Y340235I-8307J-6800*
G01*
G75*
G02X348600I-10735*
G01*
G75*
G02X351028Y347035I10735*
G01*
X342242*
G75*
G02X344670Y340235I-8307J-6800*
G01*
G75*
G02X323200I-10735*
G01*
G75*
G02X325628Y347035I10735*
G01*
X318025*
G75*
G02X320210Y340235I-9490J-6800*
G01*
G75*
G02X296860I-11675*
G01*
G75*
G02X299045Y347035I11675*
G01*
X295770*
Y304535*
G75*
G02X294881Y302389I-3035*
G01*
X292262Y299770*
X301470*
Y285300*
X291470*
Y283710*
X302410*
Y267360*
X295311*
G75*
G02X291735Y258299I-3576J-3825*
G01*
G75*
G02X287369Y260645J5236*
G01*
G75*
G02X287094Y260894I2370J2893*
G01*
X286770Y261218*
Y258792*
X293881Y251681*
G75*
G02X294558Y250650I-2146J-2147*
G01*
X301589Y257681*
G75*
G02X303735Y258570I2146J-2146*
G01*
X312421*
G75*
G02X315540Y266632I4314J2965*
G01*
X318700Y269792*
Y274208*
X317881Y273389*
G75*
G02X316970Y272763I-2145J2146*
G01*
Y268300*
X306000*
Y282770*
X314700*
Y285300*
X306000*
Y299770*
X308450*
Y304100*
G75*
G02X297800Y314835I85J10735*
G01*
G75*
G02X319270I10735*
G01*
G75*
G02X314520Y305923I-10735*
G01*
Y299770*
X314700*
Y302535*
G75*
G02X315589Y304681I3035*
G01*
X323448Y312540*
G75*
G02X323200Y314835I10488J2294*
G01*
G75*
G02X344670I10735*
G01*
G75*
G02X337077Y304570I-10735*
G01*
X351078*
X352815Y306307*
G75*
G02X348600Y314835I6520J8528*
G01*
G75*
G02X370070I10735*
G01*
G75*
G02X359193Y304101I-10735*
G01*
X354662Y299570*
X364478*
X369589Y304681*
G75*
G02X371735Y305570I2146J-2146*
G01*
X379313*
G75*
G02X374000Y314835I5422J9265*
G01*
G75*
G02X395447Y315535I10735*
G01*
X399423*
G37*
X96443Y271535D02*
G36*
G75*
G02X104735Y275770I8292J-6000D01*
G01*
G75*
G02X113027Y271535J-10235*
G01*
X122000*
Y277535*
G75*
G02X123094Y280176I3735*
G01*
X126453Y283535*
X113446*
G75*
G02X104735Y279360I-8711J7000*
G01*
G75*
G02X96024Y283535J11175*
G01*
X78085*
Y271535*
X96443*
G37*
X144500D02*
G36*
G75*
G02X149735Y276770I5235D01*
G01*
G75*
G02X154970Y271535J-5235*
G01*
X156500*
G75*
G02X161735Y276770I5235*
G01*
G75*
G02X166970Y271535J-5235*
G01*
X168500*
G75*
G02X173735Y276770I5235*
G01*
G75*
G02X178970Y271535J-5235*
G01*
X250183*
G75*
G02X247421Y279500I1552J5000*
G01*
X242735*
G75*
G02X240589Y280389J3035*
G01*
X238589Y282389*
G75*
G02X237870Y283535I2147J2145*
G01*
X166970*
G75*
G02X161735Y278300I-5235*
G01*
G75*
G02X156500Y283535J5235*
G01*
X154970*
G75*
G02X149735Y278300I-5235*
G01*
G75*
G02X144500Y283535J5235*
G01*
X137017*
X129470Y275988*
Y271535*
X144500*
G37*
X193560Y327535D02*
G36*
Y335710D01*
X206410*
Y327535*
X210000*
Y334770*
X220970*
Y327535*
X228810*
Y332300*
X224610*
Y344770*
X239080*
Y332300*
X234880*
Y327535*
X247670*
Y336210*
X264020*
Y327535*
X264560*
Y336210*
X280910*
Y327535*
X289700*
Y347035*
X288669*
G75*
G02X283735Y340050I-4934J-1750*
G01*
G75*
G02X279970Y341648J5235*
G01*
Y339800*
X265500*
Y342250*
X264735*
G75*
G02X263080Y342741J3035*
G01*
Y341800*
X248610*
Y347035*
X78085*
Y327535*
X193560*
G37*
X248610Y347035D02*
G36*
Y354270D01*
X263080*
Y350866*
G75*
G02X264131Y350181I-1096J-2831*
G01*
X265500Y348812*
Y350770*
X279970*
Y348922*
G75*
G02X283735Y350520I3765J-3637*
G01*
G75*
G02X288669Y347035J-5235*
G01*
X289700*
Y349535*
G75*
G02X290589Y351681I3035*
G01*
X296589Y357681*
G75*
G02X298735Y358570I2146J-2146*
G01*
X331735*
G75*
G02X333881Y357681J-3035*
G01*
X336081Y355481*
G75*
G02X336970Y353335I-2146J-2146*
G01*
Y350532*
G75*
G02X342242Y347035I-3035J-10297*
G01*
X351028*
G75*
G02X367642I8307J-6800*
G01*
X376428*
G75*
G02X393042I8307J-6800*
G01*
X401828*
G75*
G02X406300Y350262I8307J-6800*
G01*
Y352535*
G75*
G02X407306Y354964I3435*
G01*
X411306Y358964*
G75*
G02X411549Y359185I2427J-2425*
G01*
X78085*
Y347035*
X248610*
G37*
X299045D02*
G36*
G75*
G02X318025I9490J-6800D01*
G01*
X325628*
G75*
G02X330900Y350532I8307J-6800*
G01*
Y352078*
X330478Y352500*
X299992*
X295770Y348278*
Y347035*
X299045*
G37*
X426045D02*
G36*
G75*
G02X445025I9490J-6800D01*
G01*
X451445*
G75*
G02X469300Y348379I9490J-6800*
G01*
Y351112*
X467312Y353100*
X415158*
X413170Y351112*
Y350532*
G75*
G02X418442Y347035I-3035J-10297*
G01*
X426045*
G37*
X121770Y130117D02*
Y121792D01*
X129881Y113681*
G75*
G02X130770Y111535I-2146J-2146*
G01*
Y89792*
X142992Y77570*
X157408*
X154589Y80389*
G75*
G02X153700Y82535I2146J2146*
G01*
Y85300*
X149500*
Y96270*
X163970*
Y85300*
X159770*
Y83792*
X160992Y82570*
X190928*
X190958Y82600*
X189200*
Y116070*
X201170*
Y114370*
X201278*
X204573Y117665*
G75*
G02X205421Y121500I5162J870*
G01*
X141735*
G75*
G02X139589Y122389J3035*
G01*
X131478Y130500*
X130000*
G75*
G02X121770Y130117I-4265J3035*
G01*
X163634Y112710D02*
G75*
G02X171700Y115849I5101J-1175D01*
G01*
Y116070*
X183670*
Y82600*
X171700*
Y107200*
X171670*
G75*
G02X164910Y107961I-2935J4335*
G01*
Y99860*
X148560*
Y112710*
X163634*
X130770Y99685D02*
G36*
Y89792D01*
X142992Y77570*
X157408*
X154589Y80389*
G75*
G02X153700Y82535I2146J2146*
G01*
Y85300*
X149500*
Y96270*
X163970*
Y85300*
X159770*
Y83792*
X160992Y82570*
X190928*
X190958Y82600*
X189200*
Y99685*
X183670*
Y82600*
X171700*
Y99685*
X130770*
G37*
X171700D02*
G36*
Y107200D01*
X171670*
G75*
G02X164910Y107961I-2935J4335*
G01*
Y99860*
X148560*
Y112710*
X163634*
G75*
G02X171700Y115849I5101J-1175*
G01*
Y116070*
X183670*
Y99685*
X189200*
Y116070*
X201170*
Y114370*
X201278*
X204573Y117665*
G75*
G02X205421Y121500I5162J870*
G01*
X141735*
G75*
G02X139589Y122389J3035*
G01*
X131478Y130500*
X130000*
G75*
G02X121770Y130117I-4265J3035*
G01*
Y121792*
X129881Y113681*
G75*
G02X130770Y111535I-2146J-2146*
G01*
Y99685*
X171700*
G37*
X262770Y231117D02*
Y220535D01*
G75*
G02X261881Y218389I-3035*
G01*
X247770Y204278*
Y166792*
X251992Y162570*
X280470*
G75*
G02X288700Y162953I4265J-3035*
G01*
Y248278*
X281589Y255389*
G75*
G02X280700Y257535I2146J2146*
G01*
Y279117*
G75*
G02X272470Y279500I-3965J3418*
G01*
X264049*
G75*
G02X262770Y272270I-4314J-2965*
G01*
Y237953*
G75*
G02X266735Y239770I3965J-3418*
G01*
G75*
G02Y229300J-5235*
G01*
G75*
G02X262770Y231117J5235*
G01*
X258735Y189300D02*
G75*
G02Y199770J5235D01*
G01*
G75*
G02Y189300J-5235*
G01*
X270735D02*
G75*
G02Y199770J5235D01*
G01*
G75*
G02Y189300J-5235*
G01*
X282735D02*
G75*
G02Y199770J5235D01*
G01*
G75*
G02Y189300J-5235*
G01*
X247770Y194535D02*
G36*
Y166792D01*
X251992Y162570*
X280470*
G75*
G02X288700Y162953I4265J-3035*
G01*
Y194535*
X287970*
G75*
G02X282735Y189300I-5235*
G01*
G75*
G02X277500Y194535J5235*
G01*
X275970*
G75*
G02X270735Y189300I-5235*
G01*
G75*
G02X265500Y194535J5235*
G01*
X263970*
G75*
G02X258735Y189300I-5235*
G01*
G75*
G02X253500Y194535J5235*
G01*
X247770*
G37*
X253500D02*
G36*
G75*
G02X258735Y199770I5235D01*
G01*
G75*
G02X263970Y194535J-5235*
G01*
X265500*
G75*
G02X270735Y199770I5235*
G01*
G75*
G02X275970Y194535J-5235*
G01*
X277500*
G75*
G02X282735Y199770I5235*
G01*
G75*
G02X287970Y194535J-5235*
G01*
X288700*
Y248278*
X281589Y255389*
G75*
G02X280700Y257535I2146J2146*
G01*
Y279117*
G75*
G02X272470Y279500I-3965J3418*
G01*
X264049*
G75*
G02X262770Y272270I-4314J-2965*
G01*
Y237953*
G75*
G02X266735Y239770I3965J-3418*
G01*
G75*
G02Y229300J-5235*
G01*
G75*
G02X262770Y231117J5235*
G01*
Y220535*
G75*
G02X261881Y218389I-3035*
G01*
X247770Y204278*
Y194535*
X253500*
G37*
X284239Y105746D02*
G75*
G02X284735Y105770I501J-5207D01*
G01*
G75*
G02X288735Y103912J-5235*
G01*
G75*
G02X292735Y105770I4000J-3377*
G01*
G75*
G02X293566Y105704I3J-5232*
G01*
G75*
G02X296606Y111317I5168J831*
G01*
G75*
G02X300735Y119770I4129J3218*
G01*
G75*
G02X305897Y113665J-5235*
G01*
X307881Y111681*
G75*
G02X308770Y109535I-2146J-2146*
G01*
Y92570*
X357478*
X362589Y97681*
G75*
G02X364735Y98570I2146J-2146*
G01*
X413735*
G75*
G02X415881Y97681J-3035*
G01*
X420992Y92570*
X426470*
G75*
G02X435666Y87776I4265J-3035*
G01*
G75*
G02X443666Y81776I3069J-4241*
G01*
G75*
G02X451850Y76419I3069J-4241*
G01*
G75*
G02X458958Y71885I1885J-4884*
G01*
X565385*
Y359185*
X470921*
G75*
G02X471164Y358964I-2185J-2646*
G01*
X475164Y354964*
G75*
G02X476170Y352535I-2429J-2429*
G01*
Y343820*
X488410*
Y327470*
X476658*
X480164Y323964*
G75*
G02X481170Y321535I-2429J-2429*
G01*
Y314535*
G75*
G02X480164Y312106I-3435*
G01*
X470827Y302769*
G75*
G02X474403Y301270I-92J-5234*
G01*
X479188*
X484500Y306582*
Y318880*
X496970*
Y304410*
X492892*
X483376Y294894*
G75*
G02X480735Y293800I-2641J2641*
G01*
X474403*
G75*
G02X471470Y292352I-3668J3735*
G01*
Y278300*
X469720*
Y264135*
G75*
G02X468626Y261494I-3735*
G01*
X461376Y254244*
G75*
G02X458735Y253150I-2641J2641*
G01*
X456996*
Y251160*
X457936*
Y237210*
X456996*
Y225450*
X436526*
Y229452*
X426478Y239500*
X413992*
X413881Y239389*
G75*
G02X411735Y238500I-2146J2146*
G01*
X336992*
X333881Y235389*
G75*
G02X331735Y234500I-2146J2146*
G01*
X320992*
X318881Y232389*
G75*
G02X316735Y231500I-2146J2146*
G01*
X316558*
G75*
G02X306770Y231875I-4823J2035*
G01*
Y129535*
G75*
G02X305881Y127389I-3035*
G01*
X284239Y105746*
X475060Y277360D02*
Y293710D01*
X487910*
Y277360*
X475060*
X480410Y222710D02*
Y206360D01*
X467560*
Y222710*
X480410*
X494970Y211509D02*
Y207300D01*
X484000*
Y221770*
X494970*
Y219062*
X495329Y219421*
X496478Y225450*
X490484*
Y237520*
X510954*
Y225450*
X502658*
X501116Y217367*
G75*
G02X500281Y215789I-2982J568*
G01*
X496881Y212389*
G75*
G02X494970Y211509I-2146J2146*
G01*
X495723Y342880D02*
G75*
G02X500235Y350770I4512J2655D01*
G01*
G75*
G02X504747Y342880J-5235*
G01*
X506470*
Y328410*
X494000*
Y342880*
X495723*
X510954Y240450D02*
Y238150D01*
X490484*
Y250220*
X510954*
Y247920*
X515067*
G75*
G02X518735Y249420I3668J-3735*
G01*
G75*
G02Y238950J-5235*
G01*
G75*
G02X515067Y240450J5235*
G01*
X510954*
Y253150D02*
Y250850D01*
X490484*
Y262920*
X510954*
Y260620*
X524067*
G75*
G02X527735Y262120I3668J-3735*
G01*
G75*
G02Y251650J-5235*
G01*
G75*
G02X524067Y253150J5235*
G01*
X510954*
Y263550D02*
X490484D01*
Y275620*
X510954*
Y263550*
X522403Y186800D02*
G75*
G02X518735Y185300I-3668J3735D01*
G01*
G75*
G02Y195770J5235*
G01*
G75*
G02X522403Y194270J-5235*
G01*
X535206*
G75*
G02X544735Y200770I9529J-3735*
G01*
G75*
G02Y180300J-10235*
G01*
G75*
G02X535206Y186800J10235*
G01*
X522403*
X531403Y211800D02*
G75*
G02X527735Y210300I-3668J3735D01*
G01*
G75*
G02Y220770J5235*
G01*
G75*
G02X531403Y219270J-5235*
G01*
X535206*
G75*
G02X544735Y225770I9529J-3735*
G01*
G75*
G02Y205300J-10235*
G01*
G75*
G02X535206Y211800J10235*
G01*
X531403*
X544735Y80300D02*
G75*
G02Y100770J10235D01*
G01*
G75*
G02Y80300J-10235*
G01*
Y105300D02*
G75*
G02Y125770J10235D01*
G01*
G75*
G02Y105300J-10235*
G01*
Y130300D02*
G75*
G02Y150770J10235D01*
G01*
G75*
G02Y130300J-10235*
G01*
Y155300D02*
G75*
G02Y175770J10235D01*
G01*
G75*
G02Y155300J-10235*
G01*
Y230300D02*
G75*
G02Y250770J10235D01*
G01*
G75*
G02Y230300J-10235*
G01*
Y255300D02*
G75*
G02Y275770J10235D01*
G01*
G75*
G02Y255300J-10235*
G01*
Y279360D02*
G75*
G02Y301710J11175D01*
G01*
G75*
G02Y279360J-11175*
G01*
Y305300D02*
G75*
G02Y325770J10235D01*
G01*
G75*
G02Y305300J-10235*
G01*
X471470Y285535D02*
G36*
Y278300D01*
X469720*
Y269585*
X490484*
Y275620*
X510954*
Y269585*
X535335*
G75*
G02X544735Y275770I9400J-4050*
G01*
G75*
G02X554135Y269585J-10235*
G01*
X565385*
Y285535*
X554729*
G75*
G02X544735Y279360I-9994J5000*
G01*
G75*
G02X534741Y285535J11175*
G01*
X487910*
Y277360*
X475060*
Y285535*
X471470*
G37*
X475060D02*
G36*
Y293710D01*
X487910*
Y285535*
X534741*
G75*
G02X544735Y301710I9994J5000*
G01*
G75*
G02X554729Y285535J-11175*
G01*
X565385*
Y315535*
X554970*
G75*
G02X544735Y305300I-10235*
G01*
G75*
G02X534500Y315535J10235*
G01*
X496970*
Y304410*
X492892*
X483376Y294894*
G75*
G02X480735Y293800I-2641J2641*
G01*
X474403*
G75*
G02X471470Y292352I-3668J3735*
G01*
Y285535*
X475060*
G37*
X306770Y214535D02*
G36*
Y190535D01*
X513500*
G75*
G02X518735Y195770I5235*
G01*
G75*
G02X522403Y194270J-5235*
G01*
X535206*
G75*
G02X544735Y200770I9529J-3735*
G01*
G75*
G02X554970Y190535J-10235*
G01*
X565385*
Y214535*
X554921*
G75*
G02X544735Y205300I-10186J1000*
G01*
G75*
G02X535206Y211800J10235*
G01*
X531403*
G75*
G02X527735Y210300I-3668J3735*
G01*
G75*
G02X522596Y214535J5235*
G01*
X499027*
X496881Y212389*
G75*
G02X494970Y211509I-2146J2146*
G01*
Y207300*
X484000*
Y214535*
X480410*
Y206360*
X467560*
Y214535*
X306770*
G37*
X467560D02*
G36*
Y222710D01*
X480410*
Y214535*
X484000*
Y221770*
X494970*
Y219062*
X495329Y219421*
X496478Y225450*
X490484*
Y237520*
X510954*
Y225450*
X502658*
X501116Y217367*
G75*
G02X500281Y215789I-2982J568*
G01*
X499027Y214535*
X522596*
G75*
G02X527735Y220770I5139J1000*
G01*
G75*
G02X531403Y219270J-5235*
G01*
X535206*
G75*
G02X544735Y225770I9529J-3735*
G01*
G75*
G02X554921Y214535J-10235*
G01*
X565385*
Y244185*
X554297*
G75*
G02X544735Y230300I-9562J-3650*
G01*
G75*
G02X535173Y244185J10235*
G01*
X523970*
G75*
G02X518735Y238950I-5235*
G01*
G75*
G02X515067Y240450J5235*
G01*
X510954*
Y238150*
X490484*
Y244185*
X457936*
Y237210*
X456996*
Y225450*
X436526*
Y229452*
X426478Y239500*
X413992*
X413881Y239389*
G75*
G02X411735Y238500I-2146J2146*
G01*
X336992*
X333881Y235389*
G75*
G02X331735Y234500I-2146J2146*
G01*
X320992*
X318881Y232389*
G75*
G02X316735Y231500I-2146J2146*
G01*
X316558*
G75*
G02X306770Y231875I-4823J2035*
G01*
Y214535*
X467560*
G37*
X488410Y339590D02*
G36*
Y327470D01*
X476658*
X480164Y323964*
G75*
G02X481170Y321535I-2429J-2429*
G01*
Y314535*
G75*
G02X480164Y312106I-3435*
G01*
X470827Y302769*
G75*
G02X474403Y301270I-92J-5234*
G01*
X479188*
X484500Y306582*
Y318880*
X496970*
Y315535*
X534500*
G75*
G02X544735Y325770I10235*
G01*
G75*
G02X554970Y315535J-10235*
G01*
X565385*
Y339590*
X506470*
Y328410*
X494000*
Y339590*
X488410*
G37*
X494000D02*
G36*
Y342880D01*
X495723*
G75*
G02X500235Y350770I4512J2655*
G01*
G75*
G02X504747Y342880J-5235*
G01*
X506470*
Y339590*
X565385*
Y359185*
X470921*
G75*
G02X471164Y358964I-2185J-2646*
G01*
X475164Y354964*
G75*
G02X476170Y352535I-2429J-2429*
G01*
Y343820*
X488410*
Y339590*
X494000*
G37*
X490484Y244185D02*
G36*
Y250220D01*
X510954*
Y247920*
X515067*
G75*
G02X518735Y249420I3668J-3735*
G01*
G75*
G02X523970Y244185J-5235*
G01*
X535173*
G75*
G02X544735Y250770I9562J-3650*
G01*
G75*
G02X554297Y244185J-10235*
G01*
X565385*
Y256885*
X550206*
G75*
G02X544735Y255300I-5471J8650*
G01*
G75*
G02X539264Y256885J10235*
G01*
X532970*
G75*
G02X527735Y251650I-5235*
G01*
G75*
G02X524067Y253150J5235*
G01*
X510954*
Y250850*
X490484*
Y256885*
X464017*
X461376Y254244*
G75*
G02X458735Y253150I-2641J2641*
G01*
X456996*
Y251160*
X457936*
Y244185*
X490484*
G37*
Y256885D02*
G36*
Y262920D01*
X510954*
Y260620*
X524067*
G75*
G02X527735Y262120I3668J-3735*
G01*
G75*
G02X532970Y256885J-5235*
G01*
X539264*
G75*
G02X535335Y269585I5471J8650*
G01*
X510954*
Y263550*
X490484*
Y269585*
X469720*
Y264135*
G75*
G02X468626Y261494I-3735*
G01*
X464017Y256885*
X490484*
G37*
X565385D02*
G36*
Y269585D01*
X554135*
G75*
G02X550206Y256885I-9400J-4050*
G01*
X565385*
G37*
X306770Y190535D02*
G36*
Y165535D01*
X534500*
G75*
G02X544735Y175770I10235*
G01*
G75*
G02X554970Y165535J-10235*
G01*
X565385*
Y190535*
X554970*
G75*
G02X544735Y180300I-10235*
G01*
G75*
G02X535206Y186800J10235*
G01*
X522403*
G75*
G02X518735Y185300I-3668J3735*
G01*
G75*
G02X513500Y190535J5235*
G01*
X306770*
G37*
X435874Y90535D02*
G36*
G75*
G02X435666Y87776I-5139J-1000D01*
G01*
G75*
G02X443666Y81776I3069J-4241*
G01*
G75*
G02X451850Y76419I3069J-4241*
G01*
G75*
G02X458958Y71885I1885J-4884*
G01*
X565385*
Y90535*
X554970*
G75*
G02X544735Y80300I-10235*
G01*
G75*
G02X534500Y90535J10235*
G01*
X435874*
G37*
X534500D02*
G36*
G75*
G02X544735Y100770I10235D01*
G01*
G75*
G02X554970Y90535J-10235*
G01*
X565385*
Y115535*
X554970*
G75*
G02X544735Y105300I-10235*
G01*
G75*
G02X534500Y115535J10235*
G01*
X305874*
G75*
G02X305897Y113665I-5139J-998*
G01*
X307881Y111681*
G75*
G02X308770Y109535I-2146J-2146*
G01*
Y92570*
X357478*
X362589Y97681*
G75*
G02X364735Y98570I2146J-2146*
G01*
X413735*
G75*
G02X415881Y97681J-3035*
G01*
X420992Y92570*
X426470*
G75*
G02X435874Y90535I4265J-3035*
G01*
X534500*
G37*
Y115535D02*
G36*
G75*
G02X544735Y125770I10235D01*
G01*
G75*
G02X554970Y115535J-10235*
G01*
X565385*
Y140535*
X554970*
G75*
G02X544735Y130300I-10235*
G01*
G75*
G02X534500Y140535J10235*
G01*
X306770*
Y129535*
G75*
G02X305881Y127389I-3035*
G01*
X284239Y105746*
G75*
G02X284735Y105770I501J-5207*
G01*
G75*
G02X288735Y103912J-5235*
G01*
G75*
G02X292735Y105770I4000J-3377*
G01*
G75*
G02X293566Y105704I3J-5232*
G01*
G75*
G02X296606Y111317I5168J831*
G01*
G75*
G02X300735Y119770I4129J3218*
G01*
G75*
G02X305874Y115535J-5235*
G01*
X534500*
G37*
Y140535D02*
G36*
G75*
G02X544735Y150770I10235D01*
G01*
G75*
G02X554970Y140535J-10235*
G01*
X565385*
Y165535*
X554970*
G75*
G02X544735Y155300I-10235*
G01*
G75*
G02X534500Y165535J10235*
G01*
X306770*
Y140535*
X534500*
G37*
X310184Y228535D02*
X309735D01*
Y204535*
X323735*
X324735Y203535*
Y123535*
X321735Y120535*
X309735*
Y96535*
X332735*
Y108535*
X334735Y110535*
X418735*
Y96535*
X442735*
Y120535*
X428735*
X427735Y121535*
Y202535*
X429735Y204535*
X442735*
Y225450*
X436526*
Y228535*
X417735*
Y215535*
X415735Y213535*
X336735*
X333735Y216535*
Y228535*
X313286*
G75*
G02X310184I-1551J5001*
G01*
G36*
X309735*
Y204535*
X323735*
X324735Y203535*
Y123535*
X321735Y120535*
X309735*
Y96535*
X332735*
Y108535*
X334735Y110535*
X418735*
Y96535*
X442735*
Y120535*
X428735*
X427735Y121535*
Y202535*
X429735Y204535*
X442735*
Y225450*
X436526*
Y228535*
X417735*
Y215535*
X415735Y213535*
X336735*
X333735Y216535*
Y228535*
X313286*
G75*
G02X310184I-1551J5001*
G01*
G37*
X358383Y80570D02*
X359735D01*
G75*
G02X361881Y79681J-3035*
G01*
X363992Y77570*
X368421*
G75*
G02X372735Y85770I4314J2965*
G01*
G75*
G02X377049Y77570J-5235*
G01*
X431478*
X433589Y79681*
G75*
G02X434585Y80344I2147J-2145*
G01*
G75*
G02X434470Y80500I4144J3175*
G01*
X419735*
G75*
G02X417589Y81389J3035*
G01*
X410478Y88500*
X366992*
X359881Y81389*
G75*
G02X358383Y80570I-2146J2146*
G01*
G36*
X359735*
G75*
G02X361881Y79681J-3035*
G01*
X363992Y77570*
X368421*
G75*
G02X372735Y85770I4314J2965*
G01*
G75*
G02X377049Y77570J-5235*
G01*
X431478*
X433589Y79681*
G75*
G02X434585Y80344I2147J-2145*
G01*
G75*
G02X434470Y80500I4144J3175*
G01*
X419735*
G75*
G02X417589Y81389J3035*
G01*
X410478Y88500*
X366992*
X359881Y81389*
G75*
G02X358383Y80570I-2146J2146*
G01*
G37*
X414062Y245570D02*
X427735D01*
G75*
G02X429881Y244681J-3035*
G01*
X435586Y238976*
Y251160*
X436526*
Y262920*
X456996*
Y260620*
X457188*
X462250Y265682*
Y278300*
X460500*
Y292442*
X456164Y288106*
G75*
G02X453735Y287100I-2429J2429*
G01*
X429158*
X428170Y286112*
Y282485*
G75*
G02X429735Y280086I-3434J-3950*
G01*
G75*
G02X434735Y283770I5000J-1551*
G01*
G75*
G02X439083Y275620J-5235*
G01*
X456996*
Y263550*
X436526*
Y266550*
X433042*
X429770Y263278*
Y262535*
G75*
G02X428881Y260389I-3035*
G01*
X414062Y245570*
G36*
X427735*
G75*
G02X429881Y244681J-3035*
G01*
X435586Y238976*
Y251160*
X436526*
Y262920*
X456996*
Y260620*
X457188*
X462250Y265682*
Y278300*
X460500*
Y292442*
X456164Y288106*
G75*
G02X453735Y287100I-2429J2429*
G01*
X429158*
X428170Y286112*
Y282485*
G75*
G02X429735Y280086I-3434J-3950*
G01*
G75*
G02X434735Y283770I5000J-1551*
G01*
G75*
G02X439083Y275620J-5235*
G01*
X456996*
Y263550*
X436526*
Y266550*
X433042*
X429770Y263278*
Y262535*
G75*
G02X428881Y260389I-3035*
G01*
X414062Y245570*
G37*
D02*
D11*
X98005Y215535D02*
X92925D01*
X98005Y290535D02*
X92925D01*
X104735Y208805D02*
Y203725D01*
Y222265D02*
Y227345D01*
Y283805D02*
Y278725D01*
Y297265D02*
Y302345D01*
X111465Y215535D02*
X116545D01*
X111465Y290535D02*
X116545D01*
X153005Y106285D02*
X147925D01*
X156735Y104305D02*
Y99225D01*
Y108265D02*
Y113345D01*
X160465Y106285D02*
X165545D01*
X161005Y118535D02*
X155925D01*
X162005Y207535D02*
X156925D01*
X162512Y194312D02*
X158920Y190720D01*
X162512Y196758D02*
X158920Y200350D01*
X162512Y218312D02*
X158920Y214720D01*
X162512Y220758D02*
X158920Y224350D01*
X163735Y205805D02*
Y200725D01*
Y209265D02*
Y214345D01*
X164465Y118535D02*
X169545D01*
X164958Y194312D02*
X168550Y190720D01*
X164958Y196758D02*
X168550Y200350D01*
X164958Y218312D02*
X168550Y214720D01*
X164958Y220758D02*
X168550Y224350D01*
X165465Y207535D02*
X170545D01*
X173005Y327535D02*
X167925D01*
X174005Y195535D02*
X168925D01*
X174005Y219535D02*
X168925D01*
X174512Y206312D02*
X170920Y202720D01*
X174512Y208758D02*
X170920Y212350D01*
X174735Y325805D02*
Y320725D01*
Y329265D02*
Y334345D01*
X175735Y193805D02*
Y188725D01*
Y197265D02*
Y202345D01*
Y217805D02*
Y212725D01*
Y221265D02*
Y226345D01*
X176465Y327535D02*
X181545D01*
X176958Y206312D02*
X180550Y202720D01*
X176958Y208758D02*
X180550Y212350D01*
X177465Y195535D02*
X182545D01*
X177465Y219535D02*
X182545D01*
X186005Y207535D02*
X180925D01*
X186512Y194312D02*
X182920Y190720D01*
X186512Y196758D02*
X182920Y200350D01*
X186512Y218312D02*
X182920Y214720D01*
X186512Y220758D02*
X182920Y224350D01*
X187735Y205805D02*
Y200725D01*
Y209265D02*
Y214345D01*
X188958Y194312D02*
X192550Y190720D01*
X188958Y196758D02*
X192550Y200350D01*
X188958Y218312D02*
X192550Y214720D01*
X188958Y220758D02*
X192550Y224350D01*
X189465Y207535D02*
X194545D01*
X194005Y340535D02*
X188925D01*
X195735Y342265D02*
Y347345D01*
X197465Y340535D02*
X202545D01*
X198005Y327535D02*
X192925D01*
X199985Y323805D02*
Y318725D01*
Y331265D02*
Y336345D01*
X201965Y327535D02*
X207045D01*
X212115Y291035D02*
X207035D01*
X215845Y288305D02*
Y283225D01*
Y293765D02*
Y298845D01*
X219575Y291035D02*
X224655D01*
X252115D02*
X247035D01*
X252743Y325933D02*
X248035Y321225D01*
X252743Y332137D02*
X248035Y336845D01*
X255845Y293765D02*
Y298845D01*
X257512Y181312D02*
X253920Y177720D01*
X257512Y183758D02*
X253920Y187350D01*
X258947Y325933D02*
X263655Y321225D01*
X258947Y332137D02*
X263655Y336845D01*
X259958Y181312D02*
X263550Y177720D01*
X259958Y183758D02*
X263550Y187350D01*
X269512Y181312D02*
X265920Y177720D01*
X269512Y183758D02*
X265920Y187350D01*
X270383Y295137D02*
X265675Y299845D01*
X270383Y327433D02*
X265675Y322725D01*
X270383Y332137D02*
X265675Y336845D01*
X271958Y181312D02*
X275550Y177720D01*
X271958Y183758D02*
X275550Y187350D01*
X275087Y295137D02*
X279795Y299845D01*
X275087Y327433D02*
X279795Y322725D01*
X275087Y332137D02*
X279795Y336845D01*
X281512Y181312D02*
X277920Y177720D01*
X281512Y183758D02*
X277920Y187350D01*
X283958Y181312D02*
X287550Y177720D01*
X283958Y183758D02*
X287550Y187350D01*
X284005Y320535D02*
X278925D01*
X285735Y318805D02*
Y313725D01*
Y322265D02*
Y327345D01*
X295985Y279265D02*
Y284345D01*
X297965Y275535D02*
X303045D01*
X303423Y335123D02*
X299831Y331531D01*
X303423Y345347D02*
X299831Y348939D01*
X313647Y335123D02*
X317239Y331531D01*
X313647Y345347D02*
X317239Y348939D01*
X340005Y135535D02*
X334925D01*
X340005D02*
X334925D01*
X340005Y155535D02*
X334925D01*
X340005D02*
X334925D01*
X340005Y175535D02*
X334925D01*
X340005D02*
X334925D01*
X340005Y195535D02*
X334925D01*
X340005D02*
X334925D01*
X341735Y133805D02*
Y128725D01*
Y133805D02*
Y128725D01*
Y137265D02*
Y142345D01*
Y137265D02*
Y142345D01*
Y153805D02*
Y148725D01*
Y153805D02*
Y148725D01*
Y157265D02*
Y162345D01*
Y157265D02*
Y162345D01*
Y173805D02*
Y168725D01*
Y173805D02*
Y168725D01*
Y177265D02*
Y182345D01*
Y177265D02*
Y182345D01*
Y193805D02*
Y188725D01*
Y193805D02*
Y188725D01*
Y197265D02*
Y202345D01*
Y197265D02*
Y202345D01*
X343465Y135535D02*
X348545D01*
X343465D02*
X348545D01*
X343465Y155535D02*
X348545D01*
X343465D02*
X348545D01*
X343465Y175535D02*
X348545D01*
X343465D02*
X348545D01*
X343465Y195535D02*
X348545D01*
X343465D02*
X348545D01*
X350005Y125535D02*
X344925D01*
X350005D02*
X344925D01*
X350005Y145535D02*
X344925D01*
X350005D02*
X344925D01*
X350005Y165535D02*
X344925D01*
X350005D02*
X344925D01*
X350005Y185535D02*
X344925D01*
X350005D02*
X344925D01*
X351735Y123805D02*
Y118725D01*
Y123805D02*
Y118725D01*
Y127265D02*
Y132345D01*
Y127265D02*
Y132345D01*
Y143805D02*
Y138725D01*
Y143805D02*
Y138725D01*
Y147265D02*
Y152345D01*
Y147265D02*
Y152345D01*
Y163805D02*
Y158725D01*
Y163805D02*
Y158725D01*
Y167265D02*
Y172345D01*
Y167265D02*
Y172345D01*
Y183805D02*
Y178725D01*
Y183805D02*
Y178725D01*
Y187265D02*
Y192345D01*
Y187265D02*
Y192345D01*
X353465Y125535D02*
X358545D01*
X353465D02*
X358545D01*
X353465Y145535D02*
X358545D01*
X353465D02*
X358545D01*
X353465Y165535D02*
X358545D01*
X353465D02*
X358545D01*
X353465Y185535D02*
X358545D01*
X353465D02*
X358545D01*
X360005Y135535D02*
X354925D01*
X360005D02*
X354925D01*
X360005Y155535D02*
X354925D01*
X360005D02*
X354925D01*
X360005Y175535D02*
X354925D01*
X360005D02*
X354925D01*
X360005Y195535D02*
X354925D01*
X360005D02*
X354925D01*
X361735Y133805D02*
Y128725D01*
Y133805D02*
Y128725D01*
Y137265D02*
Y142345D01*
Y137265D02*
Y142345D01*
Y153805D02*
Y148725D01*
Y153805D02*
Y148725D01*
Y157265D02*
Y162345D01*
Y157265D02*
Y162345D01*
Y173805D02*
Y168725D01*
Y173805D02*
Y168725D01*
Y177265D02*
Y182345D01*
Y177265D02*
Y182345D01*
Y193805D02*
Y188725D01*
Y193805D02*
Y188725D01*
Y197265D02*
Y202345D01*
Y197265D02*
Y202345D01*
X363465Y135535D02*
X368545D01*
X363465D02*
X368545D01*
X363465Y155535D02*
X368545D01*
X363465D02*
X368545D01*
X363465Y175535D02*
X368545D01*
X363465D02*
X368545D01*
X363465Y195535D02*
X368545D01*
X363465D02*
X368545D01*
X370005Y125535D02*
X364925D01*
X370005D02*
X364925D01*
X370005Y145535D02*
X364925D01*
X370005D02*
X364925D01*
X370005Y165535D02*
X364925D01*
X370005D02*
X364925D01*
X370005Y185535D02*
X364925D01*
X370005D02*
X364925D01*
X371735Y123805D02*
Y118725D01*
Y123805D02*
Y118725D01*
Y127265D02*
Y132345D01*
Y127265D02*
Y132345D01*
Y143805D02*
Y138725D01*
Y143805D02*
Y138725D01*
Y147265D02*
Y152345D01*
Y147265D02*
Y152345D01*
Y163805D02*
Y158725D01*
Y163805D02*
Y158725D01*
Y167265D02*
Y172345D01*
Y167265D02*
Y172345D01*
Y183805D02*
Y178725D01*
Y183805D02*
Y178725D01*
Y187265D02*
Y192345D01*
Y187265D02*
Y192345D01*
X373465Y125535D02*
X378545D01*
X373465D02*
X378545D01*
X373465Y145535D02*
X378545D01*
X373465D02*
X378545D01*
X373465Y165535D02*
X378545D01*
X373465D02*
X378545D01*
X373465Y185535D02*
X378545D01*
X373465D02*
X378545D01*
X380005Y135535D02*
X374925D01*
X380005D02*
X374925D01*
X380005Y155535D02*
X374925D01*
X380005D02*
X374925D01*
X380005Y175535D02*
X374925D01*
X380005D02*
X374925D01*
X380005Y195535D02*
X374925D01*
X380005D02*
X374925D01*
X381735Y133805D02*
Y128725D01*
Y133805D02*
Y128725D01*
Y137265D02*
Y142345D01*
Y137265D02*
Y142345D01*
Y153805D02*
Y148725D01*
Y153805D02*
Y148725D01*
Y157265D02*
Y162345D01*
Y157265D02*
Y162345D01*
Y173805D02*
Y168725D01*
Y173805D02*
Y168725D01*
Y177265D02*
Y182345D01*
Y177265D02*
Y182345D01*
Y193805D02*
Y188725D01*
Y193805D02*
Y188725D01*
Y197265D02*
Y202345D01*
Y197265D02*
Y202345D01*
X383465Y135535D02*
X388545D01*
X383465D02*
X388545D01*
X383465Y155535D02*
X388545D01*
X383465D02*
X388545D01*
X383465Y175535D02*
X388545D01*
X383465D02*
X388545D01*
X383465Y195535D02*
X388545D01*
X383465D02*
X388545D01*
X390005Y125535D02*
X384925D01*
X390005D02*
X384925D01*
X390005Y145535D02*
X384925D01*
X390005D02*
X384925D01*
X390005Y165535D02*
X384925D01*
X390005D02*
X384925D01*
X390005Y185535D02*
X384925D01*
X390005D02*
X384925D01*
X391735Y123805D02*
Y118725D01*
Y123805D02*
Y118725D01*
Y127265D02*
Y132345D01*
Y127265D02*
Y132345D01*
Y143805D02*
Y138725D01*
Y143805D02*
Y138725D01*
Y147265D02*
Y152345D01*
Y147265D02*
Y152345D01*
Y163805D02*
Y158725D01*
Y163805D02*
Y158725D01*
Y167265D02*
Y172345D01*
Y167265D02*
Y172345D01*
Y183805D02*
Y178725D01*
Y183805D02*
Y178725D01*
Y187265D02*
Y192345D01*
Y187265D02*
Y192345D01*
X393465Y125535D02*
X398545D01*
X393465D02*
X398545D01*
X393465Y145535D02*
X398545D01*
X393465D02*
X398545D01*
X393465Y165535D02*
X398545D01*
X393465D02*
X398545D01*
X393465Y185535D02*
X398545D01*
X393465D02*
X398545D01*
X400005Y135535D02*
X394925D01*
X400005D02*
X394925D01*
X400005Y155535D02*
X394925D01*
X400005D02*
X394925D01*
X400005Y175535D02*
X394925D01*
X400005D02*
X394925D01*
X400005Y195535D02*
X394925D01*
X400005D02*
X394925D01*
X401735Y133805D02*
Y128725D01*
Y133805D02*
Y128725D01*
Y137265D02*
Y142345D01*
Y137265D02*
Y142345D01*
Y153805D02*
Y148725D01*
Y153805D02*
Y148725D01*
Y157265D02*
Y162345D01*
Y157265D02*
Y162345D01*
Y173805D02*
Y168725D01*
Y173805D02*
Y168725D01*
Y177265D02*
Y182345D01*
Y177265D02*
Y182345D01*
Y193805D02*
Y188725D01*
Y193805D02*
Y188725D01*
Y197265D02*
Y202345D01*
Y197265D02*
Y202345D01*
X403465Y135535D02*
X408545D01*
X403465D02*
X408545D01*
X403465Y155535D02*
X408545D01*
X403465D02*
X408545D01*
X403465Y175535D02*
X408545D01*
X403465D02*
X408545D01*
X403465Y195535D02*
X408545D01*
X403465D02*
X408545D01*
X405005Y80535D02*
X399925D01*
X406735Y82265D02*
Y87345D01*
X408465Y80535D02*
X413545D01*
X410005Y125535D02*
X404925D01*
X410005D02*
X404925D01*
X410005Y145535D02*
X404925D01*
X410005D02*
X404925D01*
X410005Y165535D02*
X404925D01*
X410005D02*
X404925D01*
X410005Y185535D02*
X404925D01*
X410005D02*
X404925D01*
X411735Y123805D02*
Y118725D01*
Y123805D02*
Y118725D01*
Y127265D02*
Y132345D01*
Y127265D02*
Y132345D01*
Y143805D02*
Y138725D01*
Y143805D02*
Y138725D01*
Y147265D02*
Y152345D01*
Y147265D02*
Y152345D01*
Y163805D02*
Y158725D01*
Y163805D02*
Y158725D01*
Y167265D02*
Y172345D01*
Y167265D02*
Y172345D01*
Y183805D02*
Y178725D01*
Y183805D02*
Y178725D01*
Y187265D02*
Y192345D01*
Y187265D02*
Y192345D01*
X413465Y125535D02*
X418545D01*
X413465D02*
X418545D01*
X413465Y145535D02*
X418545D01*
X413465D02*
X418545D01*
X413465Y165535D02*
X418545D01*
X413465D02*
X418545D01*
X413465Y185535D02*
X418545D01*
X413465D02*
X418545D01*
X430423Y335123D02*
X426831Y331531D01*
X430423Y345347D02*
X426831Y348939D01*
X440031Y244185D02*
X434951D01*
X440647Y335123D02*
X444239Y331531D01*
X440647Y345347D02*
X444239Y348939D01*
X443735Y280265D02*
Y285345D01*
X445465Y278535D02*
X450545D01*
X453491Y244185D02*
X458571D01*
X453705Y340235D02*
X448625D01*
X460935Y333005D02*
Y327925D01*
X472005Y214535D02*
X466925D01*
X473985Y210805D02*
Y205725D01*
Y218265D02*
Y223345D01*
X475965Y214535D02*
X481045D01*
X479133Y283183D02*
X474425Y278475D01*
X479133Y287887D02*
X474425Y292595D01*
X481235Y331915D02*
Y326835D01*
Y339375D02*
Y344455D01*
X483005Y347535D02*
X477925D01*
X483837Y283183D02*
X488545Y278475D01*
X483837Y287887D02*
X488545Y292595D01*
X483965Y335645D02*
X489045D01*
X484735Y349265D02*
Y354345D01*
X486465Y347535D02*
X491545D01*
X491735Y282805D02*
Y277725D01*
Y286265D02*
Y291345D01*
X493465Y284535D02*
X498545D01*
X538005Y290535D02*
X532925D01*
X544735Y283805D02*
Y278725D01*
Y297265D02*
Y302345D01*
X551465Y290535D02*
X556545D01*
D02*
D20*
X199985Y327535D02*
D03*
X215485D02*
D03*
X295985Y275535D02*
D03*
Y292535D02*
D03*
X311485Y275535D02*
D03*
Y292535D02*
D03*
X330985Y275535D02*
D03*
X346485D02*
D03*
X359985D02*
D03*
X375485D02*
D03*
X388985D02*
D03*
X404485D02*
D03*
X465985Y285535D02*
D03*
X473985Y214535D02*
D03*
X481485Y285535D02*
D03*
X489485Y214535D02*
D03*
D02*
D22*
X308535Y314835D02*
D03*
Y340235D02*
D03*
X333935Y314835D02*
D03*
Y340235D02*
D03*
X359335Y314835D02*
D03*
Y340235D02*
D03*
X384735Y314835D02*
D03*
Y340235D02*
D03*
X410135Y314835D02*
D03*
Y340235D02*
D03*
X435535Y314835D02*
D03*
Y340235D02*
D03*
X460935Y314835D02*
D03*
Y340235D02*
D03*
D02*
D25*
X156735Y90785D02*
D03*
Y106285D02*
D03*
X272735Y292785D02*
D03*
Y308285D02*
D03*
Y329785D02*
D03*
Y345285D02*
D03*
D02*
D26*
X446761Y231485D02*
D03*
Y244185D02*
D03*
Y256885D02*
D03*
Y269585D02*
D03*
X500719Y231485D02*
D03*
Y244185D02*
D03*
Y256885D02*
D03*
Y269585D02*
D03*
D02*
D76*
X142735Y294535D02*
X125735Y277535D01*
Y167535*
X129735*
X156735Y106285D02*
Y113535D01*
X161735Y118535*
X162735*
X168735Y138535D02*
X178085D01*
X178285Y138335*
X177685Y95335D02*
Y87335D01*
Y103335D02*
Y95335D01*
Y111335D02*
Y103335D01*
Y111335D02*
X168935D01*
X168735Y111535*
X178285Y138335D02*
Y146335D01*
Y154335*
Y162335*
X195735Y340535D02*
Y332785D01*
X199985Y328535*
Y327535*
Y314285*
X203735Y310535*
Y295035*
X207735Y291035*
X215845*
X255845D02*
X263985D01*
X265735Y292785*
X272735*
X255845Y329035D02*
X250235D01*
X245735Y324535*
Y293035*
X247735Y291035*
X255845*
Y329035D02*
X262985D01*
X263735Y329785*
X272735*
X285735Y320535D02*
Y326785D01*
X282735Y329785*
X272735*
X291735Y263535D02*
X289735D01*
X287735Y265535*
Y289535*
X290735Y292535*
X295985*
X301735Y263535D02*
Y269785D01*
X295985Y275535*
X350735Y286535D02*
Y275535D01*
X346485*
X359985D02*
X346485D01*
X388985D02*
Y267785D01*
X386735Y265535*
X360985*
X359985Y266535*
Y275535*
X458735Y244185D02*
X446761D01*
X465985Y285535D02*
Y264135D01*
X458735Y256885*
X446761*
X470735Y297535D02*
X469985D01*
X465985Y293535*
Y285535*
X473985Y214535D02*
X467735D01*
X463735Y218535*
Y241185*
X460735Y244185*
X458735*
X481485Y285535D02*
Y255285D01*
X470735Y244535*
X459385*
X459035Y244185*
X458735*
X484735Y347535D02*
Y347035D01*
X481235Y343535*
Y335645*
X490735Y311645D02*
Y307535D01*
X480735Y297535*
X470735*
X491735Y284535D02*
X482485D01*
X481485Y285535*
X500719Y244185D02*
X518735D01*
Y190535D02*
X544735D01*
X527735Y256885D02*
X500719D01*
X544735Y215535D02*
X527735D01*
D02*
D89*
X104735Y90535D02*
D03*
Y115535D02*
D03*
Y140535D02*
D03*
Y165535D02*
D03*
Y190535D02*
D03*
Y215535D02*
D03*
Y240535D02*
D03*
Y265535D02*
D03*
Y290535D02*
D03*
Y315535D02*
D03*
X544735Y90535D02*
D03*
Y115535D02*
D03*
Y140535D02*
D03*
Y165535D02*
D03*
Y190535D02*
D03*
Y215535D02*
D03*
Y240535D02*
D03*
Y265535D02*
D03*
Y290535D02*
D03*
Y315535D02*
D03*
D02*
D104*
X177685Y87335D02*
D03*
Y95335D02*
D03*
Y103335D02*
D03*
Y111335D02*
D03*
X178285Y138335D02*
D03*
Y146335D02*
D03*
Y154335D02*
D03*
Y162335D02*
D03*
X195185Y87335D02*
D03*
Y95335D02*
D03*
Y103335D02*
D03*
Y111335D02*
D03*
X195785Y138335D02*
D03*
Y146335D02*
D03*
Y154335D02*
D03*
Y162335D02*
D03*
D02*
D105*
X125735Y133535D02*
D03*
X129735Y167535D02*
D03*
X142735Y294535D02*
D03*
X149735Y271535D02*
D03*
Y283535D02*
D03*
X161735Y271535D02*
D03*
Y283535D02*
D03*
X162735Y118535D02*
D03*
X163735Y195535D02*
D03*
Y207535D02*
D03*
Y219535D02*
D03*
X168735Y111535D02*
D03*
Y138535D02*
D03*
X173735Y259535D02*
D03*
Y271535D02*
D03*
X174735Y327535D02*
D03*
X175735Y195535D02*
D03*
Y207535D02*
D03*
Y219535D02*
D03*
X187735Y195535D02*
D03*
Y207535D02*
D03*
Y219535D02*
D03*
X191845Y289535D02*
D03*
X195735Y340535D02*
D03*
X209735Y80335D02*
D03*
Y93035D02*
D03*
Y105735D02*
D03*
Y118535D02*
D03*
Y131135D02*
D03*
Y143835D02*
D03*
Y156535D02*
D03*
Y169235D02*
D03*
X223735Y300535D02*
D03*
X229735Y319535D02*
D03*
X237735Y93035D02*
D03*
Y105735D02*
D03*
X246735Y124535D02*
D03*
X251735Y276535D02*
D03*
X255735Y120535D02*
D03*
X258735Y182535D02*
D03*
Y194535D02*
D03*
X259735Y276535D02*
D03*
X262735Y93535D02*
D03*
X263735Y81535D02*
D03*
X264735Y120535D02*
D03*
X266735Y234535D02*
D03*
X270735Y182535D02*
D03*
Y194535D02*
D03*
X271735Y124535D02*
D03*
X276735Y282535D02*
D03*
X277735Y131535D02*
D03*
Y152535D02*
D03*
X282735Y182535D02*
D03*
Y194535D02*
D03*
Y308285D02*
D03*
X283735Y345285D02*
D03*
X284735Y100535D02*
D03*
Y159535D02*
D03*
X285735Y320535D02*
D03*
X291735Y263535D02*
D03*
X292735Y100535D02*
D03*
X298735Y106535D02*
D03*
X300735Y114535D02*
D03*
X301735Y263535D02*
D03*
X311735Y233535D02*
D03*
X315735Y241535D02*
D03*
X316735Y261535D02*
D03*
X327735Y293535D02*
D03*
X334735Y287535D02*
D03*
X341735Y135535D02*
D03*
Y155535D02*
D03*
Y175535D02*
D03*
Y195535D02*
D03*
X350735Y286535D02*
D03*
X351735Y125535D02*
D03*
Y145535D02*
D03*
Y165535D02*
D03*
Y185535D02*
D03*
X361735Y135535D02*
D03*
Y155535D02*
D03*
Y175535D02*
D03*
Y195535D02*
D03*
X362735Y286535D02*
D03*
X371735Y125535D02*
D03*
Y145535D02*
D03*
Y165535D02*
D03*
Y185535D02*
D03*
X372735Y80535D02*
D03*
X381735Y135535D02*
D03*
Y155535D02*
D03*
Y175535D02*
D03*
Y195535D02*
D03*
X391735Y125535D02*
D03*
Y145535D02*
D03*
Y165535D02*
D03*
Y185535D02*
D03*
X392735Y295535D02*
D03*
X401735Y135535D02*
D03*
Y155535D02*
D03*
Y175535D02*
D03*
Y195535D02*
D03*
X402735Y295535D02*
D03*
X406735Y80535D02*
D03*
X411735Y125535D02*
D03*
Y145535D02*
D03*
Y165535D02*
D03*
Y185535D02*
D03*
X415735Y278535D02*
D03*
X424735D02*
D03*
X430735Y89535D02*
D03*
X434735Y278535D02*
D03*
X438735Y83535D02*
D03*
X443735Y278535D02*
D03*
X446735Y77535D02*
D03*
X453735Y71535D02*
D03*
X470735Y297535D02*
D03*
X484735Y347535D02*
D03*
X491735Y284535D02*
D03*
X500235Y345535D02*
D03*
X518735Y190535D02*
D03*
Y244185D02*
D03*
X527735Y215535D02*
D03*
Y256885D02*
D03*
D02*
D106*
X104735Y165535D02*
X111735D01*
X118735Y158535*
Y120535*
X127735Y111535*
Y88535*
X141735Y74535*
X245735*
X258735Y87535*
Y89535*
X262735Y93535*
X156735Y90785D02*
Y82535D01*
X159735Y79535*
X192185*
X195185Y82535*
Y87335*
X191845Y300535D02*
Y289535D01*
X195185Y87335D02*
X202735D01*
X209735Y80335*
X195185Y95335D02*
X207435D01*
X209735Y93035*
X195185Y103335D02*
X207335D01*
X209735Y105735*
X195185Y111335D02*
X202535D01*
X209735Y118535*
X195785Y138335D02*
X202535D01*
X209735Y131135*
X195785Y146335D02*
X207235D01*
X209735Y143835*
X195785Y154335D02*
X207535D01*
X209735Y156535*
X195785Y162335D02*
X202835D01*
X209735Y169235*
Y80335D02*
X224735D01*
X226735Y82335*
Y108535*
X230735Y112535*
X250735*
X254735Y108535*
X270735*
X295735Y133535*
Y247535*
X303735Y255535*
X323735*
X327735Y259535*
X403735*
X415735Y271535*
Y278535*
X209735Y131135D02*
Y131535D01*
X249735*
X255335Y125935*
Y120535*
X255735*
X215485Y327535D02*
Y310395D01*
X215845Y310035*
X231845Y300535D02*
X223735D01*
X231845Y338535D02*
Y321645D01*
X229735Y319535*
X246735Y124535D02*
X141735D01*
X132735Y133535*
X125735*
X255845Y310035D02*
X262985D01*
X264735Y308285*
X272735*
X255845Y348035D02*
X261985D01*
X264735Y345285*
X272735*
X263735Y81535D02*
X259735D01*
X247735Y69535*
X138735*
X123735Y84535*
Y107535*
X115735Y115535*
X104735*
X264735Y120535D02*
Y122535D01*
X250735Y136535*
X217735*
X210435Y143835*
X209735*
X271735Y124535D02*
X255735Y140535D01*
X223735*
X216735Y147535*
Y151535*
X211735Y156535*
X209735*
X276735Y282535D02*
X242735D01*
X240735Y284535*
Y306535*
X237235Y310035*
X215845*
X277735Y131535D02*
Y132535D01*
X265735Y144535*
X226735*
X221735Y149535*
Y157235*
X209735Y169235*
X277735Y152535D02*
X250735D01*
X239735Y163535*
Y206535*
X253735Y220535*
Y274535*
X251735Y276535*
X282735Y308285D02*
X272735D01*
X283735Y345285D02*
X272735D01*
X284735Y159535D02*
X250735D01*
X244735Y165535*
Y205535*
X259735Y220535*
Y276535*
X311485Y292535D02*
Y311885D01*
X308535Y314835*
X316735Y261535D02*
Y263535D01*
X321735Y268535*
Y275535*
Y296535*
X326735Y301535*
X352335*
X359335Y308535*
Y314835*
X327735Y293535D02*
X330735Y296535D01*
X365735*
X371735Y302535*
X395735*
X402735Y295535*
X330985Y275535D02*
X321735D01*
X333935Y314835D02*
X330035D01*
X317735Y302535*
Y277535*
X315735Y275535*
X311485*
X333935Y340235D02*
Y353335D01*
X331735Y355535*
X298735*
X292735Y349535*
Y304535*
X283735Y295535*
Y257535*
X291735Y249535*
Y135535*
X268735Y112535*
X255735*
X249735Y118535*
X209735*
X334735Y287535D02*
X339735Y292535D01*
X367735*
X370735Y295535*
X392735*
X375485Y275535D02*
X375735D01*
Y295535*
X392735*
X404485Y275535D02*
Y284785D01*
X402735Y286535*
Y295535*
X424735Y278535D02*
Y274535D01*
X404735Y254535*
X328735*
X325735Y251535*
X305735*
X299735Y245535*
Y131535*
X271735Y103535*
X252735*
X250535Y105735*
X237735*
X424735Y278535D02*
Y287535D01*
X427735Y290535*
X453735*
X477735Y314535*
Y321535*
X472735Y326535*
Y352535*
X468735Y356535*
X413735*
X409735Y352535*
Y340235*
X410135*
X430735Y89535D02*
X419735D01*
X413735Y95535*
X364735*
X358735Y89535*
X306735*
X305735Y90535*
Y109535*
X300735Y114535*
X434735Y278535D02*
X405735Y249535D01*
X330735*
X328735Y247535*
X309735*
X303735Y241535*
Y129535*
X273735Y99535*
X253735*
X247235Y93035*
X237735*
X438735Y83535D02*
X419735D01*
X411735Y91535*
X365735*
X357735Y83535*
X299735*
X298735Y84535*
Y106535*
X446735Y77535D02*
X435735D01*
X432735Y74535*
X362735*
X359735Y77535*
X294735*
X292735Y79535*
Y100535*
X446761Y231485D02*
X438785D01*
X427735Y242535*
X412735*
X411735Y241535*
X335735*
X331735Y237535*
X319735*
X316735Y234535*
X311735*
Y233535*
X446761Y269585D02*
X431785D01*
X426735Y264535*
Y262535*
X409735Y245535*
X332735*
X328735Y241535*
X315735*
X453735Y71535D02*
X435735D01*
X434735Y70535*
X357735*
X354735Y73535*
X290735*
X284735Y79535*
Y100535*
X460935Y314835D02*
Y306535D01*
X450935Y296535*
X416735*
X415735Y295535*
Y278535*
X500235Y345535D02*
Y335645D01*
X500719Y231485D02*
X498135Y217935D01*
X494735Y214535*
X489485*
D02*
D107*
X481235Y335645D02*
D03*
X490735Y311645D02*
D03*
X500235Y335645D02*
D03*
D02*
D111*
X191845Y300535D02*
D03*
X215845Y291035D02*
D03*
Y310035D02*
D03*
X231845Y300535D02*
D03*
Y338535D02*
D03*
X255845Y291035D02*
D03*
Y310035D02*
D03*
Y329035D02*
D03*
Y348035D02*
D03*
X0Y0D02*
M02*
