%FSLAX34Y34*%
%MOMM*%
G04 EasyPC Gerber Version 18.0.6 Build 3620 *
%ADD10C,0.12700*%
X0Y0D02*
D02*
D10*
X71735Y340535D02*
Y331535D01*
X80735*
Y322535*
X71735*
Y83535*
X80735*
Y74535*
X71735*
Y65535*
X131735*
Y74535*
X121735*
Y331535*
X131735*
Y340535*
X71735*
X80735Y322285D02*
Y83535D01*
X164275Y112075D02*
Y84995D01*
X149195*
Y112075*
X164275*
X178485Y115335D02*
Y83335D01*
X194485*
Y115335*
X178485*
X185430Y317680D02*
Y282035D01*
X222895*
Y317680*
X185430*
X194985Y134335D02*
Y166335D01*
X178985*
Y134335*
X194985*
X221275Y319995D02*
X194195D01*
Y335075*
X221275*
Y319995*
X225430Y317680D02*
Y282035D01*
X262895*
Y317680*
X225430*
Y355680D02*
Y320035D01*
X262895*
Y355680*
X225430*
X280275Y314075D02*
Y286995D01*
X265195*
Y314075*
X280275*
Y351075D02*
Y323995D01*
X265195*
Y351075*
X280275*
X290195Y300075D02*
X317275D01*
Y284995*
X290195*
Y300075*
X317275Y267995D02*
X290195D01*
Y283075*
X317275*
Y267995*
X352275D02*
X325195D01*
Y283075*
X352275*
Y267995*
X354195Y283075D02*
X381275D01*
Y267995*
X354195*
Y283075*
X383195D02*
X410275D01*
Y267995*
X383195*
Y283075*
X462095Y228825D02*
G75*
G02Y234145J2660D01*
G01*
G75*
G02Y228825J-2660*
G01*
G36*
G75*
G02Y234145J2660*
G01*
G75*
G02Y228825J-2660*
G01*
G37*
X468195Y222075D02*
X495275D01*
Y206995*
X468195*
Y222075*
X473590Y305230D02*
X509235D01*
Y342695*
X473590*
Y305230*
X487275Y277995D02*
X460195D01*
Y293075*
X487275*
Y277995*
X488035Y227685D02*
Y273385D01*
X459435*
Y227685*
X467385*
X473735Y230860*
X480085Y227685*
X488035*
X511735Y340535D02*
Y331535D01*
X520735*
Y322535*
X511735*
Y83535*
X520735*
Y74535*
X511735*
Y65535*
X571735*
Y74535*
X561735*
Y331535*
X571735*
Y340535*
X511735*
X520735Y322285D02*
Y83535D01*
X0Y0D02*
M02*
