%FSLAX34Y34*%
%MOMM*%
G04 EasyPC Gerber Version 18.0.6 Build 3620 *
%ADD10C,0.12700*%
X0Y0D02*
D02*
D10*
X128735Y255535D02*
X170735D01*
X176735Y249535*
Y202535*
X123735*
Y250535*
X128735Y255535*
X137735Y305535D02*
X147735D01*
Y315535*
X202735*
Y305535*
X212735*
Y365535*
X137735*
Y305535*
X140735Y72635D02*
Y176935D01*
X233735*
Y72635*
X140735*
X143235Y75135D02*
Y174435D01*
X231235*
Y75135*
X190985*
Y78885*
X183485*
Y75135*
X143235*
X192275Y225995D02*
Y253075D01*
X177195*
Y225995*
X192275*
X210275Y195995D02*
Y223075D01*
X195195*
Y195995*
X210275*
Y225995D02*
Y253075D01*
X195195*
Y225995*
X210275*
X237275Y195995D02*
Y223075D01*
X222195*
Y195995*
X237275*
Y225995D02*
Y253075D01*
X222195*
Y225995*
X237275*
Y255995D02*
Y283075D01*
X222195*
Y255995*
X237275*
X250485Y239535D02*
Y271535D01*
X266485*
Y239535*
X250485*
X255695Y212075D02*
Y164995D01*
X287775*
Y212075*
X255695*
X290195Y194075D02*
Y166995D01*
X305275*
Y194075*
X290195*
X342195Y271075D02*
Y243995D01*
X357275*
Y271075*
X342195*
X398735Y270535D02*
X358735D01*
Y244535*
X398735*
Y270535*
X403275Y88075D02*
X376195D01*
Y72995*
X403275*
Y88075*
X410135Y289435D02*
X511735D01*
Y365635*
X257735*
Y289435*
X359335*
X414785Y227985D02*
G75*
G03X412685I-1050D01*
G01*
G75*
G03X414785I1050*
G01*
G36*
G75*
G03X412685I-1050*
G01*
G75*
G03X414785I1050*
G01*
G37*
X425275Y238995D02*
Y266075D01*
X410195*
Y238995*
X425275*
X427195Y266075D02*
Y238995D01*
X442275*
Y266075*
X427195*
X442735Y96035D02*
X309735D01*
Y229035*
X440735*
X442735Y227035*
Y96035*
X470535Y116485D02*
Y166585D01*
X530935*
Y116485*
X501985*
Y117735*
X499485*
Y116485*
X470535*
X495275Y205075D02*
X468195D01*
Y189995*
X495275*
Y205075*
Y221075D02*
X468195D01*
Y205995*
X495275*
Y221075*
X499775Y188575D02*
X465695D01*
Y170495*
X499775*
Y188575*
X507275Y237995D02*
Y265075D01*
X492195*
Y237995*
X507275*
X0Y0D02*
M02*
