%FSLAX34Y34*%
%MOMM*%
G04 EasyPC Gerber Version 18.0.6 Build 3620 *
%ADD99R,0.30000X0.80000*%
%ADD102R,0.40000X2.00000*%
%ADD20R,0.65000X1.00000*%
%ADD90R,0.80000X2.20000*%
%ADD98R,0.90000X1.30000*%
%ADD91R,1.10000X1.90000*%
%ADD71R,1.60000X3.00000*%
%ADD24R,1.70000X2.76000*%
%ADD10C,0.12700*%
%ADD106C,0.16000*%
%ADD11C,0.25400*%
%ADD76C,0.30000*%
%ADD105C,0.60000*%
%ADD89C,1.60000*%
%ADD22C,1.70000*%
%ADD100R,0.80000X0.30000*%
%ADD104R,0.75000X0.50000*%
%ADD25R,1.00000X0.65000*%
%ADD103R,1.27000X0.76000*%
%ADD23R,1.50000X1.01000*%
%ADD101R,2.70000X1.20000*%
X0Y0D02*
D02*
D10*
X94960Y262500D02*
X92992D01*
X92770Y262278*
Y235792*
X95992Y232570*
X98307*
G75*
G02X104735Y250770I6428J7965*
G01*
G75*
G02X114510Y243570J-10235*
G01*
X115735*
G75*
G02X117881Y242681J-3035*
G01*
X128881Y231681*
G75*
G02X129770Y229535I-2146J-2146*
G01*
Y199792*
X140992Y188570*
X188478*
X191589Y191681*
G75*
G02X193735Y192570I2146J-2146*
G01*
X232735*
G75*
G02X234881Y191681J-3035*
G01*
X241200Y185362*
Y205142*
X236970Y200912*
Y196300*
X222500*
Y207270*
X233612*
X236300Y209958*
Y211800*
X222500*
Y215478*
X219770Y218208*
Y207535*
G75*
G02X218881Y205389I-3035*
G01*
X213881Y200389*
G75*
G02X211735Y199500I-2146J2146*
G01*
X209970*
Y196300*
X195500*
Y207270*
X209970*
Y205570*
X210478*
X213700Y208792*
Y238278*
X209970Y242008*
Y241800*
X197605*
Y241535*
G75*
G02X194735Y238665I-2870*
G01*
X192910*
G75*
G02X190040Y241535J2870*
G01*
Y241800*
X179430*
Y241535*
G75*
G02X176560Y238665I-2870*
G01*
X173924*
X164764Y229506*
G75*
G02X162735Y228665I-2030J2029*
G01*
X138735*
G75*
G02X136706Y229506I1J2870*
G01*
X127706Y238506*
G75*
G02X126865Y240535I2029J2030*
G01*
Y289535*
G75*
G02X129735Y292405I2870*
G01*
X137953*
G75*
G02X143605Y299697I4781J2130*
G01*
X144700Y300792*
Y328535*
G75*
G02X145589Y330681I3035*
G01*
X174093Y359185*
X78085*
Y71885*
X251093*
X242589Y80389*
G75*
G02X241700Y82535I2146J2146*
G01*
Y89617*
G75*
G02X233470Y90000I-3965J3418*
G01*
X232320*
Y87000*
X215150*
Y90000*
X214000*
G75*
G02X209735Y87800I-4265J3035*
G01*
G75*
G02Y98270J5235*
G01*
G75*
G02X214000Y96070J-5235*
G01*
X215150*
Y99070*
X232320*
Y96070*
X233470*
G75*
G02X241700Y96453I4265J-3035*
G01*
Y102317*
G75*
G02X233470Y102700I-3965J3418*
G01*
X232320*
Y99700*
X215150*
Y102700*
X214000*
G75*
G02X209735Y100500I-4265J3035*
G01*
G75*
G02Y110970J5235*
G01*
G75*
G02X214000Y108770J-5235*
G01*
X215150*
Y111770*
X232320*
Y108770*
X233470*
G75*
G02X237735Y110970I4265J-3035*
G01*
G75*
G02X238015Y110962I-9J-5227*
G01*
X234589Y114389*
G75*
G02X233700Y116535I2146J2146*
G01*
Y178278*
X229478Y182500*
X196992*
X192881Y178389*
G75*
G02X190735Y177500I-2146J2146*
G01*
X134735*
G75*
G02X132589Y178389J3035*
G01*
X118589Y192389*
G75*
G02X117700Y194535I2146J2146*
G01*
Y224278*
X115478Y226500*
X94735*
G75*
G02X92589Y227389J3035*
G01*
X87589Y232389*
G75*
G02X86700Y234535I2146J2146*
G01*
Y263535*
G75*
G02X87589Y265681I3035*
G01*
X89589Y267681*
G75*
G02X91735Y268570I2146J-2146*
G01*
X94960*
G75*
G02X104735Y275770I9775J-3035*
G01*
G75*
G02Y255300J-10235*
G01*
G75*
G02X94960Y262500J10235*
G01*
X104735Y105300D02*
G75*
G02Y125770J10235D01*
G01*
G75*
G02Y105300J-10235*
G01*
Y155300D02*
G75*
G02Y175770J10235D01*
G01*
G75*
G02Y155300J-10235*
G01*
Y180300D02*
G75*
G02Y200770J10235D01*
G01*
G75*
G02Y180300J-10235*
G01*
Y305300D02*
G75*
G02Y325770J10235D01*
G01*
G75*
G02Y305300J-10235*
G01*
X114264Y86800D02*
G75*
G02X104735Y80300I-9529J3735D01*
G01*
G75*
G02Y100770J10235*
G01*
G75*
G02X114264Y94270J-10235*
G01*
X115188*
X126000Y105082*
Y119535*
G75*
G02X127094Y122176I3735*
G01*
X129000Y124082*
Y129443*
G75*
G02X120573Y134405I-3265J4092*
G01*
X117478Y137500*
X114510*
G75*
G02X104735Y130300I-9775J3035*
G01*
G75*
G02Y150770J10235*
G01*
G75*
G02X114510Y143570J-10235*
G01*
X118735*
G75*
G02X120881Y142681J-3035*
G01*
X124865Y138697*
G75*
G02X129000Y137627I870J-5162*
G01*
Y138988*
X127094Y140894*
G75*
G02X126000Y143535I2641J2641*
G01*
Y163867*
G75*
G02X129735Y172770I3735J3668*
G01*
G75*
G02X133470Y163867J-5235*
G01*
Y145082*
X135376Y143176*
G75*
G02X136470Y140535I-2641J-2641*
G01*
Y122535*
G75*
G02X135376Y119894I-3735*
G01*
X133470Y117988*
Y103535*
G75*
G02X132376Y100894I-3735*
G01*
X119376Y87894*
G75*
G02X116735Y86800I-2641J2641*
G01*
X114264*
X133000Y334300D02*
Y357770D01*
X148470*
Y334300*
X133000*
X168735Y106300D02*
G75*
G02Y116770J5235D01*
G01*
G75*
G02Y106300J-5235*
G01*
Y133300D02*
G75*
G02Y143770J5235D01*
G01*
G75*
G02Y133300J-5235*
G01*
X191970Y228050D02*
Y226300D01*
X177500*
Y237270*
X191970*
Y235520*
X195500*
Y237270*
X209970*
Y226300*
X195500*
Y228050*
X191970*
X213685Y115100D02*
G75*
G02X209735Y113300I-3950J3434D01*
G01*
G75*
G02Y123770J5235*
G01*
G75*
G02X213685Y121970J-5235*
G01*
X215150*
Y124470*
X232320*
Y112400*
X215150*
Y115100*
X213685*
X214000Y77300D02*
G75*
G02X209735Y75100I-4265J3035D01*
G01*
G75*
G02Y85570J5235*
G01*
G75*
G02X214000Y83370J-5235*
G01*
X215150*
Y86370*
X232320*
Y74300*
X215150*
Y77300*
X214000*
Y128100D02*
G75*
G02X209735Y125900I-4265J3035D01*
G01*
G75*
G02Y136370J5235*
G01*
G75*
G02X214000Y134170J-5235*
G01*
X215150*
Y137170*
X232320*
Y125100*
X215150*
Y128100*
X214000*
Y140800D02*
G75*
G02X209735Y138600I-4265J3035D01*
G01*
G75*
G02Y149070J5235*
G01*
G75*
G02X214000Y146870J-5235*
G01*
X215150*
Y149870*
X232320*
Y137800*
X215150*
Y140800*
X214000*
Y153500D02*
G75*
G02X209735Y151300I-4265J3035D01*
G01*
G75*
G02Y161770J5235*
G01*
G75*
G02X214000Y159570J-5235*
G01*
X215150*
Y162570*
X232320*
Y150500*
X215150*
Y153500*
X214000*
Y166200D02*
G75*
G02X209735Y164000I-4265J3035D01*
G01*
G75*
G02Y174470J5235*
G01*
G75*
G02X214000Y172270J-5235*
G01*
X215150*
Y175270*
X232320*
Y163200*
X215150*
Y166200*
X214000*
X78085Y115535D02*
G36*
Y80335D01*
X103889*
G75*
G02X104735Y100770I846J10200*
G01*
G75*
G02X114264Y94270J-10235*
G01*
X115188*
X126000Y105082*
Y115535*
X114970*
G75*
G02X104735Y105300I-10235*
G01*
G75*
G02X94500Y115535J10235*
G01*
X78085*
G37*
X94500D02*
G36*
G75*
G02X104735Y125770I10235D01*
G01*
G75*
G02X114970Y115535J-10235*
G01*
X126000*
Y119535*
G75*
G02X127094Y122176I3735*
G01*
X129000Y124082*
Y129443*
G75*
G02X120573Y134405I-3265J4092*
G01*
X117478Y137500*
X114510*
G75*
G02X104735Y130300I-9775J3035*
G01*
G75*
G02X100686Y131135J10235*
G01*
X78085*
Y115535*
X94500*
G37*
X133470D02*
G36*
Y103535D01*
G75*
G02X132376Y100894I-3735*
G01*
X119376Y87894*
G75*
G02X116735Y86800I-2641J2641*
G01*
X114264*
G75*
G02X105581Y80335I-9529J3735*
G01*
X204500*
G75*
G02X209735Y85570I5235*
G01*
G75*
G02X214000Y83370J-5235*
G01*
X215150*
Y86370*
X232320*
Y80335*
X242643*
X242589Y80389*
G75*
G02X241700Y82535I2146J2146*
G01*
Y89617*
G75*
G02X233470Y90000I-3965J3418*
G01*
X232320*
Y87000*
X215150*
Y90000*
X214000*
G75*
G02X209735Y87800I-4265J3035*
G01*
G75*
G02Y98270J5235*
G01*
G75*
G02X214000Y96070J-5235*
G01*
X215150*
Y99070*
X232320*
Y96070*
X233470*
G75*
G02X241700Y96453I4265J-3035*
G01*
Y102317*
G75*
G02X233470Y102700I-3965J3418*
G01*
X232320*
Y99700*
X215150*
Y102700*
X214000*
G75*
G02X209735Y100500I-4265J3035*
G01*
G75*
G02Y110970J5235*
G01*
G75*
G02X214000Y108770J-5235*
G01*
X215150*
Y111770*
X232320*
Y108770*
X233470*
G75*
G02X237735Y110970I4265J-3035*
G01*
G75*
G02X238015Y110962I-9J-5227*
G01*
X234589Y114389*
G75*
G02X233870Y115535I2147J2145*
G01*
X232320*
Y112400*
X215150*
Y115100*
X213685*
G75*
G02X209735Y113300I-3950J3434*
G01*
G75*
G02X205445Y115535J5235*
G01*
X172112*
G75*
G02X168735Y106300I-3377J-4000*
G01*
G75*
G02X165358Y115535J5235*
G01*
X133470*
G37*
X165358D02*
G36*
G75*
G02X168735Y116770I3377J-4000D01*
G01*
G75*
G02X172112Y115535J-5235*
G01*
X205445*
G75*
G02X209735Y123770I4290J3000*
G01*
G75*
G02X213685Y121970J-5235*
G01*
X215150*
Y124470*
X232320*
Y115535*
X233870*
G75*
G02X233700Y116535I2865J1001*
G01*
Y131135*
X232320*
Y125100*
X215150*
Y128100*
X214000*
G75*
G02X209735Y125900I-4265J3035*
G01*
G75*
G02X204500Y131135J5235*
G01*
X136470*
Y122535*
G75*
G02X135376Y119894I-3735*
G01*
X133470Y117988*
Y115535*
X165358*
G37*
X78085Y165535D02*
G36*
Y156535D01*
X99861*
G75*
G02X94500Y165535I4874J9000*
G01*
X78085*
G37*
X94500D02*
G36*
G75*
G02X104735Y175770I10235D01*
G01*
G75*
G02X114970Y165535J-10235*
G01*
X124897*
G75*
G02X129735Y172770I4838J2000*
G01*
G75*
G02X134573Y165535J-5235*
G01*
X206032*
G75*
G02X209735Y174470I3703J3700*
G01*
G75*
G02X214000Y172270J-5235*
G01*
X215150*
Y175270*
X232320*
Y165535*
X233700*
Y178278*
X229478Y182500*
X196992*
X192881Y178389*
G75*
G02X190735Y177500I-2146J2146*
G01*
X134735*
G75*
G02X132589Y178389J3035*
G01*
X120443Y190535*
X114970*
G75*
G02X104735Y180300I-10235*
G01*
G75*
G02X94500Y190535J10235*
G01*
X78085*
Y165535*
X94500*
G37*
X114970D02*
G36*
G75*
G02X109609Y156535I-10235D01*
G01*
X126000*
Y163867*
G75*
G02X124897Y165535I3735J3668*
G01*
X114970*
G37*
X134573D02*
G36*
G75*
G02X133470Y163867I-4838J2000D01*
G01*
Y156535*
X204500*
G75*
G02X209735Y161770I5235*
G01*
G75*
G02X214000Y159570J-5235*
G01*
X215150*
Y162570*
X232320*
Y156535*
X233700*
Y165535*
X232320*
Y163200*
X215150*
Y166200*
X214000*
G75*
G02X209735Y164000I-4265J3035*
G01*
G75*
G02X206032Y165535J5235*
G01*
X134573*
G37*
X94500Y190535D02*
G36*
G75*
G02X104735Y200770I10235D01*
G01*
G75*
G02X114970Y190535J-10235*
G01*
X120443*
X118589Y192389*
G75*
G02X117700Y194535I2146J2146*
G01*
Y224278*
X115478Y226500*
X94735*
G75*
G02X92589Y227389J3035*
G01*
X87589Y232389*
G75*
G02X86700Y234535I2146J2146*
G01*
Y263535*
G75*
G02X87589Y265681I3035*
G01*
X89589Y267681*
G75*
G02X91735Y268570I2146J-2146*
G01*
X94960*
G75*
G02X104735Y275770I9775J-3035*
G01*
G75*
G02Y255300J-10235*
G01*
G75*
G02X94960Y262500J10235*
G01*
X92992*
X92770Y262278*
Y235792*
X95992Y232570*
X98307*
G75*
G02X104735Y250770I6428J7965*
G01*
G75*
G02X114510Y243570J-10235*
G01*
X115735*
G75*
G02X117881Y242681J-3035*
G01*
X128881Y231681*
G75*
G02X129770Y229535I-2146J-2146*
G01*
Y199792*
X140992Y188570*
X188478*
X191589Y191681*
G75*
G02X193735Y192570I2146J-2146*
G01*
X232735*
G75*
G02X234881Y191681J-3035*
G01*
X241200Y185362*
Y205142*
X236970Y200912*
Y196300*
X222500*
Y207270*
X233612*
X236300Y209958*
Y211800*
X222500*
Y215478*
X219770Y218208*
Y207535*
G75*
G02X218881Y205389I-3035*
G01*
X213881Y200389*
G75*
G02X211735Y199500I-2146J2146*
G01*
X209970*
Y196300*
X195500*
Y207270*
X209970*
Y205570*
X210478*
X213700Y208792*
Y231785*
X209970*
Y226300*
X195500*
Y228050*
X191970*
Y226300*
X177500*
Y231785*
X167043*
X164764Y229506*
G75*
G02X162735Y228665I-2030J2029*
G01*
X138735*
G75*
G02X136706Y229506I1J2870*
G01*
X127706Y238506*
G75*
G02X126865Y240535I2029J2030*
G01*
Y289535*
G75*
G02X129735Y292405I2870*
G01*
X137953*
G75*
G02X143605Y299697I4781J2130*
G01*
X144700Y300792*
Y315535*
X114970*
G75*
G02X104735Y305300I-10235*
G01*
G75*
G02X94500Y315535J10235*
G01*
X78085*
Y190535*
X94500*
G37*
Y315535D02*
G36*
G75*
G02X104735Y325770I10235D01*
G01*
G75*
G02X114970Y315535J-10235*
G01*
X144700*
Y328535*
G75*
G02X145589Y330681I3035*
G01*
X160943Y346035*
X148470*
Y334300*
X133000*
Y346035*
X78085*
Y315535*
X94500*
G37*
X133000Y346035D02*
G36*
Y357770D01*
X148470*
Y346035*
X160943*
X174093Y359185*
X78085*
Y346035*
X133000*
G37*
X78085Y138535D02*
G36*
Y131135D01*
X100686*
G75*
G02X94697Y138535I4049J9400*
G01*
X78085*
G37*
X94697D02*
G36*
G75*
G02X104735Y150770I10038J2000D01*
G01*
G75*
G02X114510Y143570J-10235*
G01*
X118735*
G75*
G02X120881Y142681J-3035*
G01*
X124865Y138697*
G75*
G02X129000Y137627I870J-5162*
G01*
Y138988*
X127094Y140894*
G75*
G02X126000Y143535I2641J2641*
G01*
Y156535*
X109609*
G75*
G02X104735Y155300I-4874J9000*
G01*
G75*
G02X99861Y156535J10235*
G01*
X78085*
Y138535*
X94697*
G37*
X136470D02*
G36*
Y131135D01*
X204500*
G75*
G02X209735Y136370I5235*
G01*
G75*
G02X214000Y134170J-5235*
G01*
X215150*
Y137170*
X232320*
Y131135*
X233700*
Y138535*
X232320*
Y137800*
X215150*
Y138535*
X173970*
G75*
G02X168735Y133300I-5235*
G01*
G75*
G02X163500Y138535J5235*
G01*
X136470*
G37*
X163500D02*
G36*
G75*
G02X168735Y143770I5235D01*
G01*
G75*
G02X173970Y138535J-5235*
G01*
X215150*
Y140800*
X214000*
G75*
G02X209735Y138600I-4265J3035*
G01*
G75*
G02Y149070J5235*
G01*
G75*
G02X214000Y146870J-5235*
G01*
X215150*
Y149870*
X232320*
Y138535*
X233700*
Y156535*
X232320*
Y150500*
X215150*
Y153500*
X214000*
G75*
G02X209735Y151300I-4265J3035*
G01*
G75*
G02X204500Y156535J5235*
G01*
X133470*
Y145082*
X135376Y143176*
G75*
G02X136470Y140535I-2641J-2641*
G01*
Y138535*
X163500*
G37*
X177500Y231785D02*
G36*
Y237270D01*
X191970*
Y235520*
X195500*
Y237270*
X209970*
Y231785*
X213700*
Y238278*
X209970Y242008*
Y241800*
X197605*
Y241535*
G75*
G02X194735Y238665I-2870*
G01*
X192910*
G75*
G02X190040Y241535J2870*
G01*
Y241800*
X179430*
Y241535*
G75*
G02X176560Y238665I-2870*
G01*
X173924*
X167043Y231785*
X177500*
G37*
X78085Y80335D02*
G36*
Y71885D01*
X251093*
X242643Y80335*
X232320*
Y74300*
X215150*
Y77300*
X214000*
G75*
G02X209735Y75100I-4265J3035*
G01*
G75*
G02X204500Y80335J5235*
G01*
X105581*
G75*
G02X104735Y80300I-846J10199*
G01*
G75*
G02X103889Y80335J10236*
G01*
X78085*
G37*
X141184Y289535D02*
X129735D01*
Y240535*
X138735Y231535*
X162735*
X172735Y241535*
X176560*
Y253710*
X192910*
Y241535*
X194735*
Y261535*
X166735Y289535*
X144286*
G75*
G02X141184I-1551J5001*
G01*
X138560Y232360D02*
Y268710D01*
X160910*
Y232360*
X138560*
X129735Y250535D02*
G36*
Y240535D01*
X138735Y231535*
X162735*
X172735Y241535*
X176560*
Y250535*
X160910*
Y232360*
X138560*
Y250535*
X129735*
G37*
X138560D02*
G36*
Y268710D01*
X160910*
Y250535*
X176560*
Y253710*
X192910*
Y241535*
X194735*
Y261535*
X166735Y289535*
X144286*
G75*
G02X141184I-1551J5001*
G01*
X129735*
Y250535*
X138560*
G37*
X149762Y297270D02*
X169735D01*
G75*
G02X172376Y296176J-3735*
G01*
X180700Y287852*
Y295535*
G75*
G02X181589Y297681I3035*
G01*
X182589Y298681*
G75*
G02X184000Y299480I2147J-2146*
G01*
Y324770*
X196470*
Y314570*
X209478*
X215700Y320792*
Y326222*
G75*
G02X213735Y325500I-1965J2313*
G01*
X185735*
G75*
G02X183589Y326389J3035*
G01*
X177478Y332500*
X171992*
X165881Y326389*
G75*
G02X164626Y325634I-2145J2146*
G01*
X163762Y324770*
X166470*
Y298300*
X154000*
Y324770*
X157200*
Y325535*
G75*
G02X158089Y327681I3035*
G01*
X161089Y330681*
G75*
G02X162344Y331436I2145J-2146*
G01*
X168589Y337681*
G75*
G02X170735Y338570I2146J-2146*
G01*
X178735*
G75*
G02X180881Y337681J-3035*
G01*
X186992Y331570*
X212478*
X215208Y334300*
X202000*
Y357500*
X180992*
X150770Y327278*
Y299535*
G75*
G02X149881Y297389I-3035*
G01*
X149762Y297270*
G36*
X169735*
G75*
G02X172376Y296176J-3735*
G01*
X180700Y287852*
Y295535*
G75*
G02X181589Y297681I3035*
G01*
X182589Y298681*
G75*
G02X184000Y299480I2147J-2146*
G01*
Y324770*
X196470*
Y314570*
X209478*
X215700Y320792*
Y326222*
G75*
G02X213735Y325500I-1965J2313*
G01*
X185735*
G75*
G02X183589Y326389J3035*
G01*
X177478Y332500*
X171992*
X165881Y326389*
G75*
G02X164626Y325634I-2145J2146*
G01*
X163762Y324770*
X166470*
Y298300*
X154000*
Y324770*
X157200*
Y325535*
G75*
G02X158089Y327681I3035*
G01*
X161089Y330681*
G75*
G02X162344Y331436I2145J-2146*
G01*
X168589Y337681*
G75*
G02X170735Y338570I2146J-2146*
G01*
X178735*
G75*
G02X180881Y337681J-3035*
G01*
X186992Y331570*
X212478*
X215208Y334300*
X202000*
Y357500*
X180992*
X150770Y327278*
Y299535*
G75*
G02X149881Y297389I-3035*
G01*
X149762Y297270*
G37*
X217470Y336562D02*
X217589Y336681D01*
G75*
G02X219735Y337570I2146J-2146*
G01*
X244735*
G75*
G02X246881Y336681J-3035*
G01*
X256881Y326681*
G75*
G02X257770Y324535I-2146J-2146*
G01*
Y285792*
X261881Y281681*
G75*
G02X262355Y281067I-2147J-2147*
G01*
G75*
G02X262700Y280849I-2620J-4529*
G01*
Y328285*
G75*
G02X263589Y330431I3035*
G01*
X278500Y345342*
G75*
G02X283735Y350520I5235J-57*
G01*
G75*
G02Y340050J-5235*
G01*
G75*
G02X282065Y340323I-1J5236*
G01*
X268770Y327028*
Y295862*
X274700Y301792*
Y303285*
G75*
G02X275589Y305431I3035*
G01*
X277573Y307415*
G75*
G02X282735Y313520I5162J870*
G01*
G75*
G02Y303050J-5235*
G01*
G75*
G02X281865Y303123I1J5235*
G01*
X280770Y302028*
Y300535*
G75*
G02X279881Y298389I-3035*
G01*
X272770Y291278*
Y285953*
G75*
G02X281897Y281665I3965J-3418*
G01*
X285881Y277681*
G75*
G02X286770Y275535I-2146J-2146*
G01*
Y265195*
G75*
G02X291735Y268770I4965J-1660*
G01*
G75*
G02Y258300J-5235*
G01*
G75*
G02X286770Y261875J5235*
G01*
Y223535*
G75*
G02X285881Y221389I-3035*
G01*
X278897Y214405*
X283735*
G75*
G02X285764Y213564I-1J-2870*
G01*
X289764Y209564*
G75*
G02X290605Y207535I-2029J-2030*
G01*
Y201431*
X298140Y193770*
X302712*
G75*
G02X302700Y194035I3023J270*
G01*
Y229535*
G75*
G02X303589Y231681I3035*
G01*
X306638Y234730*
G75*
G02X311301Y238752I5097J-1195*
G01*
G75*
G02X315232Y246746I4434J2783*
G01*
X314589Y247389*
G75*
G02X313700Y249535I2146J2146*
G01*
Y257270*
G75*
G02X319700Y265849I3034J4266*
G01*
Y286278*
X306389Y299589*
G75*
G02X305500Y301735I2146J2146*
G01*
Y304538*
G75*
G02X297800Y314835I3035J10297*
G01*
G75*
G02X319270I10735*
G01*
G75*
G02X311570Y304538I-10735*
G01*
Y302992*
X322815Y291748*
G75*
G02X327735Y298770I4920J1787*
G01*
G75*
G02X332850Y292419J-5235*
G01*
G75*
G02X338700Y290953I1885J-4884*
G01*
Y294278*
X332589Y300389*
G75*
G02X331700Y302535I2146J2146*
G01*
Y304335*
G75*
G02X323200Y314835I2235J10500*
G01*
G75*
G02X344670I10735*
G01*
G75*
G02X337770Y304808I-10735*
G01*
Y303792*
X343881Y297681*
G75*
G02X344770Y295535I-2146J-2146*
G01*
Y286535*
G75*
G02X344666Y285748I-3037J1*
G01*
X345500Y286582*
G75*
G02X350735Y291770I5235J-47*
G01*
G75*
G02X350782Y281300J-5235*
G01*
X343470Y273988*
Y258332*
X346532Y255270*
X356970*
Y251377*
X362500Y245761*
Y269770*
X370970*
Y246592*
X375881Y241681*
G75*
G02X376770Y239535I-2146J-2146*
G01*
Y226770*
X377470*
Y214300*
X335000*
Y217500*
X332735*
G75*
G02X330589Y218389J3035*
G01*
X321589Y227389*
G75*
G02X320700Y229535I2146J2146*
G01*
Y229887*
G75*
G02X319881Y228389I-2965J648*
G01*
X318770Y227278*
Y226535*
G75*
G02X317881Y224389I-3035*
G01*
X312770Y219278*
Y203770*
X324470*
Y176300*
X312000*
Y181300*
X298735*
G75*
G02X295743Y182800J3735*
G01*
X290500*
Y189636*
G75*
G02X287735Y187535I-2765J769*
G01*
X255770*
Y153792*
X259992Y149570*
X273421*
G75*
G02X280030Y157240I4315J2965*
G01*
G75*
G02X289000Y162570I4705J2295*
G01*
X301478*
X306089Y167181*
G75*
G02X308235Y168070I2146J-2146*
G01*
X312000*
Y173770*
X324470*
Y121300*
X312000*
Y122500*
X298735*
G75*
G02X296589Y123389J3035*
G01*
X284478Y135500*
X281153*
G75*
G02X282736Y129988I-3418J-3965*
G01*
G75*
G02X282770Y129535I-3004J-453*
G01*
Y121792*
X286992Y117570*
X296470*
G75*
G02X300735Y119770I4265J-3035*
G01*
G75*
G02X302864Y109753J-5235*
G01*
G75*
G02X298735Y101300I-4129J-3218*
G01*
G75*
G02X297904Y101366I-3J5232*
G01*
G75*
G02X296153Y96570I-5169J-831*
G01*
X298478*
X300589Y98681*
G75*
G02X302735Y99570I2146J-2146*
G01*
X335000*
Y110770*
X392470*
Y98300*
X387470*
Y73300*
X376500*
Y76800*
X376403*
G75*
G02X367524Y81031I-3668J3735*
G01*
X363881Y77389*
G75*
G02X361735Y76500I-2146J2146*
G01*
X313992*
X309377Y71885*
X448512*
G75*
G02X448620Y72651I5221J-345*
G01*
G75*
G02X441804Y79294I-1885J4884*
G01*
G75*
G02X433804Y85294I-3069J4241*
G01*
G75*
G02X430735Y84300I-3069J4240*
G01*
G75*
G02Y94770J5235*
G01*
G75*
G02X435000Y92570J-5235*
G01*
X436478*
X439700Y95792*
Y121278*
X439678Y121300*
X428000*
Y203770*
X440470*
Y188070*
X442978*
X445700Y190792*
Y230208*
X443881Y228389*
G75*
G02X441735Y227500I-2146J2146*
G01*
X416770*
Y226770*
X417470*
Y214300*
X380000*
Y226770*
X380700*
Y239535*
G75*
G02X381589Y241681I3035*
G01*
X386500Y246592*
Y269770*
X393963*
G75*
G02X394589Y270681I2772J-1234*
G01*
X404589Y280681*
G75*
G02X406735Y281570I2146J-2146*
G01*
X411470*
G75*
G02X420235Y281210I4265J-3035*
G01*
G75*
G02X429735Y280086I4500J-2675*
G01*
G75*
G02X431700Y282800I4999J-1551*
G01*
Y285278*
X431478Y285500*
X386735*
G75*
G02X384589Y286389J3035*
G01*
X382589Y288389*
G75*
G02X381700Y290535I2146J2146*
G01*
Y304538*
G75*
G02X374000Y314835I3035J10297*
G01*
G75*
G02X395470I10735*
G01*
G75*
G02X387770Y304538I-10735*
G01*
Y297195*
G75*
G02X389300Y299485I4963J-1660*
G01*
Y301535*
G75*
G02X390306Y303964I3435*
G01*
X395306Y308964*
G75*
G02X397735Y309970I2429J-2429*
G01*
X400566*
G75*
G02X399400Y314835I9569J4866*
G01*
G75*
G02X420870I10735*
G01*
G75*
G02X405990Y304932I-10735*
G01*
X405164Y304106*
G75*
G02X402735Y303100I-2429J2429*
G01*
X399158*
X396170Y300112*
Y299485*
G75*
G02X397735Y297086I-3434J-3950*
G01*
G75*
G02X407000Y298570I5000J-1551*
G01*
X422278*
X429599Y305891*
G75*
G02X424800Y314835I5936J8944*
G01*
G75*
G02X444700Y320425I10735*
G01*
Y346278*
X439478Y351500*
X350992*
X343848Y344356*
G75*
G02X344670Y340235I-9914J-4120*
G01*
G75*
G02X323200I-10735*
G01*
G75*
G02X340000Y349092I10735*
G01*
X347408Y356500*
X223735*
G75*
G02X221589Y357389J3035*
G01*
X221478Y357500*
X217470*
Y336562*
X370070Y314835D02*
G75*
G02X348600I-10735D01*
G01*
G75*
G02X370070I10735*
G01*
Y340235D02*
G75*
G02X348600I-10735D01*
G01*
G75*
G02X370070I10735*
G01*
X395470D02*
G75*
G02X374000I-10735D01*
G01*
G75*
G02X395470I10735*
G01*
X417470Y98300D02*
X395000D01*
Y110770*
X417470*
Y98300*
X420870Y340235D02*
G75*
G02X399400I-10735D01*
G01*
G75*
G02X420870I10735*
G01*
X344670Y314835D02*
G36*
G75*
G02X337770Y304808I-10735D01*
G01*
Y303792*
X343881Y297681*
G75*
G02X344770Y295535I-2146J-2146*
G01*
Y286535*
G75*
G02X344666Y285748I-3037J1*
G01*
X345500Y286582*
G75*
G02X350735Y291770I5235J-47*
G01*
G75*
G02X350782Y281300J-5235*
G01*
X343470Y273988*
Y258332*
X346532Y255270*
X356970*
Y251377*
X362500Y245761*
Y269770*
X370970*
Y246592*
X375881Y241681*
G75*
G02X376770Y239535I-2146J-2146*
G01*
Y226770*
X377470*
Y214300*
X335000*
Y217500*
X332735*
G75*
G02X330589Y218389J3035*
G01*
X321589Y227389*
G75*
G02X320700Y229535I2146J2146*
G01*
Y229887*
G75*
G02X319881Y228389I-2965J648*
G01*
X318770Y227278*
Y226535*
G75*
G02X317881Y224389I-3035*
G01*
X312770Y219278*
Y203770*
X324470*
Y176300*
X312000*
Y181300*
X298735*
G75*
G02X295743Y182800J3735*
G01*
X290500*
Y189636*
G75*
G02X287735Y187535I-2765J769*
G01*
X255770*
Y153792*
X259992Y149570*
X273421*
G75*
G02X280030Y157240I4315J2965*
G01*
G75*
G02X289000Y162570I4705J2295*
G01*
X301478*
X306089Y167181*
G75*
G02X308235Y168070I2146J-2146*
G01*
X312000*
Y173770*
X324470*
Y121300*
X312000*
Y122500*
X298735*
G75*
G02X296589Y123389J3035*
G01*
X284478Y135500*
X281153*
G75*
G02X282736Y129988I-3418J-3965*
G01*
G75*
G02X282770Y129535I-3004J-453*
G01*
Y121792*
X286992Y117570*
X296470*
G75*
G02X300735Y119770I4265J-3035*
G01*
G75*
G02X302864Y109753J-5235*
G01*
G75*
G02X298735Y101300I-4129J-3218*
G01*
G75*
G02X297904Y101366I-3J5232*
G01*
G75*
G02X296153Y96570I-5169J-831*
G01*
X298478*
X300589Y98681*
G75*
G02X302735Y99570I2146J-2146*
G01*
X335000*
Y110770*
X392470*
Y104535*
X395000*
Y110770*
X417470*
Y104535*
X439700*
Y121278*
X439678Y121300*
X428000*
Y203770*
X440470*
Y188070*
X442978*
X445700Y190792*
Y230208*
X443881Y228389*
G75*
G02X441735Y227500I-2146J2146*
G01*
X416770*
Y226770*
X417470*
Y214300*
X380000*
Y226770*
X380700*
Y239535*
G75*
G02X381589Y241681I3035*
G01*
X386500Y246592*
Y269770*
X393963*
G75*
G02X394589Y270681I2772J-1234*
G01*
X404589Y280681*
G75*
G02X406735Y281570I2146J-2146*
G01*
X411470*
G75*
G02X420235Y281210I4265J-3035*
G01*
G75*
G02X429735Y280086I4500J-2675*
G01*
G75*
G02X431700Y282800I4999J-1551*
G01*
Y285278*
X431478Y285500*
X386735*
G75*
G02X384589Y286389J3035*
G01*
X382589Y288389*
G75*
G02X381700Y290535I2146J2146*
G01*
Y304538*
G75*
G02X374000Y314835I3035J10297*
G01*
X370070*
G75*
G02X348600I-10735*
G01*
X344670*
G37*
X348600D02*
G36*
G75*
G02X370070I10735D01*
G01*
X374000*
G75*
G02X395470I10735*
G01*
G75*
G02X387770Y304538I-10735*
G01*
Y297195*
G75*
G02X389300Y299485I4963J-1660*
G01*
Y301535*
G75*
G02X390306Y303964I3435*
G01*
X395306Y308964*
G75*
G02X397735Y309970I2429J-2429*
G01*
X400566*
G75*
G02X399400Y314835I9569J4866*
G01*
G75*
G02X420870I10735*
G01*
G75*
G02X405990Y304932I-10735*
G01*
X405164Y304106*
G75*
G02X402735Y303100I-2429J2429*
G01*
X399158*
X396170Y300112*
Y299485*
G75*
G02X397735Y297086I-3434J-3950*
G01*
G75*
G02X407000Y298570I5000J-1551*
G01*
X422278*
X429599Y305891*
G75*
G02X424800Y314835I5936J8944*
G01*
G75*
G02X444700Y320425I10735*
G01*
Y340235*
X420870*
G75*
G02X399400I-10735*
G01*
X395470*
G75*
G02X374000I-10735*
G01*
X370070*
G75*
G02X348600I-10735*
G01*
X344670*
G75*
G02X323200I-10735*
G01*
G75*
G02X340000Y349092I10735*
G01*
X347408Y356500*
X223735*
G75*
G02X221589Y357389J3035*
G01*
X221478Y357500*
X217470*
Y336562*
X217589Y336681*
G75*
G02X219735Y337570I2146J-2146*
G01*
X244735*
G75*
G02X246881Y336681J-3035*
G01*
X256881Y326681*
G75*
G02X257770Y324535I-2146J-2146*
G01*
Y285792*
X261881Y281681*
G75*
G02X262355Y281067I-2147J-2147*
G01*
G75*
G02X262700Y280849I-2620J-4529*
G01*
Y328285*
G75*
G02X263589Y330431I3035*
G01*
X278500Y345342*
G75*
G02X283735Y350520I5235J-57*
G01*
G75*
G02Y340050J-5235*
G01*
G75*
G02X282065Y340323I-1J5236*
G01*
X268770Y327028*
Y295862*
X274700Y301792*
Y303285*
G75*
G02X275589Y305431I3035*
G01*
X277573Y307415*
G75*
G02X282735Y313520I5162J870*
G01*
G75*
G02Y303050J-5235*
G01*
G75*
G02X281865Y303123I1J5235*
G01*
X280770Y302028*
Y300535*
G75*
G02X279881Y298389I-3035*
G01*
X272770Y291278*
Y285953*
G75*
G02X281897Y281665I3965J-3418*
G01*
X285881Y277681*
G75*
G02X286770Y275535I-2146J-2146*
G01*
Y265195*
G75*
G02X291735Y268770I4965J-1660*
G01*
G75*
G02Y258300J-5235*
G01*
G75*
G02X286770Y261875J5235*
G01*
Y223535*
G75*
G02X285881Y221389I-3035*
G01*
X278897Y214405*
X283735*
G75*
G02X285764Y213564I-1J-2870*
G01*
X289764Y209564*
G75*
G02X290605Y207535I-2029J-2030*
G01*
Y201431*
X298140Y193770*
X302712*
G75*
G02X302700Y194035I3023J270*
G01*
Y229535*
G75*
G02X303589Y231681I3035*
G01*
X306638Y234730*
G75*
G02X311301Y238752I5097J-1195*
G01*
G75*
G02X315232Y246746I4434J2783*
G01*
X314589Y247389*
G75*
G02X313700Y249535I2146J2146*
G01*
Y257270*
G75*
G02X319700Y265849I3034J4266*
G01*
Y286278*
X306389Y299589*
G75*
G02X305500Y301735I2146J2146*
G01*
Y304538*
G75*
G02X297800Y314835I3035J10297*
G01*
G75*
G02X319270I10735*
G01*
G75*
G02X311570Y304538I-10735*
G01*
Y302992*
X322815Y291748*
G75*
G02X327735Y298770I4920J1787*
G01*
G75*
G02X332850Y292419J-5235*
G01*
G75*
G02X338700Y290953I1885J-4884*
G01*
Y294278*
X332589Y300389*
G75*
G02X331700Y302535I2146J2146*
G01*
Y304335*
G75*
G02X323200Y314835I2235J10500*
G01*
G75*
G02X344670I10735*
G01*
X348600*
G37*
Y340235D02*
G36*
G75*
G02X370070I10735D01*
G01*
X374000*
G75*
G02X395470I10735*
G01*
X399400*
G75*
G02X420870I10735*
G01*
X444700*
Y346278*
X439478Y351500*
X350992*
X343848Y344356*
G75*
G02X344670Y340235I-9914J-4120*
G01*
X348600*
G37*
X392470Y104535D02*
G36*
Y98300D01*
X387470*
Y73300*
X376500*
Y76800*
X376403*
G75*
G02X367524Y81031I-3668J3735*
G01*
X363881Y77389*
G75*
G02X361735Y76500I-2146J2146*
G01*
X313992*
X309377Y71885*
X448512*
G75*
G02X448620Y72651I5221J-345*
G01*
G75*
G02X441804Y79294I-1885J4884*
G01*
G75*
G02X433804Y85294I-3069J4241*
G01*
G75*
G02X430735Y84300I-3069J4240*
G01*
G75*
G02Y94770J5235*
G01*
G75*
G02X435000Y92570J-5235*
G01*
X436478*
X439700Y95792*
Y104535*
X417470*
Y98300*
X395000*
Y104535*
X392470*
G37*
X255770Y165535D02*
X287735D01*
Y187535*
X255770*
Y165535*
G36*
X287735*
Y187535*
X255770*
Y165535*
G37*
Y211535D02*
Y190405D01*
X287735*
Y207535*
X283735Y211535*
X255770*
G36*
Y190405*
X287735*
Y207535*
X283735Y211535*
X255770*
G37*
X309735Y99570D02*
X332735D01*
Y110535*
X334735Y112535*
X418735*
Y96535*
X439700*
Y120535*
X428735*
X427735Y121535*
Y202535*
X428000Y202800*
Y203770*
X428970*
X429735Y204535*
X442735*
Y226535*
X441770Y227500*
G75*
G02X441735I-17J3052*
G01*
X417735*
Y215535*
X417470Y215270*
Y214300*
X416500*
X415735Y213535*
X336735*
X335970Y214300*
X335000*
Y215270*
X333735Y216535*
Y217500*
X332735*
G75*
G02X330589Y218389J3035*
G01*
X321589Y227389*
G75*
G02X320869Y228535I2146J2147*
G01*
X320018*
G75*
G02X319881Y228389I-2282J2004*
G01*
X318770Y227278*
Y226535*
G75*
G02X317881Y224389I-3035*
G01*
X312770Y219278*
Y204535*
X324735*
X325735Y203535*
Y123535*
X324470Y122270*
Y121300*
X323500*
X322735Y120535*
X309735*
Y99570*
G36*
X332735*
Y110535*
X334735Y112535*
X418735*
Y96535*
X439700*
Y120535*
X428735*
X427735Y121535*
Y202535*
X428000Y202800*
Y203770*
X428970*
X429735Y204535*
X442735*
Y226535*
X441770Y227500*
G75*
G02X441735I-17J3052*
G01*
X417735*
Y215535*
X417470Y215270*
Y214300*
X416500*
X415735Y213535*
X336735*
X335970Y214300*
X335000*
Y215270*
X333735Y216535*
Y217500*
X332735*
G75*
G02X330589Y218389J3035*
G01*
X321589Y227389*
G75*
G02X320869Y228535I2146J2147*
G01*
X320018*
G75*
G02X319881Y228389I-2282J2004*
G01*
X318770Y227278*
Y226535*
G75*
G02X317881Y224389I-3035*
G01*
X312770Y219278*
Y204535*
X324735*
X325735Y203535*
Y123535*
X324470Y122270*
Y121300*
X323500*
X322735Y120535*
X309735*
Y99570*
G37*
X406153Y291570D02*
X432735D01*
G75*
G02X434881Y290681J-3035*
G01*
X436881Y288681*
G75*
G02X437770Y286535I-2146J-2146*
G01*
Y282800*
G75*
G02Y274270I-3035J-4265*
G01*
Y273535*
G75*
G02X436881Y271389I-3035*
G01*
X431881Y266389*
G75*
G02X429735Y265500I-2146J2146*
G01*
X409992*
X407770Y263278*
Y241535*
G75*
G02X407669Y240758I-3036*
G01*
G75*
G02X409735Y241570I2066J-2223*
G01*
X410500*
Y250270*
X424970*
Y239300*
X420507*
G75*
G02X419881Y238389I-2772J1234*
G01*
X419062Y237570*
X428478*
X430208Y239300*
X427500*
Y250270*
X441970*
Y239300*
X437761*
G75*
G02X436881Y237389I-3026J235*
G01*
X433062Y233570*
X440478*
X447700Y240792*
Y296278*
X445589Y298389*
G75*
G02X444700Y300535I2146J2146*
G01*
Y309245*
G75*
G02X436429Y304137I-9165J5590*
G01*
X425681Y293389*
G75*
G02X423535Y292500I-2146J2146*
G01*
X407000*
G75*
G02X406153Y291570I-4265J3034*
G01*
G36*
X432735*
G75*
G02X434881Y290681J-3035*
G01*
X436881Y288681*
G75*
G02X437770Y286535I-2146J-2146*
G01*
Y282800*
G75*
G02Y274270I-3035J-4265*
G01*
Y273535*
G75*
G02X436881Y271389I-3035*
G01*
X431881Y266389*
G75*
G02X429735Y265500I-2146J2146*
G01*
X409992*
X407770Y263278*
Y241535*
G75*
G02X407669Y240758I-3036*
G01*
G75*
G02X409735Y241570I2066J-2223*
G01*
X410500*
Y250270*
X424970*
Y239300*
X420507*
G75*
G02X419881Y238389I-2772J1234*
G01*
X419062Y237570*
X428478*
X430208Y239300*
X427500*
Y250270*
X441970*
Y239300*
X437761*
G75*
G02X436881Y237389I-3026J235*
G01*
X433062Y233570*
X440478*
X447700Y240792*
Y296278*
X445589Y298389*
G75*
G02X444700Y300535I2146J2146*
G01*
Y309245*
G75*
G02X436429Y304137I-9165J5590*
G01*
X425681Y293389*
G75*
G02X423535Y292500I-2146J2146*
G01*
X407000*
G75*
G02X406153Y291570I-4265J3034*
G01*
G37*
X443062Y356500D02*
X449881Y349681D01*
G75*
G02X450770Y347535I-2146J-2146*
G01*
Y318287*
G75*
G02X470368Y319960I10165J-3452*
G01*
X495073Y344665*
G75*
G02X500235Y350770I5162J870*
G01*
G75*
G02Y340300J-5235*
G01*
G75*
G02X499365Y340373I1J5235*
G01*
X471681Y312689*
G75*
G02X471399Y312440I-2149J2149*
G01*
G75*
G02X450770Y311383I-10464J2395*
G01*
Y301792*
X452881Y299681*
G75*
G02X453770Y297535I-2146J-2146*
G01*
Y240862*
X454700Y241792*
Y284535*
G75*
G02X455589Y286681I3035*
G01*
X459589Y290681*
G75*
G02X461735Y291570I2146J-2146*
G01*
X476478*
X510700Y325792*
Y350278*
X504478Y356500*
X443062*
X470735Y292300D02*
G75*
G02Y302770J5235D01*
G01*
G75*
G02Y292300J-5235*
G01*
X453770Y297535D02*
G36*
Y240862D01*
X454700Y241792*
Y284535*
G75*
G02X455589Y286681I3035*
G01*
X459589Y290681*
G75*
G02X461735Y291570I2146J-2146*
G01*
X476478*
X482443Y297535*
X475970*
G75*
G02X470735Y292300I-5235*
G01*
G75*
G02X465500Y297535J5235*
G01*
X453770*
G37*
X465500D02*
G36*
G75*
G02X470735Y302770I5235D01*
G01*
G75*
G02X475970Y297535J-5235*
G01*
X482443*
X510700Y325792*
Y350278*
X504478Y356500*
X443062*
X449881Y349681*
G75*
G02X450770Y347535I-2146J-2146*
G01*
Y318287*
G75*
G02X470368Y319960I10165J-3452*
G01*
X495073Y344665*
G75*
G02X500235Y350770I5162J870*
G01*
G75*
G02Y340300J-5235*
G01*
G75*
G02X499365Y340373I1J5235*
G01*
X471681Y312689*
G75*
G02X471399Y312440I-2149J2149*
G01*
G75*
G02X450770Y311383I-10464J2395*
G01*
Y301792*
X452881Y299681*
G75*
G02X453770Y297535I-2146J-2146*
G01*
X465500*
G37*
X458736Y73082D02*
G75*
G02X458958Y71885I-4999J-1546D01*
G01*
X565385*
Y359185*
X510377*
X515881Y353681*
G75*
G02X516770Y351535I-2146J-2146*
G01*
Y324535*
G75*
G02X515881Y322389I-3035*
G01*
X479881Y286389*
G75*
G02X477735Y285500I-2146J2146*
G01*
X462992*
X460770Y283278*
Y240535*
G75*
G02X459881Y238389I-3035*
G01*
X459762Y238270*
X476485*
G75*
G02X479126Y237176J-3735*
G01*
X491126Y225176*
G75*
G02X492220Y222535I-2641J-2641*
G01*
Y222405*
X493735*
G75*
G02X495764Y221564I-1J-2870*
G01*
X502764Y214564*
G75*
G02X503605Y212535I-2029J-2030*
G01*
Y156724*
X507865Y152464*
Y169535*
G75*
G02X508706Y171564I2870J-1*
G01*
X513706Y176564*
G75*
G02X515735Y177405I2030J-2029*
G01*
X546735*
G75*
G02X549605Y174537J-2868*
G01*
G75*
G02X549377Y156413I-4870J-9002*
G01*
G75*
G02X546735Y154665I-2642J1122*
G01*
X535924*
X532664Y151405*
X545735*
G75*
G02X547764Y150564I-1J-2870*
G01*
X548143Y150186*
G75*
G02X544735Y130300I-3408J-9651*
G01*
G75*
G02X539628Y131665J10236*
G01*
X527670*
Y119250*
X521362*
G75*
G02X520576Y118094I-3427J1485*
G01*
X504376Y101894*
G75*
G02X503549Y101270I-2641J2640*
G01*
X541735*
G75*
G02X543691Y100717J-3734*
G01*
G75*
G02X544735Y100770I1040J-10186*
G01*
G75*
G02Y80300J-10235*
G01*
G75*
G02X535035Y93800J10235*
G01*
X468735*
G75*
G02X466094Y94894J3735*
G01*
X458770Y102218*
Y73535*
G75*
G02X458736Y73082I-3038*
G01*
X500030Y253800D02*
X492500D01*
Y264770*
X506970*
Y260620*
X524067*
G75*
G02X531470Y253217I3668J-3735*
G01*
Y219203*
G75*
G02X527735Y210300I-3735J-3668*
G01*
G75*
G02X524000Y219203J5235*
G01*
Y253150*
X502135*
G75*
G02X500030Y253800J3734*
G01*
X506970Y240450D02*
Y238300D01*
X492500*
Y249270*
X506970*
Y247920*
X515067*
G75*
G02X522470Y240517I3668J-3735*
G01*
Y194203*
G75*
G02X518735Y185300I-3735J-3668*
G01*
G75*
G02X515000Y194203J5235*
G01*
Y240450*
X506970*
X544735Y105300D02*
G75*
G02Y125770J10235D01*
G01*
G75*
G02Y105300J-10235*
G01*
Y180300D02*
G75*
G02Y200770J10235D01*
G01*
G75*
G02Y180300J-10235*
G01*
Y205300D02*
G75*
G02Y225770J10235D01*
G01*
G75*
G02Y205300J-10235*
G01*
Y230300D02*
G75*
G02Y250770J10235D01*
G01*
G75*
G02Y230300J-10235*
G01*
Y255300D02*
G75*
G02Y275770J10235D01*
G01*
G75*
G02Y255300J-10235*
G01*
Y305300D02*
G75*
G02Y325770J10235D01*
G01*
G75*
G02Y305300J-10235*
G01*
X478710Y237535D02*
G36*
G75*
G02X479126Y237176I-2226J-3000D01*
G01*
X491126Y225176*
G75*
G02X492220Y222535I-2641J-2641*
G01*
Y222405*
X493735*
G75*
G02X495764Y221564I-1J-2870*
G01*
X501793Y215535*
X515000*
Y237535*
X478710*
G37*
X515000D02*
G36*
Y240450D01*
X506970*
Y238300*
X492500*
Y249270*
X506970*
Y247920*
X515067*
G75*
G02X522470Y240517I3668J-3735*
G01*
Y237535*
X524000*
Y253150*
X502135*
G75*
G02X500030Y253800J3734*
G01*
X492500*
Y264770*
X506970*
Y260620*
X524067*
G75*
G02X531470Y253217I3668J-3735*
G01*
Y237535*
X534950*
G75*
G02X544735Y250770I9785J3000*
G01*
G75*
G02X554520Y237535J-10235*
G01*
X565385*
Y265535*
X554970*
G75*
G02X544735Y255300I-10235*
G01*
G75*
G02X534500Y265535J10235*
G01*
X460770*
Y240535*
G75*
G02X459881Y238389I-3035*
G01*
X459762Y238270*
X476485*
G75*
G02X478710Y237535J-3735*
G01*
X515000*
G37*
X522470D02*
G36*
Y215535D01*
X522500*
G75*
G02X524000Y219203I5235*
G01*
Y237535*
X522470*
G37*
X531470D02*
G36*
Y219203D01*
G75*
G02X532970Y215535I-3735J-3668*
G01*
X534500*
G75*
G02X544735Y225770I10235*
G01*
G75*
G02X554970Y215535J-10235*
G01*
X565385*
Y237535*
X554520*
G75*
G02X544735Y230300I-9785J3000*
G01*
G75*
G02X534950Y237535J10235*
G01*
X531470*
G37*
X518017Y115535D02*
G36*
X504376Y101894D01*
G75*
G02X503549Y101270I-2641J2640*
G01*
X541735*
G75*
G02X543691Y100717J-3734*
G01*
G75*
G02X544735Y100770I1040J-10186*
G01*
G75*
G02Y80300J-10235*
G01*
G75*
G02X535035Y93800J10235*
G01*
X468735*
G75*
G02X466094Y94894J3735*
G01*
X458770Y102218*
Y73535*
G75*
G02X458736Y73082I-3038*
G01*
G75*
G02X458958Y71885I-4999J-1546*
G01*
X565385*
Y115535*
X554970*
G75*
G02X544735Y105300I-10235*
G01*
G75*
G02X534500Y115535J10235*
G01*
X518017*
G37*
X534500D02*
G36*
G75*
G02X544735Y125770I10235D01*
G01*
G75*
G02X554970Y115535J-10235*
G01*
X565385*
Y190535*
X554970*
G75*
G02X544735Y180300I-10235*
G01*
G75*
G02X534500Y190535J10235*
G01*
X523970*
G75*
G02X518735Y185300I-5235*
G01*
G75*
G02X513500Y190535J5235*
G01*
X503605*
Y156724*
X507865Y152464*
Y169535*
G75*
G02X508706Y171564I2870J-1*
G01*
X513706Y176564*
G75*
G02X515735Y177405I2030J-2029*
G01*
X546735*
G75*
G02X549605Y174537J-2868*
G01*
G75*
G02X549377Y156413I-4870J-9002*
G01*
G75*
G02X546735Y154665I-2642J1122*
G01*
X535924*
X532664Y151405*
X545735*
G75*
G02X547764Y150564I-1J-2870*
G01*
X548143Y150186*
G75*
G02X544735Y130300I-3408J-9651*
G01*
G75*
G02X539628Y131665J10236*
G01*
X527670*
Y119250*
X521362*
G75*
G02X520576Y118094I-3427J1485*
G01*
X518017Y115535*
X534500*
G37*
X513500Y190535D02*
G36*
G75*
G02X515000Y194203I5235D01*
G01*
Y215535*
X501793*
X502764Y214564*
G75*
G02X503605Y212535I-2029J-2030*
G01*
Y190535*
X513500*
G37*
X534500D02*
G36*
G75*
G02X544735Y200770I10235D01*
G01*
G75*
G02X554970Y190535J-10235*
G01*
X565385*
Y215535*
X554970*
G75*
G02X544735Y205300I-10235*
G01*
G75*
G02X534500Y215535J10235*
G01*
X532970*
G75*
G02X527735Y210300I-5235*
G01*
G75*
G02X522500Y215535J5235*
G01*
X522470*
Y194203*
G75*
G02X523970Y190535I-3735J-3668*
G01*
X534500*
G37*
Y265535D02*
G36*
G75*
G02X544735Y275770I10235D01*
G01*
G75*
G02X554970Y265535J-10235*
G01*
X565385*
Y315535*
X554970*
G75*
G02X544735Y305300I-10235*
G01*
G75*
G02X534500Y315535J10235*
G01*
X509027*
X479881Y286389*
G75*
G02X477735Y285500I-2146J2146*
G01*
X462992*
X460770Y283278*
Y265535*
X534500*
G37*
Y315535D02*
G36*
G75*
G02X544735Y325770I10235D01*
G01*
G75*
G02X554970Y315535J-10235*
G01*
X565385*
Y359185*
X510377*
X515881Y353681*
G75*
G02X516770Y351535I-2146J-2146*
G01*
Y324535*
G75*
G02X515881Y322389I-3035*
G01*
X509027Y315535*
X534500*
G37*
X510735Y151405D02*
X528605D01*
X534735Y157535*
X546735*
Y174535*
X515735*
X510735Y169535*
Y151405*
G36*
X528605*
X534735Y157535*
X546735*
Y174535*
X515735*
X510735Y169535*
Y151405*
G37*
X546735Y134535D02*
X551735Y139535D01*
Y142535*
X545735Y148535*
X507735*
X500735Y155535*
Y212535*
X493735Y219535*
X485735*
X484735Y218535*
Y166535*
X482735Y164535*
X475735*
X472735Y161535*
Y114535*
X475735Y111535*
X498735*
X500735Y113535*
Y127535*
X507735Y134535*
X546735*
G36*
X551735Y139535*
Y142535*
X545735Y148535*
X507735*
X500735Y155535*
Y212535*
X493735Y219535*
X485735*
X484735Y218535*
Y166535*
X482735Y164535*
X475735*
X472735Y161535*
Y114535*
X475735Y111535*
X498735*
X500735Y113535*
Y127535*
X507735Y134535*
X546735*
G37*
D02*
D11*
X98005Y290535D02*
X92925D01*
X99976Y210776D02*
X96384Y207184D01*
X99976Y220294D02*
X96384Y223886D01*
X104735Y283805D02*
Y278725D01*
Y297265D02*
Y302345D01*
X109494Y210776D02*
X113086Y207184D01*
X109494Y220294D02*
X113086Y223886D01*
X111465Y290535D02*
X116545D01*
X142633Y199433D02*
X137925Y194725D01*
X142633Y213637D02*
X137925Y218345D01*
X142633Y243433D02*
X137925Y238725D01*
X142633Y257637D02*
X137925Y262345D01*
X145655Y93035D02*
X140575D01*
X145655Y118435D02*
X140575D01*
X145655Y143835D02*
X140575D01*
X145655Y169235D02*
X140575D01*
X147833Y77433D02*
X143125Y72725D01*
X147833Y83237D02*
X143125Y87945D01*
X147833Y102833D02*
X143125Y98125D01*
X147833Y108637D02*
X143125Y113345D01*
X147833Y128233D02*
X143125Y123525D01*
X147833Y134037D02*
X143125Y138745D01*
X147833Y153633D02*
X143125Y148925D01*
X147833Y159437D02*
X143125Y164145D01*
X148005Y271535D02*
X142925D01*
X148512Y282312D02*
X144920Y278720D01*
X148512Y284758D02*
X144920Y288350D01*
X149735Y273265D02*
Y278345D01*
X150735Y90505D02*
Y85425D01*
Y95565D02*
Y100645D01*
Y115905D02*
Y110825D01*
Y120965D02*
Y126045D01*
Y141305D02*
Y136225D01*
Y146365D02*
Y151445D01*
Y166705D02*
Y161625D01*
Y171765D02*
Y176845D01*
X150958Y282312D02*
X154550Y278720D01*
X150958Y284758D02*
X154550Y288350D01*
X151465Y271535D02*
X156545D01*
X153637Y77433D02*
X158345Y72725D01*
X153637Y83237D02*
X158345Y87945D01*
X153637Y102833D02*
X158345Y98125D01*
X153637Y108637D02*
X158345Y113345D01*
X153637Y128233D02*
X158345Y123525D01*
X153637Y134037D02*
X158345Y138745D01*
X153637Y153633D02*
X158345Y148925D01*
X153637Y159437D02*
X158345Y164145D01*
X155815Y93035D02*
X160895D01*
X155815Y118435D02*
X160895D01*
X155815Y143835D02*
X160895D01*
X155815Y169235D02*
X160895D01*
X156837Y199433D02*
X161545Y194725D01*
X156837Y213637D02*
X161545Y218345D01*
X156837Y243433D02*
X161545Y238725D01*
X156837Y257637D02*
X161545Y262345D01*
X160512Y282312D02*
X156920Y278720D01*
X160512Y284758D02*
X156920Y288350D01*
X161005Y118535D02*
X155925D01*
X161735Y269805D02*
Y264725D01*
Y273265D02*
Y278345D01*
X162005Y207535D02*
X156925D01*
X162512Y194312D02*
X158920Y190720D01*
X162512Y196758D02*
X158920Y200350D01*
X162512Y218312D02*
X158920Y214720D01*
X162512Y220758D02*
X158920Y224350D01*
X162735Y116805D02*
Y111725D01*
Y120265D02*
Y125345D01*
X162958Y282312D02*
X166550Y278720D01*
X162958Y284758D02*
X166550Y288350D01*
X163465Y271535D02*
X168545D01*
X163735Y205805D02*
Y200725D01*
Y209265D02*
Y214345D01*
X164465Y118535D02*
X169545D01*
X164958Y194312D02*
X168550Y190720D01*
X164958Y196758D02*
X168550Y200350D01*
X164958Y218312D02*
X168550Y214720D01*
X164958Y220758D02*
X168550Y224350D01*
X165465Y207535D02*
X170545D01*
X172005Y259535D02*
X166925D01*
X172505Y311535D02*
X167425D01*
X172512Y270312D02*
X168920Y266720D01*
X172512Y272758D02*
X168920Y276350D01*
X173005Y327535D02*
X167925D01*
X173735Y257805D02*
Y252725D01*
Y261265D02*
Y266345D01*
X174005Y219535D02*
X168925D01*
X174512Y194312D02*
X170920Y190720D01*
X174512Y196758D02*
X170920Y200350D01*
X174512Y206312D02*
X170920Y202720D01*
X174512Y208758D02*
X170920Y212350D01*
X174735Y325805D02*
Y320725D01*
X174958Y270312D02*
X178550Y266720D01*
X174958Y272758D02*
X178550Y276350D01*
X175235Y301805D02*
Y296725D01*
Y321265D02*
Y326345D01*
X175465Y259535D02*
X180545D01*
X175735Y217805D02*
Y212725D01*
Y221265D02*
Y226345D01*
X176465Y327535D02*
X181545D01*
X176958Y194312D02*
X180550Y190720D01*
X176958Y196758D02*
X180550Y200350D01*
X176958Y206312D02*
X180550Y202720D01*
X176958Y208758D02*
X180550Y212350D01*
X177465Y219535D02*
X182545D01*
X177965Y311535D02*
X183045D01*
X181005Y247285D02*
X175925D01*
X184735Y249265D02*
Y254345D01*
X186005Y207535D02*
X180925D01*
X186512Y194312D02*
X182920Y190720D01*
X186512Y196758D02*
X182920Y200350D01*
X186512Y218312D02*
X182920Y214720D01*
X186512Y220758D02*
X182920Y224350D01*
X187735Y205805D02*
Y200725D01*
Y209265D02*
Y214345D01*
X188465Y247285D02*
X193545D01*
X188958Y196758D02*
X192550Y200350D01*
X188958Y218312D02*
X192550Y214720D01*
X188958Y220758D02*
X192550Y224350D01*
X189465Y207535D02*
X194545D01*
X194512Y339312D02*
X190920Y335720D01*
X194512Y341758D02*
X190920Y345350D01*
X196958Y339312D02*
X200550Y335720D01*
X196958Y341758D02*
X200550Y345350D01*
X199005Y217285D02*
X193925D01*
X202735Y215305D02*
Y210225D01*
Y219265D02*
Y224345D01*
X206465Y217285D02*
X211545D01*
X266633Y178637D02*
X261925Y183345D01*
X266633Y198433D02*
X261925Y193725D01*
X269005Y182535D02*
X263925D01*
X269005D02*
X263925D01*
X269005Y194535D02*
X263925D01*
X270735Y180805D02*
Y175725D01*
Y180805D02*
Y175725D01*
Y196265D02*
Y201345D01*
X271735Y168805D02*
Y163725D01*
Y178265D02*
Y183345D01*
X276837Y178637D02*
X281545Y183345D01*
X276837Y198433D02*
X281545Y193725D01*
X281005Y182535D02*
X275925D01*
X281005D02*
X275925D01*
X281005Y194535D02*
X275925D01*
X282735Y180805D02*
Y175725D01*
Y180805D02*
Y175725D01*
Y196265D02*
Y201345D01*
X283965Y173535D02*
X289045D01*
X284005Y320535D02*
X278925D01*
X284465Y182535D02*
X289545D01*
X285735Y318805D02*
Y313725D01*
Y322265D02*
Y327345D01*
X287465Y320535D02*
X292545D01*
X294005Y172785D02*
X288925D01*
X297735Y170805D02*
Y165725D01*
Y174765D02*
Y179845D01*
X300512Y262312D02*
X296920Y258720D01*
X300512Y264758D02*
X296920Y268350D01*
X301305Y340235D02*
X296225D01*
X301465Y172785D02*
X306545D01*
X302958Y262312D02*
X306550Y258720D01*
X302958Y264758D02*
X306550Y268350D01*
X308535Y333005D02*
Y327925D01*
Y347465D02*
Y352545D01*
X315505Y175035D02*
X310425D01*
X315765Y340235D02*
X320845D01*
X320965Y175035D02*
X326045D01*
X340005Y135535D02*
X334925D01*
X340005D02*
X334925D01*
X340005Y155535D02*
X334925D01*
X340005D02*
X334925D01*
X340005Y175535D02*
X334925D01*
X340005D02*
X334925D01*
X340005Y195535D02*
X334925D01*
X340005D02*
X334925D01*
X341735Y133805D02*
Y128725D01*
Y133805D02*
Y128725D01*
Y137265D02*
Y142345D01*
Y137265D02*
Y142345D01*
Y153805D02*
Y148725D01*
Y153805D02*
Y148725D01*
Y157265D02*
Y162345D01*
Y157265D02*
Y162345D01*
Y173805D02*
Y168725D01*
Y173805D02*
Y168725D01*
Y177265D02*
Y182345D01*
Y177265D02*
Y182345D01*
Y193805D02*
Y188725D01*
Y193805D02*
Y188725D01*
Y197265D02*
Y202345D01*
Y197265D02*
Y202345D01*
X343465Y135535D02*
X348545D01*
X343465D02*
X348545D01*
X343465Y155535D02*
X348545D01*
X343465D02*
X348545D01*
X343465Y175535D02*
X348545D01*
X343465D02*
X348545D01*
X343465Y195535D02*
X348545D01*
X343465D02*
X348545D01*
X349735Y263305D02*
Y258225D01*
Y267265D02*
Y272345D01*
X350005Y125535D02*
X344925D01*
X350005D02*
X344925D01*
X350005Y145535D02*
X344925D01*
X350005D02*
X344925D01*
X350005Y165535D02*
X344925D01*
X350005D02*
X344925D01*
X350005Y185535D02*
X344925D01*
X350005D02*
X344925D01*
X351735Y123805D02*
Y118725D01*
Y123805D02*
Y118725D01*
Y127265D02*
Y132345D01*
Y127265D02*
Y132345D01*
Y143805D02*
Y138725D01*
Y143805D02*
Y138725D01*
Y147265D02*
Y152345D01*
Y147265D02*
Y152345D01*
Y163805D02*
Y158725D01*
Y163805D02*
Y158725D01*
Y167265D02*
Y172345D01*
Y167265D02*
Y172345D01*
Y183805D02*
Y178725D01*
Y183805D02*
Y178725D01*
Y187265D02*
Y192345D01*
Y187265D02*
Y192345D01*
X353465Y125535D02*
X358545D01*
X353465D02*
X358545D01*
X353465Y145535D02*
X358545D01*
X353465D02*
X358545D01*
X353465Y165535D02*
X358545D01*
X353465D02*
X358545D01*
X353465Y185535D02*
X358545D01*
X353465D02*
X358545D01*
X353465Y265285D02*
X358545D01*
X360005Y135535D02*
X354925D01*
X360005D02*
X354925D01*
X360005Y155535D02*
X354925D01*
X360005D02*
X354925D01*
X360005Y175535D02*
X354925D01*
X360005D02*
X354925D01*
X360005Y195535D02*
X354925D01*
X360005D02*
X354925D01*
X361512Y285312D02*
X357920Y281720D01*
X361512Y287758D02*
X357920Y291350D01*
X361735Y133805D02*
Y128725D01*
Y133805D02*
Y128725D01*
Y137265D02*
Y142345D01*
Y137265D02*
Y142345D01*
Y153805D02*
Y148725D01*
Y153805D02*
Y148725D01*
Y157265D02*
Y162345D01*
Y157265D02*
Y162345D01*
Y173805D02*
Y168725D01*
Y173805D02*
Y168725D01*
Y177265D02*
Y182345D01*
Y177265D02*
Y182345D01*
Y193805D02*
Y188725D01*
Y193805D02*
Y188725D01*
Y197265D02*
Y202345D01*
Y197265D02*
Y202345D01*
X363465Y135535D02*
X368545D01*
X363465D02*
X368545D01*
X363465Y155535D02*
X368545D01*
X363465D02*
X368545D01*
X363465Y175535D02*
X368545D01*
X363465D02*
X368545D01*
X363465Y195535D02*
X368545D01*
X363465D02*
X368545D01*
X363958Y285312D02*
X367550Y281720D01*
X363958Y287758D02*
X367550Y291350D01*
X370005Y125535D02*
X364925D01*
X370005D02*
X364925D01*
X370005Y145535D02*
X364925D01*
X370005D02*
X364925D01*
X370005Y165535D02*
X364925D01*
X370005D02*
X364925D01*
X370005Y185535D02*
X364925D01*
X370005D02*
X364925D01*
X371735Y123805D02*
Y118725D01*
Y123805D02*
Y118725D01*
Y127265D02*
Y132345D01*
Y127265D02*
Y132345D01*
Y143805D02*
Y138725D01*
Y143805D02*
Y138725D01*
Y147265D02*
Y152345D01*
Y147265D02*
Y152345D01*
Y163805D02*
Y158725D01*
Y163805D02*
Y158725D01*
Y167265D02*
Y172345D01*
Y167265D02*
Y172345D01*
Y183805D02*
Y178725D01*
Y183805D02*
Y178725D01*
Y187265D02*
Y192345D01*
Y187265D02*
Y192345D01*
X373465Y125535D02*
X378545D01*
X373465D02*
X378545D01*
X373465Y145535D02*
X378545D01*
X373465D02*
X378545D01*
X373465Y165535D02*
X378545D01*
X373465D02*
X378545D01*
X373465Y185535D02*
X378545D01*
X373465D02*
X378545D01*
X378005Y257535D02*
X372925D01*
X378735Y217805D02*
Y212725D01*
Y223265D02*
Y228345D01*
Y248805D02*
Y243725D01*
Y266265D02*
Y271345D01*
X379465Y257535D02*
X384545D01*
X380005Y135535D02*
X374925D01*
X380005D02*
X374925D01*
X380005Y155535D02*
X374925D01*
X380005D02*
X374925D01*
X380005Y175535D02*
X374925D01*
X380005D02*
X374925D01*
X380005Y195535D02*
X374925D01*
X380005D02*
X374925D01*
X381735Y133805D02*
Y128725D01*
Y133805D02*
Y128725D01*
Y137265D02*
Y142345D01*
Y137265D02*
Y142345D01*
Y153805D02*
Y148725D01*
Y153805D02*
Y148725D01*
Y157265D02*
Y162345D01*
Y157265D02*
Y162345D01*
Y173805D02*
Y168725D01*
Y173805D02*
Y168725D01*
Y177265D02*
Y182345D01*
Y177265D02*
Y182345D01*
Y193805D02*
Y188725D01*
Y193805D02*
Y188725D01*
Y197265D02*
Y202345D01*
Y197265D02*
Y202345D01*
X383465Y135535D02*
X388545D01*
X383465D02*
X388545D01*
X383465Y155535D02*
X388545D01*
X383465D02*
X388545D01*
X383465Y175535D02*
X388545D01*
X383465D02*
X388545D01*
X383465Y195535D02*
X388545D01*
X383465D02*
X388545D01*
X390005Y125535D02*
X384925D01*
X390005D02*
X384925D01*
X390005Y145535D02*
X384925D01*
X390005D02*
X384925D01*
X390005Y165535D02*
X384925D01*
X390005D02*
X384925D01*
X390005Y185535D02*
X384925D01*
X390005D02*
X384925D01*
X391735Y123805D02*
Y118725D01*
Y123805D02*
Y118725D01*
Y127265D02*
Y132345D01*
Y127265D02*
Y132345D01*
Y143805D02*
Y138725D01*
Y143805D02*
Y138725D01*
Y147265D02*
Y152345D01*
Y147265D02*
Y152345D01*
Y163805D02*
Y158725D01*
Y163805D02*
Y158725D01*
Y167265D02*
Y172345D01*
Y167265D02*
Y172345D01*
Y183805D02*
Y178725D01*
Y183805D02*
Y178725D01*
Y187265D02*
Y192345D01*
Y187265D02*
Y192345D01*
X393465Y125535D02*
X398545D01*
X393465D02*
X398545D01*
X393465Y145535D02*
X398545D01*
X393465D02*
X398545D01*
X393465Y165535D02*
X398545D01*
X393465D02*
X398545D01*
X393465Y185535D02*
X398545D01*
X393465D02*
X398545D01*
X393735Y101805D02*
Y96725D01*
Y107265D02*
Y112345D01*
X400005Y135535D02*
X394925D01*
X400005D02*
X394925D01*
X400005Y155535D02*
X394925D01*
X400005D02*
X394925D01*
X400005Y175535D02*
X394925D01*
X400005D02*
X394925D01*
X400005Y195535D02*
X394925D01*
X400005D02*
X394925D01*
X401735Y133805D02*
Y128725D01*
Y133805D02*
Y128725D01*
Y137265D02*
Y142345D01*
Y137265D02*
Y142345D01*
Y153805D02*
Y148725D01*
Y153805D02*
Y148725D01*
Y157265D02*
Y162345D01*
Y157265D02*
Y162345D01*
Y173805D02*
Y168725D01*
Y173805D02*
Y168725D01*
Y177265D02*
Y182345D01*
Y177265D02*
Y182345D01*
Y193805D02*
Y188725D01*
Y193805D02*
Y188725D01*
Y197265D02*
Y202345D01*
Y197265D02*
Y202345D01*
X403465Y135535D02*
X408545D01*
X403465D02*
X408545D01*
X403465Y155535D02*
X408545D01*
X403465D02*
X408545D01*
X403465Y175535D02*
X408545D01*
X403465D02*
X408545D01*
X403465Y195535D02*
X408545D01*
X403465D02*
X408545D01*
X405005Y80535D02*
X399925D01*
X406735Y78805D02*
Y73725D01*
Y82265D02*
Y87345D01*
X408465Y80535D02*
X413545D01*
X410005Y125535D02*
X404925D01*
X410005D02*
X404925D01*
X410005Y145535D02*
X404925D01*
X410005D02*
X404925D01*
X410005Y165535D02*
X404925D01*
X410005D02*
X404925D01*
X410005Y185535D02*
X404925D01*
X410005D02*
X404925D01*
X411735Y123805D02*
Y118725D01*
Y123805D02*
Y118725D01*
Y127265D02*
Y132345D01*
Y127265D02*
Y132345D01*
Y143805D02*
Y138725D01*
Y143805D02*
Y138725D01*
Y147265D02*
Y152345D01*
Y147265D02*
Y152345D01*
Y163805D02*
Y158725D01*
Y163805D02*
Y158725D01*
Y167265D02*
Y172345D01*
Y167265D02*
Y172345D01*
Y183805D02*
Y178725D01*
Y183805D02*
Y178725D01*
Y187265D02*
Y192345D01*
Y187265D02*
Y192345D01*
X413465Y125535D02*
X418545D01*
X413465D02*
X418545D01*
X413465Y145535D02*
X418545D01*
X413465D02*
X418545D01*
X413465Y165535D02*
X418545D01*
X413465D02*
X418545D01*
X413465Y185535D02*
X418545D01*
X413465D02*
X418545D01*
X414005Y260285D02*
X408925D01*
X417735Y258305D02*
Y253225D01*
X428305Y340235D02*
X423225D01*
X431005Y260285D02*
X425925D01*
X434735Y258305D02*
Y253225D01*
Y262265D02*
Y267345D01*
X435535Y333005D02*
Y327925D01*
X438465Y260285D02*
X443545D01*
X443735Y276805D02*
Y271725D01*
Y280265D02*
Y285345D01*
X455823Y335123D02*
X452231Y331531D01*
X455823Y345347D02*
X452231Y348939D01*
X466047Y335123D02*
X469639Y331531D01*
X466047Y345347D02*
X469639Y348939D01*
X483005Y347535D02*
X477925D01*
X483535Y129005D02*
Y123925D01*
Y154065D02*
Y159145D01*
X484735Y345805D02*
Y340725D01*
Y349265D02*
Y354345D01*
X486465Y347535D02*
X491545D01*
X489485Y193805D02*
Y188725D01*
Y201265D02*
Y206345D01*
X490005Y284535D02*
X484925D01*
X490765Y141535D02*
X495845D01*
X491465Y197535D02*
X496545D01*
X491735Y282805D02*
Y277725D01*
Y286265D02*
Y291345D01*
X492735Y174305D02*
Y169225D01*
Y184765D02*
Y189845D01*
X493465Y284535D02*
X498545D01*
X511705Y141535D02*
X506625D01*
X517935Y160315D02*
Y165395D01*
X524165Y141535D02*
X529245D01*
X524165Y156535D02*
X529245D01*
X538005Y290535D02*
X532925D01*
X544735Y283805D02*
Y278725D01*
Y297265D02*
Y302345D01*
X551465Y290535D02*
X556545D01*
D02*
D71*
X149735Y206535D02*
D03*
Y250535D02*
D03*
D02*
D20*
X381985Y80535D02*
D03*
X397485D02*
D03*
X473985Y197535D02*
D03*
Y213535D02*
D03*
X489485Y197535D02*
D03*
Y213535D02*
D03*
D02*
D22*
X308535Y314835D02*
D03*
Y340235D02*
D03*
X333935Y314835D02*
D03*
Y340235D02*
D03*
X359335Y314835D02*
D03*
Y340235D02*
D03*
X384735Y314835D02*
D03*
Y340235D02*
D03*
X410135Y314835D02*
D03*
Y340235D02*
D03*
X435535Y314835D02*
D03*
Y340235D02*
D03*
X460935Y314835D02*
D03*
Y340235D02*
D03*
D02*
D23*
X517935Y126535D02*
D03*
Y141535D02*
D03*
Y156535D02*
D03*
D02*
D24*
X483535Y141535D02*
D03*
D02*
D25*
X184735Y231785D02*
D03*
Y247285D02*
D03*
X202735Y201785D02*
D03*
Y217285D02*
D03*
Y231785D02*
D03*
Y247285D02*
D03*
X229735Y201785D02*
D03*
Y217285D02*
D03*
Y231785D02*
D03*
Y247285D02*
D03*
Y261785D02*
D03*
Y277285D02*
D03*
X297735Y172785D02*
D03*
Y188285D02*
D03*
X349735Y249785D02*
D03*
Y265285D02*
D03*
X417735Y244785D02*
D03*
Y260285D02*
D03*
X434735Y244785D02*
D03*
Y260285D02*
D03*
X499735Y243785D02*
D03*
Y259285D02*
D03*
D02*
D76*
X129735Y167535D02*
Y143535D01*
X132735Y140535*
Y122535*
X129735Y119535*
Y103535*
X116735Y90535*
X104735*
X142735Y294535D02*
Y293535D01*
X169735*
X202735Y260535*
Y247285*
X150735Y80335D02*
Y93035D01*
Y105735*
Y118435*
Y131135*
Y143835*
Y156535*
Y169235*
X162735Y118535D02*
X150835D01*
X150735Y118435*
X174735Y327535D02*
Y312035D01*
X175235Y311535*
X184735Y231785D02*
X202735D01*
X266735Y234535D02*
Y243085D01*
X267185Y243535*
Y251535*
Y259535*
Y267535*
X297735Y172785D02*
X287485D01*
X286735Y173535*
X271735*
X297735Y188285D02*
Y188535D01*
X282735Y203535*
X271735*
X318235Y175035D02*
X302235D01*
X299985Y172785*
X297735*
X318235Y185035D02*
X298735D01*
Y188285*
X297735*
X349735Y249785D02*
X346735D01*
X339735Y256785*
Y275535*
X350735Y286535*
X349735Y249785D02*
X351485D01*
X351735Y249535*
X352735*
X368735Y233535*
Y220535*
X362735Y286535D02*
X366735D01*
X378735Y274535*
Y257535*
X362735Y286535D02*
X349735Y273535D01*
Y265285*
X381985Y80535D02*
X372735D01*
X383735Y104535D02*
Y80535D01*
X381985*
X393735Y104535D02*
Y94535D01*
X395735Y92535*
Y80535*
X397485*
X406735*
X434235Y160035D02*
X455235D01*
X460735Y154535*
Y105535*
X468735Y97535*
X541735*
X544735Y94535*
Y90535*
X434235Y165035D02*
Y170035D01*
X457235*
X460735Y173535*
Y215535*
X464985Y219785*
X466735*
X472985Y213535*
X473985*
X434235Y180035D02*
Y175035D01*
Y180035D02*
X449235D01*
X453735Y184535*
Y229535*
X458735Y234535*
X476485*
X488485Y222535*
Y213535*
X489485*
X434735Y260285D02*
X417735D01*
X443735Y278535D02*
Y262285D01*
X441735Y260285*
X434735*
X472735Y179535D02*
Y188285D01*
X473985Y189535*
Y197535*
Y213535*
X517935Y126535D02*
Y120735D01*
X501735Y104535*
X474735*
X466735Y112535*
Y163535*
X471735Y168535*
Y179535*
X472735*
X518735Y244185D02*
X500135D01*
X499735Y243785*
X518735Y244185D02*
Y190535D01*
X527735Y215535D02*
Y256885D01*
X502135*
X499735Y259285*
D02*
D89*
X104735Y90535D02*
D03*
Y115535D02*
D03*
Y140535D02*
D03*
Y165535D02*
D03*
Y190535D02*
D03*
Y215535D02*
D03*
Y240535D02*
D03*
Y265535D02*
D03*
Y290535D02*
D03*
Y315535D02*
D03*
X544735Y90535D02*
D03*
Y115535D02*
D03*
Y140535D02*
D03*
Y165535D02*
D03*
Y190535D02*
D03*
Y215535D02*
D03*
Y240535D02*
D03*
Y265535D02*
D03*
Y290535D02*
D03*
Y315535D02*
D03*
D02*
D90*
X160235Y311535D02*
D03*
X175235D02*
D03*
X190235D02*
D03*
D02*
D91*
X140735Y346035D02*
D03*
X209735D02*
D03*
D02*
D98*
X472735Y179535D02*
D03*
X492735D02*
D03*
D02*
D99*
X338735Y104535D02*
D03*
Y220535D02*
D03*
X343735Y104535D02*
D03*
Y220535D02*
D03*
X348735Y104535D02*
D03*
Y220535D02*
D03*
X353735Y104535D02*
D03*
Y220535D02*
D03*
X358735Y104535D02*
D03*
Y220535D02*
D03*
X363735Y104535D02*
D03*
Y220535D02*
D03*
X368735Y104535D02*
D03*
Y220535D02*
D03*
X373735Y104535D02*
D03*
Y220535D02*
D03*
X378735Y104535D02*
D03*
Y220535D02*
D03*
X383735Y104535D02*
D03*
Y220535D02*
D03*
X388735Y104535D02*
D03*
Y220535D02*
D03*
X393735Y104535D02*
D03*
Y220535D02*
D03*
X398735Y104535D02*
D03*
Y220535D02*
D03*
X403735Y104535D02*
D03*
Y220535D02*
D03*
X408735Y104535D02*
D03*
Y220535D02*
D03*
X413735Y104535D02*
D03*
Y220535D02*
D03*
D02*
D100*
X318235Y125035D02*
D03*
Y130035D02*
D03*
Y135035D02*
D03*
Y140035D02*
D03*
Y145035D02*
D03*
Y150035D02*
D03*
Y155035D02*
D03*
Y160035D02*
D03*
Y165035D02*
D03*
Y170035D02*
D03*
Y175035D02*
D03*
Y180035D02*
D03*
Y185035D02*
D03*
Y190035D02*
D03*
Y195035D02*
D03*
Y200035D02*
D03*
X434235Y125035D02*
D03*
Y130035D02*
D03*
Y135035D02*
D03*
Y140035D02*
D03*
Y145035D02*
D03*
Y150035D02*
D03*
Y155035D02*
D03*
Y160035D02*
D03*
Y165035D02*
D03*
Y170035D02*
D03*
Y175035D02*
D03*
Y180035D02*
D03*
Y185035D02*
D03*
Y190035D02*
D03*
Y195035D02*
D03*
Y200035D02*
D03*
D02*
D101*
X271735Y173535D02*
D03*
Y203535D02*
D03*
D02*
D102*
X366735Y257535D02*
D03*
X378735D02*
D03*
X390735D02*
D03*
D02*
D103*
X150735Y80335D02*
D03*
Y93035D02*
D03*
Y105735D02*
D03*
Y118435D02*
D03*
Y131135D02*
D03*
Y143835D02*
D03*
Y156535D02*
D03*
Y169235D02*
D03*
X223735Y80335D02*
D03*
Y93035D02*
D03*
Y105735D02*
D03*
Y118435D02*
D03*
Y131135D02*
D03*
Y143835D02*
D03*
Y156535D02*
D03*
Y169235D02*
D03*
D02*
D104*
X249685Y243535D02*
D03*
Y251535D02*
D03*
Y259535D02*
D03*
Y267535D02*
D03*
X267185Y243535D02*
D03*
Y251535D02*
D03*
Y259535D02*
D03*
Y267535D02*
D03*
D02*
D105*
X125735Y133535D02*
D03*
X129735Y167535D02*
D03*
X142735Y294535D02*
D03*
X149735Y250535D02*
Y271535D01*
D02*
D03*
Y283535D02*
D03*
X161735Y271535D02*
D03*
Y283535D02*
D03*
X162735Y118535D02*
D03*
X163735Y195535D02*
D03*
Y207535D02*
D03*
Y219535D02*
D03*
X168735Y111535D02*
D03*
Y138535D02*
D03*
X173735Y259535D02*
D03*
Y271535D02*
D03*
X174735Y327535D02*
D03*
X175735Y195535D02*
D03*
Y207535D02*
D03*
Y219535D02*
D03*
X187735Y195535D02*
D03*
Y207535D02*
D03*
Y219535D02*
D03*
X191845Y289535D02*
D03*
X195735Y340535D02*
D03*
X209735Y80335D02*
D03*
Y93035D02*
D03*
Y105735D02*
D03*
Y118535D02*
D03*
Y131135D02*
D03*
Y143835D02*
D03*
Y156535D02*
D03*
Y169235D02*
D03*
X223735Y300535D02*
D03*
X229735Y319535D02*
D03*
X237735Y93035D02*
D03*
Y105735D02*
D03*
X246735Y124535D02*
D03*
X251735Y276535D02*
D03*
X255735Y120535D02*
D03*
X258735Y182535D02*
D03*
Y194535D02*
D03*
X259735Y276535D02*
D03*
X262735Y93535D02*
D03*
X263735Y81535D02*
D03*
X264735Y120535D02*
D03*
X266735Y234535D02*
D03*
X270735Y182535D02*
D03*
Y194535D02*
D03*
X271735Y124535D02*
D03*
X276735Y282535D02*
D03*
X277735Y131535D02*
D03*
Y152535D02*
D03*
X282735Y182535D02*
D03*
Y194535D02*
D03*
Y308285D02*
D03*
X283735Y345285D02*
D03*
X284735Y100535D02*
D03*
Y159535D02*
D03*
X285735Y320535D02*
D03*
X291735Y263535D02*
D03*
X292735Y100535D02*
D03*
X298735Y106535D02*
D03*
X300735Y114535D02*
D03*
X301735Y263535D02*
D03*
X311735Y233535D02*
D03*
X315735Y241535D02*
D03*
X316735Y261535D02*
D03*
X327735Y293535D02*
D03*
X334735Y287535D02*
D03*
X341735Y135535D02*
D03*
Y155535D02*
D03*
Y175535D02*
D03*
Y195535D02*
D03*
X350735Y286535D02*
D03*
X351735Y125535D02*
D03*
Y145535D02*
D03*
Y165535D02*
D03*
Y185535D02*
D03*
X361735Y135535D02*
D03*
Y155535D02*
D03*
Y175535D02*
D03*
Y195535D02*
D03*
X362735Y286535D02*
D03*
X371735Y125535D02*
D03*
Y145535D02*
D03*
Y165535D02*
D03*
Y185535D02*
D03*
X372735Y80535D02*
D03*
X381735Y135535D02*
D03*
Y155535D02*
D03*
Y175535D02*
D03*
Y195535D02*
D03*
X391735Y125535D02*
D03*
Y145535D02*
D03*
Y165535D02*
D03*
Y185535D02*
D03*
X392735Y295535D02*
D03*
X401735Y135535D02*
D03*
Y155535D02*
D03*
Y175535D02*
D03*
Y195535D02*
D03*
X402735Y295535D02*
D03*
X406735Y80535D02*
D03*
X411735Y125535D02*
D03*
Y145535D02*
D03*
Y165535D02*
D03*
Y185535D02*
D03*
X415735Y278535D02*
D03*
X424735D02*
D03*
X430735Y89535D02*
D03*
X434735Y278535D02*
D03*
X438735Y83535D02*
D03*
X443735Y278535D02*
D03*
X446735Y77535D02*
D03*
X453735Y71535D02*
D03*
X470735Y297535D02*
D03*
X484735Y347535D02*
D03*
X491735Y284535D02*
D03*
X500235Y345535D02*
D03*
X517935Y141535D02*
X483535D01*
X517935Y156535D02*
Y161735D01*
X521735Y165535*
X544735*
X518735Y190535D02*
D03*
Y244185D02*
D03*
X527735Y215535D02*
D03*
Y256885D02*
D03*
X544735Y140535D02*
X531735D01*
Y141535*
X517935*
D02*
D106*
X104735Y140535D02*
X118735D01*
X125735Y133535*
X160235Y311535D02*
Y325535D01*
X163235Y328535*
X163735*
X170735Y335535*
X178735*
X185735Y328535*
X213735*
X219735Y334535*
X244735*
X254735Y324535*
Y284535*
X259735Y279535*
Y276535*
X209735Y80335D02*
X223735D01*
X209735Y93035D02*
X223735D01*
X209735Y105735D02*
X223735D01*
X209735Y118535D02*
X216735D01*
Y118435*
X223735*
X209735Y131135D02*
X223735D01*
X209735Y143835D02*
X223735D01*
X209735Y156535D02*
X223735D01*
X209735Y169235D02*
X223735D01*
Y300535D02*
X222735D01*
X219735Y297535*
Y250535*
X222985Y247285*
X229735*
Y201785D02*
X232985D01*
X239735Y208535*
Y233535*
X249685Y243485*
Y243535*
X229735Y217285D02*
X224985D01*
X220735Y221535*
Y242535*
X215735Y247535*
Y285535*
X211735Y289535*
X191845*
X229735Y319535D02*
Y277285D01*
X237735Y93035D02*
X223735D01*
X237735Y105735D02*
X223735D01*
X249685Y251535D02*
X244735D01*
X237735Y244535*
Y237535*
X231985Y231785*
X229735*
X249685Y259535D02*
X242985D01*
X240735Y261785*
X229735*
X249685Y267535D02*
X244735D01*
X240735Y271535*
Y323535*
X237735Y326535*
X224735*
X222735Y324535*
Y309535*
X209735Y296535*
X184735*
X183735Y295535*
Y285535*
X211735Y257535*
Y244535*
X216735Y239535*
Y207535*
X211735Y202535*
X202735*
Y201785*
X251735Y276535D02*
X249735D01*
X245735Y280535*
Y324535*
X239735Y330535*
X221735*
X218735Y327535*
Y319535*
X210735Y311535*
X190235*
X255735Y120535D02*
X257735Y118535D01*
Y103535*
X260735Y100535*
X284735*
X262735Y93535D02*
X299735D01*
X302735Y96535*
X346735*
X348735Y98535*
Y104535*
X292735Y100535D02*
Y101535D01*
X287735Y106535*
X269735*
X264735Y111535*
Y120535*
X298735Y106535D02*
X297735D01*
X293735Y110535*
X274735*
X271735Y113535*
Y124535*
X300735Y114535D02*
X285735D01*
X279735Y120535*
Y129535*
X277735Y131535*
X311735Y233535D02*
X309735D01*
X305735Y229535*
Y194035*
X309735Y190035*
X318235*
X315735Y241535D02*
X317735Y239535D01*
Y230535*
X315735Y228535*
Y226535*
X309735Y220535*
Y197535*
X312235Y195035*
X318235*
Y125035D02*
Y125535D01*
X298735*
X285735Y138535*
X251735*
X244235Y146035*
Y219035*
X249735Y224535*
X271735*
X274735Y227535*
Y270535*
X265735Y279535*
Y328285*
X282735Y345285*
X283735*
X318235Y130035D02*
X300235D01*
X287735Y142535*
X255735*
X248735Y149535*
Y215535*
X253735Y220535*
X273735*
X278735Y225535*
Y272535*
X269735Y281535*
Y292535*
X277735Y300535*
Y303285*
X282735Y308285*
X318235Y135035D02*
X301235D01*
X289735Y146535*
X258735*
X252735Y152535*
Y214535*
X254735Y216535*
X276735*
X283735Y223535*
Y275535*
X276735Y282535*
X318235Y160035D02*
X311235D01*
X303735Y152535*
X277735*
X318235Y165035D02*
X308235D01*
X302735Y159535*
X284735*
X327735Y293535D02*
Y288535D01*
X326735Y287535*
Y249535*
X331735Y244535*
Y236535*
X335735Y232535*
X346735*
X348735Y230535*
Y220535*
X338735D02*
X332735D01*
X323735Y229535*
Y242535*
X316735Y249535*
Y261535*
X343735Y220535D02*
Y227535D01*
X342735Y228535*
X331735*
X327735Y232535*
Y243535*
X322735Y248535*
Y287535*
X308535Y301735*
Y314835*
X353735Y220535D02*
Y232535D01*
X349735Y236535*
X336735*
X335735Y237535*
Y245535*
X330735Y250535*
Y283535*
X334735Y287535*
X358735Y104535D02*
Y99535D01*
X351735Y92535*
X305735*
X300735Y87535*
X256735*
X252735Y91535*
Y112535*
X246735Y118535*
Y124535*
X358735Y220535D02*
Y234535D01*
X352735Y240535*
X341735*
X339735Y242535*
Y246535*
X334735Y251535*
Y279535*
X341735Y286535*
Y295535*
X334735Y302535*
Y314835*
X333935*
X363735Y104535D02*
Y98535D01*
X353735Y88535*
X307735*
X300735Y81535*
X263735*
X366735Y257535D02*
Y246535D01*
X373735Y239535*
Y220535*
Y104535D02*
Y98535D01*
X359735Y84535*
X310735*
X300735Y74535*
X258735*
X248735Y84535*
Y110535*
X240735Y118535*
Y181535*
X232735Y189535*
X193735*
X189735Y185535*
X139735*
X126735Y198535*
Y229535*
X115735Y240535*
X104735*
X378735Y104535D02*
Y96535D01*
X361735Y79535*
X312735*
X303735Y70535*
X256735*
X244735Y82535*
Y108535*
X236735Y116535*
Y179535*
X230735Y185535*
X195735*
X190735Y180535*
X134735*
X120735Y194535*
Y225535*
X116735Y229535*
X94735*
X89735Y234535*
Y263535*
X91735Y265535*
X104735*
X378735Y220535D02*
Y257535D01*
X384735Y314835D02*
Y290535D01*
X386735Y288535*
X432735*
X434735Y286535*
Y278535*
X388735Y220535D02*
Y238535D01*
X396735Y246535*
Y268535*
X406735Y278535*
X415735*
X390735Y257535D02*
Y246535D01*
X383735Y239535*
Y220535*
X392735Y295535D02*
Y301535D01*
X397735Y306535*
X402735*
X410735Y314535*
Y314835*
X410135*
X393735Y220535D02*
Y236535D01*
X400735Y243535*
Y266535*
X406735Y272535*
X418735*
X424735Y278535*
X402735Y295535D02*
X423535D01*
X435535Y307535*
Y314835*
X413735Y220535D02*
Y229535D01*
X414735Y230535*
X441735*
X450735Y239535*
Y297535*
X447735Y300535*
Y347535*
X440735Y354535*
X349735*
X335435Y340235*
X333935*
X417735Y244785D02*
Y240535D01*
X415735Y238535*
X409735*
X403735Y232535*
Y220535*
X434235Y125035D02*
X440235D01*
X442735Y122535*
Y94535*
X437735Y89535*
X430735*
X434235Y130035D02*
X441735D01*
X446735Y125035*
Y88535*
X441735Y83535*
X438735*
X434235Y135035D02*
X443735D01*
X450735Y128035*
Y81535*
X446735Y77535*
X434235Y140035D02*
X445735D01*
X455735Y130035*
Y73535*
X453735Y71535*
X434235Y185035D02*
X444235D01*
X448735Y189535*
Y231535*
X457735Y240535*
Y284535*
X461735Y288535*
X477735*
X513735Y324535*
Y351535*
X505735Y359535*
X223735*
X222735Y360535*
X179735*
X147735Y328535*
Y299535*
X142735Y294535*
X434735Y244785D02*
Y239535D01*
X429735Y234535*
X412735*
X408735Y230535*
Y220535*
X434735Y278535D02*
Y273535D01*
X429735Y268535*
X408735*
X404735Y264535*
Y241535*
X398735Y235535*
Y220535*
X460935Y314835D02*
X469535D01*
X500235Y345535*
X0Y0D02*
M02*
