%FSLAX34Y34*%
%MOMM*%
G04 EasyPC Gerber Version 18.0.6 Build 3620 *
%ADD99R,0.30000X0.80000*%
%ADD102R,0.40000X2.00000*%
%ADD20R,0.65000X1.00000*%
%ADD90R,0.80000X2.20000*%
%ADD98R,0.90000X1.30000*%
%ADD91R,1.10000X1.90000*%
%ADD71R,1.60000X3.00000*%
%ADD24R,1.70000X2.76000*%
%ADD89C,1.60000*%
%ADD22C,1.70000*%
%ADD100R,0.80000X0.30000*%
%ADD104R,0.75000X0.50000*%
%ADD25R,1.00000X0.65000*%
%ADD103R,1.27000X0.76000*%
%ADD23R,1.50000X1.01000*%
%ADD101R,2.70000X1.20000*%
X0Y0D02*
D02*
D71*
X149735Y206535D02*
D03*
Y250535D02*
D03*
D02*
D20*
X381985Y80535D02*
D03*
X397485D02*
D03*
X473985Y197535D02*
D03*
Y213535D02*
D03*
X489485Y197535D02*
D03*
Y213535D02*
D03*
D02*
D22*
X308535Y314835D02*
D03*
Y340235D02*
D03*
X333935Y314835D02*
D03*
Y340235D02*
D03*
X359335Y314835D02*
D03*
Y340235D02*
D03*
X384735Y314835D02*
D03*
Y340235D02*
D03*
X410135Y314835D02*
D03*
Y340235D02*
D03*
X435535Y314835D02*
D03*
Y340235D02*
D03*
X460935Y314835D02*
D03*
Y340235D02*
D03*
D02*
D23*
X517935Y126535D02*
D03*
Y141535D02*
D03*
Y156535D02*
D03*
D02*
D24*
X483535Y141535D02*
D03*
D02*
D25*
X184735Y231785D02*
D03*
Y247285D02*
D03*
X202735Y201785D02*
D03*
Y217285D02*
D03*
Y231785D02*
D03*
Y247285D02*
D03*
X229735Y201785D02*
D03*
Y217285D02*
D03*
Y231785D02*
D03*
Y247285D02*
D03*
Y261785D02*
D03*
Y277285D02*
D03*
X297735Y172785D02*
D03*
Y188285D02*
D03*
X349735Y249785D02*
D03*
Y265285D02*
D03*
X417735Y244785D02*
D03*
Y260285D02*
D03*
X434735Y244785D02*
D03*
Y260285D02*
D03*
X499735Y243785D02*
D03*
Y259285D02*
D03*
D02*
D89*
X104735Y90535D02*
D03*
Y115535D02*
D03*
Y140535D02*
D03*
Y165535D02*
D03*
Y190535D02*
D03*
Y215535D02*
D03*
Y240535D02*
D03*
Y265535D02*
D03*
Y290535D02*
D03*
Y315535D02*
D03*
X544735Y90535D02*
D03*
Y115535D02*
D03*
Y140535D02*
D03*
Y165535D02*
D03*
Y190535D02*
D03*
Y215535D02*
D03*
Y240535D02*
D03*
Y265535D02*
D03*
Y290535D02*
D03*
Y315535D02*
D03*
D02*
D90*
X160235Y311535D02*
D03*
X175235D02*
D03*
X190235D02*
D03*
D02*
D91*
X140735Y346035D02*
D03*
X209735D02*
D03*
D02*
D98*
X472735Y179535D02*
D03*
X492735D02*
D03*
D02*
D99*
X338735Y104535D02*
D03*
Y220535D02*
D03*
X343735Y104535D02*
D03*
Y220535D02*
D03*
X348735Y104535D02*
D03*
Y220535D02*
D03*
X353735Y104535D02*
D03*
Y220535D02*
D03*
X358735Y104535D02*
D03*
Y220535D02*
D03*
X363735Y104535D02*
D03*
Y220535D02*
D03*
X368735Y104535D02*
D03*
Y220535D02*
D03*
X373735Y104535D02*
D03*
Y220535D02*
D03*
X378735Y104535D02*
D03*
Y220535D02*
D03*
X383735Y104535D02*
D03*
Y220535D02*
D03*
X388735Y104535D02*
D03*
Y220535D02*
D03*
X393735Y104535D02*
D03*
Y220535D02*
D03*
X398735Y104535D02*
D03*
Y220535D02*
D03*
X403735Y104535D02*
D03*
Y220535D02*
D03*
X408735Y104535D02*
D03*
Y220535D02*
D03*
X413735Y104535D02*
D03*
Y220535D02*
D03*
D02*
D100*
X318235Y125035D02*
D03*
Y130035D02*
D03*
Y135035D02*
D03*
Y140035D02*
D03*
Y145035D02*
D03*
Y150035D02*
D03*
Y155035D02*
D03*
Y160035D02*
D03*
Y165035D02*
D03*
Y170035D02*
D03*
Y175035D02*
D03*
Y180035D02*
D03*
Y185035D02*
D03*
Y190035D02*
D03*
Y195035D02*
D03*
Y200035D02*
D03*
X434235Y125035D02*
D03*
Y130035D02*
D03*
Y135035D02*
D03*
Y140035D02*
D03*
Y145035D02*
D03*
Y150035D02*
D03*
Y155035D02*
D03*
Y160035D02*
D03*
Y165035D02*
D03*
Y170035D02*
D03*
Y175035D02*
D03*
Y180035D02*
D03*
Y185035D02*
D03*
Y190035D02*
D03*
Y195035D02*
D03*
Y200035D02*
D03*
D02*
D101*
X271735Y173535D02*
D03*
Y203535D02*
D03*
D02*
D102*
X366735Y257535D02*
D03*
X378735D02*
D03*
X390735D02*
D03*
D02*
D103*
X150735Y80335D02*
D03*
Y93035D02*
D03*
Y105735D02*
D03*
Y118435D02*
D03*
Y131135D02*
D03*
Y143835D02*
D03*
Y156535D02*
D03*
Y169235D02*
D03*
X223735Y80335D02*
D03*
Y93035D02*
D03*
Y105735D02*
D03*
Y118435D02*
D03*
Y131135D02*
D03*
Y143835D02*
D03*
Y156535D02*
D03*
Y169235D02*
D03*
D02*
D104*
X249685Y243535D02*
D03*
Y251535D02*
D03*
Y259535D02*
D03*
Y267535D02*
D03*
X267185Y243535D02*
D03*
Y251535D02*
D03*
Y259535D02*
D03*
Y267535D02*
D03*
X0Y0D02*
M02*
