%FSLAX34Y34*%
%MOMM*%
G04 EasyPC Gerber Version 18.0.6 Build 3620 *
%ADD10C,0.12700*%
%ADD11C,0.25400*%
%ADD105C,0.60000*%
%ADD89C,1.60000*%
%ADD22C,1.70000*%
X0Y0D02*
D02*
D10*
X433804Y85294D02*
G75*
G02X430735Y84300I-3069J4240D01*
G01*
G75*
G02Y94770J5235*
G01*
G75*
G02X435666Y87776J-5235*
G01*
G75*
G02X443666Y81776I3069J-4241*
G01*
G75*
G02X451850Y76419I3069J-4241*
G01*
G75*
G02X458958Y71885I1885J-4884*
G01*
X565385*
Y359185*
X78085*
Y71885*
X448512*
G75*
G02X448620Y72651I5221J-345*
G01*
G75*
G02X441804Y79294I-1885J4884*
G01*
G75*
G02X433804Y85294I-3069J4241*
G01*
X104735Y80300D02*
G75*
G02Y100770J10235D01*
G01*
G75*
G02Y80300J-10235*
G01*
Y105300D02*
G75*
G02Y125770J10235D01*
G01*
G75*
G02Y105300J-10235*
G01*
Y130300D02*
G75*
G02Y150770J10235D01*
G01*
G75*
G02Y130300J-10235*
G01*
Y155300D02*
G75*
G02Y175770J10235D01*
G01*
G75*
G02Y155300J-10235*
G01*
Y179360D02*
G75*
G02Y201710J11175D01*
G01*
G75*
G02Y179360J-11175*
G01*
Y205300D02*
G75*
G02Y225770J10235D01*
G01*
G75*
G02Y205300J-10235*
G01*
Y230300D02*
G75*
G02Y250770J10235D01*
G01*
G75*
G02Y230300J-10235*
G01*
Y255300D02*
G75*
G02Y275770J10235D01*
G01*
G75*
G02Y255300J-10235*
G01*
Y280300D02*
G75*
G02Y300770J10235D01*
G01*
G75*
G02Y280300J-10235*
G01*
Y305300D02*
G75*
G02Y325770J10235D01*
G01*
G75*
G02Y305300J-10235*
G01*
X125735Y128300D02*
G75*
G02Y138770J5235D01*
G01*
G75*
G02Y128300J-5235*
G01*
X129735Y162300D02*
G75*
G02Y172770J5235D01*
G01*
G75*
G02Y162300J-5235*
G01*
X142735Y289300D02*
G75*
G02Y299770J5235D01*
G01*
G75*
G02Y289300J-5235*
G01*
X162735Y113300D02*
G75*
G02Y123770J5235D01*
G01*
G75*
G02Y113300J-5235*
G01*
X163735Y190300D02*
G75*
G02Y200770J5235D01*
G01*
G75*
G02Y190300J-5235*
G01*
Y202300D02*
G75*
G02Y212770J5235D01*
G01*
G75*
G02Y202300J-5235*
G01*
Y214300D02*
G75*
G02Y224770J5235D01*
G01*
G75*
G02Y214300J-5235*
G01*
X174735Y322300D02*
G75*
G02Y332770J5235D01*
G01*
G75*
G02Y322300J-5235*
G01*
X175735Y190300D02*
G75*
G02Y200770J5235D01*
G01*
G75*
G02Y190300J-5235*
G01*
Y202300D02*
G75*
G02Y212770J5235D01*
G01*
G75*
G02Y202300J-5235*
G01*
Y214300D02*
G75*
G02Y224770J5235D01*
G01*
G75*
G02Y214300J-5235*
G01*
X187735Y190300D02*
G75*
G02Y200770J5235D01*
G01*
G75*
G02Y190300J-5235*
G01*
Y202300D02*
G75*
G02Y212770J5235D01*
G01*
G75*
G02Y202300J-5235*
G01*
Y214300D02*
G75*
G02Y224770J5235D01*
G01*
G75*
G02Y214300J-5235*
G01*
X191845Y284300D02*
G75*
G02Y294770J5235D01*
G01*
G75*
G02Y284300J-5235*
G01*
X195735Y335300D02*
G75*
G02Y345770J5235D01*
G01*
G75*
G02Y335300J-5235*
G01*
X209735Y75100D02*
G75*
G02Y85570J5235D01*
G01*
G75*
G02Y75100J-5235*
G01*
Y87800D02*
G75*
G02Y98270J5235D01*
G01*
G75*
G02Y87800J-5235*
G01*
Y100500D02*
G75*
G02Y110970J5235D01*
G01*
G75*
G02Y100500J-5235*
G01*
Y113300D02*
G75*
G02Y123770J5235D01*
G01*
G75*
G02Y113300J-5235*
G01*
Y125900D02*
G75*
G02Y136370J5235D01*
G01*
G75*
G02Y125900J-5235*
G01*
Y138600D02*
G75*
G02Y149070J5235D01*
G01*
G75*
G02Y138600J-5235*
G01*
Y151300D02*
G75*
G02Y161770J5235D01*
G01*
G75*
G02Y151300J-5235*
G01*
Y164000D02*
G75*
G02Y174470J5235D01*
G01*
G75*
G02Y164000J-5235*
G01*
X223735Y295300D02*
G75*
G02Y305770J5235D01*
G01*
G75*
G02Y295300J-5235*
G01*
X229735Y314300D02*
G75*
G02Y324770J5235D01*
G01*
G75*
G02Y314300J-5235*
G01*
X237735Y87800D02*
G75*
G02Y98270J5235D01*
G01*
G75*
G02Y87800J-5235*
G01*
Y100500D02*
G75*
G02Y110970J5235D01*
G01*
G75*
G02Y100500J-5235*
G01*
X250514Y120912D02*
G75*
G02X246735Y119300I-3779J3624D01*
G01*
G75*
G02Y129770J5235*
G01*
G75*
G02X251956Y124158J-5235*
G01*
G75*
G02X260235Y123210I3779J-3623*
G01*
G75*
G02X266578Y125435I4500J-2675*
G01*
G75*
G02X272851Y129650I5157J-899*
G01*
G75*
G02X277735Y136770I4884J1885*
G01*
G75*
G02Y126300J-5235*
G01*
G75*
G02X276619Y126420I-2J5233*
G01*
G75*
G02X269892Y119635I-4884J-1885*
G01*
G75*
G02X260235Y117860I-5157J900*
G01*
G75*
G02X250514Y120912I-4500J2675*
G01*
X255735Y273158D02*
G75*
G02X251735Y271300I-4000J3377D01*
G01*
G75*
G02Y281770J5235*
G01*
G75*
G02X255735Y279912J-5235*
G01*
G75*
G02X259735Y281770I4000J-3377*
G01*
G75*
G02Y271300J-5235*
G01*
G75*
G02X255735Y273158J5235*
G01*
X258735Y177300D02*
G75*
G02Y187770J5235D01*
G01*
G75*
G02Y177300J-5235*
G01*
X262735Y88300D02*
G75*
G02Y98770J5235D01*
G01*
G75*
G02Y88300J-5235*
G01*
X263735Y76300D02*
G75*
G02Y86770J5235D01*
G01*
G75*
G02Y76300J-5235*
G01*
X270735Y177300D02*
G75*
G02Y187770J5235D01*
G01*
G75*
G02Y177300J-5235*
G01*
X276735Y277300D02*
G75*
G02Y287770J5235D01*
G01*
G75*
G02Y277300J-5235*
G01*
X280030Y157240D02*
G75*
G02X284735Y164770I4705J2295D01*
G01*
G75*
G02Y154300J-5235*
G01*
G75*
G02X282440Y154830J5236*
G01*
G75*
G02X277735Y147300I-4705J-2295*
G01*
G75*
G02Y157770J5235*
G01*
G75*
G02X280030Y157240J-5236*
G01*
X282735Y177300D02*
G75*
G02Y187770J5235D01*
G01*
G75*
G02Y177300J-5235*
G01*
Y303050D02*
G75*
G02Y313520J5235D01*
G01*
G75*
G02Y303050J-5235*
G01*
X283735Y340050D02*
G75*
G02Y350520J5235D01*
G01*
G75*
G02Y340050J-5235*
G01*
X285735Y315300D02*
G75*
G02Y325770J5235D01*
G01*
G75*
G02Y315300J-5235*
G01*
X288735Y97158D02*
G75*
G02X284735Y95300I-4000J3377D01*
G01*
G75*
G02Y105770J5235*
G01*
G75*
G02X288735Y103912J-5235*
G01*
G75*
G02X292735Y105770I4000J-3377*
G01*
G75*
G02X293566Y105704I3J-5232*
G01*
G75*
G02X296606Y111317I5168J831*
G01*
G75*
G02X300735Y119770I4129J3218*
G01*
G75*
G02X302864Y109753J-5235*
G01*
G75*
G02X298735Y101300I-4129J-3218*
G01*
G75*
G02X297904Y101366I-3J5232*
G01*
G75*
G02X288735Y97158I-5169J-831*
G01*
X301735Y258300D02*
G75*
G02Y268770J5235D01*
G01*
G75*
G02Y258300J-5235*
G01*
X311301Y238752D02*
G75*
G02X315735Y246770I4434J2783D01*
G01*
G75*
G02X316169Y236318J-5235*
G01*
G75*
G02X311735Y228300I-4434J-2783*
G01*
G75*
G02X311301Y238752J5235*
G01*
X316735Y256300D02*
G75*
G02Y266770J5235D01*
G01*
G75*
G02Y256300J-5235*
G01*
X319270Y314835D02*
G75*
G02X297800I-10735D01*
G01*
G75*
G02X319270I10735*
G01*
Y340235D02*
G75*
G02X297800I-10735D01*
G01*
G75*
G02X319270I10735*
G01*
X329620Y288651D02*
G75*
G02X327735Y288300I-1884J4883D01*
G01*
G75*
G02Y298770J5235*
G01*
G75*
G02X332850Y292419J-5235*
G01*
G75*
G02X334735Y292770I1884J-4883*
G01*
G75*
G02Y282300J-5235*
G01*
G75*
G02X329620Y288651J5235*
G01*
X341735Y130300D02*
G75*
G02Y140770J5235D01*
G01*
G75*
G02Y130300J-5235*
G01*
Y150300D02*
G75*
G02Y160770J5235D01*
G01*
G75*
G02Y150300J-5235*
G01*
Y170300D02*
G75*
G02Y180770J5235D01*
G01*
G75*
G02Y170300J-5235*
G01*
Y190300D02*
G75*
G02Y200770J5235D01*
G01*
G75*
G02Y190300J-5235*
G01*
X344670Y314835D02*
G75*
G02X323200I-10735D01*
G01*
G75*
G02X344670I10735*
G01*
Y340235D02*
G75*
G02X323200I-10735D01*
G01*
G75*
G02X344670I10735*
G01*
X351735Y120300D02*
G75*
G02Y130770J5235D01*
G01*
G75*
G02Y120300J-5235*
G01*
Y140300D02*
G75*
G02Y150770J5235D01*
G01*
G75*
G02Y140300J-5235*
G01*
Y160300D02*
G75*
G02Y170770J5235D01*
G01*
G75*
G02Y160300J-5235*
G01*
Y180300D02*
G75*
G02Y190770J5235D01*
G01*
G75*
G02Y180300J-5235*
G01*
X361735Y130300D02*
G75*
G02Y140770J5235D01*
G01*
G75*
G02Y130300J-5235*
G01*
Y150300D02*
G75*
G02Y160770J5235D01*
G01*
G75*
G02Y150300J-5235*
G01*
Y170300D02*
G75*
G02Y180770J5235D01*
G01*
G75*
G02Y170300J-5235*
G01*
Y190300D02*
G75*
G02Y200770J5235D01*
G01*
G75*
G02Y190300J-5235*
G01*
X362735Y281300D02*
G75*
G02Y291770J5235D01*
G01*
G75*
G02Y281300J-5235*
G01*
X370070Y314835D02*
G75*
G02X348600I-10735D01*
G01*
G75*
G02X370070I10735*
G01*
Y340235D02*
G75*
G02X348600I-10735D01*
G01*
G75*
G02X370070I10735*
G01*
X371735Y120300D02*
G75*
G02Y130770J5235D01*
G01*
G75*
G02Y120300J-5235*
G01*
Y140300D02*
G75*
G02Y150770J5235D01*
G01*
G75*
G02Y140300J-5235*
G01*
Y160300D02*
G75*
G02Y170770J5235D01*
G01*
G75*
G02Y160300J-5235*
G01*
Y180300D02*
G75*
G02Y190770J5235D01*
G01*
G75*
G02Y180300J-5235*
G01*
X381735Y130300D02*
G75*
G02Y140770J5235D01*
G01*
G75*
G02Y130300J-5235*
G01*
Y150300D02*
G75*
G02Y160770J5235D01*
G01*
G75*
G02Y150300J-5235*
G01*
Y170300D02*
G75*
G02Y180770J5235D01*
G01*
G75*
G02Y170300J-5235*
G01*
Y190300D02*
G75*
G02Y200770J5235D01*
G01*
G75*
G02Y190300J-5235*
G01*
X391735Y120300D02*
G75*
G02Y130770J5235D01*
G01*
G75*
G02Y120300J-5235*
G01*
Y140300D02*
G75*
G02Y150770J5235D01*
G01*
G75*
G02Y140300J-5235*
G01*
Y160300D02*
G75*
G02Y170770J5235D01*
G01*
G75*
G02Y160300J-5235*
G01*
Y180300D02*
G75*
G02Y190770J5235D01*
G01*
G75*
G02Y180300J-5235*
G01*
X395470Y314835D02*
G75*
G02X374000I-10735D01*
G01*
G75*
G02X395470I10735*
G01*
X396410Y340235D02*
G75*
G02X373060I-11675D01*
G01*
G75*
G02X396410I11675*
G01*
X397735Y293984D02*
G75*
G02X392735Y290300I-5000J1551D01*
G01*
G75*
G02Y300770J5235*
G01*
G75*
G02X397735Y297086J-5235*
G01*
G75*
G02X402735Y300770I5000J-1551*
G01*
G75*
G02Y290300J-5235*
G01*
G75*
G02X397735Y293984J5235*
G01*
X401735Y130300D02*
G75*
G02Y140770J5235D01*
G01*
G75*
G02Y130300J-5235*
G01*
Y150300D02*
G75*
G02Y160770J5235D01*
G01*
G75*
G02Y150300J-5235*
G01*
Y170300D02*
G75*
G02Y180770J5235D01*
G01*
G75*
G02Y170300J-5235*
G01*
Y190300D02*
G75*
G02Y200770J5235D01*
G01*
G75*
G02Y190300J-5235*
G01*
X406735Y75300D02*
G75*
G02Y85770J5235D01*
G01*
G75*
G02Y75300J-5235*
G01*
X411735Y120300D02*
G75*
G02Y130770J5235D01*
G01*
G75*
G02Y120300J-5235*
G01*
Y140300D02*
G75*
G02Y150770J5235D01*
G01*
G75*
G02Y140300J-5235*
G01*
Y160300D02*
G75*
G02Y170770J5235D01*
G01*
G75*
G02Y160300J-5235*
G01*
Y180300D02*
G75*
G02Y190770J5235D01*
G01*
G75*
G02Y180300J-5235*
G01*
X420235Y275860D02*
G75*
G02X415735Y273300I-4500J2675D01*
G01*
G75*
G02Y283770J5235*
G01*
G75*
G02X420235Y281210J-5235*
G01*
G75*
G02X429735Y280086I4500J-2675*
G01*
G75*
G02X439235Y281210I5000J-1551*
G01*
G75*
G02X443735Y283770I4500J-2675*
G01*
G75*
G02Y273300J-5235*
G01*
G75*
G02X439235Y275860J5235*
G01*
G75*
G02X429735Y276984I-4500J2675*
G01*
G75*
G02X420235Y275860I-5000J1551*
G01*
X420870Y314835D02*
G75*
G02X399400I-10735D01*
G01*
G75*
G02X420870I10735*
G01*
Y340235D02*
G75*
G02X399400I-10735D01*
G01*
G75*
G02X420870I10735*
G01*
X446270Y314835D02*
G75*
G02X424800I-10735D01*
G01*
G75*
G02X446270I10735*
G01*
Y340235D02*
G75*
G02X424800I-10735D01*
G01*
G75*
G02X446270I10735*
G01*
X471670Y314835D02*
G75*
G02X450200I-10735D01*
G01*
G75*
G02X471670I10735*
G01*
Y340235D02*
G75*
G02X450200I-10735D01*
G01*
G75*
G02X471670I10735*
G01*
X484735Y342300D02*
G75*
G02Y352770J5235D01*
G01*
G75*
G02Y342300J-5235*
G01*
X491735Y279300D02*
G75*
G02Y289770J5235D01*
G01*
G75*
G02Y279300J-5235*
G01*
X500235Y340300D02*
G75*
G02Y350770J5235D01*
G01*
G75*
G02Y340300J-5235*
G01*
X518735Y185300D02*
G75*
G02Y195770J5235D01*
G01*
G75*
G02Y185300J-5235*
G01*
Y238950D02*
G75*
G02Y249420J5235D01*
G01*
G75*
G02Y238950J-5235*
G01*
X527735Y210300D02*
G75*
G02Y220770J5235D01*
G01*
G75*
G02Y210300J-5235*
G01*
Y251650D02*
G75*
G02Y262120J5235D01*
G01*
G75*
G02Y251650J-5235*
G01*
X544735Y80300D02*
G75*
G02Y100770J10235D01*
G01*
G75*
G02Y80300J-10235*
G01*
Y105300D02*
G75*
G02Y125770J10235D01*
G01*
G75*
G02Y105300J-10235*
G01*
Y130300D02*
G75*
G02Y150770J10235D01*
G01*
G75*
G02Y130300J-10235*
G01*
Y155300D02*
G75*
G02Y175770J10235D01*
G01*
G75*
G02Y155300J-10235*
G01*
Y180300D02*
G75*
G02Y200770J10235D01*
G01*
G75*
G02Y180300J-10235*
G01*
Y205300D02*
G75*
G02Y225770J10235D01*
G01*
G75*
G02Y205300J-10235*
G01*
Y230300D02*
G75*
G02Y250770J10235D01*
G01*
G75*
G02Y230300J-10235*
G01*
Y255300D02*
G75*
G02Y275770J10235D01*
G01*
G75*
G02Y255300J-10235*
G01*
Y280300D02*
G75*
G02Y300770J10235D01*
G01*
G75*
G02Y280300J-10235*
G01*
Y305300D02*
G75*
G02Y325770J10235D01*
G01*
G75*
G02Y305300J-10235*
G01*
X78085Y90535D02*
G36*
Y80335D01*
X103889*
G75*
G02X94500Y90535I846J10200*
G01*
X78085*
G37*
X94500D02*
G36*
G75*
G02X104735Y100770I10235D01*
G01*
G75*
G02X114970Y90535J-10235*
G01*
X205136*
G75*
G02X209735Y98270I4599J2500*
G01*
G75*
G02X214334Y90535J-5235*
G01*
X233136*
G75*
G02X237735Y98270I4599J2500*
G01*
G75*
G02X242334Y90535J-5235*
G01*
X258445*
G75*
G02X262735Y98770I4290J3000*
G01*
G75*
G02X267025Y90535J-5235*
G01*
X425596*
G75*
G02X430735Y94770I5139J-1000*
G01*
G75*
G02X435874Y90535J-5235*
G01*
X534500*
G75*
G02X544735Y100770I10235*
G01*
G75*
G02X554970Y90535J-10235*
G01*
X565385*
Y105735*
X547687*
G75*
G02X544735Y105300I-2952J9800*
G01*
G75*
G02X541783Y105735J10235*
G01*
X303909*
G75*
G02X298735Y101300I-5174J800*
G01*
G75*
G02X297904Y101366I-3J5232*
G01*
G75*
G02X288735Y97158I-5169J-831*
G01*
G75*
G02X284735Y95300I-4000J3377*
G01*
G75*
G02X284131Y105735J5235*
G01*
X242970*
G75*
G02X237735Y100500I-5235*
G01*
G75*
G02X232500Y105735J5235*
G01*
X214970*
G75*
G02X209735Y100500I-5235*
G01*
G75*
G02X204500Y105735J5235*
G01*
X107687*
G75*
G02X104735Y105300I-2952J9800*
G01*
G75*
G02X101783Y105735J10235*
G01*
X78085*
Y90535*
X94500*
G37*
X114970D02*
G36*
G75*
G02X105581Y80335I-10235D01*
G01*
X204500*
G75*
G02X209735Y85570I5235*
G01*
G75*
G02X214970Y80335J-5235*
G01*
X258639*
G75*
G02X263735Y86770I5096J1200*
G01*
G75*
G02X268831Y80335J-5235*
G01*
X401504*
G75*
G02X406735Y85770I5231J200*
G01*
G75*
G02X411966Y80335J-5235*
G01*
X434592*
G75*
G02X433804Y85294I4143J3200*
G01*
G75*
G02X430735Y84300I-3069J4240*
G01*
G75*
G02X425596Y90535J5235*
G01*
X267025*
G75*
G02X262735Y88300I-4290J3000*
G01*
G75*
G02X258445Y90535J5235*
G01*
X242334*
G75*
G02X237735Y87800I-4599J2500*
G01*
G75*
G02X233136Y90535J5235*
G01*
X214334*
G75*
G02X209735Y87800I-4599J2500*
G01*
G75*
G02X205136Y90535J5235*
G01*
X114970*
G37*
X435874D02*
G36*
G75*
G02X435666Y87776I-5139J-1000D01*
G01*
G75*
G02X443666Y81776I3069J-4241*
G01*
G75*
G02X451158Y80335I3069J-4241*
G01*
X543889*
G75*
G02X534500Y90535I846J10200*
G01*
X435874*
G37*
X554970D02*
G36*
G75*
G02X545581Y80335I-10235D01*
G01*
X565385*
Y90535*
X554970*
G37*
X78085Y115535D02*
G36*
Y105735D01*
X101783*
G75*
G02X94500Y115535I2952J9800*
G01*
X78085*
G37*
X94500D02*
G36*
G75*
G02X102554Y125535I10235D01*
G01*
X78085*
Y115535*
X94500*
G37*
X114970D02*
G36*
G75*
G02X107687Y105735I-10235D01*
G01*
X204500*
G75*
G02X209735Y110970I5235*
G01*
G75*
G02X214970Y105735J-5235*
G01*
X232500*
G75*
G02X237735Y110970I5235*
G01*
G75*
G02X242970Y105735J-5235*
G01*
X284131*
G75*
G02X284735Y105770I604J-5200*
G01*
G75*
G02X288735Y103912J-5235*
G01*
G75*
G02X292735Y105770I4000J-3377*
G01*
G75*
G02X293566Y105704I3J-5232*
G01*
G75*
G02X296606Y111317I5168J831*
G01*
G75*
G02X295596Y115535I4129J3219*
G01*
X266286*
G75*
G02X260235Y117860I-1551J5000*
G01*
G75*
G02X254184Y115535I-4500J2675*
G01*
X214025*
G75*
G02X209735Y113300I-4290J3000*
G01*
G75*
G02X205445Y115535J5235*
G01*
X167025*
G75*
G02X162735Y113300I-4290J3000*
G01*
G75*
G02X158445Y115535J5235*
G01*
X114970*
G37*
X158445D02*
G36*
G75*
G02X162735Y123770I4290J3000D01*
G01*
G75*
G02X167025Y115535J-5235*
G01*
X205445*
G75*
G02X209735Y123770I4290J3000*
G01*
G75*
G02X214025Y115535J-5235*
G01*
X254184*
G75*
G02X250514Y120912I1551J5000*
G01*
G75*
G02X246735Y119300I-3779J3624*
G01*
G75*
G02X241596Y125535J5235*
G01*
X106916*
G75*
G02X114970Y115535I-2181J-10000*
G01*
X158445*
G37*
X295596D02*
G36*
G75*
G02X300735Y119770I5139J-1000D01*
G01*
G75*
G02X305873Y115535J-5235*
G01*
X534500*
G75*
G02X542554Y125535I10235*
G01*
X416970*
G75*
G02X411735Y120300I-5235*
G01*
G75*
G02X406500Y125535J5235*
G01*
X396970*
G75*
G02X391735Y120300I-5235*
G01*
G75*
G02X386500Y125535J5235*
G01*
X376970*
G75*
G02X371735Y120300I-5235*
G01*
G75*
G02X366500Y125535J5235*
G01*
X356970*
G75*
G02X351735Y120300I-5235*
G01*
G75*
G02X346500Y125535J5235*
G01*
X276874*
G75*
G02X269892Y119635I-5139J-1000*
G01*
G75*
G02X266286Y115535I-5157J900*
G01*
X295596*
G37*
X305873D02*
G36*
G75*
G02X302864Y109753I-5138J-1000D01*
G01*
G75*
G02X303909Y105735I-4129J-3219*
G01*
X541783*
G75*
G02X534500Y115535I2952J9800*
G01*
X305873*
G37*
X554970D02*
G36*
G75*
G02X547687Y105735I-10235D01*
G01*
X565385*
Y115535*
X554970*
G37*
X565385D02*
G36*
Y125535D01*
X546916*
G75*
G02X554970Y115535I-2181J-10000*
G01*
X565385*
G37*
X78085Y140535D02*
G36*
Y133535D01*
X97268*
G75*
G02X94500Y140535I7467J7000*
G01*
X78085*
G37*
X94500D02*
G36*
G75*
G02X104735Y150770I10235D01*
G01*
G75*
G02X114970Y140535J-10235*
G01*
X205671*
G75*
G02X209735Y149070I4064J3300*
G01*
G75*
G02X213799Y140535J-5235*
G01*
X340184*
G75*
G02X341735Y140770I1551J-5000*
G01*
G75*
G02X343286Y140535J-5235*
G01*
X350184*
G75*
G02X351735Y150770I1551J5000*
G01*
G75*
G02X353286Y140535J-5235*
G01*
X360184*
G75*
G02X361735Y140770I1551J-5000*
G01*
G75*
G02X363286Y140535J-5235*
G01*
X370184*
G75*
G02X371735Y150770I1551J5000*
G01*
G75*
G02X373286Y140535J-5235*
G01*
X380184*
G75*
G02X381735Y140770I1551J-5000*
G01*
G75*
G02X383286Y140535J-5235*
G01*
X390184*
G75*
G02X391735Y150770I1551J5000*
G01*
G75*
G02X393286Y140535J-5235*
G01*
X400184*
G75*
G02X401735Y140770I1551J-5000*
G01*
G75*
G02X403286Y140535J-5235*
G01*
X410184*
G75*
G02X411735Y150770I1551J5000*
G01*
G75*
G02X413286Y140535J-5235*
G01*
X534500*
G75*
G02X544735Y150770I10235*
G01*
G75*
G02X554970Y140535J-10235*
G01*
X565385*
Y156535*
X549609*
G75*
G02X544735Y155300I-4874J9000*
G01*
G75*
G02X539861Y156535J10235*
G01*
X406874*
G75*
G02X401735Y150300I-5139J-1000*
G01*
G75*
G02X396596Y156535J5235*
G01*
X386874*
G75*
G02X381735Y150300I-5139J-1000*
G01*
G75*
G02X376596Y156535J5235*
G01*
X366874*
G75*
G02X361735Y150300I-5139J-1000*
G01*
G75*
G02X356596Y156535J5235*
G01*
X346874*
G75*
G02X341735Y150300I-5139J-1000*
G01*
G75*
G02X336596Y156535J5235*
G01*
X289025*
G75*
G02X284735Y154300I-4290J3000*
G01*
G75*
G02X282440Y154830J5236*
G01*
G75*
G02X277735Y147300I-4705J-2295*
G01*
G75*
G02X274358Y156535J5235*
G01*
X214970*
G75*
G02X209735Y151300I-5235*
G01*
G75*
G02X204500Y156535J5235*
G01*
X109609*
G75*
G02X104735Y155300I-4874J9000*
G01*
G75*
G02X99861Y156535J10235*
G01*
X78085*
Y140535*
X94500*
G37*
X114970D02*
G36*
G75*
G02X112202Y133535I-10235D01*
G01*
X120500*
G75*
G02X125735Y138770I5235*
G01*
G75*
G02X130970Y133535J-5235*
G01*
X205083*
G75*
G02X209735Y136370I4652J-2400*
G01*
G75*
G02X214387Y133535J-5235*
G01*
X272897*
G75*
G02X277735Y136770I4838J-2000*
G01*
G75*
G02X282573Y133535J-5235*
G01*
X336897*
G75*
G02X340184Y140535I4838J2000*
G01*
X213799*
G75*
G02X209735Y138600I-4064J3300*
G01*
G75*
G02X205671Y140535J5235*
G01*
X114970*
G37*
X343286D02*
G36*
G75*
G02X346573Y133535I-1551J-5000D01*
G01*
X356897*
G75*
G02X360184Y140535I4838J2000*
G01*
X353286*
G75*
G02X351735Y140300I-1551J5000*
G01*
G75*
G02X350184Y140535J5235*
G01*
X343286*
G37*
X363286D02*
G36*
G75*
G02X366573Y133535I-1551J-5000D01*
G01*
X376897*
G75*
G02X380184Y140535I4838J2000*
G01*
X373286*
G75*
G02X371735Y140300I-1551J5000*
G01*
G75*
G02X370184Y140535J5235*
G01*
X363286*
G37*
X383286D02*
G36*
G75*
G02X386573Y133535I-1551J-5000D01*
G01*
X396897*
G75*
G02X400184Y140535I4838J2000*
G01*
X393286*
G75*
G02X391735Y140300I-1551J5000*
G01*
G75*
G02X390184Y140535J5235*
G01*
X383286*
G37*
X403286D02*
G36*
G75*
G02X406573Y133535I-1551J-5000D01*
G01*
X537268*
G75*
G02X534500Y140535I7467J7000*
G01*
X413286*
G75*
G02X411735Y140300I-1551J5000*
G01*
G75*
G02X410184Y140535J5235*
G01*
X403286*
G37*
X554970D02*
G36*
G75*
G02X552202Y133535I-10235D01*
G01*
X565385*
Y140535*
X554970*
G37*
X78085Y165535D02*
G36*
Y156535D01*
X99861*
G75*
G02X94500Y165535I4874J9000*
G01*
X78085*
G37*
X94500D02*
G36*
G75*
G02X102554Y175535I10235D01*
G01*
X78085*
Y165535*
X94500*
G37*
X114970D02*
G36*
G75*
G02X109609Y156535I-10235D01*
G01*
X204500*
G75*
G02X209735Y161770I5235*
G01*
G75*
G02X214970Y156535J-5235*
G01*
X274358*
G75*
G02X277735Y157770I3377J-4000*
G01*
G75*
G02X280030Y157240J-5236*
G01*
G75*
G02X284735Y164770I4705J2295*
G01*
G75*
G02X289025Y156535J-5235*
G01*
X336596*
G75*
G02X341735Y160770I5139J-1000*
G01*
G75*
G02X346874Y156535J-5235*
G01*
X356596*
G75*
G02X361735Y160770I5139J-1000*
G01*
G75*
G02X366874Y156535J-5235*
G01*
X376596*
G75*
G02X381735Y160770I5139J-1000*
G01*
G75*
G02X386874Y156535J-5235*
G01*
X396596*
G75*
G02X401735Y160770I5139J-1000*
G01*
G75*
G02X406874Y156535J-5235*
G01*
X539861*
G75*
G02X534500Y165535I4874J9000*
G01*
X416970*
G75*
G02X411735Y160300I-5235*
G01*
G75*
G02X406500Y165535J5235*
G01*
X396970*
G75*
G02X391735Y160300I-5235*
G01*
G75*
G02X386500Y165535J5235*
G01*
X376970*
G75*
G02X371735Y160300I-5235*
G01*
G75*
G02X366500Y165535J5235*
G01*
X356970*
G75*
G02X351735Y160300I-5235*
G01*
G75*
G02X346500Y165535J5235*
G01*
X213438*
G75*
G02X209735Y164000I-3703J3700*
G01*
G75*
G02X206032Y165535J5235*
G01*
X134573*
G75*
G02X129735Y162300I-4838J2000*
G01*
G75*
G02X124897Y165535J5235*
G01*
X114970*
G37*
X124897D02*
G36*
G75*
G02X129735Y172770I4838J2000D01*
G01*
G75*
G02X134573Y165535J-5235*
G01*
X206032*
G75*
G02X209735Y174470I3703J3700*
G01*
G75*
G02X213438Y165535J-5235*
G01*
X346500*
G75*
G02X351735Y170770I5235*
G01*
G75*
G02X356970Y165535J-5235*
G01*
X366500*
G75*
G02X371735Y170770I5235*
G01*
G75*
G02X376970Y165535J-5235*
G01*
X386500*
G75*
G02X391735Y170770I5235*
G01*
G75*
G02X396970Y165535J-5235*
G01*
X406500*
G75*
G02X411735Y170770I5235*
G01*
G75*
G02X416970Y165535J-5235*
G01*
X534500*
G75*
G02X542554Y175535I10235*
G01*
X406970*
G75*
G02X401735Y170300I-5235*
G01*
G75*
G02X396500Y175535J5235*
G01*
X386970*
G75*
G02X381735Y170300I-5235*
G01*
G75*
G02X376500Y175535J5235*
G01*
X366970*
G75*
G02X361735Y170300I-5235*
G01*
G75*
G02X356500Y175535J5235*
G01*
X346970*
G75*
G02X341735Y170300I-5235*
G01*
G75*
G02X336500Y175535J5235*
G01*
X106916*
G75*
G02X114970Y165535I-2181J-10000*
G01*
X124897*
G37*
X554970D02*
G36*
G75*
G02X549609Y156535I-10235D01*
G01*
X565385*
Y165535*
X554970*
G37*
X565385D02*
G36*
Y175535D01*
X546916*
G75*
G02X554970Y165535I-2181J-10000*
G01*
X565385*
G37*
X78085Y190535D02*
G36*
Y182535D01*
X96932*
G75*
G02X93560Y190535I7803J8000*
G01*
X78085*
G37*
X93560D02*
G36*
G75*
G02X104735Y201710I11175D01*
G01*
G75*
G02X115910Y190535J-11175*
G01*
X162184*
G75*
G02X163735Y200770I1551J5000*
G01*
G75*
G02X165286Y190535J-5235*
G01*
X174184*
G75*
G02X175735Y200770I1551J5000*
G01*
G75*
G02X177286Y190535J-5235*
G01*
X186184*
G75*
G02X187735Y200770I1551J5000*
G01*
G75*
G02X189286Y190535J-5235*
G01*
X340184*
G75*
G02X341735Y200770I1551J5000*
G01*
G75*
G02X343286Y190535J-5235*
G01*
X350184*
G75*
G02X351735Y190770I1551J-5000*
G01*
G75*
G02X353286Y190535J-5235*
G01*
X360184*
G75*
G02X361735Y200770I1551J5000*
G01*
G75*
G02X363286Y190535J-5235*
G01*
X370184*
G75*
G02X371735Y190770I1551J-5000*
G01*
G75*
G02X373286Y190535J-5235*
G01*
X380184*
G75*
G02X381735Y200770I1551J5000*
G01*
G75*
G02X383286Y190535J-5235*
G01*
X390184*
G75*
G02X391735Y190770I1551J-5000*
G01*
G75*
G02X393286Y190535J-5235*
G01*
X400184*
G75*
G02X401735Y200770I1551J5000*
G01*
G75*
G02X403286Y190535J-5235*
G01*
X410184*
G75*
G02X411735Y190770I1551J-5000*
G01*
G75*
G02X413286Y190535J-5235*
G01*
X513500*
G75*
G02X518735Y195770I5235*
G01*
G75*
G02X523970Y190535J-5235*
G01*
X534500*
G75*
G02X544735Y200770I10235*
G01*
G75*
G02X554970Y190535J-10235*
G01*
X565385*
Y207535*
X551119*
G75*
G02X544735Y205300I-6384J8000*
G01*
G75*
G02X538351Y207535J10235*
G01*
X192970*
G75*
G02X187735Y202300I-5235*
G01*
G75*
G02X182500Y207535J5235*
G01*
X180970*
G75*
G02X175735Y202300I-5235*
G01*
G75*
G02X170500Y207535J5235*
G01*
X168970*
G75*
G02X163735Y202300I-5235*
G01*
G75*
G02X158500Y207535J5235*
G01*
X111119*
G75*
G02X104735Y205300I-6384J8000*
G01*
G75*
G02X98351Y207535J10235*
G01*
X78085*
Y190535*
X93560*
G37*
X115910D02*
G36*
G75*
G02X112538Y182535I-11175D01*
G01*
X253500*
G75*
G02X258735Y187770I5235*
G01*
G75*
G02X263970Y182535J-5235*
G01*
X265500*
G75*
G02X270735Y187770I5235*
G01*
G75*
G02X275970Y182535J-5235*
G01*
X277500*
G75*
G02X282735Y187770I5235*
G01*
G75*
G02X287970Y182535J-5235*
G01*
X347445*
G75*
G02X350184Y190535I4290J3000*
G01*
X343286*
G75*
G02X341735Y190300I-1551J5000*
G01*
G75*
G02X340184Y190535J5235*
G01*
X189286*
G75*
G02X187735Y190300I-1551J5000*
G01*
G75*
G02X186184Y190535J5235*
G01*
X177286*
G75*
G02X175735Y190300I-1551J5000*
G01*
G75*
G02X174184Y190535J5235*
G01*
X165286*
G75*
G02X163735Y190300I-1551J5000*
G01*
G75*
G02X162184Y190535J5235*
G01*
X115910*
G37*
X353286D02*
G36*
G75*
G02X356025Y182535I-1551J-5000D01*
G01*
X367445*
G75*
G02X370184Y190535I4290J3000*
G01*
X363286*
G75*
G02X361735Y190300I-1551J5000*
G01*
G75*
G02X360184Y190535J5235*
G01*
X353286*
G37*
X373286D02*
G36*
G75*
G02X376025Y182535I-1551J-5000D01*
G01*
X387445*
G75*
G02X390184Y190535I4290J3000*
G01*
X383286*
G75*
G02X381735Y190300I-1551J5000*
G01*
G75*
G02X380184Y190535J5235*
G01*
X373286*
G37*
X393286D02*
G36*
G75*
G02X396025Y182535I-1551J-5000D01*
G01*
X407445*
G75*
G02X410184Y190535I4290J3000*
G01*
X403286*
G75*
G02X401735Y190300I-1551J5000*
G01*
G75*
G02X400184Y190535J5235*
G01*
X393286*
G37*
X413286D02*
G36*
G75*
G02X416025Y182535I-1551J-5000D01*
G01*
X538351*
G75*
G02X534500Y190535I6384J8000*
G01*
X523970*
G75*
G02X518735Y185300I-5235*
G01*
G75*
G02X513500Y190535J5235*
G01*
X413286*
G37*
X554970D02*
G36*
G75*
G02X551119Y182535I-10235D01*
G01*
X565385*
Y190535*
X554970*
G37*
X78085Y215535D02*
G36*
Y207535D01*
X98351*
G75*
G02X94500Y215535I6384J8000*
G01*
X78085*
G37*
X94500D02*
G36*
G75*
G02X104735Y225770I10235D01*
G01*
G75*
G02X114970Y215535J-10235*
G01*
X160358*
G75*
G02X163735Y224770I3377J4000*
G01*
G75*
G02X167112Y215535J-5235*
G01*
X172358*
G75*
G02X175735Y224770I3377J4000*
G01*
G75*
G02X179112Y215535J-5235*
G01*
X184358*
G75*
G02X187735Y224770I3377J4000*
G01*
G75*
G02X191112Y215535J-5235*
G01*
X522500*
G75*
G02X527735Y220770I5235*
G01*
G75*
G02X532970Y215535J-5235*
G01*
X534500*
G75*
G02X544735Y225770I10235*
G01*
G75*
G02X554970Y215535J-10235*
G01*
X565385*
Y240535*
X554970*
G75*
G02X544735Y230300I-10235*
G01*
G75*
G02X534500Y240535J10235*
G01*
X522488*
G75*
G02X518735Y238950I-3753J3650*
G01*
G75*
G02X514982Y240535J5235*
G01*
X320874*
G75*
G02X316169Y236318I-5139J1000*
G01*
G75*
G02X311735Y228300I-4434J-2783*
G01*
G75*
G02X311301Y238752J5235*
G01*
G75*
G02X310596Y240535I4434J2784*
G01*
X114970*
G75*
G02X104735Y230300I-10235*
G01*
G75*
G02X94500Y240535J10235*
G01*
X78085*
Y215535*
X94500*
G37*
X114970D02*
G36*
G75*
G02X111119Y207535I-10235D01*
G01*
X158500*
G75*
G02X163735Y212770I5235*
G01*
G75*
G02X168970Y207535J-5235*
G01*
X170500*
G75*
G02X175735Y212770I5235*
G01*
G75*
G02X180970Y207535J-5235*
G01*
X182500*
G75*
G02X187735Y212770I5235*
G01*
G75*
G02X192970Y207535J-5235*
G01*
X538351*
G75*
G02X534500Y215535I6384J8000*
G01*
X532970*
G75*
G02X527735Y210300I-5235*
G01*
G75*
G02X522500Y215535J5235*
G01*
X191112*
G75*
G02X187735Y214300I-3377J4000*
G01*
G75*
G02X184358Y215535J5235*
G01*
X179112*
G75*
G02X175735Y214300I-3377J4000*
G01*
G75*
G02X172358Y215535J5235*
G01*
X167112*
G75*
G02X163735Y214300I-3377J4000*
G01*
G75*
G02X160358Y215535J5235*
G01*
X114970*
G37*
X554970D02*
G36*
G75*
G02X551119Y207535I-10235D01*
G01*
X565385*
Y215535*
X554970*
G37*
X94500Y240535D02*
G36*
G75*
G02X104735Y250770I10235D01*
G01*
G75*
G02X114970Y240535J-10235*
G01*
X310596*
G75*
G02X315735Y246770I5139J1000*
G01*
G75*
G02X320874Y240535J-5235*
G01*
X514982*
G75*
G02X518735Y249420I3753J3650*
G01*
G75*
G02X522488Y240535J-5235*
G01*
X534500*
G75*
G02X544735Y250770I10235*
G01*
G75*
G02X554970Y240535J-10235*
G01*
X565385*
Y256885*
X550206*
G75*
G02X544735Y255300I-5471J8650*
G01*
G75*
G02X539264Y256885J10235*
G01*
X532970*
G75*
G02X527735Y251650I-5235*
G01*
G75*
G02X522500Y256885J5235*
G01*
X319140*
G75*
G02X316735Y256300I-2405J4650*
G01*
G75*
G02X314330Y256885J5235*
G01*
X110206*
G75*
G02X104735Y255300I-5471J8650*
G01*
G75*
G02X99264Y256885J10235*
G01*
X78085*
Y240535*
X94500*
G37*
X78085Y265535D02*
G36*
Y256885D01*
X99264*
G75*
G02X94500Y265535I5471J8650*
G01*
X78085*
G37*
X94500D02*
G36*
G75*
G02X104735Y275770I10235D01*
G01*
G75*
G02X114970Y265535J-10235*
G01*
X296897*
G75*
G02X301735Y268770I4838J-2000*
G01*
G75*
G02X306573Y265535J-5235*
G01*
X313358*
G75*
G02X316735Y266770I3377J-4000*
G01*
G75*
G02X320112Y265535J-5235*
G01*
X534500*
G75*
G02X544735Y275770I10235*
G01*
G75*
G02X554970Y265535J-10235*
G01*
X565385*
Y276535*
X448573*
G75*
G02X443735Y273300I-4838J2000*
G01*
G75*
G02X439235Y275860J5235*
G01*
G75*
G02X429735Y276984I-4500J2675*
G01*
G75*
G02X420235Y275860I-5000J1551*
G01*
G75*
G02X415735Y273300I-4500J2675*
G01*
G75*
G02X410897Y276535J5235*
G01*
X264970*
G75*
G02X259735Y271300I-5235*
G01*
G75*
G02X255735Y273158J5235*
G01*
G75*
G02X251735Y271300I-4000J3377*
G01*
G75*
G02X246500Y276535J5235*
G01*
X78085*
Y265535*
X94500*
G37*
X114970D02*
G36*
G75*
G02X110206Y256885I-10235D01*
G01*
X314330*
G75*
G02X313358Y265535I2405J4650*
G01*
X306573*
G75*
G02X301735Y258300I-4838J-2000*
G01*
G75*
G02X296897Y265535J5235*
G01*
X114970*
G37*
X320112D02*
G36*
G75*
G02X319140Y256885I-3377J-4000D01*
G01*
X522500*
G75*
G02X527735Y262120I5235*
G01*
G75*
G02X532970Y256885J-5235*
G01*
X539264*
G75*
G02X534500Y265535I5471J8650*
G01*
X320112*
G37*
X554970D02*
G36*
G75*
G02X550206Y256885I-10235D01*
G01*
X565385*
Y265535*
X554970*
G37*
X78085Y290535D02*
G36*
Y282535D01*
X98351*
G75*
G02X94500Y290535I6384J8000*
G01*
X78085*
G37*
X94500D02*
G36*
G75*
G02X102554Y300535I10235D01*
G01*
X78085*
Y290535*
X94500*
G37*
X114970D02*
G36*
G75*
G02X111119Y282535I-10235D01*
G01*
X271500*
G75*
G02X276735Y287770I5235*
G01*
G75*
G02X281970Y282535J-5235*
G01*
X333184*
G75*
G02X329620Y288651I1551J5000*
G01*
G75*
G02X327735Y288300I-1884J4883*
G01*
G75*
G02X323445Y290535J5235*
G01*
X196984*
G75*
G02X191845Y284300I-5139J-1000*
G01*
G75*
G02X186706Y290535J5235*
G01*
X146112*
G75*
G02X142735Y289300I-3377J4000*
G01*
G75*
G02X139358Y290535J5235*
G01*
X114970*
G37*
X139358D02*
G36*
G75*
G02X142735Y299770I3377J4000D01*
G01*
G75*
G02X146112Y290535J-5235*
G01*
X186706*
G75*
G02X191845Y294770I5139J-1000*
G01*
G75*
G02X196984Y290535J-5235*
G01*
X323445*
G75*
G02X327735Y298770I4290J3000*
G01*
G75*
G02X332850Y292419J-5235*
G01*
G75*
G02X334735Y292770I1884J-4883*
G01*
G75*
G02X339025Y290535J-5235*
G01*
X359358*
G75*
G02X362735Y291770I3377J-4000*
G01*
G75*
G02X366112Y290535J-5235*
G01*
X391184*
G75*
G02Y300535I1551J5000*
G01*
X228970*
G75*
G02X223735Y295300I-5235*
G01*
G75*
G02X218500Y300535J5235*
G01*
X106916*
G75*
G02X114970Y290535I-2181J-10000*
G01*
X139358*
G37*
X339025D02*
G36*
G75*
G02X336286Y282535I-4290J-3000D01*
G01*
X359358*
G75*
G02Y290535I3377J4000*
G01*
X339025*
G37*
X366112D02*
G36*
G75*
G02Y282535I-3377J-4000D01*
G01*
X412358*
G75*
G02X415735Y283770I3377J-4000*
G01*
G75*
G02X420235Y281210J-5235*
G01*
G75*
G02X429735Y280086I4500J-2675*
G01*
G75*
G02X439235Y281210I5000J-1551*
G01*
G75*
G02X443735Y283770I4500J-2675*
G01*
G75*
G02X447112Y282535J-5235*
G01*
X486897*
G75*
G02X491735Y289770I4838J2000*
G01*
G75*
G02X496573Y282535J-5235*
G01*
X538351*
G75*
G02X534500Y290535I6384J8000*
G01*
X404286*
G75*
G02X402735Y290300I-1551J5000*
G01*
G75*
G02X397735Y293984J5235*
G01*
G75*
G02X392735Y290300I-5000J1551*
G01*
G75*
G02X391184Y290535J5235*
G01*
X366112*
G37*
X534500D02*
G36*
G75*
G02X542554Y300535I10235D01*
G01*
X404286*
G75*
G02Y290535I-1551J-5000*
G01*
X534500*
G37*
X554970D02*
G36*
G75*
G02X551119Y282535I-10235D01*
G01*
X565385*
Y290535*
X554970*
G37*
X565385D02*
G36*
Y300535D01*
X546916*
G75*
G02X554970Y290535I-2181J-10000*
G01*
X565385*
G37*
X78085Y315535D02*
G36*
Y308285D01*
X97511*
G75*
G02X94500Y315535I7224J7250*
G01*
X78085*
G37*
X94500D02*
G36*
G75*
G02X104735Y325770I10235D01*
G01*
G75*
G02X114970Y315535J-10235*
G01*
X226358*
G75*
G02X229735Y324770I3377J4000*
G01*
G75*
G02X233112Y315535J-5235*
G01*
X284184*
G75*
G02X285735Y325770I1551J5000*
G01*
G75*
G02X287286Y315535J-5235*
G01*
X297823*
G75*
G02X319247I10712J-700*
G01*
X323223*
G75*
G02X344647I10712J-700*
G01*
X348623*
G75*
G02X370047I10712J-700*
G01*
X374023*
G75*
G02X395447I10712J-700*
G01*
X399423*
G75*
G02X420847I10712J-700*
G01*
X424823*
G75*
G02X446247I10712J-700*
G01*
X450223*
G75*
G02X471647I10712J-700*
G01*
X534500*
G75*
G02X544735Y325770I10235*
G01*
G75*
G02X554970Y315535J-10235*
G01*
X565385*
Y327535*
X179970*
G75*
G02X174735Y322300I-5235*
G01*
G75*
G02X169500Y327535J5235*
G01*
X78085*
Y315535*
X94500*
G37*
X114970D02*
G36*
G75*
G02X111959Y308285I-10235D01*
G01*
X277500*
G75*
G02X282735Y313520I5235*
G01*
G75*
G02X287970Y308285J-5235*
G01*
X300030*
G75*
G02X297800Y314835I8505J6550*
G01*
G75*
G02X297823Y315535I10734J-2*
G01*
X287286*
G75*
G02X285735Y315300I-1551J5000*
G01*
G75*
G02X284184Y315535J5235*
G01*
X233112*
G75*
G02X229735Y314300I-3377J4000*
G01*
G75*
G02X226358Y315535J5235*
G01*
X114970*
G37*
X319247D02*
G36*
G75*
G02X319270Y314835I-10714J-702D01*
G01*
G75*
G02X317040Y308285I-10735*
G01*
X325430*
G75*
G02X323200Y314835I8505J6550*
G01*
G75*
G02X323223Y315535I10734J-2*
G01*
X319247*
G37*
X344647D02*
G36*
G75*
G02X344670Y314835I-10714J-702D01*
G01*
G75*
G02X342440Y308285I-10735*
G01*
X350830*
G75*
G02X348600Y314835I8505J6550*
G01*
G75*
G02X348623Y315535I10734J-2*
G01*
X344647*
G37*
X370047D02*
G36*
G75*
G02X370070Y314835I-10714J-702D01*
G01*
G75*
G02X367840Y308285I-10735*
G01*
X376230*
G75*
G02X374000Y314835I8505J6550*
G01*
G75*
G02X374023Y315535I10734J-2*
G01*
X370047*
G37*
X395447D02*
G36*
G75*
G02X395470Y314835I-10714J-702D01*
G01*
G75*
G02X393240Y308285I-10735*
G01*
X401630*
G75*
G02X399400Y314835I8505J6550*
G01*
G75*
G02X399423Y315535I10734J-2*
G01*
X395447*
G37*
X420847D02*
G36*
G75*
G02X420870Y314835I-10714J-702D01*
G01*
G75*
G02X418640Y308285I-10735*
G01*
X427030*
G75*
G02X424800Y314835I8505J6550*
G01*
G75*
G02X424823Y315535I10734J-2*
G01*
X420847*
G37*
X446247D02*
G36*
G75*
G02X446270Y314835I-10714J-702D01*
G01*
G75*
G02X444040Y308285I-10735*
G01*
X452430*
G75*
G02X450200Y314835I8505J6550*
G01*
G75*
G02X450223Y315535I10734J-2*
G01*
X446247*
G37*
X471647D02*
G36*
G75*
G02X471670Y314835I-10714J-702D01*
G01*
G75*
G02X469440Y308285I-10735*
G01*
X537511*
G75*
G02X534500Y315535I7224J7250*
G01*
X471647*
G37*
X554970D02*
G36*
G75*
G02X551959Y308285I-10235D01*
G01*
X565385*
Y315535*
X554970*
G37*
X78085Y133535D02*
G36*
Y125535D01*
X102554*
G75*
G02X104735Y125770I2181J-10000*
G01*
G75*
G02X106916Y125535J-10235*
G01*
X241596*
G75*
G02X246735Y129770I5139J-1000*
G01*
G75*
G02X251956Y124158J-5235*
G01*
G75*
G02X260235Y123210I3779J-3623*
G01*
G75*
G02X266578Y125435I4500J-2675*
G01*
G75*
G02X272851Y129650I5157J-899*
G01*
G75*
G02X272897Y133535I4884J1885*
G01*
X214387*
G75*
G02X209735Y125900I-4652J-2400*
G01*
G75*
G02X205083Y133535J5235*
G01*
X130970*
G75*
G02X125735Y128300I-5235*
G01*
G75*
G02X120500Y133535J5235*
G01*
X112202*
G75*
G02X104735Y130300I-7467J7000*
G01*
G75*
G02X97268Y133535J10235*
G01*
X78085*
G37*
X282573D02*
G36*
G75*
G02X277735Y126300I-4838J-2000D01*
G01*
G75*
G02X276619Y126420I-2J5233*
G01*
G75*
G02X276874Y125535I-4883J-1886*
G01*
X346500*
G75*
G02X351735Y130770I5235*
G01*
G75*
G02X356970Y125535J-5235*
G01*
X366500*
G75*
G02X371735Y130770I5235*
G01*
G75*
G02X376970Y125535J-5235*
G01*
X386500*
G75*
G02X391735Y130770I5235*
G01*
G75*
G02X396970Y125535J-5235*
G01*
X406500*
G75*
G02X411735Y130770I5235*
G01*
G75*
G02X416970Y125535J-5235*
G01*
X542554*
G75*
G02X544735Y125770I2181J-10000*
G01*
G75*
G02X546916Y125535J-10235*
G01*
X565385*
Y133535*
X552202*
G75*
G02X544735Y130300I-7467J7000*
G01*
G75*
G02X537268Y133535J10235*
G01*
X406573*
G75*
G02X401735Y130300I-4838J2000*
G01*
G75*
G02X396897Y133535J5235*
G01*
X386573*
G75*
G02X381735Y130300I-4838J2000*
G01*
G75*
G02X376897Y133535J5235*
G01*
X366573*
G75*
G02X361735Y130300I-4838J2000*
G01*
G75*
G02X356897Y133535J5235*
G01*
X346573*
G75*
G02X341735Y130300I-4838J2000*
G01*
G75*
G02X336897Y133535J5235*
G01*
X282573*
G37*
X169500Y327535D02*
G36*
G75*
G02X174735Y332770I5235D01*
G01*
G75*
G02X179970Y327535J-5235*
G01*
X565385*
Y340535*
X501786*
G75*
G02X500235Y340300I-1551J5000*
G01*
G75*
G02X498684Y340535J5235*
G01*
X471666*
G75*
G02X471670Y340235I-10734J-293*
G01*
G75*
G02X450200I-10735*
G01*
G75*
G02X450204Y340535I10731J7*
G01*
X446266*
G75*
G02X446270Y340235I-10734J-293*
G01*
G75*
G02X424800I-10735*
G01*
G75*
G02X424804Y340535I10731J7*
G01*
X420866*
G75*
G02X420870Y340235I-10734J-293*
G01*
G75*
G02X399400I-10735*
G01*
G75*
G02X399404Y340535I10731J7*
G01*
X396406*
G75*
G02X396410Y340235I-11674J-306*
G01*
G75*
G02X373060I-11675*
G01*
G75*
G02X373064Y340535I11671J-6*
G01*
X370066*
G75*
G02X370070Y340235I-10734J-293*
G01*
G75*
G02X348600I-10735*
G01*
G75*
G02X348604Y340535I10731J7*
G01*
X344666*
G75*
G02X344670Y340235I-10734J-293*
G01*
G75*
G02X323200I-10735*
G01*
G75*
G02X323204Y340535I10731J7*
G01*
X319266*
G75*
G02X319270Y340235I-10734J-293*
G01*
G75*
G02X297800I-10735*
G01*
G75*
G02X297804Y340535I10731J7*
G01*
X285936*
G75*
G02X283735Y340050I-2201J4750*
G01*
G75*
G02X281534Y340535J5235*
G01*
X200970*
G75*
G02X195735Y335300I-5235*
G01*
G75*
G02X190500Y340535J5235*
G01*
X78085*
Y327535*
X169500*
G37*
X190500Y340535D02*
G36*
G75*
G02X195735Y345770I5235D01*
G01*
G75*
G02X200970Y340535J-5235*
G01*
X281534*
G75*
G02X279008Y347535I2201J4750*
G01*
X78085*
Y340535*
X190500*
G37*
X297804D02*
G36*
G75*
G02X300664Y347535I10731J-300D01*
G01*
X288462*
G75*
G02X285936Y340535I-4727J-2250*
G01*
X297804*
G37*
X323204D02*
G36*
G75*
G02X326064Y347535I10731J-300D01*
G01*
X316406*
G75*
G02X319266Y340535I-7871J-7300*
G01*
X323204*
G37*
X348604D02*
G36*
G75*
G02X351464Y347535I10731J-300D01*
G01*
X341806*
G75*
G02X344666Y340535I-7871J-7300*
G01*
X348604*
G37*
X373064D02*
G36*
G75*
G02X375624Y347535I11671J-300D01*
G01*
X367206*
G75*
G02X370066Y340535I-7871J-7300*
G01*
X373064*
G37*
X399404D02*
G36*
G75*
G02X402264Y347535I10731J-300D01*
G01*
X393846*
G75*
G02X396406Y340535I-9111J-7300*
G01*
X399404*
G37*
X424804D02*
G36*
G75*
G02X427664Y347535I10731J-300D01*
G01*
X418006*
G75*
G02X420866Y340535I-7871J-7300*
G01*
X424804*
G37*
X450204D02*
G36*
G75*
G02X453064Y347535I10731J-300D01*
G01*
X443406*
G75*
G02X446266Y340535I-7871J-7300*
G01*
X450204*
G37*
X498684D02*
G36*
G75*
G02X495397Y347535I1551J5000D01*
G01*
X489970*
G75*
G02X484735Y342300I-5235*
G01*
G75*
G02X479500Y347535J5235*
G01*
X468806*
G75*
G02X471666Y340535I-7871J-7300*
G01*
X498684*
G37*
X565385D02*
G36*
Y347535D01*
X505073*
G75*
G02X501786Y340535I-4838J-2000*
G01*
X565385*
G37*
X78085Y80335D02*
G36*
Y71885D01*
X448512*
G75*
G02X448620Y72651I5221J-345*
G01*
G75*
G02X441804Y79294I-1885J4884*
G01*
G75*
G02X434592Y80335I-3069J4241*
G01*
X411966*
G75*
G02X406735Y75300I-5231J200*
G01*
G75*
G02X401504Y80335J5235*
G01*
X268831*
G75*
G02X263735Y76300I-5096J1200*
G01*
G75*
G02X258639Y80335J5235*
G01*
X214970*
G75*
G02X209735Y75100I-5235*
G01*
G75*
G02X204500Y80335J5235*
G01*
X105581*
G75*
G02X104735Y80300I-846J10199*
G01*
G75*
G02X103889Y80335J10236*
G01*
X78085*
G37*
X451158D02*
G36*
G75*
G02X451850Y76419I-4423J-2801D01*
G01*
G75*
G02X458958Y71885I1885J-4884*
G01*
X565385*
Y80335*
X545581*
G75*
G02X544735Y80300I-846J10199*
G01*
G75*
G02X543889Y80335J10236*
G01*
X451158*
G37*
X102554Y300535D02*
G36*
G75*
G02X104735Y300770I2181J-10000D01*
G01*
G75*
G02X106916Y300535J-10235*
G01*
X218500*
G75*
G02X223735Y305770I5235*
G01*
G75*
G02X228970Y300535J-5235*
G01*
X391184*
G75*
G02X392735Y300770I1551J-5000*
G01*
G75*
G02X397735Y297086J-5235*
G01*
G75*
G02X402735Y300770I5000J-1551*
G01*
G75*
G02X404286Y300535J-5235*
G01*
X542554*
G75*
G02X544735Y300770I2181J-10000*
G01*
G75*
G02X546916Y300535J-10235*
G01*
X565385*
Y308285*
X551959*
G75*
G02X544735Y305300I-7224J7250*
G01*
G75*
G02X537511Y308285J10235*
G01*
X469440*
G75*
G02X452430I-8505J6550*
G01*
X444040*
G75*
G02X427030I-8505J6550*
G01*
X418640*
G75*
G02X401630I-8505J6550*
G01*
X393240*
G75*
G02X376230I-8505J6550*
G01*
X367840*
G75*
G02X350830I-8505J6550*
G01*
X342440*
G75*
G02X325430I-8505J6550*
G01*
X317040*
G75*
G02X300030I-8505J6550*
G01*
X287970*
G75*
G02X282735Y303050I-5235*
G01*
G75*
G02X277500Y308285J5235*
G01*
X111959*
G75*
G02X104735Y305300I-7224J7250*
G01*
G75*
G02X97511Y308285J10235*
G01*
X78085*
Y300535*
X102554*
G37*
X246500Y276535D02*
G36*
G75*
G02X251735Y281770I5235D01*
G01*
G75*
G02X255735Y279912J-5235*
G01*
G75*
G02X259735Y281770I4000J-3377*
G01*
G75*
G02X264970Y276535J-5235*
G01*
X410897*
G75*
G02X412358Y282535I4838J2000*
G01*
X366112*
G75*
G02X362735Y281300I-3377J4000*
G01*
G75*
G02X359358Y282535J5235*
G01*
X336286*
G75*
G02X334735Y282300I-1551J5000*
G01*
G75*
G02X333184Y282535J5235*
G01*
X281970*
G75*
G02X276735Y277300I-5235*
G01*
G75*
G02X271500Y282535J5235*
G01*
X111119*
G75*
G02X104735Y280300I-6384J8000*
G01*
G75*
G02X98351Y282535J10235*
G01*
X78085*
Y276535*
X246500*
G37*
X565385D02*
G36*
Y282535D01*
X551119*
G75*
G02X544735Y280300I-6384J8000*
G01*
G75*
G02X538351Y282535J10235*
G01*
X496573*
G75*
G02X491735Y279300I-4838J2000*
G01*
G75*
G02X486897Y282535J5235*
G01*
X447112*
G75*
G02X448573Y276535I-3377J-4000*
G01*
X565385*
G37*
X78085Y182535D02*
G36*
Y175535D01*
X102554*
G75*
G02X104735Y175770I2181J-10000*
G01*
G75*
G02X106916Y175535J-10235*
G01*
X336500*
G75*
G02X341735Y180770I5235*
G01*
G75*
G02X346970Y175535J-5235*
G01*
X356500*
G75*
G02X361735Y180770I5235*
G01*
G75*
G02X366970Y175535J-5235*
G01*
X376500*
G75*
G02X381735Y180770I5235*
G01*
G75*
G02X386970Y175535J-5235*
G01*
X396500*
G75*
G02X401735Y180770I5235*
G01*
G75*
G02X406970Y175535J-5235*
G01*
X542554*
G75*
G02X544735Y175770I2181J-10000*
G01*
G75*
G02X546916Y175535J-10235*
G01*
X565385*
Y182535*
X551119*
G75*
G02X544735Y180300I-6384J8000*
G01*
G75*
G02X538351Y182535J10235*
G01*
X416025*
G75*
G02X411735Y180300I-4290J3000*
G01*
G75*
G02X407445Y182535J5235*
G01*
X396025*
G75*
G02X391735Y180300I-4290J3000*
G01*
G75*
G02X387445Y182535J5235*
G01*
X376025*
G75*
G02X371735Y180300I-4290J3000*
G01*
G75*
G02X367445Y182535J5235*
G01*
X356025*
G75*
G02X351735Y180300I-4290J3000*
G01*
G75*
G02X347445Y182535J5235*
G01*
X287970*
G75*
G02X282735Y177300I-5235*
G01*
G75*
G02X277500Y182535J5235*
G01*
X275970*
G75*
G02X270735Y177300I-5235*
G01*
G75*
G02X265500Y182535J5235*
G01*
X263970*
G75*
G02X258735Y177300I-5235*
G01*
G75*
G02X253500Y182535J5235*
G01*
X112538*
G75*
G02X104735Y179360I-7803J8000*
G01*
G75*
G02X96932Y182535J11175*
G01*
X78085*
G37*
X279008Y347535D02*
G36*
G75*
G02X283735Y350520I4727J-2250D01*
G01*
G75*
G02X288462Y347535J-5235*
G01*
X300664*
G75*
G02X316406I7871J-7300*
G01*
X326064*
G75*
G02X341806I7871J-7300*
G01*
X351464*
G75*
G02X367206I7871J-7300*
G01*
X375624*
G75*
G02X393846I9111J-7300*
G01*
X402264*
G75*
G02X418006I7871J-7300*
G01*
X427664*
G75*
G02X443406I7871J-7300*
G01*
X453064*
G75*
G02X468806I7871J-7300*
G01*
X479500*
G75*
G02X484735Y352770I5235*
G01*
G75*
G02X489970Y347535J-5235*
G01*
X495397*
G75*
G02X500235Y350770I4838J-2000*
G01*
G75*
G02X505073Y347535J-5235*
G01*
X565385*
Y359185*
X78085*
Y347535*
X279008*
G37*
D02*
D11*
X98005Y190535D02*
X92925D01*
X104735Y183805D02*
Y178725D01*
Y197265D02*
Y202345D01*
X111465Y190535D02*
X116545D01*
X148005Y271535D02*
X142925D01*
X148512Y282312D02*
X144920Y278720D01*
X148512Y284758D02*
X144920Y288350D01*
X149735Y269805D02*
Y264725D01*
Y273265D02*
Y278345D01*
X150958Y282312D02*
X154550Y278720D01*
X150958Y284758D02*
X154550Y288350D01*
X151465Y271535D02*
X156545D01*
X160005Y283535D02*
X154925D01*
X160512Y270312D02*
X156920Y266720D01*
X160512Y272758D02*
X156920Y276350D01*
X161735Y281805D02*
Y276725D01*
Y285265D02*
Y290345D01*
X162958Y270312D02*
X166550Y266720D01*
X162958Y272758D02*
X166550Y276350D01*
X163465Y283535D02*
X168545D01*
X167005Y111535D02*
X161925D01*
X167005Y138535D02*
X161925D01*
X168735Y109805D02*
Y104725D01*
Y113265D02*
Y118345D01*
Y136805D02*
Y131725D01*
Y140265D02*
Y145345D01*
X170465Y111535D02*
X175545D01*
X170465Y138535D02*
X175545D01*
X172005Y259535D02*
X166925D01*
X172512Y270312D02*
X168920Y266720D01*
X172512Y272758D02*
X168920Y276350D01*
X173735Y257805D02*
Y252725D01*
Y261265D02*
Y266345D01*
X174958Y270312D02*
X178550Y266720D01*
X174958Y272758D02*
X178550Y276350D01*
X175465Y259535D02*
X180545D01*
X257512Y193312D02*
X253920Y189720D01*
X257512Y195758D02*
X253920Y199350D01*
X259958Y193312D02*
X263550Y189720D01*
X259958Y195758D02*
X263550Y199350D01*
X265005Y234535D02*
X259925D01*
X266735Y232805D02*
Y227725D01*
Y236265D02*
Y241345D01*
X268465Y234535D02*
X273545D01*
X269512Y193312D02*
X265920Y189720D01*
X269512Y195758D02*
X265920Y199350D01*
X271958Y193312D02*
X275550Y189720D01*
X271958Y195758D02*
X275550Y199350D01*
X281512Y193312D02*
X277920Y189720D01*
X281512Y195758D02*
X277920Y199350D01*
X283958Y193312D02*
X287550Y189720D01*
X283958Y195758D02*
X287550Y199350D01*
X290512Y262312D02*
X286920Y258720D01*
X290512Y264758D02*
X286920Y268350D01*
X292958Y262312D02*
X296550Y258720D01*
X292958Y264758D02*
X296550Y268350D01*
X349512Y285312D02*
X345920Y281720D01*
X349512Y287758D02*
X345920Y291350D01*
X351958Y285312D02*
X355550Y281720D01*
X351958Y287758D02*
X355550Y291350D01*
X371005Y80535D02*
X365925D01*
X372735Y78805D02*
Y73725D01*
Y82265D02*
Y87345D01*
X374465Y80535D02*
X379545D01*
X377505Y340235D02*
X372425D01*
X384735Y333005D02*
Y327925D01*
Y347465D02*
Y352545D01*
X391965Y340235D02*
X397045D01*
X469005Y297535D02*
X463925D01*
X470735Y295805D02*
Y290725D01*
Y299265D02*
Y304345D01*
X472465Y297535D02*
X477545D01*
D02*
D22*
X308535Y314835D02*
D03*
Y340235D02*
D03*
X333935Y314835D02*
D03*
Y340235D02*
D03*
X359335Y314835D02*
D03*
Y340235D02*
D03*
X384735Y314835D02*
D03*
Y340235D02*
D03*
X410135Y314835D02*
D03*
Y340235D02*
D03*
X435535Y314835D02*
D03*
Y340235D02*
D03*
X460935Y314835D02*
D03*
Y340235D02*
D03*
D02*
D89*
X104735Y90535D02*
D03*
Y115535D02*
D03*
Y140535D02*
D03*
Y165535D02*
D03*
Y190535D02*
D03*
Y215535D02*
D03*
Y240535D02*
D03*
Y265535D02*
D03*
Y290535D02*
D03*
Y315535D02*
D03*
X544735Y90535D02*
D03*
Y115535D02*
D03*
Y140535D02*
D03*
Y165535D02*
D03*
Y190535D02*
D03*
Y215535D02*
D03*
Y240535D02*
D03*
Y265535D02*
D03*
Y290535D02*
D03*
Y315535D02*
D03*
D02*
D105*
X125735Y133535D02*
D03*
X129735Y167535D02*
D03*
X142735Y294535D02*
D03*
X149735Y271535D02*
X136735D01*
X130735Y265535*
Y205535*
X115735Y190535*
X104735*
X149735Y271535D02*
D03*
Y283535D02*
D03*
X161735Y271535D02*
D03*
Y283535D02*
D03*
X162735Y118535D02*
D03*
X163735Y195535D02*
D03*
Y207535D02*
D03*
Y219535D02*
D03*
X168735Y111535D02*
D03*
Y138535D02*
D03*
X173735Y259535D02*
D03*
Y271535D02*
D03*
X174735Y327535D02*
D03*
X175735Y195535D02*
D03*
Y207535D02*
D03*
Y219535D02*
D03*
X187735Y195535D02*
D03*
Y207535D02*
D03*
Y219535D02*
D03*
X191845Y289535D02*
D03*
X195735Y340535D02*
D03*
X209735Y80335D02*
D03*
Y93035D02*
D03*
Y105735D02*
D03*
Y118535D02*
D03*
Y131135D02*
D03*
Y143835D02*
D03*
Y156535D02*
D03*
Y169235D02*
D03*
X223735Y300535D02*
D03*
X229735Y319535D02*
D03*
X237735Y93035D02*
D03*
Y105735D02*
D03*
X246735Y124535D02*
D03*
X251735Y276535D02*
D03*
X255735Y120535D02*
D03*
X258735Y182535D02*
D03*
Y194535D02*
D03*
X259735Y276535D02*
D03*
X262735Y93535D02*
D03*
X263735Y81535D02*
D03*
X264735Y120535D02*
D03*
X266735Y234535D02*
D03*
X270735Y182535D02*
D03*
Y194535D02*
D03*
X271735Y124535D02*
D03*
X276735Y282535D02*
D03*
X277735Y131535D02*
D03*
Y152535D02*
D03*
X282735Y182535D02*
D03*
Y194535D02*
D03*
Y308285D02*
D03*
X283735Y345285D02*
D03*
X284735Y100535D02*
D03*
Y159535D02*
D03*
X285735Y320535D02*
D03*
X291735Y263535D02*
D03*
X292735Y100535D02*
D03*
X298735Y106535D02*
D03*
X300735Y114535D02*
D03*
X301735Y263535D02*
D03*
X311735Y233535D02*
D03*
X315735Y241535D02*
D03*
X316735Y261535D02*
D03*
X327735Y293535D02*
D03*
X334735Y287535D02*
D03*
X341735Y135535D02*
D03*
Y155535D02*
D03*
Y175535D02*
D03*
Y195535D02*
D03*
X350735Y286535D02*
D03*
X351735Y125535D02*
D03*
Y145535D02*
D03*
Y165535D02*
D03*
Y185535D02*
D03*
X361735Y135535D02*
D03*
Y155535D02*
D03*
Y175535D02*
D03*
Y195535D02*
D03*
X362735Y286535D02*
D03*
X371735Y125535D02*
D03*
Y145535D02*
D03*
Y165535D02*
D03*
Y185535D02*
D03*
X372735Y80535D02*
D03*
X381735Y135535D02*
D03*
Y155535D02*
D03*
Y175535D02*
D03*
Y195535D02*
D03*
X391735Y125535D02*
D03*
Y145535D02*
D03*
Y165535D02*
D03*
Y185535D02*
D03*
X392735Y295535D02*
D03*
X401735Y135535D02*
D03*
Y155535D02*
D03*
Y175535D02*
D03*
Y195535D02*
D03*
X402735Y295535D02*
D03*
X406735Y80535D02*
D03*
X411735Y125535D02*
D03*
Y145535D02*
D03*
Y165535D02*
D03*
Y185535D02*
D03*
X415735Y278535D02*
D03*
X424735D02*
D03*
X430735Y89535D02*
D03*
X434735Y278535D02*
D03*
X438735Y83535D02*
D03*
X443735Y278535D02*
D03*
X446735Y77535D02*
D03*
X453735Y71535D02*
D03*
X470735Y297535D02*
D03*
X484735Y347535D02*
D03*
X491735Y284535D02*
D03*
X500235Y345535D02*
D03*
X518735Y190535D02*
D03*
Y244185D02*
D03*
X527735Y215535D02*
D03*
Y256885D02*
D03*
X0Y0D02*
M02*
