%FSLAX34Y34*%
%MOMM*%
G04 EasyPC Gerber Version 18.0.6 Build 3620 *
%ADD20R,0.65000X1.00000*%
%ADD96R,0.76000X1.60000*%
%ADD88R,0.80000X0.90000*%
%ADD90R,0.80000X2.20000*%
%ADD98R,0.90000X1.30000*%
%ADD91R,1.10000X1.90000*%
%ADD94R,1.39000X1.40000*%
%ADD84R,1.50000X2.50000*%
%ADD92R,2.50000X4.50000*%
%ADD95R,2.60000X4.50000*%
%ADD93R,3.36000X4.86000*%
%ADD85R,7.00000X7.00000*%
%ADD14C,1.52400*%
%ADD89C,1.60000*%
%ADD83C,3.50000*%
%ADD13C,5.00000*%
%ADD25R,1.00000X0.65000*%
%ADD86R,1.30000X0.76000*%
%ADD26R,1.60000X0.76000*%
%ADD87R,1.20000X0.80000*%
%ADD21R,1.30000X0.90000*%
%ADD97R,3.51000X2.62000*%
X0Y0D02*
D02*
D13*
X61875Y61890D02*
D03*
Y511890D02*
D03*
X481875Y61890D02*
D03*
X810875Y136890D02*
D03*
Y436890D02*
D03*
D02*
D14*
X491875Y395890D02*
D03*
Y421290D02*
D03*
Y446690D02*
D03*
X616075Y299890D02*
D03*
X641475D02*
D03*
X666875D02*
D03*
X706975Y236290D02*
D03*
Y261690D02*
D03*
Y287090D02*
D03*
Y312490D02*
D03*
Y337890D02*
D03*
X732375Y236290D02*
D03*
Y261690D02*
D03*
Y287090D02*
D03*
Y312490D02*
D03*
Y337890D02*
D03*
D02*
D20*
X521125Y252890D02*
D03*
X536625D02*
D03*
X551125D02*
D03*
X566625D02*
D03*
X582125D02*
D03*
X597625D02*
D03*
X612125Y221890D02*
D03*
Y239890D02*
D03*
Y258890D02*
D03*
X627625Y221890D02*
D03*
Y239890D02*
D03*
Y258890D02*
D03*
X659125Y346890D02*
D03*
X674625D02*
D03*
D02*
D21*
X529875Y353890D02*
D03*
Y373890D02*
D03*
X531875Y428890D02*
D03*
Y448890D02*
D03*
D02*
D25*
X205875Y249140D02*
D03*
Y264640D02*
D03*
X206875Y109140D02*
D03*
Y124640D02*
D03*
X386875Y109140D02*
D03*
Y124640D02*
D03*
Y249140D02*
D03*
Y264640D02*
D03*
X552875Y138140D02*
D03*
Y153640D02*
D03*
X624875Y361140D02*
D03*
Y376640D02*
D03*
Y431140D02*
D03*
Y446640D02*
D03*
X653875Y431140D02*
D03*
Y446640D02*
D03*
X745875Y419140D02*
D03*
Y434640D02*
D03*
Y449140D02*
D03*
Y464640D02*
D03*
D02*
D26*
X552891Y348840D02*
D03*
Y361540D02*
D03*
Y374240D02*
D03*
Y386940D02*
D03*
Y423840D02*
D03*
Y436540D02*
D03*
Y449240D02*
D03*
Y461940D02*
D03*
X606849Y348840D02*
D03*
Y361540D02*
D03*
Y374240D02*
D03*
Y386940D02*
D03*
Y423840D02*
D03*
Y436540D02*
D03*
Y449240D02*
D03*
Y461940D02*
D03*
D02*
D83*
X107875Y194890D02*
D03*
Y256890D02*
D03*
Y318890D02*
D03*
Y380890D02*
D03*
D02*
D84*
X223257Y114928D02*
D03*
Y254928D02*
D03*
X270529Y114770D02*
D03*
Y254770D02*
D03*
X403257Y114928D02*
D03*
X404257Y254928D02*
D03*
X450529Y114770D02*
D03*
X451529Y254770D02*
D03*
D02*
D85*
X246875Y183880D02*
D03*
Y323880D02*
D03*
X426875Y183880D02*
D03*
X427875Y323880D02*
D03*
D02*
D86*
X672475Y421890D02*
D03*
Y434590D02*
D03*
Y447290D02*
D03*
Y459990D02*
D03*
X725875Y421890D02*
D03*
Y434590D02*
D03*
Y447290D02*
D03*
Y459990D02*
D03*
D02*
D87*
X656975Y362540D02*
D03*
Y375240D02*
D03*
Y388540D02*
D03*
Y401240D02*
D03*
X724775Y362540D02*
D03*
Y375240D02*
D03*
Y388540D02*
D03*
Y401240D02*
D03*
D02*
D88*
X568375Y406890D02*
D03*
X569375Y331890D02*
D03*
X591375Y406890D02*
D03*
X592375Y331890D02*
D03*
D02*
D89*
X561375Y70890D02*
D03*
Y513390D02*
D03*
X586375Y70890D02*
D03*
Y513390D02*
D03*
X611375Y70890D02*
D03*
Y513390D02*
D03*
X636375Y70890D02*
D03*
Y513390D02*
D03*
X661375Y70890D02*
D03*
Y513390D02*
D03*
X686375Y70890D02*
D03*
Y513390D02*
D03*
X711375Y70890D02*
D03*
Y513390D02*
D03*
X736375Y70890D02*
D03*
Y513390D02*
D03*
X761375Y70890D02*
D03*
Y513390D02*
D03*
X786375Y70890D02*
D03*
Y513390D02*
D03*
D02*
D90*
X479375Y482890D02*
D03*
X494375D02*
D03*
D02*
D91*
X458875Y517390D02*
D03*
X514875D02*
D03*
D02*
D92*
X249875Y415890D02*
D03*
Y500890D02*
D03*
X376875Y414890D02*
D03*
Y499890D02*
D03*
D02*
D93*
X312875Y176890D02*
D03*
Y316890D02*
D03*
X356875Y176890D02*
D03*
Y316890D02*
D03*
D02*
D94*
X303625Y137140D02*
D03*
Y277140D02*
D03*
X322125Y137140D02*
D03*
Y277140D02*
D03*
X347625Y137140D02*
D03*
Y277140D02*
D03*
X366125Y137140D02*
D03*
Y277140D02*
D03*
D02*
D95*
X616875Y159890D02*
D03*
X696875D02*
D03*
D02*
D96*
X552825Y174916D02*
D03*
Y228874D02*
D03*
X565525Y174916D02*
D03*
Y228874D02*
D03*
X578225Y174916D02*
D03*
Y228874D02*
D03*
X590925Y174916D02*
D03*
Y228874D02*
D03*
D02*
D97*
X571875Y201890D02*
D03*
D02*
D98*
X567875Y152890D02*
D03*
X587875D02*
D03*
X647875Y223890D02*
D03*
X667875D02*
D03*
X0Y0D02*
M02*
