%FSLAX34Y34*%
%MOMM*%
G04 EasyPC Gerber Version 18.0.6 Build 3620 *
%ADD20R,0.65000X1.00000*%
%ADD88R,0.80000X0.90000*%
%ADD107R,0.80000X1.00000*%
%ADD77R,1.01000X1.50000*%
%ADD24R,1.70000X2.76000*%
%ADD10C,0.12700*%
%ADD106C,0.16000*%
%ADD82C,0.25000*%
%ADD76C,0.30000*%
%ADD105C,0.60000*%
%ADD75C,0.63500*%
%ADD72C,1.21920*%
%ADD14C,1.52400*%
%ADD89C,1.60000*%
%ADD83C,3.50000*%
%ADD13C,5.00000*%
%ADD25R,1.00000X0.65000*%
%ADD86R,1.30000X0.76000*%
%ADD108R,0.90000X0.80000*%
%ADD109R,2.20000X0.80000*%
%ADD21R,1.30000X0.90000*%
%ADD23R,1.50000X1.01000*%
%ADD110R,1.90000X1.10000*%
%ADD78R,2.76000X1.70000*%
X0Y0D02*
D02*
D10*
X43225Y96240D02*
Y43240D01*
X531875*
Y91890*
X546875Y106890*
Y174890*
X544875Y176890*
X531875*
X497875Y142890*
X220875*
X145875Y217890*
X84875*
X81875Y220890*
Y281890*
X80875Y282890*
X55875*
X53875Y280890*
Y106890*
X43225Y96240*
G36*
Y43240*
X531875*
Y91890*
X546875Y106890*
Y174890*
X544875Y176890*
X531875*
X497875Y142890*
X220875*
X145875Y217890*
X84875*
X81875Y220890*
Y281890*
X80875Y282890*
X55875*
X53875Y280890*
Y106890*
X43225Y96240*
G37*
Y421240D02*
X85875Y463890D01*
X442875*
X448875Y469890*
Y530540*
X43225*
Y421240*
G36*
X85875Y463890*
X442875*
X448875Y469890*
Y530540*
X43225*
Y421240*
G37*
X58875Y407890D02*
Y294890D01*
X61875Y291890*
X81875*
Y344890*
X87875Y350890*
X167875*
X184875Y367890*
X463875*
Y420890*
X437875Y446890*
X97875*
X58875Y407890*
G36*
Y294890*
X61875Y291890*
X81875*
Y344890*
X87875Y350890*
X167875*
X184875Y367890*
X463875*
Y420890*
X437875Y446890*
X97875*
X58875Y407890*
G37*
X85875Y287890D02*
Y222890D01*
X87875Y220890*
X148875*
X221875Y147890*
X329875*
X330875Y148890*
Y284890*
X321875Y293890*
X305875*
X299875Y287890*
X281875*
X275875Y293890*
X184875*
X178875Y287890*
X85875*
G36*
Y222890*
X87875Y220890*
X148875*
X221875Y147890*
X329875*
X330875Y148890*
Y284890*
X321875Y293890*
X305875*
X299875Y287890*
X281875*
X275875Y293890*
X184875*
X178875Y287890*
X85875*
G37*
X89875Y346890D02*
X85875Y342890D01*
Y292890*
X86875Y291890*
X176875*
X185875Y300890*
X275875*
X278875Y303890*
Y310890*
X283875Y315890*
X296875*
X299875Y312890*
Y303890*
X303875Y299890*
X367875*
X370875Y302890*
Y313890*
X372875Y315890*
X394875*
X396875Y313890*
Y302890*
X399875Y299890*
X477875*
X459875Y317890*
Y318890*
X483875Y294890*
Y259890*
X485875Y257890*
X509875*
X512875Y260890*
Y320890*
X511875Y321890*
Y344890*
X492875Y363890*
X187875*
X170875Y346890*
X89875*
G36*
X85875Y342890*
Y292890*
X86875Y291890*
X176875*
X185875Y300890*
X275875*
X278875Y303890*
Y310890*
X283875Y315890*
X296875*
X299875Y312890*
Y303890*
X303875Y299890*
X367875*
X370875Y302890*
Y313890*
X372875Y315890*
X394875*
X396875Y313890*
Y302890*
X399875Y299890*
X477875*
X459875Y317890*
Y318890*
X483875Y294890*
Y259890*
X485875Y257890*
X509875*
X512875Y260890*
Y320890*
X511875Y321890*
Y344890*
X492875Y363890*
X187875*
X170875Y346890*
X89875*
G37*
X333875Y154890D02*
X337875Y150890D01*
X488875*
X512875Y174890*
Y250890*
X510875Y252890*
X484875*
X479875Y257890*
Y288890*
X474875Y293890*
X398875*
X392875Y287890*
X372875*
X366875Y293890*
X345875*
X333875Y281890*
Y154890*
G36*
X337875Y150890*
X488875*
X512875Y174890*
Y250890*
X510875Y252890*
X484875*
X479875Y257890*
Y288890*
X474875Y293890*
X398875*
X392875Y287890*
X372875*
X366875Y293890*
X345875*
X333875Y281890*
Y154890*
G37*
X490835Y436890D02*
X483875D01*
X478875Y431890*
Y413890*
X482875Y409890*
X501875*
X502170Y410185*
G75*
G02X504580Y412595I4704J-2294*
G01*
X509875Y417890*
Y431890*
X517140Y439155*
Y441625*
X519610*
X519875Y441890*
X553875*
X555875Y439890*
Y401890*
X544875Y390890*
Y293890*
X547875Y290890*
X592875*
X594875Y292890*
Y315890*
X598875Y319890*
X626875*
X631875Y324890*
X635875*
X661875Y350890*
Y407890*
X654875Y414890*
Y444890*
X625875Y473890*
Y474890*
X622875Y477890*
X576875*
X546875Y507890*
Y519890*
X542875Y523890*
X518875*
X516875Y521890*
Y482890*
X525875Y473890*
X552875*
X556875Y469890*
Y454890*
X553875Y451890*
X516875*
X501875Y436890*
X492915*
G75*
G02X490835I-1040J9804*
G01*
X590840Y381155D02*
Y387890D01*
G75*
G02X591729Y390036I3035*
G01*
X601840Y400147*
Y439033*
X596745Y444128*
G75*
G02X590640Y449290I-870J5162*
G01*
G75*
G02X601110I5235*
G01*
G75*
G02X601037Y448420I-5235J1*
G01*
X607021Y442436*
G75*
G02X607910Y440290I-2146J-2146*
G01*
Y398890*
G75*
G02X607021Y396744I-3035*
G01*
X596910Y386633*
Y381155*
G75*
G02X599037Y376020I-3035J-4265*
G01*
X603132Y371925*
X613618*
X627729Y386036*
G75*
G02X629875Y386925I2146J-2146*
G01*
X642875*
G75*
G02X645021Y386036J-3035*
G01*
X648021Y383036*
G75*
G02X648910Y380890I-2146J-2146*
G01*
Y369155*
G75*
G02X651110Y364890I-3035J-4265*
G01*
G75*
G02X640640I-5235*
G01*
G75*
G02X642840Y369155I5235*
G01*
Y379633*
X641618Y380855*
X631132*
X617021Y366744*
G75*
G02X614875Y365855I-2146J2146*
G01*
X601875*
G75*
G02X599729Y366744J3035*
G01*
X594745Y371728*
G75*
G02X590840Y381155I-870J5162*
G01*
X630640Y360890D02*
G75*
G02X641110I5235D01*
G01*
G75*
G02X630640I-5235*
G01*
X639375Y428215D02*
G75*
G02X629640Y430890I-4500J2675D01*
G01*
G75*
G02X639375Y433565I5235*
G01*
G75*
G02X649110Y430890I4500J-2675*
G01*
G75*
G02X639375Y428215I-5235*
G01*
X644640Y346890D02*
G75*
G02X655110I5235D01*
G01*
G75*
G02X644640I-5235*
G01*
X555875Y407090D02*
G36*
Y401890D01*
X544875Y390890*
Y360890*
X630640*
G75*
G02X641110I5235*
G01*
X642498*
G75*
G02X640640Y364890I3377J4000*
G01*
G75*
G02X642840Y369155I5235*
G01*
Y379633*
X641618Y380855*
X631132*
X617021Y366744*
G75*
G02X614875Y365855I-2146J2146*
G01*
X601875*
G75*
G02X599729Y366744J3035*
G01*
X594745Y371728*
G75*
G02X590840Y381155I-870J5162*
G01*
Y387890*
G75*
G02X591729Y390036I3035*
G01*
X601840Y400147*
Y407090*
X555875*
G37*
X601840D02*
G36*
Y430890D01*
X555875*
Y407090*
X601840*
G37*
X607910D02*
G36*
Y398890D01*
G75*
G02X607021Y396744I-3035*
G01*
X596910Y386633*
Y381155*
G75*
G02X599037Y376020I-3035J-4265*
G01*
X603132Y371925*
X613618*
X627729Y386036*
G75*
G02X629875Y386925I2146J-2146*
G01*
X642875*
G75*
G02X645021Y386036J-3035*
G01*
X648021Y383036*
G75*
G02X648910Y380890I-2146J-2146*
G01*
Y369155*
G75*
G02X651110Y364890I-3035J-4265*
G01*
G75*
G02X649252Y360890I-5235*
G01*
X661875*
Y407090*
X607910*
G37*
X661875D02*
G36*
Y407890D01*
X654875Y414890*
Y430890*
X649110*
G75*
G02X639375Y428215I-5235*
G01*
G75*
G02X629640Y430890I-4500J2675*
G01*
X607910*
Y407090*
X661875*
G37*
X544875Y360890D02*
G36*
Y346890D01*
X644640*
G75*
G02X655110I5235*
G01*
X657875*
X661875Y350890*
Y360890*
X649252*
G75*
G02X642498I-3377J4000*
G01*
X641110*
G75*
G02X630640I-5235*
G01*
X544875*
G37*
X601840Y430890D02*
G36*
Y439033D01*
X596745Y444128*
G75*
G02X590640Y449290I-870J5162*
G01*
G75*
G02X601110I5235*
G01*
G75*
G02X601037Y448420I-5235J1*
G01*
X607021Y442436*
G75*
G02X607910Y440290I-2146J-2146*
G01*
Y430890*
X629640*
G75*
G02X639375Y433565I5235*
G01*
G75*
G02X649110Y430890I4500J-2675*
G01*
X654875*
Y444890*
X625875Y473890*
Y474890*
X622875Y477890*
X576875*
X546875Y507890*
Y519890*
X542875Y523890*
X518875*
X516875Y521890*
Y482890*
X525875Y473890*
X552875*
X556875Y469890*
Y454890*
X553875Y451890*
X516875*
X501875Y436890*
X492915*
G75*
G02X490835I-1040J9804*
G01*
X483875*
X478875Y431890*
Y413890*
X482875Y409890*
X501875*
X502170Y410185*
G75*
G02X504580Y412595I4704J-2294*
G01*
X509875Y417890*
Y431890*
X517140Y439155*
Y441625*
X519610*
X519875Y441890*
X553875*
X555875Y439890*
Y430890*
X601840*
G37*
X544875Y346890D02*
G36*
Y293890D01*
X547875Y290890*
X592875*
X594875Y292890*
Y315890*
X598875Y319890*
X626875*
X631875Y324890*
X635875*
X657875Y346890*
X655110*
G75*
G02X644640I-5235*
G01*
X544875*
G37*
X520875Y403890D02*
X525875Y398890D01*
X542875*
X546875Y402890*
Y417890*
X543875Y420890*
X522875*
X520875Y418890*
Y403890*
G36*
X525875Y398890*
X542875*
X546875Y402890*
Y417890*
X543875Y420890*
X522875*
X520875Y418890*
Y403890*
G37*
X564410Y93890D02*
X603875D01*
Y131890*
X617875Y145890*
Y152890*
X613875Y156890*
X579875*
X573875Y150890*
Y129890*
X564410Y120425*
Y93890*
G36*
X603875*
Y131890*
X617875Y145890*
Y152890*
X613875Y156890*
X579875*
X573875Y150890*
Y129890*
X564410Y120425*
Y93890*
G37*
X659875Y231513D02*
Y168890D01*
X620875Y129890*
Y94890*
X830525*
Y219890*
X756875*
X752875Y223890*
Y226565*
G75*
G02Y231215I8000J2325*
G01*
Y348890*
X749100*
G75*
G02X746875Y348155I-2225J3000*
G01*
X720875*
G75*
G02X718650Y348890J3735*
G01*
X717875*
X706875Y359890*
Y402890*
X707523Y403538*
G75*
G02X708234Y404531I3353J-1650*
G01*
X712640Y408937*
Y413125*
X717110*
X718875Y414890*
X727875*
X731875Y418890*
Y477890*
X724875Y484890*
X667875*
X664875Y481890*
Y415182*
X673132Y406925*
X686610*
G75*
G02X696110Y403890I4265J-3035*
G01*
G75*
G02X686610Y400855I-5235*
G01*
X671875*
G75*
G02X669729Y401744J3035*
G01*
X664875Y406598*
Y348890*
X645875Y329890*
Y313890*
X652875Y306890*
Y289890*
X645875Y282890*
Y262890*
X659875Y248890*
Y238267*
G75*
G02X669110Y234890I4000J-3377*
G01*
G75*
G02X659875Y231513I-5235*
G01*
X676730Y299890D02*
G75*
G02X657020I-9855D01*
G01*
G75*
G02X676730I9855*
G01*
X706975Y246145D02*
G75*
G02Y226435J-9855D01*
G01*
G75*
G02Y246145J9855*
G01*
Y272485D02*
G75*
G02Y250895J-10795D01*
G01*
G75*
G02Y272485J10795*
G01*
Y296945D02*
G75*
G02Y277235J-9855D01*
G01*
G75*
G02Y296945J9855*
G01*
Y322345D02*
G75*
G02Y302635J-9855D01*
G01*
G75*
G02Y322345J9855*
G01*
Y347745D02*
G75*
G02Y328035J-9855D01*
G01*
G75*
G02Y347745J9855*
G01*
X732375Y246145D02*
G75*
G02Y226435J-9855D01*
G01*
G75*
G02Y246145J9855*
G01*
Y272485D02*
G75*
G02Y250895J-10795D01*
G01*
G75*
G02Y272485J10795*
G01*
Y296945D02*
G75*
G02Y277235J-9855D01*
G01*
G75*
G02Y296945J9855*
G01*
Y322345D02*
G75*
G02Y302635J-9855D01*
G01*
G75*
G02Y322345J9855*
G01*
Y347745D02*
G75*
G02Y328035J-9855D01*
G01*
G75*
G02Y347745J9855*
G01*
X652875Y299890D02*
G36*
Y289890D01*
X650075Y287090*
X697120*
G75*
G02X706975Y296945I9855*
G01*
G75*
G02X716830Y287090J-9855*
G01*
X722520*
G75*
G02X732375Y296945I9855*
G01*
G75*
G02X742230Y287090J-9855*
G01*
X752875*
Y299890*
X676730*
G75*
G02X657020I-9855*
G01*
X652875*
G37*
X657020D02*
G36*
G75*
G02X676730I9855D01*
G01*
X752875*
Y312490*
X742230*
G75*
G02X732375Y302635I-9855*
G01*
G75*
G02X722520Y312490J9855*
G01*
X716830*
G75*
G02X706975Y302635I-9855*
G01*
G75*
G02X697120Y312490J9855*
G01*
X647275*
X652875Y306890*
Y299890*
X657020*
G37*
X668919Y236290D02*
G36*
G75*
G02X669110Y234890I-5044J-1401D01*
G01*
G75*
G02X659875Y231513I-5235*
G01*
Y168890*
X620875Y129890*
Y94890*
X830525*
Y219890*
X756875*
X752875Y223890*
Y226565*
G75*
G02Y231215I8000J2325*
G01*
Y236290*
X742230*
G75*
G02X732375Y226435I-9855*
G01*
G75*
G02X722520Y236290J9855*
G01*
X716830*
G75*
G02X706975Y226435I-9855*
G01*
G75*
G02X697120Y236290J9855*
G01*
X668919*
G37*
X697120D02*
G36*
G75*
G02X706975Y246145I9855D01*
G01*
G75*
G02X716830Y236290J-9855*
G01*
X722520*
G75*
G02X732375Y246145I9855*
G01*
G75*
G02X742230Y236290J-9855*
G01*
X752875*
Y261690*
X743170*
G75*
G02X732375Y250895I-10795*
G01*
G75*
G02X721580Y261690J10795*
G01*
X717770*
G75*
G02X706975Y250895I-10795*
G01*
G75*
G02X696180Y261690J10795*
G01*
X647075*
X659875Y248890*
Y238267*
G75*
G02X668919Y236290I4000J-3377*
G01*
X697120*
G37*
X696180Y261690D02*
G36*
G75*
G02X706975Y272485I10795D01*
G01*
G75*
G02X717770Y261690J-10795*
G01*
X721580*
G75*
G02X732375Y272485I10795*
G01*
G75*
G02X743170Y261690J-10795*
G01*
X752875*
Y287090*
X742230*
G75*
G02X732375Y277235I-9855*
G01*
G75*
G02X722520Y287090J9855*
G01*
X716830*
G75*
G02X706975Y277235I-9855*
G01*
G75*
G02X697120Y287090J9855*
G01*
X650075*
X645875Y282890*
Y262890*
X647075Y261690*
X696180*
G37*
X697120Y312490D02*
G36*
G75*
G02X706975Y322345I9855D01*
G01*
G75*
G02X716830Y312490J-9855*
G01*
X722520*
G75*
G02X732375Y322345I9855*
G01*
G75*
G02X742230Y312490J-9855*
G01*
X752875*
Y337890*
X742230*
G75*
G02X732375Y328035I-9855*
G01*
G75*
G02X722520Y337890J9855*
G01*
X716830*
G75*
G02X706975Y328035I-9855*
G01*
G75*
G02X697120Y337890J9855*
G01*
X653875*
X645875Y329890*
Y313890*
X647275Y312490*
X697120*
G37*
Y337890D02*
G36*
G75*
G02X706975Y347745I9855D01*
G01*
G75*
G02X716830Y337890J-9855*
G01*
X722520*
G75*
G02X732375Y347745I9855*
G01*
G75*
G02X742230Y337890J-9855*
G01*
X752875*
Y348890*
X749100*
G75*
G02X746875Y348155I-2225J3000*
G01*
X720875*
G75*
G02X718650Y348890J3735*
G01*
X717875*
X706875Y359890*
Y402890*
X707523Y403538*
G75*
G02X708234Y404531I3353J-1650*
G01*
X712640Y408937*
Y413125*
X717110*
X718875Y414890*
X727875*
X731875Y418890*
Y477890*
X724875Y484890*
X667875*
X664875Y481890*
Y415182*
X673132Y406925*
X686610*
G75*
G02X696110Y403890I4265J-3035*
G01*
G75*
G02X686610Y400855I-5235*
G01*
X671875*
G75*
G02X669729Y401744J3035*
G01*
X664875Y406598*
Y348890*
X653875Y337890*
X697120*
G37*
D02*
D13*
X61875Y61890D02*
D03*
Y511890D02*
D03*
X481875Y61890D02*
D03*
X810875Y136890D02*
D03*
Y436890D02*
D03*
D02*
D14*
X491875Y395890D02*
D03*
Y421290D02*
D03*
Y446690D02*
D03*
X616075Y299890D02*
D03*
X641475D02*
D03*
X666875D02*
D03*
X706975Y236290D02*
D03*
Y261690D02*
D03*
Y287090D02*
D03*
Y312490D02*
D03*
Y337890D02*
D03*
X732375Y236290D02*
D03*
Y261690D02*
D03*
Y287090D02*
D03*
Y312490D02*
D03*
Y337890D02*
D03*
D02*
D20*
X548125Y412890D02*
D03*
X563625D02*
D03*
X606125Y278290D02*
D03*
X612125Y180290D02*
D03*
X621625Y278290D02*
D03*
X627625Y180290D02*
D03*
X743125Y438890D02*
D03*
X758625D02*
D03*
X773125Y270890D02*
D03*
Y288890D02*
D03*
X788625Y270890D02*
D03*
Y288890D02*
D03*
D02*
D21*
X70625Y277140D02*
D03*
Y297140D02*
D03*
X142875Y276890D02*
D03*
Y296890D02*
D03*
X287875Y138890D02*
D03*
Y158890D02*
D03*
X289875Y276890D02*
D03*
Y296890D02*
D03*
X383875Y137890D02*
D03*
Y157890D02*
D03*
Y276890D02*
D03*
Y296890D02*
D03*
D02*
D23*
X545675Y431890D02*
D03*
Y446890D02*
D03*
Y461890D02*
D03*
D02*
D24*
X580075Y446890D02*
D03*
D02*
D25*
X569875Y264540D02*
D03*
Y280040D02*
D03*
X570875Y234540D02*
D03*
Y250040D02*
D03*
X719875Y392140D02*
D03*
Y407640D02*
D03*
D02*
D72*
X760875Y228890D02*
D03*
Y374390D02*
D03*
D02*
D75*
X289875Y296890D02*
Y308890D01*
X383875Y296890D02*
Y308890D01*
X491875Y395890D02*
X478875D01*
X471875Y402890*
Y425890*
X441875Y455890*
X119875*
X108875Y444890*
Y381890*
X107875Y380890*
X491875Y446690D02*
Y447390D01*
X502875Y458390*
X523875*
X532375*
X535875Y461890*
X545675*
Y431890D02*
X538375D01*
X534875Y435390*
X523875*
X548125Y412890D02*
X542875D01*
X538875Y408890*
Y403890*
X548125Y412890D02*
Y429440D01*
X545675Y431890*
X569875Y280040D02*
X582125D01*
X583875Y278290*
Y255790*
X578125Y250040*
X569875Y280040D02*
X564525D01*
X558875Y274390*
X549275*
X570875Y234540D02*
Y181290D01*
X587875Y164290*
X622875*
X627875Y169290*
Y180040*
X627625Y180290*
X570875Y234540D02*
X561625D01*
X559875Y236290*
X549275*
X570875Y250040D02*
X578125D01*
X582875Y245290*
Y194290*
X596875Y180290*
X612125*
X580075Y446890D02*
X545675D01*
X601875Y221090D02*
X596875D01*
Y200290*
X599875Y198290*
X604375*
X606125Y278290D02*
X603875D01*
X594875Y269290*
Y242290*
X601875Y235290*
Y221090*
X616075Y299890D02*
X615875D01*
X605875Y289890*
Y278290*
X606125*
X616875Y221090D02*
Y208290D01*
X614875Y206290*
Y184040*
X612125Y181290*
Y180290*
X616875Y255490D02*
X644675D01*
X653875Y246290*
Y169290*
X610875Y126290*
Y85790*
X611375Y85290*
Y70890*
X616875Y255490D02*
Y221090D01*
Y255490D02*
Y264540D01*
X621625Y269290*
Y278290*
X627375Y198290D02*
Y216590D01*
X631875Y221090*
X627625Y180290D02*
Y198040D01*
X627375Y198290*
X641475Y299890D02*
Y289890D01*
X629875Y278290*
X621625*
X760875Y228890D02*
X776875D01*
X787875Y239890*
Y270140*
X788625Y270890*
X780875Y329390D02*
X798875D01*
X780875Y374390D02*
X760875D01*
X788625Y288890D02*
Y270890D01*
D02*
D76*
X719875Y407640D02*
X716625D01*
X710875Y401890*
Y361890*
X720875Y351890*
X746875*
X749875Y354890*
Y370390*
X753875Y374390*
X760875*
X758625Y438890D02*
Y419750D01*
X759375Y419000*
Y418390*
X772875Y404890*
D02*
D77*
X601875Y221090D02*
D03*
X616875D02*
D03*
X631875D02*
D03*
D02*
D78*
X616875Y255490D02*
D03*
D02*
D82*
X65375Y297140D02*
X60335D01*
X70625Y300390D02*
Y305430D01*
X75875Y297140D02*
X80915D01*
X91625Y256890D02*
X86585D01*
X91625Y318890D02*
X86585D01*
X91625Y380890D02*
X86585D01*
X107875Y240640D02*
Y235600D01*
Y273140D02*
Y278180D01*
Y302640D02*
Y297600D01*
Y335140D02*
Y340180D01*
Y364640D02*
Y359600D01*
Y397140D02*
Y402180D01*
X124125Y256890D02*
X129165D01*
X124125Y318890D02*
X129165D01*
X124125Y380890D02*
X129165D01*
X133125Y312890D02*
X128085D01*
X133125Y336890D02*
X128085D01*
X133638Y323653D02*
X130074Y320089D01*
X133638Y326127D02*
X130074Y329691D01*
X134125Y240890D02*
X129085D01*
X134638Y227653D02*
X131074Y224089D01*
X134638Y230127D02*
X131074Y233691D01*
X134638Y251653D02*
X131074Y248089D01*
X134638Y254127D02*
X131074Y257691D01*
X134875Y311140D02*
Y306100D01*
Y314640D02*
Y319680D01*
Y335140D02*
Y330100D01*
Y338640D02*
Y343680D01*
X135875Y239140D02*
Y234100D01*
Y242640D02*
Y247680D01*
X136112Y323653D02*
X139676Y320089D01*
X136112Y326127D02*
X139676Y329691D01*
X136625Y312890D02*
X141665D01*
X136625Y336890D02*
X141665D01*
X137112Y227653D02*
X140676Y224089D01*
X137112Y230127D02*
X140676Y233691D01*
X137112Y251653D02*
X140676Y248089D01*
X137112Y254127D02*
X140676Y257691D01*
X137625Y240890D02*
X142665D01*
X137625Y276890D02*
X132585D01*
X137625Y296890D02*
X132585D01*
X142875Y273640D02*
Y268600D01*
Y280140D02*
Y285180D01*
Y300140D02*
Y305180D01*
X145125Y324890D02*
X140085D01*
X145638Y311653D02*
X142074Y308089D01*
X145638Y314127D02*
X142074Y317691D01*
X145638Y335653D02*
X142074Y332089D01*
X145638Y338127D02*
X142074Y341691D01*
X146125Y228890D02*
X141085D01*
X146125Y252890D02*
X141085D01*
X146638Y239653D02*
X143074Y236089D01*
X146638Y242127D02*
X143074Y245691D01*
X146875Y323140D02*
Y318100D01*
Y326640D02*
Y331680D01*
X147875Y227140D02*
Y222100D01*
Y230640D02*
Y235680D01*
Y251140D02*
Y246100D01*
Y254640D02*
Y259680D01*
X148112Y311653D02*
X151676Y308089D01*
X148112Y314127D02*
X151676Y317691D01*
X148112Y335653D02*
X151676Y332089D01*
X148112Y338127D02*
X151676Y341691D01*
X148125Y276890D02*
X153165D01*
X148125Y296890D02*
X153165D01*
X148625Y324890D02*
X153665D01*
X149112Y239653D02*
X152676Y236089D01*
X149112Y242127D02*
X152676Y245691D01*
X149625Y228890D02*
X154665D01*
X149625Y252890D02*
X154665D01*
X155125Y62890D02*
X150085D01*
X155125Y86890D02*
X150085D01*
X156875Y61140D02*
Y56100D01*
Y64640D02*
Y69680D01*
Y85140D02*
Y80100D01*
Y88640D02*
Y93680D01*
X157125Y312890D02*
X152085D01*
X157125Y336890D02*
X152085D01*
X157638Y299653D02*
X154074Y296089D01*
X157638Y302127D02*
X154074Y305691D01*
X157638Y323653D02*
X154074Y320089D01*
X157638Y326127D02*
X154074Y329691D01*
X158125Y240890D02*
X153085D01*
X158125Y264890D02*
X153085D01*
X158625Y62890D02*
X163665D01*
X158625Y86890D02*
X163665D01*
X158638Y227653D02*
X155074Y224089D01*
X158638Y230127D02*
X155074Y233691D01*
X158638Y251653D02*
X155074Y248089D01*
X158638Y254127D02*
X155074Y257691D01*
X158638Y275653D02*
X155074Y272089D01*
X158638Y278127D02*
X155074Y281691D01*
X158875Y311140D02*
Y306100D01*
Y314640D02*
Y319680D01*
Y335140D02*
Y330100D01*
Y338640D02*
Y343680D01*
X159875Y239140D02*
Y234100D01*
Y242640D02*
Y247680D01*
Y263140D02*
Y258100D01*
Y266640D02*
Y271680D01*
X160112Y299653D02*
X163676Y296089D01*
X160112Y302127D02*
X163676Y305691D01*
X160112Y323653D02*
X163676Y320089D01*
X160112Y326127D02*
X163676Y329691D01*
X160625Y312890D02*
X165665D01*
X160625Y336890D02*
X165665D01*
X161112Y227653D02*
X164676Y224089D01*
X161112Y230127D02*
X164676Y233691D01*
X161112Y251653D02*
X164676Y248089D01*
X161112Y254127D02*
X164676Y257691D01*
X161112Y275653D02*
X164676Y272089D01*
X161112Y278127D02*
X164676Y281691D01*
X161625Y240890D02*
X166665D01*
X161625Y264890D02*
X166665D01*
X167125Y74890D02*
X162085D01*
X168875Y73140D02*
Y68100D01*
Y76640D02*
Y81680D01*
X169125Y300890D02*
X164085D01*
X169125Y324890D02*
X164085D01*
X169638Y311653D02*
X166074Y308089D01*
X169638Y314127D02*
X166074Y317691D01*
X169638Y335653D02*
X166074Y332089D01*
X169638Y338127D02*
X166074Y341691D01*
X170125Y228890D02*
X165085D01*
X170125Y252890D02*
X165085D01*
X170125Y276890D02*
X165085D01*
X170625Y74890D02*
X175665D01*
X170638Y215653D02*
X167074Y212089D01*
X170638Y218127D02*
X167074Y221691D01*
X170638Y239653D02*
X167074Y236089D01*
X170638Y242127D02*
X167074Y245691D01*
X170638Y263653D02*
X167074Y260089D01*
X170638Y266127D02*
X167074Y269691D01*
X170875Y299140D02*
Y294100D01*
Y302640D02*
Y307680D01*
Y323140D02*
Y318100D01*
Y326640D02*
Y331680D01*
X171875Y227140D02*
Y222100D01*
Y230640D02*
Y235680D01*
Y251140D02*
Y246100D01*
Y254640D02*
Y259680D01*
Y275140D02*
Y270100D01*
Y278640D02*
Y283680D01*
X172112Y311653D02*
X175676Y308089D01*
X172112Y314127D02*
X175676Y317691D01*
X172112Y335653D02*
X175676Y332089D01*
X172112Y338127D02*
X175676Y341691D01*
X172625Y300890D02*
X177665D01*
X172625Y324890D02*
X177665D01*
X173112Y215653D02*
X176676Y212089D01*
X173112Y218127D02*
X176676Y221691D01*
X173112Y239653D02*
X176676Y236089D01*
X173112Y242127D02*
X176676Y245691D01*
X173112Y263653D02*
X176676Y260089D01*
X173112Y266127D02*
X176676Y269691D01*
X173625Y228890D02*
X178665D01*
X173625Y252890D02*
X178665D01*
X173625Y276890D02*
X178665D01*
X179125Y62890D02*
X174085D01*
X179125Y86890D02*
X174085D01*
X180875Y61140D02*
Y56100D01*
Y64640D02*
Y69680D01*
Y85140D02*
Y80100D01*
Y88640D02*
Y93680D01*
X181125Y312890D02*
X176085D01*
X181125Y336890D02*
X176085D01*
X181638Y299653D02*
X178074Y296089D01*
X181638Y302127D02*
X178074Y305691D01*
X181638Y323653D02*
X178074Y320089D01*
X181638Y326127D02*
X178074Y329691D01*
X182125Y216890D02*
X177085D01*
X182125Y240890D02*
X177085D01*
X182125Y264890D02*
X177085D01*
X182625Y62890D02*
X187665D01*
X182625Y86890D02*
X187665D01*
X182638Y227653D02*
X179074Y224089D01*
X182638Y230127D02*
X179074Y233691D01*
X182638Y251653D02*
X179074Y248089D01*
X182638Y254127D02*
X179074Y257691D01*
X182638Y275653D02*
X179074Y272089D01*
X182638Y278127D02*
X179074Y281691D01*
X182875Y311140D02*
Y306100D01*
Y314640D02*
Y319680D01*
Y335140D02*
Y330100D01*
Y338640D02*
Y343680D01*
X183875Y215140D02*
Y210100D01*
Y218640D02*
Y223680D01*
Y239140D02*
Y234100D01*
Y242640D02*
Y247680D01*
Y263140D02*
Y258100D01*
Y266640D02*
Y271680D01*
X184112Y302127D02*
X187676Y305691D01*
X184112Y323653D02*
X187676Y320089D01*
X184112Y326127D02*
X187676Y329691D01*
X184625Y312890D02*
X189665D01*
X184625Y336890D02*
X189665D01*
X185112Y227653D02*
X188676Y224089D01*
X185112Y230127D02*
X188676Y233691D01*
X185112Y251653D02*
X188676Y248089D01*
X185112Y254127D02*
X188676Y257691D01*
X185112Y275653D02*
X188676Y272089D01*
X185112Y278127D02*
X188676Y281691D01*
X185625Y216890D02*
X190665D01*
X185625Y240890D02*
X190665D01*
X185625Y264890D02*
X190665D01*
X191125Y74890D02*
X186085D01*
X192875Y73140D02*
Y68100D01*
Y76640D02*
Y81680D01*
X194625Y74890D02*
X199665D01*
X203125Y62890D02*
X198085D01*
X203125Y86890D02*
X198085D01*
X204875Y61140D02*
Y56100D01*
Y64640D02*
Y69680D01*
Y85140D02*
Y80100D01*
Y88640D02*
Y93680D01*
X205125Y392890D02*
X200085D01*
X205125Y416890D02*
X200085D01*
X205125Y482890D02*
X200085D01*
X205125Y506890D02*
X200085D01*
X205638Y379653D02*
X202074Y376089D01*
X205638Y382127D02*
X202074Y385691D01*
X205638Y403653D02*
X202074Y400089D01*
X205638Y406127D02*
X202074Y409691D01*
X205638Y469653D02*
X202074Y466089D01*
X205638Y472127D02*
X202074Y475691D01*
X205638Y493653D02*
X202074Y490089D01*
X205638Y496127D02*
X202074Y499691D01*
X206625Y62890D02*
X211665D01*
X206625Y86890D02*
X211665D01*
X206875Y391140D02*
Y386100D01*
Y394640D02*
Y399680D01*
Y415140D02*
Y410100D01*
Y418640D02*
Y423680D01*
Y481140D02*
Y476100D01*
Y484640D02*
Y489680D01*
Y505140D02*
Y500100D01*
Y508640D02*
Y513680D01*
X208112Y379653D02*
X211676Y376089D01*
X208112Y382127D02*
X211676Y385691D01*
X208112Y403653D02*
X211676Y400089D01*
X208112Y406127D02*
X211676Y409691D01*
X208112Y469653D02*
X211676Y466089D01*
X208112Y472127D02*
X211676Y475691D01*
X208112Y493653D02*
X211676Y490089D01*
X208112Y496127D02*
X211676Y499691D01*
X208625Y392890D02*
X213665D01*
X208625Y416890D02*
X213665D01*
X208625Y482890D02*
X213665D01*
X208625Y506890D02*
X213665D01*
X215125Y74890D02*
X210085D01*
X216125Y231890D02*
X211085D01*
X216875Y73140D02*
Y68100D01*
Y76640D02*
Y81680D01*
X217125Y380890D02*
X212085D01*
X217125Y404890D02*
X212085D01*
X217125Y494890D02*
X212085D01*
X217638Y391653D02*
X214074Y388089D01*
X217638Y394127D02*
X214074Y397691D01*
X217638Y415653D02*
X214074Y412089D01*
X217638Y418127D02*
X214074Y421691D01*
X217638Y469653D02*
X214074Y466089D01*
X217638Y472127D02*
X214074Y475691D01*
X217638Y481653D02*
X214074Y478089D01*
X217638Y484127D02*
X214074Y487691D01*
X217638Y505653D02*
X214074Y502089D01*
X217638Y508127D02*
X214074Y511691D01*
X217875Y230140D02*
Y225100D01*
Y233640D02*
Y238680D01*
X218625Y74890D02*
X223665D01*
X218875Y379140D02*
Y374100D01*
Y382640D02*
Y387680D01*
Y403140D02*
Y398100D01*
Y406640D02*
Y411680D01*
Y493140D02*
Y488100D01*
Y496640D02*
Y501680D01*
X219625Y231890D02*
X224665D01*
X220112Y391653D02*
X223676Y388089D01*
X220112Y394127D02*
X223676Y397691D01*
X220112Y415653D02*
X223676Y412089D01*
X220112Y418127D02*
X223676Y421691D01*
X220112Y469653D02*
X223676Y466089D01*
X220112Y472127D02*
X223676Y475691D01*
X220112Y481653D02*
X223676Y478089D01*
X220112Y484127D02*
X223676Y487691D01*
X220112Y505653D02*
X223676Y502089D01*
X220112Y508127D02*
X223676Y511691D01*
X220625Y380890D02*
X225665D01*
X220625Y404890D02*
X225665D01*
X220625Y494890D02*
X225665D01*
X227125Y62890D02*
X222085D01*
X227125Y86890D02*
X222085D01*
X228638Y230653D02*
X225074Y227089D01*
X228638Y233127D02*
X225074Y236691D01*
X228875Y61140D02*
Y56100D01*
Y64640D02*
Y69680D01*
Y85140D02*
Y80100D01*
Y88640D02*
Y93680D01*
X229125Y482890D02*
X224085D01*
X229125Y506890D02*
X224085D01*
X229638Y469653D02*
X226074Y466089D01*
X229638Y472127D02*
X226074Y475691D01*
X229638Y493653D02*
X226074Y490089D01*
X229638Y496127D02*
X226074Y499691D01*
X230625Y62890D02*
X235665D01*
X230625Y86890D02*
X235665D01*
X230875Y481140D02*
Y476100D01*
Y484640D02*
Y489680D01*
Y505140D02*
Y500100D01*
Y508640D02*
Y513680D01*
X231112Y230653D02*
X234676Y227089D01*
X231112Y233127D02*
X234676Y236691D01*
X232112Y469653D02*
X235676Y466089D01*
X232112Y472127D02*
X235676Y475691D01*
X232112Y493653D02*
X235676Y490089D01*
X232112Y496127D02*
X235676Y499691D01*
X232625Y482890D02*
X237665D01*
X232625Y506890D02*
X237665D01*
X239125Y74890D02*
X234085D01*
X240125Y231890D02*
X235085D01*
X240875Y73140D02*
Y68100D01*
Y76640D02*
Y81680D01*
X241875Y230140D02*
Y225100D01*
Y233640D02*
Y238680D01*
X242625Y74890D02*
X247665D01*
X243625Y231890D02*
X248665D01*
X251125Y62890D02*
X246085D01*
X251125Y86890D02*
X246085D01*
X252875Y61140D02*
Y56100D01*
Y64640D02*
Y69680D01*
Y85140D02*
Y80100D01*
Y88640D02*
Y93680D01*
X254625Y62890D02*
X259665D01*
X254625Y86890D02*
X259665D01*
X256125Y231890D02*
X251085D01*
X257875Y230140D02*
Y225100D01*
Y233640D02*
Y238680D01*
X259625Y231890D02*
X264665D01*
X263125Y74890D02*
X258085D01*
X264875Y73140D02*
Y68100D01*
Y76640D02*
Y81680D01*
X266625Y74890D02*
X271665D01*
X267125Y482890D02*
X262085D01*
X267125Y506890D02*
X262085D01*
X267638Y469653D02*
X264074Y466089D01*
X267638Y472127D02*
X264074Y475691D01*
X267638Y493653D02*
X264074Y490089D01*
X267638Y496127D02*
X264074Y499691D01*
X268638Y230653D02*
X265074Y227089D01*
X268638Y233127D02*
X265074Y236691D01*
X268875Y481140D02*
Y476100D01*
Y484640D02*
Y489680D01*
Y505140D02*
Y500100D01*
Y508640D02*
Y513680D01*
X270112Y469653D02*
X273676Y466089D01*
X270112Y472127D02*
X273676Y475691D01*
X270112Y493653D02*
X273676Y490089D01*
X270112Y496127D02*
X273676Y499691D01*
X270625Y482890D02*
X275665D01*
X270625Y506890D02*
X275665D01*
X271112Y230653D02*
X274676Y227089D01*
X271112Y233127D02*
X274676Y236691D01*
X275125Y62890D02*
X270085D01*
X275125Y86890D02*
X270085D01*
X275125Y392890D02*
X270085D01*
X275125Y416890D02*
X270085D01*
X275638Y379653D02*
X272074Y376089D01*
X275638Y382127D02*
X272074Y385691D01*
X275638Y403653D02*
X272074Y400089D01*
X275638Y406127D02*
X272074Y409691D01*
X276875Y61140D02*
Y56100D01*
Y64640D02*
Y69680D01*
Y85140D02*
Y80100D01*
Y88640D02*
Y93680D01*
Y391140D02*
Y386100D01*
Y394640D02*
Y399680D01*
Y415140D02*
Y410100D01*
Y418640D02*
Y423680D01*
X278112Y379653D02*
X281676Y376089D01*
X278112Y382127D02*
X281676Y385691D01*
X278112Y403653D02*
X281676Y400089D01*
X278112Y406127D02*
X281676Y409691D01*
X278625Y62890D02*
X283665D01*
X278625Y86890D02*
X283665D01*
X278625Y392890D02*
X283665D01*
X278625Y416890D02*
X283665D01*
X279125Y494890D02*
X274085D01*
X279638Y469653D02*
X276074Y466089D01*
X279638Y472127D02*
X276074Y475691D01*
X279638Y481653D02*
X276074Y478089D01*
X279638Y484127D02*
X276074Y487691D01*
X279638Y505653D02*
X276074Y502089D01*
X279638Y508127D02*
X276074Y511691D01*
X280125Y231890D02*
X275085D01*
X280875Y493140D02*
Y488100D01*
Y496640D02*
Y501680D01*
X281875Y230140D02*
Y225100D01*
Y233640D02*
Y238680D01*
X282112Y469653D02*
X285676Y466089D01*
X282112Y472127D02*
X285676Y475691D01*
X282112Y481653D02*
X285676Y478089D01*
X282112Y484127D02*
X285676Y487691D01*
X282112Y505653D02*
X285676Y502089D01*
X282112Y508127D02*
X285676Y511691D01*
X282625Y158890D02*
X277585D01*
X282625Y494890D02*
X287665D01*
X283625Y231890D02*
X288665D01*
X284625Y276890D02*
X279585D01*
X287125Y74890D02*
X282085D01*
X287125Y380890D02*
X282085D01*
X287125Y404890D02*
X282085D01*
X287638Y391653D02*
X284074Y388089D01*
X287638Y394127D02*
X284074Y397691D01*
X287638Y415653D02*
X284074Y412089D01*
X287638Y418127D02*
X284074Y421691D01*
X287875Y155640D02*
Y150600D01*
Y162140D02*
Y167180D01*
X288875Y73140D02*
Y68100D01*
Y76640D02*
Y81680D01*
Y379140D02*
Y374100D01*
Y382640D02*
Y387680D01*
Y403140D02*
Y398100D01*
Y406640D02*
Y411680D01*
X289875Y273640D02*
Y268600D01*
Y280140D02*
Y285180D01*
X290112Y391653D02*
X293676Y388089D01*
X290112Y394127D02*
X293676Y397691D01*
X290112Y415653D02*
X293676Y412089D01*
X290112Y418127D02*
X293676Y421691D01*
X290625Y74890D02*
X295665D01*
X290625Y380890D02*
X295665D01*
X290625Y404890D02*
X295665D01*
X291125Y482890D02*
X286085D01*
X291125Y506890D02*
X286085D01*
X291638Y469653D02*
X288074Y466089D01*
X291638Y472127D02*
X288074Y475691D01*
X291638Y493653D02*
X288074Y490089D01*
X291638Y496127D02*
X288074Y499691D01*
X292875Y481140D02*
Y476100D01*
Y484640D02*
Y489680D01*
Y505140D02*
Y500100D01*
Y508640D02*
Y513680D01*
X293125Y158890D02*
X298165D01*
X294112Y469653D02*
X297676Y466089D01*
X294112Y472127D02*
X297676Y475691D01*
X294112Y493653D02*
X297676Y490089D01*
X294112Y496127D02*
X297676Y499691D01*
X294625Y482890D02*
X299665D01*
X294625Y506890D02*
X299665D01*
X295125Y276890D02*
X300165D01*
X298125Y223890D02*
X293085D01*
X298125Y247890D02*
X293085D01*
X298638Y210653D02*
X295074Y207089D01*
X298638Y213127D02*
X295074Y216691D01*
X298638Y234653D02*
X295074Y231089D01*
X298638Y237127D02*
X295074Y240691D01*
X298638Y258653D02*
X295074Y255089D01*
X298638Y261127D02*
X295074Y264691D01*
X299125Y62890D02*
X294085D01*
X299125Y86890D02*
X294085D01*
X299125Y110890D02*
X294085D01*
X299875Y222140D02*
Y217100D01*
Y225640D02*
Y230680D01*
Y246140D02*
Y241100D01*
Y249640D02*
Y254680D01*
X300875Y61140D02*
Y56100D01*
Y64640D02*
Y69680D01*
Y85140D02*
Y80100D01*
Y88640D02*
Y93680D01*
Y109140D02*
Y104100D01*
Y112640D02*
Y117680D01*
X301112Y210653D02*
X304676Y207089D01*
X301112Y213127D02*
X304676Y216691D01*
X301112Y234653D02*
X304676Y231089D01*
X301112Y237127D02*
X304676Y240691D01*
X301112Y258653D02*
X304676Y255089D01*
X301112Y261127D02*
X304676Y264691D01*
X301625Y223890D02*
X306665D01*
X301625Y247890D02*
X306665D01*
X302625Y62890D02*
X307665D01*
X302625Y86890D02*
X307665D01*
X302625Y110890D02*
X307665D01*
X310125Y211890D02*
X305085D01*
X310125Y235890D02*
X305085D01*
X310125Y259890D02*
X305085D01*
X310638Y222653D02*
X307074Y219089D01*
X310638Y225127D02*
X307074Y228691D01*
X310638Y246653D02*
X307074Y243089D01*
X310638Y249127D02*
X307074Y252691D01*
X311125Y74890D02*
X306085D01*
X311125Y98890D02*
X306085D01*
X311125Y122890D02*
X306085D01*
X311875Y210140D02*
Y205100D01*
Y213640D02*
Y218680D01*
Y234140D02*
Y229100D01*
Y237640D02*
Y242680D01*
Y258140D02*
Y253100D01*
Y261640D02*
Y266680D01*
X312875Y73140D02*
Y68100D01*
Y76640D02*
Y81680D01*
Y97140D02*
Y92100D01*
Y100640D02*
Y105680D01*
Y121140D02*
Y116100D01*
Y124640D02*
Y129680D01*
X313112Y222653D02*
X316676Y219089D01*
X313112Y225127D02*
X316676Y228691D01*
X313112Y246653D02*
X316676Y243089D01*
X313112Y249127D02*
X316676Y252691D01*
X313625Y211890D02*
X318665D01*
X313625Y235890D02*
X318665D01*
X313625Y259890D02*
X318665D01*
X314625Y74890D02*
X319665D01*
X314625Y98890D02*
X319665D01*
X314625Y122890D02*
X319665D01*
X322638Y210653D02*
X319074Y207089D01*
X322638Y213127D02*
X319074Y216691D01*
X322638Y222653D02*
X319074Y219089D01*
X322638Y225127D02*
X319074Y228691D01*
X322638Y234653D02*
X319074Y231089D01*
X322638Y237127D02*
X319074Y240691D01*
X322638Y246653D02*
X319074Y243089D01*
X322638Y249127D02*
X319074Y252691D01*
X322638Y258653D02*
X319074Y255089D01*
X322638Y261127D02*
X319074Y264691D01*
X323125Y62890D02*
X318085D01*
X323125Y86890D02*
X318085D01*
X323125Y110890D02*
X318085D01*
X324875Y61140D02*
Y56100D01*
Y64640D02*
Y69680D01*
Y85140D02*
Y80100D01*
Y88640D02*
Y93680D01*
Y109140D02*
Y104100D01*
Y112640D02*
Y117680D01*
X325112Y210653D02*
X328676Y207089D01*
X325112Y213127D02*
X328676Y216691D01*
X325112Y222653D02*
X328676Y219089D01*
X325112Y225127D02*
X328676Y228691D01*
X325112Y234653D02*
X328676Y231089D01*
X325112Y237127D02*
X328676Y240691D01*
X325112Y246653D02*
X328676Y243089D01*
X325112Y249127D02*
X328676Y252691D01*
X325112Y258653D02*
X328676Y255089D01*
X325112Y261127D02*
X328676Y264691D01*
X326625Y62890D02*
X331665D01*
X326625Y86890D02*
X331665D01*
X326625Y110890D02*
X331665D01*
X332125Y482890D02*
X327085D01*
X332125Y506890D02*
X327085D01*
X332638Y469653D02*
X329074Y466089D01*
X332638Y472127D02*
X329074Y475691D01*
X332638Y493653D02*
X329074Y490089D01*
X332638Y496127D02*
X329074Y499691D01*
X333875Y481140D02*
Y476100D01*
Y484640D02*
Y489680D01*
Y505140D02*
Y500100D01*
Y508640D02*
Y513680D01*
X335112Y469653D02*
X338676Y466089D01*
X335112Y472127D02*
X338676Y475691D01*
X335112Y493653D02*
X338676Y490089D01*
X335112Y496127D02*
X338676Y499691D01*
X335125Y74890D02*
X330085D01*
X335125Y98890D02*
X330085D01*
X335125Y122890D02*
X330085D01*
X335625Y482890D02*
X340665D01*
X335625Y506890D02*
X340665D01*
X336875Y73140D02*
Y68100D01*
Y76640D02*
Y81680D01*
Y97140D02*
Y92100D01*
Y100640D02*
Y105680D01*
Y121140D02*
Y116100D01*
Y124640D02*
Y129680D01*
X338625Y74890D02*
X343665D01*
X338625Y98890D02*
X343665D01*
X338625Y122890D02*
X343665D01*
X342125Y211890D02*
X337085D01*
X342125Y235890D02*
X337085D01*
X342125Y259890D02*
X337085D01*
X342638Y222653D02*
X339074Y219089D01*
X342638Y225127D02*
X339074Y228691D01*
X342638Y246653D02*
X339074Y243089D01*
X342638Y249127D02*
X339074Y252691D01*
X343875Y210140D02*
Y205100D01*
Y213640D02*
Y218680D01*
Y234140D02*
Y229100D01*
Y237640D02*
Y242680D01*
Y258140D02*
Y253100D01*
Y261640D02*
Y266680D01*
X344125Y494890D02*
X339085D01*
X344638Y469653D02*
X341074Y466089D01*
X344638Y472127D02*
X341074Y475691D01*
X344638Y481653D02*
X341074Y478089D01*
X344638Y484127D02*
X341074Y487691D01*
X344638Y505653D02*
X341074Y502089D01*
X344638Y508127D02*
X341074Y511691D01*
X345112Y222653D02*
X348676Y219089D01*
X345112Y225127D02*
X348676Y228691D01*
X345112Y246653D02*
X348676Y243089D01*
X345112Y249127D02*
X348676Y252691D01*
X345125Y392890D02*
X340085D01*
X345125Y416890D02*
X340085D01*
X345625Y211890D02*
X350665D01*
X345625Y235890D02*
X350665D01*
X345625Y259890D02*
X350665D01*
X345638Y379653D02*
X342074Y376089D01*
X345638Y382127D02*
X342074Y385691D01*
X345638Y403653D02*
X342074Y400089D01*
X345638Y406127D02*
X342074Y409691D01*
X345875Y493140D02*
Y488100D01*
Y496640D02*
Y501680D01*
X346875Y391140D02*
Y386100D01*
Y394640D02*
Y399680D01*
Y415140D02*
Y410100D01*
Y418640D02*
Y423680D01*
X347112Y469653D02*
X350676Y466089D01*
X347112Y472127D02*
X350676Y475691D01*
X347112Y481653D02*
X350676Y478089D01*
X347112Y484127D02*
X350676Y487691D01*
X347112Y505653D02*
X350676Y502089D01*
X347112Y508127D02*
X350676Y511691D01*
X347125Y62890D02*
X342085D01*
X347125Y86890D02*
X342085D01*
X347125Y110890D02*
X342085D01*
X347625Y494890D02*
X352665D01*
X348112Y379653D02*
X351676Y376089D01*
X348112Y382127D02*
X351676Y385691D01*
X348112Y403653D02*
X351676Y400089D01*
X348112Y406127D02*
X351676Y409691D01*
X348625Y392890D02*
X353665D01*
X348625Y416890D02*
X353665D01*
X348875Y61140D02*
Y56100D01*
Y64640D02*
Y69680D01*
Y85140D02*
Y80100D01*
Y88640D02*
Y93680D01*
Y109140D02*
Y104100D01*
Y112640D02*
Y117680D01*
X350625Y62890D02*
X355665D01*
X350625Y86890D02*
X355665D01*
X350625Y110890D02*
X355665D01*
X354125Y223890D02*
X349085D01*
X354125Y247890D02*
X349085D01*
X354638Y210653D02*
X351074Y207089D01*
X354638Y213127D02*
X351074Y216691D01*
X354638Y234653D02*
X351074Y231089D01*
X354638Y237127D02*
X351074Y240691D01*
X354638Y258653D02*
X351074Y255089D01*
X354638Y261127D02*
X351074Y264691D01*
X355875Y222140D02*
Y217100D01*
Y225640D02*
Y230680D01*
Y246140D02*
Y241100D01*
Y249640D02*
Y254680D01*
X356125Y482890D02*
X351085D01*
X356125Y506890D02*
X351085D01*
X356638Y469653D02*
X353074Y466089D01*
X356638Y472127D02*
X353074Y475691D01*
X356638Y493653D02*
X353074Y490089D01*
X356638Y496127D02*
X353074Y499691D01*
X357112Y210653D02*
X360676Y207089D01*
X357112Y213127D02*
X360676Y216691D01*
X357112Y234653D02*
X360676Y231089D01*
X357112Y237127D02*
X360676Y240691D01*
X357112Y258653D02*
X360676Y255089D01*
X357112Y261127D02*
X360676Y264691D01*
X357125Y380890D02*
X352085D01*
X357125Y404890D02*
X352085D01*
X357625Y223890D02*
X362665D01*
X357625Y247890D02*
X362665D01*
X357638Y391653D02*
X354074Y388089D01*
X357638Y394127D02*
X354074Y397691D01*
X357638Y415653D02*
X354074Y412089D01*
X357638Y418127D02*
X354074Y421691D01*
X357875Y481140D02*
Y476100D01*
Y484640D02*
Y489680D01*
Y505140D02*
Y500100D01*
Y508640D02*
Y513680D01*
X358875Y379140D02*
Y374100D01*
Y382640D02*
Y387680D01*
Y403140D02*
Y398100D01*
Y406640D02*
Y411680D01*
X359112Y469653D02*
X362676Y466089D01*
X359112Y472127D02*
X362676Y475691D01*
X359112Y493653D02*
X362676Y490089D01*
X359112Y496127D02*
X362676Y499691D01*
X359125Y74890D02*
X354085D01*
X359125Y98890D02*
X354085D01*
X359125Y122890D02*
X354085D01*
X359625Y482890D02*
X364665D01*
X359625Y506890D02*
X364665D01*
X360112Y391653D02*
X363676Y388089D01*
X360112Y394127D02*
X363676Y397691D01*
X360112Y415653D02*
X363676Y412089D01*
X360112Y418127D02*
X363676Y421691D01*
X360625Y380890D02*
X365665D01*
X360625Y404890D02*
X365665D01*
X360875Y73140D02*
Y68100D01*
Y76640D02*
Y81680D01*
Y97140D02*
Y92100D01*
Y100640D02*
Y105680D01*
Y121140D02*
Y116100D01*
Y124640D02*
Y129680D01*
X362625Y74890D02*
X367665D01*
X362625Y98890D02*
X367665D01*
X362625Y122890D02*
X367665D01*
X366125Y211890D02*
X361085D01*
X366125Y235890D02*
X361085D01*
X366125Y259890D02*
X361085D01*
X366638Y222653D02*
X363074Y219089D01*
X366638Y225127D02*
X363074Y228691D01*
X366638Y246653D02*
X363074Y243089D01*
X366638Y249127D02*
X363074Y252691D01*
X367875Y210140D02*
Y205100D01*
Y213640D02*
Y218680D01*
Y234140D02*
Y229100D01*
Y237640D02*
Y242680D01*
Y258140D02*
Y253100D01*
Y261640D02*
Y266680D01*
X369112Y222653D02*
X372676Y219089D01*
X369112Y225127D02*
X372676Y228691D01*
X369112Y246653D02*
X372676Y243089D01*
X369112Y249127D02*
X372676Y252691D01*
X369625Y211890D02*
X374665D01*
X369625Y235890D02*
X374665D01*
X369625Y259890D02*
X374665D01*
X371125Y62890D02*
X366085D01*
X371125Y86890D02*
X366085D01*
X371125Y110890D02*
X366085D01*
X372875Y61140D02*
Y56100D01*
Y64640D02*
Y69680D01*
Y85140D02*
Y80100D01*
Y88640D02*
Y93680D01*
Y109140D02*
Y104100D01*
Y112640D02*
Y117680D01*
X374625Y62890D02*
X379665D01*
X374625Y86890D02*
X379665D01*
X374625Y110890D02*
X379665D01*
X378625Y157890D02*
X373585D01*
X378625Y276890D02*
X373585D01*
X383125Y74890D02*
X378085D01*
X383875Y161140D02*
Y166180D01*
Y273640D02*
Y268600D01*
Y280140D02*
Y285180D01*
X384875Y73140D02*
Y68100D01*
Y76640D02*
Y81680D01*
X385125Y231890D02*
X380085D01*
X386625Y74890D02*
X391665D01*
X386875Y230140D02*
Y225100D01*
Y233640D02*
Y238680D01*
X388625Y231890D02*
X393665D01*
X389125Y157890D02*
X394165D01*
X389125Y276890D02*
X394165D01*
X394125Y482890D02*
X389085D01*
X394125Y506890D02*
X389085D01*
X394638Y469653D02*
X391074Y466089D01*
X394638Y472127D02*
X391074Y475691D01*
X394638Y493653D02*
X391074Y490089D01*
X394638Y496127D02*
X391074Y499691D01*
X395125Y62890D02*
X390085D01*
X395125Y86890D02*
X390085D01*
X395875Y481140D02*
Y476100D01*
Y484640D02*
Y489680D01*
Y505140D02*
Y500100D01*
Y508640D02*
Y513680D01*
X396875Y61140D02*
Y56100D01*
Y64640D02*
Y69680D01*
Y85140D02*
Y80100D01*
Y88640D02*
Y93680D01*
X397112Y469653D02*
X400676Y466089D01*
X397112Y472127D02*
X400676Y475691D01*
X397112Y493653D02*
X400676Y490089D01*
X397112Y496127D02*
X400676Y499691D01*
X397625Y482890D02*
X402665D01*
X397625Y506890D02*
X402665D01*
X397638Y230653D02*
X394074Y227089D01*
X397638Y233127D02*
X394074Y236691D01*
X398625Y62890D02*
X403665D01*
X398625Y86890D02*
X403665D01*
X400112Y230653D02*
X403676Y227089D01*
X400112Y233127D02*
X403676Y236691D01*
X405125Y392890D02*
X400085D01*
X405125Y416890D02*
X400085D01*
X405638Y379653D02*
X402074Y376089D01*
X405638Y382127D02*
X402074Y385691D01*
X405638Y403653D02*
X402074Y400089D01*
X405638Y406127D02*
X402074Y409691D01*
X406125Y494890D02*
X401085D01*
X406638Y469653D02*
X403074Y466089D01*
X406638Y472127D02*
X403074Y475691D01*
X406638Y481653D02*
X403074Y478089D01*
X406638Y484127D02*
X403074Y487691D01*
X406638Y505653D02*
X403074Y502089D01*
X406638Y508127D02*
X403074Y511691D01*
X406875Y391140D02*
Y386100D01*
Y394640D02*
Y399680D01*
Y415140D02*
Y410100D01*
Y418640D02*
Y423680D01*
X407125Y74890D02*
X402085D01*
X407875Y493140D02*
Y488100D01*
Y496640D02*
Y501680D01*
X408112Y379653D02*
X411676Y376089D01*
X408112Y382127D02*
X411676Y385691D01*
X408112Y403653D02*
X411676Y400089D01*
X408112Y406127D02*
X411676Y409691D01*
X408625Y392890D02*
X413665D01*
X408625Y416890D02*
X413665D01*
X408875Y73140D02*
Y68100D01*
Y76640D02*
Y81680D01*
X409112Y469653D02*
X412676Y466089D01*
X409112Y472127D02*
X412676Y475691D01*
X409112Y481653D02*
X412676Y478089D01*
X409112Y484127D02*
X412676Y487691D01*
X409112Y505653D02*
X412676Y502089D01*
X409112Y508127D02*
X412676Y511691D01*
X409125Y231890D02*
X404085D01*
X409625Y494890D02*
X414665D01*
X410625Y74890D02*
X415665D01*
X410875Y230140D02*
Y225100D01*
Y233640D02*
Y238680D01*
X412625Y231890D02*
X417665D01*
X417125Y380890D02*
X412085D01*
X417125Y404890D02*
X412085D01*
X417638Y391653D02*
X414074Y388089D01*
X417638Y394127D02*
X414074Y397691D01*
X417638Y415653D02*
X414074Y412089D01*
X417638Y418127D02*
X414074Y421691D01*
X418125Y482890D02*
X413085D01*
X418125Y506890D02*
X413085D01*
X418638Y469653D02*
X415074Y466089D01*
X418638Y472127D02*
X415074Y475691D01*
X418638Y493653D02*
X415074Y490089D01*
X418638Y496127D02*
X415074Y499691D01*
X418875Y379140D02*
Y374100D01*
Y382640D02*
Y387680D01*
Y403140D02*
Y398100D01*
Y406640D02*
Y411680D01*
X419125Y62890D02*
X414085D01*
X419125Y86890D02*
X414085D01*
X419875Y481140D02*
Y476100D01*
Y484640D02*
Y489680D01*
Y505140D02*
Y500100D01*
Y508640D02*
Y513680D01*
X420112Y391653D02*
X423676Y388089D01*
X420112Y394127D02*
X423676Y397691D01*
X420112Y415653D02*
X423676Y412089D01*
X420112Y418127D02*
X423676Y421691D01*
X420625Y380890D02*
X425665D01*
X420625Y404890D02*
X425665D01*
X420875Y61140D02*
Y56100D01*
Y64640D02*
Y69680D01*
Y85140D02*
Y80100D01*
Y88640D02*
Y93680D01*
X421112Y469653D02*
X424676Y466089D01*
X421112Y472127D02*
X424676Y475691D01*
X421112Y493653D02*
X424676Y490089D01*
X421112Y496127D02*
X424676Y499691D01*
X421625Y482890D02*
X426665D01*
X421625Y506890D02*
X426665D01*
X422625Y62890D02*
X427665D01*
X422625Y86890D02*
X427665D01*
X425125Y231890D02*
X420085D01*
X426875Y230140D02*
Y225100D01*
Y233640D02*
Y238680D01*
X428625Y231890D02*
X433665D01*
X431125Y74890D02*
X426085D01*
X432875Y73140D02*
Y68100D01*
Y76640D02*
Y81680D01*
X434625Y74890D02*
X439665D01*
X437638Y230653D02*
X434074Y227089D01*
X437638Y233127D02*
X434074Y236691D01*
X440112Y230653D02*
X443676Y227089D01*
X440112Y233127D02*
X443676Y236691D01*
X443125Y62890D02*
X438085D01*
X443125Y86890D02*
X438085D01*
X444875Y61140D02*
Y56100D01*
Y64640D02*
Y69680D01*
Y85140D02*
Y80100D01*
Y88640D02*
Y93680D01*
X446625Y62890D02*
X451665D01*
X446625Y86890D02*
X451665D01*
X449125Y231890D02*
X444085D01*
X450875Y230140D02*
Y225100D01*
Y233640D02*
Y238680D01*
X452625Y231890D02*
X457665D01*
X467125Y110890D02*
X462085D01*
X468875Y109140D02*
Y104100D01*
Y112640D02*
Y117680D01*
X470625Y110890D02*
X475665D01*
X479125Y98890D02*
X474085D01*
X479125Y122890D02*
X474085D01*
X480875Y97140D02*
Y92100D01*
Y100640D02*
Y105680D01*
Y121140D02*
Y116100D01*
Y124640D02*
Y129680D01*
X482625Y98890D02*
X487665D01*
X482625Y122890D02*
X487665D01*
X490625Y236290D02*
X485585D01*
X490625Y248990D02*
X485585D01*
X490625Y261690D02*
X485585D01*
X491125Y110890D02*
X486085D01*
X492875Y109140D02*
Y104100D01*
Y112640D02*
Y117680D01*
X492959Y271474D02*
X488285Y266800D01*
X492959Y277306D02*
X488285Y281980D01*
X493125Y280890D02*
X488085D01*
X493125Y304890D02*
X488085D01*
X493638Y291653D02*
X490074Y288089D01*
X493638Y294127D02*
X490074Y297691D01*
X493638Y315653D02*
X490074Y312089D01*
X493638Y318127D02*
X490074Y321691D01*
X494625Y110890D02*
X499665D01*
X494875Y279140D02*
Y274100D01*
Y282640D02*
Y287680D01*
Y303140D02*
Y298100D01*
Y306640D02*
Y311680D01*
X495875Y233740D02*
Y228700D01*
Y238840D02*
Y243880D01*
Y264240D02*
Y269280D01*
X496112Y291653D02*
X499676Y288089D01*
X496112Y294127D02*
X499676Y297691D01*
X496112Y315653D02*
X499676Y312089D01*
X496112Y318127D02*
X499676Y321691D01*
X496625Y280890D02*
X501665D01*
X496625Y304890D02*
X501665D01*
X498791Y271474D02*
X503465Y266800D01*
X498791Y277306D02*
X503465Y281980D01*
X501125Y236290D02*
X506165D01*
X501125Y248990D02*
X506165D01*
X501125Y261690D02*
X506165D01*
X503125Y98890D02*
X498085D01*
X503125Y122890D02*
X498085D01*
X504875Y97140D02*
Y92100D01*
Y100640D02*
Y105680D01*
Y121140D02*
Y116100D01*
Y124640D02*
Y129680D01*
X505125Y316890D02*
X500085D01*
X505638Y279653D02*
X502074Y276089D01*
X505638Y282127D02*
X502074Y285691D01*
X505638Y291653D02*
X502074Y288089D01*
X505638Y294127D02*
X502074Y297691D01*
X505638Y303653D02*
X502074Y300089D01*
X505638Y306127D02*
X502074Y309691D01*
X506625Y98890D02*
X511665D01*
X506625Y122890D02*
X511665D01*
X506875Y315140D02*
Y310100D01*
Y318640D02*
Y323680D01*
X508112Y279653D02*
X511676Y276089D01*
X508112Y282127D02*
X511676Y285691D01*
X508112Y291653D02*
X511676Y288089D01*
X508112Y294127D02*
X511676Y297691D01*
X508112Y303653D02*
X511676Y300089D01*
X508112Y306127D02*
X511676Y309691D01*
X515125Y62890D02*
X510085D01*
X515125Y86890D02*
X510085D01*
X515125Y110890D02*
X510085D01*
X516875Y61140D02*
Y56100D01*
Y64640D02*
Y69680D01*
Y85140D02*
Y80100D01*
Y88640D02*
Y93680D01*
Y109140D02*
Y104100D01*
Y112640D02*
Y117680D01*
X518625Y62890D02*
X523665D01*
X518625Y86890D02*
X523665D01*
X518625Y110890D02*
X523665D01*
X525638Y405127D02*
X522074Y408691D01*
X526875Y414140D02*
Y409100D01*
X527125Y122890D02*
X522085D01*
X528112Y405127D02*
X531676Y408691D01*
X528625Y415890D02*
X533665D01*
X528875Y121140D02*
Y116100D01*
Y124640D02*
Y129680D01*
X530625Y122890D02*
X535665D01*
X537125Y403890D02*
X531910D01*
X537638Y414653D02*
X534074Y411089D01*
X538875Y405640D02*
Y410855D01*
X539425Y446890D02*
X534385D01*
X540112Y414653D02*
X543676Y411089D01*
X540625Y403890D02*
X545840D01*
X545759Y410524D02*
X541085Y405850D01*
X545759Y415256D02*
X541085Y419930D01*
X551925Y446890D02*
X556965D01*
X561625Y412890D02*
X556585D01*
X563625Y409140D02*
Y404100D01*
Y416640D02*
Y421680D01*
X565625Y412890D02*
X570665D01*
X566125Y350890D02*
X561085D01*
X566125Y374890D02*
X561085D01*
X566638Y361653D02*
X563074Y358089D01*
X566638Y364127D02*
X563074Y367691D01*
X566638Y385653D02*
X563074Y382089D01*
X566638Y388127D02*
X563074Y391691D01*
X567875Y349140D02*
Y344100D01*
Y352640D02*
Y357680D01*
Y373140D02*
Y368100D01*
Y376640D02*
Y381680D01*
X568875Y103140D02*
Y98100D01*
Y106640D02*
Y111680D01*
Y118640D02*
Y123680D01*
X569112Y361653D02*
X572676Y358089D01*
X569112Y364127D02*
X572676Y367691D01*
X569112Y385653D02*
X572676Y382089D01*
X569112Y388127D02*
X572676Y391691D01*
X569625Y350890D02*
X574665D01*
X569625Y374890D02*
X574665D01*
X570625Y104890D02*
X575665D01*
X570625Y116890D02*
X575665D01*
X572459Y439274D02*
X567785Y434600D01*
X572459Y454506D02*
X567785Y459180D01*
X578125Y362890D02*
X573085D01*
X578125Y386890D02*
X573085D01*
X578638Y349653D02*
X575074Y346089D01*
X578638Y352127D02*
X575074Y355691D01*
X578638Y373653D02*
X575074Y370089D01*
X578638Y376127D02*
X575074Y379691D01*
X579638Y103653D02*
X576074Y100089D01*
X579638Y106127D02*
X576074Y109691D01*
X579638Y115653D02*
X576074Y112089D01*
X579638Y118127D02*
X576074Y121691D01*
X579875Y361140D02*
Y356100D01*
Y364640D02*
Y369680D01*
Y385140D02*
Y380100D01*
Y388640D02*
Y393680D01*
X581112Y349653D02*
X584676Y346089D01*
X581112Y352127D02*
X584676Y355691D01*
X581112Y373653D02*
X584676Y370089D01*
X581112Y376127D02*
X584676Y379691D01*
X581625Y362890D02*
X586665D01*
X581625Y386890D02*
X586665D01*
X582112Y103653D02*
X585676Y100089D01*
X582112Y106127D02*
X585676Y109691D01*
X582112Y115653D02*
X585676Y112089D01*
X582112Y118127D02*
X585676Y121691D01*
X587691Y439274D02*
X592365Y434600D01*
X587691Y454506D02*
X592365Y459180D01*
X590125Y350890D02*
X585085D01*
X590638Y361653D02*
X587074Y358089D01*
X590638Y364127D02*
X587074Y367691D01*
X591125Y104890D02*
X586085D01*
X591875Y349140D02*
Y344100D01*
Y352640D02*
Y357680D01*
X592875Y103140D02*
Y98100D01*
Y106640D02*
Y111680D01*
X593112Y361653D02*
X596676Y358089D01*
X593112Y364127D02*
X596676Y367691D01*
X593625Y350890D02*
X598665D01*
X594625Y104890D02*
X599665D01*
X633638Y445653D02*
X630074Y442089D01*
X633638Y448127D02*
X630074Y451691D01*
X634125Y376890D02*
X629085D01*
X635875Y375140D02*
Y370100D01*
X636112Y445653D02*
X639676Y442089D01*
X636112Y448127D02*
X639676Y451691D01*
X642125Y446890D02*
X637085D01*
X643125Y391890D02*
X638085D01*
X643875Y445140D02*
Y440100D01*
Y448640D02*
Y453680D01*
X644875Y393640D02*
Y398680D01*
X645625Y446890D02*
X650665D01*
X646625Y391890D02*
X651665D01*
X651125Y134890D02*
X646085D01*
X651638Y121653D02*
X648074Y118089D01*
X651638Y124127D02*
X648074Y127691D01*
X651638Y145653D02*
X648074Y142089D01*
X651638Y148127D02*
X648074Y151691D01*
X652875Y133140D02*
Y128100D01*
Y136640D02*
Y141680D01*
X654112Y121653D02*
X657676Y118089D01*
X654112Y124127D02*
X657676Y127691D01*
X654112Y145653D02*
X657676Y142089D01*
X654112Y148127D02*
X657676Y151691D01*
X654625Y134890D02*
X659665D01*
X655638Y258127D02*
X652074Y261691D01*
X658112Y255653D02*
X661676Y252089D01*
X658112Y258127D02*
X661676Y261691D01*
X663125Y122890D02*
X658085D01*
X663125Y146890D02*
X658085D01*
X663638Y133653D02*
X660074Y130089D01*
X663638Y136127D02*
X660074Y139691D01*
X664875Y121140D02*
Y116100D01*
Y124640D02*
Y129680D01*
Y145140D02*
Y140100D01*
Y148640D02*
Y153680D01*
X666112Y133653D02*
X669676Y130089D01*
X666112Y136127D02*
X669676Y139691D01*
X666625Y122890D02*
X671665D01*
X666625Y146890D02*
X671665D01*
X667125Y244890D02*
X662085D01*
X667638Y255653D02*
X664074Y252089D01*
X667638Y258127D02*
X664074Y261691D01*
X668875Y243140D02*
Y238100D01*
Y246640D02*
Y251680D01*
X670112Y255653D02*
X673676Y252089D01*
X670112Y258127D02*
X673676Y261691D01*
X670625Y244890D02*
X675665D01*
X675638Y121653D02*
X672074Y118089D01*
X675638Y124127D02*
X672074Y127691D01*
X678112Y121653D02*
X681676Y118089D01*
X678112Y124127D02*
X681676Y127691D01*
X679125Y256890D02*
X674085D01*
X679638Y243653D02*
X676074Y240089D01*
X679638Y246127D02*
X676074Y249691D01*
X680875Y255140D02*
Y250100D01*
Y258640D02*
Y263680D01*
X682112Y243653D02*
X685676Y240089D01*
X682112Y246127D02*
X685676Y249691D01*
X682625Y256890D02*
X687665D01*
X687125Y122890D02*
X682085D01*
X688875Y121140D02*
Y116100D01*
Y124640D02*
Y129680D01*
X690625Y122890D02*
X695665D01*
X692125Y437890D02*
X687085D01*
X692125Y461890D02*
X687085D01*
X692638Y424653D02*
X689074Y421089D01*
X692638Y427127D02*
X689074Y430691D01*
X692638Y448653D02*
X689074Y445089D01*
X692638Y451127D02*
X689074Y454691D01*
X693875Y436140D02*
Y431100D01*
Y439640D02*
Y444680D01*
Y460140D02*
Y455100D01*
Y463640D02*
Y468680D01*
X695112Y424653D02*
X698676Y421089D01*
X695112Y427127D02*
X698676Y430691D01*
X695112Y448653D02*
X698676Y445089D01*
X695112Y451127D02*
X698676Y454691D01*
X695625Y437890D02*
X700665D01*
X695625Y461890D02*
X700665D01*
X699638Y121653D02*
X696074Y118089D01*
X699638Y124127D02*
X696074Y127691D01*
X700605Y261690D02*
X695565D01*
X702112Y121653D02*
X705676Y118089D01*
X702112Y124127D02*
X705676Y127691D01*
X704125Y425890D02*
X699085D01*
X704125Y449890D02*
X699085D01*
X704638Y436653D02*
X701074Y433089D01*
X704638Y439127D02*
X701074Y442691D01*
X704638Y460653D02*
X701074Y457089D01*
X704638Y463127D02*
X701074Y466691D01*
X705875Y424140D02*
Y419100D01*
Y427640D02*
Y432680D01*
Y448140D02*
Y443100D01*
Y451640D02*
Y456680D01*
X706975Y255320D02*
Y250280D01*
Y268060D02*
Y273100D01*
X707112Y436653D02*
X710676Y433089D01*
X707112Y439127D02*
X710676Y442691D01*
X707112Y460653D02*
X710676Y457089D01*
X707112Y463127D02*
X710676Y466691D01*
X707625Y425890D02*
X712665D01*
X707625Y449890D02*
X712665D01*
X711125Y122890D02*
X706085D01*
X712875Y121140D02*
Y116100D01*
Y124640D02*
Y129680D01*
X713345Y261690D02*
X718385D01*
X714625Y122890D02*
X719665D01*
X723125Y163890D02*
X718085D01*
X723638Y150653D02*
X720074Y147089D01*
X723638Y153127D02*
X720074Y156691D01*
X723638Y174653D02*
X720074Y171089D01*
X723638Y177127D02*
X720074Y180691D01*
X724875Y162140D02*
Y157100D01*
Y165640D02*
Y170680D01*
X726005Y261690D02*
X720965D01*
X726112Y150653D02*
X729676Y147089D01*
X726112Y153127D02*
X729676Y156691D01*
X726112Y174653D02*
X729676Y171089D01*
X726112Y177127D02*
X729676Y180691D01*
X726625Y163890D02*
X731665D01*
X732375Y255320D02*
Y250280D01*
Y268060D02*
Y273100D01*
X735125Y175890D02*
X730085D01*
X735638Y162653D02*
X732074Y159089D01*
X735638Y165127D02*
X732074Y168691D01*
X736875Y174140D02*
Y169100D01*
Y177640D02*
Y182680D01*
X738112Y162653D02*
X741676Y159089D01*
X738112Y165127D02*
X741676Y168691D01*
X738625Y175890D02*
X743665D01*
X738745Y261690D02*
X743785D01*
D02*
D83*
X107875Y194890D02*
D03*
Y256890D02*
D03*
Y318890D02*
D03*
Y380890D02*
D03*
D02*
D86*
X495875Y236290D02*
D03*
Y248990D02*
D03*
Y261690D02*
D03*
Y274390D02*
D03*
X549275Y236290D02*
D03*
Y248990D02*
D03*
Y261690D02*
D03*
Y274390D02*
D03*
D02*
D88*
X604375Y198290D02*
D03*
X627375D02*
D03*
D02*
D89*
X561375Y70890D02*
D03*
Y513390D02*
D03*
X586375Y70890D02*
D03*
Y513390D02*
D03*
X611375Y70890D02*
D03*
Y513390D02*
D03*
X636375Y70890D02*
D03*
Y513390D02*
D03*
X661375Y70890D02*
D03*
Y513390D02*
D03*
X686375Y70890D02*
D03*
Y513390D02*
D03*
X711375Y70890D02*
D03*
Y513390D02*
D03*
X736375Y70890D02*
D03*
Y513390D02*
D03*
X761375Y70890D02*
D03*
Y513390D02*
D03*
X786375Y70890D02*
D03*
Y513390D02*
D03*
D02*
D105*
X134875Y312890D02*
D03*
Y324890D02*
D03*
Y336890D02*
D03*
X135875Y228890D02*
D03*
Y240890D02*
D03*
Y252890D02*
D03*
X146875Y312890D02*
D03*
Y324890D02*
D03*
Y336890D02*
D03*
X147875Y228890D02*
D03*
Y240890D02*
D03*
Y252890D02*
D03*
X156875Y62890D02*
D03*
Y86890D02*
D03*
X158875Y300890D02*
D03*
Y312890D02*
D03*
Y324890D02*
D03*
Y336890D02*
D03*
X159875Y228890D02*
D03*
Y240890D02*
D03*
Y252890D02*
D03*
Y264890D02*
D03*
Y276890D02*
D03*
X168875Y74890D02*
D03*
X170875Y300890D02*
D03*
Y312890D02*
D03*
Y324890D02*
D03*
Y336890D02*
D03*
X171875Y216890D02*
D03*
Y228890D02*
D03*
Y240890D02*
D03*
Y252890D02*
D03*
Y264890D02*
D03*
Y276890D02*
D03*
X180875Y62890D02*
D03*
Y86890D02*
D03*
X182875Y300890D02*
D03*
Y312890D02*
D03*
Y324890D02*
D03*
Y336890D02*
D03*
X183875Y216890D02*
D03*
Y228890D02*
D03*
Y240890D02*
D03*
Y252890D02*
D03*
Y264890D02*
D03*
Y276890D02*
D03*
X192875Y74890D02*
D03*
X204875Y62890D02*
D03*
Y86890D02*
D03*
X206875Y380890D02*
D03*
Y392890D02*
D03*
Y404890D02*
D03*
Y416890D02*
D03*
Y470890D02*
D03*
Y482890D02*
D03*
Y494890D02*
D03*
Y506890D02*
D03*
X216875Y74890D02*
D03*
X217875Y231890D02*
D03*
X218875Y380890D02*
D03*
Y392890D02*
D03*
Y404890D02*
D03*
Y416890D02*
D03*
Y470890D02*
D03*
Y482890D02*
D03*
Y494890D02*
D03*
Y506890D02*
D03*
X228875Y62890D02*
D03*
Y86890D02*
D03*
X229875Y231890D02*
D03*
X230875Y470890D02*
D03*
Y482890D02*
D03*
Y494890D02*
D03*
Y506890D02*
D03*
X240875Y74890D02*
D03*
X241875Y231890D02*
D03*
X252875Y62890D02*
D03*
Y86890D02*
D03*
X257875Y231890D02*
D03*
X264875Y74890D02*
D03*
X268875Y470890D02*
D03*
Y482890D02*
D03*
Y494890D02*
D03*
Y506890D02*
D03*
X269875Y231890D02*
D03*
X276875Y62890D02*
D03*
Y86890D02*
D03*
Y380890D02*
D03*
Y392890D02*
D03*
Y404890D02*
D03*
Y416890D02*
D03*
X280875Y470890D02*
D03*
Y482890D02*
D03*
Y494890D02*
D03*
Y506890D02*
D03*
X281875Y231890D02*
D03*
X288875Y74890D02*
D03*
Y380890D02*
D03*
Y392890D02*
D03*
Y404890D02*
D03*
Y416890D02*
D03*
X289875Y308890D02*
D03*
X292875Y470890D02*
D03*
Y482890D02*
D03*
Y494890D02*
D03*
Y506890D02*
D03*
X299875Y211890D02*
D03*
Y223890D02*
D03*
Y235890D02*
D03*
Y247890D02*
D03*
Y259890D02*
D03*
X300875Y62890D02*
D03*
Y86890D02*
D03*
Y110890D02*
D03*
X311875Y211890D02*
D03*
Y223890D02*
D03*
Y235890D02*
D03*
Y247890D02*
D03*
Y259890D02*
D03*
X312875Y74890D02*
D03*
Y98890D02*
D03*
Y122890D02*
D03*
X323875Y211890D02*
D03*
Y223890D02*
D03*
Y235890D02*
D03*
Y247890D02*
D03*
Y259890D02*
D03*
X324875Y62890D02*
D03*
Y86890D02*
D03*
Y110890D02*
D03*
X333875Y470890D02*
D03*
Y482890D02*
D03*
Y494890D02*
D03*
Y506890D02*
D03*
X336875Y74890D02*
D03*
Y98890D02*
D03*
Y122890D02*
D03*
X343875Y211890D02*
D03*
Y223890D02*
D03*
Y235890D02*
D03*
Y247890D02*
D03*
Y259890D02*
D03*
X345875Y470890D02*
D03*
Y482890D02*
D03*
Y494890D02*
D03*
Y506890D02*
D03*
X346875Y380890D02*
D03*
Y392890D02*
D03*
Y404890D02*
D03*
Y416890D02*
D03*
X348875Y62890D02*
D03*
Y86890D02*
D03*
Y110890D02*
D03*
X355875Y211890D02*
D03*
Y223890D02*
D03*
Y235890D02*
D03*
Y247890D02*
D03*
Y259890D02*
D03*
X357875Y470890D02*
D03*
Y482890D02*
D03*
Y494890D02*
D03*
Y506890D02*
D03*
X358875Y380890D02*
D03*
Y392890D02*
D03*
Y404890D02*
D03*
Y416890D02*
D03*
X360875Y74890D02*
D03*
Y98890D02*
D03*
Y122890D02*
D03*
X367875Y211890D02*
D03*
Y223890D02*
D03*
Y235890D02*
D03*
Y247890D02*
D03*
Y259890D02*
D03*
X372875Y62890D02*
D03*
Y86890D02*
D03*
Y110890D02*
D03*
X383875Y308890D02*
D03*
X384875Y74890D02*
D03*
X386875Y231890D02*
D03*
X395875Y470890D02*
D03*
Y482890D02*
D03*
Y494890D02*
D03*
Y506890D02*
D03*
X396875Y62890D02*
D03*
Y86890D02*
D03*
X398875Y231890D02*
D03*
X406875Y380890D02*
D03*
Y392890D02*
D03*
Y404890D02*
D03*
Y416890D02*
D03*
X407875Y470890D02*
D03*
Y482890D02*
D03*
Y494890D02*
D03*
Y506890D02*
D03*
X408875Y74890D02*
D03*
X410875Y231890D02*
D03*
X418875Y380890D02*
D03*
Y392890D02*
D03*
Y404890D02*
D03*
Y416890D02*
D03*
X419875Y470890D02*
D03*
Y482890D02*
D03*
Y494890D02*
D03*
Y506890D02*
D03*
X420875Y62890D02*
D03*
Y86890D02*
D03*
X426875Y231890D02*
D03*
X432875Y74890D02*
D03*
X438875Y231890D02*
D03*
X444875Y62890D02*
D03*
Y86890D02*
D03*
X450875Y231890D02*
D03*
X468875Y110890D02*
D03*
X479375Y500890D02*
D03*
X480875Y98890D02*
D03*
Y122890D02*
D03*
X492875Y110890D02*
D03*
X494875Y280890D02*
D03*
Y292890D02*
D03*
Y304890D02*
D03*
Y316890D02*
D03*
X504875Y98890D02*
D03*
Y122890D02*
D03*
Y482890D02*
D03*
X506875Y280890D02*
D03*
Y292890D02*
D03*
Y304890D02*
D03*
Y316890D02*
D03*
Y407890D02*
D03*
X510875Y391890D02*
D03*
X511875Y355890D02*
D03*
X514875Y370890D02*
D03*
X516875Y62890D02*
D03*
Y86890D02*
D03*
Y110890D02*
D03*
X526875Y403890D02*
D03*
Y415890D02*
D03*
X527875Y191890D02*
D03*
X528875Y122890D02*
D03*
X534875Y200890D02*
D03*
X538875Y388890D02*
D03*
Y403890D02*
D03*
Y415890D02*
D03*
X567875Y132890D02*
D03*
Y350890D02*
D03*
Y362890D02*
D03*
Y374890D02*
D03*
Y386890D02*
D03*
X568875Y104890D02*
D03*
Y116890D02*
D03*
X579875Y350890D02*
D03*
Y362890D02*
D03*
Y374890D02*
D03*
Y386890D02*
D03*
X580875Y104890D02*
D03*
Y116890D02*
D03*
X591875Y350890D02*
D03*
Y362890D02*
D03*
X592875Y104890D02*
D03*
X593875Y376890D02*
D03*
X595875Y449290D02*
D03*
X634875Y430890D02*
D03*
Y446890D02*
D03*
X635875Y360890D02*
D03*
Y376890D02*
D03*
X636875Y206890D02*
D03*
X643875Y430890D02*
D03*
Y446890D02*
D03*
X644875Y391890D02*
D03*
X645875Y364890D02*
D03*
X649875Y346890D02*
D03*
X652875Y122890D02*
D03*
Y134890D02*
D03*
Y146890D02*
D03*
X656875Y256890D02*
D03*
X663875Y234890D02*
D03*
X664875Y122890D02*
D03*
Y134890D02*
D03*
Y146890D02*
D03*
X668875Y244890D02*
D03*
Y256890D02*
D03*
X676875Y122890D02*
D03*
X680875Y244890D02*
D03*
Y256890D02*
D03*
X688875Y122890D02*
D03*
X690875Y403890D02*
D03*
X693875Y425890D02*
D03*
Y437890D02*
D03*
Y449890D02*
D03*
Y461890D02*
D03*
X700875Y122890D02*
D03*
X705875Y425890D02*
D03*
Y437890D02*
D03*
Y449890D02*
D03*
Y461890D02*
D03*
X712875Y122890D02*
D03*
X724875Y151890D02*
D03*
Y163890D02*
D03*
Y175890D02*
D03*
X736875Y163890D02*
D03*
Y175890D02*
D03*
X738875Y361890D02*
D03*
Y375890D02*
D03*
X745875Y381890D02*
D03*
X762875Y457890D02*
D03*
X772875Y404890D02*
D03*
X798875Y329390D02*
D03*
D02*
D106*
X287875Y158890D02*
Y150890D01*
X291875Y146890*
X491875*
X520875Y175890*
Y351890*
X521875Y352890*
Y379890*
X518875Y382890*
X513875*
X510875Y385890*
Y391890*
X506875Y407890D02*
X507875D01*
X527875Y387890*
Y191890*
X511875Y355890D02*
Y360890D01*
X514875Y363890*
Y370890*
X538875Y388890D02*
X535875D01*
X534875Y387890*
Y200890*
X561375Y70890D02*
Y173890D01*
X543875Y191390*
Y206890*
X539875Y210890*
Y248990*
X549275*
X569875Y264540D02*
X562725D01*
X559875Y261690*
X549275*
X593875Y376890D02*
Y387890D01*
X604875Y398890*
Y440290*
X595875Y449290*
X611375Y513390D02*
Y505390D01*
X625875Y490890*
X726125*
X743125Y473890*
Y438890*
X636375Y513390D02*
Y504890D01*
X646375Y494890*
X730875*
X762875Y462890*
Y457890*
X645875Y364890D02*
Y380890D01*
X642875Y383890*
X629875*
X614875Y368890*
X601875*
X593875Y376890*
X690875Y403890D02*
X671875D01*
X659875Y415890*
Y447890*
X623875Y483890*
X579375*
X561375Y501890*
Y513390*
X736375D02*
Y509390D01*
X744875Y500890*
X748875*
X777875Y471890*
Y426890*
X785875Y418890*
Y399890*
X809875Y375890*
Y357390*
X796875Y344390*
X780875*
X738875Y361890D02*
X729875D01*
X719875Y371890*
Y392140*
X738875Y375890D02*
Y390000D01*
X743875Y395000*
X749875*
X740375Y419000D02*
Y428140D01*
X743125Y430890*
Y438890*
X773125Y270890D02*
X767875D01*
X758875Y279890*
Y351390*
X766875Y359390*
X780875*
X773125Y288890D02*
X768875D01*
X763875Y293890*
Y339390*
X768875Y344390*
X780875*
Y359390D02*
X795375D01*
X802875Y366890*
Y372890*
X779875Y395890*
Y417890*
X772875Y424890*
Y465890*
X737875Y500890*
X723875*
X711375Y513390*
D02*
D107*
X740375Y419000D02*
D03*
X749875Y395000D02*
D03*
X759375Y419000D02*
D03*
D02*
D108*
X523875Y435390D02*
D03*
Y458390D02*
D03*
D02*
D109*
X780875Y329390D02*
D03*
Y344390D02*
D03*
Y359390D02*
D03*
Y374390D02*
D03*
D02*
D110*
X815375Y309640D02*
D03*
Y393890D02*
D03*
X0Y0D02*
M02*
