%FSLAX34Y34*%
%MOMM*%
G04 EasyPC Gerber Version 18.0.6 Build 3620 *
%ADD80C,0.02540*%
%ADD81C,0.10000*%
%ADD10C,0.12700*%
X0Y0D02*
D02*
D10*
X37875Y156890D02*
X57875D01*
Y418890*
X37875*
Y156890*
Y418890*
X139875*
Y335890*
X169875*
Y327890*
X139875*
Y250890*
X169875*
Y242890*
X139875*
Y156890*
X37875*
X139875Y238890D02*
Y335890D01*
X213415Y243350D02*
Y270430D01*
X198335*
Y243350*
X213415*
X214415Y103350D02*
Y130430D01*
X199335*
Y103350*
X214415*
X217665Y194040D02*
X211315D01*
Y130540*
X282435*
Y194040*
X276085*
X217665Y334040D02*
X211315D01*
Y270540*
X282435*
Y334040*
X276085*
X292625Y138890D02*
X332625D01*
Y192890*
X292625*
Y138890*
Y278890D02*
X332625D01*
Y332890*
X292625*
Y278890*
X299875Y418890D02*
Y509890D01*
X196875*
Y417890*
X207875Y406890*
X287875*
X299875Y418890*
X336625Y138890D02*
X376625D01*
Y192890*
X336625*
Y138890*
Y278890D02*
X376625D01*
Y332890*
X336625*
Y278890*
X379335Y130430D02*
Y103350D01*
X394415*
Y130430*
X379335*
Y270430D02*
Y243350D01*
X394415*
Y270430*
X379335*
X397665Y194040D02*
X391315D01*
Y130540*
X462435*
Y194040*
X456085*
X398665Y334040D02*
X392315D01*
Y270540*
X463435*
Y334040*
X457085*
X426875Y417890D02*
Y508890D01*
X323875*
Y416890*
X334875Y405890*
X414875*
X426875Y417890*
X456875Y476890D02*
X466875D01*
Y486890*
X506875*
Y476890*
X516875*
Y536890*
X456875*
Y476890*
X506875Y380640D02*
Y460640D01*
X476875*
Y380640*
X506875*
X515335Y245350D02*
X542415D01*
Y260430*
X515335*
Y245350*
X520835Y380930D02*
Y346850D01*
X538915*
Y380930*
X520835*
X522835Y455930D02*
Y421850D01*
X540915*
Y455930*
X522835*
X545335Y245350D02*
X572415D01*
Y260430*
X545335*
Y245350*
X549025Y216190D02*
X594725D01*
Y187590*
X549025*
Y195540*
X552200Y201890*
X549025Y208240*
Y216190*
X550165Y190250D02*
G75*
G03X555485I2660D01*
G01*
G75*
G03X550165I-2660*
G01*
G36*
G75*
G03X555485I2660*
G01*
G75*
G03X550165I-2660*
G01*
G37*
X560415Y132350D02*
Y159430D01*
X545335*
Y132350*
X560415*
X560835Y143850D02*
X594915D01*
Y161930*
X560835*
Y143850*
X565575Y345040D02*
Y390740D01*
X594175*
Y345040*
X586225*
X579875Y348215*
X573525Y345040*
X565575*
Y420040D02*
Y465740D01*
X594175*
Y420040*
X586225*
X579875Y423215*
X573525Y420040*
X565575*
X576335Y245350D02*
X603415D01*
Y260430*
X576335*
Y245350*
X591515Y346180D02*
G75*
G03Y351500J2660D01*
G01*
G75*
G03Y346180J-2660*
G01*
G36*
G75*
G03Y351500J2660*
G01*
G75*
G03Y346180J-2660*
G01*
G37*
Y421180D02*
G75*
G03Y426500J2660D01*
G01*
G75*
G03Y421180J-2660*
G01*
G36*
G75*
G03Y426500J2660*
G01*
G75*
G03Y421180J-2660*
G01*
G37*
X597875Y414890D02*
X561875D01*
Y399890*
X597875*
Y414890*
X598875Y339890D02*
X562875D01*
Y324890*
X598875*
Y339890*
X606335Y214350D02*
X633415D01*
Y229430*
X606335*
Y214350*
Y232350D02*
X633415D01*
Y247430*
X606335*
Y232350*
Y251350D02*
X633415D01*
Y266430*
X606335*
Y251350*
X632415Y355350D02*
Y382430D01*
X617335*
Y355350*
X632415*
Y425350D02*
Y452430D01*
X617335*
Y425350*
X632415*
X656875Y207890D02*
G75*
G03Y111890J-48000D01*
G01*
G75*
G03Y207890J48000*
G01*
X661415Y425350D02*
Y452430D01*
X646335*
Y425350*
X661415*
X663475Y415590D02*
Y466290D01*
X734875*
Y415590*
X702925*
Y419340*
X695425*
Y415590*
X663475*
X669875Y358540D02*
Y379240D01*
X711875*
Y358540*
X694625*
Y362290*
X687125*
Y358540*
X669875*
X672675Y404040D02*
G75*
G03Y398440J-2800D01*
G01*
G75*
G03Y404040J2800*
G01*
G36*
G75*
G03Y398440J-2800*
G01*
G75*
G03Y404040J2800*
G01*
G37*
X674915Y232930D02*
X640835D01*
Y214850*
X674915*
Y232930*
X680415Y354430D02*
X653335D01*
Y339350*
X680415*
Y354430*
X682125Y314890D02*
X602125D01*
Y284890*
X682125*
Y314890*
X709075Y359740D02*
G75*
G03Y365340J2800D01*
G01*
G75*
G03Y359740J-2800*
G01*
G36*
G75*
G03Y365340J2800*
G01*
G75*
G03Y359740J-2800*
G01*
G37*
X711875Y405240D02*
Y384540D01*
X669875*
Y405240*
X687125*
Y401490*
X694625*
Y405240*
X711875*
X738335Y440430D02*
Y413350D01*
X753415*
Y440430*
X738335*
X753415Y443350D02*
Y470430D01*
X738335*
Y443350*
X753415*
X810875Y36890D02*
X536875D01*
Y94390*
X555875*
Y86890*
X565875*
Y94390*
X780875*
Y86890*
X790875*
Y94390*
X810875*
Y36890*
Y479390D02*
X536875D01*
Y536890*
X555875*
Y529390*
X565875*
Y536890*
X780875*
Y529390*
X790875*
Y536890*
X810875*
Y479390*
D02*
D80*
X81735Y472250D02*
X97855D01*
Y470390*
X94755*
X92895Y469770*
X92275Y467910*
Y449930*
X107775Y466050*
Y468530*
X106535Y469770*
X104055Y470390*
X102815*
Y472250*
X118315*
Y470390*
X117075*
X113975Y469150*
X110255Y466670*
X101575Y457990*
X113975Y439390*
X116455Y437530*
X118935Y436910*
X120175*
Y435050*
X103435*
Y436910*
X105295*
X107155*
X108395*
X109015Y438150*
X108395Y438770*
X98475Y454270*
X92275Y448070*
Y438770*
X92895Y437530*
X94755Y436910*
X97855*
Y435050*
X81735*
Y436910*
X84835*
X86695Y437530*
X87315Y438770*
Y468530*
X86695Y469770*
X84215Y470390*
X81735*
Y472250*
X122035D02*
X140635D01*
X145595Y471630*
X149315Y469770*
X151795Y466670*
X152415Y462950*
Y461090*
X151175Y458610*
X149315Y457370*
X147455Y455510*
X144355Y454890*
X140015Y454270*
X143115Y453030*
X144975Y452410*
X146835Y449930*
X147455Y447450*
X148695Y443730*
X149315Y440630*
X150555Y438770*
X151175Y437530*
X151795*
X153035*
X153655Y438770*
X154275Y440630*
X154895Y443110*
X156755*
X156135Y439390*
X154895Y436290*
X153035Y435050*
X149935Y434430*
X146835Y435050*
X144975Y438150*
X144355Y440630*
X143735Y445590*
X143115Y448690*
X142495Y450550*
X140015Y452410*
X135675Y453650*
X132575*
Y438770*
X133195Y437530*
X135055Y436910*
X138155*
Y435050*
X122035*
Y436910*
X125135*
X126995Y437530*
X127615Y438770*
Y468530*
X126995Y469770*
X125135Y470390*
X122035*
Y472250*
X132575Y455510D02*
X136915D01*
X140635Y456130*
X143735Y457370*
X145595Y459230*
X146215Y462950*
X145595Y467290*
X143115Y469770*
X140635Y470390*
X136915*
X134435*
X133195Y469770*
X132575Y468530*
Y455510*
X159235Y472250D02*
X177215D01*
X182795Y471630*
X186515Y469150*
X188995Y466050*
X189615Y461710*
X188995Y457990*
X186515Y454890*
X182175Y452410*
X176595Y451790*
X169775*
Y438770*
X170395Y437530*
X172255Y436910*
X176595*
Y435050*
X159235*
Y436910*
X162955*
X164195Y437530*
X164815Y438770*
Y467910*
X164195Y469770*
X161715Y470390*
X159235*
Y472250*
X169775Y453650D02*
X174735D01*
X178455Y454270*
X181555Y455510*
X182795Y457990*
X183415Y462330*
Y464810*
X182795Y466670*
X179695Y469770*
X177215Y470390*
X174115*
X171635*
X170395Y469770*
X169775Y467910*
Y453650*
X149085Y434600D02*
X150785D01*
X147895Y434838D02*
X151975D01*
X81735Y435076D02*
X97855D01*
X103435D02*
X120175D01*
X122035D02*
X138155D01*
X146819D02*
X153074D01*
X159235D02*
X176595D01*
X81735Y435314D02*
X97855D01*
X103435D02*
X120175D01*
X122035D02*
X138155D01*
X146677D02*
X153431D01*
X159235D02*
X176595D01*
X81735Y435552D02*
X97855D01*
X103435D02*
X120175D01*
X122035D02*
X138155D01*
X146534D02*
X153788D01*
X159235D02*
X176595D01*
X81735Y435790D02*
X97855D01*
X103435D02*
X120175D01*
X122035D02*
X138155D01*
X146391D02*
X154145D01*
X159235D02*
X176595D01*
X81735Y436028D02*
X97855D01*
X103435D02*
X120175D01*
X122035D02*
X138155D01*
X146248D02*
X154502D01*
X159235D02*
X176595D01*
X81735Y436266D02*
X97855D01*
X103435D02*
X120175D01*
X122035D02*
X138155D01*
X146105D02*
X154859D01*
X159235D02*
X176595D01*
X81735Y436504D02*
X97855D01*
X103435D02*
X120175D01*
X122035D02*
X138155D01*
X145963D02*
X154981D01*
X159235D02*
X176595D01*
X81735Y436742D02*
X97855D01*
X103435D02*
X120175D01*
X122035D02*
X138155D01*
X145820D02*
X155076D01*
X159235D02*
X176595D01*
X85045Y436980D02*
X94545D01*
X108430D02*
X118655D01*
X125345D02*
X134845D01*
X145677D02*
X155171D01*
X163095D02*
X172045D01*
X85759Y437218D02*
X93831D01*
X108549D02*
X117703D01*
X126059D02*
X134131D01*
X145534D02*
X155266D01*
X163571D02*
X171331D01*
X86473Y437456D02*
X93117D01*
X108668D02*
X116751D01*
X126773D02*
X133417D01*
X145391D02*
X155361D01*
X164047D02*
X170617D01*
X86777Y437694D02*
X92813D01*
X108787D02*
X116236D01*
X127077D02*
X133113D01*
X145249D02*
X151093D01*
X153117D02*
X155457D01*
X164277D02*
X170313D01*
X86896Y437932D02*
X92694D01*
X108906D02*
X115919D01*
X127196D02*
X132994D01*
X145106D02*
X150974D01*
X153236D02*
X155552D01*
X164396D02*
X170194D01*
X87015Y438170D02*
X92575D01*
X108995D02*
X115602D01*
X127315D02*
X132875D01*
X144970D02*
X150855D01*
X153355D02*
X155647D01*
X164515D02*
X170075D01*
X87134Y438408D02*
X92456D01*
X108757D02*
X115284D01*
X127434D02*
X132756D01*
X144910D02*
X150736D01*
X153474D02*
X155742D01*
X164634D02*
X169956D01*
X87253Y438646D02*
X92337D01*
X108519D02*
X114967D01*
X127553D02*
X132637D01*
X144851D02*
X150617D01*
X153593D02*
X155837D01*
X164753D02*
X169837D01*
X87315Y438884D02*
X92275D01*
X108322D02*
X114650D01*
X127615D02*
X132575D01*
X144791D02*
X150479D01*
X153693D02*
X155933D01*
X164815D02*
X169775D01*
X87315Y439122D02*
X92275D01*
X108170D02*
X114332D01*
X127615D02*
X132575D01*
X144732D02*
X150320D01*
X153772D02*
X156028D01*
X164815D02*
X169775D01*
X87315Y439360D02*
X92275D01*
X108017D02*
X114015D01*
X127615D02*
X132575D01*
X144672D02*
X150162D01*
X153852D02*
X156123D01*
X164815D02*
X169775D01*
X87315Y439598D02*
X92275D01*
X107865D02*
X113836D01*
X127615D02*
X132575D01*
X144613D02*
X150003D01*
X153931D02*
X156170D01*
X164815D02*
X169775D01*
X87315Y439836D02*
X92275D01*
X107713D02*
X113678D01*
X127615D02*
X132575D01*
X144553D02*
X149844D01*
X154010D02*
X156209D01*
X164815D02*
X169775D01*
X87315Y440074D02*
X92275D01*
X107560D02*
X113519D01*
X127615D02*
X132575D01*
X144494D02*
X149686D01*
X154090D02*
X156249D01*
X164815D02*
X169775D01*
X87315Y440312D02*
X92275D01*
X107408D02*
X113360D01*
X127615D02*
X132575D01*
X144434D02*
X149527D01*
X154169D02*
X156289D01*
X164815D02*
X169775D01*
X87315Y440550D02*
X92275D01*
X107256D02*
X113202D01*
X127615D02*
X132575D01*
X144375D02*
X149368D01*
X154248D02*
X156328D01*
X164815D02*
X169775D01*
X87315Y440788D02*
X92275D01*
X107103D02*
X113043D01*
X127615D02*
X132575D01*
X144335D02*
X149283D01*
X154315D02*
X156368D01*
X164815D02*
X169775D01*
X87315Y441026D02*
X92275D01*
X106951D02*
X112884D01*
X127615D02*
X132575D01*
X144305D02*
X149236D01*
X154374D02*
X156408D01*
X164815D02*
X169775D01*
X87315Y441264D02*
X92275D01*
X106799D02*
X112726D01*
X127615D02*
X132575D01*
X144276D02*
X149188D01*
X154434D02*
X156447D01*
X164815D02*
X169775D01*
X87315Y441502D02*
X92275D01*
X106647D02*
X112567D01*
X127615D02*
X132575D01*
X144246D02*
X149141D01*
X154493D02*
X156487D01*
X164815D02*
X169775D01*
X87315Y441740D02*
X92275D01*
X106494D02*
X112408D01*
X127615D02*
X132575D01*
X144216D02*
X149093D01*
X154553D02*
X156527D01*
X164815D02*
X169775D01*
X87315Y441978D02*
X92275D01*
X106342D02*
X112250D01*
X127615D02*
X132575D01*
X144186D02*
X149045D01*
X154612D02*
X156566D01*
X164815D02*
X169775D01*
X87315Y442216D02*
X92275D01*
X106190D02*
X112091D01*
X127615D02*
X132575D01*
X144157D02*
X148998D01*
X154672D02*
X156606D01*
X164815D02*
X169775D01*
X87315Y442454D02*
X92275D01*
X106037D02*
X111932D01*
X127615D02*
X132575D01*
X144127D02*
X148950D01*
X154731D02*
X156646D01*
X164815D02*
X169775D01*
X87315Y442692D02*
X92275D01*
X105885D02*
X111774D01*
X127615D02*
X132575D01*
X144097D02*
X148903D01*
X154791D02*
X156685D01*
X164815D02*
X169775D01*
X87315Y442930D02*
X92275D01*
X105733D02*
X111615D01*
X127615D02*
X132575D01*
X144067D02*
X148855D01*
X154850D02*
X156725D01*
X164815D02*
X169775D01*
X87315Y443168D02*
X92275D01*
X105580D02*
X111456D01*
X127615D02*
X132575D01*
X144038D02*
X148807D01*
X164815D02*
X169775D01*
X87315Y443406D02*
X92275D01*
X105428D02*
X111298D01*
X127615D02*
X132575D01*
X144008D02*
X148760D01*
X164815D02*
X169775D01*
X87315Y443644D02*
X92275D01*
X105276D02*
X111139D01*
X127615D02*
X132575D01*
X143978D02*
X148712D01*
X164815D02*
X169775D01*
X87315Y443882D02*
X92275D01*
X105123D02*
X110980D01*
X127615D02*
X132575D01*
X143948D02*
X148644D01*
X164815D02*
X169775D01*
X87315Y444120D02*
X92275D01*
X104971D02*
X110822D01*
X127615D02*
X132575D01*
X143919D02*
X148565D01*
X164815D02*
X169775D01*
X87315Y444358D02*
X92275D01*
X104819D02*
X110663D01*
X127615D02*
X132575D01*
X143889D02*
X148486D01*
X164815D02*
X169775D01*
X87315Y444596D02*
X92275D01*
X104666D02*
X110504D01*
X127615D02*
X132575D01*
X143859D02*
X148406D01*
X164815D02*
X169775D01*
X87315Y444834D02*
X92275D01*
X104514D02*
X110346D01*
X127615D02*
X132575D01*
X143829D02*
X148327D01*
X164815D02*
X169775D01*
X87315Y445072D02*
X92275D01*
X104362D02*
X110187D01*
X127615D02*
X132575D01*
X143800D02*
X148248D01*
X164815D02*
X169775D01*
X87315Y445310D02*
X92275D01*
X104209D02*
X110028D01*
X127615D02*
X132575D01*
X143770D02*
X148168D01*
X164815D02*
X169775D01*
X87315Y445548D02*
X92275D01*
X104057D02*
X109870D01*
X127615D02*
X132575D01*
X143740D02*
X148089D01*
X164815D02*
X169775D01*
X87315Y445786D02*
X92275D01*
X103905D02*
X109711D01*
X127615D02*
X132575D01*
X143696D02*
X148010D01*
X164815D02*
X169775D01*
X87315Y446024D02*
X92275D01*
X103752D02*
X109552D01*
X127615D02*
X132575D01*
X143648D02*
X147930D01*
X164815D02*
X169775D01*
X87315Y446262D02*
X92275D01*
X103600D02*
X109394D01*
X127615D02*
X132575D01*
X143601D02*
X147851D01*
X164815D02*
X169775D01*
X87315Y446500D02*
X92275D01*
X103448D02*
X109235D01*
X127615D02*
X132575D01*
X143553D02*
X147772D01*
X164815D02*
X169775D01*
X87315Y446738D02*
X92275D01*
X103295D02*
X109076D01*
X127615D02*
X132575D01*
X143505D02*
X147692D01*
X164815D02*
X169775D01*
X87315Y446976D02*
X92275D01*
X103143D02*
X108918D01*
X127615D02*
X132575D01*
X143458D02*
X147613D01*
X164815D02*
X169775D01*
X87315Y447214D02*
X92275D01*
X102991D02*
X108759D01*
X127615D02*
X132575D01*
X143410D02*
X147534D01*
X164815D02*
X169775D01*
X87315Y447452D02*
X92275D01*
X102839D02*
X108600D01*
X127615D02*
X132575D01*
X143363D02*
X147455D01*
X164815D02*
X169775D01*
X87315Y447690D02*
X92275D01*
X102686D02*
X108442D01*
X127615D02*
X132575D01*
X143315D02*
X147395D01*
X164815D02*
X169775D01*
X87315Y447928D02*
X92275D01*
X102534D02*
X108283D01*
X127615D02*
X132575D01*
X143267D02*
X147336D01*
X164815D02*
X169775D01*
X87315Y448166D02*
X92371D01*
X102382D02*
X108124D01*
X127615D02*
X132575D01*
X143220D02*
X147276D01*
X164815D02*
X169775D01*
X87315Y448404D02*
X92609D01*
X102229D02*
X107966D01*
X127615D02*
X132575D01*
X143172D02*
X147217D01*
X164815D02*
X169775D01*
X87315Y448642D02*
X92847D01*
X102077D02*
X107807D01*
X127615D02*
X132575D01*
X143125D02*
X147157D01*
X164815D02*
X169775D01*
X87315Y448880D02*
X93085D01*
X101925D02*
X107648D01*
X127615D02*
X132575D01*
X143052D02*
X147098D01*
X164815D02*
X169775D01*
X87315Y449118D02*
X93323D01*
X101772D02*
X107490D01*
X127615D02*
X132575D01*
X142972D02*
X147038D01*
X164815D02*
X169775D01*
X87315Y449356D02*
X93561D01*
X101620D02*
X107331D01*
X127615D02*
X132575D01*
X142893D02*
X146979D01*
X164815D02*
X169775D01*
X87315Y449594D02*
X93799D01*
X101468D02*
X107172D01*
X127615D02*
X132575D01*
X142814D02*
X146919D01*
X164815D02*
X169775D01*
X87315Y449832D02*
X94037D01*
X101315D02*
X107014D01*
X127615D02*
X132575D01*
X142734D02*
X146860D01*
X164815D02*
X169775D01*
X87315Y450070D02*
X92275D01*
X92410D02*
X94275D01*
X101163D02*
X106855D01*
X127615D02*
X132575D01*
X142655D02*
X146730D01*
X164815D02*
X169775D01*
X87315Y450308D02*
X92275D01*
X92638D02*
X94513D01*
X101011D02*
X106696D01*
X127615D02*
X132575D01*
X142576D02*
X146552D01*
X164815D02*
X169775D01*
X87315Y450546D02*
X92275D01*
X92867D02*
X94751D01*
X100858D02*
X106538D01*
X127615D02*
X132575D01*
X142500D02*
X146373D01*
X164815D02*
X169775D01*
X87315Y450784D02*
X92275D01*
X93096D02*
X94989D01*
X100706D02*
X106379D01*
X127615D02*
X132575D01*
X142183D02*
X146195D01*
X164815D02*
X169775D01*
X87315Y451022D02*
X92275D01*
X93325D02*
X95227D01*
X100554D02*
X106220D01*
X127615D02*
X132575D01*
X141866D02*
X146016D01*
X164815D02*
X169775D01*
X87315Y451260D02*
X92275D01*
X93554D02*
X95465D01*
X100401D02*
X106062D01*
X127615D02*
X132575D01*
X141548D02*
X145838D01*
X164815D02*
X169775D01*
X87315Y451498D02*
X92275D01*
X93783D02*
X95703D01*
X100249D02*
X105903D01*
X127615D02*
X132575D01*
X141231D02*
X145659D01*
X164815D02*
X169775D01*
X87315Y451736D02*
X92275D01*
X94012D02*
X95941D01*
X100097D02*
X105744D01*
X127615D02*
X132575D01*
X140914D02*
X145481D01*
X164815D02*
X169775D01*
X87315Y451974D02*
X92275D01*
X94240D02*
X96179D01*
X99944D02*
X105586D01*
X127615D02*
X132575D01*
X140596D02*
X145302D01*
X164815D02*
X178251D01*
X87315Y452212D02*
X92275D01*
X94469D02*
X96417D01*
X99792D02*
X105427D01*
X127615D02*
X132575D01*
X140279D02*
X145124D01*
X164815D02*
X180393D01*
X87315Y452450D02*
X92275D01*
X94698D02*
X96655D01*
X99640D02*
X105268D01*
X127615D02*
X132575D01*
X139875D02*
X144855D01*
X164815D02*
X182245D01*
X87315Y452688D02*
X92275D01*
X94927D02*
X96893D01*
X99487D02*
X105110D01*
X127615D02*
X132575D01*
X139042D02*
X144141D01*
X164815D02*
X182661D01*
X87315Y452926D02*
X92275D01*
X95156D02*
X97131D01*
X99335D02*
X104951D01*
X127615D02*
X132575D01*
X138209D02*
X143427D01*
X164815D02*
X183078D01*
X87315Y453164D02*
X92275D01*
X95385D02*
X97369D01*
X99183D02*
X104792D01*
X127615D02*
X132575D01*
X137376D02*
X142780D01*
X164815D02*
X183494D01*
X87315Y453402D02*
X92275D01*
X95613D02*
X97607D01*
X99031D02*
X104634D01*
X127615D02*
X132575D01*
X136543D02*
X142185D01*
X164815D02*
X183911D01*
X87315Y453640D02*
X92275D01*
X95842D02*
X97845D01*
X98878D02*
X104475D01*
X127615D02*
X132575D01*
X135710D02*
X141590D01*
X164815D02*
X184327D01*
X87315Y453878D02*
X92275D01*
X96071D02*
X98083D01*
X98726D02*
X104316D01*
X127615D02*
X140995D01*
X164815D02*
X169775D01*
X176103D02*
X184744D01*
X87315Y454116D02*
X92275D01*
X96300D02*
X98321D01*
X98574D02*
X104158D01*
X127615D02*
X140400D01*
X164815D02*
X169775D01*
X177531D02*
X185160D01*
X87315Y454354D02*
X92275D01*
X96529D02*
X103999D01*
X127615D02*
X140603D01*
X164815D02*
X169775D01*
X178665D02*
X185577D01*
X87315Y454592D02*
X92275D01*
X96758D02*
X103840D01*
X127615D02*
X142269D01*
X164815D02*
X169775D01*
X179260D02*
X185993D01*
X87315Y454830D02*
X92275D01*
X96987D02*
X103682D01*
X127615D02*
X143935D01*
X164815D02*
X169775D01*
X179855D02*
X186410D01*
X87315Y455068D02*
X92275D01*
X97215D02*
X103523D01*
X127615D02*
X145245D01*
X164815D02*
X169775D01*
X180450D02*
X186657D01*
X87315Y455306D02*
X92275D01*
X97444D02*
X103364D01*
X127615D02*
X146435D01*
X164815D02*
X169775D01*
X181045D02*
X186848D01*
X87315Y455544D02*
X92275D01*
X97673D02*
X103206D01*
X127615D02*
X132575D01*
X137119D02*
X147489D01*
X164815D02*
X169775D01*
X181572D02*
X187038D01*
X87315Y455782D02*
X92275D01*
X97902D02*
X103047D01*
X127615D02*
X132575D01*
X138547D02*
X147727D01*
X164815D02*
X169775D01*
X181691D02*
X187229D01*
X87315Y456020D02*
X92275D01*
X98131D02*
X102888D01*
X127615D02*
X132575D01*
X139975D02*
X147965D01*
X164815D02*
X169775D01*
X181810D02*
X187419D01*
X87315Y456258D02*
X92275D01*
X98360D02*
X102730D01*
X127615D02*
X132575D01*
X140955D02*
X148203D01*
X164815D02*
X169775D01*
X181929D02*
X187609D01*
X87315Y456496D02*
X92275D01*
X98588D02*
X102571D01*
X127615D02*
X132575D01*
X141550D02*
X148441D01*
X164815D02*
X169775D01*
X182048D02*
X187800D01*
X87315Y456734D02*
X92275D01*
X98817D02*
X102412D01*
X127615D02*
X132575D01*
X142145D02*
X148679D01*
X164815D02*
X169775D01*
X182167D02*
X187990D01*
X87315Y456972D02*
X92275D01*
X99046D02*
X102254D01*
X127615D02*
X132575D01*
X142740D02*
X148917D01*
X164815D02*
X169775D01*
X182286D02*
X188181D01*
X87315Y457210D02*
X92275D01*
X99275D02*
X102095D01*
X127615D02*
X132575D01*
X143335D02*
X149155D01*
X164815D02*
X169775D01*
X182405D02*
X188371D01*
X87315Y457448D02*
X92275D01*
X99504D02*
X101936D01*
X127615D02*
X132575D01*
X143813D02*
X149432D01*
X164815D02*
X169775D01*
X182524D02*
X188561D01*
X87315Y457686D02*
X92275D01*
X99733D02*
X101778D01*
X127615D02*
X132575D01*
X144051D02*
X149789D01*
X164815D02*
X169775D01*
X182643D02*
X188752D01*
X87315Y457924D02*
X92275D01*
X99962D02*
X101619D01*
X127615D02*
X132575D01*
X144289D02*
X150146D01*
X164815D02*
X169775D01*
X182762D02*
X188942D01*
X87315Y458162D02*
X92275D01*
X100190D02*
X101747D01*
X127615D02*
X132575D01*
X144527D02*
X150503D01*
X164815D02*
X169775D01*
X182820D02*
X189024D01*
X87315Y458400D02*
X92275D01*
X100419D02*
X101985D01*
X127615D02*
X132575D01*
X144765D02*
X150860D01*
X164815D02*
X169775D01*
X182854D02*
X189063D01*
X87315Y458638D02*
X92275D01*
X100648D02*
X102223D01*
X127615D02*
X132575D01*
X145003D02*
X151189D01*
X164815D02*
X169775D01*
X182888D02*
X189103D01*
X87315Y458876D02*
X92275D01*
X100877D02*
X102461D01*
X127615D02*
X132575D01*
X145241D02*
X151308D01*
X164815D02*
X169775D01*
X182922D02*
X189143D01*
X87315Y459114D02*
X92275D01*
X101106D02*
X102699D01*
X127615D02*
X132575D01*
X145479D02*
X151427D01*
X164815D02*
X169775D01*
X182956D02*
X189182D01*
X87315Y459352D02*
X92275D01*
X101335D02*
X102937D01*
X127615D02*
X132575D01*
X145615D02*
X151546D01*
X164815D02*
X169775D01*
X182990D02*
X189222D01*
X87315Y459590D02*
X92275D01*
X101563D02*
X103175D01*
X127615D02*
X132575D01*
X145655D02*
X151665D01*
X164815D02*
X169775D01*
X183024D02*
X189262D01*
X87315Y459828D02*
X92275D01*
X101792D02*
X103413D01*
X127615D02*
X132575D01*
X145695D02*
X151784D01*
X164815D02*
X169775D01*
X183058D02*
X189301D01*
X87315Y460066D02*
X92275D01*
X102021D02*
X103651D01*
X127615D02*
X132575D01*
X145734D02*
X151903D01*
X164815D02*
X169775D01*
X183092D02*
X189341D01*
X87315Y460304D02*
X92275D01*
X102250D02*
X103889D01*
X127615D02*
X132575D01*
X145774D02*
X152022D01*
X164815D02*
X169775D01*
X183126D02*
X189381D01*
X87315Y460542D02*
X92275D01*
X102479D02*
X104127D01*
X127615D02*
X132575D01*
X145814D02*
X152141D01*
X164815D02*
X169775D01*
X183160D02*
X189420D01*
X87315Y460780D02*
X92275D01*
X102708D02*
X104365D01*
X127615D02*
X132575D01*
X145853D02*
X152260D01*
X164815D02*
X169775D01*
X183194D02*
X189460D01*
X87315Y461018D02*
X92275D01*
X102937D02*
X104603D01*
X127615D02*
X132575D01*
X145893D02*
X152379D01*
X164815D02*
X169775D01*
X183228D02*
X189500D01*
X87315Y461256D02*
X92275D01*
X103165D02*
X104841D01*
X127615D02*
X132575D01*
X145933D02*
X152415D01*
X164815D02*
X169775D01*
X183262D02*
X189539D01*
X87315Y461494D02*
X92275D01*
X103394D02*
X105079D01*
X127615D02*
X132575D01*
X145972D02*
X152415D01*
X164815D02*
X169775D01*
X183296D02*
X189579D01*
X87315Y461732D02*
X92275D01*
X103623D02*
X105317D01*
X127615D02*
X132575D01*
X146012D02*
X152415D01*
X164815D02*
X169775D01*
X183330D02*
X189612D01*
X87315Y461970D02*
X92275D01*
X103852D02*
X105555D01*
X127615D02*
X132575D01*
X146052D02*
X152415D01*
X164815D02*
X169775D01*
X183364D02*
X189578D01*
X87315Y462208D02*
X92275D01*
X104081D02*
X105793D01*
X127615D02*
X132575D01*
X146091D02*
X152415D01*
X164815D02*
X169775D01*
X183398D02*
X189544D01*
X87315Y462446D02*
X92275D01*
X104310D02*
X106031D01*
X127615D02*
X132575D01*
X146131D02*
X152415D01*
X164815D02*
X169775D01*
X183415D02*
X189510D01*
X87315Y462684D02*
X92275D01*
X104538D02*
X106269D01*
X127615D02*
X132575D01*
X146171D02*
X152415D01*
X164815D02*
X169775D01*
X183415D02*
X189476D01*
X87315Y462922D02*
X92275D01*
X104767D02*
X106507D01*
X127615D02*
X132575D01*
X146210D02*
X152415D01*
X164815D02*
X169775D01*
X183415D02*
X189442D01*
X87315Y463160D02*
X92275D01*
X104996D02*
X106745D01*
X127615D02*
X132575D01*
X146185D02*
X152380D01*
X164815D02*
X169775D01*
X183415D02*
X189408D01*
X87315Y463398D02*
X92275D01*
X105225D02*
X106983D01*
X127615D02*
X132575D01*
X146151D02*
X152340D01*
X164815D02*
X169775D01*
X183415D02*
X189374D01*
X87315Y463636D02*
X92275D01*
X105454D02*
X107221D01*
X127615D02*
X132575D01*
X146117D02*
X152301D01*
X164815D02*
X169775D01*
X183415D02*
X189340D01*
X87315Y463874D02*
X92275D01*
X105683D02*
X107459D01*
X127615D02*
X132575D01*
X146083D02*
X152261D01*
X164815D02*
X169775D01*
X183415D02*
X189306D01*
X87315Y464112D02*
X92275D01*
X105912D02*
X107697D01*
X127615D02*
X132575D01*
X146049D02*
X152221D01*
X164815D02*
X169775D01*
X183415D02*
X189272D01*
X87315Y464350D02*
X92275D01*
X106140D02*
X107935D01*
X127615D02*
X132575D01*
X146015D02*
X152182D01*
X164815D02*
X169775D01*
X183415D02*
X189238D01*
X87315Y464588D02*
X92275D01*
X106369D02*
X108173D01*
X127615D02*
X132575D01*
X145981D02*
X152142D01*
X164815D02*
X169775D01*
X183415D02*
X189204D01*
X87315Y464826D02*
X92275D01*
X106598D02*
X108411D01*
X127615D02*
X132575D01*
X145947D02*
X152102D01*
X164815D02*
X169775D01*
X183410D02*
X189170D01*
X87315Y465064D02*
X92275D01*
X106827D02*
X108649D01*
X127615D02*
X132575D01*
X145913D02*
X152063D01*
X164815D02*
X169775D01*
X183330D02*
X189136D01*
X87315Y465302D02*
X92275D01*
X107056D02*
X108887D01*
X127615D02*
X132575D01*
X145879D02*
X152023D01*
X164815D02*
X169775D01*
X183251D02*
X189102D01*
X87315Y465540D02*
X92275D01*
X107285D02*
X109125D01*
X127615D02*
X132575D01*
X145845D02*
X151983D01*
X164815D02*
X169775D01*
X183172D02*
X189068D01*
X87315Y465778D02*
X92275D01*
X107513D02*
X109363D01*
X127615D02*
X132575D01*
X145811D02*
X151944D01*
X164815D02*
X169775D01*
X183092D02*
X189034D01*
X87315Y466016D02*
X92275D01*
X107742D02*
X109601D01*
X127615D02*
X132575D01*
X145777D02*
X151904D01*
X164815D02*
X169775D01*
X183013D02*
X189000D01*
X87315Y466254D02*
X92275D01*
X107775D02*
X109839D01*
X127615D02*
X132575D01*
X145743D02*
X151864D01*
X164815D02*
X169775D01*
X182934D02*
X188832D01*
X87315Y466492D02*
X92275D01*
X107775D02*
X110077D01*
X127615D02*
X132575D01*
X145709D02*
X151825D01*
X164815D02*
X169775D01*
X182854D02*
X188641D01*
X87315Y466730D02*
X92275D01*
X107775D02*
X110345D01*
X127615D02*
X132575D01*
X145675D02*
X151747D01*
X164815D02*
X169775D01*
X182735D02*
X188451D01*
X87315Y466968D02*
X92275D01*
X107775D02*
X110702D01*
X127615D02*
X132575D01*
X145641D02*
X151557D01*
X164815D02*
X169775D01*
X182497D02*
X188261D01*
X87315Y467206D02*
X92275D01*
X107775D02*
X111059D01*
X127615D02*
X132575D01*
X145607D02*
X151366D01*
X164815D02*
X169775D01*
X182259D02*
X188070D01*
X87315Y467444D02*
X92275D01*
X107775D02*
X111416D01*
X127615D02*
X132575D01*
X145441D02*
X151176D01*
X164815D02*
X169775D01*
X182021D02*
X187880D01*
X87315Y467682D02*
X92275D01*
X107775D02*
X111773D01*
X127615D02*
X132575D01*
X145203D02*
X150985D01*
X164815D02*
X169775D01*
X181783D02*
X187689D01*
X87315Y467920D02*
X92278D01*
X107775D02*
X112130D01*
X127615D02*
X132575D01*
X144965D02*
X150795D01*
X164812D02*
X169778D01*
X181545D02*
X187499D01*
X87315Y468158D02*
X92358D01*
X107775D02*
X112487D01*
X127615D02*
X132575D01*
X144727D02*
X150605D01*
X164732D02*
X169858D01*
X181307D02*
X187309D01*
X87315Y468396D02*
X92437D01*
X107775D02*
X112844D01*
X127615D02*
X132575D01*
X144489D02*
X150414D01*
X164653D02*
X169937D01*
X181069D02*
X187118D01*
X87263Y468634D02*
X92516D01*
X107671D02*
X113201D01*
X127563D02*
X132627D01*
X144251D02*
X150224D01*
X164574D02*
X170016D01*
X180831D02*
X186928D01*
X87144Y468872D02*
X92596D01*
X107433D02*
X113558D01*
X127444D02*
X132746D01*
X144013D02*
X150033D01*
X164494D02*
X170096D01*
X180593D02*
X186737D01*
X87025Y469110D02*
X92675D01*
X107195D02*
X113915D01*
X127325D02*
X132865D01*
X143775D02*
X149843D01*
X164415D02*
X170175D01*
X180355D02*
X186547D01*
X86906Y469348D02*
X92754D01*
X106957D02*
X114470D01*
X127206D02*
X132984D01*
X143537D02*
X149653D01*
X164336D02*
X170254D01*
X180117D02*
X186218D01*
X86787Y469586D02*
X92834D01*
X106719D02*
X115065D01*
X127087D02*
X133103D01*
X143299D02*
X149462D01*
X164256D02*
X170334D01*
X179879D02*
X185861D01*
X86479Y469824D02*
X93057D01*
X106319D02*
X115660D01*
X126833D02*
X133303D01*
X142899D02*
X149207D01*
X163979D02*
X170503D01*
X179479D02*
X185504D01*
X85527Y470062D02*
X93771D01*
X105367D02*
X116255D01*
X126119D02*
X133779D01*
X141947D02*
X148731D01*
X163027D02*
X170979D01*
X178527D02*
X185147D01*
X84575Y470300D02*
X94485D01*
X104415D02*
X116850D01*
X125405D02*
X134255D01*
X140995D02*
X148255D01*
X162075D02*
X171455D01*
X177575D02*
X184790D01*
X81735Y470538D02*
X97855D01*
X102815D02*
X118315D01*
X122035D02*
X147779D01*
X159235D02*
X184433D01*
X81735Y470776D02*
X97855D01*
X102815D02*
X118315D01*
X122035D02*
X147303D01*
X159235D02*
X184076D01*
X81735Y471014D02*
X97855D01*
X102815D02*
X118315D01*
X122035D02*
X146827D01*
X159235D02*
X183719D01*
X81735Y471252D02*
X97855D01*
X102815D02*
X118315D01*
X122035D02*
X146351D01*
X159235D02*
X183362D01*
X81735Y471490D02*
X97855D01*
X102815D02*
X118315D01*
X122035D02*
X145875D01*
X159235D02*
X183005D01*
X81735Y471728D02*
X97855D01*
X102815D02*
X118315D01*
X122035D02*
X144811D01*
X159235D02*
X181913D01*
X81735Y471966D02*
X97855D01*
X102815D02*
X118315D01*
X122035D02*
X142907D01*
X159235D02*
X179771D01*
X81735Y472204D02*
X97855D01*
X102815D02*
X118315D01*
X122035D02*
X141003D01*
X159235D02*
X177629D01*
D02*
D81*
X745625Y388140D02*
X834625D01*
Y307890*
X802375*
Y267890*
X834625*
Y186140*
X745625*
Y388140*
X0Y0D02*
M02*
