%FSLAX34Y34*%
%MOMM*%
G04 EasyPC Gerber Version 18.0.6 Build 3620 *
%ADD20R,0.65000X1.00000*%
%ADD88R,0.80000X0.90000*%
%ADD107R,0.80000X1.00000*%
%ADD77R,1.01000X1.50000*%
%ADD24R,1.70000X2.76000*%
%ADD14C,1.52400*%
%ADD89C,1.60000*%
%ADD83C,3.50000*%
%ADD13C,5.00000*%
%ADD25R,1.00000X0.65000*%
%ADD86R,1.30000X0.76000*%
%ADD108R,0.90000X0.80000*%
%ADD109R,2.20000X0.80000*%
%ADD21R,1.30000X0.90000*%
%ADD23R,1.50000X1.01000*%
%ADD110R,1.90000X1.10000*%
%ADD78R,2.76000X1.70000*%
X0Y0D02*
D02*
D13*
X61875Y61890D02*
D03*
Y511890D02*
D03*
X481875Y61890D02*
D03*
X810875Y136890D02*
D03*
Y436890D02*
D03*
D02*
D14*
X491875Y395890D02*
D03*
Y421290D02*
D03*
Y446690D02*
D03*
X616075Y299890D02*
D03*
X641475D02*
D03*
X666875D02*
D03*
X706975Y236290D02*
D03*
Y261690D02*
D03*
Y287090D02*
D03*
Y312490D02*
D03*
Y337890D02*
D03*
X732375Y236290D02*
D03*
Y261690D02*
D03*
Y287090D02*
D03*
Y312490D02*
D03*
Y337890D02*
D03*
D02*
D20*
X548125Y412890D02*
D03*
X563625D02*
D03*
X606125Y278290D02*
D03*
X612125Y180290D02*
D03*
X621625Y278290D02*
D03*
X627625Y180290D02*
D03*
X743125Y438890D02*
D03*
X758625D02*
D03*
X773125Y270890D02*
D03*
Y288890D02*
D03*
X788625Y270890D02*
D03*
Y288890D02*
D03*
D02*
D21*
X70625Y277140D02*
D03*
Y297140D02*
D03*
X142875Y276890D02*
D03*
Y296890D02*
D03*
X287875Y138890D02*
D03*
Y158890D02*
D03*
X289875Y276890D02*
D03*
Y296890D02*
D03*
X383875Y137890D02*
D03*
Y157890D02*
D03*
Y276890D02*
D03*
Y296890D02*
D03*
D02*
D23*
X545675Y431890D02*
D03*
Y446890D02*
D03*
Y461890D02*
D03*
D02*
D24*
X580075Y446890D02*
D03*
D02*
D25*
X569875Y264540D02*
D03*
Y280040D02*
D03*
X570875Y234540D02*
D03*
Y250040D02*
D03*
X719875Y392140D02*
D03*
Y407640D02*
D03*
D02*
D77*
X601875Y221090D02*
D03*
X616875D02*
D03*
X631875D02*
D03*
D02*
D78*
X616875Y255490D02*
D03*
D02*
D83*
X107875Y194890D02*
D03*
Y256890D02*
D03*
Y318890D02*
D03*
Y380890D02*
D03*
D02*
D86*
X495875Y236290D02*
D03*
Y248990D02*
D03*
Y261690D02*
D03*
Y274390D02*
D03*
X549275Y236290D02*
D03*
Y248990D02*
D03*
Y261690D02*
D03*
Y274390D02*
D03*
D02*
D88*
X604375Y198290D02*
D03*
X627375D02*
D03*
D02*
D89*
X561375Y70890D02*
D03*
Y513390D02*
D03*
X586375Y70890D02*
D03*
Y513390D02*
D03*
X611375Y70890D02*
D03*
Y513390D02*
D03*
X636375Y70890D02*
D03*
Y513390D02*
D03*
X661375Y70890D02*
D03*
Y513390D02*
D03*
X686375Y70890D02*
D03*
Y513390D02*
D03*
X711375Y70890D02*
D03*
Y513390D02*
D03*
X736375Y70890D02*
D03*
Y513390D02*
D03*
X761375Y70890D02*
D03*
Y513390D02*
D03*
X786375Y70890D02*
D03*
Y513390D02*
D03*
D02*
D107*
X740375Y419000D02*
D03*
X749875Y395000D02*
D03*
X759375Y419000D02*
D03*
D02*
D108*
X523875Y435390D02*
D03*
Y458390D02*
D03*
D02*
D109*
X780875Y329390D02*
D03*
Y344390D02*
D03*
Y359390D02*
D03*
Y374390D02*
D03*
D02*
D110*
X815375Y309640D02*
D03*
Y393890D02*
D03*
X0Y0D02*
M02*
