%FSLAX34Y34*%
%MOMM*%
G04 EasyPC Gerber Version 18.0.6 Build 3620 *
%ADD10C,0.12700*%
%ADD82C,0.25000*%
%ADD76C,0.30000*%
%ADD105C,0.60000*%
%ADD75C,0.63500*%
%ADD72C,1.21920*%
%ADD14C,1.52400*%
%ADD89C,1.60000*%
%ADD83C,3.50000*%
%ADD13C,5.00000*%
X0Y0D02*
D02*
D10*
X448875Y530540D02*
X43225D01*
Y43240*
X546875*
Y140890*
X513875Y173890*
Y343890*
X480875Y376890*
Y408890*
X493875Y421890*
X480875Y434890*
Y441890*
X448875Y473890*
Y530540*
X107875Y237155D02*
G75*
G02Y276625J19735D01*
G01*
G75*
G02Y237155J-19735*
G01*
Y299155D02*
G75*
G02Y338625J19735D01*
G01*
G75*
G02Y299155J-19735*
G01*
Y361155D02*
G75*
G02Y400625J19735D01*
G01*
G75*
G02Y361155J-19735*
G01*
X129640Y312890D02*
G75*
G02X140110I5235D01*
G01*
G75*
G02X129640I-5235*
G01*
Y324890D02*
G75*
G02X140110I5235D01*
G01*
G75*
G02X129640I-5235*
G01*
Y336890D02*
G75*
G02X140110I5235D01*
G01*
G75*
G02X129640I-5235*
G01*
X130640Y228890D02*
G75*
G02X141110I5235D01*
G01*
G75*
G02X130640I-5235*
G01*
Y240890D02*
G75*
G02X141110I5235D01*
G01*
G75*
G02X130640I-5235*
G01*
Y252890D02*
G75*
G02X141110I5235D01*
G01*
G75*
G02X130640I-5235*
G01*
X141640Y312890D02*
G75*
G02X152110I5235D01*
G01*
G75*
G02X141640I-5235*
G01*
Y324890D02*
G75*
G02X152110I5235D01*
G01*
G75*
G02X141640I-5235*
G01*
Y336890D02*
G75*
G02X152110I5235D01*
G01*
G75*
G02X141640I-5235*
G01*
X142640Y228890D02*
G75*
G02X153110I5235D01*
G01*
G75*
G02X142640I-5235*
G01*
Y240890D02*
G75*
G02X153110I5235D01*
G01*
G75*
G02X142640I-5235*
G01*
Y252890D02*
G75*
G02X153110I5235D01*
G01*
G75*
G02X142640I-5235*
G01*
X153640Y300890D02*
G75*
G02X164110I5235D01*
G01*
G75*
G02X153640I-5235*
G01*
Y312890D02*
G75*
G02X164110I5235D01*
G01*
G75*
G02X153640I-5235*
G01*
Y324890D02*
G75*
G02X164110I5235D01*
G01*
G75*
G02X153640I-5235*
G01*
Y336890D02*
G75*
G02X164110I5235D01*
G01*
G75*
G02X153640I-5235*
G01*
X154640Y228890D02*
G75*
G02X165110I5235D01*
G01*
G75*
G02X154640I-5235*
G01*
Y240890D02*
G75*
G02X165110I5235D01*
G01*
G75*
G02X154640I-5235*
G01*
Y252890D02*
G75*
G02X165110I5235D01*
G01*
G75*
G02X154640I-5235*
G01*
Y264890D02*
G75*
G02X165110I5235D01*
G01*
G75*
G02X154640I-5235*
G01*
Y276890D02*
G75*
G02X165110I5235D01*
G01*
G75*
G02X154640I-5235*
G01*
X165640Y300890D02*
G75*
G02X176110I5235D01*
G01*
G75*
G02X165640I-5235*
G01*
Y312890D02*
G75*
G02X176110I5235D01*
G01*
G75*
G02X165640I-5235*
G01*
Y324890D02*
G75*
G02X176110I5235D01*
G01*
G75*
G02X165640I-5235*
G01*
Y336890D02*
G75*
G02X176110I5235D01*
G01*
G75*
G02X165640I-5235*
G01*
X166640Y216890D02*
G75*
G02X177110I5235D01*
G01*
G75*
G02X166640I-5235*
G01*
Y228890D02*
G75*
G02X177110I5235D01*
G01*
G75*
G02X166640I-5235*
G01*
Y240890D02*
G75*
G02X177110I5235D01*
G01*
G75*
G02X166640I-5235*
G01*
Y252890D02*
G75*
G02X177110I5235D01*
G01*
G75*
G02X166640I-5235*
G01*
Y264890D02*
G75*
G02X177110I5235D01*
G01*
G75*
G02X166640I-5235*
G01*
Y276890D02*
G75*
G02X177110I5235D01*
G01*
G75*
G02X166640I-5235*
G01*
X177640Y300890D02*
G75*
G02X188110I5235D01*
G01*
G75*
G02X177640I-5235*
G01*
Y312890D02*
G75*
G02X188110I5235D01*
G01*
G75*
G02X177640I-5235*
G01*
Y324890D02*
G75*
G02X188110I5235D01*
G01*
G75*
G02X177640I-5235*
G01*
Y336890D02*
G75*
G02X188110I5235D01*
G01*
G75*
G02X177640I-5235*
G01*
X178640Y216890D02*
G75*
G02X189110I5235D01*
G01*
G75*
G02X178640I-5235*
G01*
Y228890D02*
G75*
G02X189110I5235D01*
G01*
G75*
G02X178640I-5235*
G01*
Y240890D02*
G75*
G02X189110I5235D01*
G01*
G75*
G02X178640I-5235*
G01*
Y252890D02*
G75*
G02X189110I5235D01*
G01*
G75*
G02X178640I-5235*
G01*
Y264890D02*
G75*
G02X189110I5235D01*
G01*
G75*
G02X178640I-5235*
G01*
Y276890D02*
G75*
G02X189110I5235D01*
G01*
G75*
G02X178640I-5235*
G01*
X201640Y380890D02*
G75*
G02X212110I5235D01*
G01*
G75*
G02X201640I-5235*
G01*
Y392890D02*
G75*
G02X212110I5235D01*
G01*
G75*
G02X201640I-5235*
G01*
Y404890D02*
G75*
G02X212110I5235D01*
G01*
G75*
G02X201640I-5235*
G01*
Y416890D02*
G75*
G02X212110I5235D01*
G01*
G75*
G02X201640I-5235*
G01*
X212640Y231890D02*
G75*
G02X223110I5235D01*
G01*
G75*
G02X212640I-5235*
G01*
X213640Y380890D02*
G75*
G02X224110I5235D01*
G01*
G75*
G02X213640I-5235*
G01*
Y392890D02*
G75*
G02X224110I5235D01*
G01*
G75*
G02X213640I-5235*
G01*
Y404890D02*
G75*
G02X224110I5235D01*
G01*
G75*
G02X213640I-5235*
G01*
Y416890D02*
G75*
G02X224110I5235D01*
G01*
G75*
G02X213640I-5235*
G01*
X224640Y231890D02*
G75*
G02X235110I5235D01*
G01*
G75*
G02X224640I-5235*
G01*
X236640D02*
G75*
G02X247110I5235D01*
G01*
G75*
G02X236640I-5235*
G01*
X252640D02*
G75*
G02X263110I5235D01*
G01*
G75*
G02X252640I-5235*
G01*
X264640D02*
G75*
G02X275110I5235D01*
G01*
G75*
G02X264640I-5235*
G01*
X271640Y380890D02*
G75*
G02X282110I5235D01*
G01*
G75*
G02X271640I-5235*
G01*
Y392890D02*
G75*
G02X282110I5235D01*
G01*
G75*
G02X271640I-5235*
G01*
Y404890D02*
G75*
G02X282110I5235D01*
G01*
G75*
G02X271640I-5235*
G01*
Y416890D02*
G75*
G02X282110I5235D01*
G01*
G75*
G02X271640I-5235*
G01*
X276640Y231890D02*
G75*
G02X287110I5235D01*
G01*
G75*
G02X276640I-5235*
G01*
X283640Y380890D02*
G75*
G02X294110I5235D01*
G01*
G75*
G02X283640I-5235*
G01*
Y392890D02*
G75*
G02X294110I5235D01*
G01*
G75*
G02X283640I-5235*
G01*
Y404890D02*
G75*
G02X294110I5235D01*
G01*
G75*
G02X283640I-5235*
G01*
Y416890D02*
G75*
G02X294110I5235D01*
G01*
G75*
G02X283640I-5235*
G01*
X284640Y308890D02*
G75*
G02X295110I5235D01*
G01*
G75*
G02X284640I-5235*
G01*
X294640Y211890D02*
G75*
G02X305110I5235D01*
G01*
G75*
G02X294640I-5235*
G01*
Y223890D02*
G75*
G02X305110I5235D01*
G01*
G75*
G02X294640I-5235*
G01*
Y235890D02*
G75*
G02X305110I5235D01*
G01*
G75*
G02X294640I-5235*
G01*
Y247890D02*
G75*
G02X305110I5235D01*
G01*
G75*
G02X294640I-5235*
G01*
Y259890D02*
G75*
G02X305110I5235D01*
G01*
G75*
G02X294640I-5235*
G01*
X306640Y211890D02*
G75*
G02X317110I5235D01*
G01*
G75*
G02X306640I-5235*
G01*
Y223890D02*
G75*
G02X317110I5235D01*
G01*
G75*
G02X306640I-5235*
G01*
Y235890D02*
G75*
G02X317110I5235D01*
G01*
G75*
G02X306640I-5235*
G01*
Y247890D02*
G75*
G02X317110I5235D01*
G01*
G75*
G02X306640I-5235*
G01*
Y259890D02*
G75*
G02X317110I5235D01*
G01*
G75*
G02X306640I-5235*
G01*
X318640Y211890D02*
G75*
G02X329110I5235D01*
G01*
G75*
G02X318640I-5235*
G01*
Y223890D02*
G75*
G02X329110I5235D01*
G01*
G75*
G02X318640I-5235*
G01*
Y235890D02*
G75*
G02X329110I5235D01*
G01*
G75*
G02X318640I-5235*
G01*
Y247890D02*
G75*
G02X329110I5235D01*
G01*
G75*
G02X318640I-5235*
G01*
Y259890D02*
G75*
G02X329110I5235D01*
G01*
G75*
G02X318640I-5235*
G01*
X338640Y211890D02*
G75*
G02X349110I5235D01*
G01*
G75*
G02X338640I-5235*
G01*
Y223890D02*
G75*
G02X349110I5235D01*
G01*
G75*
G02X338640I-5235*
G01*
Y235890D02*
G75*
G02X349110I5235D01*
G01*
G75*
G02X338640I-5235*
G01*
Y247890D02*
G75*
G02X349110I5235D01*
G01*
G75*
G02X338640I-5235*
G01*
Y259890D02*
G75*
G02X349110I5235D01*
G01*
G75*
G02X338640I-5235*
G01*
X341640Y380890D02*
G75*
G02X352110I5235D01*
G01*
G75*
G02X341640I-5235*
G01*
Y392890D02*
G75*
G02X352110I5235D01*
G01*
G75*
G02X341640I-5235*
G01*
Y404890D02*
G75*
G02X352110I5235D01*
G01*
G75*
G02X341640I-5235*
G01*
Y416890D02*
G75*
G02X352110I5235D01*
G01*
G75*
G02X341640I-5235*
G01*
X350640Y211890D02*
G75*
G02X361110I5235D01*
G01*
G75*
G02X350640I-5235*
G01*
Y223890D02*
G75*
G02X361110I5235D01*
G01*
G75*
G02X350640I-5235*
G01*
Y235890D02*
G75*
G02X361110I5235D01*
G01*
G75*
G02X350640I-5235*
G01*
Y247890D02*
G75*
G02X361110I5235D01*
G01*
G75*
G02X350640I-5235*
G01*
Y259890D02*
G75*
G02X361110I5235D01*
G01*
G75*
G02X350640I-5235*
G01*
X353640Y380890D02*
G75*
G02X364110I5235D01*
G01*
G75*
G02X353640I-5235*
G01*
Y392890D02*
G75*
G02X364110I5235D01*
G01*
G75*
G02X353640I-5235*
G01*
Y404890D02*
G75*
G02X364110I5235D01*
G01*
G75*
G02X353640I-5235*
G01*
Y416890D02*
G75*
G02X364110I5235D01*
G01*
G75*
G02X353640I-5235*
G01*
X362640Y211890D02*
G75*
G02X373110I5235D01*
G01*
G75*
G02X362640I-5235*
G01*
Y223890D02*
G75*
G02X373110I5235D01*
G01*
G75*
G02X362640I-5235*
G01*
Y235890D02*
G75*
G02X373110I5235D01*
G01*
G75*
G02X362640I-5235*
G01*
Y247890D02*
G75*
G02X373110I5235D01*
G01*
G75*
G02X362640I-5235*
G01*
Y259890D02*
G75*
G02X373110I5235D01*
G01*
G75*
G02X362640I-5235*
G01*
X378640Y308890D02*
G75*
G02X389110I5235D01*
G01*
G75*
G02X378640I-5235*
G01*
X381640Y231890D02*
G75*
G02X392110I5235D01*
G01*
G75*
G02X381640I-5235*
G01*
X393640D02*
G75*
G02X404110I5235D01*
G01*
G75*
G02X393640I-5235*
G01*
X401640Y380890D02*
G75*
G02X412110I5235D01*
G01*
G75*
G02X401640I-5235*
G01*
Y392890D02*
G75*
G02X412110I5235D01*
G01*
G75*
G02X401640I-5235*
G01*
Y404890D02*
G75*
G02X412110I5235D01*
G01*
G75*
G02X401640I-5235*
G01*
Y416890D02*
G75*
G02X412110I5235D01*
G01*
G75*
G02X401640I-5235*
G01*
X405640Y231890D02*
G75*
G02X416110I5235D01*
G01*
G75*
G02X405640I-5235*
G01*
X413640Y380890D02*
G75*
G02X424110I5235D01*
G01*
G75*
G02X413640I-5235*
G01*
Y392890D02*
G75*
G02X424110I5235D01*
G01*
G75*
G02X413640I-5235*
G01*
Y404890D02*
G75*
G02X424110I5235D01*
G01*
G75*
G02X413640I-5235*
G01*
Y416890D02*
G75*
G02X424110I5235D01*
G01*
G75*
G02X413640I-5235*
G01*
X421640Y231890D02*
G75*
G02X432110I5235D01*
G01*
G75*
G02X421640I-5235*
G01*
X433640D02*
G75*
G02X444110I5235D01*
G01*
G75*
G02X433640I-5235*
G01*
X445640D02*
G75*
G02X456110I5235D01*
G01*
G75*
G02X445640I-5235*
G01*
X489640Y280890D02*
G75*
G02X500110I5235D01*
G01*
G75*
G02X489640I-5235*
G01*
Y292890D02*
G75*
G02X500110I5235D01*
G01*
G75*
G02X489640I-5235*
G01*
Y304890D02*
G75*
G02X500110I5235D01*
G01*
G75*
G02X489640I-5235*
G01*
Y316890D02*
G75*
G02X500110I5235D01*
G01*
G75*
G02X489640I-5235*
G01*
X501640Y280890D02*
G75*
G02X512110I5235D01*
G01*
G75*
G02X501640I-5235*
G01*
Y292890D02*
G75*
G02X512110I5235D01*
G01*
G75*
G02X501640I-5235*
G01*
Y304890D02*
G75*
G02X512110I5235D01*
G01*
G75*
G02X501640I-5235*
G01*
Y316890D02*
G75*
G02X512110I5235D01*
G01*
G75*
G02X501640I-5235*
G01*
X43225Y256890D02*
G36*
Y247890D01*
X90312*
G75*
G02X88140Y256890I17562J9000*
G01*
X43225*
G37*
X88140D02*
G36*
G75*
G02X89834Y264890I19734J1D01*
G01*
X43225*
Y256890*
X88140*
G37*
X127610D02*
G36*
G75*
G02X125438Y247890I-19735J1D01*
G01*
X134324*
G75*
G02X130640Y252890I1551J5000*
G01*
G75*
G02X132498Y256890I5235*
G01*
X127610*
G37*
X132498D02*
G36*
G75*
G02X139252I3377J-4000D01*
G01*
X144498*
G75*
G02X151252I3377J-4000*
G01*
X156498*
G75*
G02X163252I3377J-4000*
G01*
X168498*
G75*
G02X175252I3377J-4000*
G01*
X180498*
G75*
G02X187252I3377J-4000*
G01*
X295585*
G75*
G02X294640Y259890I4290J3000*
G01*
G75*
G02X298324Y264890I5235*
G01*
X189110*
G75*
G02X178640I-5235*
G01*
X177110*
G75*
G02X166640I-5235*
G01*
X165110*
G75*
G02X154640I-5235*
G01*
X125916*
G75*
G02X127610Y256890I-18041J-8000*
G01*
X132498*
G37*
X139252D02*
G36*
G75*
G02X141110Y252890I-3377J-4000D01*
G01*
G75*
G02X137426Y247890I-5235*
G01*
X146324*
G75*
G02X142640Y252890I1551J5000*
G01*
G75*
G02X144498Y256890I5235*
G01*
X139252*
G37*
X151252D02*
G36*
G75*
G02X153110Y252890I-3377J-4000D01*
G01*
G75*
G02X149426Y247890I-5235*
G01*
X158324*
G75*
G02X154640Y252890I1551J5000*
G01*
G75*
G02X156498Y256890I5235*
G01*
X151252*
G37*
X163252D02*
G36*
G75*
G02X165110Y252890I-3377J-4000D01*
G01*
G75*
G02X161426Y247890I-5235*
G01*
X170324*
G75*
G02X166640Y252890I1551J5000*
G01*
G75*
G02X168498Y256890I5235*
G01*
X163252*
G37*
X175252D02*
G36*
G75*
G02X177110Y252890I-3377J-4000D01*
G01*
G75*
G02X173426Y247890I-5235*
G01*
X182324*
G75*
G02X178640Y252890I1551J5000*
G01*
G75*
G02X180498Y256890I5235*
G01*
X175252*
G37*
X187252D02*
G36*
G75*
G02X189110Y252890I-3377J-4000D01*
G01*
G75*
G02X185426Y247890I-5235*
G01*
X294640*
G75*
G02X305110I5235*
G01*
X306640*
G75*
G02X317110I5235*
G01*
X318640*
G75*
G02X329110I5235*
G01*
X338640*
G75*
G02X349110I5235*
G01*
X350640*
G75*
G02X361110I5235*
G01*
X362640*
G75*
G02X373110I5235*
G01*
X513875*
Y256890*
X372165*
G75*
G02X363585I-4290J3000*
G01*
X360165*
G75*
G02X351585I-4290J3000*
G01*
X348165*
G75*
G02X339585I-4290J3000*
G01*
X328165*
G75*
G02X319585I-4290J3000*
G01*
X316165*
G75*
G02X307585I-4290J3000*
G01*
X304165*
G75*
G02X295585I-4290J3000*
G01*
X187252*
G37*
X307585D02*
G36*
G75*
G02X306640Y259890I4290J3000D01*
G01*
G75*
G02X310324Y264890I5235*
G01*
X301426*
G75*
G02X305110Y259890I-1551J-5000*
G01*
G75*
G02X304165Y256890I-5235*
G01*
X307585*
G37*
X319585D02*
G36*
G75*
G02X318640Y259890I4290J3000D01*
G01*
G75*
G02X322324Y264890I5235*
G01*
X313426*
G75*
G02X317110Y259890I-1551J-5000*
G01*
G75*
G02X316165Y256890I-5235*
G01*
X319585*
G37*
X339585D02*
G36*
G75*
G02X338640Y259890I4290J3000D01*
G01*
G75*
G02X342324Y264890I5235*
G01*
X325426*
G75*
G02X329110Y259890I-1551J-5000*
G01*
G75*
G02X328165Y256890I-5235*
G01*
X339585*
G37*
X351585D02*
G36*
G75*
G02X350640Y259890I4290J3000D01*
G01*
G75*
G02X354324Y264890I5235*
G01*
X345426*
G75*
G02X349110Y259890I-1551J-5000*
G01*
G75*
G02X348165Y256890I-5235*
G01*
X351585*
G37*
X363585D02*
G36*
G75*
G02X362640Y259890I4290J3000D01*
G01*
G75*
G02X366324Y264890I5235*
G01*
X357426*
G75*
G02X361110Y259890I-1551J-5000*
G01*
G75*
G02X360165Y256890I-5235*
G01*
X363585*
G37*
X513875D02*
G36*
Y264890D01*
X369426*
G75*
G02X373110Y259890I-1551J-5000*
G01*
G75*
G02X372165Y256890I-5235*
G01*
X513875*
G37*
X43225Y318890D02*
G36*
Y312890D01*
X89074*
G75*
G02X88140Y318890I18801J5999*
G01*
X43225*
G37*
X88140D02*
G36*
G75*
G02X89074Y324890I19735J1D01*
G01*
X43225*
Y318890*
X88140*
G37*
X127610D02*
G36*
G75*
G02X126676Y312890I-19736J-1D01*
G01*
X129640*
G75*
G02X140110I5235*
G01*
X141640*
G75*
G02X152110I5235*
G01*
X153640*
G75*
G02X164110I5235*
G01*
X165640*
G75*
G02X176110I5235*
G01*
X177640*
G75*
G02X188110I5235*
G01*
X286498*
G75*
G02X293252I3377J-4000*
G01*
X380498*
G75*
G02X387252I3377J-4000*
G01*
X491498*
G75*
G02X489640Y316890I3377J4000*
G01*
G75*
G02X490037Y318890I5235*
G01*
X127610*
G37*
X490037D02*
G36*
G75*
G02X499713I4838J-2000D01*
G01*
X502037*
G75*
G02X511713I4838J-2000*
G01*
X513875*
Y324890*
X188110*
G75*
G02X177640I-5235*
G01*
X176110*
G75*
G02X165640I-5235*
G01*
X164110*
G75*
G02X153640I-5235*
G01*
X152110*
G75*
G02X141640I-5235*
G01*
X140110*
G75*
G02X129640I-5235*
G01*
X126676*
G75*
G02X127610Y318890I-18802J-5999*
G01*
X490037*
G37*
X499713D02*
G36*
G75*
G02X500110Y316890I-4838J-2000D01*
G01*
G75*
G02X498252Y312890I-5235*
G01*
X503498*
G75*
G02X501640Y316890I3377J4000*
G01*
G75*
G02X502037Y318890I5235*
G01*
X499713*
G37*
X511713D02*
G36*
G75*
G02X512110Y316890I-4838J-2000D01*
G01*
G75*
G02X510252Y312890I-5235*
G01*
X513875*
Y318890*
X511713*
G37*
X43225Y380890D02*
G36*
Y336890D01*
X99784*
G75*
G02X107875Y338625I8092J-18001*
G01*
G75*
G02X115966Y336890J-19735*
G01*
X129640*
G75*
G02X140110I5235*
G01*
X141640*
G75*
G02X152110I5235*
G01*
X153640*
G75*
G02X164110I5235*
G01*
X165640*
G75*
G02X176110I5235*
G01*
X177640*
G75*
G02X188110I5235*
G01*
X513875*
Y343890*
X480875Y376890*
Y380890*
X424110*
G75*
G02X413640I-5235*
G01*
X412110*
G75*
G02X401640I-5235*
G01*
X364110*
G75*
G02X353640I-5235*
G01*
X352110*
G75*
G02X341640I-5235*
G01*
X294110*
G75*
G02X283640I-5235*
G01*
X282110*
G75*
G02X271640I-5235*
G01*
X224110*
G75*
G02X213640I-5235*
G01*
X212110*
G75*
G02X201640I-5235*
G01*
X127610*
G75*
G02X107875Y361155I-19735*
G01*
G75*
G02X88140Y380890J19735*
G01*
X43225*
G37*
X88140D02*
G36*
G75*
G02X92208Y392890I19735J-1D01*
G01*
X43225*
Y380890*
X88140*
G37*
X201640D02*
G36*
G75*
G02X212110I5235D01*
G01*
X213640*
G75*
G02X224110I5235*
G01*
X271640*
G75*
G02X282110I5235*
G01*
X283640*
G75*
G02X294110I5235*
G01*
X341640*
G75*
G02X352110I5235*
G01*
X353640*
G75*
G02X364110I5235*
G01*
X401640*
G75*
G02X412110I5235*
G01*
X413640*
G75*
G02X424110I5235*
G01*
X480875*
Y392890*
X424110*
G75*
G02X413640I-5235*
G01*
X412110*
G75*
G02X401640I-5235*
G01*
X364110*
G75*
G02X353640I-5235*
G01*
X352110*
G75*
G02X341640I-5235*
G01*
X294110*
G75*
G02X283640I-5235*
G01*
X282110*
G75*
G02X271640I-5235*
G01*
X224110*
G75*
G02X213640I-5235*
G01*
X212110*
G75*
G02X201640I-5235*
G01*
X123542*
G75*
G02X127610Y380890I-15667J-12001*
G01*
X201640*
G37*
X43225Y312890D02*
G36*
Y300890D01*
X99784*
G75*
G02X89074Y312890I8091J18000*
G01*
X43225*
G37*
X126676D02*
G36*
G75*
G02X115966Y300890I-18801J6000D01*
G01*
X153640*
G75*
G02X164110I5235*
G01*
X165640*
G75*
G02X176110I5235*
G01*
X177640*
G75*
G02X188110I5235*
G01*
X491498*
G75*
G02X489640Y304890I3377J4000*
G01*
G75*
G02X500110I5235*
G01*
G75*
G02X498252Y300890I-5235*
G01*
X503498*
G75*
G02X501640Y304890I3377J4000*
G01*
G75*
G02X512110I5235*
G01*
G75*
G02X510252Y300890I-5235*
G01*
X513875*
Y312890*
X510252*
G75*
G02X503498I-3377J4000*
G01*
X498252*
G75*
G02X491498I-3377J4000*
G01*
X387252*
G75*
G02X389110Y308890I-3377J-4000*
G01*
G75*
G02X378640I-5235*
G01*
G75*
G02X380498Y312890I5235*
G01*
X293252*
G75*
G02X295110Y308890I-3377J-4000*
G01*
G75*
G02X284640I-5235*
G01*
G75*
G02X286498Y312890I5235*
G01*
X188110*
G75*
G02X177640I-5235*
G01*
X176110*
G75*
G02X165640I-5235*
G01*
X164110*
G75*
G02X153640I-5235*
G01*
X152110*
G75*
G02X141640I-5235*
G01*
X140110*
G75*
G02X129640I-5235*
G01*
X126676*
G37*
X89074Y324890D02*
G36*
G75*
G02X99784Y336890I18801J-6000D01*
G01*
X43225*
Y324890*
X89074*
G37*
X129640D02*
G36*
G75*
G02X140110I5235D01*
G01*
X141640*
G75*
G02X152110I5235*
G01*
X153640*
G75*
G02X164110I5235*
G01*
X165640*
G75*
G02X176110I5235*
G01*
X177640*
G75*
G02X188110I5235*
G01*
X513875*
Y336890*
X188110*
G75*
G02X177640I-5235*
G01*
X176110*
G75*
G02X165640I-5235*
G01*
X164110*
G75*
G02X153640I-5235*
G01*
X152110*
G75*
G02X141640I-5235*
G01*
X140110*
G75*
G02X129640I-5235*
G01*
X115966*
G75*
G02X126676Y324890I-8091J-18000*
G01*
X129640*
G37*
X43225Y228890D02*
G36*
Y216890D01*
X166640*
G75*
G02X177110I5235*
G01*
X178640*
G75*
G02X189110I5235*
G01*
X298324*
G75*
G02X301426I1551J-5000*
G01*
X310324*
G75*
G02X313426I1551J-5000*
G01*
X322324*
G75*
G02X325426I1551J-5000*
G01*
X342324*
G75*
G02X345426I1551J-5000*
G01*
X354324*
G75*
G02X357426I1551J-5000*
G01*
X366324*
G75*
G02X369426I1551J-5000*
G01*
X513875*
Y228890*
X455165*
G75*
G02X446585I-4290J3000*
G01*
X443165*
G75*
G02X434585I-4290J3000*
G01*
X431165*
G75*
G02X422585I-4290J3000*
G01*
X415165*
G75*
G02X406585I-4290J3000*
G01*
X403165*
G75*
G02X394585I-4290J3000*
G01*
X391165*
G75*
G02X382585I-4290J3000*
G01*
X369426*
G75*
G02X373110Y223890I-1551J-5000*
G01*
G75*
G02X362640I-5235*
G01*
G75*
G02X366324Y228890I5235*
G01*
X357426*
G75*
G02X361110Y223890I-1551J-5000*
G01*
G75*
G02X350640I-5235*
G01*
G75*
G02X354324Y228890I5235*
G01*
X345426*
G75*
G02X349110Y223890I-1551J-5000*
G01*
G75*
G02X338640I-5235*
G01*
G75*
G02X342324Y228890I5235*
G01*
X325426*
G75*
G02X329110Y223890I-1551J-5000*
G01*
G75*
G02X318640I-5235*
G01*
G75*
G02X322324Y228890I5235*
G01*
X313426*
G75*
G02X317110Y223890I-1551J-5000*
G01*
G75*
G02X306640I-5235*
G01*
G75*
G02X310324Y228890I5235*
G01*
X301426*
G75*
G02X305110Y223890I-1551J-5000*
G01*
G75*
G02X294640I-5235*
G01*
G75*
G02X298324Y228890I5235*
G01*
X286165*
G75*
G02X277585I-4290J3000*
G01*
X274165*
G75*
G02X265585I-4290J3000*
G01*
X262165*
G75*
G02X253585I-4290J3000*
G01*
X246165*
G75*
G02X237585I-4290J3000*
G01*
X234165*
G75*
G02X225585I-4290J3000*
G01*
X222165*
G75*
G02X213585I-4290J3000*
G01*
X189110*
G75*
G02X178640I-5235*
G01*
X177110*
G75*
G02X166640I-5235*
G01*
X165110*
G75*
G02X154640I-5235*
G01*
X153110*
G75*
G02X142640I-5235*
G01*
X141110*
G75*
G02X130640I-5235*
G01*
X43225*
G37*
X130640D02*
G36*
G75*
G02X141110I5235D01*
G01*
X142640*
G75*
G02X153110I5235*
G01*
X154640*
G75*
G02X165110I5235*
G01*
X166640*
G75*
G02X177110I5235*
G01*
X178640*
G75*
G02X189110I5235*
G01*
X213585*
G75*
G02X212640Y231890I4290J3000*
G01*
G75*
G02X223110I5235*
G01*
G75*
G02X222165Y228890I-5235*
G01*
X225585*
G75*
G02X224640Y231890I4290J3000*
G01*
G75*
G02X235110I5235*
G01*
G75*
G02X234165Y228890I-5235*
G01*
X237585*
G75*
G02X236640Y231890I4290J3000*
G01*
G75*
G02X247110I5235*
G01*
G75*
G02X246165Y228890I-5235*
G01*
X253585*
G75*
G02X252640Y231890I4290J3000*
G01*
G75*
G02X263110I5235*
G01*
G75*
G02X262165Y228890I-5235*
G01*
X265585*
G75*
G02X264640Y231890I4290J3000*
G01*
G75*
G02X275110I5235*
G01*
G75*
G02X274165Y228890I-5235*
G01*
X277585*
G75*
G02X276640Y231890I4290J3000*
G01*
G75*
G02X287110I5235*
G01*
G75*
G02X286165Y228890I-5235*
G01*
X298324*
G75*
G02X301426I1551J-5000*
G01*
X310324*
G75*
G02X313426I1551J-5000*
G01*
X322324*
G75*
G02X325426I1551J-5000*
G01*
X342324*
G75*
G02X345426I1551J-5000*
G01*
X354324*
G75*
G02X357426I1551J-5000*
G01*
X366324*
G75*
G02X369426I1551J-5000*
G01*
X382585*
G75*
G02X381640Y231890I4290J3000*
G01*
G75*
G02X392110I5235*
G01*
G75*
G02X391165Y228890I-5235*
G01*
X394585*
G75*
G02X393640Y231890I4290J3000*
G01*
G75*
G02X404110I5235*
G01*
G75*
G02X403165Y228890I-5235*
G01*
X406585*
G75*
G02X405640Y231890I4290J3000*
G01*
G75*
G02X416110I5235*
G01*
G75*
G02X415165Y228890I-5235*
G01*
X422585*
G75*
G02X421640Y231890I4290J3000*
G01*
G75*
G02X432110I5235*
G01*
G75*
G02X431165Y228890I-5235*
G01*
X434585*
G75*
G02X433640Y231890I4290J3000*
G01*
G75*
G02X444110I5235*
G01*
G75*
G02X443165Y228890I-5235*
G01*
X446585*
G75*
G02X445640Y231890I4290J3000*
G01*
G75*
G02X456110I5235*
G01*
G75*
G02X455165Y228890I-5235*
G01*
X513875*
Y240890*
X369426*
G75*
G02X373110Y235890I-1551J-5000*
G01*
G75*
G02X362640I-5235*
G01*
G75*
G02X366324Y240890I5235*
G01*
X357426*
G75*
G02X361110Y235890I-1551J-5000*
G01*
G75*
G02X350640I-5235*
G01*
G75*
G02X354324Y240890I5235*
G01*
X345426*
G75*
G02X349110Y235890I-1551J-5000*
G01*
G75*
G02X338640I-5235*
G01*
G75*
G02X342324Y240890I5235*
G01*
X325426*
G75*
G02X329110Y235890I-1551J-5000*
G01*
G75*
G02X318640I-5235*
G01*
G75*
G02X322324Y240890I5235*
G01*
X313426*
G75*
G02X317110Y235890I-1551J-5000*
G01*
G75*
G02X306640I-5235*
G01*
G75*
G02X310324Y240890I5235*
G01*
X301426*
G75*
G02X305110Y235890I-1551J-5000*
G01*
G75*
G02X294640I-5235*
G01*
G75*
G02X298324Y240890I5235*
G01*
X189110*
G75*
G02X178640I-5235*
G01*
X177110*
G75*
G02X166640I-5235*
G01*
X165110*
G75*
G02X154640I-5235*
G01*
X153110*
G75*
G02X142640I-5235*
G01*
X141110*
G75*
G02X130640I-5235*
G01*
X119428*
G75*
G02X107875Y237155I-11553J16000*
G01*
G75*
G02X96322Y240890J19735*
G01*
X43225*
Y228890*
X130640*
G37*
X96322Y240890D02*
G36*
G75*
G02X90312Y247890I11553J15999D01*
G01*
X43225*
Y240890*
X96322*
G37*
X130640D02*
G36*
G75*
G02X141110I5235D01*
G01*
X142640*
G75*
G02X153110I5235*
G01*
X154640*
G75*
G02X165110I5235*
G01*
X166640*
G75*
G02X177110I5235*
G01*
X178640*
G75*
G02X189110I5235*
G01*
X298324*
G75*
G02X301426I1551J-5000*
G01*
X310324*
G75*
G02X313426I1551J-5000*
G01*
X322324*
G75*
G02X325426I1551J-5000*
G01*
X342324*
G75*
G02X345426I1551J-5000*
G01*
X354324*
G75*
G02X357426I1551J-5000*
G01*
X366324*
G75*
G02X369426I1551J-5000*
G01*
X513875*
Y247890*
X373110*
G75*
G02X362640I-5235*
G01*
X361110*
G75*
G02X350640I-5235*
G01*
X349110*
G75*
G02X338640I-5235*
G01*
X329110*
G75*
G02X318640I-5235*
G01*
X317110*
G75*
G02X306640I-5235*
G01*
X305110*
G75*
G02X294640I-5235*
G01*
X185426*
G75*
G02X182324I-1551J5000*
G01*
X173426*
G75*
G02X170324I-1551J5000*
G01*
X161426*
G75*
G02X158324I-1551J5000*
G01*
X149426*
G75*
G02X146324I-1551J5000*
G01*
X137426*
G75*
G02X134324I-1551J5000*
G01*
X125438*
G75*
G02X119428Y240890I-17563J8999*
G01*
X130640*
G37*
X43225Y300890D02*
G36*
Y292890D01*
X489640*
G75*
G02X500110I5235*
G01*
X501640*
G75*
G02X512110I5235*
G01*
X513875*
Y300890*
X510252*
G75*
G02X503498I-3377J4000*
G01*
X498252*
G75*
G02X491498I-3377J4000*
G01*
X188110*
G75*
G02X177640I-5235*
G01*
X176110*
G75*
G02X165640I-5235*
G01*
X164110*
G75*
G02X153640I-5235*
G01*
X115966*
G75*
G02X107875Y299155I-8091J18000*
G01*
G75*
G02X99784Y300890I1J19736*
G01*
X43225*
G37*
X89834Y264890D02*
G36*
G75*
G02X107875Y276625I18041J-8000D01*
G01*
G75*
G02X125916Y264890J-19735*
G01*
X154640*
G75*
G02X165110I5235*
G01*
X166640*
G75*
G02X177110I5235*
G01*
X178640*
G75*
G02X189110I5235*
G01*
X298324*
G75*
G02X301426I1551J-5000*
G01*
X310324*
G75*
G02X313426I1551J-5000*
G01*
X322324*
G75*
G02X325426I1551J-5000*
G01*
X342324*
G75*
G02X345426I1551J-5000*
G01*
X354324*
G75*
G02X357426I1551J-5000*
G01*
X366324*
G75*
G02X369426I1551J-5000*
G01*
X513875*
Y276890*
X510252*
G75*
G02X503498I-3377J4000*
G01*
X498252*
G75*
G02X491498I-3377J4000*
G01*
X189110*
G75*
G02X178640I-5235*
G01*
X177110*
G75*
G02X166640I-5235*
G01*
X165110*
G75*
G02X154640I-5235*
G01*
X43225*
Y264890*
X89834*
G37*
X154640Y276890D02*
G36*
G75*
G02X165110I5235D01*
G01*
X166640*
G75*
G02X177110I5235*
G01*
X178640*
G75*
G02X189110I5235*
G01*
X491498*
G75*
G02X489640Y280890I3377J4000*
G01*
G75*
G02X500110I5235*
G01*
G75*
G02X498252Y276890I-5235*
G01*
X503498*
G75*
G02X501640Y280890I3377J4000*
G01*
G75*
G02X512110I5235*
G01*
G75*
G02X510252Y276890I-5235*
G01*
X513875*
Y292890*
X512110*
G75*
G02X501640I-5235*
G01*
X500110*
G75*
G02X489640I-5235*
G01*
X43225*
Y276890*
X154640*
G37*
X43225Y216890D02*
G36*
Y43240D01*
X546875*
Y140890*
X513875Y173890*
Y216890*
X369426*
G75*
G02X373110Y211890I-1551J-5000*
G01*
G75*
G02X362640I-5235*
G01*
G75*
G02X366324Y216890I5235*
G01*
X357426*
G75*
G02X361110Y211890I-1551J-5000*
G01*
G75*
G02X350640I-5235*
G01*
G75*
G02X354324Y216890I5235*
G01*
X345426*
G75*
G02X349110Y211890I-1551J-5000*
G01*
G75*
G02X338640I-5235*
G01*
G75*
G02X342324Y216890I5235*
G01*
X325426*
G75*
G02X329110Y211890I-1551J-5000*
G01*
G75*
G02X318640I-5235*
G01*
G75*
G02X322324Y216890I5235*
G01*
X313426*
G75*
G02X317110Y211890I-1551J-5000*
G01*
G75*
G02X306640I-5235*
G01*
G75*
G02X310324Y216890I5235*
G01*
X301426*
G75*
G02X305110Y211890I-1551J-5000*
G01*
G75*
G02X294640I-5235*
G01*
G75*
G02X298324Y216890I5235*
G01*
X189110*
G75*
G02X178640I-5235*
G01*
X177110*
G75*
G02X166640I-5235*
G01*
X43225*
G37*
X92208Y392890D02*
G36*
G75*
G02X107875Y400625I15667J-12000D01*
G01*
G75*
G02X123542Y392890J-19734*
G01*
X201640*
G75*
G02X212110I5235*
G01*
X213640*
G75*
G02X224110I5235*
G01*
X271640*
G75*
G02X282110I5235*
G01*
X283640*
G75*
G02X294110I5235*
G01*
X341640*
G75*
G02X352110I5235*
G01*
X353640*
G75*
G02X364110I5235*
G01*
X401640*
G75*
G02X412110I5235*
G01*
X413640*
G75*
G02X424110I5235*
G01*
X480875*
Y404890*
X424110*
G75*
G02X413640I-5235*
G01*
X412110*
G75*
G02X401640I-5235*
G01*
X364110*
G75*
G02X353640I-5235*
G01*
X352110*
G75*
G02X341640I-5235*
G01*
X294110*
G75*
G02X283640I-5235*
G01*
X282110*
G75*
G02X271640I-5235*
G01*
X224110*
G75*
G02X213640I-5235*
G01*
X212110*
G75*
G02X201640I-5235*
G01*
X43225*
Y392890*
X92208*
G37*
X201640Y404890D02*
G36*
G75*
G02X212110I5235D01*
G01*
X213640*
G75*
G02X224110I5235*
G01*
X271640*
G75*
G02X282110I5235*
G01*
X283640*
G75*
G02X294110I5235*
G01*
X341640*
G75*
G02X352110I5235*
G01*
X353640*
G75*
G02X364110I5235*
G01*
X401640*
G75*
G02X412110I5235*
G01*
X413640*
G75*
G02X424110I5235*
G01*
X480875*
Y408890*
X488875Y416890*
X424110*
G75*
G02X413640I-5235*
G01*
X412110*
G75*
G02X401640I-5235*
G01*
X364110*
G75*
G02X353640I-5235*
G01*
X352110*
G75*
G02X341640I-5235*
G01*
X294110*
G75*
G02X283640I-5235*
G01*
X282110*
G75*
G02X271640I-5235*
G01*
X224110*
G75*
G02X213640I-5235*
G01*
X212110*
G75*
G02X201640I-5235*
G01*
X43225*
Y404890*
X201640*
G37*
Y416890D02*
G36*
G75*
G02X212110I5235D01*
G01*
X213640*
G75*
G02X224110I5235*
G01*
X271640*
G75*
G02X282110I5235*
G01*
X283640*
G75*
G02X294110I5235*
G01*
X341640*
G75*
G02X352110I5235*
G01*
X353640*
G75*
G02X364110I5235*
G01*
X401640*
G75*
G02X412110I5235*
G01*
X413640*
G75*
G02X424110I5235*
G01*
X488875*
X493875Y421890*
X480875Y434890*
Y441890*
X448875Y473890*
Y530540*
X43225*
Y416890*
X201640*
G37*
X454875Y530540D02*
Y477890D01*
X464875Y467890*
X675875*
X681875Y461890*
Y336890*
X666875Y321890*
X516875*
Y176890*
X552875Y140890*
Y76591*
G75*
G02X571610Y70890I8500J-5701*
G01*
G75*
G02X552875Y65189I-10235*
G01*
Y43240*
X830525*
Y530540*
X454875*
X499640Y482890D02*
G75*
G02X510110I5235D01*
G01*
G75*
G02X499640I-5235*
G01*
X522640Y191890D02*
G75*
G02X533110I5235D01*
G01*
G75*
G02X522640I-5235*
G01*
X529640Y200890D02*
G75*
G02X540110I5235D01*
G01*
G75*
G02X529640I-5235*
G01*
X562640Y132890D02*
G75*
G02X573110I5235D01*
G01*
G75*
G02X562640I-5235*
G01*
X571610Y513390D02*
G75*
G02X551140I-10235D01*
G01*
G75*
G02X571610I10235*
G01*
X596610Y70890D02*
G75*
G02X576140I-10235D01*
G01*
G75*
G02X596610I10235*
G01*
Y513390D02*
G75*
G02X576140I-10235D01*
G01*
G75*
G02X596610I10235*
G01*
X621610D02*
G75*
G02X601140I-10235D01*
G01*
G75*
G02X621610I10235*
G01*
X625930Y299890D02*
G75*
G02X606220I-9855D01*
G01*
G75*
G02X625930I9855*
G01*
X631640Y206890D02*
G75*
G02X642110I5235D01*
G01*
G75*
G02X631640I-5235*
G01*
X646610Y70890D02*
G75*
G02X626140I-10235D01*
G01*
G75*
G02X646610I10235*
G01*
Y513390D02*
G75*
G02X626140I-10235D01*
G01*
G75*
G02X646610I10235*
G01*
X658640Y234890D02*
G75*
G02X669110I5235D01*
G01*
G75*
G02X658640I-5235*
G01*
X671610Y70890D02*
G75*
G02X651140I-10235D01*
G01*
G75*
G02X671610I10235*
G01*
Y513390D02*
G75*
G02X651140I-10235D01*
G01*
G75*
G02X671610I10235*
G01*
X676730Y299890D02*
G75*
G02X657020I-9855D01*
G01*
G75*
G02X676730I9855*
G01*
X685640Y403890D02*
G75*
G02X696110I5235D01*
G01*
G75*
G02X685640I-5235*
G01*
X696610Y70890D02*
G75*
G02X676140I-10235D01*
G01*
G75*
G02X696610I10235*
G01*
X706975Y246145D02*
G75*
G02Y226435J-9855D01*
G01*
G75*
G02Y246145J9855*
G01*
Y296945D02*
G75*
G02Y277235J-9855D01*
G01*
G75*
G02Y296945J9855*
G01*
Y322345D02*
G75*
G02Y302635J-9855D01*
G01*
G75*
G02Y322345J9855*
G01*
Y347745D02*
G75*
G02Y328035J-9855D01*
G01*
G75*
G02Y347745J9855*
G01*
X721610Y70890D02*
G75*
G02X701140I-10235D01*
G01*
G75*
G02X721610I10235*
G01*
Y513390D02*
G75*
G02X701140I-10235D01*
G01*
G75*
G02X721610I10235*
G01*
X732375Y246145D02*
G75*
G02Y226435J-9855D01*
G01*
G75*
G02Y246145J9855*
G01*
Y296945D02*
G75*
G02Y277235J-9855D01*
G01*
G75*
G02Y296945J9855*
G01*
Y322345D02*
G75*
G02Y302635J-9855D01*
G01*
G75*
G02Y322345J9855*
G01*
Y347745D02*
G75*
G02Y328035J-9855D01*
G01*
G75*
G02Y347745J9855*
G01*
X733640Y361890D02*
G75*
G02X744110I5235D01*
G01*
G75*
G02X733640I-5235*
G01*
Y375890D02*
G75*
G02X744110I5235D01*
G01*
G75*
G02X733640I-5235*
G01*
X746610Y70890D02*
G75*
G02X726140I-10235D01*
G01*
G75*
G02X746610I10235*
G01*
Y513390D02*
G75*
G02X726140I-10235D01*
G01*
G75*
G02X746610I10235*
G01*
X752544Y228890D02*
G75*
G02X769206I8331D01*
G01*
G75*
G02X752544I-8331*
G01*
Y374390D02*
G75*
G02X769206I8331D01*
G01*
G75*
G02X752544I-8331*
G01*
X757640Y457890D02*
G75*
G02X768110I5235D01*
G01*
G75*
G02X757640I-5235*
G01*
X796610Y70890D02*
G75*
G02X776140I-10235D01*
G01*
G75*
G02X796610I10235*
G01*
Y513390D02*
G75*
G02X776140I-10235D01*
G01*
G75*
G02X796610I10235*
G01*
X454875Y482890D02*
G36*
Y477890D01*
X464875Y467890*
X675875*
X681875Y461890*
Y457890*
X757640*
G75*
G02X768110I5235*
G01*
X830525*
Y482890*
X510110*
G75*
G02X499640I-5235*
G01*
X454875*
G37*
X499640D02*
G36*
G75*
G02X510110I5235D01*
G01*
X830525*
Y513390*
X796610*
G75*
G02X776140I-10235*
G01*
X746610*
G75*
G02X726140I-10235*
G01*
X721610*
G75*
G02X701140I-10235*
G01*
X671610*
G75*
G02X651140I-10235*
G01*
X646610*
G75*
G02X626140I-10235*
G01*
X621610*
G75*
G02X601140I-10235*
G01*
X596610*
G75*
G02X576140I-10235*
G01*
X571610*
G75*
G02X551140I-10235*
G01*
X454875*
Y482890*
X499640*
G37*
X516875Y191890D02*
G36*
Y176890D01*
X552875Y140890*
Y132890*
X562640*
G75*
G02X573110I5235*
G01*
X830525*
Y191890*
X533110*
G75*
G02X522640I-5235*
G01*
X516875*
G37*
X522640D02*
G36*
G75*
G02X533110I5235D01*
G01*
X830525*
Y200890*
X540110*
G75*
G02X529640I-5235*
G01*
X516875*
Y191890*
X522640*
G37*
X529640Y200890D02*
G36*
G75*
G02X540110I5235D01*
G01*
X830525*
Y206890*
X642110*
G75*
G02X631640I-5235*
G01*
X516875*
Y200890*
X529640*
G37*
X552875Y132890D02*
G36*
Y76591D01*
G75*
G02X571610Y70890I8500J-5701*
G01*
X576140*
G75*
G02X596610I10235*
G01*
X626140*
G75*
G02X646610I10235*
G01*
X651140*
G75*
G02X671610I10235*
G01*
X676140*
G75*
G02X696610I10235*
G01*
X701140*
G75*
G02X721610I10235*
G01*
X726140*
G75*
G02X746610I10235*
G01*
X776140*
G75*
G02X796610I10235*
G01*
X830525*
Y132890*
X573110*
G75*
G02X562640I-5235*
G01*
X552875*
G37*
X551140Y513390D02*
G36*
G75*
G02X571610I10235D01*
G01*
X576140*
G75*
G02X596610I10235*
G01*
X601140*
G75*
G02X621610I10235*
G01*
X626140*
G75*
G02X646610I10235*
G01*
X651140*
G75*
G02X671610I10235*
G01*
X701140*
G75*
G02X721610I10235*
G01*
X726140*
G75*
G02X746610I10235*
G01*
X776140*
G75*
G02X796610I10235*
G01*
X830525*
Y530540*
X454875*
Y513390*
X551140*
G37*
X571610Y70890D02*
G36*
G75*
G02X552875Y65189I-10235D01*
G01*
Y43240*
X830525*
Y70890*
X796610*
G75*
G02X776140I-10235*
G01*
X746610*
G75*
G02X726140I-10235*
G01*
X721610*
G75*
G02X701140I-10235*
G01*
X696610*
G75*
G02X676140I-10235*
G01*
X671610*
G75*
G02X651140I-10235*
G01*
X646610*
G75*
G02X626140I-10235*
G01*
X596610*
G75*
G02X576140I-10235*
G01*
X571610*
G37*
X516875Y299890D02*
G36*
Y287090D01*
X697120*
G75*
G02X706975Y296945I9855*
G01*
G75*
G02X716830Y287090J-9855*
G01*
X722520*
G75*
G02X732375Y296945I9855*
G01*
G75*
G02X742230Y287090J-9855*
G01*
X830525*
Y299890*
X676730*
G75*
G02X657020I-9855*
G01*
X625930*
G75*
G02X606220I-9855*
G01*
X516875*
G37*
X606220D02*
G36*
G75*
G02X625930I9855D01*
G01*
X657020*
G75*
G02X676730I9855*
G01*
X830525*
Y312490*
X742230*
G75*
G02X732375Y302635I-9855*
G01*
G75*
G02X722520Y312490J9855*
G01*
X716830*
G75*
G02X706975Y302635I-9855*
G01*
G75*
G02X697120Y312490J9855*
G01*
X516875*
Y299890*
X606220*
G37*
X631640Y206890D02*
G36*
G75*
G02X642110I5235D01*
G01*
X830525*
Y234890*
X766655*
G75*
G02X769206Y228890I-5780J-6000*
G01*
G75*
G02X752544I-8331*
G01*
G75*
G02X755095Y234890I8331*
G01*
X742130*
G75*
G02X732375Y226435I-9755J1400*
G01*
G75*
G02X722620Y234890J9855*
G01*
X716730*
G75*
G02X706975Y226435I-9755J1400*
G01*
G75*
G02X697220Y234890J9855*
G01*
X669110*
G75*
G02X658640I-5235*
G01*
X516875*
Y206890*
X631640*
G37*
X658640Y234890D02*
G36*
G75*
G02X669110I5235D01*
G01*
X697220*
G75*
G02X706975Y246145I9755J1400*
G01*
G75*
G02X716730Y234890J-9855*
G01*
X722620*
G75*
G02X732375Y246145I9755J1400*
G01*
G75*
G02X742130Y234890J-9855*
G01*
X755095*
G75*
G02X766655I5780J-6000*
G01*
X830525*
Y287090*
X742230*
G75*
G02X732375Y277235I-9855*
G01*
G75*
G02X722520Y287090J9855*
G01*
X716830*
G75*
G02X706975Y277235I-9855*
G01*
G75*
G02X697120Y287090J9855*
G01*
X516875*
Y234890*
X658640*
G37*
X681875Y403890D02*
G36*
Y375890D01*
X733640*
G75*
G02X744110I5235*
G01*
X752680*
G75*
G02X769070I8195J-1500*
G01*
X830525*
Y403890*
X696110*
G75*
G02X685640I-5235*
G01*
X681875*
G37*
X685640D02*
G36*
G75*
G02X696110I5235D01*
G01*
X830525*
Y457890*
X768110*
G75*
G02X757640I-5235*
G01*
X681875*
Y403890*
X685640*
G37*
X697120Y312490D02*
G36*
G75*
G02X706975Y322345I9855D01*
G01*
G75*
G02X716830Y312490J-9855*
G01*
X722520*
G75*
G02X732375Y322345I9855*
G01*
G75*
G02X742230Y312490J-9855*
G01*
X830525*
Y337890*
X742230*
G75*
G02X732375Y328035I-9855*
G01*
G75*
G02X722520Y337890J9855*
G01*
X716830*
G75*
G02X706975Y328035I-9855*
G01*
G75*
G02X697120Y337890J9855*
G01*
X681875*
Y336890*
X666875Y321890*
X516875*
Y312490*
X697120*
G37*
Y337890D02*
G36*
G75*
G02X706975Y347745I9855D01*
G01*
G75*
G02X716830Y337890J-9855*
G01*
X722520*
G75*
G02X732375Y347745I9855*
G01*
G75*
G02X742230Y337890J-9855*
G01*
X830525*
Y361890*
X744110*
G75*
G02X733640I-5235*
G01*
X681875*
Y337890*
X697120*
G37*
X733640Y361890D02*
G36*
G75*
G02X744110I5235D01*
G01*
X830525*
Y375890*
X769070*
G75*
G02X769206Y374390I-8195J-1499*
G01*
G75*
G02X752544I-8331*
G01*
G75*
G02X752680Y375890I8331J1*
G01*
X744110*
G75*
G02X733640I-5235*
G01*
X681875*
Y361890*
X733640*
G37*
X503707Y412058D02*
G75*
G02X512110Y407890I3168J-4168D01*
G01*
G75*
G02X505875Y402751I-5235*
G01*
Y393441*
G75*
G02X516110Y391890I5000J-1551*
G01*
G75*
G02X505875Y390339I-5235*
G01*
Y360890*
X507707Y359058*
G75*
G02X517110Y355890I4168J-3168*
G01*
G75*
G02X515043Y351722I-5235*
G01*
X519875Y346890*
Y327890*
X521875Y325890*
X666816*
X678875Y337949*
Y460831*
X674686Y465020*
X505875*
Y433890*
X493875Y421890*
X503707Y412058*
X509640Y370890D02*
G75*
G02X520110I5235D01*
G01*
G75*
G02X509640I-5235*
G01*
X521640Y403890D02*
G75*
G02X532110I5235D01*
G01*
G75*
G02X521640I-5235*
G01*
Y415890D02*
G75*
G02X532110I5235D01*
G01*
G75*
G02X521640I-5235*
G01*
X533640Y388890D02*
G75*
G02X544110I5235D01*
G01*
G75*
G02X533640I-5235*
G01*
Y403890D02*
G75*
G02X544110I5235D01*
G01*
G75*
G02X533640I-5235*
G01*
Y415890D02*
G75*
G02X544110I5235D01*
G01*
G75*
G02X533640I-5235*
G01*
X588640Y376890D02*
G75*
G02X599110I5235D01*
G01*
G75*
G02X588640I-5235*
G01*
X590640Y449290D02*
G75*
G02X601110I5235D01*
G01*
G75*
G02X590640I-5235*
G01*
X630640Y360890D02*
G75*
G02X641110I5235D01*
G01*
G75*
G02X630640I-5235*
G01*
X639375Y428215D02*
G75*
G02X629640Y430890I-4500J2675D01*
G01*
G75*
G02X639375Y433565I5235*
G01*
G75*
G02X649110Y430890I4500J-2675*
G01*
G75*
G02X639375Y428215I-5235*
G01*
X640640Y364890D02*
G75*
G02X651110I5235D01*
G01*
G75*
G02X640640I-5235*
G01*
X644640Y346890D02*
G75*
G02X655110I5235D01*
G01*
G75*
G02X644640I-5235*
G01*
X505875Y370890D02*
G36*
Y360890D01*
X507707Y359058*
G75*
G02X513427Y360890I4168J-3168*
G01*
X630640*
G75*
G02X641110I5235*
G01*
X642498*
G75*
G02X640640Y364890I3377J4000*
G01*
G75*
G02X651110I5235*
G01*
G75*
G02X649252Y360890I-5235*
G01*
X678875*
Y370890*
X520110*
G75*
G02X509640I-5235*
G01*
X505875*
G37*
X509640D02*
G36*
G75*
G02X520110I5235D01*
G01*
X678875*
Y376890*
X599110*
G75*
G02X588640I-5235*
G01*
X505875*
Y370890*
X509640*
G37*
X510253Y403890D02*
G36*
G75*
G02X505875Y402751I-3378J4000D01*
G01*
Y393441*
G75*
G02X516110Y391890I5000J-1551*
G01*
G75*
G02X515165Y388890I-5235*
G01*
X533640*
G75*
G02X544110I5235*
G01*
X678875*
Y403890*
X544110*
G75*
G02X533640I-5235*
G01*
X532110*
G75*
G02X521640I-5235*
G01*
X510253*
G37*
X521640D02*
G36*
G75*
G02X532110I5235D01*
G01*
X533640*
G75*
G02X544110I5235*
G01*
X678875*
Y415890*
X544110*
G75*
G02X533640I-5235*
G01*
X532110*
G75*
G02X521640I-5235*
G01*
X499875*
X503707Y412058*
G75*
G02X512110Y407890I3168J-4168*
G01*
G75*
G02X510253Y403890I-5235J-1*
G01*
X521640*
G37*
Y415890D02*
G36*
G75*
G02X532110I5235D01*
G01*
X533640*
G75*
G02X544110I5235*
G01*
X678875*
Y430890*
X649110*
G75*
G02X639375Y428215I-5235*
G01*
G75*
G02X629640Y430890I-4500J2675*
G01*
X502875*
X493875Y421890*
X499875Y415890*
X521640*
G37*
X515165Y388890D02*
G36*
G75*
G02X505875Y390339I-4290J3000D01*
G01*
Y376890*
X588640*
G75*
G02X599110I5235*
G01*
X678875*
Y388890*
X544110*
G75*
G02X533640I-5235*
G01*
X515165*
G37*
X505875Y449290D02*
G36*
Y433890D01*
X502875Y430890*
X629640*
G75*
G02X639375Y433565I5235*
G01*
G75*
G02X649110Y430890I4500J-2675*
G01*
X678875*
Y449290*
X601110*
G75*
G02X590640I-5235*
G01*
X505875*
G37*
X590640D02*
G36*
G75*
G02X601110I5235D01*
G01*
X678875*
Y460831*
X674686Y465020*
X505875*
Y449290*
X590640*
G37*
X513427Y360890D02*
G36*
G75*
G02X517110Y355890I-1552J-5000D01*
G01*
G75*
G02X515043Y351722I-5235*
G01*
X519875Y346890*
X644640*
G75*
G02X655110I5235*
G01*
X678875*
Y360890*
X649252*
G75*
G02X642498I-3377J4000*
G01*
X641110*
G75*
G02X630640I-5235*
G01*
X513427*
G37*
X519875Y346890D02*
G36*
Y327890D01*
X521875Y325890*
X666816*
X678875Y337949*
Y346890*
X655110*
G75*
G02X644640I-5235*
G01*
X519875*
G37*
D02*
D13*
X61875Y61890D02*
D03*
Y511890D02*
D03*
X481875Y61890D02*
D03*
X810875Y136890D02*
D03*
Y436890D02*
D03*
D02*
D14*
X491875Y395890D02*
D03*
Y421290D02*
D03*
Y446690D02*
D03*
X616075Y299890D02*
D03*
X641475D02*
D03*
X666875D02*
D03*
X706975Y236290D02*
D03*
Y261690D02*
D03*
Y287090D02*
D03*
Y312490D02*
D03*
Y337890D02*
D03*
X732375Y236290D02*
D03*
Y261690D02*
D03*
Y287090D02*
D03*
Y312490D02*
D03*
Y337890D02*
D03*
D02*
D72*
X760875Y228890D02*
D03*
Y374390D02*
D03*
D02*
D75*
X479375Y500890D02*
X519875D01*
X527875Y492890*
X686375*
X491875Y421290D02*
X450475D01*
X428875Y442890*
X116875*
X70875Y396890*
Y208890*
X84875Y194890*
X107875*
X491875Y421290D02*
Y421890D01*
X501875*
X514875Y434890*
X611875*
X623875Y446890*
X634875*
X635875Y376890D02*
X621975D01*
X611875Y386990*
Y434890*
X643875Y446890D02*
X634875D01*
X644875Y391890D02*
X637875D01*
X635875Y389890*
Y376890*
X686375Y492890D02*
Y492390D01*
X691875Y486890*
X750875*
X754375Y483390*
X686375Y513390D02*
Y492890D01*
X705875Y437890D02*
X753875D01*
X706975Y261690D02*
X688075D01*
X680875Y268890*
X647475*
X641475Y274890*
Y299890*
X732375Y261690D02*
X706975D01*
X745875Y381890D02*
X749875Y385890D01*
X767875*
X753875Y437890D02*
X760875D01*
X785875Y412890*
Y385890*
X754375Y483390D02*
X753875Y482890D01*
Y437890*
X761375Y513390D02*
Y490390D01*
X754375Y483390*
X767875Y385890D02*
X785875D01*
X774875Y260890D02*
Y110390D01*
X761375Y96890*
Y70890*
X774875Y260890D02*
X733175D01*
X732375Y261690*
X785875Y385890D02*
X798875Y372890D01*
Y329390*
Y284890*
X774875Y260890*
D02*
D76*
X772875Y404890D02*
Y390890D01*
X767875Y385890*
D02*
D82*
X155125Y62890D02*
X150085D01*
X155125Y86890D02*
X150085D01*
X156875Y61140D02*
Y56100D01*
Y64640D02*
Y69680D01*
Y85140D02*
Y80100D01*
Y88640D02*
Y93680D01*
X158625Y62890D02*
X163665D01*
X158625Y86890D02*
X163665D01*
X167125Y74890D02*
X162085D01*
X168875Y73140D02*
Y68100D01*
Y76640D02*
Y81680D01*
X170625Y74890D02*
X175665D01*
X179125Y62890D02*
X174085D01*
X179125Y86890D02*
X174085D01*
X180875Y61140D02*
Y56100D01*
Y64640D02*
Y69680D01*
Y85140D02*
Y80100D01*
Y88640D02*
Y93680D01*
X182625Y62890D02*
X187665D01*
X182625Y86890D02*
X187665D01*
X191125Y74890D02*
X186085D01*
X192875Y73140D02*
Y68100D01*
Y76640D02*
Y81680D01*
X194625Y74890D02*
X199665D01*
X203125Y62890D02*
X198085D01*
X203125Y86890D02*
X198085D01*
X204875Y61140D02*
Y56100D01*
Y64640D02*
Y69680D01*
Y85140D02*
Y80100D01*
Y88640D02*
Y93680D01*
X205125Y482890D02*
X200085D01*
X205125Y506890D02*
X200085D01*
X205638Y469653D02*
X202074Y466089D01*
X205638Y472127D02*
X202074Y475691D01*
X205638Y493653D02*
X202074Y490089D01*
X205638Y496127D02*
X202074Y499691D01*
X206625Y62890D02*
X211665D01*
X206625Y86890D02*
X211665D01*
X206875Y481140D02*
Y476100D01*
Y484640D02*
Y489680D01*
Y505140D02*
Y500100D01*
Y508640D02*
Y513680D01*
X208112Y469653D02*
X211676Y466089D01*
X208112Y472127D02*
X211676Y475691D01*
X208112Y493653D02*
X211676Y490089D01*
X208112Y496127D02*
X211676Y499691D01*
X208625Y482890D02*
X213665D01*
X208625Y506890D02*
X213665D01*
X215125Y74890D02*
X210085D01*
X216875Y73140D02*
Y68100D01*
Y76640D02*
Y81680D01*
X217125Y470890D02*
X212085D01*
X217125Y494890D02*
X212085D01*
X217638Y481653D02*
X214074Y478089D01*
X217638Y484127D02*
X214074Y487691D01*
X217638Y505653D02*
X214074Y502089D01*
X217638Y508127D02*
X214074Y511691D01*
X218625Y74890D02*
X223665D01*
X218875Y469140D02*
Y464100D01*
Y472640D02*
Y477680D01*
Y493140D02*
Y488100D01*
Y496640D02*
Y501680D01*
X220112Y481653D02*
X223676Y478089D01*
X220112Y484127D02*
X223676Y487691D01*
X220112Y505653D02*
X223676Y502089D01*
X220112Y508127D02*
X223676Y511691D01*
X220625Y470890D02*
X225665D01*
X220625Y494890D02*
X225665D01*
X227125Y62890D02*
X222085D01*
X227125Y86890D02*
X222085D01*
X228875Y61140D02*
Y56100D01*
Y64640D02*
Y69680D01*
Y85140D02*
Y80100D01*
Y88640D02*
Y93680D01*
X229125Y482890D02*
X224085D01*
X229125Y506890D02*
X224085D01*
X229638Y469653D02*
X226074Y466089D01*
X229638Y472127D02*
X226074Y475691D01*
X229638Y493653D02*
X226074Y490089D01*
X229638Y496127D02*
X226074Y499691D01*
X230625Y62890D02*
X235665D01*
X230625Y86890D02*
X235665D01*
X230875Y481140D02*
Y476100D01*
Y484640D02*
Y489680D01*
Y505140D02*
Y500100D01*
Y508640D02*
Y513680D01*
X232112Y469653D02*
X235676Y466089D01*
X232112Y472127D02*
X235676Y475691D01*
X232112Y493653D02*
X235676Y490089D01*
X232112Y496127D02*
X235676Y499691D01*
X232625Y482890D02*
X237665D01*
X232625Y506890D02*
X237665D01*
X239125Y74890D02*
X234085D01*
X240875Y73140D02*
Y68100D01*
Y76640D02*
Y81680D01*
X242625Y74890D02*
X247665D01*
X251125Y62890D02*
X246085D01*
X251125Y86890D02*
X246085D01*
X252875Y61140D02*
Y56100D01*
Y64640D02*
Y69680D01*
Y85140D02*
Y80100D01*
Y88640D02*
Y93680D01*
X254625Y62890D02*
X259665D01*
X254625Y86890D02*
X259665D01*
X263125Y74890D02*
X258085D01*
X264875Y73140D02*
Y68100D01*
Y76640D02*
Y81680D01*
X266625Y74890D02*
X271665D01*
X267125Y482890D02*
X262085D01*
X267125Y506890D02*
X262085D01*
X267638Y469653D02*
X264074Y466089D01*
X267638Y472127D02*
X264074Y475691D01*
X267638Y493653D02*
X264074Y490089D01*
X267638Y496127D02*
X264074Y499691D01*
X268875Y481140D02*
Y476100D01*
Y484640D02*
Y489680D01*
Y505140D02*
Y500100D01*
Y508640D02*
Y513680D01*
X270112Y469653D02*
X273676Y466089D01*
X270112Y472127D02*
X273676Y475691D01*
X270112Y493653D02*
X273676Y490089D01*
X270112Y496127D02*
X273676Y499691D01*
X270625Y482890D02*
X275665D01*
X270625Y506890D02*
X275665D01*
X275125Y62890D02*
X270085D01*
X275125Y86890D02*
X270085D01*
X276875Y61140D02*
Y56100D01*
Y64640D02*
Y69680D01*
Y85140D02*
Y80100D01*
Y88640D02*
Y93680D01*
X278625Y62890D02*
X283665D01*
X278625Y86890D02*
X283665D01*
X279125Y470890D02*
X274085D01*
X279125Y494890D02*
X274085D01*
X279638Y481653D02*
X276074Y478089D01*
X279638Y484127D02*
X276074Y487691D01*
X279638Y505653D02*
X276074Y502089D01*
X279638Y508127D02*
X276074Y511691D01*
X280875Y469140D02*
Y464100D01*
Y472640D02*
Y477680D01*
Y493140D02*
Y488100D01*
Y496640D02*
Y501680D01*
X282112Y481653D02*
X285676Y478089D01*
X282112Y484127D02*
X285676Y487691D01*
X282112Y505653D02*
X285676Y502089D01*
X282112Y508127D02*
X285676Y511691D01*
X282625Y470890D02*
X287665D01*
X282625Y494890D02*
X287665D01*
X287125Y74890D02*
X282085D01*
X288875Y73140D02*
Y68100D01*
Y76640D02*
Y81680D01*
X290625Y74890D02*
X295665D01*
X291125Y482890D02*
X286085D01*
X291125Y506890D02*
X286085D01*
X291638Y469653D02*
X288074Y466089D01*
X291638Y472127D02*
X288074Y475691D01*
X291638Y493653D02*
X288074Y490089D01*
X291638Y496127D02*
X288074Y499691D01*
X292875Y481140D02*
Y476100D01*
Y484640D02*
Y489680D01*
Y505140D02*
Y500100D01*
Y508640D02*
Y513680D01*
X294112Y469653D02*
X297676Y466089D01*
X294112Y472127D02*
X297676Y475691D01*
X294112Y493653D02*
X297676Y490089D01*
X294112Y496127D02*
X297676Y499691D01*
X294625Y482890D02*
X299665D01*
X294625Y506890D02*
X299665D01*
X299125Y62890D02*
X294085D01*
X299125Y86890D02*
X294085D01*
X299125Y110890D02*
X294085D01*
X300875Y61140D02*
Y56100D01*
Y64640D02*
Y69680D01*
Y85140D02*
Y80100D01*
Y88640D02*
Y93680D01*
Y109140D02*
Y104100D01*
Y112640D02*
Y117680D01*
X302625Y62890D02*
X307665D01*
X302625Y86890D02*
X307665D01*
X302625Y110890D02*
X307665D01*
X311125Y74890D02*
X306085D01*
X311125Y98890D02*
X306085D01*
X311125Y122890D02*
X306085D01*
X312875Y73140D02*
Y68100D01*
Y76640D02*
Y81680D01*
Y97140D02*
Y92100D01*
Y100640D02*
Y105680D01*
Y121140D02*
Y116100D01*
Y124640D02*
Y129680D01*
X314625Y74890D02*
X319665D01*
X314625Y98890D02*
X319665D01*
X314625Y122890D02*
X319665D01*
X323125Y62890D02*
X318085D01*
X323125Y86890D02*
X318085D01*
X323125Y110890D02*
X318085D01*
X324875Y61140D02*
Y56100D01*
Y64640D02*
Y69680D01*
Y85140D02*
Y80100D01*
Y88640D02*
Y93680D01*
Y109140D02*
Y104100D01*
Y112640D02*
Y117680D01*
X326625Y62890D02*
X331665D01*
X326625Y86890D02*
X331665D01*
X326625Y110890D02*
X331665D01*
X332125Y482890D02*
X327085D01*
X332125Y506890D02*
X327085D01*
X332638Y469653D02*
X329074Y466089D01*
X332638Y472127D02*
X329074Y475691D01*
X332638Y493653D02*
X329074Y490089D01*
X332638Y496127D02*
X329074Y499691D01*
X333875Y481140D02*
Y476100D01*
Y484640D02*
Y489680D01*
Y505140D02*
Y500100D01*
Y508640D02*
Y513680D01*
X335112Y469653D02*
X338676Y466089D01*
X335112Y472127D02*
X338676Y475691D01*
X335112Y493653D02*
X338676Y490089D01*
X335112Y496127D02*
X338676Y499691D01*
X335125Y74890D02*
X330085D01*
X335125Y98890D02*
X330085D01*
X335125Y122890D02*
X330085D01*
X335625Y482890D02*
X340665D01*
X335625Y506890D02*
X340665D01*
X336875Y73140D02*
Y68100D01*
Y76640D02*
Y81680D01*
Y97140D02*
Y92100D01*
Y100640D02*
Y105680D01*
Y121140D02*
Y116100D01*
Y124640D02*
Y129680D01*
X338625Y74890D02*
X343665D01*
X338625Y98890D02*
X343665D01*
X338625Y122890D02*
X343665D01*
X344125Y470890D02*
X339085D01*
X344125Y494890D02*
X339085D01*
X344638Y481653D02*
X341074Y478089D01*
X344638Y484127D02*
X341074Y487691D01*
X344638Y505653D02*
X341074Y502089D01*
X344638Y508127D02*
X341074Y511691D01*
X345875Y469140D02*
Y464100D01*
Y472640D02*
Y477680D01*
Y493140D02*
Y488100D01*
Y496640D02*
Y501680D01*
X347112Y481653D02*
X350676Y478089D01*
X347112Y484127D02*
X350676Y487691D01*
X347112Y505653D02*
X350676Y502089D01*
X347112Y508127D02*
X350676Y511691D01*
X347125Y62890D02*
X342085D01*
X347125Y86890D02*
X342085D01*
X347125Y110890D02*
X342085D01*
X347625Y470890D02*
X352665D01*
X347625Y494890D02*
X352665D01*
X348875Y61140D02*
Y56100D01*
Y64640D02*
Y69680D01*
Y85140D02*
Y80100D01*
Y88640D02*
Y93680D01*
Y109140D02*
Y104100D01*
Y112640D02*
Y117680D01*
X350625Y62890D02*
X355665D01*
X350625Y86890D02*
X355665D01*
X350625Y110890D02*
X355665D01*
X356125Y482890D02*
X351085D01*
X356125Y506890D02*
X351085D01*
X356638Y469653D02*
X353074Y466089D01*
X356638Y472127D02*
X353074Y475691D01*
X356638Y493653D02*
X353074Y490089D01*
X356638Y496127D02*
X353074Y499691D01*
X357875Y481140D02*
Y476100D01*
Y484640D02*
Y489680D01*
Y505140D02*
Y500100D01*
Y508640D02*
Y513680D01*
X359112Y469653D02*
X362676Y466089D01*
X359112Y472127D02*
X362676Y475691D01*
X359112Y493653D02*
X362676Y490089D01*
X359112Y496127D02*
X362676Y499691D01*
X359125Y74890D02*
X354085D01*
X359125Y98890D02*
X354085D01*
X359125Y122890D02*
X354085D01*
X359625Y482890D02*
X364665D01*
X359625Y506890D02*
X364665D01*
X360875Y73140D02*
Y68100D01*
Y76640D02*
Y81680D01*
Y97140D02*
Y92100D01*
Y100640D02*
Y105680D01*
Y121140D02*
Y116100D01*
Y124640D02*
Y129680D01*
X362625Y74890D02*
X367665D01*
X362625Y98890D02*
X367665D01*
X362625Y122890D02*
X367665D01*
X371125Y62890D02*
X366085D01*
X371125Y86890D02*
X366085D01*
X371125Y110890D02*
X366085D01*
X372875Y61140D02*
Y56100D01*
Y64640D02*
Y69680D01*
Y85140D02*
Y80100D01*
Y88640D02*
Y93680D01*
Y109140D02*
Y104100D01*
Y112640D02*
Y117680D01*
X374625Y62890D02*
X379665D01*
X374625Y86890D02*
X379665D01*
X374625Y110890D02*
X379665D01*
X383125Y74890D02*
X378085D01*
X384875Y73140D02*
Y68100D01*
Y76640D02*
Y81680D01*
X386625Y74890D02*
X391665D01*
X394125Y482890D02*
X389085D01*
X394125Y506890D02*
X389085D01*
X394638Y469653D02*
X391074Y466089D01*
X394638Y472127D02*
X391074Y475691D01*
X394638Y493653D02*
X391074Y490089D01*
X394638Y496127D02*
X391074Y499691D01*
X395125Y62890D02*
X390085D01*
X395125Y86890D02*
X390085D01*
X395875Y481140D02*
Y476100D01*
Y484640D02*
Y489680D01*
Y505140D02*
Y500100D01*
Y508640D02*
Y513680D01*
X396875Y61140D02*
Y56100D01*
Y64640D02*
Y69680D01*
Y85140D02*
Y80100D01*
Y88640D02*
Y93680D01*
X397112Y469653D02*
X400676Y466089D01*
X397112Y472127D02*
X400676Y475691D01*
X397112Y493653D02*
X400676Y490089D01*
X397112Y496127D02*
X400676Y499691D01*
X397625Y482890D02*
X402665D01*
X397625Y506890D02*
X402665D01*
X398625Y62890D02*
X403665D01*
X398625Y86890D02*
X403665D01*
X406125Y470890D02*
X401085D01*
X406125Y494890D02*
X401085D01*
X406638Y481653D02*
X403074Y478089D01*
X406638Y484127D02*
X403074Y487691D01*
X406638Y505653D02*
X403074Y502089D01*
X406638Y508127D02*
X403074Y511691D01*
X407125Y74890D02*
X402085D01*
X407875Y469140D02*
Y464100D01*
Y472640D02*
Y477680D01*
Y493140D02*
Y488100D01*
Y496640D02*
Y501680D01*
X408875Y73140D02*
Y68100D01*
Y76640D02*
Y81680D01*
X409112Y481653D02*
X412676Y478089D01*
X409112Y484127D02*
X412676Y487691D01*
X409112Y505653D02*
X412676Y502089D01*
X409112Y508127D02*
X412676Y511691D01*
X409625Y470890D02*
X414665D01*
X409625Y494890D02*
X414665D01*
X410625Y74890D02*
X415665D01*
X418125Y482890D02*
X413085D01*
X418125Y506890D02*
X413085D01*
X418638Y469653D02*
X415074Y466089D01*
X418638Y472127D02*
X415074Y475691D01*
X418638Y493653D02*
X415074Y490089D01*
X418638Y496127D02*
X415074Y499691D01*
X419125Y62890D02*
X414085D01*
X419125Y86890D02*
X414085D01*
X419875Y481140D02*
Y476100D01*
Y484640D02*
Y489680D01*
Y505140D02*
Y500100D01*
Y508640D02*
Y513680D01*
X420875Y61140D02*
Y56100D01*
Y64640D02*
Y69680D01*
Y85140D02*
Y80100D01*
Y88640D02*
Y93680D01*
X421112Y469653D02*
X424676Y466089D01*
X421112Y472127D02*
X424676Y475691D01*
X421112Y493653D02*
X424676Y490089D01*
X421112Y496127D02*
X424676Y499691D01*
X421625Y482890D02*
X426665D01*
X421625Y506890D02*
X426665D01*
X422625Y62890D02*
X427665D01*
X422625Y86890D02*
X427665D01*
X431125Y74890D02*
X426085D01*
X432875Y73140D02*
Y68100D01*
Y76640D02*
Y81680D01*
X434625Y74890D02*
X439665D01*
X443125Y62890D02*
X438085D01*
X443125Y86890D02*
X438085D01*
X444875Y61140D02*
Y56100D01*
Y64640D02*
Y69680D01*
Y85140D02*
Y80100D01*
Y88640D02*
Y93680D01*
X446625Y62890D02*
X451665D01*
X446625Y86890D02*
X451665D01*
X467125Y110890D02*
X462085D01*
X468875Y109140D02*
Y104100D01*
Y112640D02*
Y117680D01*
X470625Y110890D02*
X475665D01*
X477625Y500890D02*
X472410D01*
X479125Y98890D02*
X474085D01*
X479125Y122890D02*
X474085D01*
X479375Y499140D02*
Y493925D01*
Y502640D02*
Y507855D01*
X480875Y97140D02*
Y92100D01*
Y100640D02*
Y105680D01*
Y121140D02*
Y116100D01*
Y124640D02*
Y129680D01*
X481125Y500890D02*
X486340D01*
X482625Y98890D02*
X487665D01*
X482625Y122890D02*
X487665D01*
X491125Y110890D02*
X486085D01*
X492875Y109140D02*
Y104100D01*
Y112640D02*
Y117680D01*
X494625Y110890D02*
X499665D01*
X503125Y98890D02*
X498085D01*
X503125Y122890D02*
X498085D01*
X504875Y97140D02*
Y92100D01*
Y100640D02*
Y105680D01*
Y121140D02*
Y116100D01*
Y124640D02*
Y129680D01*
X506625Y98890D02*
X511665D01*
X506625Y122890D02*
X511665D01*
X515125Y62890D02*
X510085D01*
X515125Y86890D02*
X510085D01*
X515125Y110890D02*
X510085D01*
X516875Y61140D02*
Y56100D01*
Y64640D02*
Y69680D01*
Y85140D02*
Y80100D01*
Y88640D02*
Y93680D01*
Y109140D02*
Y104100D01*
Y112640D02*
Y117680D01*
X518625Y62890D02*
X523665D01*
X518625Y86890D02*
X523665D01*
X518625Y110890D02*
X523665D01*
X527125Y122890D02*
X522085D01*
X528875Y121140D02*
Y116100D01*
Y124640D02*
Y129680D01*
X530625Y122890D02*
X535665D01*
X566125Y350890D02*
X561085D01*
X566125Y374890D02*
X561085D01*
X566638Y361653D02*
X563074Y358089D01*
X566638Y364127D02*
X563074Y367691D01*
X566638Y385653D02*
X563074Y382089D01*
X566638Y388127D02*
X563074Y391691D01*
X567125Y104890D02*
X562085D01*
X567638Y115653D02*
X564074Y112089D01*
X567638Y118127D02*
X564074Y121691D01*
X567875Y349140D02*
Y344100D01*
Y352640D02*
Y357680D01*
Y373140D02*
Y368100D01*
Y376640D02*
Y381680D01*
X568875Y103140D02*
Y98100D01*
Y106640D02*
Y111680D01*
X569112Y361653D02*
X572676Y358089D01*
X569112Y364127D02*
X572676Y367691D01*
X569112Y385653D02*
X572676Y382089D01*
X569112Y388127D02*
X572676Y391691D01*
X569625Y350890D02*
X574665D01*
X569625Y374890D02*
X574665D01*
X570112Y115653D02*
X573676Y112089D01*
X570112Y118127D02*
X573676Y121691D01*
X570625Y104890D02*
X575665D01*
X578125Y362890D02*
X573085D01*
X578125Y386890D02*
X573085D01*
X578638Y349653D02*
X575074Y346089D01*
X578638Y352127D02*
X575074Y355691D01*
X578638Y373653D02*
X575074Y370089D01*
X578638Y376127D02*
X575074Y379691D01*
X579125Y116890D02*
X574085D01*
X579638Y103653D02*
X576074Y100089D01*
X579638Y106127D02*
X576074Y109691D01*
X579875Y361140D02*
Y356100D01*
Y364640D02*
Y369680D01*
Y385140D02*
Y380100D01*
Y388640D02*
Y393680D01*
X580875Y115140D02*
Y110100D01*
Y118640D02*
Y123680D01*
X581112Y349653D02*
X584676Y346089D01*
X581112Y352127D02*
X584676Y355691D01*
X581112Y373653D02*
X584676Y370089D01*
X581112Y376127D02*
X584676Y379691D01*
X581625Y362890D02*
X586665D01*
X581625Y386890D02*
X586665D01*
X582112Y103653D02*
X585676Y100089D01*
X582112Y106127D02*
X585676Y109691D01*
X582625Y116890D02*
X587665D01*
X590125Y350890D02*
X585085D01*
X590638Y361653D02*
X587074Y358089D01*
X590638Y364127D02*
X587074Y367691D01*
X591125Y104890D02*
X586085D01*
X591875Y349140D02*
Y344100D01*
Y352640D02*
Y357680D01*
X592875Y103140D02*
Y98100D01*
Y106640D02*
Y111680D01*
X593112Y361653D02*
X596676Y358089D01*
X593112Y364127D02*
X596676Y367691D01*
X593625Y350890D02*
X598665D01*
X594625Y104890D02*
X599665D01*
X604625Y70890D02*
X599585D01*
X611375Y64140D02*
Y59100D01*
Y77640D02*
Y82680D01*
X618125Y70890D02*
X623165D01*
X633638Y445653D02*
X629950Y441965D01*
X633638Y448127D02*
X629950Y451815D01*
X634125Y376890D02*
X628910D01*
X635105Y299890D02*
X630065D01*
X635875Y375140D02*
Y369925D01*
Y378640D02*
Y383855D01*
X636112Y445653D02*
X639800Y441965D01*
X636112Y448127D02*
X639800Y451815D01*
X637625Y376890D02*
X642840D01*
X641475Y293520D02*
Y288480D01*
Y306260D02*
Y311300D01*
X642125Y446890D02*
X636910D01*
X643125Y391890D02*
X637910D01*
X643875Y445140D02*
Y439925D01*
Y448640D02*
Y453855D01*
X644875Y390140D02*
Y384925D01*
Y393640D02*
Y398855D01*
X645625Y446890D02*
X650840D01*
X646625Y391890D02*
X651840D01*
X647845Y299890D02*
X652885D01*
X651125Y134890D02*
X646085D01*
X651638Y121653D02*
X648074Y118089D01*
X651638Y124127D02*
X648074Y127691D01*
X651638Y145653D02*
X648074Y142089D01*
X651638Y148127D02*
X648074Y151691D01*
X652875Y133140D02*
Y128100D01*
Y136640D02*
Y141680D01*
X654112Y121653D02*
X657676Y118089D01*
X654112Y124127D02*
X657676Y127691D01*
X654112Y145653D02*
X657676Y142089D01*
X654112Y148127D02*
X657676Y151691D01*
X654625Y134890D02*
X659665D01*
X655125Y256890D02*
X650085D01*
X656875Y255140D02*
Y250100D01*
Y258640D02*
Y263680D01*
X658625Y256890D02*
X663665D01*
X663125Y122890D02*
X658085D01*
X663125Y146890D02*
X658085D01*
X663638Y133653D02*
X660074Y130089D01*
X663638Y136127D02*
X660074Y139691D01*
X664875Y121140D02*
Y116100D01*
Y124640D02*
Y129680D01*
Y145140D02*
Y140100D01*
Y148640D02*
Y153680D01*
X666112Y133653D02*
X669676Y130089D01*
X666112Y136127D02*
X669676Y139691D01*
X666625Y122890D02*
X671665D01*
X666625Y146890D02*
X671665D01*
X667125Y244890D02*
X662085D01*
X667638Y255653D02*
X664074Y252089D01*
X667638Y258127D02*
X664074Y261691D01*
X668875Y243140D02*
Y238100D01*
Y246640D02*
Y251680D01*
X670112Y255653D02*
X673676Y252089D01*
X670112Y258127D02*
X673676Y261691D01*
X670625Y244890D02*
X675665D01*
X675638Y121653D02*
X672074Y118089D01*
X675638Y124127D02*
X672074Y127691D01*
X678112Y121653D02*
X681676Y118089D01*
X678112Y124127D02*
X681676Y127691D01*
X679125Y256890D02*
X674085D01*
X679625Y513390D02*
X674585D01*
X679638Y243653D02*
X676074Y240089D01*
X679638Y246127D02*
X676074Y249691D01*
X680875Y255140D02*
Y250100D01*
Y258640D02*
Y263680D01*
X682112Y243653D02*
X685676Y240089D01*
X682112Y246127D02*
X685676Y249691D01*
X682625Y256890D02*
X687665D01*
X686375Y506640D02*
Y501600D01*
Y520140D02*
Y525180D01*
X687125Y122890D02*
X682085D01*
X688875Y121140D02*
Y116100D01*
Y124640D02*
Y129680D01*
X690625Y122890D02*
X695665D01*
X692125Y437890D02*
X687085D01*
X692125Y461890D02*
X687085D01*
X692638Y424653D02*
X689074Y421089D01*
X692638Y427127D02*
X689074Y430691D01*
X692638Y448653D02*
X689074Y445089D01*
X692638Y451127D02*
X689074Y454691D01*
X693125Y513390D02*
X698165D01*
X693875Y436140D02*
Y431100D01*
Y439640D02*
Y444680D01*
Y460140D02*
Y455100D01*
Y463640D02*
Y468680D01*
X695112Y424653D02*
X698676Y421089D01*
X695112Y427127D02*
X698676Y430691D01*
X695112Y448653D02*
X698676Y445089D01*
X695112Y451127D02*
X698676Y454691D01*
X695625Y437890D02*
X700665D01*
X695625Y461890D02*
X700665D01*
X699638Y121653D02*
X696074Y118089D01*
X699638Y124127D02*
X696074Y127691D01*
X700605Y261690D02*
X695565D01*
X702112Y121653D02*
X705676Y118089D01*
X702112Y124127D02*
X705676Y127691D01*
X704125Y425890D02*
X699085D01*
X704125Y449890D02*
X699085D01*
X704638Y436653D02*
X700950Y432965D01*
X704638Y439127D02*
X700950Y442815D01*
X704638Y460653D02*
X701074Y457089D01*
X704638Y463127D02*
X701074Y466691D01*
X705875Y424140D02*
Y419100D01*
Y427640D02*
Y432680D01*
Y448140D02*
Y443100D01*
Y451640D02*
Y456680D01*
X706975Y255320D02*
Y250280D01*
Y268060D02*
Y273100D01*
X707112Y436653D02*
X710800Y432965D01*
X707112Y439127D02*
X710800Y442815D01*
X707112Y460653D02*
X710676Y457089D01*
X707112Y463127D02*
X710676Y466691D01*
X707625Y425890D02*
X712665D01*
X707625Y449890D02*
X712665D01*
X711125Y122890D02*
X706085D01*
X712875Y121140D02*
Y116100D01*
Y124640D02*
Y129680D01*
X713345Y261690D02*
X718385D01*
X714625Y122890D02*
X719665D01*
X723125Y163890D02*
X718085D01*
X723638Y150653D02*
X720074Y147089D01*
X723638Y153127D02*
X720074Y156691D01*
X723638Y174653D02*
X720074Y171089D01*
X723638Y177127D02*
X720074Y180691D01*
X724875Y162140D02*
Y157100D01*
Y165640D02*
Y170680D01*
X726005Y261690D02*
X720965D01*
X726112Y150653D02*
X729676Y147089D01*
X726112Y153127D02*
X729676Y156691D01*
X726112Y174653D02*
X729676Y171089D01*
X726112Y177127D02*
X729676Y180691D01*
X726625Y163890D02*
X731665D01*
X732375Y255320D02*
Y250280D01*
Y268060D02*
Y273100D01*
X735125Y175890D02*
X730085D01*
X735638Y162653D02*
X732074Y159089D01*
X735638Y165127D02*
X732074Y168691D01*
X736875Y174140D02*
Y169100D01*
Y177640D02*
Y182680D01*
X738112Y162653D02*
X741676Y159089D01*
X738112Y165127D02*
X741676Y168691D01*
X738625Y175890D02*
X743665D01*
X738745Y261690D02*
X743785D01*
X744125Y381890D02*
X738910D01*
X745875Y380140D02*
Y374925D01*
Y383640D02*
Y388855D01*
X747625Y381890D02*
X752840D01*
X754625Y70890D02*
X749585D01*
X754625Y513390D02*
X749585D01*
X761375Y64140D02*
Y59100D01*
Y77640D02*
Y82680D01*
Y506640D02*
Y501600D01*
Y520140D02*
Y525180D01*
X768125Y70890D02*
X773165D01*
X768125Y513390D02*
X773165D01*
X771125Y404890D02*
X766085D01*
X772875Y403140D02*
Y398100D01*
Y406640D02*
Y411680D01*
X774625Y404890D02*
X779665D01*
X797125Y329390D02*
X791910D01*
X798875Y327640D02*
Y322425D01*
Y331140D02*
Y336355D01*
X800625Y329390D02*
X805840D01*
D02*
D83*
X107875Y194890D02*
D03*
Y256890D02*
D03*
Y318890D02*
D03*
Y380890D02*
D03*
D02*
D89*
X561375Y70890D02*
D03*
Y513390D02*
D03*
X586375Y70890D02*
D03*
Y513390D02*
D03*
X611375Y70890D02*
D03*
Y513390D02*
D03*
X636375Y70890D02*
D03*
Y513390D02*
D03*
X661375Y70890D02*
D03*
Y513390D02*
D03*
X686375Y70890D02*
D03*
Y513390D02*
D03*
X711375Y70890D02*
D03*
Y513390D02*
D03*
X736375Y70890D02*
D03*
Y513390D02*
D03*
X761375Y70890D02*
D03*
Y513390D02*
D03*
X786375Y70890D02*
D03*
Y513390D02*
D03*
D02*
D105*
X134875Y312890D02*
D03*
Y324890D02*
D03*
Y336890D02*
D03*
X135875Y228890D02*
D03*
Y240890D02*
D03*
Y252890D02*
D03*
X146875Y312890D02*
D03*
Y324890D02*
D03*
Y336890D02*
D03*
X147875Y228890D02*
D03*
Y240890D02*
D03*
Y252890D02*
D03*
X156875Y62890D02*
D03*
Y86890D02*
D03*
X158875Y300890D02*
D03*
Y312890D02*
D03*
Y324890D02*
D03*
Y336890D02*
D03*
X159875Y228890D02*
D03*
Y240890D02*
D03*
Y252890D02*
D03*
Y264890D02*
D03*
Y276890D02*
D03*
X168875Y74890D02*
D03*
X170875Y300890D02*
D03*
Y312890D02*
D03*
Y324890D02*
D03*
Y336890D02*
D03*
X171875Y216890D02*
D03*
Y228890D02*
D03*
Y240890D02*
D03*
Y252890D02*
D03*
Y264890D02*
D03*
Y276890D02*
D03*
X180875Y62890D02*
D03*
Y86890D02*
D03*
X182875Y300890D02*
D03*
Y312890D02*
D03*
Y324890D02*
D03*
Y336890D02*
D03*
X183875Y216890D02*
D03*
Y228890D02*
D03*
Y240890D02*
D03*
Y252890D02*
D03*
Y264890D02*
D03*
Y276890D02*
D03*
X192875Y74890D02*
D03*
X204875Y62890D02*
D03*
Y86890D02*
D03*
X206875Y380890D02*
D03*
Y392890D02*
D03*
Y404890D02*
D03*
Y416890D02*
D03*
Y470890D02*
D03*
Y482890D02*
D03*
Y494890D02*
D03*
Y506890D02*
D03*
X216875Y74890D02*
D03*
X217875Y231890D02*
D03*
X218875Y380890D02*
D03*
Y392890D02*
D03*
Y404890D02*
D03*
Y416890D02*
D03*
Y470890D02*
D03*
Y482890D02*
D03*
Y494890D02*
D03*
Y506890D02*
D03*
X228875Y62890D02*
D03*
Y86890D02*
D03*
X229875Y231890D02*
D03*
X230875Y470890D02*
D03*
Y482890D02*
D03*
Y494890D02*
D03*
Y506890D02*
D03*
X240875Y74890D02*
D03*
X241875Y231890D02*
D03*
X252875Y62890D02*
D03*
Y86890D02*
D03*
X257875Y231890D02*
D03*
X264875Y74890D02*
D03*
X268875Y470890D02*
D03*
Y482890D02*
D03*
Y494890D02*
D03*
Y506890D02*
D03*
X269875Y231890D02*
D03*
X276875Y62890D02*
D03*
Y86890D02*
D03*
Y380890D02*
D03*
Y392890D02*
D03*
Y404890D02*
D03*
Y416890D02*
D03*
X280875Y470890D02*
D03*
Y482890D02*
D03*
Y494890D02*
D03*
Y506890D02*
D03*
X281875Y231890D02*
D03*
X288875Y74890D02*
D03*
Y380890D02*
D03*
Y392890D02*
D03*
Y404890D02*
D03*
Y416890D02*
D03*
X289875Y308890D02*
D03*
X292875Y470890D02*
D03*
Y482890D02*
D03*
Y494890D02*
D03*
Y506890D02*
D03*
X299875Y211890D02*
D03*
Y223890D02*
D03*
Y235890D02*
D03*
Y247890D02*
D03*
Y259890D02*
D03*
X300875Y62890D02*
D03*
Y86890D02*
D03*
Y110890D02*
D03*
X311875Y211890D02*
D03*
Y223890D02*
D03*
Y235890D02*
D03*
Y247890D02*
D03*
Y259890D02*
D03*
X312875Y74890D02*
D03*
Y98890D02*
D03*
Y122890D02*
D03*
X323875Y211890D02*
D03*
Y223890D02*
D03*
Y235890D02*
D03*
Y247890D02*
D03*
Y259890D02*
D03*
X324875Y62890D02*
D03*
Y86890D02*
D03*
Y110890D02*
D03*
X333875Y470890D02*
D03*
Y482890D02*
D03*
Y494890D02*
D03*
Y506890D02*
D03*
X336875Y74890D02*
D03*
Y98890D02*
D03*
Y122890D02*
D03*
X343875Y211890D02*
D03*
Y223890D02*
D03*
Y235890D02*
D03*
Y247890D02*
D03*
Y259890D02*
D03*
X345875Y470890D02*
D03*
Y482890D02*
D03*
Y494890D02*
D03*
Y506890D02*
D03*
X346875Y380890D02*
D03*
Y392890D02*
D03*
Y404890D02*
D03*
Y416890D02*
D03*
X348875Y62890D02*
D03*
Y86890D02*
D03*
Y110890D02*
D03*
X355875Y211890D02*
D03*
Y223890D02*
D03*
Y235890D02*
D03*
Y247890D02*
D03*
Y259890D02*
D03*
X357875Y470890D02*
D03*
Y482890D02*
D03*
Y494890D02*
D03*
Y506890D02*
D03*
X358875Y380890D02*
D03*
Y392890D02*
D03*
Y404890D02*
D03*
Y416890D02*
D03*
X360875Y74890D02*
D03*
Y98890D02*
D03*
Y122890D02*
D03*
X367875Y211890D02*
D03*
Y223890D02*
D03*
Y235890D02*
D03*
Y247890D02*
D03*
Y259890D02*
D03*
X372875Y62890D02*
D03*
Y86890D02*
D03*
Y110890D02*
D03*
X383875Y308890D02*
D03*
X384875Y74890D02*
D03*
X386875Y231890D02*
D03*
X395875Y470890D02*
D03*
Y482890D02*
D03*
Y494890D02*
D03*
Y506890D02*
D03*
X396875Y62890D02*
D03*
Y86890D02*
D03*
X398875Y231890D02*
D03*
X406875Y380890D02*
D03*
Y392890D02*
D03*
Y404890D02*
D03*
Y416890D02*
D03*
X407875Y470890D02*
D03*
Y482890D02*
D03*
Y494890D02*
D03*
Y506890D02*
D03*
X408875Y74890D02*
D03*
X410875Y231890D02*
D03*
X418875Y380890D02*
D03*
Y392890D02*
D03*
Y404890D02*
D03*
Y416890D02*
D03*
X419875Y470890D02*
D03*
Y482890D02*
D03*
Y494890D02*
D03*
Y506890D02*
D03*
X420875Y62890D02*
D03*
Y86890D02*
D03*
X426875Y231890D02*
D03*
X432875Y74890D02*
D03*
X438875Y231890D02*
D03*
X444875Y62890D02*
D03*
Y86890D02*
D03*
X450875Y231890D02*
D03*
X468875Y110890D02*
D03*
X479375Y500890D02*
D03*
X480875Y98890D02*
D03*
Y122890D02*
D03*
X492875Y110890D02*
D03*
X494875Y280890D02*
D03*
Y292890D02*
D03*
Y304890D02*
D03*
Y316890D02*
D03*
X504875Y98890D02*
D03*
Y122890D02*
D03*
Y482890D02*
D03*
X506875Y280890D02*
D03*
Y292890D02*
D03*
Y304890D02*
D03*
Y316890D02*
D03*
Y407890D02*
D03*
X510875Y391890D02*
D03*
X511875Y355890D02*
D03*
X514875Y370890D02*
D03*
X516875Y62890D02*
D03*
Y86890D02*
D03*
Y110890D02*
D03*
X526875Y403890D02*
D03*
Y415890D02*
D03*
X527875Y191890D02*
D03*
X528875Y122890D02*
D03*
X534875Y200890D02*
D03*
X538875Y388890D02*
D03*
Y403890D02*
D03*
Y415890D02*
D03*
X567875Y132890D02*
D03*
Y350890D02*
D03*
Y362890D02*
D03*
Y374890D02*
D03*
Y386890D02*
D03*
X568875Y104890D02*
D03*
Y116890D02*
D03*
X579875Y350890D02*
D03*
Y362890D02*
D03*
Y374890D02*
D03*
Y386890D02*
D03*
X580875Y104890D02*
D03*
Y116890D02*
D03*
X591875Y350890D02*
D03*
Y362890D02*
D03*
X592875Y104890D02*
D03*
X593875Y376890D02*
D03*
X595875Y449290D02*
D03*
X634875Y430890D02*
D03*
Y446890D02*
D03*
X635875Y360890D02*
D03*
Y376890D02*
D03*
X636875Y206890D02*
D03*
X643875Y430890D02*
D03*
Y446890D02*
D03*
X644875Y391890D02*
D03*
X645875Y364890D02*
D03*
X649875Y346890D02*
D03*
X652875Y122890D02*
D03*
Y134890D02*
D03*
Y146890D02*
D03*
X656875Y256890D02*
D03*
X663875Y234890D02*
D03*
X664875Y122890D02*
D03*
Y134890D02*
D03*
Y146890D02*
D03*
X668875Y244890D02*
D03*
Y256890D02*
D03*
X676875Y122890D02*
D03*
X680875Y244890D02*
D03*
Y256890D02*
D03*
X688875Y122890D02*
D03*
X690875Y403890D02*
D03*
X693875Y425890D02*
D03*
Y437890D02*
D03*
Y449890D02*
D03*
Y461890D02*
D03*
X700875Y122890D02*
D03*
X705875Y425890D02*
D03*
Y437890D02*
D03*
Y449890D02*
D03*
Y461890D02*
D03*
X712875Y122890D02*
D03*
X724875Y151890D02*
D03*
Y163890D02*
D03*
Y175890D02*
D03*
X736875Y163890D02*
D03*
Y175890D02*
D03*
X738875Y361890D02*
D03*
Y375890D02*
D03*
X745875Y381890D02*
D03*
X762875Y457890D02*
D03*
X772875Y404890D02*
D03*
X798875Y329390D02*
D03*
X0Y0D02*
M02*
