%FSLAX34Y34*%
%MOMM*%
G04 EasyPC Gerber Version 18.0.6 Build 3620 *
%ADD10C,0.12700*%
%ADD82C,0.25000*%
%ADD76C,0.30000*%
%ADD105C,0.60000*%
%ADD75C,0.63500*%
%ADD72C,1.21920*%
%ADD14C,1.52400*%
%ADD89C,1.60000*%
%ADD83C,3.50000*%
%ADD13C,5.00000*%
X0Y0D02*
D02*
D10*
X452875Y530540D02*
X81722D01*
G75*
G02X43225Y492043I-19847J-18650*
G01*
Y81737*
G75*
G02X81722Y43240I18650J-19847*
G01*
X462028*
G75*
G02X454640Y61890I19847J18650*
G01*
G75*
G02X509110I27235*
G01*
G75*
G02X501722Y43240I-27235J1*
G01*
X546875*
Y174890*
X532439Y189326*
G75*
G02X522640Y191890I-4564J2564*
G01*
G75*
G02X525875Y196728I5235*
G01*
Y373830*
X522815Y376890*
X494875*
X480875Y390890*
Y456890*
X452875Y484890*
Y530540*
X107875Y175155D02*
G75*
G02Y214625J19735D01*
G01*
G75*
G02Y175155J-19735*
G01*
Y237155D02*
G75*
G02Y276625J19735D01*
G01*
G75*
G02Y237155J-19735*
G01*
Y299155D02*
G75*
G02Y338625J19735D01*
G01*
G75*
G02Y299155J-19735*
G01*
X129640Y312890D02*
G75*
G02X140110I5235D01*
G01*
G75*
G02X129640I-5235*
G01*
Y324890D02*
G75*
G02X140110I5235D01*
G01*
G75*
G02X129640I-5235*
G01*
Y336890D02*
G75*
G02X140110I5235D01*
G01*
G75*
G02X129640I-5235*
G01*
X130640Y228890D02*
G75*
G02X141110I5235D01*
G01*
G75*
G02X130640I-5235*
G01*
Y240890D02*
G75*
G02X141110I5235D01*
G01*
G75*
G02X130640I-5235*
G01*
Y252890D02*
G75*
G02X141110I5235D01*
G01*
G75*
G02X130640I-5235*
G01*
X141640Y312890D02*
G75*
G02X152110I5235D01*
G01*
G75*
G02X141640I-5235*
G01*
Y324890D02*
G75*
G02X152110I5235D01*
G01*
G75*
G02X141640I-5235*
G01*
Y336890D02*
G75*
G02X152110I5235D01*
G01*
G75*
G02X141640I-5235*
G01*
X142640Y228890D02*
G75*
G02X153110I5235D01*
G01*
G75*
G02X142640I-5235*
G01*
Y240890D02*
G75*
G02X153110I5235D01*
G01*
G75*
G02X142640I-5235*
G01*
Y252890D02*
G75*
G02X153110I5235D01*
G01*
G75*
G02X142640I-5235*
G01*
X151640Y62890D02*
G75*
G02X162110I5235D01*
G01*
G75*
G02X151640I-5235*
G01*
Y86890D02*
G75*
G02X162110I5235D01*
G01*
G75*
G02X151640I-5235*
G01*
X153640Y300890D02*
G75*
G02X164110I5235D01*
G01*
G75*
G02X153640I-5235*
G01*
Y312890D02*
G75*
G02X164110I5235D01*
G01*
G75*
G02X153640I-5235*
G01*
Y324890D02*
G75*
G02X164110I5235D01*
G01*
G75*
G02X153640I-5235*
G01*
Y336890D02*
G75*
G02X164110I5235D01*
G01*
G75*
G02X153640I-5235*
G01*
X154640Y228890D02*
G75*
G02X165110I5235D01*
G01*
G75*
G02X154640I-5235*
G01*
Y240890D02*
G75*
G02X165110I5235D01*
G01*
G75*
G02X154640I-5235*
G01*
Y252890D02*
G75*
G02X165110I5235D01*
G01*
G75*
G02X154640I-5235*
G01*
Y264890D02*
G75*
G02X165110I5235D01*
G01*
G75*
G02X154640I-5235*
G01*
Y276890D02*
G75*
G02X165110I5235D01*
G01*
G75*
G02X154640I-5235*
G01*
X163640Y74890D02*
G75*
G02X174110I5235D01*
G01*
G75*
G02X163640I-5235*
G01*
X165640Y300890D02*
G75*
G02X176110I5235D01*
G01*
G75*
G02X165640I-5235*
G01*
Y312890D02*
G75*
G02X176110I5235D01*
G01*
G75*
G02X165640I-5235*
G01*
Y324890D02*
G75*
G02X176110I5235D01*
G01*
G75*
G02X165640I-5235*
G01*
Y336890D02*
G75*
G02X176110I5235D01*
G01*
G75*
G02X165640I-5235*
G01*
X166640Y216890D02*
G75*
G02X177110I5235D01*
G01*
G75*
G02X166640I-5235*
G01*
Y228890D02*
G75*
G02X177110I5235D01*
G01*
G75*
G02X166640I-5235*
G01*
Y240890D02*
G75*
G02X177110I5235D01*
G01*
G75*
G02X166640I-5235*
G01*
Y252890D02*
G75*
G02X177110I5235D01*
G01*
G75*
G02X166640I-5235*
G01*
Y264890D02*
G75*
G02X177110I5235D01*
G01*
G75*
G02X166640I-5235*
G01*
Y276890D02*
G75*
G02X177110I5235D01*
G01*
G75*
G02X166640I-5235*
G01*
X175640Y62890D02*
G75*
G02X186110I5235D01*
G01*
G75*
G02X175640I-5235*
G01*
Y86890D02*
G75*
G02X186110I5235D01*
G01*
G75*
G02X175640I-5235*
G01*
X177640Y300890D02*
G75*
G02X188110I5235D01*
G01*
G75*
G02X177640I-5235*
G01*
Y312890D02*
G75*
G02X188110I5235D01*
G01*
G75*
G02X177640I-5235*
G01*
Y324890D02*
G75*
G02X188110I5235D01*
G01*
G75*
G02X177640I-5235*
G01*
Y336890D02*
G75*
G02X188110I5235D01*
G01*
G75*
G02X177640I-5235*
G01*
X178640Y216890D02*
G75*
G02X189110I5235D01*
G01*
G75*
G02X178640I-5235*
G01*
Y228890D02*
G75*
G02X189110I5235D01*
G01*
G75*
G02X178640I-5235*
G01*
Y240890D02*
G75*
G02X189110I5235D01*
G01*
G75*
G02X178640I-5235*
G01*
Y252890D02*
G75*
G02X189110I5235D01*
G01*
G75*
G02X178640I-5235*
G01*
Y264890D02*
G75*
G02X189110I5235D01*
G01*
G75*
G02X178640I-5235*
G01*
Y276890D02*
G75*
G02X189110I5235D01*
G01*
G75*
G02X178640I-5235*
G01*
X187640Y74890D02*
G75*
G02X198110I5235D01*
G01*
G75*
G02X187640I-5235*
G01*
X199640Y62890D02*
G75*
G02X210110I5235D01*
G01*
G75*
G02X199640I-5235*
G01*
Y86890D02*
G75*
G02X210110I5235D01*
G01*
G75*
G02X199640I-5235*
G01*
X201640Y470890D02*
G75*
G02X212110I5235D01*
G01*
G75*
G02X201640I-5235*
G01*
Y482890D02*
G75*
G02X212110I5235D01*
G01*
G75*
G02X201640I-5235*
G01*
Y494890D02*
G75*
G02X212110I5235D01*
G01*
G75*
G02X201640I-5235*
G01*
Y506890D02*
G75*
G02X212110I5235D01*
G01*
G75*
G02X201640I-5235*
G01*
X211640Y74890D02*
G75*
G02X222110I5235D01*
G01*
G75*
G02X211640I-5235*
G01*
X212640Y231890D02*
G75*
G02X223110I5235D01*
G01*
G75*
G02X212640I-5235*
G01*
X213640Y470890D02*
G75*
G02X224110I5235D01*
G01*
G75*
G02X213640I-5235*
G01*
Y482890D02*
G75*
G02X224110I5235D01*
G01*
G75*
G02X213640I-5235*
G01*
Y494890D02*
G75*
G02X224110I5235D01*
G01*
G75*
G02X213640I-5235*
G01*
Y506890D02*
G75*
G02X224110I5235D01*
G01*
G75*
G02X213640I-5235*
G01*
X223640Y62890D02*
G75*
G02X234110I5235D01*
G01*
G75*
G02X223640I-5235*
G01*
Y86890D02*
G75*
G02X234110I5235D01*
G01*
G75*
G02X223640I-5235*
G01*
X224640Y231890D02*
G75*
G02X235110I5235D01*
G01*
G75*
G02X224640I-5235*
G01*
X225640Y470890D02*
G75*
G02X236110I5235D01*
G01*
G75*
G02X225640I-5235*
G01*
Y482890D02*
G75*
G02X236110I5235D01*
G01*
G75*
G02X225640I-5235*
G01*
Y494890D02*
G75*
G02X236110I5235D01*
G01*
G75*
G02X225640I-5235*
G01*
Y506890D02*
G75*
G02X236110I5235D01*
G01*
G75*
G02X225640I-5235*
G01*
X235640Y74890D02*
G75*
G02X246110I5235D01*
G01*
G75*
G02X235640I-5235*
G01*
X236640Y231890D02*
G75*
G02X247110I5235D01*
G01*
G75*
G02X236640I-5235*
G01*
X247640Y62890D02*
G75*
G02X258110I5235D01*
G01*
G75*
G02X247640I-5235*
G01*
Y86890D02*
G75*
G02X258110I5235D01*
G01*
G75*
G02X247640I-5235*
G01*
X252640Y231890D02*
G75*
G02X263110I5235D01*
G01*
G75*
G02X252640I-5235*
G01*
X259640Y74890D02*
G75*
G02X270110I5235D01*
G01*
G75*
G02X259640I-5235*
G01*
X263640Y470890D02*
G75*
G02X274110I5235D01*
G01*
G75*
G02X263640I-5235*
G01*
Y482890D02*
G75*
G02X274110I5235D01*
G01*
G75*
G02X263640I-5235*
G01*
Y494890D02*
G75*
G02X274110I5235D01*
G01*
G75*
G02X263640I-5235*
G01*
Y506890D02*
G75*
G02X274110I5235D01*
G01*
G75*
G02X263640I-5235*
G01*
X264640Y231890D02*
G75*
G02X275110I5235D01*
G01*
G75*
G02X264640I-5235*
G01*
X271640Y62890D02*
G75*
G02X282110I5235D01*
G01*
G75*
G02X271640I-5235*
G01*
Y86890D02*
G75*
G02X282110I5235D01*
G01*
G75*
G02X271640I-5235*
G01*
X275640Y470890D02*
G75*
G02X286110I5235D01*
G01*
G75*
G02X275640I-5235*
G01*
Y482890D02*
G75*
G02X286110I5235D01*
G01*
G75*
G02X275640I-5235*
G01*
Y494890D02*
G75*
G02X286110I5235D01*
G01*
G75*
G02X275640I-5235*
G01*
Y506890D02*
G75*
G02X286110I5235D01*
G01*
G75*
G02X275640I-5235*
G01*
X276640Y231890D02*
G75*
G02X287110I5235D01*
G01*
G75*
G02X276640I-5235*
G01*
X283640Y74890D02*
G75*
G02X294110I5235D01*
G01*
G75*
G02X283640I-5235*
G01*
X287640Y470890D02*
G75*
G02X298110I5235D01*
G01*
G75*
G02X287640I-5235*
G01*
Y482890D02*
G75*
G02X298110I5235D01*
G01*
G75*
G02X287640I-5235*
G01*
Y494890D02*
G75*
G02X298110I5235D01*
G01*
G75*
G02X287640I-5235*
G01*
Y506890D02*
G75*
G02X298110I5235D01*
G01*
G75*
G02X287640I-5235*
G01*
X294640Y211890D02*
G75*
G02X305110I5235D01*
G01*
G75*
G02X294640I-5235*
G01*
Y223890D02*
G75*
G02X305110I5235D01*
G01*
G75*
G02X294640I-5235*
G01*
Y235890D02*
G75*
G02X305110I5235D01*
G01*
G75*
G02X294640I-5235*
G01*
Y247890D02*
G75*
G02X305110I5235D01*
G01*
G75*
G02X294640I-5235*
G01*
Y259890D02*
G75*
G02X305110I5235D01*
G01*
G75*
G02X294640I-5235*
G01*
X295640Y62890D02*
G75*
G02X306110I5235D01*
G01*
G75*
G02X295640I-5235*
G01*
Y86890D02*
G75*
G02X306110I5235D01*
G01*
G75*
G02X295640I-5235*
G01*
Y110890D02*
G75*
G02X306110I5235D01*
G01*
G75*
G02X295640I-5235*
G01*
X306640Y211890D02*
G75*
G02X317110I5235D01*
G01*
G75*
G02X306640I-5235*
G01*
Y223890D02*
G75*
G02X317110I5235D01*
G01*
G75*
G02X306640I-5235*
G01*
Y235890D02*
G75*
G02X317110I5235D01*
G01*
G75*
G02X306640I-5235*
G01*
Y247890D02*
G75*
G02X317110I5235D01*
G01*
G75*
G02X306640I-5235*
G01*
Y259890D02*
G75*
G02X317110I5235D01*
G01*
G75*
G02X306640I-5235*
G01*
X307640Y74890D02*
G75*
G02X318110I5235D01*
G01*
G75*
G02X307640I-5235*
G01*
Y98890D02*
G75*
G02X318110I5235D01*
G01*
G75*
G02X307640I-5235*
G01*
Y122890D02*
G75*
G02X318110I5235D01*
G01*
G75*
G02X307640I-5235*
G01*
X318640Y211890D02*
G75*
G02X329110I5235D01*
G01*
G75*
G02X318640I-5235*
G01*
Y223890D02*
G75*
G02X329110I5235D01*
G01*
G75*
G02X318640I-5235*
G01*
Y235890D02*
G75*
G02X329110I5235D01*
G01*
G75*
G02X318640I-5235*
G01*
Y247890D02*
G75*
G02X329110I5235D01*
G01*
G75*
G02X318640I-5235*
G01*
Y259890D02*
G75*
G02X329110I5235D01*
G01*
G75*
G02X318640I-5235*
G01*
X319640Y62890D02*
G75*
G02X330110I5235D01*
G01*
G75*
G02X319640I-5235*
G01*
Y86890D02*
G75*
G02X330110I5235D01*
G01*
G75*
G02X319640I-5235*
G01*
Y110890D02*
G75*
G02X330110I5235D01*
G01*
G75*
G02X319640I-5235*
G01*
X328640Y470890D02*
G75*
G02X339110I5235D01*
G01*
G75*
G02X328640I-5235*
G01*
Y482890D02*
G75*
G02X339110I5235D01*
G01*
G75*
G02X328640I-5235*
G01*
Y494890D02*
G75*
G02X339110I5235D01*
G01*
G75*
G02X328640I-5235*
G01*
Y506890D02*
G75*
G02X339110I5235D01*
G01*
G75*
G02X328640I-5235*
G01*
X331640Y74890D02*
G75*
G02X342110I5235D01*
G01*
G75*
G02X331640I-5235*
G01*
Y98890D02*
G75*
G02X342110I5235D01*
G01*
G75*
G02X331640I-5235*
G01*
Y122890D02*
G75*
G02X342110I5235D01*
G01*
G75*
G02X331640I-5235*
G01*
X338640Y211890D02*
G75*
G02X349110I5235D01*
G01*
G75*
G02X338640I-5235*
G01*
Y223890D02*
G75*
G02X349110I5235D01*
G01*
G75*
G02X338640I-5235*
G01*
Y235890D02*
G75*
G02X349110I5235D01*
G01*
G75*
G02X338640I-5235*
G01*
Y247890D02*
G75*
G02X349110I5235D01*
G01*
G75*
G02X338640I-5235*
G01*
Y259890D02*
G75*
G02X349110I5235D01*
G01*
G75*
G02X338640I-5235*
G01*
X340640Y470890D02*
G75*
G02X351110I5235D01*
G01*
G75*
G02X340640I-5235*
G01*
Y482890D02*
G75*
G02X351110I5235D01*
G01*
G75*
G02X340640I-5235*
G01*
Y494890D02*
G75*
G02X351110I5235D01*
G01*
G75*
G02X340640I-5235*
G01*
Y506890D02*
G75*
G02X351110I5235D01*
G01*
G75*
G02X340640I-5235*
G01*
X343640Y62890D02*
G75*
G02X354110I5235D01*
G01*
G75*
G02X343640I-5235*
G01*
Y86890D02*
G75*
G02X354110I5235D01*
G01*
G75*
G02X343640I-5235*
G01*
Y110890D02*
G75*
G02X354110I5235D01*
G01*
G75*
G02X343640I-5235*
G01*
X350640Y211890D02*
G75*
G02X361110I5235D01*
G01*
G75*
G02X350640I-5235*
G01*
Y223890D02*
G75*
G02X361110I5235D01*
G01*
G75*
G02X350640I-5235*
G01*
Y235890D02*
G75*
G02X361110I5235D01*
G01*
G75*
G02X350640I-5235*
G01*
Y247890D02*
G75*
G02X361110I5235D01*
G01*
G75*
G02X350640I-5235*
G01*
Y259890D02*
G75*
G02X361110I5235D01*
G01*
G75*
G02X350640I-5235*
G01*
X352640Y470890D02*
G75*
G02X363110I5235D01*
G01*
G75*
G02X352640I-5235*
G01*
Y482890D02*
G75*
G02X363110I5235D01*
G01*
G75*
G02X352640I-5235*
G01*
Y494890D02*
G75*
G02X363110I5235D01*
G01*
G75*
G02X352640I-5235*
G01*
Y506890D02*
G75*
G02X363110I5235D01*
G01*
G75*
G02X352640I-5235*
G01*
X355640Y74890D02*
G75*
G02X366110I5235D01*
G01*
G75*
G02X355640I-5235*
G01*
Y98890D02*
G75*
G02X366110I5235D01*
G01*
G75*
G02X355640I-5235*
G01*
Y122890D02*
G75*
G02X366110I5235D01*
G01*
G75*
G02X355640I-5235*
G01*
X362640Y211890D02*
G75*
G02X373110I5235D01*
G01*
G75*
G02X362640I-5235*
G01*
Y223890D02*
G75*
G02X373110I5235D01*
G01*
G75*
G02X362640I-5235*
G01*
Y235890D02*
G75*
G02X373110I5235D01*
G01*
G75*
G02X362640I-5235*
G01*
Y247890D02*
G75*
G02X373110I5235D01*
G01*
G75*
G02X362640I-5235*
G01*
Y259890D02*
G75*
G02X373110I5235D01*
G01*
G75*
G02X362640I-5235*
G01*
X367640Y62890D02*
G75*
G02X378110I5235D01*
G01*
G75*
G02X367640I-5235*
G01*
Y86890D02*
G75*
G02X378110I5235D01*
G01*
G75*
G02X367640I-5235*
G01*
Y110890D02*
G75*
G02X378110I5235D01*
G01*
G75*
G02X367640I-5235*
G01*
X379640Y74890D02*
G75*
G02X390110I5235D01*
G01*
G75*
G02X379640I-5235*
G01*
X381640Y231890D02*
G75*
G02X392110I5235D01*
G01*
G75*
G02X381640I-5235*
G01*
X390640Y470890D02*
G75*
G02X401110I5235D01*
G01*
G75*
G02X390640I-5235*
G01*
Y482890D02*
G75*
G02X401110I5235D01*
G01*
G75*
G02X390640I-5235*
G01*
Y494890D02*
G75*
G02X401110I5235D01*
G01*
G75*
G02X390640I-5235*
G01*
Y506890D02*
G75*
G02X401110I5235D01*
G01*
G75*
G02X390640I-5235*
G01*
X391640Y62890D02*
G75*
G02X402110I5235D01*
G01*
G75*
G02X391640I-5235*
G01*
Y86890D02*
G75*
G02X402110I5235D01*
G01*
G75*
G02X391640I-5235*
G01*
X393640Y231890D02*
G75*
G02X404110I5235D01*
G01*
G75*
G02X393640I-5235*
G01*
X402640Y470890D02*
G75*
G02X413110I5235D01*
G01*
G75*
G02X402640I-5235*
G01*
Y482890D02*
G75*
G02X413110I5235D01*
G01*
G75*
G02X402640I-5235*
G01*
Y494890D02*
G75*
G02X413110I5235D01*
G01*
G75*
G02X402640I-5235*
G01*
Y506890D02*
G75*
G02X413110I5235D01*
G01*
G75*
G02X402640I-5235*
G01*
X403640Y74890D02*
G75*
G02X414110I5235D01*
G01*
G75*
G02X403640I-5235*
G01*
X405640Y231890D02*
G75*
G02X416110I5235D01*
G01*
G75*
G02X405640I-5235*
G01*
X414640Y470890D02*
G75*
G02X425110I5235D01*
G01*
G75*
G02X414640I-5235*
G01*
Y482890D02*
G75*
G02X425110I5235D01*
G01*
G75*
G02X414640I-5235*
G01*
Y494890D02*
G75*
G02X425110I5235D01*
G01*
G75*
G02X414640I-5235*
G01*
Y506890D02*
G75*
G02X425110I5235D01*
G01*
G75*
G02X414640I-5235*
G01*
X415640Y62890D02*
G75*
G02X426110I5235D01*
G01*
G75*
G02X415640I-5235*
G01*
Y86890D02*
G75*
G02X426110I5235D01*
G01*
G75*
G02X415640I-5235*
G01*
X421640Y231890D02*
G75*
G02X432110I5235D01*
G01*
G75*
G02X421640I-5235*
G01*
X427640Y74890D02*
G75*
G02X438110I5235D01*
G01*
G75*
G02X427640I-5235*
G01*
X433640Y231890D02*
G75*
G02X444110I5235D01*
G01*
G75*
G02X433640I-5235*
G01*
X439640Y62890D02*
G75*
G02X450110I5235D01*
G01*
G75*
G02X439640I-5235*
G01*
Y86890D02*
G75*
G02X450110I5235D01*
G01*
G75*
G02X439640I-5235*
G01*
X445640Y231890D02*
G75*
G02X456110I5235D01*
G01*
G75*
G02X445640I-5235*
G01*
X463640Y110890D02*
G75*
G02X474110I5235D01*
G01*
G75*
G02X463640I-5235*
G01*
X475640Y98890D02*
G75*
G02X486110I5235D01*
G01*
G75*
G02X475640I-5235*
G01*
Y122890D02*
G75*
G02X486110I5235D01*
G01*
G75*
G02X475640I-5235*
G01*
X487640Y110890D02*
G75*
G02X498110I5235D01*
G01*
G75*
G02X487640I-5235*
G01*
X489640Y280890D02*
G75*
G02X500110I5235D01*
G01*
G75*
G02X489640I-5235*
G01*
Y292890D02*
G75*
G02X500110I5235D01*
G01*
G75*
G02X489640I-5235*
G01*
Y304890D02*
G75*
G02X500110I5235D01*
G01*
G75*
G02X489640I-5235*
G01*
Y316890D02*
G75*
G02X500110I5235D01*
G01*
G75*
G02X489640I-5235*
G01*
X499640Y98890D02*
G75*
G02X510110I5235D01*
G01*
G75*
G02X499640I-5235*
G01*
Y122890D02*
G75*
G02X510110I5235D01*
G01*
G75*
G02X499640I-5235*
G01*
X501640Y280890D02*
G75*
G02X512110I5235D01*
G01*
G75*
G02X501640I-5235*
G01*
Y292890D02*
G75*
G02X512110I5235D01*
G01*
G75*
G02X501640I-5235*
G01*
Y304890D02*
G75*
G02X512110I5235D01*
G01*
G75*
G02X501640I-5235*
G01*
Y316890D02*
G75*
G02X512110I5235D01*
G01*
G75*
G02X501640I-5235*
G01*
X506640Y355890D02*
G75*
G02X517110I5235D01*
G01*
G75*
G02X506640I-5235*
G01*
X509640Y370890D02*
G75*
G02X520110I5235D01*
G01*
G75*
G02X509640I-5235*
G01*
X511640Y62890D02*
G75*
G02X522110I5235D01*
G01*
G75*
G02X511640I-5235*
G01*
Y86890D02*
G75*
G02X522110I5235D01*
G01*
G75*
G02X511640I-5235*
G01*
Y110890D02*
G75*
G02X522110I5235D01*
G01*
G75*
G02X511640I-5235*
G01*
X523640Y122890D02*
G75*
G02X534110I5235D01*
G01*
G75*
G02X523640I-5235*
G01*
X43225Y194890D02*
G36*
Y122890D01*
X307640*
G75*
G02X318110I5235*
G01*
X331640*
G75*
G02X342110I5235*
G01*
X355640*
G75*
G02X366110I5235*
G01*
X475640*
G75*
G02X486110I5235*
G01*
X499640*
G75*
G02X510110I5235*
G01*
X523640*
G75*
G02X534110I5235*
G01*
X546875*
Y174890*
X532439Y189326*
G75*
G02X522640Y191890I-4564J2564*
G01*
G75*
G02X523585Y194890I5235*
G01*
X127610*
G75*
G02X107875Y175155I-19735*
G01*
G75*
G02X88140Y194890J19735*
G01*
X43225*
G37*
X88140D02*
G36*
G75*
G02X107875Y214625I19735D01*
G01*
G75*
G02X127610Y194890J-19735*
G01*
X523585*
G75*
G02X525875Y196728I4290J-3000*
G01*
Y216890*
X369426*
G75*
G02X373110Y211890I-1551J-5000*
G01*
G75*
G02X362640I-5235*
G01*
G75*
G02X366324Y216890I5235*
G01*
X357426*
G75*
G02X361110Y211890I-1551J-5000*
G01*
G75*
G02X350640I-5235*
G01*
G75*
G02X354324Y216890I5235*
G01*
X345426*
G75*
G02X349110Y211890I-1551J-5000*
G01*
G75*
G02X338640I-5235*
G01*
G75*
G02X342324Y216890I5235*
G01*
X325426*
G75*
G02X329110Y211890I-1551J-5000*
G01*
G75*
G02X318640I-5235*
G01*
G75*
G02X322324Y216890I5235*
G01*
X313426*
G75*
G02X317110Y211890I-1551J-5000*
G01*
G75*
G02X306640I-5235*
G01*
G75*
G02X310324Y216890I5235*
G01*
X301426*
G75*
G02X305110Y211890I-1551J-5000*
G01*
G75*
G02X294640I-5235*
G01*
G75*
G02X298324Y216890I5235*
G01*
X189110*
G75*
G02X178640I-5235*
G01*
X177110*
G75*
G02X166640I-5235*
G01*
X43225*
Y194890*
X88140*
G37*
X43225Y256890D02*
G36*
Y247890D01*
X90312*
G75*
G02X88140Y256890I17562J9000*
G01*
X43225*
G37*
X88140D02*
G36*
G75*
G02X89834Y264890I19734J1D01*
G01*
X43225*
Y256890*
X88140*
G37*
X127610D02*
G36*
G75*
G02X125438Y247890I-19735J1D01*
G01*
X134324*
G75*
G02X130640Y252890I1551J5000*
G01*
G75*
G02X132498Y256890I5235*
G01*
X127610*
G37*
X132498D02*
G36*
G75*
G02X139252I3377J-4000D01*
G01*
X144498*
G75*
G02X151252I3377J-4000*
G01*
X156498*
G75*
G02X163252I3377J-4000*
G01*
X168498*
G75*
G02X175252I3377J-4000*
G01*
X180498*
G75*
G02X187252I3377J-4000*
G01*
X295585*
G75*
G02X294640Y259890I4290J3000*
G01*
G75*
G02X298324Y264890I5235*
G01*
X189110*
G75*
G02X178640I-5235*
G01*
X177110*
G75*
G02X166640I-5235*
G01*
X165110*
G75*
G02X154640I-5235*
G01*
X125916*
G75*
G02X127610Y256890I-18041J-8000*
G01*
X132498*
G37*
X139252D02*
G36*
G75*
G02X141110Y252890I-3377J-4000D01*
G01*
G75*
G02X137426Y247890I-5235*
G01*
X146324*
G75*
G02X142640Y252890I1551J5000*
G01*
G75*
G02X144498Y256890I5235*
G01*
X139252*
G37*
X151252D02*
G36*
G75*
G02X153110Y252890I-3377J-4000D01*
G01*
G75*
G02X149426Y247890I-5235*
G01*
X158324*
G75*
G02X154640Y252890I1551J5000*
G01*
G75*
G02X156498Y256890I5235*
G01*
X151252*
G37*
X163252D02*
G36*
G75*
G02X165110Y252890I-3377J-4000D01*
G01*
G75*
G02X161426Y247890I-5235*
G01*
X170324*
G75*
G02X166640Y252890I1551J5000*
G01*
G75*
G02X168498Y256890I5235*
G01*
X163252*
G37*
X175252D02*
G36*
G75*
G02X177110Y252890I-3377J-4000D01*
G01*
G75*
G02X173426Y247890I-5235*
G01*
X182324*
G75*
G02X178640Y252890I1551J5000*
G01*
G75*
G02X180498Y256890I5235*
G01*
X175252*
G37*
X187252D02*
G36*
G75*
G02X189110Y252890I-3377J-4000D01*
G01*
G75*
G02X185426Y247890I-5235*
G01*
X294640*
G75*
G02X305110I5235*
G01*
X306640*
G75*
G02X317110I5235*
G01*
X318640*
G75*
G02X329110I5235*
G01*
X338640*
G75*
G02X349110I5235*
G01*
X350640*
G75*
G02X361110I5235*
G01*
X362640*
G75*
G02X373110I5235*
G01*
X525875*
Y256890*
X372165*
G75*
G02X363585I-4290J3000*
G01*
X360165*
G75*
G02X351585I-4290J3000*
G01*
X348165*
G75*
G02X339585I-4290J3000*
G01*
X328165*
G75*
G02X319585I-4290J3000*
G01*
X316165*
G75*
G02X307585I-4290J3000*
G01*
X304165*
G75*
G02X295585I-4290J3000*
G01*
X187252*
G37*
X307585D02*
G36*
G75*
G02X306640Y259890I4290J3000D01*
G01*
G75*
G02X310324Y264890I5235*
G01*
X301426*
G75*
G02X305110Y259890I-1551J-5000*
G01*
G75*
G02X304165Y256890I-5235*
G01*
X307585*
G37*
X319585D02*
G36*
G75*
G02X318640Y259890I4290J3000D01*
G01*
G75*
G02X322324Y264890I5235*
G01*
X313426*
G75*
G02X317110Y259890I-1551J-5000*
G01*
G75*
G02X316165Y256890I-5235*
G01*
X319585*
G37*
X339585D02*
G36*
G75*
G02X338640Y259890I4290J3000D01*
G01*
G75*
G02X342324Y264890I5235*
G01*
X325426*
G75*
G02X329110Y259890I-1551J-5000*
G01*
G75*
G02X328165Y256890I-5235*
G01*
X339585*
G37*
X351585D02*
G36*
G75*
G02X350640Y259890I4290J3000D01*
G01*
G75*
G02X354324Y264890I5235*
G01*
X345426*
G75*
G02X349110Y259890I-1551J-5000*
G01*
G75*
G02X348165Y256890I-5235*
G01*
X351585*
G37*
X363585D02*
G36*
G75*
G02X362640Y259890I4290J3000D01*
G01*
G75*
G02X366324Y264890I5235*
G01*
X357426*
G75*
G02X361110Y259890I-1551J-5000*
G01*
G75*
G02X360165Y256890I-5235*
G01*
X363585*
G37*
X525875D02*
G36*
Y264890D01*
X369426*
G75*
G02X373110Y259890I-1551J-5000*
G01*
G75*
G02X372165Y256890I-5235*
G01*
X525875*
G37*
X43225Y318890D02*
G36*
Y312890D01*
X89074*
G75*
G02X88140Y318890I18801J5999*
G01*
X43225*
G37*
X88140D02*
G36*
G75*
G02X89074Y324890I19735J1D01*
G01*
X43225*
Y318890*
X88140*
G37*
X127610D02*
G36*
G75*
G02X126676Y312890I-19736J-1D01*
G01*
X129640*
G75*
G02X140110I5235*
G01*
X141640*
G75*
G02X152110I5235*
G01*
X153640*
G75*
G02X164110I5235*
G01*
X165640*
G75*
G02X176110I5235*
G01*
X177640*
G75*
G02X188110I5235*
G01*
X491498*
G75*
G02X489640Y316890I3377J4000*
G01*
G75*
G02X490037Y318890I5235*
G01*
X127610*
G37*
X490037D02*
G36*
G75*
G02X499713I4838J-2000D01*
G01*
X502037*
G75*
G02X511713I4838J-2000*
G01*
X525875*
Y324890*
X188110*
G75*
G02X177640I-5235*
G01*
X176110*
G75*
G02X165640I-5235*
G01*
X164110*
G75*
G02X153640I-5235*
G01*
X152110*
G75*
G02X141640I-5235*
G01*
X140110*
G75*
G02X129640I-5235*
G01*
X126676*
G75*
G02X127610Y318890I-18802J-5999*
G01*
X490037*
G37*
X499713D02*
G36*
G75*
G02X500110Y316890I-4838J-2000D01*
G01*
G75*
G02X498252Y312890I-5235*
G01*
X503498*
G75*
G02X501640Y316890I3377J4000*
G01*
G75*
G02X502037Y318890I5235*
G01*
X499713*
G37*
X511713D02*
G36*
G75*
G02X512110Y316890I-4838J-2000D01*
G01*
G75*
G02X510252Y312890I-5235*
G01*
X525875*
Y318890*
X511713*
G37*
X43225Y312890D02*
G36*
Y300890D01*
X99784*
G75*
G02X89074Y312890I8091J18000*
G01*
X43225*
G37*
X126676D02*
G36*
G75*
G02X115966Y300890I-18801J6000D01*
G01*
X153640*
G75*
G02X164110I5235*
G01*
X165640*
G75*
G02X176110I5235*
G01*
X177640*
G75*
G02X188110I5235*
G01*
X491498*
G75*
G02X489640Y304890I3377J4000*
G01*
G75*
G02X500110I5235*
G01*
G75*
G02X498252Y300890I-5235*
G01*
X503498*
G75*
G02X501640Y304890I3377J4000*
G01*
G75*
G02X512110I5235*
G01*
G75*
G02X510252Y300890I-5235*
G01*
X525875*
Y312890*
X510252*
G75*
G02X503498I-3377J4000*
G01*
X498252*
G75*
G02X491498I-3377J4000*
G01*
X188110*
G75*
G02X177640I-5235*
G01*
X176110*
G75*
G02X165640I-5235*
G01*
X164110*
G75*
G02X153640I-5235*
G01*
X152110*
G75*
G02X141640I-5235*
G01*
X140110*
G75*
G02X129640I-5235*
G01*
X126676*
G37*
X89074Y324890D02*
G36*
G75*
G02X99784Y336890I18801J-6000D01*
G01*
X43225*
Y324890*
X89074*
G37*
X129640D02*
G36*
G75*
G02X140110I5235D01*
G01*
X141640*
G75*
G02X152110I5235*
G01*
X153640*
G75*
G02X164110I5235*
G01*
X165640*
G75*
G02X176110I5235*
G01*
X177640*
G75*
G02X188110I5235*
G01*
X525875*
Y336890*
X188110*
G75*
G02X177640I-5235*
G01*
X176110*
G75*
G02X165640I-5235*
G01*
X164110*
G75*
G02X153640I-5235*
G01*
X152110*
G75*
G02X141640I-5235*
G01*
X140110*
G75*
G02X129640I-5235*
G01*
X115966*
G75*
G02X126676Y324890I-8091J-18000*
G01*
X129640*
G37*
X99784Y336890D02*
G36*
G75*
G02X107875Y338625I8092J-18001D01*
G01*
G75*
G02X115966Y336890J-19735*
G01*
X129640*
G75*
G02X140110I5235*
G01*
X141640*
G75*
G02X152110I5235*
G01*
X153640*
G75*
G02X164110I5235*
G01*
X165640*
G75*
G02X176110I5235*
G01*
X177640*
G75*
G02X188110I5235*
G01*
X525875*
Y355890*
X517110*
G75*
G02X506640I-5235*
G01*
X43225*
Y336890*
X99784*
G37*
X43225Y228890D02*
G36*
Y216890D01*
X166640*
G75*
G02X177110I5235*
G01*
X178640*
G75*
G02X189110I5235*
G01*
X298324*
G75*
G02X301426I1551J-5000*
G01*
X310324*
G75*
G02X313426I1551J-5000*
G01*
X322324*
G75*
G02X325426I1551J-5000*
G01*
X342324*
G75*
G02X345426I1551J-5000*
G01*
X354324*
G75*
G02X357426I1551J-5000*
G01*
X366324*
G75*
G02X369426I1551J-5000*
G01*
X525875*
Y228890*
X455165*
G75*
G02X446585I-4290J3000*
G01*
X443165*
G75*
G02X434585I-4290J3000*
G01*
X431165*
G75*
G02X422585I-4290J3000*
G01*
X415165*
G75*
G02X406585I-4290J3000*
G01*
X403165*
G75*
G02X394585I-4290J3000*
G01*
X391165*
G75*
G02X382585I-4290J3000*
G01*
X369426*
G75*
G02X373110Y223890I-1551J-5000*
G01*
G75*
G02X362640I-5235*
G01*
G75*
G02X366324Y228890I5235*
G01*
X357426*
G75*
G02X361110Y223890I-1551J-5000*
G01*
G75*
G02X350640I-5235*
G01*
G75*
G02X354324Y228890I5235*
G01*
X345426*
G75*
G02X349110Y223890I-1551J-5000*
G01*
G75*
G02X338640I-5235*
G01*
G75*
G02X342324Y228890I5235*
G01*
X325426*
G75*
G02X329110Y223890I-1551J-5000*
G01*
G75*
G02X318640I-5235*
G01*
G75*
G02X322324Y228890I5235*
G01*
X313426*
G75*
G02X317110Y223890I-1551J-5000*
G01*
G75*
G02X306640I-5235*
G01*
G75*
G02X310324Y228890I5235*
G01*
X301426*
G75*
G02X305110Y223890I-1551J-5000*
G01*
G75*
G02X294640I-5235*
G01*
G75*
G02X298324Y228890I5235*
G01*
X286165*
G75*
G02X277585I-4290J3000*
G01*
X274165*
G75*
G02X265585I-4290J3000*
G01*
X262165*
G75*
G02X253585I-4290J3000*
G01*
X246165*
G75*
G02X237585I-4290J3000*
G01*
X234165*
G75*
G02X225585I-4290J3000*
G01*
X222165*
G75*
G02X213585I-4290J3000*
G01*
X189110*
G75*
G02X178640I-5235*
G01*
X177110*
G75*
G02X166640I-5235*
G01*
X165110*
G75*
G02X154640I-5235*
G01*
X153110*
G75*
G02X142640I-5235*
G01*
X141110*
G75*
G02X130640I-5235*
G01*
X43225*
G37*
X130640D02*
G36*
G75*
G02X141110I5235D01*
G01*
X142640*
G75*
G02X153110I5235*
G01*
X154640*
G75*
G02X165110I5235*
G01*
X166640*
G75*
G02X177110I5235*
G01*
X178640*
G75*
G02X189110I5235*
G01*
X213585*
G75*
G02X212640Y231890I4290J3000*
G01*
G75*
G02X223110I5235*
G01*
G75*
G02X222165Y228890I-5235*
G01*
X225585*
G75*
G02X224640Y231890I4290J3000*
G01*
G75*
G02X235110I5235*
G01*
G75*
G02X234165Y228890I-5235*
G01*
X237585*
G75*
G02X236640Y231890I4290J3000*
G01*
G75*
G02X247110I5235*
G01*
G75*
G02X246165Y228890I-5235*
G01*
X253585*
G75*
G02X252640Y231890I4290J3000*
G01*
G75*
G02X263110I5235*
G01*
G75*
G02X262165Y228890I-5235*
G01*
X265585*
G75*
G02X264640Y231890I4290J3000*
G01*
G75*
G02X275110I5235*
G01*
G75*
G02X274165Y228890I-5235*
G01*
X277585*
G75*
G02X276640Y231890I4290J3000*
G01*
G75*
G02X287110I5235*
G01*
G75*
G02X286165Y228890I-5235*
G01*
X298324*
G75*
G02X301426I1551J-5000*
G01*
X310324*
G75*
G02X313426I1551J-5000*
G01*
X322324*
G75*
G02X325426I1551J-5000*
G01*
X342324*
G75*
G02X345426I1551J-5000*
G01*
X354324*
G75*
G02X357426I1551J-5000*
G01*
X366324*
G75*
G02X369426I1551J-5000*
G01*
X382585*
G75*
G02X381640Y231890I4290J3000*
G01*
G75*
G02X392110I5235*
G01*
G75*
G02X391165Y228890I-5235*
G01*
X394585*
G75*
G02X393640Y231890I4290J3000*
G01*
G75*
G02X404110I5235*
G01*
G75*
G02X403165Y228890I-5235*
G01*
X406585*
G75*
G02X405640Y231890I4290J3000*
G01*
G75*
G02X416110I5235*
G01*
G75*
G02X415165Y228890I-5235*
G01*
X422585*
G75*
G02X421640Y231890I4290J3000*
G01*
G75*
G02X432110I5235*
G01*
G75*
G02X431165Y228890I-5235*
G01*
X434585*
G75*
G02X433640Y231890I4290J3000*
G01*
G75*
G02X444110I5235*
G01*
G75*
G02X443165Y228890I-5235*
G01*
X446585*
G75*
G02X445640Y231890I4290J3000*
G01*
G75*
G02X456110I5235*
G01*
G75*
G02X455165Y228890I-5235*
G01*
X525875*
Y240890*
X369426*
G75*
G02X373110Y235890I-1551J-5000*
G01*
G75*
G02X362640I-5235*
G01*
G75*
G02X366324Y240890I5235*
G01*
X357426*
G75*
G02X361110Y235890I-1551J-5000*
G01*
G75*
G02X350640I-5235*
G01*
G75*
G02X354324Y240890I5235*
G01*
X345426*
G75*
G02X349110Y235890I-1551J-5000*
G01*
G75*
G02X338640I-5235*
G01*
G75*
G02X342324Y240890I5235*
G01*
X325426*
G75*
G02X329110Y235890I-1551J-5000*
G01*
G75*
G02X318640I-5235*
G01*
G75*
G02X322324Y240890I5235*
G01*
X313426*
G75*
G02X317110Y235890I-1551J-5000*
G01*
G75*
G02X306640I-5235*
G01*
G75*
G02X310324Y240890I5235*
G01*
X301426*
G75*
G02X305110Y235890I-1551J-5000*
G01*
G75*
G02X294640I-5235*
G01*
G75*
G02X298324Y240890I5235*
G01*
X189110*
G75*
G02X178640I-5235*
G01*
X177110*
G75*
G02X166640I-5235*
G01*
X165110*
G75*
G02X154640I-5235*
G01*
X153110*
G75*
G02X142640I-5235*
G01*
X141110*
G75*
G02X130640I-5235*
G01*
X119428*
G75*
G02X107875Y237155I-11553J16000*
G01*
G75*
G02X96322Y240890J19735*
G01*
X43225*
Y228890*
X130640*
G37*
X96322Y240890D02*
G36*
G75*
G02X90312Y247890I11553J15999D01*
G01*
X43225*
Y240890*
X96322*
G37*
X130640D02*
G36*
G75*
G02X141110I5235D01*
G01*
X142640*
G75*
G02X153110I5235*
G01*
X154640*
G75*
G02X165110I5235*
G01*
X166640*
G75*
G02X177110I5235*
G01*
X178640*
G75*
G02X189110I5235*
G01*
X298324*
G75*
G02X301426I1551J-5000*
G01*
X310324*
G75*
G02X313426I1551J-5000*
G01*
X322324*
G75*
G02X325426I1551J-5000*
G01*
X342324*
G75*
G02X345426I1551J-5000*
G01*
X354324*
G75*
G02X357426I1551J-5000*
G01*
X366324*
G75*
G02X369426I1551J-5000*
G01*
X525875*
Y247890*
X373110*
G75*
G02X362640I-5235*
G01*
X361110*
G75*
G02X350640I-5235*
G01*
X349110*
G75*
G02X338640I-5235*
G01*
X329110*
G75*
G02X318640I-5235*
G01*
X317110*
G75*
G02X306640I-5235*
G01*
X305110*
G75*
G02X294640I-5235*
G01*
X185426*
G75*
G02X182324I-1551J5000*
G01*
X173426*
G75*
G02X170324I-1551J5000*
G01*
X161426*
G75*
G02X158324I-1551J5000*
G01*
X149426*
G75*
G02X146324I-1551J5000*
G01*
X137426*
G75*
G02X134324I-1551J5000*
G01*
X125438*
G75*
G02X119428Y240890I-17563J8999*
G01*
X130640*
G37*
X89091Y62890D02*
G36*
G75*
G02X81722Y43240I-27216J-1000D01*
G01*
X462028*
G75*
G02X454640Y61890I19847J18650*
G01*
G75*
G02X454658Y62890I27225J10*
G01*
X450110*
G75*
G02X439640I-5235*
G01*
X426110*
G75*
G02X415640I-5235*
G01*
X402110*
G75*
G02X391640I-5235*
G01*
X378110*
G75*
G02X367640I-5235*
G01*
X354110*
G75*
G02X343640I-5235*
G01*
X330110*
G75*
G02X319640I-5235*
G01*
X306110*
G75*
G02X295640I-5235*
G01*
X282110*
G75*
G02X271640I-5235*
G01*
X258110*
G75*
G02X247640I-5235*
G01*
X234110*
G75*
G02X223640I-5235*
G01*
X210110*
G75*
G02X199640I-5235*
G01*
X186110*
G75*
G02X175640I-5235*
G01*
X162110*
G75*
G02X151640I-5235*
G01*
X89091*
G37*
X151640D02*
G36*
G75*
G02X162110I5235D01*
G01*
X175640*
G75*
G02X186110I5235*
G01*
X199640*
G75*
G02X210110I5235*
G01*
X223640*
G75*
G02X234110I5235*
G01*
X247640*
G75*
G02X258110I5235*
G01*
X271640*
G75*
G02X282110I5235*
G01*
X295640*
G75*
G02X306110I5235*
G01*
X319640*
G75*
G02X330110I5235*
G01*
X343640*
G75*
G02X354110I5235*
G01*
X367640*
G75*
G02X378110I5235*
G01*
X391640*
G75*
G02X402110I5235*
G01*
X415640*
G75*
G02X426110I5235*
G01*
X439640*
G75*
G02X450110I5235*
G01*
X454658*
G75*
G02X457943Y74890I27217J-1001*
G01*
X438110*
G75*
G02X427640I-5235*
G01*
X414110*
G75*
G02X403640I-5235*
G01*
X390110*
G75*
G02X379640I-5235*
G01*
X366110*
G75*
G02X355640I-5235*
G01*
X342110*
G75*
G02X331640I-5235*
G01*
X318110*
G75*
G02X307640I-5235*
G01*
X294110*
G75*
G02X283640I-5235*
G01*
X270110*
G75*
G02X259640I-5235*
G01*
X246110*
G75*
G02X235640I-5235*
G01*
X222110*
G75*
G02X211640I-5235*
G01*
X198110*
G75*
G02X187640I-5235*
G01*
X174110*
G75*
G02X163640I-5235*
G01*
X85807*
G75*
G02X89091Y62890I-23932J-12999*
G01*
X151640*
G37*
X509092D02*
G36*
G75*
G02X509110Y61890I-27220J-990D01*
G01*
G75*
G02X501722Y43240I-27235J1*
G01*
X546875*
Y62890*
X522110*
G75*
G02X511640I-5235*
G01*
X509092*
G37*
X511640D02*
G36*
G75*
G02X522110I5235D01*
G01*
X546875*
Y86890*
X522110*
G75*
G02X511640I-5235*
G01*
X492680*
G75*
G02X509092Y62890I-10805J-25000*
G01*
X511640*
G37*
X72680Y86890D02*
G36*
G75*
G02X85807Y74890I-10806J-25000D01*
G01*
X163640*
G75*
G02X174110I5235*
G01*
X187640*
G75*
G02X198110I5235*
G01*
X211640*
G75*
G02X222110I5235*
G01*
X235640*
G75*
G02X246110I5235*
G01*
X259640*
G75*
G02X270110I5235*
G01*
X283640*
G75*
G02X294110I5235*
G01*
X307640*
G75*
G02X318110I5235*
G01*
X331640*
G75*
G02X342110I5235*
G01*
X355640*
G75*
G02X366110I5235*
G01*
X379640*
G75*
G02X390110I5235*
G01*
X403640*
G75*
G02X414110I5235*
G01*
X427640*
G75*
G02X438110I5235*
G01*
X457943*
G75*
G02X471070Y86890I23933J-13000*
G01*
X450110*
G75*
G02X439640I-5235*
G01*
X426110*
G75*
G02X415640I-5235*
G01*
X402110*
G75*
G02X391640I-5235*
G01*
X378110*
G75*
G02X367640I-5235*
G01*
X354110*
G75*
G02X343640I-5235*
G01*
X330110*
G75*
G02X319640I-5235*
G01*
X306110*
G75*
G02X295640I-5235*
G01*
X282110*
G75*
G02X271640I-5235*
G01*
X258110*
G75*
G02X247640I-5235*
G01*
X234110*
G75*
G02X223640I-5235*
G01*
X210110*
G75*
G02X199640I-5235*
G01*
X186110*
G75*
G02X175640I-5235*
G01*
X162110*
G75*
G02X151640I-5235*
G01*
X72680*
G37*
X151640D02*
G36*
G75*
G02X162110I5235D01*
G01*
X175640*
G75*
G02X186110I5235*
G01*
X199640*
G75*
G02X210110I5235*
G01*
X223640*
G75*
G02X234110I5235*
G01*
X247640*
G75*
G02X258110I5235*
G01*
X271640*
G75*
G02X282110I5235*
G01*
X295640*
G75*
G02X306110I5235*
G01*
X319640*
G75*
G02X330110I5235*
G01*
X343640*
G75*
G02X354110I5235*
G01*
X367640*
G75*
G02X378110I5235*
G01*
X391640*
G75*
G02X402110I5235*
G01*
X415640*
G75*
G02X426110I5235*
G01*
X439640*
G75*
G02X450110I5235*
G01*
X471070*
G75*
G02X492680I10805J-24999*
G01*
X511640*
G75*
G02X522110I5235*
G01*
X546875*
Y98890*
X510110*
G75*
G02X499640I-5235*
G01*
X486110*
G75*
G02X475640I-5235*
G01*
X366110*
G75*
G02X355640I-5235*
G01*
X342110*
G75*
G02X331640I-5235*
G01*
X318110*
G75*
G02X307640I-5235*
G01*
X43225*
Y81737*
G75*
G02X72680Y86890I18650J-19847*
G01*
X151640*
G37*
X43225Y300890D02*
G36*
Y292890D01*
X489640*
G75*
G02X500110I5235*
G01*
X501640*
G75*
G02X512110I5235*
G01*
X525875*
Y300890*
X510252*
G75*
G02X503498I-3377J4000*
G01*
X498252*
G75*
G02X491498I-3377J4000*
G01*
X188110*
G75*
G02X177640I-5235*
G01*
X176110*
G75*
G02X165640I-5235*
G01*
X164110*
G75*
G02X153640I-5235*
G01*
X115966*
G75*
G02X107875Y299155I-8091J18000*
G01*
G75*
G02X99784Y300890I1J19736*
G01*
X43225*
G37*
X89834Y264890D02*
G36*
G75*
G02X107875Y276625I18041J-8000D01*
G01*
G75*
G02X125916Y264890J-19735*
G01*
X154640*
G75*
G02X165110I5235*
G01*
X166640*
G75*
G02X177110I5235*
G01*
X178640*
G75*
G02X189110I5235*
G01*
X298324*
G75*
G02X301426I1551J-5000*
G01*
X310324*
G75*
G02X313426I1551J-5000*
G01*
X322324*
G75*
G02X325426I1551J-5000*
G01*
X342324*
G75*
G02X345426I1551J-5000*
G01*
X354324*
G75*
G02X357426I1551J-5000*
G01*
X366324*
G75*
G02X369426I1551J-5000*
G01*
X525875*
Y276890*
X510252*
G75*
G02X503498I-3377J4000*
G01*
X498252*
G75*
G02X491498I-3377J4000*
G01*
X189110*
G75*
G02X178640I-5235*
G01*
X177110*
G75*
G02X166640I-5235*
G01*
X165110*
G75*
G02X154640I-5235*
G01*
X43225*
Y264890*
X89834*
G37*
X154640Y276890D02*
G36*
G75*
G02X165110I5235D01*
G01*
X166640*
G75*
G02X177110I5235*
G01*
X178640*
G75*
G02X189110I5235*
G01*
X491498*
G75*
G02X489640Y280890I3377J4000*
G01*
G75*
G02X500110I5235*
G01*
G75*
G02X498252Y276890I-5235*
G01*
X503498*
G75*
G02X501640Y280890I3377J4000*
G01*
G75*
G02X512110I5235*
G01*
G75*
G02X510252Y276890I-5235*
G01*
X525875*
Y292890*
X512110*
G75*
G02X501640I-5235*
G01*
X500110*
G75*
G02X489640I-5235*
G01*
X43225*
Y276890*
X154640*
G37*
X43225Y470890D02*
G36*
Y370890D01*
X509640*
G75*
G02X520110I5235*
G01*
X525875*
Y373830*
X522815Y376890*
X494875*
X480875Y390890*
Y456890*
X466875Y470890*
X425110*
G75*
G02X414640I-5235*
G01*
X413110*
G75*
G02X402640I-5235*
G01*
X401110*
G75*
G02X390640I-5235*
G01*
X363110*
G75*
G02X352640I-5235*
G01*
X351110*
G75*
G02X340640I-5235*
G01*
X339110*
G75*
G02X328640I-5235*
G01*
X298110*
G75*
G02X287640I-5235*
G01*
X286110*
G75*
G02X275640I-5235*
G01*
X274110*
G75*
G02X263640I-5235*
G01*
X236110*
G75*
G02X225640I-5235*
G01*
X224110*
G75*
G02X213640I-5235*
G01*
X212110*
G75*
G02X201640I-5235*
G01*
X43225*
G37*
X201640D02*
G36*
G75*
G02X212110I5235D01*
G01*
X213640*
G75*
G02X224110I5235*
G01*
X225640*
G75*
G02X236110I5235*
G01*
X263640*
G75*
G02X274110I5235*
G01*
X275640*
G75*
G02X286110I5235*
G01*
X287640*
G75*
G02X298110I5235*
G01*
X328640*
G75*
G02X339110I5235*
G01*
X340640*
G75*
G02X351110I5235*
G01*
X352640*
G75*
G02X363110I5235*
G01*
X390640*
G75*
G02X401110I5235*
G01*
X402640*
G75*
G02X413110I5235*
G01*
X414640*
G75*
G02X425110I5235*
G01*
X466875*
X454875Y482890*
X425110*
G75*
G02X414640I-5235*
G01*
X413110*
G75*
G02X402640I-5235*
G01*
X401110*
G75*
G02X390640I-5235*
G01*
X363110*
G75*
G02X352640I-5235*
G01*
X351110*
G75*
G02X340640I-5235*
G01*
X339110*
G75*
G02X328640I-5235*
G01*
X298110*
G75*
G02X287640I-5235*
G01*
X286110*
G75*
G02X275640I-5235*
G01*
X274110*
G75*
G02X263640I-5235*
G01*
X236110*
G75*
G02X225640I-5235*
G01*
X224110*
G75*
G02X213640I-5235*
G01*
X212110*
G75*
G02X201640I-5235*
G01*
X43225*
Y470890*
X201640*
G37*
Y482890D02*
G36*
G75*
G02X212110I5235D01*
G01*
X213640*
G75*
G02X224110I5235*
G01*
X225640*
G75*
G02X236110I5235*
G01*
X263640*
G75*
G02X274110I5235*
G01*
X275640*
G75*
G02X286110I5235*
G01*
X287640*
G75*
G02X298110I5235*
G01*
X328640*
G75*
G02X339110I5235*
G01*
X340640*
G75*
G02X351110I5235*
G01*
X352640*
G75*
G02X363110I5235*
G01*
X390640*
G75*
G02X401110I5235*
G01*
X402640*
G75*
G02X413110I5235*
G01*
X414640*
G75*
G02X425110I5235*
G01*
X454875*
X452875Y484890*
Y494890*
X425110*
G75*
G02X414640I-5235*
G01*
X413110*
G75*
G02X402640I-5235*
G01*
X401110*
G75*
G02X390640I-5235*
G01*
X363110*
G75*
G02X352640I-5235*
G01*
X351110*
G75*
G02X340640I-5235*
G01*
X339110*
G75*
G02X328640I-5235*
G01*
X298110*
G75*
G02X287640I-5235*
G01*
X286110*
G75*
G02X275640I-5235*
G01*
X274110*
G75*
G02X263640I-5235*
G01*
X236110*
G75*
G02X225640I-5235*
G01*
X224110*
G75*
G02X213640I-5235*
G01*
X212110*
G75*
G02X201640I-5235*
G01*
X83152*
G75*
G02X43225Y492043I-21277J17000*
G01*
Y482890*
X201640*
G37*
Y494890D02*
G36*
G75*
G02X212110I5235D01*
G01*
X213640*
G75*
G02X224110I5235*
G01*
X225640*
G75*
G02X236110I5235*
G01*
X263640*
G75*
G02X274110I5235*
G01*
X275640*
G75*
G02X286110I5235*
G01*
X287640*
G75*
G02X298110I5235*
G01*
X328640*
G75*
G02X339110I5235*
G01*
X340640*
G75*
G02X351110I5235*
G01*
X352640*
G75*
G02X363110I5235*
G01*
X390640*
G75*
G02X401110I5235*
G01*
X402640*
G75*
G02X413110I5235*
G01*
X414640*
G75*
G02X425110I5235*
G01*
X452875*
Y506890*
X425110*
G75*
G02X414640I-5235*
G01*
X413110*
G75*
G02X402640I-5235*
G01*
X401110*
G75*
G02X390640I-5235*
G01*
X363110*
G75*
G02X352640I-5235*
G01*
X351110*
G75*
G02X340640I-5235*
G01*
X339110*
G75*
G02X328640I-5235*
G01*
X298110*
G75*
G02X287640I-5235*
G01*
X286110*
G75*
G02X275640I-5235*
G01*
X274110*
G75*
G02X263640I-5235*
G01*
X236110*
G75*
G02X225640I-5235*
G01*
X224110*
G75*
G02X213640I-5235*
G01*
X212110*
G75*
G02X201640I-5235*
G01*
X88647*
G75*
G02X83152Y494890I-26771J5001*
G01*
X201640*
G37*
Y506890D02*
G36*
G75*
G02X212110I5235D01*
G01*
X213640*
G75*
G02X224110I5235*
G01*
X225640*
G75*
G02X236110I5235*
G01*
X263640*
G75*
G02X274110I5235*
G01*
X275640*
G75*
G02X286110I5235*
G01*
X287640*
G75*
G02X298110I5235*
G01*
X328640*
G75*
G02X339110I5235*
G01*
X340640*
G75*
G02X351110I5235*
G01*
X352640*
G75*
G02X363110I5235*
G01*
X390640*
G75*
G02X401110I5235*
G01*
X402640*
G75*
G02X413110I5235*
G01*
X414640*
G75*
G02X425110I5235*
G01*
X452875*
Y530540*
X81722*
G75*
G02X88647Y506890I-19847J-18650*
G01*
X201640*
G37*
X43225Y110890D02*
G36*
Y98890D01*
X307640*
G75*
G02X318110I5235*
G01*
X331640*
G75*
G02X342110I5235*
G01*
X355640*
G75*
G02X366110I5235*
G01*
X475640*
G75*
G02X486110I5235*
G01*
X499640*
G75*
G02X510110I5235*
G01*
X546875*
Y110890*
X522110*
G75*
G02X511640I-5235*
G01*
X498110*
G75*
G02X487640I-5235*
G01*
X474110*
G75*
G02X463640I-5235*
G01*
X378110*
G75*
G02X367640I-5235*
G01*
X354110*
G75*
G02X343640I-5235*
G01*
X330110*
G75*
G02X319640I-5235*
G01*
X306110*
G75*
G02X295640I-5235*
G01*
X43225*
G37*
X295640D02*
G36*
G75*
G02X306110I5235D01*
G01*
X319640*
G75*
G02X330110I5235*
G01*
X343640*
G75*
G02X354110I5235*
G01*
X367640*
G75*
G02X378110I5235*
G01*
X463640*
G75*
G02X474110I5235*
G01*
X487640*
G75*
G02X498110I5235*
G01*
X511640*
G75*
G02X522110I5235*
G01*
X546875*
Y122890*
X534110*
G75*
G02X523640I-5235*
G01*
X510110*
G75*
G02X499640I-5235*
G01*
X486110*
G75*
G02X475640I-5235*
G01*
X366110*
G75*
G02X355640I-5235*
G01*
X342110*
G75*
G02X331640I-5235*
G01*
X318110*
G75*
G02X307640I-5235*
G01*
X43225*
Y110890*
X295640*
G37*
X506640Y355890D02*
G36*
G75*
G02X517110I5235D01*
G01*
X525875*
Y370890*
X520110*
G75*
G02X509640I-5235*
G01*
X43225*
Y355890*
X506640*
G37*
X456875Y530540D02*
Y486890D01*
X477875Y465890*
X508875*
X530875Y443890*
X630585*
G75*
G02X629640Y446890I4290J3000*
G01*
G75*
G02X639375Y449565I5235*
G01*
G75*
G02X649110Y446890I4500J-2675*
G01*
G75*
G02X648165Y443890I-5235*
G01*
X656875*
X668875Y431890*
Y339890*
X657875Y328890*
Y262029*
G75*
G02Y251751I-1000J-5139*
G01*
Y234172*
X658640Y234937*
G75*
G02X669110Y234890I5235J-47*
G01*
G75*
G02X663922Y229655I-5235*
G01*
X657875Y223608*
Y148441*
G75*
G02Y145339I-5001J-1551*
G01*
Y136441*
G75*
G02Y133339I-5001J-1551*
G01*
Y124441*
G75*
G02Y121339I-5001J-1551*
G01*
Y96890*
X675875Y78890*
Y43240*
X830525*
Y118032*
G75*
G02X783640Y136890I-19650J18858*
G01*
G75*
G02X830525Y155748I27235*
G01*
Y418032*
G75*
G02X783640Y436890I-19650J18858*
G01*
G75*
G02X830525Y455748I27235*
G01*
Y530540*
X456875*
X474140Y500890D02*
G75*
G02X484610I5235D01*
G01*
G75*
G02X474140I-5235*
G01*
X571610Y513390D02*
G75*
G02X551140I-10235D01*
G01*
G75*
G02X571610I10235*
G01*
X590640Y449290D02*
G75*
G02X601110I5235D01*
G01*
G75*
G02X590640I-5235*
G01*
X596610Y513390D02*
G75*
G02X576140I-10235D01*
G01*
G75*
G02X596610I10235*
G01*
X621610D02*
G75*
G02X601140I-10235D01*
G01*
G75*
G02X621610I10235*
G01*
X646610D02*
G75*
G02X626140I-10235D01*
G01*
G75*
G02X646610I10235*
G01*
X656465Y504410D02*
G75*
G02X651140Y513390I4910J8980D01*
G01*
G75*
G02X671610I10235*
G01*
G75*
G02X667285Y505034I-10235*
G01*
Y501131*
X668116Y500300*
X749875*
G75*
G02X753700Y498715I-1J-5410*
G01*
X764700Y487715*
G75*
G02X766285Y483890I-3825J-3826*
G01*
Y477890*
G75*
G02X764700Y474065I-5410J1*
G01*
X756285Y465649*
Y452131*
X764700Y443715*
G75*
G02X766285Y439890I-3825J-3826*
G01*
Y380725*
G75*
G02Y368055I-5410J-6335*
G01*
Y235225*
G75*
G02X769206Y228890I-5410J-6335*
G01*
G75*
G02X752544I-8331*
G01*
G75*
G02X755465Y235225I8331*
G01*
Y368055*
G75*
G02Y380725I5410J6335*
G01*
Y437649*
X747050Y446065*
G75*
G02X745465Y449890I3825J3826*
G01*
Y467890*
G75*
G02X747050Y471715I5410J-1*
G01*
X755465Y480131*
Y481649*
X747634Y489480*
X665875*
G75*
G02X662050Y491065I1J5410*
G01*
X658050Y495065*
G75*
G02X656465Y498890I3825J3826*
G01*
Y504410*
X663640Y244890D02*
G75*
G02X674110I5235D01*
G01*
G75*
G02X663640I-5235*
G01*
Y256890D02*
G75*
G02X674110I5235D01*
G01*
G75*
G02X663640I-5235*
G01*
X664875Y129655D02*
G75*
G02Y140125J5235D01*
G01*
G75*
G02Y129655J-5235*
G01*
Y141655D02*
G75*
G02Y152125J5235D01*
G01*
G75*
G02Y141655J-5235*
G01*
X670110Y122890D02*
G75*
G02X659640I-5235D01*
G01*
G75*
G02X670110I5235*
G01*
X675640Y244890D02*
G75*
G02X686110I5235D01*
G01*
G75*
G02X675640I-5235*
G01*
Y256890D02*
G75*
G02X686110I5235D01*
G01*
G75*
G02X675640I-5235*
G01*
X682110Y122890D02*
G75*
G02X671640I-5235D01*
G01*
G75*
G02X682110I5235*
G01*
X685640Y403890D02*
G75*
G02X696110I5235D01*
G01*
G75*
G02X685640I-5235*
G01*
X688640Y425890D02*
G75*
G02X699110I5235D01*
G01*
G75*
G02X688640I-5235*
G01*
Y437890D02*
G75*
G02X699110I5235D01*
G01*
G75*
G02X688640I-5235*
G01*
Y449890D02*
G75*
G02X699110I5235D01*
G01*
G75*
G02X688640I-5235*
G01*
Y461890D02*
G75*
G02X699110I5235D01*
G01*
G75*
G02X688640I-5235*
G01*
X694110Y122890D02*
G75*
G02X683640I-5235D01*
G01*
G75*
G02X694110I5235*
G01*
X696610Y70890D02*
G75*
G02X676140I-10235D01*
G01*
G75*
G02X696610I10235*
G01*
Y513390D02*
G75*
G02X676140I-10235D01*
G01*
G75*
G02X696610I10235*
G01*
X700640Y425890D02*
G75*
G02X711110I5235D01*
G01*
G75*
G02X700640I-5235*
G01*
Y437890D02*
G75*
G02X711110I5235D01*
G01*
G75*
G02X700640I-5235*
G01*
Y449890D02*
G75*
G02X711110I5235D01*
G01*
G75*
G02X700640I-5235*
G01*
Y461890D02*
G75*
G02X711110I5235D01*
G01*
G75*
G02X700640I-5235*
G01*
X706110Y122890D02*
G75*
G02X695640I-5235D01*
G01*
G75*
G02X706110I5235*
G01*
X706975Y246145D02*
G75*
G02Y226435J-9855D01*
G01*
G75*
G02Y246145J9855*
G01*
Y271545D02*
G75*
G02Y251835J-9855D01*
G01*
G75*
G02Y271545J9855*
G01*
Y296945D02*
G75*
G02Y277235J-9855D01*
G01*
G75*
G02Y296945J9855*
G01*
Y322345D02*
G75*
G02Y302635J-9855D01*
G01*
G75*
G02Y322345J9855*
G01*
X718110Y122890D02*
G75*
G02X707640I-5235D01*
G01*
G75*
G02X718110I5235*
G01*
X721610Y70890D02*
G75*
G02X701140I-10235D01*
G01*
G75*
G02X721610I10235*
G01*
Y513390D02*
G75*
G02X701140I-10235D01*
G01*
G75*
G02X721610I10235*
G01*
X724875Y146655D02*
G75*
G02Y157125J5235D01*
G01*
G75*
G02Y146655J-5235*
G01*
Y158655D02*
G75*
G02Y169125J5235D01*
G01*
G75*
G02Y158655J-5235*
G01*
Y170655D02*
G75*
G02Y181125J5235D01*
G01*
G75*
G02Y170655J-5235*
G01*
X732375Y246145D02*
G75*
G02Y226435J-9855D01*
G01*
G75*
G02Y246145J9855*
G01*
Y271545D02*
G75*
G02Y251835J-9855D01*
G01*
G75*
G02Y271545J9855*
G01*
Y296945D02*
G75*
G02Y277235J-9855D01*
G01*
G75*
G02Y296945J9855*
G01*
Y322345D02*
G75*
G02Y302635J-9855D01*
G01*
G75*
G02Y322345J9855*
G01*
X733640Y361890D02*
G75*
G02X744110I5235D01*
G01*
G75*
G02X733640I-5235*
G01*
X736875Y158655D02*
G75*
G02Y169125J5235D01*
G01*
G75*
G02Y158655J-5235*
G01*
Y170655D02*
G75*
G02Y181125J5235D01*
G01*
G75*
G02Y170655J-5235*
G01*
X740760Y380774D02*
G75*
G02X740640Y381890I5113J1114D01*
G01*
G75*
G02X751110I5235*
G01*
G75*
G02X743990Y377006I-5235*
G01*
G75*
G02X744110Y375890I-5113J-1114*
G01*
G75*
G02X733640I-5235*
G01*
G75*
G02X740760Y380774I5235*
G01*
X746610Y70890D02*
G75*
G02X726140I-10235D01*
G01*
G75*
G02X746610I10235*
G01*
Y513390D02*
G75*
G02X726140I-10235D01*
G01*
G75*
G02X746610I10235*
G01*
X757640Y457890D02*
G75*
G02X768110I5235D01*
G01*
G75*
G02X757640I-5235*
G01*
X767640Y404890D02*
G75*
G02X778110I5235D01*
G01*
G75*
G02X767640I-5235*
G01*
X771610Y70890D02*
G75*
G02X751140I-10235D01*
G01*
G75*
G02X771610I10235*
G01*
Y513390D02*
G75*
G02X751140I-10235D01*
G01*
G75*
G02X771610I10235*
G01*
X793640Y329390D02*
G75*
G02X804110I5235D01*
G01*
G75*
G02X793640I-5235*
G01*
X796610Y70890D02*
G75*
G02X776140I-10235D01*
G01*
G75*
G02X796610I10235*
G01*
X456875Y500890D02*
G36*
Y486890D01*
X477875Y465890*
X508875*
X512875Y461890*
X688640*
G75*
G02X699110I5235*
G01*
X700640*
G75*
G02X711110I5235*
G01*
X745465*
Y467890*
G75*
G02X747050Y471715I5410J-1*
G01*
X755465Y480131*
Y481649*
X747634Y489480*
X665875*
G75*
G02X662050Y491065I1J5410*
G01*
X658050Y495065*
G75*
G02X656465Y498890I3825J3826*
G01*
Y500890*
X484610*
G75*
G02X474140I-5235*
G01*
X456875*
G37*
X474140D02*
G36*
G75*
G02X484610I5235D01*
G01*
X656465*
Y504410*
G75*
G02X651140Y513390I4910J8980*
G01*
X646610*
G75*
G02X626140I-10235*
G01*
X621610*
G75*
G02X601140I-10235*
G01*
X596610*
G75*
G02X576140I-10235*
G01*
X571610*
G75*
G02X551140I-10235*
G01*
X456875*
Y500890*
X474140*
G37*
X667526D02*
G36*
X668116Y500300D01*
X749875*
G75*
G02X753700Y498715I-1J-5410*
G01*
X764700Y487715*
G75*
G02X766285Y483890I-3825J-3826*
G01*
Y477890*
G75*
G02X764700Y474065I-5410J1*
G01*
X756285Y465649*
Y461890*
X759498*
G75*
G02X766252I3377J-4000*
G01*
X800070*
G75*
G02X830525Y455748I10805J-25000*
G01*
Y500890*
X667526*
G37*
X830525D02*
G36*
Y513390D01*
X771610*
G75*
G02X751140I-10235*
G01*
X746610*
G75*
G02X726140I-10235*
G01*
X721610*
G75*
G02X701140I-10235*
G01*
X696610*
G75*
G02X676140I-10235*
G01*
X671610*
G75*
G02X667285Y505034I-10235*
G01*
Y501131*
X667526Y500890*
X830525*
G37*
X551140Y513390D02*
G36*
G75*
G02X571610I10235D01*
G01*
X576140*
G75*
G02X596610I10235*
G01*
X601140*
G75*
G02X621610I10235*
G01*
X626140*
G75*
G02X646610I10235*
G01*
X651140*
G75*
G02X671610I10235*
G01*
X676140*
G75*
G02X696610I10235*
G01*
X701140*
G75*
G02X721610I10235*
G01*
X726140*
G75*
G02X746610I10235*
G01*
X751140*
G75*
G02X771610I10235*
G01*
X830525*
Y530540*
X456875*
Y513390*
X551140*
G37*
X525475Y449290D02*
G36*
X530875Y443890D01*
X630585*
G75*
G02X629640Y446890I4290J3000*
G01*
G75*
G02X630223Y449290I5235J-1*
G01*
X601110*
G75*
G02X590640I-5235*
G01*
X525475*
G37*
X590640D02*
G36*
G75*
G02X601110I5235D01*
G01*
X630223*
G75*
G02X639375Y449565I4652J-2400*
G01*
G75*
G02X648527Y449290I4500J-2675*
G01*
X688674*
G75*
G02X688640Y449890I5201J596*
G01*
G75*
G02X699110I5235*
G01*
G75*
G02X699076Y449290I-5236J-4*
G01*
X700674*
G75*
G02X700640Y449890I5201J596*
G01*
G75*
G02X711110I5235*
G01*
G75*
G02X711076Y449290I-5236J-4*
G01*
X745499*
G75*
G02X745465Y449890I5376J606*
G01*
Y461890*
X711110*
G75*
G02X700640I-5235*
G01*
X699110*
G75*
G02X688640I-5235*
G01*
X512875*
X525475Y449290*
X590640*
G37*
X648527D02*
G36*
G75*
G02X649110Y446890I-4652J-2401D01*
G01*
G75*
G02X648165Y443890I-5235*
G01*
X656875*
X662875Y437890*
X688640*
G75*
G02X699110I5235*
G01*
X700640*
G75*
G02X711110I5235*
G01*
X755224*
X747050Y446065*
G75*
G02X745499Y449290I3825J3825*
G01*
X711076*
G75*
G02X700674I-5201J600*
G01*
X699076*
G75*
G02X688674I-5201J600*
G01*
X648527*
G37*
X759126D02*
G36*
X764700Y443715D01*
G75*
G02X766285Y439890I-3825J-3826*
G01*
Y437890*
X783658*
G75*
G02X786627Y449290I27217J-1002*
G01*
X759126*
G37*
X786627D02*
G36*
G75*
G02X800070Y461890I24249J-12400D01*
G01*
X766252*
G75*
G02X768110Y457890I-3377J-4000*
G01*
G75*
G02X757640I-5235*
G01*
G75*
G02X759498Y461890I5235*
G01*
X756285*
Y452131*
X759126Y449290*
X786627*
G37*
X657875Y244890D02*
G36*
Y234172D01*
X658640Y234937*
G75*
G02X669110Y234890I5235J-47*
G01*
G75*
G02X663922Y229655I-5235*
G01*
X657875Y223608*
Y175890*
X719640*
G75*
G02X724875Y181125I5235*
G01*
G75*
G02X730110Y175890J-5235*
G01*
X731640*
G75*
G02X736875Y181125I5235*
G01*
G75*
G02X742110Y175890J-5235*
G01*
X830525*
Y244890*
X766285*
Y235225*
G75*
G02X769206Y228890I-5410J-6335*
G01*
G75*
G02X752544I-8331*
G01*
G75*
G02X755465Y235225I8331*
G01*
Y244890*
X737188*
G75*
G02X732375Y226435I-4813J-8600*
G01*
G75*
G02X727562Y244890J9855*
G01*
X711788*
G75*
G02X706975Y226435I-4813J-8600*
G01*
G75*
G02X702162Y244890J9855*
G01*
X686110*
G75*
G02X675640I-5235*
G01*
X674110*
G75*
G02X663640I-5235*
G01*
X657875*
G37*
X663640D02*
G36*
G75*
G02X674110I5235D01*
G01*
X675640*
G75*
G02X686110I5235*
G01*
X702162*
G75*
G02X706975Y246145I4813J-8600*
G01*
G75*
G02X711788Y244890J-9855*
G01*
X727562*
G75*
G02X732375Y246145I4813J-8600*
G01*
G75*
G02X737188Y244890J-9855*
G01*
X755465*
Y256890*
X740982*
G75*
G02X732375Y251835I-8607J4800*
G01*
G75*
G02X723768Y256890J9855*
G01*
X715582*
G75*
G02X706975Y251835I-8607J4800*
G01*
G75*
G02X698368Y256890J9855*
G01*
X686110*
G75*
G02X675640I-5235*
G01*
X674110*
G75*
G02X663640I-5235*
G01*
X662110*
G75*
G02X657875Y251751I-5235*
G01*
Y244890*
X663640*
G37*
X830525D02*
G36*
Y256890D01*
X766285*
Y244890*
X830525*
G37*
X663640Y256890D02*
G36*
G75*
G02X674110I5235D01*
G01*
X675640*
G75*
G02X686110I5235*
G01*
X698368*
G75*
G02X706975Y271545I8607J4800*
G01*
G75*
G02X715582Y256890J-9855*
G01*
X723768*
G75*
G02X732375Y271545I8607J4800*
G01*
G75*
G02X740982Y256890J-9855*
G01*
X755465*
Y287090*
X742230*
G75*
G02X732375Y277235I-9855*
G01*
G75*
G02X722520Y287090J9855*
G01*
X716830*
G75*
G02X706975Y277235I-9855*
G01*
G75*
G02X697120Y287090J9855*
G01*
X657875*
Y262029*
G75*
G02X662110Y256890I-1000J-5139*
G01*
X663640*
G37*
X830525D02*
G36*
Y287090D01*
X766285*
Y256890*
X830525*
G37*
X658110Y134890D02*
G36*
G75*
G02X657875Y133339I-5236D01*
G01*
Y124441*
G75*
G02X658110Y122890I-5001J-1551*
G01*
X659640*
G75*
G02X670110I5235*
G01*
X671640*
G75*
G02X682110I5235*
G01*
X683640*
G75*
G02X694110I5235*
G01*
X695640*
G75*
G02X706110I5235*
G01*
X707640*
G75*
G02X718110I5235*
G01*
X787514*
G75*
G02X783714Y134890I23362J14000*
G01*
X670110*
G75*
G02X664875Y129655I-5235*
G01*
G75*
G02X659640Y134890J5235*
G01*
X658110*
G37*
X659640D02*
G36*
G75*
G02X664875Y140125I5235D01*
G01*
G75*
G02X670110Y134890J-5235*
G01*
X783714*
G75*
G02X783640Y136890I27157J2006*
G01*
G75*
G02X785542Y146890I27234J1*
G01*
X726426*
G75*
G02X724875Y146655I-1551J5000*
G01*
G75*
G02X723324Y146890J5235*
G01*
X670110*
G75*
G02X664875Y141655I-5235*
G01*
G75*
G02X659640Y146890J5235*
G01*
X658110*
G75*
G02X657875Y145339I-5236*
G01*
Y136441*
G75*
G02X658110Y134890I-5001J-1551*
G01*
X659640*
G37*
Y146890D02*
G36*
G75*
G02X664875Y152125I5235D01*
G01*
G75*
G02X670110Y146890J-5235*
G01*
X723324*
G75*
G02X724875Y157125I1551J5000*
G01*
G75*
G02X726426Y146890J-5235*
G01*
X785542*
G75*
G02X807304Y163890I25333J-10000*
G01*
X742110*
G75*
G02X736875Y158655I-5235*
G01*
G75*
G02X731640Y163890J5235*
G01*
X730110*
G75*
G02X724875Y158655I-5235*
G01*
G75*
G02X719640Y163890J5235*
G01*
X657875*
Y148441*
G75*
G02X658110Y146890I-5001J-1551*
G01*
X659640*
G37*
X658110Y122890D02*
G36*
G75*
G02X657875Y121339I-5236D01*
G01*
Y96890*
X675875Y78890*
Y70890*
X676140*
G75*
G02X696610I10235*
G01*
X701140*
G75*
G02X721610I10235*
G01*
X726140*
G75*
G02X746610I10235*
G01*
X751140*
G75*
G02X771610I10235*
G01*
X776140*
G75*
G02X796610I10235*
G01*
X830525*
Y118032*
G75*
G02X787514Y122890I-19650J18858*
G01*
X718110*
G75*
G02X707640I-5235*
G01*
X706110*
G75*
G02X695640I-5235*
G01*
X694110*
G75*
G02X683640I-5235*
G01*
X682110*
G75*
G02X671640I-5235*
G01*
X670110*
G75*
G02X659640I-5235*
G01*
X658110*
G37*
X668875Y403890D02*
G36*
Y378890D01*
X734585*
G75*
G02X740760Y380774I4290J-3000*
G01*
G75*
G02X740640Y381890I5113J1114*
G01*
G75*
G02X751110I5235*
G01*
G75*
G02X750165Y378890I-5235*
G01*
X753864*
G75*
G02X755465Y380725I7010J-4501*
G01*
Y403890*
X696110*
G75*
G02X685640I-5235*
G01*
X668875*
G37*
X685640D02*
G36*
G75*
G02X696110I5235D01*
G01*
X755465*
Y425890*
X711110*
G75*
G02X700640I-5235*
G01*
X699110*
G75*
G02X688640I-5235*
G01*
X668875*
Y403890*
X685640*
G37*
X766285D02*
G36*
Y380725D01*
G75*
G02X767886Y378890I-5409J-6336*
G01*
X830525*
Y403890*
X778014*
G75*
G02X767736I-5139J1000*
G01*
X766285*
G37*
X767736D02*
G36*
G75*
G02X767640Y404890I5139J998D01*
G01*
G75*
G02X778110I5235*
G01*
G75*
G02X778014Y403890I-5235J-2*
G01*
X830525*
Y418032*
G75*
G02X785960Y425890I-19650J18858*
G01*
X766285*
Y403890*
X767736*
G37*
X688640Y425890D02*
G36*
G75*
G02X699110I5235D01*
G01*
X700640*
G75*
G02X711110I5235*
G01*
X755465*
Y437649*
X755224Y437890*
X711110*
G75*
G02X700640I-5235*
G01*
X699110*
G75*
G02X688640I-5235*
G01*
X662875*
X668875Y431890*
Y425890*
X688640*
G37*
X785960D02*
G36*
G75*
G02X783640Y436890I24915J10999D01*
G01*
G75*
G02X783658Y437890I27225J10*
G01*
X766285*
Y425890*
X785960*
G37*
X675875Y70890D02*
G36*
Y43240D01*
X830525*
Y70890*
X796610*
G75*
G02X776140I-10235*
G01*
X771610*
G75*
G02X751140I-10235*
G01*
X746610*
G75*
G02X726140I-10235*
G01*
X721610*
G75*
G02X701140I-10235*
G01*
X696610*
G75*
G02X676140I-10235*
G01*
X675875*
G37*
X697120Y287090D02*
G36*
G75*
G02X706975Y296945I9855D01*
G01*
G75*
G02X716830Y287090J-9855*
G01*
X722520*
G75*
G02X732375Y296945I9855*
G01*
G75*
G02X742230Y287090J-9855*
G01*
X755465*
Y312490*
X742230*
G75*
G02X732375Y302635I-9855*
G01*
G75*
G02X722520Y312490J9855*
G01*
X716830*
G75*
G02X706975Y302635I-9855*
G01*
G75*
G02X697120Y312490J9855*
G01*
X657875*
Y287090*
X697120*
G37*
X830525D02*
G36*
Y312490D01*
X766285*
Y287090*
X830525*
G37*
X697120Y312490D02*
G36*
G75*
G02X706975Y322345I9855D01*
G01*
G75*
G02X716830Y312490J-9855*
G01*
X722520*
G75*
G02X732375Y322345I9855*
G01*
G75*
G02X742230Y312490J-9855*
G01*
X755465*
Y329390*
X658375*
X657875Y328890*
Y312490*
X697120*
G37*
X830525D02*
G36*
Y329390D01*
X804110*
G75*
G02X793640I-5235*
G01*
X766285*
Y312490*
X830525*
G37*
X719640Y163890D02*
G36*
G75*
G02X724875Y169125I5235D01*
G01*
G75*
G02X730110Y163890J-5235*
G01*
X731640*
G75*
G02X736875Y169125I5235*
G01*
G75*
G02X742110Y163890J-5235*
G01*
X807304*
G75*
G02X830525Y155748I3571J-27000*
G01*
Y175890*
X742110*
G75*
G02X736875Y170655I-5235*
G01*
G75*
G02X731640Y175890J5235*
G01*
X730110*
G75*
G02X724875Y170655I-5235*
G01*
G75*
G02X719640Y175890J5235*
G01*
X657875*
Y163890*
X719640*
G37*
X668875Y361890D02*
G36*
Y339890D01*
X658375Y329390*
X755465*
Y361890*
X744110*
G75*
G02X733640I-5235*
G01*
X668875*
G37*
X733640D02*
G36*
G75*
G02X744110I5235D01*
G01*
X755465*
Y368055*
G75*
G02X753864Y378890I5410J6335*
G01*
X750165*
G75*
G02X743990Y377006I-4290J3000*
G01*
G75*
G02X744110Y375890I-5113J-1114*
G01*
G75*
G02X733640I-5235*
G01*
G75*
G02X734585Y378890I5235*
G01*
X668875*
Y361890*
X733640*
G37*
X766285D02*
G36*
Y329390D01*
X793640*
G75*
G02X804110I5235*
G01*
X830525*
Y361890*
X766285*
G37*
X830525D02*
G36*
Y378890D01*
X767886*
G75*
G02X766285Y368055I-7011J-4500*
G01*
Y361890*
X830525*
G37*
X582224Y312890D02*
X591050Y321715D01*
G75*
G02X594875Y323300I3826J-3825*
G01*
X648875*
G75*
G02X651875Y322392J-5410*
G01*
Y328890*
X664875Y341890*
Y429890*
X654875Y439890*
X530875*
X516875Y425890*
Y390890*
X523875Y383890*
Y379890*
X529875Y373890*
Y314890*
X531875Y312890*
X582224*
X533640Y388890D02*
G75*
G02X544110I5235D01*
G01*
G75*
G02X533640I-5235*
G01*
X562640Y350890D02*
G75*
G02X573110I5235D01*
G01*
G75*
G02X562640I-5235*
G01*
Y362890D02*
G75*
G02X573110I5235D01*
G01*
G75*
G02X562640I-5235*
G01*
Y374890D02*
G75*
G02X573110I5235D01*
G01*
G75*
G02X562640I-5235*
G01*
Y386890D02*
G75*
G02X573110I5235D01*
G01*
G75*
G02X562640I-5235*
G01*
X574640Y350890D02*
G75*
G02X585110I5235D01*
G01*
G75*
G02X574640I-5235*
G01*
Y362890D02*
G75*
G02X585110I5235D01*
G01*
G75*
G02X574640I-5235*
G01*
Y374890D02*
G75*
G02X585110I5235D01*
G01*
G75*
G02X574640I-5235*
G01*
Y386890D02*
G75*
G02X585110I5235D01*
G01*
G75*
G02X574640I-5235*
G01*
X586640Y350890D02*
G75*
G02X597110I5235D01*
G01*
G75*
G02X586640I-5235*
G01*
Y362890D02*
G75*
G02X597110I5235D01*
G01*
G75*
G02X586640I-5235*
G01*
X588640Y376890D02*
G75*
G02X599110I5235D01*
G01*
G75*
G02X588640I-5235*
G01*
X630640D02*
G75*
G02X641110I5235D01*
G01*
G75*
G02X630640I-5235*
G01*
X639640Y391890D02*
G75*
G02X650110I5235D01*
G01*
G75*
G02X639640I-5235*
G01*
X640640Y364890D02*
G75*
G02X651110I5235D01*
G01*
G75*
G02X640640I-5235*
G01*
X518875Y388890D02*
G36*
X523875Y383890D01*
Y379890*
X528875Y374890*
X562640*
G75*
G02X573110I5235*
G01*
X574640*
G75*
G02X585110I5235*
G01*
X589037*
G75*
G02X588640Y376890I4838J2000*
G01*
G75*
G02X599110I5235*
G01*
G75*
G02X598713Y374890I-5235*
G01*
X631037*
G75*
G02X630640Y376890I4838J2000*
G01*
G75*
G02X641110I5235*
G01*
G75*
G02X640713Y374890I-5235*
G01*
X664875*
Y388890*
X649165*
G75*
G02X640585I-4290J3000*
G01*
X584713*
G75*
G02X585110Y386890I-4838J-2000*
G01*
G75*
G02X574640I-5235*
G01*
G75*
G02X575037Y388890I5235*
G01*
X572713*
G75*
G02X573110Y386890I-4838J-2000*
G01*
G75*
G02X562640I-5235*
G01*
G75*
G02X563037Y388890I5235*
G01*
X544110*
G75*
G02X533640I-5235*
G01*
X518875*
G37*
X533640D02*
G36*
G75*
G02X544110I5235D01*
G01*
X563037*
G75*
G02X572713I4838J-2000*
G01*
X575037*
G75*
G02X584713I4838J-2000*
G01*
X640585*
G75*
G02X639640Y391890I4290J3000*
G01*
G75*
G02X650110I5235*
G01*
G75*
G02X649165Y388890I-5235*
G01*
X664875*
Y429890*
X654875Y439890*
X530875*
X516875Y425890*
Y390890*
X518875Y388890*
X533640*
G37*
X529875Y350890D02*
G36*
Y314890D01*
X531875Y312890*
X582224*
X591050Y321715*
G75*
G02X594875Y323300I3826J-3825*
G01*
X648875*
G75*
G02X651875Y322392J-5410*
G01*
Y328890*
X664875Y341890*
Y350890*
X597110*
G75*
G02X586640I-5235*
G01*
X585110*
G75*
G02X574640I-5235*
G01*
X573110*
G75*
G02X562640I-5235*
G01*
X529875*
G37*
X562640D02*
G36*
G75*
G02X573110I5235D01*
G01*
X574640*
G75*
G02X585110I5235*
G01*
X586640*
G75*
G02X597110I5235*
G01*
X664875*
Y362890*
X650713*
G75*
G02X641037I-4838J2000*
G01*
X597110*
G75*
G02X586640I-5235*
G01*
X585110*
G75*
G02X574640I-5235*
G01*
X573110*
G75*
G02X562640I-5235*
G01*
X529875*
Y350890*
X562640*
G37*
Y362890D02*
G36*
G75*
G02X573110I5235D01*
G01*
X574640*
G75*
G02X585110I5235*
G01*
X586640*
G75*
G02X597110I5235*
G01*
X641037*
G75*
G02X640640Y364890I4838J2000*
G01*
G75*
G02X651110I5235*
G01*
G75*
G02X650713Y362890I-5235*
G01*
X664875*
Y374890*
X640713*
G75*
G02X631037I-4838J2000*
G01*
X598713*
G75*
G02X589037I-4838J2000*
G01*
X585110*
G75*
G02X574640I-5235*
G01*
X573110*
G75*
G02X562640I-5235*
G01*
X528875*
X529875Y373890*
Y362890*
X562640*
G37*
D02*
D13*
X61875Y61890D02*
D03*
Y511890D02*
D03*
X481875Y61890D02*
D03*
X810875Y136890D02*
D03*
Y436890D02*
D03*
D02*
D14*
X491875Y395890D02*
D03*
Y421290D02*
D03*
Y446690D02*
D03*
X616075Y299890D02*
D03*
X641475D02*
D03*
X666875D02*
D03*
X706975Y236290D02*
D03*
Y261690D02*
D03*
Y287090D02*
D03*
Y312490D02*
D03*
Y337890D02*
D03*
X732375Y236290D02*
D03*
Y261690D02*
D03*
Y287090D02*
D03*
Y312490D02*
D03*
Y337890D02*
D03*
D02*
D72*
X760875Y228890D02*
D03*
Y374390D02*
D03*
D02*
D75*
X538875Y403890D02*
X539875D01*
X546875Y396890*
X621875*
X567875Y132890D02*
Y290890D01*
X594875Y317890*
X648875*
X666875Y299890*
X621875Y396890D02*
Y366890D01*
X627875Y360890*
X635875*
X621875Y396890D02*
X634875Y409890D01*
Y430890*
X643875*
X635875Y360890D02*
Y351890D01*
X640875Y346890*
X649875*
X636375Y70890D02*
Y102390D01*
X615875Y122890*
Y299690*
X616075Y299890*
X661375Y513390D02*
X661875Y512890D01*
Y498890*
X665875Y494890*
X749875*
X760875Y483890*
Y477890*
X750875Y467890*
Y449890*
X760875Y439890*
Y374390*
X706975Y337890D02*
X692875D01*
X675875Y320890*
Y452890*
X660875Y467890*
X605875*
X590875Y482890*
X504875*
X706975Y337890D02*
X692875D01*
X666875Y311890*
Y299890*
X732375Y337890D02*
X706975D01*
X760875Y374390D02*
Y228890D01*
X786375Y513390D02*
Y491390D01*
X778875Y483890*
Y414890*
X797875Y395890*
Y348890*
X808875Y337890*
Y216890*
X790875Y198890*
X700875*
X690875Y208890*
Y280890*
X671875Y299890*
X666875*
D02*
D76*
X663875Y234890D02*
X635875Y206890D01*
X636875*
D02*
D82*
X91625Y380890D02*
X86585D01*
X107875Y364640D02*
Y359600D01*
Y397140D02*
Y402180D01*
X124125Y380890D02*
X129165D01*
X205125Y392890D02*
X200085D01*
X205125Y416890D02*
X200085D01*
X205638Y379653D02*
X202074Y376089D01*
X205638Y382127D02*
X202074Y385691D01*
X205638Y403653D02*
X202074Y400089D01*
X205638Y406127D02*
X202074Y409691D01*
X206875Y391140D02*
Y386100D01*
Y394640D02*
Y399680D01*
Y415140D02*
Y410100D01*
Y418640D02*
Y423680D01*
X208112Y379653D02*
X211676Y376089D01*
X208112Y382127D02*
X211676Y385691D01*
X208112Y403653D02*
X211676Y400089D01*
X208112Y406127D02*
X211676Y409691D01*
X208625Y392890D02*
X213665D01*
X208625Y416890D02*
X213665D01*
X217125Y380890D02*
X212085D01*
X217125Y404890D02*
X212085D01*
X217638Y391653D02*
X214074Y388089D01*
X217638Y394127D02*
X214074Y397691D01*
X217638Y415653D02*
X214074Y412089D01*
X217638Y418127D02*
X214074Y421691D01*
X218875Y379140D02*
Y374100D01*
Y382640D02*
Y387680D01*
Y403140D02*
Y398100D01*
Y406640D02*
Y411680D01*
X220112Y391653D02*
X223676Y388089D01*
X220112Y394127D02*
X223676Y397691D01*
X220112Y415653D02*
X223676Y412089D01*
X220112Y418127D02*
X223676Y421691D01*
X220625Y380890D02*
X225665D01*
X220625Y404890D02*
X225665D01*
X275125Y392890D02*
X270085D01*
X275125Y416890D02*
X270085D01*
X275638Y379653D02*
X272074Y376089D01*
X275638Y382127D02*
X272074Y385691D01*
X275638Y403653D02*
X272074Y400089D01*
X275638Y406127D02*
X272074Y409691D01*
X276875Y391140D02*
Y386100D01*
Y394640D02*
Y399680D01*
Y415140D02*
Y410100D01*
Y418640D02*
Y423680D01*
X278112Y379653D02*
X281676Y376089D01*
X278112Y382127D02*
X281676Y385691D01*
X278112Y403653D02*
X281676Y400089D01*
X278112Y406127D02*
X281676Y409691D01*
X278625Y392890D02*
X283665D01*
X278625Y416890D02*
X283665D01*
X287125Y380890D02*
X282085D01*
X287125Y404890D02*
X282085D01*
X287638Y391653D02*
X284074Y388089D01*
X287638Y394127D02*
X284074Y397691D01*
X287638Y415653D02*
X284074Y412089D01*
X287638Y418127D02*
X284074Y421691D01*
X288125Y308890D02*
X283085D01*
X288875Y379140D02*
Y374100D01*
Y382640D02*
Y387680D01*
Y403140D02*
Y398100D01*
Y406640D02*
Y411680D01*
X289875Y307140D02*
Y302100D01*
Y310640D02*
Y315680D01*
X290112Y391653D02*
X293676Y388089D01*
X290112Y394127D02*
X293676Y397691D01*
X290112Y415653D02*
X293676Y412089D01*
X290112Y418127D02*
X293676Y421691D01*
X290625Y380890D02*
X295665D01*
X290625Y404890D02*
X295665D01*
X291625Y308890D02*
X296665D01*
X345125Y392890D02*
X340085D01*
X345125Y416890D02*
X340085D01*
X345638Y379653D02*
X342074Y376089D01*
X345638Y382127D02*
X342074Y385691D01*
X345638Y403653D02*
X342074Y400089D01*
X345638Y406127D02*
X342074Y409691D01*
X346875Y391140D02*
Y386100D01*
Y394640D02*
Y399680D01*
Y415140D02*
Y410100D01*
Y418640D02*
Y423680D01*
X348112Y379653D02*
X351676Y376089D01*
X348112Y382127D02*
X351676Y385691D01*
X348112Y403653D02*
X351676Y400089D01*
X348112Y406127D02*
X351676Y409691D01*
X348625Y392890D02*
X353665D01*
X348625Y416890D02*
X353665D01*
X357125Y380890D02*
X352085D01*
X357125Y404890D02*
X352085D01*
X357638Y391653D02*
X354074Y388089D01*
X357638Y394127D02*
X354074Y397691D01*
X357638Y415653D02*
X354074Y412089D01*
X357638Y418127D02*
X354074Y421691D01*
X358875Y379140D02*
Y374100D01*
Y382640D02*
Y387680D01*
Y403140D02*
Y398100D01*
Y406640D02*
Y411680D01*
X360112Y391653D02*
X363676Y388089D01*
X360112Y394127D02*
X363676Y397691D01*
X360112Y415653D02*
X363676Y412089D01*
X360112Y418127D02*
X363676Y421691D01*
X360625Y380890D02*
X365665D01*
X360625Y404890D02*
X365665D01*
X382125Y308890D02*
X377085D01*
X383875Y307140D02*
Y302100D01*
Y310640D02*
Y315680D01*
X385625Y308890D02*
X390665D01*
X405125Y392890D02*
X400085D01*
X405125Y416890D02*
X400085D01*
X405638Y379653D02*
X402074Y376089D01*
X405638Y382127D02*
X402074Y385691D01*
X405638Y403653D02*
X402074Y400089D01*
X405638Y406127D02*
X402074Y409691D01*
X406875Y391140D02*
Y386100D01*
Y394640D02*
Y399680D01*
Y415140D02*
Y410100D01*
Y418640D02*
Y423680D01*
X408112Y379653D02*
X411676Y376089D01*
X408112Y382127D02*
X411676Y385691D01*
X408112Y403653D02*
X411676Y400089D01*
X408112Y406127D02*
X411676Y409691D01*
X408625Y392890D02*
X413665D01*
X408625Y416890D02*
X413665D01*
X417125Y380890D02*
X412085D01*
X417125Y404890D02*
X412085D01*
X417638Y391653D02*
X414074Y388089D01*
X417638Y394127D02*
X414074Y397691D01*
X417638Y415653D02*
X414074Y412089D01*
X417638Y418127D02*
X414074Y421691D01*
X418875Y379140D02*
Y374100D01*
Y382640D02*
Y387680D01*
Y403140D02*
Y398100D01*
Y406640D02*
Y411680D01*
X420112Y391653D02*
X423676Y388089D01*
X420112Y394127D02*
X423676Y397691D01*
X420112Y415653D02*
X423676Y412089D01*
X420112Y418127D02*
X423676Y421691D01*
X420625Y380890D02*
X425665D01*
X420625Y404890D02*
X425665D01*
X503125Y482890D02*
X497910D01*
X504875Y481140D02*
Y475925D01*
Y484640D02*
Y489855D01*
X506625Y482890D02*
X511840D01*
X525125Y415890D02*
X520085D01*
X525638Y402653D02*
X522074Y399089D01*
X525638Y405127D02*
X522074Y408691D01*
X526875Y414140D02*
Y409100D01*
Y417640D02*
Y422680D01*
X528112Y402653D02*
X531676Y399089D01*
X528112Y405127D02*
X531676Y408691D01*
X528625Y415890D02*
X533665D01*
X537125Y403890D02*
X531910D01*
X537638Y414653D02*
X534074Y411089D01*
X537638Y417127D02*
X534074Y420691D01*
X538875Y402140D02*
Y396925D01*
Y405640D02*
Y410855D01*
X540112Y414653D02*
X543676Y411089D01*
X540112Y417127D02*
X543676Y420691D01*
X540625Y403890D02*
X545840D01*
X633638Y429653D02*
X629950Y425965D01*
X633638Y432127D02*
X629950Y435815D01*
X634125Y360890D02*
X628910D01*
X635875Y359140D02*
Y353925D01*
Y362640D02*
Y367855D01*
X636112Y429653D02*
X639800Y425965D01*
X636112Y432127D02*
X639800Y435815D01*
X642125Y430890D02*
X636910D01*
X643875Y429140D02*
Y423925D01*
Y432640D02*
Y437855D01*
X645625Y430890D02*
X650840D01*
X648125Y346890D02*
X642910D01*
X649875Y345140D02*
Y339925D01*
Y348640D02*
Y353855D01*
X651625Y346890D02*
X656840D01*
X662371Y295386D02*
X658807Y291822D01*
X662371Y304394D02*
X658807Y307958D01*
X671379Y295386D02*
X674943Y291822D01*
X671379Y304394D02*
X674943Y307958D01*
X700605Y337890D02*
X695565D01*
X706975Y331520D02*
Y326480D01*
Y344260D02*
Y349300D01*
X713345Y337890D02*
X718385D01*
X726005D02*
X720965D01*
X732375Y331520D02*
Y326480D01*
Y344260D02*
Y349300D01*
X738745Y337890D02*
X743785D01*
X779625Y513390D02*
X774585D01*
X786375Y506640D02*
Y501600D01*
Y520140D02*
Y525180D01*
X793125Y513390D02*
X798165D01*
D02*
D83*
X107875Y194890D02*
D03*
Y256890D02*
D03*
Y318890D02*
D03*
Y380890D02*
D03*
D02*
D89*
X561375Y70890D02*
D03*
Y513390D02*
D03*
X586375Y70890D02*
D03*
Y513390D02*
D03*
X611375Y70890D02*
D03*
Y513390D02*
D03*
X636375Y70890D02*
D03*
Y513390D02*
D03*
X661375Y70890D02*
D03*
Y513390D02*
D03*
X686375Y70890D02*
D03*
Y513390D02*
D03*
X711375Y70890D02*
D03*
Y513390D02*
D03*
X736375Y70890D02*
D03*
Y513390D02*
D03*
X761375Y70890D02*
D03*
Y513390D02*
D03*
X786375Y70890D02*
D03*
Y513390D02*
D03*
D02*
D105*
X134875Y312890D02*
D03*
Y324890D02*
D03*
Y336890D02*
D03*
X135875Y228890D02*
D03*
Y240890D02*
D03*
Y252890D02*
D03*
X146875Y312890D02*
D03*
Y324890D02*
D03*
Y336890D02*
D03*
X147875Y228890D02*
D03*
Y240890D02*
D03*
Y252890D02*
D03*
X156875Y62890D02*
D03*
Y86890D02*
D03*
X158875Y300890D02*
D03*
Y312890D02*
D03*
Y324890D02*
D03*
Y336890D02*
D03*
X159875Y228890D02*
D03*
Y240890D02*
D03*
Y252890D02*
D03*
Y264890D02*
D03*
Y276890D02*
D03*
X168875Y74890D02*
D03*
X170875Y300890D02*
D03*
Y312890D02*
D03*
Y324890D02*
D03*
Y336890D02*
D03*
X171875Y216890D02*
D03*
Y228890D02*
D03*
Y240890D02*
D03*
Y252890D02*
D03*
Y264890D02*
D03*
Y276890D02*
D03*
X180875Y62890D02*
D03*
Y86890D02*
D03*
X182875Y300890D02*
D03*
Y312890D02*
D03*
Y324890D02*
D03*
Y336890D02*
D03*
X183875Y216890D02*
D03*
Y228890D02*
D03*
Y240890D02*
D03*
Y252890D02*
D03*
Y264890D02*
D03*
Y276890D02*
D03*
X192875Y74890D02*
D03*
X204875Y62890D02*
D03*
Y86890D02*
D03*
X206875Y380890D02*
D03*
Y392890D02*
D03*
Y404890D02*
D03*
Y416890D02*
D03*
Y470890D02*
D03*
Y482890D02*
D03*
Y494890D02*
D03*
Y506890D02*
D03*
X216875Y74890D02*
D03*
X217875Y231890D02*
D03*
X218875Y380890D02*
D03*
Y392890D02*
D03*
Y404890D02*
D03*
Y416890D02*
D03*
Y470890D02*
D03*
Y482890D02*
D03*
Y494890D02*
D03*
Y506890D02*
D03*
X228875Y62890D02*
D03*
Y86890D02*
D03*
X229875Y231890D02*
D03*
X230875Y470890D02*
D03*
Y482890D02*
D03*
Y494890D02*
D03*
Y506890D02*
D03*
X240875Y74890D02*
D03*
X241875Y231890D02*
D03*
X252875Y62890D02*
D03*
Y86890D02*
D03*
X257875Y231890D02*
D03*
X264875Y74890D02*
D03*
X268875Y470890D02*
D03*
Y482890D02*
D03*
Y494890D02*
D03*
Y506890D02*
D03*
X269875Y231890D02*
D03*
X276875Y62890D02*
D03*
Y86890D02*
D03*
Y380890D02*
D03*
Y392890D02*
D03*
Y404890D02*
D03*
Y416890D02*
D03*
X280875Y470890D02*
D03*
Y482890D02*
D03*
Y494890D02*
D03*
Y506890D02*
D03*
X281875Y231890D02*
D03*
X288875Y74890D02*
D03*
Y380890D02*
D03*
Y392890D02*
D03*
Y404890D02*
D03*
Y416890D02*
D03*
X289875Y308890D02*
D03*
X292875Y470890D02*
D03*
Y482890D02*
D03*
Y494890D02*
D03*
Y506890D02*
D03*
X299875Y211890D02*
D03*
Y223890D02*
D03*
Y235890D02*
D03*
Y247890D02*
D03*
Y259890D02*
D03*
X300875Y62890D02*
D03*
Y86890D02*
D03*
Y110890D02*
D03*
X311875Y211890D02*
D03*
Y223890D02*
D03*
Y235890D02*
D03*
Y247890D02*
D03*
Y259890D02*
D03*
X312875Y74890D02*
D03*
Y98890D02*
D03*
Y122890D02*
D03*
X323875Y211890D02*
D03*
Y223890D02*
D03*
Y235890D02*
D03*
Y247890D02*
D03*
Y259890D02*
D03*
X324875Y62890D02*
D03*
Y86890D02*
D03*
Y110890D02*
D03*
X333875Y470890D02*
D03*
Y482890D02*
D03*
Y494890D02*
D03*
Y506890D02*
D03*
X336875Y74890D02*
D03*
Y98890D02*
D03*
Y122890D02*
D03*
X343875Y211890D02*
D03*
Y223890D02*
D03*
Y235890D02*
D03*
Y247890D02*
D03*
Y259890D02*
D03*
X345875Y470890D02*
D03*
Y482890D02*
D03*
Y494890D02*
D03*
Y506890D02*
D03*
X346875Y380890D02*
D03*
Y392890D02*
D03*
Y404890D02*
D03*
Y416890D02*
D03*
X348875Y62890D02*
D03*
Y86890D02*
D03*
Y110890D02*
D03*
X355875Y211890D02*
D03*
Y223890D02*
D03*
Y235890D02*
D03*
Y247890D02*
D03*
Y259890D02*
D03*
X357875Y470890D02*
D03*
Y482890D02*
D03*
Y494890D02*
D03*
Y506890D02*
D03*
X358875Y380890D02*
D03*
Y392890D02*
D03*
Y404890D02*
D03*
Y416890D02*
D03*
X360875Y74890D02*
D03*
Y98890D02*
D03*
Y122890D02*
D03*
X367875Y211890D02*
D03*
Y223890D02*
D03*
Y235890D02*
D03*
Y247890D02*
D03*
Y259890D02*
D03*
X372875Y62890D02*
D03*
Y86890D02*
D03*
Y110890D02*
D03*
X383875Y308890D02*
D03*
X384875Y74890D02*
D03*
X386875Y231890D02*
D03*
X395875Y470890D02*
D03*
Y482890D02*
D03*
Y494890D02*
D03*
Y506890D02*
D03*
X396875Y62890D02*
D03*
Y86890D02*
D03*
X398875Y231890D02*
D03*
X406875Y380890D02*
D03*
Y392890D02*
D03*
Y404890D02*
D03*
Y416890D02*
D03*
X407875Y470890D02*
D03*
Y482890D02*
D03*
Y494890D02*
D03*
Y506890D02*
D03*
X408875Y74890D02*
D03*
X410875Y231890D02*
D03*
X418875Y380890D02*
D03*
Y392890D02*
D03*
Y404890D02*
D03*
Y416890D02*
D03*
X419875Y470890D02*
D03*
Y482890D02*
D03*
Y494890D02*
D03*
Y506890D02*
D03*
X420875Y62890D02*
D03*
Y86890D02*
D03*
X426875Y231890D02*
D03*
X432875Y74890D02*
D03*
X438875Y231890D02*
D03*
X444875Y62890D02*
D03*
Y86890D02*
D03*
X450875Y231890D02*
D03*
X468875Y110890D02*
D03*
X479375Y500890D02*
D03*
X480875Y98890D02*
D03*
Y122890D02*
D03*
X492875Y110890D02*
D03*
X494875Y280890D02*
D03*
Y292890D02*
D03*
Y304890D02*
D03*
Y316890D02*
D03*
X504875Y98890D02*
D03*
Y122890D02*
D03*
Y482890D02*
D03*
X506875Y280890D02*
D03*
Y292890D02*
D03*
Y304890D02*
D03*
Y316890D02*
D03*
Y407890D02*
D03*
X510875Y391890D02*
D03*
X511875Y355890D02*
D03*
X514875Y370890D02*
D03*
X516875Y62890D02*
D03*
Y86890D02*
D03*
Y110890D02*
D03*
X526875Y403890D02*
D03*
Y415890D02*
D03*
X527875Y191890D02*
D03*
X528875Y122890D02*
D03*
X534875Y200890D02*
D03*
X538875Y388890D02*
D03*
Y403890D02*
D03*
Y415890D02*
D03*
X567875Y132890D02*
D03*
Y350890D02*
D03*
Y362890D02*
D03*
Y374890D02*
D03*
Y386890D02*
D03*
X568875Y104890D02*
D03*
Y116890D02*
D03*
X579875Y350890D02*
D03*
Y362890D02*
D03*
Y374890D02*
D03*
Y386890D02*
D03*
X580875Y104890D02*
D03*
Y116890D02*
D03*
X591875Y350890D02*
D03*
Y362890D02*
D03*
X592875Y104890D02*
D03*
X593875Y376890D02*
D03*
X595875Y449290D02*
D03*
X634875Y430890D02*
D03*
Y446890D02*
D03*
X635875Y360890D02*
D03*
Y376890D02*
D03*
X636875Y206890D02*
D03*
X643875Y430890D02*
D03*
Y446890D02*
D03*
X644875Y391890D02*
D03*
X645875Y364890D02*
D03*
X649875Y346890D02*
D03*
X652875Y122890D02*
D03*
Y134890D02*
D03*
Y146890D02*
D03*
X656875Y256890D02*
D03*
X663875Y234890D02*
D03*
X664875Y122890D02*
D03*
Y134890D02*
D03*
Y146890D02*
D03*
X668875Y244890D02*
D03*
Y256890D02*
D03*
X676875Y122890D02*
D03*
X680875Y244890D02*
D03*
Y256890D02*
D03*
X688875Y122890D02*
D03*
X690875Y403890D02*
D03*
X693875Y425890D02*
D03*
Y437890D02*
D03*
Y449890D02*
D03*
Y461890D02*
D03*
X700875Y122890D02*
D03*
X705875Y425890D02*
D03*
Y437890D02*
D03*
Y449890D02*
D03*
Y461890D02*
D03*
X712875Y122890D02*
D03*
X724875Y151890D02*
D03*
Y163890D02*
D03*
Y175890D02*
D03*
X736875Y163890D02*
D03*
Y175890D02*
D03*
X738875Y361890D02*
D03*
Y375890D02*
D03*
X745875Y381890D02*
D03*
X762875Y457890D02*
D03*
X772875Y404890D02*
D03*
X798875Y329390D02*
D03*
X0Y0D02*
M02*
