%FSLAX34Y34*%
%MOMM*%
G04 EasyPC Gerber Version 18.0.6 Build 3620 *
%ADD80C,0.02540*%
%ADD10C,0.12700*%
X0Y0D02*
D02*
D10*
X65069Y266390D02*
Y258452D01*
X74594Y266390*
Y258452*
Y253690D02*
X65069D01*
X74594Y245752*
X65069*
X74594Y240990D02*
X65069D01*
Y235434*
X65862Y233846*
X67450Y233052*
X69037Y233846*
X69831Y235434*
Y240990*
Y235434D02*
X74594Y233052D01*
X73800Y227496D02*
X74594Y225909D01*
Y224321*
X73800Y222734*
X72212Y221940*
X70625Y222734*
X69831Y224321*
Y225909*
Y224321D02*
X69037Y222734D01*
X67450Y221940*
X65862Y222734*
X65069Y224321*
Y225909*
X65862Y227496*
X79665Y304180D02*
Y270100D01*
X61585*
Y304180*
X79665*
X139969Y216890D02*
Y208952D01*
X149494Y216890*
Y208952*
Y204190D02*
X139969D01*
X149494Y196252*
X139969*
X149494Y191490D02*
X139969D01*
Y185934*
X140762Y184346*
X142350Y183552*
X143937Y184346*
X144731Y185934*
Y191490*
Y185934D02*
X149494Y183552D01*
Y177202D02*
Y174027D01*
Y175615D02*
X139969D01*
X141556Y177202*
X151915Y303930D02*
Y269850D01*
X133835*
Y303930*
X151915*
X264969Y166890D02*
Y158952D01*
X274494Y166890*
Y158952*
Y154190D02*
X264969D01*
X274494Y146252*
X264969*
X274494Y141490D02*
X264969D01*
Y135934*
X265762Y134346*
X267350Y133552*
X268937Y134346*
X269731Y135934*
Y141490*
Y135934D02*
X274494Y133552D01*
Y128790D02*
X264969Y122440D01*
Y128790*
Y306890D02*
Y298952D01*
X274494Y306890*
Y298952*
Y294190D02*
X264969D01*
X274494Y286252*
X264969*
X274494Y281490D02*
X264969D01*
Y275934*
X265762Y274346*
X267350Y273552*
X268937Y274346*
X269731Y275934*
Y281490*
Y275934D02*
X274494Y273552D01*
X272112Y268790D02*
X270525Y267996D01*
X269731Y266409*
Y264821*
X270525Y263234*
X272112Y262440*
X273700Y263234*
X274494Y264821*
Y266409*
X273700Y267996*
X272112Y268790*
X269731*
X267350Y267996*
X265762Y266409*
X264969Y264821*
X278835Y131850D02*
Y165930D01*
X296915*
Y131850*
X278835*
X280835Y269850D02*
Y303930D01*
X298915*
Y269850*
X280835*
X359969Y181890D02*
Y173952D01*
X369494Y181890*
Y173952*
Y169190D02*
X359969D01*
X369494Y161252*
X359969*
X369494Y156490D02*
X359969D01*
Y150934*
X360762Y149346*
X362350Y148552*
X363937Y149346*
X364731Y150934*
Y156490*
Y150934D02*
X369494Y148552D01*
Y137440D02*
Y143790D01*
X363937Y138234*
X362350Y137440*
X360762Y138234*
X359969Y139821*
Y142202*
X360762Y143790*
X359969Y321890D02*
Y313952D01*
X369494Y321890*
Y313952*
Y309190D02*
X359969D01*
X369494Y301252*
X359969*
X369494Y296490D02*
X359969D01*
Y290934*
X360762Y289346*
X362350Y288552*
X363937Y289346*
X364731Y290934*
Y296490*
Y290934D02*
X369494Y288552D01*
X368700Y283790D02*
X369494Y282202D01*
Y279821*
X368700Y278234*
X367112Y277440*
X366319*
X364731Y278234*
X363937Y279821*
Y283790*
X359969*
Y277440*
X374835Y130850D02*
Y164930D01*
X392915*
Y130850*
X374835*
Y269850D02*
Y303930D01*
X392915*
Y269850*
X374835*
X515875Y428890D02*
Y464890D01*
X530875*
Y428890*
X515875*
X542335Y420430D02*
X569415D01*
Y405350*
X542335*
Y420430*
X558275Y229990D02*
Y280690D01*
X486875*
Y229990*
X518825*
Y233740*
X526325*
Y229990*
X558275*
X562335Y258750D02*
Y285830D01*
X577415*
Y258750*
X562335*
X563335Y228750D02*
Y255830D01*
X578415*
Y228750*
X563335*
X593075Y421840D02*
Y471940D01*
X532675*
Y421840*
X561625*
Y423090*
X564125*
Y421840*
X593075*
X600335Y285830D02*
X627415D01*
Y270750*
X600335*
Y285830*
X633415Y172750D02*
X606335D01*
Y187830*
X633415*
Y172750*
X633875Y190290D02*
X597875D01*
Y205290*
X633875*
Y190290*
X641925Y268490D02*
X591825D01*
Y208090*
X641925*
Y237040*
X640675*
Y239540*
X641925*
Y268490*
X727415Y413430D02*
Y386350D01*
X712335*
Y413430*
X727415*
X732730Y388585D02*
X768375D01*
Y426050*
X732730*
Y388585*
X737335Y446430D02*
X764415D01*
Y431350*
X737335*
Y446430*
X774875Y306890D02*
Y316890D01*
X784875*
Y386890*
X774875*
Y396890*
X834875*
Y306890*
X774875*
X794415Y263350D02*
X767335D01*
Y278430*
X794415*
Y263350*
Y281350D02*
X767335D01*
Y296430*
X794415*
Y281350*
D02*
D80*
X219565Y68250D02*
X213675D01*
Y67320*
X214605*
X215225Y67010*
X215535Y66700*
X215225Y66080*
X212125Y59260*
X209335Y65770*
Y66080*
X209645Y67010*
X211195Y67320*
Y68250*
X206235*
Y67320*
X207475Y67010*
X208095Y66080*
X212745Y56160*
X213365*
X217705Y66390*
X218325Y67010*
X219565Y67320*
Y68250*
X194455Y62360D02*
X202825D01*
X202515Y60190*
X201895Y58640*
X200655Y57710*
X199105Y57400*
X197865*
X196935Y58020*
X196005Y58640*
X195075Y59880*
X194455Y59570*
X195385Y58020*
X196625Y57090*
X197865Y56470*
X199725Y56160*
X201585Y56470*
X203445Y57710*
X204685Y59880*
X204995Y62050*
X204685Y64840*
X203445Y66700*
X201585Y68250*
X199725Y68560*
X198175Y68250*
X196625Y67630*
X195695Y66700*
X194765Y65150*
X194455Y62360*
X202825Y63290D02*
X197555D01*
X196935Y63600*
X196625Y64530*
X196935Y65770*
X197555Y66700*
X198485Y67320*
X199725Y67630*
X200965Y67320*
X201895Y66390*
X202515Y65150*
X202825Y63290*
X192285Y67940D02*
X187945Y68250D01*
Y63600*
X187325Y65770*
X186395Y67320*
X185465Y68250*
X184225Y68560*
X182675Y67940*
X182055Y66390*
X182365Y64840*
X183605Y64530*
X184535Y64840*
X184845Y66080*
X184535Y67010*
X184225Y67320*
X184535Y67630*
X185465Y67010*
X186395Y65770*
X187015Y64530*
X187325Y62360*
X187635Y60810*
Y58330*
X187325Y57710*
X186395Y57400*
X184845*
Y56470*
X192285*
Y57400*
X191045*
X190115Y57710*
X189805Y58020*
Y65460*
X190115Y66700*
X191355Y67010*
X192285*
Y67940*
X164075Y65460D02*
X165935Y63910D01*
X168105Y63290*
X169965Y63600*
X171515Y64530*
X172755Y66080*
X173065Y68250*
X172755Y70420*
X171205Y72280*
X169345Y73830*
X167175Y74140*
X164695Y73520*
X162835Y71970*
X161285Y69490*
X160975Y66080*
X161285Y62980*
X161905Y60500*
X163145Y58640*
X164695Y57090*
X166245Y56470*
X168105Y56160*
X169965Y56470*
X171205Y57090*
X172135Y58020*
X172445Y58950*
X172135Y60190*
X170895Y60810*
X169965Y60500*
X169655Y59260*
X169965Y58330*
Y58020*
X169655Y57400*
X168415Y57090*
X167175*
X166245Y57710*
X165315Y58640*
X164695Y60190*
X164075Y62050*
Y64220*
Y65460*
X167175Y73210D02*
X168105Y72900D01*
X169035Y71970*
X169655Y70420*
X169965Y68560*
X169655Y66700*
X169035Y65150*
X168105Y64530*
X167175Y64220*
X165935Y64530*
X165005Y65460*
X164385Y66700*
X164075Y68560*
X164385Y70420*
X165005Y71970*
X165935Y72900*
X167175Y73210*
X156325Y58950D02*
X155085Y58640D01*
X154775Y57400*
X155085Y56470*
X156325Y56160*
X157255Y56470*
X157875Y57400*
X157255Y58640*
X156325Y58950*
X143925Y74140D02*
Y58330D01*
X143615Y57710*
X142685Y57400*
X140515*
Y56470*
X149815*
Y57400*
X147645*
X146715Y57710*
X146405Y58640*
Y70730*
X146715Y71350*
X147335Y71660*
X149815*
Y72590*
X147955Y72900*
X146715Y73210*
X144545Y74140*
X143925*
X155509Y56364D02*
X156937D01*
X166881D02*
X169329D01*
X198501D02*
X200949D01*
X212649D02*
X213452D01*
X140515Y56602D02*
X149815D01*
X155041D02*
X157343D01*
X165915D02*
X170229D01*
X184845D02*
X192285D01*
X197601D02*
X201783D01*
X212538D02*
X213553D01*
X140515Y56840D02*
X149815D01*
X154962D02*
X157502D01*
X165320D02*
X170705D01*
X184845D02*
X192285D01*
X197125D02*
X202140D01*
X212426D02*
X213653D01*
X140515Y57078D02*
X149815D01*
X154882D02*
X157660D01*
X164725D02*
X171181D01*
X184845D02*
X192285D01*
X196649D02*
X202497D01*
X212315D02*
X213754D01*
X140515Y57316D02*
X149815D01*
X154803D02*
X157819D01*
X164469D02*
X166836D01*
X169319D02*
X171431D01*
X184845D02*
X192285D01*
X196324D02*
X202854D01*
X212203D02*
X213855D01*
X143147Y57554D02*
X147183D01*
X154813D02*
X157798D01*
X164231D02*
X166479D01*
X169732D02*
X171669D01*
X186857D02*
X190583D01*
X196006D02*
X197634D01*
X199875D02*
X203211D01*
X212092D02*
X213956D01*
X143656Y57792D02*
X146688D01*
X154873D02*
X157679D01*
X163993D02*
X166163D01*
X169851D02*
X171907D01*
X187366D02*
X190033D01*
X195689D02*
X197277D01*
X200764D02*
X203492D01*
X211980D02*
X214057D01*
X143775Y58030D02*
X146608D01*
X154932D02*
X157560D01*
X163755D02*
X165925D01*
X169965D02*
X172138D01*
X187485D02*
X189805D01*
X195379D02*
X196920D01*
X201082D02*
X203628D01*
X211868D02*
X214158D01*
X143894Y58268D02*
X146529D01*
X154992D02*
X157441D01*
X163517D02*
X165687D01*
X169965D02*
X172218D01*
X187604D02*
X189805D01*
X195236D02*
X196563D01*
X201399D02*
X203764D01*
X211757D02*
X214259D01*
X143925Y58506D02*
X146450D01*
X155051D02*
X157322D01*
X163279D02*
X165449D01*
X169906D02*
X172297D01*
X187635D02*
X189805D01*
X195093D02*
X196206D01*
X201716D02*
X203900D01*
X211645D02*
X214360D01*
X143925Y58744D02*
X146405D01*
X155501D02*
X156943D01*
X163076D02*
X165273D01*
X169827D02*
X172376D01*
X187635D02*
X189805D01*
X194951D02*
X195927D01*
X201937D02*
X204036D01*
X211534D02*
X214461D01*
X143925Y58982D02*
X146405D01*
X162917D02*
X165178D01*
X169748D02*
X172437D01*
X187635D02*
X189805D01*
X194808D02*
X195748D01*
X202032D02*
X204172D01*
X211422D02*
X214562D01*
X143925Y59220D02*
X146405D01*
X162758D02*
X165083D01*
X169668D02*
X172377D01*
X187635D02*
X189805D01*
X194665D02*
X195570D01*
X202127D02*
X204308D01*
X211311D02*
X214663D01*
X143925Y59458D02*
X146405D01*
X162600D02*
X164988D01*
X169704D02*
X172318D01*
X187635D02*
X189805D01*
X194522D02*
X195391D01*
X202222D02*
X204444D01*
X211199D02*
X212040D01*
X212215D02*
X214764D01*
X143925Y59696D02*
X146405D01*
X162441D02*
X164893D01*
X169764D02*
X172258D01*
X187635D02*
X189805D01*
X194707D02*
X195213D01*
X202317D02*
X204580D01*
X211088D02*
X211938D01*
X212323D02*
X214865D01*
X143925Y59934D02*
X146405D01*
X162282D02*
X164797D01*
X169823D02*
X172199D01*
X187635D02*
X189805D01*
X202413D02*
X204693D01*
X210976D02*
X211836D01*
X212431D02*
X214966D01*
X143925Y60172D02*
X146405D01*
X162124D02*
X164702D01*
X169883D02*
X172139D01*
X187635D02*
X189805D01*
X202508D02*
X204727D01*
X210864D02*
X211734D01*
X212540D02*
X215067D01*
X143925Y60410D02*
X146405D01*
X161965D02*
X164622D01*
X169942D02*
X171695D01*
X187635D02*
X189805D01*
X202546D02*
X204761D01*
X210753D02*
X211632D01*
X212648D02*
X215168D01*
X143925Y60648D02*
X146405D01*
X161868D02*
X164542D01*
X170409D02*
X171219D01*
X187635D02*
X189805D01*
X202580D02*
X204795D01*
X210641D02*
X211530D01*
X212756D02*
X215269D01*
X143925Y60886D02*
X146405D01*
X161809D02*
X164463D01*
X187620D02*
X189805D01*
X202614D02*
X204829D01*
X210530D02*
X211428D01*
X212864D02*
X215370D01*
X143925Y61124D02*
X146405D01*
X161749D02*
X164384D01*
X187572D02*
X189805D01*
X202648D02*
X204863D01*
X210418D02*
X211326D01*
X212972D02*
X215471D01*
X143925Y61362D02*
X146405D01*
X161690D02*
X164304D01*
X187525D02*
X189805D01*
X202682D02*
X204897D01*
X210307D02*
X211224D01*
X213080D02*
X215572D01*
X143925Y61600D02*
X146405D01*
X161630D02*
X164225D01*
X187477D02*
X189805D01*
X202716D02*
X204931D01*
X210195D02*
X211122D01*
X213189D02*
X215673D01*
X143925Y61838D02*
X146405D01*
X161571D02*
X164146D01*
X187429D02*
X189805D01*
X202750D02*
X204965D01*
X210083D02*
X211020D01*
X213297D02*
X215774D01*
X143925Y62076D02*
X146405D01*
X161511D02*
X164075D01*
X187382D02*
X189805D01*
X202784D02*
X204992D01*
X209972D02*
X210918D01*
X213405D02*
X215875D01*
X143925Y62314D02*
X146405D01*
X161452D02*
X164075D01*
X187334D02*
X189805D01*
X202818D02*
X204966D01*
X209860D02*
X210816D01*
X213513D02*
X215976D01*
X143925Y62552D02*
X146405D01*
X161392D02*
X164075D01*
X187298D02*
X189805D01*
X194476D02*
X204939D01*
X209749D02*
X210714D01*
X213621D02*
X216077D01*
X143925Y62790D02*
X146405D01*
X161333D02*
X164075D01*
X187264D02*
X189805D01*
X194503D02*
X204913D01*
X209637D02*
X210612D01*
X213730D02*
X216178D01*
X143925Y63028D02*
X146405D01*
X161280D02*
X164075D01*
X187230D02*
X189805D01*
X194529D02*
X204886D01*
X209526D02*
X210510D01*
X213838D02*
X216279D01*
X143925Y63266D02*
X146405D01*
X161256D02*
X164075D01*
X187196D02*
X189805D01*
X194556D02*
X204860D01*
X209414D02*
X210408D01*
X213946D02*
X216380D01*
X143925Y63504D02*
X146405D01*
X161233D02*
X164075D01*
X167356D02*
X169389D01*
X187162D02*
X189805D01*
X194582D02*
X197127D01*
X202789D02*
X204833D01*
X209303D02*
X210306D01*
X214054D02*
X216481D01*
X143925Y63742D02*
X146405D01*
X161209D02*
X164075D01*
X166523D02*
X170202D01*
X187128D02*
X187904D01*
X187945D02*
X189805D01*
X194609D02*
X196888D01*
X202750D02*
X204807D01*
X209191D02*
X210204D01*
X214162D02*
X216582D01*
X143925Y63980D02*
X146405D01*
X161185D02*
X164075D01*
X165851D02*
X170598D01*
X187094D02*
X187836D01*
X187945D02*
X189805D01*
X194635D02*
X196808D01*
X202710D02*
X204781D01*
X209079D02*
X210102D01*
X214270D02*
X216683D01*
X143925Y64218D02*
X146405D01*
X161161D02*
X164075D01*
X165565D02*
X167175D01*
X167183D02*
X170995D01*
X187060D02*
X187768D01*
X187945D02*
X189805D01*
X194661D02*
X196729D01*
X202670D02*
X204754D01*
X208968D02*
X210000D01*
X214379D02*
X216784D01*
X143925Y64456D02*
X146405D01*
X161137D02*
X164075D01*
X165280D02*
X166231D01*
X167883D02*
X171392D01*
X187026D02*
X187700D01*
X187945D02*
X189805D01*
X194688D02*
X196650D01*
X202631D02*
X204728D01*
X208856D02*
X209898D01*
X214487D02*
X216885D01*
X143925Y64694D02*
X146405D01*
X161114D02*
X164075D01*
X164994D02*
X165771D01*
X168351D02*
X171646D01*
X182949D02*
X184097D01*
X186933D02*
X187632D01*
X187945D02*
X189805D01*
X194714D02*
X196666D01*
X202591D02*
X204701D01*
X208745D02*
X209796D01*
X214595D02*
X216985D01*
X143925Y64932D02*
X146405D01*
X161090D02*
X164075D01*
X164709D02*
X165533D01*
X168708D02*
X171837D01*
X182347D02*
X184558D01*
X186814D02*
X187564D01*
X187945D02*
X189805D01*
X194741D02*
X196726D01*
X202551D02*
X204624D01*
X208633D02*
X209694D01*
X214703D02*
X217086D01*
X143925Y65170D02*
X146405D01*
X161066D02*
X164075D01*
X164423D02*
X165295D01*
X169043D02*
X172027D01*
X182299D02*
X184618D01*
X186695D02*
X187496D01*
X187945D02*
X189805D01*
X194777D02*
X196785D01*
X202505D02*
X204465D01*
X208522D02*
X209592D01*
X214811D02*
X217187D01*
X143925Y65408D02*
X146405D01*
X161042D02*
X164075D01*
X164137D02*
X165057D01*
X169138D02*
X172217D01*
X182251D02*
X184677D01*
X186576D02*
X187428D01*
X187945D02*
X189805D01*
X194920D02*
X196845D01*
X202386D02*
X204306D01*
X208410D02*
X209490D01*
X214920D02*
X217288D01*
X143925Y65646D02*
X146405D01*
X161018D02*
X164912D01*
X169233D02*
X172408D01*
X182204D02*
X184737D01*
X186457D02*
X187360D01*
X187945D02*
X189852D01*
X195063D02*
X196904D01*
X202267D02*
X204148D01*
X208298D02*
X209388D01*
X215028D02*
X217389D01*
X143925Y65884D02*
X146405D01*
X160995D02*
X164793D01*
X169329D02*
X172598D01*
X182156D02*
X184796D01*
X186310D02*
X187257D01*
X187945D02*
X189911D01*
X195205D02*
X197011D01*
X202148D02*
X203989D01*
X208187D02*
X209335D01*
X215136D02*
X217490D01*
X143925Y66122D02*
X146405D01*
X160979D02*
X164674D01*
X169424D02*
X172761D01*
X182109D02*
X184831D01*
X186131D02*
X187114D01*
X187945D02*
X189971D01*
X195348D02*
X197170D01*
X202029D02*
X203830D01*
X208067D02*
X209349D01*
X215246D02*
X217591D01*
X143925Y66360D02*
X146405D01*
X161000D02*
X164555D01*
X169519D02*
X172795D01*
X182061D02*
X184752D01*
X185953D02*
X186971D01*
X187945D02*
X190030D01*
X195491D02*
X197328D01*
X201910D02*
X203672D01*
X207908D02*
X209428D01*
X215365D02*
X217692D01*
X143925Y66598D02*
X146405D01*
X161022D02*
X164436D01*
X169614D02*
X172829D01*
X182138D02*
X184672D01*
X185774D02*
X186828D01*
X187945D02*
X190090D01*
X195634D02*
X197487D01*
X201687D02*
X203513D01*
X207750D02*
X209508D01*
X215484D02*
X217913D01*
X143925Y66836D02*
X146405D01*
X161044D02*
X164362D01*
X169678D02*
X172863D01*
X182233D02*
X184593D01*
X185596D02*
X186685D01*
X187945D02*
X190659D01*
X195831D02*
X197759D01*
X201449D02*
X203282D01*
X207591D02*
X209587D01*
X215399D02*
X218151D01*
X143925Y67074D02*
X146405D01*
X161065D02*
X164323D01*
X169717D02*
X172897D01*
X182329D02*
X184471D01*
X185369D02*
X186543D01*
X187945D02*
X192285D01*
X196069D02*
X198116D01*
X201211D02*
X202996D01*
X207219D02*
X209965D01*
X215097D02*
X218581D01*
X143925Y67312D02*
X146405D01*
X161087D02*
X164283D01*
X169757D02*
X172931D01*
X182424D02*
X184233D01*
X185012D02*
X186400D01*
X187945D02*
X192285D01*
X196307D02*
X198473D01*
X200973D02*
X202711D01*
X206267D02*
X211155D01*
X214621D02*
X219533D01*
X143925Y67550D02*
X146405D01*
X161109D02*
X164243D01*
X169797D02*
X172965D01*
X182519D02*
X184455D01*
X184655D02*
X186165D01*
X187945D02*
X192285D01*
X196545D02*
X199405D01*
X200045D02*
X202425D01*
X206235D02*
X211195D01*
X213675D02*
X219565D01*
X143925Y67788D02*
X146405D01*
X161130D02*
X164204D01*
X169836D02*
X172999D01*
X182614D02*
X185927D01*
X187945D02*
X192285D01*
X197020D02*
X202139D01*
X206235D02*
X211195D01*
X213675D02*
X219565D01*
X143925Y68026D02*
X146405D01*
X161152D02*
X164164D01*
X169876D02*
X173033D01*
X182890D02*
X185689D01*
X187945D02*
X191081D01*
X197615D02*
X201854D01*
X206235D02*
X211195D01*
X213675D02*
X219565D01*
X143925Y68264D02*
X146405D01*
X161174D02*
X164124D01*
X169916D02*
X173063D01*
X183485D02*
X185409D01*
X198245D02*
X201501D01*
X143925Y68502D02*
X146405D01*
X161195D02*
X164085D01*
X169955D02*
X173029D01*
X184080D02*
X184457D01*
X199435D02*
X200073D01*
X143925Y68740D02*
X146405D01*
X161217D02*
X164105D01*
X169935D02*
X172995D01*
X143925Y68978D02*
X146405D01*
X161238D02*
X164145D01*
X169895D02*
X172961D01*
X143925Y69216D02*
X146405D01*
X161260D02*
X164184D01*
X169856D02*
X172927D01*
X143925Y69454D02*
X146405D01*
X161282D02*
X164224D01*
X169816D02*
X172893D01*
X143925Y69692D02*
X146405D01*
X161411D02*
X164264D01*
X169776D02*
X172859D01*
X143925Y69930D02*
X146405D01*
X161560D02*
X164303D01*
X169737D02*
X172825D01*
X143925Y70168D02*
X146405D01*
X161709D02*
X164343D01*
X169697D02*
X172791D01*
X143925Y70406D02*
X146405D01*
X161857D02*
X164383D01*
X169657D02*
X172757D01*
X143925Y70644D02*
X146405D01*
X162006D02*
X164475D01*
X169565D02*
X172568D01*
X143925Y70882D02*
X146481D01*
X162155D02*
X164570D01*
X169470D02*
X172370D01*
X143925Y71120D02*
X146600D01*
X162304D02*
X164665D01*
X169375D02*
X172172D01*
X143925Y71358D02*
X146731D01*
X162452D02*
X164760D01*
X169280D02*
X171973D01*
X143925Y71596D02*
X147207D01*
X162601D02*
X164855D01*
X169185D02*
X171775D01*
X143925Y71834D02*
X149815D01*
X162750D02*
X164951D01*
X169089D02*
X171577D01*
X143925Y72072D02*
X149815D01*
X162957D02*
X165107D01*
X168933D02*
X171378D01*
X143925Y72310D02*
X149815D01*
X163243D02*
X165345D01*
X168695D02*
X171169D01*
X143925Y72548D02*
X149815D01*
X163529D02*
X165583D01*
X168457D02*
X170883D01*
X143925Y72786D02*
X148639D01*
X163814D02*
X165821D01*
X168219D02*
X170598D01*
X143925Y73024D02*
X147459D01*
X164100D02*
X166431D01*
X167733D02*
X170312D01*
X143925Y73262D02*
X146594D01*
X164385D02*
X170027D01*
X143925Y73500D02*
X146038D01*
X164671D02*
X169741D01*
X143925Y73738D02*
X145483D01*
X165567D02*
X169455D01*
X143925Y73976D02*
X144928D01*
X166519D02*
X168323D01*
X0Y0D02*
M02*
