%FSLAX34Y34*%
%MOMM*%
G04 EasyPC Gerber Version 18.0.6 Build 3620 *
%ADD20R,0.65000X1.00000*%
%ADD96R,0.76000X1.60000*%
%ADD88R,0.80000X0.90000*%
%ADD90R,0.80000X2.20000*%
%ADD98R,0.90000X1.30000*%
%ADD91R,1.10000X1.90000*%
%ADD94R,1.39000X1.40000*%
%ADD84R,1.50000X2.50000*%
%ADD92R,2.50000X4.50000*%
%ADD95R,2.60000X4.50000*%
%ADD93R,3.36000X4.86000*%
%ADD85R,7.00000X7.00000*%
%ADD10C,0.12700*%
%ADD106C,0.16000*%
%ADD82C,0.25000*%
%ADD76C,0.30000*%
%ADD105C,0.60000*%
%ADD75C,0.63500*%
%ADD72C,1.21920*%
%ADD14C,1.52400*%
%ADD89C,1.60000*%
%ADD83C,3.50000*%
%ADD13C,5.00000*%
%ADD25R,1.00000X0.65000*%
%ADD86R,1.30000X0.76000*%
%ADD26R,1.60000X0.76000*%
%ADD87R,1.20000X0.80000*%
%ADD21R,1.30000X0.90000*%
%ADD97R,3.51000X2.62000*%
X0Y0D02*
D02*
D10*
X84875Y221949D02*
X85934Y220890D01*
X148875*
X205875Y163890*
Y150890*
X210875Y145890*
X281875*
X286875Y150890*
X329875*
X330875Y151890*
Y283890*
X328875Y285890*
X290875*
X281875Y276890*
X245875*
X236875Y267890*
Y243890*
X231875Y238890*
X199875*
X193875Y244890*
Y284890*
X190875Y287890*
X84875*
Y221949*
G36*
X85934Y220890*
X148875*
X205875Y163890*
Y150890*
X210875Y145890*
X281875*
X286875Y150890*
X329875*
X330875Y151890*
Y283890*
X328875Y285890*
X290875*
X281875Y276890*
X245875*
X236875Y267890*
Y243890*
X231875Y238890*
X199875*
X193875Y244890*
Y284890*
X190875Y287890*
X84875*
Y221949*
G37*
Y346890D02*
Y291890D01*
X85875Y290890*
X191875*
X193875Y292890*
Y342890*
X189875Y346890*
X84875*
G36*
Y291890*
X85875Y290890*
X191875*
X193875Y292890*
Y342890*
X189875Y346890*
X84875*
G37*
X288415Y292890D02*
G75*
G02X288875Y292925I460J-3003D01*
G01*
X381875*
G75*
G02X382335Y292890J-3038*
G01*
X386875*
X390875Y288890*
X461875*
X463875Y290890*
Y420890*
X437875Y446890*
X124875*
X85875Y407890*
Y350890*
X191875*
X197875Y344890*
Y291890*
X200875Y288890*
X282875*
X286875Y292890*
X288415*
G36*
G75*
G02X288875Y292925I460J-3003*
G01*
X381875*
G75*
G02X382335Y292890J-3038*
G01*
X386875*
X390875Y288890*
X461875*
X463875Y290890*
Y420890*
X437875Y446890*
X124875*
X85875Y407890*
Y350890*
X191875*
X197875Y344890*
Y291890*
X200875Y288890*
X282875*
X286875Y292890*
X288415*
G37*
X293840Y143855D02*
X280875Y130890D01*
X238875*
X235875Y127890*
Y100890*
X233875Y98890*
X198875*
X196875Y100890*
Y166890*
X145875Y217890*
X84875*
X81875Y220890*
Y411890*
X120875Y450890*
X430875*
Y530540*
X43225*
Y43240*
X531875*
Y99890*
X538875Y106890*
Y126890*
X534875Y130890*
X417875*
X414875Y127890*
Y102890*
X412992Y101007*
Y100193*
X412178*
X410875Y98890*
X379875*
X377875Y100890*
Y141890*
X375910Y143855*
X293840*
G36*
X280875Y130890*
X238875*
X235875Y127890*
Y100890*
X233875Y98890*
X198875*
X196875Y100890*
Y166890*
X145875Y217890*
X84875*
X81875Y220890*
Y411890*
X120875Y450890*
X430875*
Y530540*
X43225*
Y43240*
X531875*
Y99890*
X538875Y106890*
Y126890*
X534875Y130890*
X417875*
X414875Y127890*
Y102890*
X412992Y101007*
Y100193*
X412178*
X410875Y98890*
X379875*
X377875Y100890*
Y141890*
X375910Y143855*
X293840*
G37*
X413178Y240193D02*
X412875Y239890D01*
X380875*
X378875Y241890*
Y281890*
X375875Y284890*
X339875*
X333875Y278890*
Y152890*
X335875Y150890*
X383875*
X386875Y147890*
X464875*
X478875Y161890*
Y254890*
X465875Y267890*
X416875*
X413992Y265007*
Y240193*
X413178*
G36*
X412875Y239890*
X380875*
X378875Y241890*
Y281890*
X375875Y284890*
X339875*
X333875Y278890*
Y152890*
X335875Y150890*
X383875*
X386875Y147890*
X464875*
X478875Y161890*
Y254890*
X465875Y267890*
X416875*
X413992Y265007*
Y240193*
X413178*
G37*
X510324Y350890D02*
X488875D01*
X482875Y344890*
Y149890*
X498875*
X514875Y165890*
Y281890*
X519875Y286890*
Y344890*
X513875Y350890*
X513426*
G75*
G02X510324I-1551J5001*
G01*
G36*
X488875*
X482875Y344890*
Y149890*
X498875*
X514875Y165890*
Y281890*
X519875Y286890*
Y344890*
X513875Y350890*
X513426*
G75*
G02X510324I-1551J5001*
G01*
G37*
X517875Y148598D02*
Y142890D01*
X523875Y136890*
X538875*
X543875Y131890*
Y97890*
X662875*
X670875Y105890*
X718875*
X750875Y137890*
Y180890*
X768875Y198890*
Y226565*
G75*
G02X760221Y220585I-8000J2325*
G01*
X745700Y206065*
G75*
G02X741875Y204480I-3826J3825*
G01*
X690875*
G75*
G02X687050Y206065I1J5410*
G01*
X674634Y218480*
X674610*
Y215155*
X673285*
Y172131*
X680116Y165300*
X681640*
Y184625*
X712110*
Y135155*
X681640*
Y154480*
X677875*
G75*
G02X674050Y156065I1J5410*
G01*
X664050Y166065*
G75*
G02X662465Y169890I3825J3826*
G01*
Y215155*
X661140*
Y230426*
G75*
G02X658640Y234890I2735J4464*
G01*
G75*
G02X669110Y234937I5235*
G01*
X670516Y233531*
G75*
G02X671183Y232625I-2641J-2643*
G01*
X674610*
Y229300*
X676875*
G75*
G02X680700Y227715I-1J-5410*
G01*
X693116Y215300*
X739634*
X752570Y228236*
G75*
G02X752544Y228890I8300J658*
G01*
G75*
G02X768875Y231215I8331*
G01*
Y235890*
X764875Y239890*
X747875*
X740875Y246890*
Y264890*
X734875Y270890*
X703875*
X694875Y279890*
Y311890*
X682875Y323890*
X533875*
X523875Y313890*
Y285890*
X517875Y279890*
Y167182*
X524840Y174147*
Y187625*
G75*
G02X522640Y191890I3035J4265*
G01*
G75*
G02X531840Y195308I5235*
G01*
Y196625*
G75*
G02X529640Y200890I3035J4265*
G01*
G75*
G02X540110I5235*
G01*
G75*
G02X537910Y196625I-5235*
G01*
Y169890*
G75*
G02X537021Y167744I-3035*
G01*
X517875Y148598*
X533590Y245655D02*
X531140D01*
Y260125*
X542110*
Y245655*
X539660*
Y238147*
X545898Y231909*
X546790*
Y239109*
X558860*
Y218639*
X546790*
Y225839*
X544641*
G75*
G02X542495Y226728J3035*
G01*
X534479Y234744*
G75*
G02X533590Y236890I2146J2146*
G01*
Y245655*
X548099D02*
X545640D01*
Y260125*
X556610*
Y245925*
X559875*
G75*
G02X562021Y245036J-3035*
G01*
X567671Y239386*
G75*
G02X567916Y239109I-2146J-2145*
G01*
X571560*
Y218639*
X559490*
Y238983*
X558618Y239855*
X554125*
G75*
G02X551979Y240744J3035*
G01*
X548979Y243744*
G75*
G02X548099Y245655I2146J2146*
G01*
X549440Y159125D02*
Y164681D01*
X546790*
Y185151*
X558860*
Y164681*
X556310*
Y159125*
X560110*
Y148155*
X545640*
Y159125*
X549440*
X549840Y132655D02*
X545640D01*
Y143625*
X560110*
Y132655*
X555910*
Y131147*
X560132Y126925*
X574968*
X579253Y131211*
X574400Y136065*
G75*
G02X573285Y137684I3823J3826*
G01*
Y132890*
G75*
G02X562465I-5410*
G01*
Y144155*
X561140*
Y161071*
G75*
G02X560115Y164240I4386J3169*
G01*
Y164681*
X559490*
Y185151*
X571560*
Y165856*
X571700Y165715*
G75*
G02X572190Y165153I-3823J-3828*
G01*
Y185151*
X584260*
Y164681*
X583635*
Y142131*
X588466Y137300*
X601640*
Y184625*
X632110*
Y135155*
X622285*
Y131890*
G75*
G02X616875Y126480I-5410*
G01*
X587600*
G75*
G02X583594Y126967I-1375J5410*
G01*
X578371Y121744*
G75*
G02X576225Y120855I-2146J2146*
G01*
X558875*
G75*
G02X556729Y121744J3035*
G01*
X550729Y127744*
G75*
G02X549840Y129890I2146J2146*
G01*
Y132655*
X563590Y260125D02*
Y264890D01*
G75*
G02X564479Y267036I3035*
G01*
X578479Y281036*
G75*
G02X580625Y281925I2146J-2146*
G01*
X677875*
G75*
G02X680021Y281036J-3035*
G01*
X697021Y264036*
G75*
G02X697910Y261890I-2146J-2146*
G01*
Y247147*
X700960Y244097*
G75*
G02X716351Y239325I6015J-7807*
G01*
X722999*
G75*
G02X732375Y246145I9376J-3035*
G01*
G75*
G02Y226435J-9855*
G01*
G75*
G02X722999Y233255J9855*
G01*
X716351*
G75*
G02X697494Y238979I-9376J3035*
G01*
X692729Y243744*
G75*
G02X691840Y245890I2146J2146*
G01*
Y260633*
X676618Y275855*
X581882*
X569660Y263633*
Y260125*
X572110*
Y245655*
X561140*
Y260125*
X563590*
X575192Y239109D02*
G75*
G02X576079Y241136I3033J-120D01*
G01*
X579090Y244147*
Y245655*
X576640*
Y260125*
X587610*
Y245655*
X585160*
Y242890*
G75*
G02X584271Y240744I-3035*
G01*
X582636Y239109*
X584260*
Y218639*
X572190*
Y239109*
X575192*
X596960Y225839D02*
Y218639D01*
X584890*
Y239109*
X596960*
Y231909*
X609090*
Y232655*
X606640*
Y247125*
X617610*
Y232655*
X615160*
Y229125*
X617610*
Y214655*
X606640*
Y225839*
X596960*
X603110Y250833D02*
Y245655D01*
X592140*
Y260125*
X603110*
Y259417*
X604729Y261036*
G75*
G02X606640Y261916I2146J-2146*
G01*
Y266125*
X617610*
Y251655*
X606640*
Y254363*
X603110Y250833*
X625930Y299890D02*
G75*
G02X606220I-9855D01*
G01*
G75*
G02X625930I9855*
G01*
X629012Y214655D02*
X622140D01*
Y229125*
X633110*
Y222253*
X639799Y215564*
G75*
G02X641010Y212640I-2924J-2924*
G01*
Y210100*
G75*
G02X642110Y206890I-4134J-3210*
G01*
G75*
G02X631640I-5235*
G01*
G75*
G02X632740Y210100I5234*
G01*
Y210927*
X629012Y214655*
X676730Y299890D02*
G75*
G02X657020I-9855D01*
G01*
G75*
G02X676730I9855*
G01*
X517875Y239382D02*
G36*
Y215390D01*
X606640*
Y225839*
X596960*
Y218639*
X584890*
Y239109*
X596960*
Y231909*
X609090*
Y232655*
X606640*
Y239382*
X582909*
X582636Y239109*
X584260*
Y218639*
X572190*
Y239109*
X575192*
G75*
G02X575215Y239382I3033J-118*
G01*
X567671*
G75*
G02X567916Y239109I-2113J-2143*
G01*
X571560*
Y218639*
X559490*
Y238983*
X559091Y239382*
X539660*
Y238147*
X545898Y231909*
X546790*
Y239109*
X558860*
Y218639*
X546790*
Y225839*
X544641*
G75*
G02X542495Y226728J3035*
G01*
X534479Y234744*
G75*
G02X533590Y236890I2146J2146*
G01*
Y239382*
X517875*
G37*
X533590D02*
G36*
Y245655D01*
X531140*
Y255890*
X517875*
Y239382*
X533590*
G37*
X559091D02*
G36*
X558618Y239855D01*
X554125*
G75*
G02X551979Y240744J3035*
G01*
X548979Y243744*
G75*
G02X548099Y245655I2146J2146*
G01*
X545640*
Y255890*
X542110*
Y245655*
X539660*
Y239382*
X559091*
G37*
X575215D02*
G36*
G75*
G02X576079Y241136I3010J-393D01*
G01*
X579090Y244147*
Y245655*
X576640*
Y255890*
X572110*
Y245655*
X561140*
Y255890*
X556610*
Y245925*
X559875*
G75*
G02X562021Y245036J-3035*
G01*
X567671Y239382*
X575215*
G37*
X606640D02*
G36*
Y247125D01*
X617610*
Y239382*
X661187*
G75*
G02X666563I2688J-4492*
G01*
X697091*
X692729Y243744*
G75*
G02X691840Y245890I2146J2146*
G01*
Y255890*
X617610*
Y251655*
X606640*
Y254363*
X603110Y250833*
Y245655*
X592140*
Y255890*
X587610*
Y245655*
X585160*
Y242890*
G75*
G02X584271Y240744I-3035*
G01*
X582909Y239382*
X606640*
G37*
X617610D02*
G36*
Y232655D01*
X615160*
Y229125*
X617610*
Y215390*
X622140*
Y229125*
X633110*
Y222253*
X639799Y215564*
G75*
G02X639963Y215390I-2925J-2922*
G01*
X661140*
Y230426*
G75*
G02X658640Y234890I2735J4464*
G01*
G75*
G02X661187Y239382I5235*
G01*
X617610*
G37*
X666563D02*
G36*
G75*
G02X669110Y234937I-2688J-4492D01*
G01*
X670516Y233531*
G75*
G02X671183Y232625I-2641J-2643*
G01*
X674610*
Y229300*
X676875*
G75*
G02X680700Y227715I-1J-5410*
G01*
X693116Y215300*
X739634*
X752570Y228236*
G75*
G02X752544Y228890I8300J658*
G01*
G75*
G02X768875Y231215I8331*
G01*
Y235890*
X765383Y239382*
X741732*
G75*
G02X732375Y226435I-9357J-3092*
G01*
G75*
G02X722999Y233255J9855*
G01*
X716351*
G75*
G02X697494Y238979I-9376J3035*
G01*
X697091Y239382*
X666563*
G37*
X765383D02*
G36*
X764875Y239890D01*
X747875*
X740875Y246890*
Y255890*
X697910*
Y247147*
X700960Y244097*
G75*
G02X716351Y239325I6015J-7807*
G01*
X722999*
G75*
G02X732375Y246145I9376J-3035*
G01*
G75*
G02X741732Y239382J-9855*
G01*
X765383*
G37*
X535930Y166653D02*
G36*
X517875Y148598D01*
Y142890*
X523875Y136890*
X538875*
X543875Y131890*
Y97890*
X662875*
X670875Y105890*
X718875*
X750875Y137890*
Y180890*
X768875Y198890*
Y226565*
G75*
G02X760221Y220585I-8000J2325*
G01*
X745700Y206065*
G75*
G02X741875Y204480I-3826J3825*
G01*
X690875*
G75*
G02X687050Y206065I1J5410*
G01*
X674634Y218480*
X674610*
Y215155*
X673285*
Y172131*
X680116Y165300*
X681640*
Y184625*
X712110*
Y135155*
X681640*
Y154480*
X677875*
G75*
G02X674050Y156065I1J5410*
G01*
X664050Y166065*
G75*
G02X663541Y166653I3825J3825*
G01*
X632110*
Y135155*
X622285*
Y131890*
G75*
G02X616875Y126480I-5410*
G01*
X587600*
G75*
G02X583594Y126967I-1375J5410*
G01*
X578371Y121744*
G75*
G02X576225Y120855I-2146J2146*
G01*
X558875*
G75*
G02X556729Y121744J3035*
G01*
X550729Y127744*
G75*
G02X549840Y129890I2146J2146*
G01*
Y132655*
X545640*
Y143625*
X560110*
Y132655*
X555910*
Y131147*
X560132Y126925*
X574968*
X579253Y131211*
X574400Y136065*
G75*
G02X573285Y137684I3823J3826*
G01*
Y132890*
G75*
G02X562465I-5410*
G01*
Y144155*
X561140*
Y161071*
G75*
G02X560115Y164240I4386J3169*
G01*
Y164681*
X559490*
Y166653*
X558860*
Y164681*
X556310*
Y159125*
X560110*
Y148155*
X545640*
Y159125*
X549440*
Y164681*
X546790*
Y166653*
X535930*
G37*
X546790D02*
G36*
Y185151D01*
X558860*
Y166653*
X559490*
Y185151*
X571560*
Y165856*
X571700Y165715*
G75*
G02X572190Y165153I-3823J-3828*
G01*
Y185151*
X584260*
Y164681*
X583635*
Y142131*
X588466Y137300*
X601640*
Y184625*
X632110*
Y166653*
X663541*
G75*
G02X662465Y169890I4334J3238*
G01*
Y215155*
X661140*
Y215390*
X639963*
G75*
G02X641010Y212640I-3088J-2750*
G01*
Y210100*
G75*
G02X642110Y206890I-4134J-3210*
G01*
G75*
G02X631640I-5235*
G01*
G75*
G02X632740Y210100I5234*
G01*
Y210927*
X629012Y214655*
X622140*
Y215390*
X617610*
Y214655*
X606640*
Y215390*
X517875*
Y167182*
X524840Y174147*
Y187625*
G75*
G02X522640Y191890I3035J4265*
G01*
G75*
G02X531840Y195308I5235*
G01*
Y196625*
G75*
G02X529640Y200890I3035J4265*
G01*
G75*
G02X540110I5235*
G01*
G75*
G02X537910Y196625I-5235*
G01*
Y169890*
G75*
G02X537021Y167744I-3035*
G01*
X535930Y166653*
X546790*
G37*
X531140Y255890D02*
G36*
Y260125D01*
X542110*
Y255890*
X545640*
Y260125*
X556610*
Y255890*
X561140*
Y260125*
X563590*
Y264890*
G75*
G02X564479Y267036I3035*
G01*
X578479Y281036*
G75*
G02X580625Y281925I2146J-2146*
G01*
X677875*
G75*
G02X680021Y281036J-3035*
G01*
X697021Y264036*
G75*
G02X697910Y261890I-2146J-2146*
G01*
Y255890*
X740875*
Y264890*
X734875Y270890*
X703875*
X694875Y279890*
Y299890*
X676730*
G75*
G02X657020I-9855*
G01*
X625930*
G75*
G02X606220I-9855*
G01*
X523875*
Y285890*
X517875Y279890*
Y255890*
X531140*
G37*
X576640D02*
G36*
Y260125D01*
X587610*
Y255890*
X592140*
Y260125*
X603110*
Y259417*
X604729Y261036*
G75*
G02X606640Y261916I2146J-2146*
G01*
Y266125*
X617610*
Y255890*
X691840*
Y260633*
X676618Y275855*
X581882*
X569660Y263633*
Y260125*
X572110*
Y255890*
X576640*
G37*
X606220Y299890D02*
G36*
G75*
G02X625930I9855D01*
G01*
X657020*
G75*
G02X676730I9855*
G01*
X694875*
Y311890*
X682875Y323890*
X533875*
X523875Y313890*
Y299890*
X606220*
G37*
X546875Y392975D02*
X563126D01*
Y380905*
X561875*
Y380275*
X563126*
Y368205*
X561875*
Y367575*
X563126*
Y355505*
X561875*
Y354875*
X563126*
Y342805*
X561875*
Y341890*
X596875*
Y342805*
X596614*
Y354875*
X596875*
Y355505*
X596614*
Y367575*
X596875*
Y368205*
X596614*
Y370805*
X596475*
G75*
G02X594201Y371665J3435*
G01*
G75*
G02X588640Y376890I-326J5225*
G01*
G75*
G02X596875Y381180I5235*
G01*
Y381890*
X612875*
Y399890*
X546875*
Y392975*
G36*
X563126*
Y380905*
X561875*
Y380275*
X563126*
Y368205*
X561875*
Y367575*
X563126*
Y355505*
X561875*
Y354875*
X563126*
Y342805*
X561875*
Y341890*
X596875*
Y342805*
X596614*
Y354875*
X596875*
Y355505*
X596614*
Y367575*
X596875*
Y368205*
X596614*
Y370805*
X596475*
G75*
G02X594201Y371665J3435*
G01*
G75*
G02X588640Y376890I-326J5225*
G01*
G75*
G02X596875Y381180I5235*
G01*
Y381890*
X612875*
Y399890*
X546875*
Y392975*
G37*
X559790Y467975D02*
X563126D01*
Y455905*
X561875*
Y455275*
X563126*
Y443205*
X561875*
Y442575*
X563126*
Y430505*
X561875*
Y429875*
X563126*
Y418639*
X564875Y416890*
X593875*
X596614Y419629*
Y429875*
X596875*
Y430505*
X596614*
Y442151*
X595875Y442890*
X592875*
X590875Y444890*
Y447739*
G75*
G02Y450841I5000J1551*
G01*
Y453890*
X592875Y455890*
X612875*
X613875Y456890*
Y472890*
X612875Y473890*
X546875*
Y468890*
X558875*
X559790Y467975*
G36*
X563126*
Y455905*
X561875*
Y455275*
X563126*
Y443205*
X561875*
Y442575*
X563126*
Y430505*
X561875*
Y429875*
X563126*
Y418639*
X564875Y416890*
X593875*
X596614Y419629*
Y429875*
X596875*
Y430505*
X596614*
Y442151*
X595875Y442890*
X592875*
X590875Y444890*
Y447739*
G75*
G02Y450841I5000J1551*
G01*
Y453890*
X592875Y455890*
X612875*
X613875Y456890*
Y472890*
X612875Y473890*
X546875*
Y468890*
X558875*
X559790Y467975*
G37*
X717140Y415890D02*
X716875D01*
X715875Y416890*
Y427890*
X716875Y428890*
X734875*
Y452890*
X733875Y453890*
X716875*
Y464890*
X717140Y465155*
Y466025*
X718010*
X718875Y466890*
X733875*
X734875Y467890*
Y475855*
X728875*
G75*
G02X728415Y475890J3038*
G01*
X664875*
Y466890*
X680875*
X682875Y464890*
Y436890*
X687875Y431890*
Y414890*
X682875Y409890*
X731875*
Y414890*
X730910Y415855*
X717140*
Y415890*
G36*
X716875*
X715875Y416890*
Y427890*
X716875Y428890*
X734875*
Y452890*
X733875Y453890*
X716875*
Y464890*
X717140Y465155*
Y466025*
X718010*
X718875Y466890*
X733875*
X734875Y467890*
Y475855*
X728875*
G75*
G02X728415Y475890J3038*
G01*
X664875*
Y466890*
X680875*
X682875Y464890*
Y436890*
X687875Y431890*
Y414890*
X682875Y409890*
X731875*
Y414890*
X730910Y415855*
X717140*
Y415890*
G37*
X836875Y36890D02*
Y536890D01*
X36875*
Y36890*
X836875*
D02*
D13*
X61875Y61890D02*
D03*
Y511890D02*
D03*
X481875Y61890D02*
D03*
X810875Y136890D02*
D03*
Y436890D02*
D03*
D02*
D14*
X491875Y395890D02*
D03*
Y421290D02*
D03*
Y446690D02*
D03*
X616075Y299890D02*
D03*
X641475D02*
D03*
X666875D02*
D03*
X706975Y236290D02*
D03*
Y261690D02*
D03*
Y287090D02*
D03*
Y312490D02*
D03*
Y337890D02*
D03*
X732375Y236290D02*
D03*
Y261690D02*
D03*
Y287090D02*
D03*
Y312490D02*
D03*
Y337890D02*
D03*
D02*
D20*
X521125Y252890D02*
D03*
X536625D02*
D03*
X551125D02*
D03*
X566625D02*
D03*
X582125D02*
D03*
X597625D02*
D03*
X612125Y221890D02*
D03*
Y239890D02*
D03*
Y258890D02*
D03*
X627625Y221890D02*
D03*
Y239890D02*
D03*
Y258890D02*
D03*
X659125Y346890D02*
D03*
X674625D02*
D03*
D02*
D21*
X529875Y353890D02*
D03*
Y373890D02*
D03*
X531875Y428890D02*
D03*
Y448890D02*
D03*
D02*
D25*
X205875Y249140D02*
D03*
Y264640D02*
D03*
X206875Y109140D02*
D03*
Y124640D02*
D03*
X386875Y109140D02*
D03*
Y124640D02*
D03*
Y249140D02*
D03*
Y264640D02*
D03*
X552875Y138140D02*
D03*
Y153640D02*
D03*
X624875Y361140D02*
D03*
Y376640D02*
D03*
Y431140D02*
D03*
Y446640D02*
D03*
X653875Y431140D02*
D03*
Y446640D02*
D03*
X745875Y419140D02*
D03*
Y434640D02*
D03*
Y449140D02*
D03*
Y464640D02*
D03*
D02*
D26*
X552891Y348840D02*
D03*
Y361540D02*
D03*
Y374240D02*
D03*
Y386940D02*
D03*
Y423840D02*
D03*
Y436540D02*
D03*
Y449240D02*
D03*
Y461940D02*
D03*
X606849Y348840D02*
D03*
Y361540D02*
D03*
Y374240D02*
D03*
Y386940D02*
D03*
Y423840D02*
D03*
Y436540D02*
D03*
Y449240D02*
D03*
Y461940D02*
D03*
D02*
D72*
X760875Y228890D02*
D03*
Y374390D02*
D03*
D02*
D75*
X479375Y482890D02*
Y500890D01*
X504875Y482890D02*
X494375D01*
X565525Y174916D02*
Y164240D01*
X567875Y161890*
Y152890*
Y132890*
X586225Y131890D02*
X578225Y139890D01*
Y174916*
X587875Y152890D02*
Y160840D01*
X590925Y163890*
Y174916*
Y188940*
X603875Y201890*
X625875*
X633875Y193890*
X646875*
X650875Y197890*
Y220890*
X647875Y223890*
X590925Y174916D02*
Y193840D01*
X582875Y201890*
X571875*
X606849Y348840D02*
X618875Y348890D01*
X624875Y354890*
Y361140*
X606849Y461940D02*
X618775Y461990D01*
X624875Y455890*
Y446640*
X616875Y159890D02*
Y131890D01*
X586225*
X624875Y376640D02*
X625125Y376890D01*
X635875*
X624875Y376640D02*
Y382990D01*
X620875Y386990*
X606849Y386940*
X624875Y431140D02*
Y430890D01*
X617875Y423890*
X606849Y423840*
X627625Y239890D02*
Y258890D01*
Y239890D02*
X642875D01*
X647875Y234890*
Y223890*
X634875Y430890D02*
X625125D01*
X624875Y431140*
X634875Y446890D02*
X625125D01*
X624875Y446640*
X635875Y360890D02*
X625125D01*
X624875Y361140*
X653875Y431140D02*
X644125D01*
X643875Y430890*
X653875Y431140D02*
Y426890D01*
X658875Y421890*
X672475*
X653875Y446640D02*
X653625Y446890D01*
X643875*
X653875Y446640D02*
Y455990D01*
X657875Y459990*
X672475*
X656975Y375240D02*
Y388540D01*
X648225*
X644875Y391890*
X667875Y223890D02*
X676875D01*
X690875Y209890*
X741875*
X760875Y228890*
X667875Y223890D02*
Y169890D01*
X677875Y159890*
X696875*
X724775Y388540D02*
X739225D01*
X745875Y381890*
D02*
D76*
X521125Y252890D02*
Y279140D01*
X525875Y283890*
X683875*
X705875Y261890*
X706775*
X706975Y261690*
X531875Y448890D02*
X553075D01*
X552891Y449240*
Y348840D02*
X534875Y348890D01*
X529875Y353890*
X552891Y374240D02*
X543275Y374290D01*
X542875Y373890*
X529875*
X552891Y423840D02*
X536875Y423890D01*
X531875Y428890*
X568375Y406890D02*
X557291D01*
X552891Y411290*
Y423840*
X569375Y331890D02*
X568375Y332890D01*
X560891*
X552891Y340890*
Y348840*
X591375Y406890D02*
X599875D01*
X605901Y412916*
Y413838*
X606849Y414786*
Y423840*
Y348840D02*
X606875Y338890D01*
X599875Y331890*
X592375*
X636875Y206890D02*
Y212640D01*
X627875Y221640*
X627625*
Y221890*
X649875Y346890D02*
X659125D01*
X667875Y223890D02*
Y230890D01*
X663875Y234890*
X674625Y346890D02*
Y394490D01*
X667875Y401240*
X656975*
D02*
D82*
X91625Y256890D02*
X86585D01*
X91625Y318890D02*
X86585D01*
X91625Y380890D02*
X86585D01*
X107875Y240640D02*
Y235600D01*
Y273140D02*
Y278180D01*
Y302640D02*
Y297600D01*
Y335140D02*
Y340180D01*
Y364640D02*
Y359600D01*
Y397140D02*
Y402180D01*
X124125Y256890D02*
X129165D01*
X124125Y318890D02*
X129165D01*
X124125Y380890D02*
X129165D01*
X133125Y312890D02*
X128085D01*
X133125Y336890D02*
X128085D01*
X133638Y323653D02*
X130074Y320089D01*
X133638Y326127D02*
X130074Y329691D01*
X134125Y240890D02*
X129085D01*
X134638Y227653D02*
X131074Y224089D01*
X134638Y230127D02*
X131074Y233691D01*
X134638Y251653D02*
X131074Y248089D01*
X134638Y254127D02*
X131074Y257691D01*
X134875Y311140D02*
Y306100D01*
Y314640D02*
Y319680D01*
Y335140D02*
Y330100D01*
Y338640D02*
Y343680D01*
X135875Y239140D02*
Y234100D01*
Y242640D02*
Y247680D01*
X136112Y323653D02*
X139676Y320089D01*
X136112Y326127D02*
X139676Y329691D01*
X136625Y312890D02*
X141665D01*
X136625Y336890D02*
X141665D01*
X137112Y227653D02*
X140676Y224089D01*
X137112Y230127D02*
X140676Y233691D01*
X137112Y251653D02*
X140676Y248089D01*
X137112Y254127D02*
X140676Y257691D01*
X137625Y240890D02*
X142665D01*
X145125Y324890D02*
X140085D01*
X145638Y311653D02*
X142074Y308089D01*
X145638Y314127D02*
X142074Y317691D01*
X145638Y335653D02*
X142074Y332089D01*
X145638Y338127D02*
X142074Y341691D01*
X146125Y228890D02*
X141085D01*
X146125Y252890D02*
X141085D01*
X146638Y239653D02*
X143074Y236089D01*
X146638Y242127D02*
X143074Y245691D01*
X146875Y323140D02*
Y318100D01*
Y326640D02*
Y331680D01*
X147875Y227140D02*
Y222100D01*
Y230640D02*
Y235680D01*
Y251140D02*
Y246100D01*
Y254640D02*
Y259680D01*
X148112Y311653D02*
X151676Y308089D01*
X148112Y314127D02*
X151676Y317691D01*
X148112Y335653D02*
X151676Y332089D01*
X148112Y338127D02*
X151676Y341691D01*
X148625Y324890D02*
X153665D01*
X149112Y239653D02*
X152676Y236089D01*
X149112Y242127D02*
X152676Y245691D01*
X149625Y228890D02*
X154665D01*
X149625Y252890D02*
X154665D01*
X155125Y62890D02*
X150085D01*
X155125Y86890D02*
X150085D01*
X156875Y61140D02*
Y56100D01*
Y64640D02*
Y69680D01*
Y85140D02*
Y80100D01*
Y88640D02*
Y93680D01*
X157125Y312890D02*
X152085D01*
X157125Y336890D02*
X152085D01*
X157638Y299653D02*
X154074Y296089D01*
X157638Y302127D02*
X154074Y305691D01*
X157638Y323653D02*
X154074Y320089D01*
X157638Y326127D02*
X154074Y329691D01*
X158125Y240890D02*
X153085D01*
X158125Y264890D02*
X153085D01*
X158625Y62890D02*
X163665D01*
X158625Y86890D02*
X163665D01*
X158638Y227653D02*
X155074Y224089D01*
X158638Y230127D02*
X155074Y233691D01*
X158638Y251653D02*
X155074Y248089D01*
X158638Y254127D02*
X155074Y257691D01*
X158638Y275653D02*
X155074Y272089D01*
X158638Y278127D02*
X155074Y281691D01*
X158875Y311140D02*
Y306100D01*
Y314640D02*
Y319680D01*
Y335140D02*
Y330100D01*
Y338640D02*
Y343680D01*
X159875Y239140D02*
Y234100D01*
Y242640D02*
Y247680D01*
Y263140D02*
Y258100D01*
Y266640D02*
Y271680D01*
X160112Y299653D02*
X163676Y296089D01*
X160112Y302127D02*
X163676Y305691D01*
X160112Y323653D02*
X163676Y320089D01*
X160112Y326127D02*
X163676Y329691D01*
X160625Y312890D02*
X165665D01*
X160625Y336890D02*
X165665D01*
X161112Y227653D02*
X164676Y224089D01*
X161112Y230127D02*
X164676Y233691D01*
X161112Y251653D02*
X164676Y248089D01*
X161112Y254127D02*
X164676Y257691D01*
X161112Y275653D02*
X164676Y272089D01*
X161112Y278127D02*
X164676Y281691D01*
X161625Y240890D02*
X166665D01*
X161625Y264890D02*
X166665D01*
X167125Y74890D02*
X162085D01*
X168875Y73140D02*
Y68100D01*
Y76640D02*
Y81680D01*
X169125Y300890D02*
X164085D01*
X169125Y324890D02*
X164085D01*
X169638Y311653D02*
X166074Y308089D01*
X169638Y314127D02*
X166074Y317691D01*
X169638Y335653D02*
X166074Y332089D01*
X169638Y338127D02*
X166074Y341691D01*
X170125Y228890D02*
X165085D01*
X170125Y252890D02*
X165085D01*
X170125Y276890D02*
X165085D01*
X170625Y74890D02*
X175665D01*
X170638Y215653D02*
X167074Y212089D01*
X170638Y218127D02*
X167074Y221691D01*
X170638Y239653D02*
X167074Y236089D01*
X170638Y242127D02*
X167074Y245691D01*
X170638Y263653D02*
X167074Y260089D01*
X170638Y266127D02*
X167074Y269691D01*
X170875Y299140D02*
Y294100D01*
Y302640D02*
Y307680D01*
Y323140D02*
Y318100D01*
Y326640D02*
Y331680D01*
X171875Y227140D02*
Y222100D01*
Y230640D02*
Y235680D01*
Y251140D02*
Y246100D01*
Y254640D02*
Y259680D01*
Y275140D02*
Y270100D01*
Y278640D02*
Y283680D01*
X172112Y311653D02*
X175676Y308089D01*
X172112Y314127D02*
X175676Y317691D01*
X172112Y335653D02*
X175676Y332089D01*
X172112Y338127D02*
X175676Y341691D01*
X172625Y300890D02*
X177665D01*
X172625Y324890D02*
X177665D01*
X173112Y215653D02*
X176676Y212089D01*
X173112Y218127D02*
X176676Y221691D01*
X173112Y239653D02*
X176676Y236089D01*
X173112Y242127D02*
X176676Y245691D01*
X173112Y263653D02*
X176676Y260089D01*
X173112Y266127D02*
X176676Y269691D01*
X173625Y228890D02*
X178665D01*
X173625Y252890D02*
X178665D01*
X173625Y276890D02*
X178665D01*
X179125Y62890D02*
X174085D01*
X179125Y86890D02*
X174085D01*
X180875Y61140D02*
Y56100D01*
Y64640D02*
Y69680D01*
Y85140D02*
Y80100D01*
Y88640D02*
Y93680D01*
X181125Y312890D02*
X176085D01*
X181125Y336890D02*
X176085D01*
X181638Y299653D02*
X178074Y296089D01*
X181638Y302127D02*
X178074Y305691D01*
X181638Y323653D02*
X178074Y320089D01*
X181638Y326127D02*
X178074Y329691D01*
X182125Y216890D02*
X177085D01*
X182125Y240890D02*
X177085D01*
X182125Y264890D02*
X177085D01*
X182625Y62890D02*
X187665D01*
X182625Y86890D02*
X187665D01*
X182638Y227653D02*
X179074Y224089D01*
X182638Y230127D02*
X179074Y233691D01*
X182638Y251653D02*
X179074Y248089D01*
X182638Y254127D02*
X179074Y257691D01*
X182638Y275653D02*
X179074Y272089D01*
X182638Y278127D02*
X179074Y281691D01*
X182875Y311140D02*
Y306100D01*
Y314640D02*
Y319680D01*
Y335140D02*
Y330100D01*
Y338640D02*
Y343680D01*
X183875Y215140D02*
Y210100D01*
Y218640D02*
Y223680D01*
Y239140D02*
Y234100D01*
Y242640D02*
Y247680D01*
Y263140D02*
Y258100D01*
Y266640D02*
Y271680D01*
X184112Y299653D02*
X187676Y296089D01*
X184112Y302127D02*
X187676Y305691D01*
X184112Y323653D02*
X187676Y320089D01*
X184112Y326127D02*
X187676Y329691D01*
X184625Y312890D02*
X189665D01*
X184625Y336890D02*
X189665D01*
X185112Y227653D02*
X188676Y224089D01*
X185112Y230127D02*
X188676Y233691D01*
X185112Y251653D02*
X188676Y248089D01*
X185112Y254127D02*
X188676Y257691D01*
X185112Y275653D02*
X188676Y272089D01*
X185112Y278127D02*
X188676Y281691D01*
X185625Y216890D02*
X190665D01*
X185625Y240890D02*
X190665D01*
X185625Y264890D02*
X190665D01*
X191125Y74890D02*
X186085D01*
X192875Y73140D02*
Y68100D01*
Y76640D02*
Y81680D01*
X194625Y74890D02*
X199665D01*
X203125Y62890D02*
X198085D01*
X203125Y86890D02*
X198085D01*
X204875Y61140D02*
Y56100D01*
Y64640D02*
Y69680D01*
Y85140D02*
Y80100D01*
Y88640D02*
Y93680D01*
X205125Y392890D02*
X200085D01*
X205125Y416890D02*
X200085D01*
X205125Y482890D02*
X200085D01*
X205125Y506890D02*
X200085D01*
X205638Y379653D02*
X202074Y376089D01*
X205638Y382127D02*
X202074Y385691D01*
X205638Y403653D02*
X202074Y400089D01*
X205638Y406127D02*
X202074Y409691D01*
X205638Y469653D02*
X202074Y466089D01*
X205638Y472127D02*
X202074Y475691D01*
X205638Y493653D02*
X202074Y490089D01*
X205638Y496127D02*
X202074Y499691D01*
X206625Y62890D02*
X211665D01*
X206625Y86890D02*
X211665D01*
X206875Y391140D02*
Y386100D01*
Y394640D02*
Y399680D01*
Y415140D02*
Y410100D01*
Y418640D02*
Y423680D01*
Y481140D02*
Y476100D01*
Y484640D02*
Y489680D01*
Y505140D02*
Y500100D01*
Y508640D02*
Y513680D01*
X208112Y379653D02*
X211676Y376089D01*
X208112Y382127D02*
X211676Y385691D01*
X208112Y403653D02*
X211676Y400089D01*
X208112Y406127D02*
X211676Y409691D01*
X208112Y469653D02*
X211676Y466089D01*
X208112Y472127D02*
X211676Y475691D01*
X208112Y493653D02*
X211676Y490089D01*
X208112Y496127D02*
X211676Y499691D01*
X208625Y392890D02*
X213665D01*
X208625Y416890D02*
X213665D01*
X208625Y482890D02*
X213665D01*
X208625Y506890D02*
X213665D01*
X213125Y183880D02*
X208085D01*
X213125Y323880D02*
X208085D01*
X215125Y74890D02*
X210085D01*
X216638Y230653D02*
X213074Y227089D01*
X216638Y233127D02*
X213074Y236691D01*
X216875Y73140D02*
Y68100D01*
Y76640D02*
Y81680D01*
X217125Y380890D02*
X212085D01*
X217125Y404890D02*
X212085D01*
X217125Y470890D02*
X212085D01*
X217125Y494890D02*
X212085D01*
X217638Y391653D02*
X214074Y388089D01*
X217638Y394127D02*
X214074Y397691D01*
X217638Y415653D02*
X214074Y412089D01*
X217638Y418127D02*
X214074Y421691D01*
X217638Y481653D02*
X214074Y478089D01*
X217638Y484127D02*
X214074Y487691D01*
X217638Y505653D02*
X214074Y502089D01*
X217638Y508127D02*
X214074Y511691D01*
X218625Y74890D02*
X223665D01*
X218875Y379140D02*
Y374100D01*
Y382640D02*
Y387680D01*
Y403140D02*
Y398100D01*
Y406640D02*
Y411680D01*
Y469140D02*
Y464100D01*
Y472640D02*
Y477680D01*
Y493140D02*
Y488100D01*
Y496640D02*
Y501680D01*
X219112Y230653D02*
X222676Y227089D01*
X219112Y233127D02*
X222676Y236691D01*
X220112Y391653D02*
X223676Y388089D01*
X220112Y394127D02*
X223676Y397691D01*
X220112Y415653D02*
X223676Y412089D01*
X220112Y418127D02*
X223676Y421691D01*
X220112Y481653D02*
X223676Y478089D01*
X220112Y484127D02*
X223676Y487691D01*
X220112Y505653D02*
X223676Y502089D01*
X220112Y508127D02*
X223676Y511691D01*
X220625Y380890D02*
X225665D01*
X220625Y404890D02*
X225665D01*
X220625Y470890D02*
X225665D01*
X220625Y494890D02*
X225665D01*
X227125Y62890D02*
X222085D01*
X227125Y86890D02*
X222085D01*
X228638Y230653D02*
X225074Y227089D01*
X228638Y233127D02*
X225074Y236691D01*
X228875Y61140D02*
Y56100D01*
Y64640D02*
Y69680D01*
Y85140D02*
Y80100D01*
Y88640D02*
Y93680D01*
X229125Y482890D02*
X224085D01*
X229125Y506890D02*
X224085D01*
X229638Y469653D02*
X226074Y466089D01*
X229638Y472127D02*
X226074Y475691D01*
X229638Y493653D02*
X226074Y490089D01*
X229638Y496127D02*
X226074Y499691D01*
X230625Y62890D02*
X235665D01*
X230625Y86890D02*
X235665D01*
X230875Y481140D02*
Y476100D01*
Y484640D02*
Y489680D01*
Y505140D02*
Y500100D01*
Y508640D02*
Y513680D01*
X231112Y230653D02*
X234676Y227089D01*
X231112Y233127D02*
X234676Y236691D01*
X232112Y469653D02*
X235676Y466089D01*
X232112Y472127D02*
X235676Y475691D01*
X232112Y493653D02*
X235676Y490089D01*
X232112Y496127D02*
X235676Y499691D01*
X232625Y482890D02*
X237665D01*
X232625Y506890D02*
X237665D01*
X238625Y415890D02*
X233585D01*
X239125Y74890D02*
X234085D01*
X240125Y231890D02*
X235085D01*
X240875Y73140D02*
Y68100D01*
Y76640D02*
Y81680D01*
X241875Y230140D02*
Y225100D01*
Y233640D02*
Y238680D01*
X242625Y74890D02*
X247665D01*
X243625Y231890D02*
X248665D01*
X246875Y217630D02*
Y222670D01*
Y357630D02*
Y362670D01*
X249875Y394640D02*
Y389600D01*
Y437140D02*
Y442180D01*
X251125Y62890D02*
X246085D01*
X251125Y86890D02*
X246085D01*
X252875Y61140D02*
Y56100D01*
Y64640D02*
Y69680D01*
Y85140D02*
Y80100D01*
Y88640D02*
Y93680D01*
X254625Y62890D02*
X259665D01*
X254625Y86890D02*
X259665D01*
X256125Y231890D02*
X251085D01*
X257875Y230140D02*
Y225100D01*
Y233640D02*
Y238680D01*
X259625Y231890D02*
X264665D01*
X261125Y415890D02*
X266165D01*
X263125Y74890D02*
X258085D01*
X264279Y254770D02*
X259239D01*
X264875Y73140D02*
Y68100D01*
Y76640D02*
Y81680D01*
X266625Y74890D02*
X271665D01*
X267125Y482890D02*
X262085D01*
X267125Y506890D02*
X262085D01*
X267638Y469653D02*
X264074Y466089D01*
X267638Y472127D02*
X264074Y475691D01*
X267638Y493653D02*
X264074Y490089D01*
X267638Y496127D02*
X264074Y499691D01*
X268638Y230653D02*
X265074Y227089D01*
X268638Y233127D02*
X265074Y236691D01*
X268875Y481140D02*
Y476100D01*
Y484640D02*
Y489680D01*
Y505140D02*
Y500100D01*
Y508640D02*
Y513680D01*
X270112Y469653D02*
X273676Y466089D01*
X270112Y472127D02*
X273676Y475691D01*
X270112Y493653D02*
X273676Y490089D01*
X270112Y496127D02*
X273676Y499691D01*
X270529Y243520D02*
Y238480D01*
Y266020D02*
Y271060D01*
X270625Y482890D02*
X275665D01*
X270625Y506890D02*
X275665D01*
X271112Y230653D02*
X274676Y227089D01*
X271112Y233127D02*
X274676Y236691D01*
X275125Y62890D02*
X270085D01*
X275125Y86890D02*
X270085D01*
X275125Y392890D02*
X270085D01*
X275125Y416890D02*
X270085D01*
X275638Y379653D02*
X272074Y376089D01*
X275638Y382127D02*
X272074Y385691D01*
X275638Y403653D02*
X272074Y400089D01*
X275638Y406127D02*
X272074Y409691D01*
X276779Y254770D02*
X281819D01*
X276875Y61140D02*
Y56100D01*
Y64640D02*
Y69680D01*
Y85140D02*
Y80100D01*
Y88640D02*
Y93680D01*
Y391140D02*
Y386100D01*
Y394640D02*
Y399680D01*
Y415140D02*
Y410100D01*
Y418640D02*
Y423680D01*
X278112Y379653D02*
X281676Y376089D01*
X278112Y382127D02*
X281676Y385691D01*
X278112Y403653D02*
X281676Y400089D01*
X278112Y406127D02*
X281676Y409691D01*
X278625Y62890D02*
X283665D01*
X278625Y86890D02*
X283665D01*
X278625Y392890D02*
X283665D01*
X278625Y416890D02*
X283665D01*
X279125Y470890D02*
X274085D01*
X279125Y494890D02*
X274085D01*
X279638Y481653D02*
X276074Y478089D01*
X279638Y484127D02*
X276074Y487691D01*
X279638Y505653D02*
X276074Y502089D01*
X279638Y508127D02*
X276074Y511691D01*
X280125Y231890D02*
X275085D01*
X280625Y183880D02*
X285665D01*
X280625Y323880D02*
X285665D01*
X280875Y469140D02*
Y464100D01*
Y472640D02*
Y477680D01*
Y493140D02*
Y488100D01*
Y496640D02*
Y501680D01*
X281875Y230140D02*
Y225100D01*
Y233640D02*
Y238680D01*
X282112Y481653D02*
X285676Y478089D01*
X282112Y484127D02*
X285676Y487691D01*
X282112Y505653D02*
X285676Y502089D01*
X282112Y508127D02*
X285676Y511691D01*
X282625Y470890D02*
X287665D01*
X282625Y494890D02*
X287665D01*
X283625Y231890D02*
X288665D01*
X287125Y74890D02*
X282085D01*
X287125Y380890D02*
X282085D01*
X287125Y404890D02*
X282085D01*
X287638Y391653D02*
X284074Y388089D01*
X287638Y394127D02*
X284074Y397691D01*
X287638Y415653D02*
X284074Y412089D01*
X287638Y418127D02*
X284074Y421691D01*
X288125Y308890D02*
X283085D01*
X288875Y73140D02*
Y68100D01*
Y76640D02*
Y81680D01*
Y379140D02*
Y374100D01*
Y382640D02*
Y387680D01*
Y403140D02*
Y398100D01*
Y406640D02*
Y411680D01*
X289875Y307140D02*
Y302100D01*
Y310640D02*
Y315680D01*
X290112Y391653D02*
X293676Y388089D01*
X290112Y394127D02*
X293676Y397691D01*
X290112Y415653D02*
X293676Y412089D01*
X290112Y418127D02*
X293676Y421691D01*
X290625Y74890D02*
X295665D01*
X290625Y380890D02*
X295665D01*
X290625Y404890D02*
X295665D01*
X291125Y482890D02*
X286085D01*
X291125Y506890D02*
X286085D01*
X291625Y308890D02*
X296665D01*
X291638Y469653D02*
X288074Y466089D01*
X291638Y472127D02*
X288074Y475691D01*
X291638Y493653D02*
X288074Y490089D01*
X291638Y496127D02*
X288074Y499691D01*
X292875Y481140D02*
Y476100D01*
Y484640D02*
Y489680D01*
Y505140D02*
Y500100D01*
Y508640D02*
Y513680D01*
X294112Y469653D02*
X297676Y466089D01*
X294112Y472127D02*
X297676Y475691D01*
X294112Y493653D02*
X297676Y490089D01*
X294112Y496127D02*
X297676Y499691D01*
X294625Y482890D02*
X299665D01*
X294625Y506890D02*
X299665D01*
X296959Y300974D02*
X292285Y296300D01*
X296959Y332806D02*
X292285Y337480D01*
X297325Y176890D02*
X292285D01*
X297925Y277140D02*
X292885D01*
X298125Y223890D02*
X293085D01*
X298125Y247890D02*
X293085D01*
X298638Y210653D02*
X295074Y207089D01*
X298638Y213127D02*
X295074Y216691D01*
X298638Y234653D02*
X295074Y231089D01*
X298638Y237127D02*
X295074Y240691D01*
X298638Y258653D02*
X295074Y255089D01*
X298638Y261127D02*
X295074Y264691D01*
X299125Y62890D02*
X294085D01*
X299125Y86890D02*
X294085D01*
X299125Y110890D02*
X294085D01*
X299875Y222140D02*
Y217100D01*
Y225640D02*
Y230680D01*
Y246140D02*
Y241100D01*
Y249640D02*
Y254680D01*
X300875Y61140D02*
Y56100D01*
Y64640D02*
Y69680D01*
Y85140D02*
Y80100D01*
Y88640D02*
Y93680D01*
Y109140D02*
Y104100D01*
Y112640D02*
Y117680D01*
X301112Y210653D02*
X304676Y207089D01*
X301112Y213127D02*
X304676Y216691D01*
X301112Y234653D02*
X304676Y231089D01*
X301112Y237127D02*
X304676Y240691D01*
X301112Y258653D02*
X304676Y255089D01*
X301112Y261127D02*
X304676Y264691D01*
X301625Y223890D02*
X306665D01*
X301625Y247890D02*
X306665D01*
X302625Y62890D02*
X307665D01*
X302625Y86890D02*
X307665D01*
X302625Y110890D02*
X307665D01*
X303625Y271390D02*
Y266350D01*
X309325Y277140D02*
X314365D01*
X310125Y211890D02*
X305085D01*
X310125Y235890D02*
X305085D01*
X310125Y259890D02*
X305085D01*
X310638Y222653D02*
X307074Y219089D01*
X310638Y225127D02*
X307074Y228691D01*
X310638Y246653D02*
X307074Y243089D01*
X310638Y249127D02*
X307074Y252691D01*
X311125Y74890D02*
X306085D01*
X311125Y98890D02*
X306085D01*
X311125Y122890D02*
X306085D01*
X311875Y210140D02*
Y205100D01*
Y213640D02*
Y218680D01*
Y234140D02*
Y229100D01*
Y237640D02*
Y242680D01*
Y258140D02*
Y253100D01*
Y261640D02*
Y266680D01*
X312875Y73140D02*
Y68100D01*
Y76640D02*
Y81680D01*
Y97140D02*
Y92100D01*
Y100640D02*
Y105680D01*
Y121140D02*
Y116100D01*
Y124640D02*
Y129680D01*
Y199940D02*
Y204980D01*
X313112Y222653D02*
X316676Y219089D01*
X313112Y225127D02*
X316676Y228691D01*
X313112Y246653D02*
X316676Y243089D01*
X313112Y249127D02*
X316676Y252691D01*
X313625Y211890D02*
X318665D01*
X313625Y235890D02*
X318665D01*
X313625Y259890D02*
X318665D01*
X314625Y74890D02*
X319665D01*
X314625Y98890D02*
X319665D01*
X314625Y122890D02*
X319665D01*
X322638Y210653D02*
X319074Y207089D01*
X322638Y213127D02*
X319074Y216691D01*
X322638Y222653D02*
X319074Y219089D01*
X322638Y225127D02*
X319074Y228691D01*
X322638Y234653D02*
X319074Y231089D01*
X322638Y237127D02*
X319074Y240691D01*
X322638Y246653D02*
X319074Y243089D01*
X322638Y249127D02*
X319074Y252691D01*
X322638Y258653D02*
X319074Y255089D01*
X322638Y261127D02*
X319074Y264691D01*
X323125Y62890D02*
X318085D01*
X323125Y86890D02*
X318085D01*
X323125Y110890D02*
X318085D01*
X324875Y61140D02*
Y56100D01*
Y64640D02*
Y69680D01*
Y85140D02*
Y80100D01*
Y88640D02*
Y93680D01*
Y109140D02*
Y104100D01*
Y112640D02*
Y117680D01*
X325112Y210653D02*
X328676Y207089D01*
X325112Y213127D02*
X328676Y216691D01*
X325112Y222653D02*
X328676Y219089D01*
X325112Y225127D02*
X328676Y228691D01*
X325112Y234653D02*
X328676Y231089D01*
X325112Y237127D02*
X328676Y240691D01*
X325112Y246653D02*
X328676Y243089D01*
X325112Y249127D02*
X328676Y252691D01*
X325112Y258653D02*
X328676Y255089D01*
X325112Y261127D02*
X328676Y264691D01*
X326625Y62890D02*
X331665D01*
X326625Y86890D02*
X331665D01*
X326625Y110890D02*
X331665D01*
X328791Y300974D02*
X333465Y296300D01*
X328791Y332806D02*
X333465Y337480D01*
X332125Y482890D02*
X327085D01*
X332125Y506890D02*
X327085D01*
X332638Y469653D02*
X329074Y466089D01*
X332638Y472127D02*
X329074Y475691D01*
X332638Y493653D02*
X329074Y490089D01*
X332638Y496127D02*
X329074Y499691D01*
X333875Y481140D02*
Y476100D01*
Y484640D02*
Y489680D01*
Y505140D02*
Y500100D01*
Y508640D02*
Y513680D01*
X335112Y469653D02*
X338676Y466089D01*
X335112Y472127D02*
X338676Y475691D01*
X335112Y493653D02*
X338676Y490089D01*
X335112Y496127D02*
X338676Y499691D01*
X335125Y74890D02*
X330085D01*
X335125Y98890D02*
X330085D01*
X335125Y122890D02*
X330085D01*
X335625Y482890D02*
X340665D01*
X335625Y506890D02*
X340665D01*
X336875Y73140D02*
Y68100D01*
Y76640D02*
Y81680D01*
Y97140D02*
Y92100D01*
Y100640D02*
Y105680D01*
Y121140D02*
Y116100D01*
Y124640D02*
Y129680D01*
X338625Y74890D02*
X343665D01*
X338625Y98890D02*
X343665D01*
X338625Y122890D02*
X343665D01*
X340959Y160974D02*
X336285Y156300D01*
X340959Y192806D02*
X336285Y197480D01*
X340959Y300974D02*
X336285Y296300D01*
X340959Y332806D02*
X336285Y337480D01*
X341925Y277140D02*
X336885D01*
X342125Y211890D02*
X337085D01*
X342125Y235890D02*
X337085D01*
X342125Y259890D02*
X337085D01*
X342638Y222653D02*
X339074Y219089D01*
X342638Y225127D02*
X339074Y228691D01*
X342638Y246653D02*
X339074Y243089D01*
X342638Y249127D02*
X339074Y252691D01*
X343875Y210140D02*
Y205100D01*
Y213640D02*
Y218680D01*
Y234140D02*
Y229100D01*
Y237640D02*
Y242680D01*
Y258140D02*
Y253100D01*
Y261640D02*
Y266680D01*
X344125Y470890D02*
X339085D01*
X344125Y494890D02*
X339085D01*
X344638Y481653D02*
X341074Y478089D01*
X344638Y484127D02*
X341074Y487691D01*
X344638Y505653D02*
X341074Y502089D01*
X344638Y508127D02*
X341074Y511691D01*
X345112Y222653D02*
X348676Y219089D01*
X345112Y225127D02*
X348676Y228691D01*
X345112Y246653D02*
X348676Y243089D01*
X345112Y249127D02*
X348676Y252691D01*
X345125Y392890D02*
X340085D01*
X345125Y416890D02*
X340085D01*
X345625Y211890D02*
X350665D01*
X345625Y235890D02*
X350665D01*
X345625Y259890D02*
X350665D01*
X345638Y379653D02*
X342074Y376089D01*
X345638Y382127D02*
X342074Y385691D01*
X345638Y403653D02*
X342074Y400089D01*
X345638Y406127D02*
X342074Y409691D01*
X345875Y469140D02*
Y464100D01*
Y472640D02*
Y477680D01*
Y493140D02*
Y488100D01*
Y496640D02*
Y501680D01*
X346875Y391140D02*
Y386100D01*
Y394640D02*
Y399680D01*
Y415140D02*
Y410100D01*
Y418640D02*
Y423680D01*
X347112Y481653D02*
X350676Y478089D01*
X347112Y484127D02*
X350676Y487691D01*
X347112Y505653D02*
X350676Y502089D01*
X347112Y508127D02*
X350676Y511691D01*
X347125Y62890D02*
X342085D01*
X347125Y86890D02*
X342085D01*
X347125Y110890D02*
X342085D01*
X347625Y271390D02*
Y266350D01*
Y470890D02*
X352665D01*
X347625Y494890D02*
X352665D01*
X348112Y379653D02*
X351676Y376089D01*
X348112Y382127D02*
X351676Y385691D01*
X348112Y403653D02*
X351676Y400089D01*
X348112Y406127D02*
X351676Y409691D01*
X348625Y392890D02*
X353665D01*
X348625Y416890D02*
X353665D01*
X348875Y61140D02*
Y56100D01*
Y64640D02*
Y69680D01*
Y85140D02*
Y80100D01*
Y88640D02*
Y93680D01*
Y109140D02*
Y104100D01*
Y112640D02*
Y117680D01*
X350625Y62890D02*
X355665D01*
X350625Y86890D02*
X355665D01*
X350625Y110890D02*
X355665D01*
X353325Y277140D02*
X358365D01*
X354125Y223890D02*
X349085D01*
X354125Y247890D02*
X349085D01*
X354638Y210653D02*
X351074Y207089D01*
X354638Y213127D02*
X351074Y216691D01*
X354638Y234653D02*
X351074Y231089D01*
X354638Y237127D02*
X351074Y240691D01*
X354638Y258653D02*
X351074Y255089D01*
X354638Y261127D02*
X351074Y264691D01*
X355875Y222140D02*
Y217100D01*
Y225640D02*
Y230680D01*
Y246140D02*
Y241100D01*
Y249640D02*
Y254680D01*
X356125Y482890D02*
X351085D01*
X356125Y506890D02*
X351085D01*
X356638Y469653D02*
X353074Y466089D01*
X356638Y472127D02*
X353074Y475691D01*
X356638Y493653D02*
X353074Y490089D01*
X356638Y496127D02*
X353074Y499691D01*
X357112Y210653D02*
X360676Y207089D01*
X357112Y213127D02*
X360676Y216691D01*
X357112Y234653D02*
X360676Y231089D01*
X357112Y237127D02*
X360676Y240691D01*
X357112Y258653D02*
X360676Y255089D01*
X357112Y261127D02*
X360676Y264691D01*
X357125Y380890D02*
X352085D01*
X357125Y404890D02*
X352085D01*
X357625Y223890D02*
X362665D01*
X357625Y247890D02*
X362665D01*
X357638Y391653D02*
X354074Y388089D01*
X357638Y394127D02*
X354074Y397691D01*
X357638Y415653D02*
X354074Y412089D01*
X357638Y418127D02*
X354074Y421691D01*
X357875Y481140D02*
Y476100D01*
Y484640D02*
Y489680D01*
Y505140D02*
Y500100D01*
Y508640D02*
Y513680D01*
X358875Y379140D02*
Y374100D01*
Y382640D02*
Y387680D01*
Y403140D02*
Y398100D01*
Y406640D02*
Y411680D01*
X359112Y469653D02*
X362676Y466089D01*
X359112Y472127D02*
X362676Y475691D01*
X359112Y493653D02*
X362676Y490089D01*
X359112Y496127D02*
X362676Y499691D01*
X359125Y74890D02*
X354085D01*
X359125Y98890D02*
X354085D01*
X359125Y122890D02*
X354085D01*
X359625Y482890D02*
X364665D01*
X359625Y506890D02*
X364665D01*
X360112Y391653D02*
X363676Y388089D01*
X360112Y394127D02*
X363676Y397691D01*
X360112Y415653D02*
X363676Y412089D01*
X360112Y418127D02*
X363676Y421691D01*
X360625Y380890D02*
X365665D01*
X360625Y404890D02*
X365665D01*
X360875Y73140D02*
Y68100D01*
Y76640D02*
Y81680D01*
Y97140D02*
Y92100D01*
Y100640D02*
Y105680D01*
Y121140D02*
Y116100D01*
Y124640D02*
Y129680D01*
X362625Y74890D02*
X367665D01*
X362625Y98890D02*
X367665D01*
X362625Y122890D02*
X367665D01*
X365625Y414890D02*
X360585D01*
X366125Y211890D02*
X361085D01*
X366125Y235890D02*
X361085D01*
X366125Y259890D02*
X361085D01*
X366125Y271390D02*
Y266350D01*
X366638Y222653D02*
X363074Y219089D01*
X366638Y225127D02*
X363074Y228691D01*
X366638Y246653D02*
X363074Y243089D01*
X366638Y249127D02*
X363074Y252691D01*
X367875Y210140D02*
Y205100D01*
Y213640D02*
Y218680D01*
Y234140D02*
Y229100D01*
Y237640D02*
Y242680D01*
Y258140D02*
Y253100D01*
Y261640D02*
Y266680D01*
X369112Y222653D02*
X372676Y219089D01*
X369112Y225127D02*
X372676Y228691D01*
X369112Y246653D02*
X372676Y243089D01*
X369112Y249127D02*
X372676Y252691D01*
X369625Y211890D02*
X374665D01*
X369625Y235890D02*
X374665D01*
X369625Y259890D02*
X374665D01*
X371125Y62890D02*
X366085D01*
X371125Y86890D02*
X366085D01*
X371125Y110890D02*
X366085D01*
X371825Y277140D02*
X376865D01*
X372791Y160974D02*
X377465Y156300D01*
X372791Y192806D02*
X377465Y197480D01*
X372791Y300974D02*
X377465Y296300D01*
X372791Y332806D02*
X377465Y337480D01*
X372875Y61140D02*
Y56100D01*
Y64640D02*
Y69680D01*
Y85140D02*
Y80100D01*
Y88640D02*
Y93680D01*
Y109140D02*
Y104100D01*
Y112640D02*
Y117680D01*
X374625Y62890D02*
X379665D01*
X374625Y86890D02*
X379665D01*
X376875Y393640D02*
Y388600D01*
Y436140D02*
Y441180D01*
X382125Y308890D02*
X377085D01*
X383125Y74890D02*
X378085D01*
X383875Y307140D02*
Y302100D01*
Y310640D02*
Y315680D01*
X384875Y73140D02*
Y68100D01*
Y76640D02*
Y81680D01*
X385125Y231890D02*
X380085D01*
X385625Y308890D02*
X390665D01*
X386625Y74890D02*
X391665D01*
X386875Y230140D02*
Y225100D01*
Y233640D02*
Y238680D01*
X388125Y414890D02*
X393165D01*
X388625Y231890D02*
X393665D01*
X393125Y183880D02*
X388085D01*
X394125Y323880D02*
X389085D01*
X394125Y482890D02*
X389085D01*
X394125Y506890D02*
X389085D01*
X394638Y469653D02*
X391074Y466089D01*
X394638Y472127D02*
X391074Y475691D01*
X394638Y493653D02*
X391074Y490089D01*
X394638Y496127D02*
X391074Y499691D01*
X395125Y62890D02*
X390085D01*
X395125Y86890D02*
X390085D01*
X395875Y481140D02*
Y476100D01*
Y484640D02*
Y489680D01*
Y505140D02*
Y500100D01*
Y508640D02*
Y513680D01*
X396875Y61140D02*
Y56100D01*
Y64640D02*
Y69680D01*
Y85140D02*
Y80100D01*
Y88640D02*
Y93680D01*
X397112Y469653D02*
X400676Y466089D01*
X397112Y472127D02*
X400676Y475691D01*
X397112Y493653D02*
X400676Y490089D01*
X397112Y496127D02*
X400676Y499691D01*
X397625Y482890D02*
X402665D01*
X397625Y506890D02*
X402665D01*
X397638Y230653D02*
X394074Y227089D01*
X397638Y233127D02*
X394074Y236691D01*
X398625Y62890D02*
X403665D01*
X398625Y86890D02*
X403665D01*
X400112Y230653D02*
X403676Y227089D01*
X400112Y233127D02*
X403676Y236691D01*
X405125Y392890D02*
X400085D01*
X405125Y416890D02*
X400085D01*
X405638Y379653D02*
X402074Y376089D01*
X405638Y382127D02*
X402074Y385691D01*
X405638Y403653D02*
X402074Y400089D01*
X405638Y406127D02*
X402074Y409691D01*
X406125Y470890D02*
X401085D01*
X406125Y494890D02*
X401085D01*
X406638Y481653D02*
X403074Y478089D01*
X406638Y484127D02*
X403074Y487691D01*
X406638Y505653D02*
X403074Y502089D01*
X406638Y508127D02*
X403074Y511691D01*
X406875Y391140D02*
Y386100D01*
Y394640D02*
Y399680D01*
Y415140D02*
Y410100D01*
Y418640D02*
Y423680D01*
X407125Y74890D02*
X402085D01*
X407875Y469140D02*
Y464100D01*
Y472640D02*
Y477680D01*
Y493140D02*
Y488100D01*
Y496640D02*
Y501680D01*
X408112Y379653D02*
X411676Y376089D01*
X408112Y382127D02*
X411676Y385691D01*
X408112Y403653D02*
X411676Y400089D01*
X408112Y406127D02*
X411676Y409691D01*
X408625Y392890D02*
X413665D01*
X408625Y416890D02*
X413665D01*
X408875Y73140D02*
Y68100D01*
Y76640D02*
Y81680D01*
X409112Y481653D02*
X412676Y478089D01*
X409112Y484127D02*
X412676Y487691D01*
X409112Y505653D02*
X412676Y502089D01*
X409112Y508127D02*
X412676Y511691D01*
X409125Y231890D02*
X404085D01*
X409625Y470890D02*
X414665D01*
X409625Y494890D02*
X414665D01*
X410625Y74890D02*
X415665D01*
X410875Y230140D02*
Y225100D01*
Y233640D02*
Y238680D01*
X412625Y231890D02*
X417665D01*
X417125Y380890D02*
X412085D01*
X417125Y404890D02*
X412085D01*
X417638Y391653D02*
X414074Y388089D01*
X417638Y394127D02*
X414074Y397691D01*
X417638Y415653D02*
X414074Y412089D01*
X417638Y418127D02*
X414074Y421691D01*
X418125Y482890D02*
X413085D01*
X418125Y506890D02*
X413085D01*
X418638Y469653D02*
X415074Y466089D01*
X418638Y472127D02*
X415074Y475691D01*
X418638Y493653D02*
X415074Y490089D01*
X418638Y496127D02*
X415074Y499691D01*
X418875Y379140D02*
Y374100D01*
Y382640D02*
Y387680D01*
Y403140D02*
Y398100D01*
Y406640D02*
Y411680D01*
X419125Y62890D02*
X414085D01*
X419125Y86890D02*
X414085D01*
X419875Y481140D02*
Y476100D01*
Y484640D02*
Y489680D01*
Y505140D02*
Y500100D01*
Y508640D02*
Y513680D01*
X420112Y391653D02*
X423676Y388089D01*
X420112Y394127D02*
X423676Y397691D01*
X420112Y415653D02*
X423676Y412089D01*
X420112Y418127D02*
X423676Y421691D01*
X420625Y380890D02*
X425665D01*
X420625Y404890D02*
X425665D01*
X420875Y61140D02*
Y56100D01*
Y64640D02*
Y69680D01*
Y85140D02*
Y80100D01*
Y88640D02*
Y93680D01*
X421112Y469653D02*
X424676Y466089D01*
X421112Y472127D02*
X424676Y475691D01*
X421112Y493653D02*
X424676Y490089D01*
X421112Y496127D02*
X424676Y499691D01*
X421625Y482890D02*
X426665D01*
X421625Y506890D02*
X426665D01*
X422625Y62890D02*
X427665D01*
X422625Y86890D02*
X427665D01*
X425125Y231890D02*
X420085D01*
X426875Y217630D02*
Y222670D01*
Y230140D02*
Y225100D01*
Y233640D02*
Y238680D01*
X427875Y357630D02*
Y362670D01*
X428625Y231890D02*
X433665D01*
X431125Y74890D02*
X426085D01*
X432875Y73140D02*
Y68100D01*
Y76640D02*
Y81680D01*
X434625Y74890D02*
X439665D01*
X437638Y230653D02*
X434074Y227089D01*
X437638Y233127D02*
X434074Y236691D01*
X440112Y230653D02*
X443676Y227089D01*
X440112Y233127D02*
X443676Y236691D01*
X443125Y62890D02*
X438085D01*
X443125Y86890D02*
X438085D01*
X444875Y61140D02*
Y56100D01*
Y64640D02*
Y69680D01*
Y85140D02*
Y80100D01*
Y88640D02*
Y93680D01*
X444913Y248154D02*
X440239Y243480D01*
X444913Y261386D02*
X440239Y266060D01*
X446625Y62890D02*
X451665D01*
X446625Y86890D02*
X451665D01*
X449125Y231890D02*
X444085D01*
X450875Y230140D02*
Y225100D01*
Y233640D02*
Y238680D01*
X452625Y231890D02*
X457665D01*
X458145Y248154D02*
X462819Y243480D01*
X458145Y261386D02*
X462819Y266060D01*
X460625Y183880D02*
X465665D01*
X467125Y110890D02*
X462085D01*
X468875Y109140D02*
Y104100D01*
Y112640D02*
Y117680D01*
X470625Y110890D02*
X475665D01*
X479125Y98890D02*
X474085D01*
X479125Y122890D02*
X474085D01*
X480875Y97140D02*
Y92100D01*
Y100640D02*
Y105680D01*
Y121140D02*
Y116100D01*
Y124640D02*
Y129680D01*
X482625Y98890D02*
X487665D01*
X482625Y122890D02*
X487665D01*
X491125Y110890D02*
X486085D01*
X492875Y109140D02*
Y104100D01*
Y112640D02*
Y117680D01*
X493125Y280890D02*
X488085D01*
X493125Y304890D02*
X488085D01*
X493638Y291653D02*
X490074Y288089D01*
X493638Y294127D02*
X490074Y297691D01*
X493638Y315653D02*
X490074Y312089D01*
X493638Y318127D02*
X490074Y321691D01*
X494625Y110890D02*
X499665D01*
X494875Y279140D02*
Y274100D01*
Y282640D02*
Y287680D01*
Y303140D02*
Y298100D01*
Y306640D02*
Y311680D01*
X496112Y291653D02*
X499676Y288089D01*
X496112Y294127D02*
X499676Y297691D01*
X496112Y315653D02*
X499676Y312089D01*
X496112Y318127D02*
X499676Y321691D01*
X496625Y280890D02*
X501665D01*
X496625Y304890D02*
X501665D01*
X503125Y98890D02*
X498085D01*
X503125Y122890D02*
X498085D01*
X504875Y97140D02*
Y92100D01*
Y100640D02*
Y105680D01*
Y121140D02*
Y116100D01*
Y124640D02*
Y129680D01*
X505125Y292890D02*
X500085D01*
X505125Y316890D02*
X500085D01*
X505638Y279653D02*
X502074Y276089D01*
X505638Y282127D02*
X502074Y285691D01*
X505638Y303653D02*
X502074Y300089D01*
X505638Y306127D02*
X502074Y309691D01*
X506625Y98890D02*
X511665D01*
X506625Y122890D02*
X511665D01*
X506875Y291140D02*
Y286100D01*
Y294640D02*
Y299680D01*
Y315140D02*
Y310100D01*
Y318640D02*
Y323680D01*
X508112Y279653D02*
X511676Y276089D01*
X508112Y282127D02*
X511676Y285691D01*
X508112Y303653D02*
X511676Y300089D01*
X508112Y306127D02*
X511676Y309691D01*
X508625Y292890D02*
X513665D01*
X508625Y316890D02*
X513665D01*
X515125Y62890D02*
X510085D01*
X515125Y86890D02*
X510085D01*
X515125Y110890D02*
X510085D01*
X516875Y61140D02*
Y56100D01*
Y64640D02*
Y69680D01*
Y85140D02*
Y80100D01*
Y88640D02*
Y93680D01*
Y109140D02*
Y104100D01*
Y112640D02*
Y117680D01*
X518625Y62890D02*
X523665D01*
X518625Y86890D02*
X523665D01*
X518625Y110890D02*
X523665D01*
X521125Y249140D02*
Y244100D01*
Y256640D02*
Y261680D01*
X523125Y252890D02*
X528165D01*
X527125Y122890D02*
X522085D01*
X528875Y121140D02*
Y116100D01*
Y124640D02*
Y129680D01*
X530625Y122890D02*
X535665D01*
X555575Y201890D02*
X550535D01*
X567125Y116890D02*
X562085D01*
X567638Y103653D02*
X564074Y100089D01*
X567638Y106127D02*
X564074Y109691D01*
X567875Y349140D02*
Y344100D01*
Y352640D02*
Y357680D01*
Y373140D02*
Y368100D01*
Y376640D02*
Y381680D01*
Y388640D02*
Y393680D01*
X568875Y115140D02*
Y110100D01*
X569112Y361653D02*
X572676Y358089D01*
X569112Y364127D02*
X572676Y367691D01*
X569625Y350890D02*
X574665D01*
X569625Y374890D02*
X574665D01*
X569625Y386890D02*
X574665D01*
X570112Y103653D02*
X573676Y100089D01*
X570112Y106127D02*
X573676Y109691D01*
X570625Y116890D02*
X575665D01*
X578125Y362890D02*
X573085D01*
X578638Y349653D02*
X575074Y346089D01*
X578638Y352127D02*
X575074Y355691D01*
X578638Y373653D02*
X575074Y370089D01*
X578638Y376127D02*
X575074Y379691D01*
X578638Y385653D02*
X575074Y382089D01*
X578638Y388127D02*
X575074Y391691D01*
X579638Y103653D02*
X576074Y100089D01*
X579638Y106127D02*
X576074Y109691D01*
X579638Y115653D02*
X576074Y112089D01*
X579875Y361140D02*
Y356100D01*
Y364640D02*
Y369680D01*
X581112Y349653D02*
X584676Y346089D01*
X581112Y352127D02*
X584676Y355691D01*
X581112Y373653D02*
X584676Y370089D01*
X581112Y376127D02*
X584676Y379691D01*
X581112Y385653D02*
X584676Y382089D01*
X581112Y388127D02*
X584676Y391691D01*
X581625Y362890D02*
X586665D01*
X582112Y103653D02*
X585676Y100089D01*
X582112Y106127D02*
X585676Y109691D01*
X582112Y115653D02*
X585676Y112089D01*
X582112Y118127D02*
X585676Y121691D01*
X587875Y147640D02*
Y142600D01*
Y158140D02*
Y163180D01*
X588175Y201890D02*
X593215D01*
X590125Y350890D02*
X585085D01*
X590925Y168166D02*
Y163126D01*
Y181666D02*
Y186706D01*
X591125Y152890D02*
X596165D01*
X591638Y103653D02*
X588074Y100089D01*
X591638Y106127D02*
X588074Y109691D01*
X591875Y349140D02*
Y344100D01*
Y361140D02*
Y356100D01*
Y364640D02*
Y369680D01*
X593475Y174916D02*
X598515D01*
X594112Y103653D02*
X597676Y100089D01*
X594112Y106127D02*
X597676Y109691D01*
X600099Y386940D02*
X595059D01*
X600099Y461940D02*
X595059D01*
X606849Y389490D02*
Y394530D01*
Y464490D02*
Y469530D01*
X625625Y239890D02*
X620585D01*
X625625Y258890D02*
X620585D01*
X627625Y236140D02*
Y231100D01*
Y243640D02*
Y248680D01*
Y255140D02*
Y250100D01*
Y262640D02*
Y267680D01*
X629625Y239890D02*
X634665D01*
X629625Y258890D02*
X634665D01*
X635105Y299890D02*
X630065D01*
X641475Y293520D02*
Y288480D01*
Y306260D02*
Y311300D01*
X644625Y223890D02*
X639585D01*
X647845Y299890D02*
X652885D01*
X647875Y218640D02*
Y213600D01*
Y229140D02*
Y234180D01*
X651125Y134890D02*
X646085D01*
X651125Y223890D02*
X656165D01*
X651638Y121653D02*
X648074Y118089D01*
X651638Y124127D02*
X648074Y127691D01*
X651638Y145653D02*
X648074Y142089D01*
X651638Y148127D02*
X648074Y151691D01*
X652875Y133140D02*
Y128100D01*
Y136640D02*
Y141680D01*
X654112Y121653D02*
X657676Y118089D01*
X654112Y124127D02*
X657676Y127691D01*
X654112Y145653D02*
X657676Y142089D01*
X654112Y148127D02*
X657676Y151691D01*
X654625Y134890D02*
X659665D01*
X655125Y256890D02*
X650085D01*
X656875Y255140D02*
Y250100D01*
Y258640D02*
Y263680D01*
X658625Y256890D02*
X663665D01*
X663125Y122890D02*
X658085D01*
X663125Y146890D02*
X658085D01*
X663638Y133653D02*
X660074Y130089D01*
X663638Y136127D02*
X660074Y139691D01*
X664875Y121140D02*
Y116100D01*
Y124640D02*
Y129680D01*
Y145140D02*
Y140100D01*
Y148640D02*
Y153680D01*
X666112Y133653D02*
X669676Y130089D01*
X666112Y136127D02*
X669676Y139691D01*
X666625Y122890D02*
X671665D01*
X666625Y146890D02*
X671665D01*
X667125Y244890D02*
X662085D01*
X667638Y255653D02*
X664074Y252089D01*
X667638Y258127D02*
X664074Y261691D01*
X668875Y243140D02*
Y238100D01*
Y246640D02*
Y251680D01*
X670112Y255653D02*
X673676Y252089D01*
X670112Y258127D02*
X673676Y261691D01*
X670625Y244890D02*
X675665D01*
X675638Y121653D02*
X672074Y118089D01*
X675638Y124127D02*
X672074Y127691D01*
X678112Y121653D02*
X681676Y118089D01*
X678112Y124127D02*
X681676Y127691D01*
X679125Y256890D02*
X674085D01*
X679638Y243653D02*
X676074Y240089D01*
X679638Y246127D02*
X676074Y249691D01*
X680875Y255140D02*
Y250100D01*
Y258640D02*
Y263680D01*
X682112Y243653D02*
X685676Y240089D01*
X682112Y246127D02*
X685676Y249691D01*
X682625Y256890D02*
X687665D01*
X687125Y122890D02*
X682085D01*
X688875Y121140D02*
Y116100D01*
Y124640D02*
Y129680D01*
X690625Y122890D02*
X695665D01*
X692125Y437890D02*
X687085D01*
X692125Y461890D02*
X687085D01*
X692638Y424653D02*
X689074Y421089D01*
X692638Y427127D02*
X689074Y430691D01*
X692638Y448653D02*
X689074Y445089D01*
X692638Y451127D02*
X689074Y454691D01*
X693875Y436140D02*
Y431100D01*
Y439640D02*
Y444680D01*
Y460140D02*
Y455100D01*
Y463640D02*
Y468680D01*
X695112Y424653D02*
X698676Y421089D01*
X695112Y427127D02*
X698676Y430691D01*
X695112Y448653D02*
X698676Y445089D01*
X695112Y451127D02*
X698676Y454691D01*
X695625Y437890D02*
X700665D01*
X695625Y461890D02*
X700665D01*
X699638Y121653D02*
X696074Y118089D01*
X699638Y124127D02*
X696074Y127691D01*
X702112Y121653D02*
X705676Y118089D01*
X702112Y124127D02*
X705676Y127691D01*
X702471Y257186D02*
X698907Y253622D01*
X702471Y266194D02*
X698907Y269758D01*
X704125Y425890D02*
X699085D01*
X704125Y449890D02*
X699085D01*
X704638Y436653D02*
X701074Y433089D01*
X704638Y439127D02*
X701074Y442691D01*
X704638Y460653D02*
X701074Y457089D01*
X704638Y463127D02*
X701074Y466691D01*
X705875Y424140D02*
Y419100D01*
Y427640D02*
Y432680D01*
Y448140D02*
Y443100D01*
Y451640D02*
Y456680D01*
X707112Y436653D02*
X710676Y433089D01*
X707112Y439127D02*
X710676Y442691D01*
X707112Y460653D02*
X710676Y457089D01*
X707112Y463127D02*
X710676Y466691D01*
X707625Y425890D02*
X712665D01*
X707625Y449890D02*
X712665D01*
X711125Y122890D02*
X706085D01*
X711479Y257186D02*
X715043Y253622D01*
X711479Y266194D02*
X715043Y269758D01*
X712875Y121140D02*
Y116100D01*
Y124640D02*
Y129680D01*
X714625Y122890D02*
X719665D01*
X720625Y434590D02*
X715585D01*
X722959Y444374D02*
X718285Y439700D01*
X723125Y163890D02*
X718085D01*
X723638Y150653D02*
X720074Y147089D01*
X723638Y153127D02*
X720074Y156691D01*
X723638Y174653D02*
X720074Y171089D01*
X723638Y177127D02*
X720074Y180691D01*
X724875Y162140D02*
Y157100D01*
Y165640D02*
Y170680D01*
X725875Y437140D02*
Y442180D01*
X726005Y261690D02*
X720965D01*
X726112Y150653D02*
X729676Y147089D01*
X726112Y153127D02*
X729676Y156691D01*
X726112Y174653D02*
X729676Y171089D01*
X726112Y177127D02*
X729676Y180691D01*
X726625Y163890D02*
X731665D01*
X728791Y444374D02*
X733465Y439700D01*
X732375Y255320D02*
Y250280D01*
X735125Y175890D02*
X730085D01*
X735638Y162653D02*
X732074Y159089D01*
X735638Y165127D02*
X732074Y168691D01*
X736875Y174140D02*
Y169100D01*
Y177640D02*
Y182680D01*
X738112Y162653D02*
X741676Y159089D01*
X738112Y165127D02*
X741676Y168691D01*
X738625Y175890D02*
X743665D01*
D02*
D83*
X107875Y194890D02*
D03*
Y256890D02*
D03*
Y318890D02*
D03*
Y380890D02*
D03*
D02*
D84*
X223257Y114928D02*
D03*
Y254928D02*
D03*
X270529Y114770D02*
D03*
Y254770D02*
D03*
X403257Y114928D02*
D03*
X404257Y254928D02*
D03*
X450529Y114770D02*
D03*
X451529Y254770D02*
D03*
D02*
D85*
X246875Y183880D02*
D03*
Y323880D02*
D03*
X426875Y183880D02*
D03*
X427875Y323880D02*
D03*
D02*
D86*
X672475Y421890D02*
D03*
Y434590D02*
D03*
Y447290D02*
D03*
Y459990D02*
D03*
X725875Y421890D02*
D03*
Y434590D02*
D03*
Y447290D02*
D03*
Y459990D02*
D03*
D02*
D87*
X656975Y362540D02*
D03*
Y375240D02*
D03*
Y388540D02*
D03*
Y401240D02*
D03*
X724775Y362540D02*
D03*
Y375240D02*
D03*
Y388540D02*
D03*
Y401240D02*
D03*
D02*
D88*
X568375Y406890D02*
D03*
X569375Y331890D02*
D03*
X591375Y406890D02*
D03*
X592375Y331890D02*
D03*
D02*
D89*
X561375Y70890D02*
D03*
Y513390D02*
D03*
X586375Y70890D02*
D03*
Y513390D02*
D03*
X611375Y70890D02*
D03*
Y513390D02*
D03*
X636375Y70890D02*
D03*
Y513390D02*
D03*
X661375Y70890D02*
D03*
Y513390D02*
D03*
X686375Y70890D02*
D03*
Y513390D02*
D03*
X711375Y70890D02*
D03*
Y513390D02*
D03*
X736375Y70890D02*
D03*
Y513390D02*
D03*
X761375Y70890D02*
D03*
Y513390D02*
D03*
X786375Y70890D02*
D03*
Y513390D02*
D03*
D02*
D90*
X479375Y482890D02*
D03*
X494375D02*
D03*
D02*
D91*
X458875Y517390D02*
D03*
X514875D02*
D03*
D02*
D92*
X249875Y415890D02*
D03*
Y500890D02*
D03*
X376875Y414890D02*
D03*
Y499890D02*
D03*
D02*
D93*
X312875Y176890D02*
D03*
Y316890D02*
D03*
X356875Y176890D02*
D03*
Y316890D02*
D03*
D02*
D94*
X303625Y137140D02*
D03*
Y277140D02*
D03*
X322125Y137140D02*
D03*
Y277140D02*
D03*
X347625Y137140D02*
D03*
Y277140D02*
D03*
X366125Y137140D02*
D03*
Y277140D02*
D03*
D02*
D95*
X616875Y159890D02*
D03*
X696875D02*
D03*
D02*
D96*
X552825Y174916D02*
D03*
Y228874D02*
D03*
X565525Y174916D02*
D03*
Y228874D02*
D03*
X578225Y174916D02*
D03*
Y228874D02*
D03*
X590925Y174916D02*
D03*
Y228874D02*
D03*
D02*
D97*
X571875Y201890D02*
D03*
D02*
D98*
X567875Y152890D02*
D03*
X587875D02*
D03*
X647875Y223890D02*
D03*
X667875D02*
D03*
D02*
D105*
X134875Y312890D02*
D03*
Y324890D02*
D03*
Y336890D02*
D03*
X135875Y228890D02*
D03*
Y240890D02*
D03*
Y252890D02*
D03*
X146875Y312890D02*
D03*
Y324890D02*
D03*
Y336890D02*
D03*
X147875Y228890D02*
D03*
Y240890D02*
D03*
Y252890D02*
D03*
X156875Y62890D02*
D03*
Y86890D02*
D03*
X158875Y300890D02*
D03*
Y312890D02*
D03*
Y324890D02*
D03*
Y336890D02*
D03*
X159875Y228890D02*
D03*
Y240890D02*
D03*
Y252890D02*
D03*
Y264890D02*
D03*
Y276890D02*
D03*
X168875Y74890D02*
D03*
X170875Y300890D02*
D03*
Y312890D02*
D03*
Y324890D02*
D03*
Y336890D02*
D03*
X171875Y216890D02*
D03*
Y228890D02*
D03*
Y240890D02*
D03*
Y252890D02*
D03*
Y264890D02*
D03*
Y276890D02*
D03*
X180875Y62890D02*
D03*
Y86890D02*
D03*
X182875Y300890D02*
D03*
Y312890D02*
D03*
Y324890D02*
D03*
Y336890D02*
D03*
X183875Y216890D02*
D03*
Y228890D02*
D03*
Y240890D02*
D03*
Y252890D02*
D03*
Y264890D02*
D03*
Y276890D02*
D03*
X192875Y74890D02*
D03*
X204875Y62890D02*
D03*
Y86890D02*
D03*
X206875Y380890D02*
D03*
Y392890D02*
D03*
Y404890D02*
D03*
Y416890D02*
D03*
Y470890D02*
D03*
Y482890D02*
D03*
Y494890D02*
D03*
Y506890D02*
D03*
X216875Y74890D02*
D03*
X217875Y231890D02*
D03*
X218875Y380890D02*
D03*
Y392890D02*
D03*
Y404890D02*
D03*
Y416890D02*
D03*
Y470890D02*
D03*
Y482890D02*
D03*
Y494890D02*
D03*
Y506890D02*
D03*
X228875Y62890D02*
D03*
Y86890D02*
D03*
X229875Y231890D02*
D03*
X230875Y470890D02*
D03*
Y482890D02*
D03*
Y494890D02*
D03*
Y506890D02*
D03*
X240875Y74890D02*
D03*
X241875Y231890D02*
D03*
X252875Y62890D02*
D03*
Y86890D02*
D03*
X257875Y231890D02*
D03*
X264875Y74890D02*
D03*
X268875Y470890D02*
D03*
Y482890D02*
D03*
Y494890D02*
D03*
Y506890D02*
D03*
X269875Y231890D02*
D03*
X276875Y62890D02*
D03*
Y86890D02*
D03*
Y380890D02*
D03*
Y392890D02*
D03*
Y404890D02*
D03*
Y416890D02*
D03*
X280875Y470890D02*
D03*
Y482890D02*
D03*
Y494890D02*
D03*
Y506890D02*
D03*
X281875Y231890D02*
D03*
X288875Y74890D02*
D03*
Y380890D02*
D03*
Y392890D02*
D03*
Y404890D02*
D03*
Y416890D02*
D03*
X289875Y308890D02*
D03*
X292875Y470890D02*
D03*
Y482890D02*
D03*
Y494890D02*
D03*
Y506890D02*
D03*
X299875Y211890D02*
D03*
Y223890D02*
D03*
Y235890D02*
D03*
Y247890D02*
D03*
Y259890D02*
D03*
X300875Y62890D02*
D03*
Y86890D02*
D03*
Y110890D02*
D03*
X311875Y211890D02*
D03*
Y223890D02*
D03*
Y235890D02*
D03*
Y247890D02*
D03*
Y259890D02*
D03*
X312875Y74890D02*
D03*
Y98890D02*
D03*
Y122890D02*
D03*
X323875Y211890D02*
D03*
Y223890D02*
D03*
Y235890D02*
D03*
Y247890D02*
D03*
Y259890D02*
D03*
X324875Y62890D02*
D03*
Y86890D02*
D03*
Y110890D02*
D03*
X333875Y470890D02*
D03*
Y482890D02*
D03*
Y494890D02*
D03*
Y506890D02*
D03*
X336875Y74890D02*
D03*
Y98890D02*
D03*
Y122890D02*
D03*
X343875Y211890D02*
D03*
Y223890D02*
D03*
Y235890D02*
D03*
Y247890D02*
D03*
Y259890D02*
D03*
X345875Y470890D02*
D03*
Y482890D02*
D03*
Y494890D02*
D03*
Y506890D02*
D03*
X346875Y380890D02*
D03*
Y392890D02*
D03*
Y404890D02*
D03*
Y416890D02*
D03*
X348875Y62890D02*
D03*
Y86890D02*
D03*
Y110890D02*
D03*
X355875Y211890D02*
D03*
Y223890D02*
D03*
Y235890D02*
D03*
Y247890D02*
D03*
Y259890D02*
D03*
X357875Y470890D02*
D03*
Y482890D02*
D03*
Y494890D02*
D03*
Y506890D02*
D03*
X358875Y380890D02*
D03*
Y392890D02*
D03*
Y404890D02*
D03*
Y416890D02*
D03*
X360875Y74890D02*
D03*
Y98890D02*
D03*
Y122890D02*
D03*
X367875Y211890D02*
D03*
Y223890D02*
D03*
Y235890D02*
D03*
Y247890D02*
D03*
Y259890D02*
D03*
X372875Y62890D02*
D03*
Y86890D02*
D03*
Y110890D02*
D03*
X383875Y308890D02*
D03*
X384875Y74890D02*
D03*
X386875Y231890D02*
D03*
X395875Y470890D02*
D03*
Y482890D02*
D03*
Y494890D02*
D03*
Y506890D02*
D03*
X396875Y62890D02*
D03*
Y86890D02*
D03*
X398875Y231890D02*
D03*
X406875Y380890D02*
D03*
Y392890D02*
D03*
Y404890D02*
D03*
Y416890D02*
D03*
X407875Y470890D02*
D03*
Y482890D02*
D03*
Y494890D02*
D03*
Y506890D02*
D03*
X408875Y74890D02*
D03*
X410875Y231890D02*
D03*
X418875Y380890D02*
D03*
Y392890D02*
D03*
Y404890D02*
D03*
Y416890D02*
D03*
X419875Y470890D02*
D03*
Y482890D02*
D03*
Y494890D02*
D03*
Y506890D02*
D03*
X420875Y62890D02*
D03*
Y86890D02*
D03*
X426875Y231890D02*
D03*
X432875Y74890D02*
D03*
X438875Y231890D02*
D03*
X444875Y62890D02*
D03*
Y86890D02*
D03*
X450875Y231890D02*
D03*
X468875Y110890D02*
D03*
X479375Y500890D02*
D03*
X480875Y98890D02*
D03*
Y122890D02*
D03*
X492875Y110890D02*
D03*
X494875Y280890D02*
D03*
Y292890D02*
D03*
Y304890D02*
D03*
Y316890D02*
D03*
X504875Y98890D02*
D03*
Y122890D02*
D03*
Y482890D02*
D03*
X506875Y280890D02*
D03*
Y292890D02*
D03*
Y304890D02*
D03*
Y316890D02*
D03*
Y407890D02*
D03*
X510875Y391890D02*
D03*
X511875Y355890D02*
D03*
X514875Y370890D02*
D03*
X516875Y62890D02*
D03*
Y86890D02*
D03*
Y110890D02*
D03*
X526875Y403890D02*
D03*
Y415890D02*
D03*
X527875Y191890D02*
D03*
X528875Y122890D02*
D03*
X534875Y200890D02*
D03*
X538875Y388890D02*
D03*
Y403890D02*
D03*
Y415890D02*
D03*
X567875Y132890D02*
D03*
Y350890D02*
D03*
Y362890D02*
D03*
Y374890D02*
D03*
Y386890D02*
D03*
X568875Y104890D02*
D03*
Y116890D02*
D03*
X579875Y350890D02*
D03*
Y362890D02*
D03*
Y374890D02*
D03*
Y386890D02*
D03*
X580875Y104890D02*
D03*
Y116890D02*
D03*
X591875Y350890D02*
D03*
Y362890D02*
D03*
X592875Y104890D02*
D03*
X593875Y376890D02*
D03*
X595875Y449290D02*
D03*
X634875Y430890D02*
D03*
Y446890D02*
D03*
X635875Y360890D02*
D03*
Y376890D02*
D03*
X636875Y206890D02*
D03*
X643875Y430890D02*
D03*
Y446890D02*
D03*
X644875Y391890D02*
D03*
X645875Y364890D02*
D03*
X649875Y346890D02*
D03*
X652875Y122890D02*
D03*
Y134890D02*
D03*
Y146890D02*
D03*
X656875Y256890D02*
D03*
X663875Y234890D02*
D03*
X664875Y122890D02*
D03*
Y134890D02*
D03*
Y146890D02*
D03*
X668875Y244890D02*
D03*
Y256890D02*
D03*
X676875Y122890D02*
D03*
X680875Y244890D02*
D03*
Y256890D02*
D03*
X688875Y122890D02*
D03*
X690875Y403890D02*
D03*
X693875Y425890D02*
D03*
Y437890D02*
D03*
Y449890D02*
D03*
Y461890D02*
D03*
X700875Y122890D02*
D03*
X705875Y425890D02*
D03*
Y437890D02*
D03*
Y449890D02*
D03*
Y461890D02*
D03*
X712875Y122890D02*
D03*
X724875Y151890D02*
D03*
Y163890D02*
D03*
Y175890D02*
D03*
X736875Y163890D02*
D03*
Y175890D02*
D03*
X738875Y361890D02*
D03*
Y375890D02*
D03*
X745875Y381890D02*
D03*
X762875Y457890D02*
D03*
X772875Y404890D02*
D03*
X798875Y329390D02*
D03*
D02*
D106*
X205875Y249140D02*
X217469D01*
X223257Y254928*
X205875Y264640D02*
Y275890D01*
X213875Y283890*
X282875*
X288875Y289890*
X381875*
X386875Y284890*
X464875*
X468875Y288890*
Y373890*
X476875Y381890*
X513875*
X519875Y387890*
Y436890*
X521875Y438890*
X553475*
X552891Y436540*
X206875Y109140D02*
X217469D01*
X223257Y114928*
X386875Y109140D02*
X397469D01*
X403257Y114928*
X386875Y124640D02*
Y133890D01*
X388875Y135890*
X500875*
X534875Y169890*
Y200890*
X386875Y249140D02*
X398469D01*
X404257Y254928*
X386875Y264640D02*
Y274890D01*
X389875Y277890*
X463875*
X473875Y287890*
Y357890*
X479875Y363890*
X553475*
X552891Y361540*
X451529Y254770D02*
Y271544D01*
X453875Y273890*
X467875*
X478875Y284890*
Y347890*
X486875Y355890*
X511875*
X510875Y391890D02*
Y394890D01*
X514875Y398890*
Y442890*
X520875Y448890*
X531875*
X514875Y370890D02*
X526875D01*
X529875Y373890*
X527875Y191890D02*
Y172890D01*
X497875Y142890*
X384875*
X380875Y146890*
X287875*
X277875Y136890*
X211875*
X206875Y131890*
Y124640*
X538875Y388890D02*
X546875D01*
Y386990*
X552891Y386940*
X552825Y228874D02*
X544641D01*
X536625Y236890*
Y252890*
X552875Y138140D02*
Y129890D01*
X558875Y123890*
X576225*
X584225Y131890*
X586225*
X552875Y153640D02*
Y174866D01*
X552825Y174916*
X552891Y461940D02*
X519975Y461990D01*
X509875Y451890*
Y411890*
X506875Y408890*
Y407890*
X565525Y228874D02*
Y237240D01*
X559875Y242890*
X554125*
X551125Y245890*
Y252890*
X578225Y228874D02*
Y238990D01*
X582125Y242890*
Y252890*
X590925Y228874D02*
X612125D01*
Y239890*
X595875Y449290D02*
X606849Y449240D01*
X597625Y252890D02*
X600875D01*
X606875Y258890*
X612125*
X606849Y361540D02*
X610575Y361590D01*
X617875Y368890*
X639875*
X642875Y371890*
Y381890*
X637875Y386890*
Y409890*
X640875Y412890*
X680875*
X683875Y415890*
Y429590*
X678875Y434590*
X672475*
X606849Y374240D02*
X596475Y374290D01*
X593875Y376890*
X612125Y221890D02*
Y239890D01*
X656975Y362540D02*
X648225D01*
X645875Y364890*
X672475Y447290D02*
X669275D01*
X660875Y438890*
X619875*
X617875Y436890*
X606875*
X606849Y436540*
X706975Y236290D02*
X732375D01*
X706975D02*
X704475D01*
X694875Y245890*
Y261890*
X677875Y278890*
X580625*
X566625Y264890*
Y252890*
X706975Y287090D02*
Y286790D01*
X718875Y274890*
X742875*
X746875Y270890*
Y249890*
X751875Y244890*
X768875*
X773875Y239890*
Y196890*
X754875Y177890*
Y133890*
X719875Y98890*
X671375*
X661375Y88890*
Y70890*
X724775Y375240D02*
X738225D01*
X738875Y375890*
X724775Y401240D02*
X693525D01*
X690875Y403890*
X725875Y421890D02*
X735125D01*
X737875Y419140*
X745875*
X732375Y287090D02*
X740675D01*
X752875Y274890*
Y253890*
X755875Y250890*
X772875*
X781875Y241890*
Y195890*
X758875Y172890*
Y128890*
X719875Y89890*
X688375*
X686375Y87890*
Y70890*
X738875Y361890D02*
X728875D01*
Y362540*
X724775*
X745875Y434640D02*
X758625D01*
X768875Y444890*
Y463890*
X753875Y478890*
X728875*
X711875Y495890*
X595375*
X586375Y504890*
Y513390*
X745875Y449140D02*
X757875D01*
Y448890*
X762875Y453890*
Y457890*
X745875Y464640D02*
X738525D01*
X733875Y459990*
X725875*
X0Y0D02*
M02*
